<svg class="main-svg" xmlns="http://www.w3.org/2000/svg" xmlns:xlink="http://www.w3.org/1999/xlink" width="890" height="360" style="" viewBox="0 0 890 360"><rect x="0" y="0" width="890" height="360" style="fill: rgb(255, 255, 255); fill-opacity: 1;"/><defs id="defs-a5a9b3"><g class="clips"><clipPath id="clipa5a9b3xyplot" class="plotclip"><rect width="232.63999999999996" height="220"/></clipPath><clipPath id="clipa5a9b3x2y2plot" class="plotclip"><rect width="232.63999999999996" height="220"/></clipPath><clipPath id="clipa5a9b3x3y3plot" class="plotclip"><rect width="232.63999999999996" height="220"/></clipPath><clipPath class="axesclip" id="clipa5a9b3x"><rect x="83" y="0" width="232.63999999999996" height="360"/></clipPath><clipPath class="axesclip" id="clipa5a9b3y"><rect x="0" y="60" width="890" height="220"/></clipPath><clipPath class="axesclip" id="clipa5a9b3xy"><rect x="83" y="60" width="232.63999999999996" height="220"/></clipPath><clipPath class="axesclip" id="clipa5a9b3y2"><rect x="0" y="60" width="890" height="220"/></clipPath><clipPath class="axesclip" id="clipa5a9b3xy2"><rect x="83" y="60" width="232.63999999999996" height="220"/></clipPath><clipPath class="axesclip" id="clipa5a9b3y3"><rect x="0" y="60" width="890" height="220"/></clipPath><clipPath class="axesclip" id="clipa5a9b3xy3"><rect x="83" y="60" width="232.63999999999996" height="220"/></clipPath><clipPath class="axesclip" id="clipa5a9b3x2"><rect x="330.17999999999995" y="0" width="232.63999999999996" height="360"/></clipPath><clipPath class="axesclip" id="clipa5a9b3x2y"><rect x="330.17999999999995" y="60" width="232.63999999999996" height="220"/></clipPath><clipPath class="axesclip" id="clipa5a9b3x2y2"><rect x="330.17999999999995" y="60" width="232.63999999999996" height="220"/></clipPath><clipPath class="axesclip" id="clipa5a9b3x2y3"><rect x="330.17999999999995" y="60" width="232.63999999999996" height="220"/></clipPath><clipPath class="axesclip" id="clipa5a9b3x3"><rect x="577.3599999999999" y="0" width="232.63999999999996" height="360"/></clipPath><clipPath class="axesclip" id="clipa5a9b3x3y"><rect x="577.3599999999999" y="60" width="232.63999999999996" height="220"/></clipPath><clipPath class="axesclip" id="clipa5a9b3x3y2"><rect x="577.3599999999999" y="60" width="232.63999999999996" height="220"/></clipPath><clipPath class="axesclip" id="clipa5a9b3x3y3"><rect x="577.3599999999999" y="60" width="232.63999999999996" height="220"/></clipPath></g><g class="gradients"/></defs><g class="bglayer"><rect class="bg" x="83" y="60" width="232.63999999999996" height="220" style="fill: rgb(229, 236, 246); fill-opacity: 1; stroke-width: 0;"/><rect class="bg" x="330.17999999999995" y="60" width="232.63999999999996" height="220" style="fill: rgb(229, 236, 246); fill-opacity: 1; stroke-width: 0;"/><rect class="bg" x="577.3599999999999" y="60" width="232.63999999999996" height="220" style="fill: rgb(229, 236, 246); fill-opacity: 1; stroke-width: 0;"/></g><g class="layer-below"><g class="imagelayer"/><g class="shapelayer"/></g><g class="cartesianlayer"><g class="subplot xy"><g class="layer-subplot"><g class="shapelayer"/><g class="imagelayer"/></g><g class="gridlayer"><g class="x"><path class="xgrid crisp" transform="translate(188.28,0)" d="M0,60v220" style="stroke: rgb(255, 255, 255); stroke-opacity: 1; stroke-width: 1px;"/><path class="xgrid crisp" transform="translate(273.19,0)" d="M0,60v220" style="stroke: rgb(255, 255, 255); stroke-opacity: 1; stroke-width: 1px;"/></g><g class="y"><path class="ygrid crisp" transform="translate(0,261.05)" d="M83,0h232.63999999999996" style="stroke: rgb(255, 255, 255); stroke-opacity: 1; stroke-width: 1px;"/><path class="ygrid crisp" transform="translate(0,179.1)" d="M83,0h232.63999999999996" style="stroke: rgb(255, 255, 255); stroke-opacity: 1; stroke-width: 1px;"/><path class="ygrid crisp" transform="translate(0,97.14)" d="M83,0h232.63999999999996" style="stroke: rgb(255, 255, 255); stroke-opacity: 1; stroke-width: 1px;"/></g></g><g class="zerolinelayer"><path class="xzl zl crisp" transform="translate(103.38,0)" d="M0,60v220" style="stroke: rgb(255, 255, 255); stroke-opacity: 1; stroke-width: 2px;"/></g><path class="xlines-below"/><path class="ylines-below"/><g class="overlines-below"/><g class="xaxislayer-below"/><g class="yaxislayer-below"/><g class="overaxes-below"/><g class="plot" transform="translate(83,60)" clip-path="url('#clipa5a9b3xyplot')"><g class="scatterlayer mlayer"><g class="trace scatter trace767aa9" style="stroke-miterlimit: 2; opacity: 1;"><g class="fills"/><g class="errorbars"/><g class="lines"><path class="js-line" d="M0,121.87L28.2,122.61L30.55,123.69L35.25,127.82L37.6,130.86L44.65,142.75L47,147.22L56.4,164.38L58.75,168.05L65.8,176.66L68.15,178.62L72.85,181.06L75.2,181.5L79.9,180.79L82.25,179.62L86.95,175.6L89.3,172.75L94,165.38L96.35,160.89L103.4,144.48L105.75,138.18L129.24,71.73L131.59,66.75L136.29,58.71L138.64,55.75L143.34,52.05L145.69,51.32L150.39,52.03L152.74,53.41L157.44,58.01L159.79,61.12L166.84,72.98L169.19,77.58L197.39,135.11L199.74,138.91L206.79,148.61L209.14,151.23L216.19,157.12L218.54,158.41L223.24,159.94L225.59,160.18L230.29,159.59L232.64,158.77" style="vector-effect: non-scaling-stroke; fill: none; stroke: rgb(99, 110, 250); stroke-opacity: 1; stroke-width: 2px; opacity: 1;"/></g><g class="points"/><g class="text"/></g><g class="trace scatter trace141d79" style="stroke-miterlimit: 2; opacity: 1;"><g class="fills"><g><path class="js-fill" d="M0,94.37L28.2,95.12L30.55,96.2L35.25,100.32L37.6,103.36L44.65,115.26L47,119.72L56.4,136.88L58.75,140.55L65.8,149.16L68.15,151.13L72.85,153.56L75.2,154.01L79.9,153.3L82.25,152.12L86.95,148.11L89.3,145.26L94,137.89L96.35,133.39L103.4,116.98L105.75,110.68L129.24,44.24L131.59,39.25L136.29,31.22L138.64,28.25L143.34,24.55L145.69,23.82L150.39,24.53L152.74,25.92L157.44,30.51L159.79,33.62L166.84,45.49L169.19,50.08L197.39,107.62L199.74,111.42L206.79,121.11L209.14,123.73L216.19,129.62L218.54,130.91L223.24,132.44L225.59,132.68L230.29,132.1L232.64,131.28L232.64,186.27L230.29,187.09L225.59,187.67L223.24,187.43L218.54,185.9L216.19,184.62L211.49,181.02L209.14,178.72L202.09,169.94L199.74,166.41L192.69,154.26L190.34,149.75L176.24,119.91L173.89,114.84L164.49,96.17L162.14,92.19L157.44,85.51L155.09,82.92L150.39,79.53L148.04,78.82L143.34,79.54L140.99,81.02L136.29,86.21L133.94,89.89L129.24,99.23L126.89,104.77L119.84,123.99L117.49,130.96L103.4,171.98L101.05,177.9L94,192.88L91.65,196.84L86.95,203.1L84.6,205.39L79.9,208.29L77.55,208.92L72.85,208.55L70.5,207.59L65.8,204.16L63.45,201.72L58.75,195.55L56.4,191.88L47,174.72L44.65,170.25L37.6,158.35L35.25,155.32L30.55,151.19L28.2,150.11L23.5,149.39L21.15,149.36L0,149.36Z" style="fill: rgb(99, 110, 250); fill-opacity: 0.5; stroke-width: 0;"/></g></g><g class="errorbars"/><g class="lines"><path class="js-line" d="M0,94.37L28.2,95.12L30.55,96.2L35.25,100.32L37.6,103.36L44.65,115.26L47,119.72L56.4,136.88L58.75,140.55L65.8,149.16L68.15,151.13L72.85,153.56L75.2,154.01L79.9,153.3L82.25,152.12L86.95,148.11L89.3,145.26L94,137.89L96.35,133.39L103.4,116.98L105.75,110.68L129.24,44.24L131.59,39.25L136.29,31.22L138.64,28.25L143.34,24.55L145.69,23.82L150.39,24.53L152.74,25.92L157.44,30.51L159.79,33.62L166.84,45.49L169.19,50.08L197.39,107.62L199.74,111.42L206.79,121.11L209.14,123.73L216.19,129.62L218.54,130.91L223.24,132.44L225.59,132.68L230.29,132.1L232.64,131.28L232.64,186.27L230.29,187.09L225.59,187.67L223.24,187.43L218.54,185.9L216.19,184.62L211.49,181.02L209.14,178.72L202.09,169.94L199.74,166.41L192.69,154.26L190.34,149.75L176.24,119.91L173.89,114.84L164.49,96.17L162.14,92.19L157.44,85.51L155.09,82.92L150.39,79.53L148.04,78.82L143.34,79.54L140.99,81.02L136.29,86.21L133.94,89.89L129.24,99.23L126.89,104.77L119.84,123.99L117.49,130.96L103.4,171.98L101.05,177.9L94,192.88L91.65,196.84L86.95,203.1L84.6,205.39L79.9,208.29L77.55,208.92L72.85,208.55L70.5,207.59L65.8,204.16L63.45,201.72L58.75,195.55L56.4,191.88L47,174.72L44.65,170.25L37.6,158.35L35.25,155.32L30.55,151.19L28.2,150.11L23.5,149.39L21.15,149.36L0,149.36" style="vector-effect: non-scaling-stroke; fill: none; stroke: rgb(99, 110, 250); stroke-opacity: 1; stroke-width: 0px; opacity: 1;"/></g><g class="points"/><g class="text"/></g></g></g><g class="overplot"/><path class="xlines-above crisp" d="M0,0" style="fill: none;"/><path class="ylines-above crisp" d="M0,0" style="fill: none;"/><g class="overlines-above"/><g class="xaxislayer-above"><g class="xtick"><text text-anchor="middle" x="0" y="293" transform="translate(103.38,0)" style="font-family: 'Open Sans', verdana, arial, sans-serif; font-size: 12px; fill: rgb(42, 63, 95); fill-opacity: 1; white-space: pre;">0</text></g><g class="xtick"><text text-anchor="middle" x="0" y="293" transform="translate(188.28,0)" style="font-family: 'Open Sans', verdana, arial, sans-serif; font-size: 12px; fill: rgb(42, 63, 95); fill-opacity: 1; white-space: pre;">200</text></g><g class="xtick"><text text-anchor="middle" x="0" y="293" transform="translate(273.19,0)" style="font-family: 'Open Sans', verdana, arial, sans-serif; font-size: 12px; fill: rgb(42, 63, 95); fill-opacity: 1; white-space: pre;">400</text></g></g><g class="yaxislayer-above"><g class="ytick"><text text-anchor="end" x="82" y="4.199999999999999" transform="translate(0,261.05)" style="font-family: 'Open Sans', verdana, arial, sans-serif; font-size: 12px; fill: rgb(42, 63, 95); fill-opacity: 1; white-space: pre;">500</text></g><g class="ytick"><text text-anchor="end" x="82" y="4.199999999999999" transform="translate(0,179.1)" style="font-family: 'Open Sans', verdana, arial, sans-serif; font-size: 12px; fill: rgb(42, 63, 95); fill-opacity: 1; white-space: pre;">1000</text></g><g class="ytick"><text text-anchor="end" x="82" y="4.199999999999999" transform="translate(0,97.14)" style="font-family: 'Open Sans', verdana, arial, sans-serif; font-size: 12px; fill: rgb(42, 63, 95); fill-opacity: 1; white-space: pre;">1500</text></g></g><g class="overaxes-above"/></g><g class="subplot x2y2"><g class="layer-subplot"><g class="shapelayer"/><g class="imagelayer"/></g><g class="gridlayer"><g class="x2"><path class="x2grid crisp" transform="translate(435.4599999999999,0)" d="M0,60v220" style="stroke: rgb(255, 255, 255); stroke-opacity: 1; stroke-width: 1px;"/><path class="x2grid crisp" transform="translate(520.3699999999999,0)" d="M0,60v220" style="stroke: rgb(255, 255, 255); stroke-opacity: 1; stroke-width: 1px;"/></g><g class="y2"><path class="y2grid crisp" transform="translate(0,261.05)" d="M330.17999999999995,0h232.63999999999996" style="stroke: rgb(255, 255, 255); stroke-opacity: 1; stroke-width: 1px;"/><path class="y2grid crisp" transform="translate(0,179.1)" d="M330.17999999999995,0h232.63999999999996" style="stroke: rgb(255, 255, 255); stroke-opacity: 1; stroke-width: 1px;"/><path class="y2grid crisp" transform="translate(0,97.14)" d="M330.17999999999995,0h232.63999999999996" style="stroke: rgb(255, 255, 255); stroke-opacity: 1; stroke-width: 1px;"/></g></g><g class="zerolinelayer"><path class="x2zl zl crisp" transform="translate(350.55999999999995,0)" d="M0,60v220" style="stroke: rgb(255, 255, 255); stroke-opacity: 1; stroke-width: 2px;"/></g><path class="xlines-below"/><path class="ylines-below"/><g class="overlines-below"/><g class="xaxislayer-below"/><g class="yaxislayer-below"/><g class="overaxes-below"/><g class="plot" transform="translate(330.17999999999995,60)" clip-path="url('#clipa5a9b3x2y2plot')"><g class="scatterlayer mlayer"><g class="trace scatter trace335fb9" style="stroke-miterlimit: 2; opacity: 1;"><g class="fills"/><g class="errorbars"/><g class="lines"><path class="js-line" d="M0,121.87L28.2,122.61L30.55,123.69L35.25,127.82L37.6,130.86L44.65,142.75L47,147.22L56.4,164.38L58.75,168.05L65.8,176.66L68.15,178.62L72.85,181.06L75.2,181.5L79.9,180.79L82.25,179.62L86.95,175.6L89.3,172.75L94,165.38L96.35,160.89L103.4,144.48L105.75,138.18L129.24,71.73L131.59,66.75L136.29,58.71L138.64,55.75L143.34,52.05L145.69,51.32L150.39,52.03L152.74,53.41L157.44,58.01L159.79,61.12L166.84,72.98L169.19,77.58L197.39,135.11L199.74,138.91L206.79,148.61L209.14,151.23L216.19,157.12L218.54,158.41L223.24,159.94L225.59,160.18L230.29,159.59L232.64,158.77" style="vector-effect: non-scaling-stroke; fill: none; stroke: rgb(239, 85, 59); stroke-opacity: 1; stroke-width: 2px; opacity: 1;"/></g><g class="points"/><g class="text"/></g><g class="trace scatter trace1ea261" style="stroke-miterlimit: 2; opacity: 1;"><g class="fills"><g><path class="js-fill" d="M0,93.82L25.85,94.06L28.2,94.7L32.9,98L35.25,100.82L39.95,108.59L42.3,113.3L58.75,148.05L61.1,151.91L65.8,158.15L68.15,160.46L72.85,163.32L75.2,163.84L79.9,163.01L82.25,161.63L86.95,156.91L89.3,153.57L94,144.92L96.35,139.64L103.4,120.37L105.75,112.97L129.24,34.97L131.59,29.12L136.29,19.68L138.64,16.2L143.34,11.86L145.69,11L148.04,11L150.39,11.84L155.09,15.82L157.44,18.86L162.14,26.7L164.49,31.37L173.89,53.3L176.24,59.25L192.69,99.57L195.04,104.61L202.09,117.98L204.44,121.78L211.49,130.99L213.84,133.3L218.54,136.73L220.89,137.83L225.59,138.8L227.94,138.67L232.64,137.15L232.64,180.39L227.94,181.45L225.59,181.55L220.89,180.87L218.54,180.09L213.84,177.68L211.49,176.06L204.44,169.57L202.09,166.9L195.04,157.5L192.69,153.95L180.94,134.03L178.59,129.81L164.49,105.97L162.14,102.68L155.09,95.03L152.74,93.37L148.04,91.64L145.69,91.63L140.99,93.46L138.64,95.3L133.94,100.78L131.59,104.38L124.54,118.06L122.19,123.38L101.05,173.48L98.7,178.01L91.65,189.12L89.3,191.94L84.6,196.18L82.25,197.61L77.55,199.1L75.2,199.17L70.5,198L68.15,196.79L63.45,193.16L61.1,190.78L54.05,181.73L51.7,178.22L37.6,157.33L35.25,154.83L30.55,151.41L28.2,150.52L21.15,149.91L18.8,149.91L0,149.91Z" style="fill: rgb(239, 85, 59); fill-opacity: 0.5; stroke-width: 0;"/></g></g><g class="errorbars"/><g class="lines"><path class="js-line" d="M0,93.82L25.85,94.06L28.2,94.7L32.9,98L35.25,100.82L39.95,108.59L42.3,113.3L58.75,148.05L61.1,151.91L65.8,158.15L68.15,160.46L72.85,163.32L75.2,163.84L79.9,163.01L82.25,161.63L86.95,156.91L89.3,153.57L94,144.92L96.35,139.64L103.4,120.37L105.75,112.97L129.24,34.97L131.59,29.12L136.29,19.68L138.64,16.2L143.34,11.86L145.69,11L148.04,11L150.39,11.84L155.09,15.82L157.44,18.86L162.14,26.7L164.49,31.37L173.89,53.3L176.24,59.25L192.69,99.57L195.04,104.61L202.09,117.98L204.44,121.78L211.49,130.99L213.84,133.3L218.54,136.73L220.89,137.83L225.59,138.8L227.94,138.67L232.64,137.15L232.64,180.39L227.94,181.45L225.59,181.55L220.89,180.87L218.54,180.09L213.84,177.68L211.49,176.06L204.44,169.57L202.09,166.9L195.04,157.5L192.69,153.95L180.94,134.03L178.59,129.81L164.49,105.97L162.14,102.68L155.09,95.03L152.74,93.37L148.04,91.64L145.69,91.63L140.99,93.46L138.64,95.3L133.94,100.78L131.59,104.38L124.54,118.06L122.19,123.38L101.05,173.48L98.7,178.01L91.65,189.12L89.3,191.94L84.6,196.18L82.25,197.61L77.55,199.1L75.2,199.17L70.5,198L68.15,196.79L63.45,193.16L61.1,190.78L54.05,181.73L51.7,178.22L37.6,157.33L35.25,154.83L30.55,151.41L28.2,150.52L21.15,149.91L18.8,149.91L0,149.91" style="vector-effect: non-scaling-stroke; fill: none; stroke: rgb(239, 85, 59); stroke-opacity: 1; stroke-width: 0px; opacity: 1;"/></g><g class="points"/><g class="text"/></g></g></g><g class="overplot"/><path class="xlines-above crisp" d="M0,0" style="fill: none;"/><path class="ylines-above crisp" d="M0,0" style="fill: none;"/><g class="overlines-above"/><g class="xaxislayer-above"><g class="x2tick"><text text-anchor="middle" x="0" y="293" transform="translate(350.55999999999995,0)" style="font-family: 'Open Sans', verdana, arial, sans-serif; font-size: 12px; fill: rgb(42, 63, 95); fill-opacity: 1; white-space: pre;">0</text></g><g class="x2tick"><text text-anchor="middle" x="0" y="293" transform="translate(435.4599999999999,0)" style="font-family: 'Open Sans', verdana, arial, sans-serif; font-size: 12px; fill: rgb(42, 63, 95); fill-opacity: 1; white-space: pre;">200</text></g><g class="x2tick"><text text-anchor="middle" x="0" y="293" transform="translate(520.3699999999999,0)" style="font-family: 'Open Sans', verdana, arial, sans-serif; font-size: 12px; fill: rgb(42, 63, 95); fill-opacity: 1; white-space: pre;">400</text></g></g><g class="yaxislayer-above"/><g class="overaxes-above"/></g><g class="subplot x3y3"><g class="layer-subplot"><g class="shapelayer"/><g class="imagelayer"/></g><g class="gridlayer"><g class="x3"><path class="x3grid crisp" transform="translate(682.6399999999999,0)" d="M0,60v220" style="stroke: rgb(255, 255, 255); stroke-opacity: 1; stroke-width: 1px;"/><path class="x3grid crisp" transform="translate(767.55,0)" d="M0,60v220" style="stroke: rgb(255, 255, 255); stroke-opacity: 1; stroke-width: 1px;"/></g><g class="y3"><path class="y3grid crisp" transform="translate(0,261.05)" d="M577.3599999999999,0h232.63999999999996" style="stroke: rgb(255, 255, 255); stroke-opacity: 1; stroke-width: 1px;"/><path class="y3grid crisp" transform="translate(0,179.1)" d="M577.3599999999999,0h232.63999999999996" style="stroke: rgb(255, 255, 255); stroke-opacity: 1; stroke-width: 1px;"/><path class="y3grid crisp" transform="translate(0,97.14)" d="M577.3599999999999,0h232.63999999999996" style="stroke: rgb(255, 255, 255); stroke-opacity: 1; stroke-width: 1px;"/></g></g><g class="zerolinelayer"><path class="x3zl zl crisp" transform="translate(597.7399999999999,0)" d="M0,60v220" style="stroke: rgb(255, 255, 255); stroke-opacity: 1; stroke-width: 2px;"/></g><path class="xlines-below"/><path class="ylines-below"/><g class="overlines-below"/><g class="xaxislayer-below"/><g class="yaxislayer-below"/><g class="overaxes-below"/><g class="plot" transform="translate(577.3599999999999,60)" clip-path="url('#clipa5a9b3x3y3plot')"><g class="scatterlayer mlayer"><g class="trace scatter trace534468" style="stroke-miterlimit: 2; opacity: 1;"><g class="fills"/><g class="errorbars"/><g class="lines"><path class="js-line" d="M0,121.87L28.2,122.61L30.55,123.69L35.25,127.82L37.6,130.86L44.65,142.75L47,147.22L56.4,164.38L58.75,168.05L65.8,176.66L68.15,178.62L72.85,181.06L75.2,181.5L79.9,180.79L82.25,179.62L86.95,175.6L89.3,172.75L94,165.38L96.35,160.89L103.4,144.48L105.75,138.18L129.24,71.73L131.59,66.75L136.29,58.71L138.64,55.75L143.34,52.05L145.69,51.32L150.39,52.03L152.74,53.41L157.44,58.01L159.79,61.12L166.84,72.98L169.19,77.58L197.39,135.11L199.74,138.91L206.79,148.61L209.14,151.23L216.19,157.12L218.54,158.41L223.24,159.94L225.59,160.18L230.29,159.59L232.64,158.77" style="vector-effect: non-scaling-stroke; fill: none; stroke: rgb(0, 204, 150); stroke-opacity: 1; stroke-width: 2px; opacity: 1;"/></g><g class="points"/><g class="text"/></g><g class="trace scatter trace13bae9" style="stroke-miterlimit: 2; opacity: 1;"><g class="fills"><g><path class="js-fill" d="M0,94.1L25.85,94.32L28.2,94.91L32.9,97.96L35.25,100.57L39.95,107.77L42.3,112.12L58.75,144.3L61.1,147.88L65.8,153.66L68.15,155.79L72.85,158.44L75.2,158.92L79.9,158.15L82.25,156.88L86.95,152.51L89.3,149.41L94,141.4L96.35,136.52L103.4,118.68L105.75,111.83L129.24,39.6L131.59,34.19L136.29,25.45L138.64,22.23L143.34,18.2L145.69,17.41L148.04,17.41L150.39,18.19L155.09,21.87L157.44,24.69L162.14,31.95L164.49,36.27L173.89,56.58L176.24,62.08L192.69,99.42L195.04,104.09L202.09,116.46L204.44,119.98L211.49,128.51L213.84,130.65L218.54,133.82L220.89,134.84L225.59,135.74L227.94,135.61L232.64,134.22L232.64,183.33L227.94,184.51L225.59,184.61L220.89,183.86L218.54,183L213.84,180.33L211.49,178.54L204.44,171.37L202.09,168.42L195.04,158.03L192.69,154.1L180.94,132.09L178.59,127.42L166.84,105L164.49,101.07L157.44,91.33L155.09,88.97L150.39,85.88L148.04,85.23L143.34,85.89L140.99,87.24L136.29,91.98L133.94,95.34L129.24,103.86L126.89,108.92L117.49,132.83L115.15,139.3L103.4,170.28L101.05,175.69L94,189.37L91.65,192.98L86.95,198.7L84.6,200.79L79.9,203.44L77.55,204.01L72.85,203.68L70.5,202.8L65.8,199.66L63.45,197.44L56.4,188.45L54.05,184.8L37.6,157.84L35.25,155.07L30.55,151.3L28.2,150.32L23.5,149.66L21.15,149.63L0,149.63Z" style="fill: rgb(0, 204, 150); fill-opacity: 0.5; stroke-width: 0;"/></g></g><g class="errorbars"/><g class="lines"><path class="js-line" d="M0,94.1L25.85,94.32L28.2,94.91L32.9,97.96L35.25,100.57L39.95,107.77L42.3,112.12L58.75,144.3L61.1,147.88L65.8,153.66L68.15,155.79L72.85,158.44L75.2,158.92L79.9,158.15L82.25,156.88L86.95,152.51L89.3,149.41L94,141.4L96.35,136.52L103.4,118.68L105.75,111.83L129.24,39.6L131.59,34.19L136.29,25.45L138.64,22.23L143.34,18.2L145.69,17.41L148.04,17.41L150.39,18.19L155.09,21.87L157.44,24.69L162.14,31.95L164.49,36.27L173.89,56.58L176.24,62.08L192.69,99.42L195.04,104.09L202.09,116.46L204.44,119.98L211.49,128.51L213.84,130.65L218.54,133.82L220.89,134.84L225.59,135.74L227.94,135.61L232.64,134.22L232.64,183.33L227.94,184.51L225.59,184.61L220.89,183.86L218.54,183L213.84,180.33L211.49,178.54L204.44,171.37L202.09,168.42L195.04,158.03L192.69,154.1L180.94,132.09L178.59,127.42L166.84,105L164.49,101.07L157.44,91.33L155.09,88.97L150.39,85.88L148.04,85.23L143.34,85.89L140.99,87.24L136.29,91.98L133.94,95.34L129.24,103.86L126.89,108.92L117.49,132.83L115.15,139.3L103.4,170.28L101.05,175.69L94,189.37L91.65,192.98L86.95,198.7L84.6,200.79L79.9,203.44L77.55,204.01L72.85,203.68L70.5,202.8L65.8,199.66L63.45,197.44L56.4,188.45L54.05,184.8L37.6,157.84L35.25,155.07L30.55,151.3L28.2,150.32L23.5,149.66L21.15,149.63L0,149.63" style="vector-effect: non-scaling-stroke; fill: none; stroke: rgb(0, 204, 150); stroke-opacity: 1; stroke-width: 0px; opacity: 1;"/></g><g class="points"/><g class="text"/></g></g></g><g class="overplot"/><path class="xlines-above crisp" d="M0,0" style="fill: none;"/><path class="ylines-above crisp" d="M0,0" style="fill: none;"/><g class="overlines-above"/><g class="xaxislayer-above"><g class="x3tick"><text text-anchor="middle" x="0" y="293" transform="translate(597.7399999999999,0)" style="font-family: 'Open Sans', verdana, arial, sans-serif; font-size: 12px; fill: rgb(42, 63, 95); fill-opacity: 1; white-space: pre;">0</text></g><g class="x3tick"><text text-anchor="middle" x="0" y="293" transform="translate(682.6399999999999,0)" style="font-family: 'Open Sans', verdana, arial, sans-serif; font-size: 12px; fill: rgb(42, 63, 95); fill-opacity: 1; white-space: pre;">200</text></g><g class="x3tick"><text text-anchor="middle" x="0" y="293" transform="translate(767.55,0)" style="font-family: 'Open Sans', verdana, arial, sans-serif; font-size: 12px; fill: rgb(42, 63, 95); fill-opacity: 1; white-space: pre;">400</text></g></g><g class="yaxislayer-above"/><g class="overaxes-above"/></g></g><g class="polarlayer"/><g class="ternarylayer"/><g class="geolayer"/><g class="funnelarealayer"/><g class="pielayer"/><g class="treemaplayer"/><g class="sunburstlayer"/><g class="glimages"/><defs id="topdefs-a5a9b3"><g class="clips"/></defs><g class="layer-above"><g class="imagelayer"/><g class="shapelayer"/></g><g class="infolayer"><g class="g-gtitle"/><g class="g-xtitle"><text class="xtitle" x="199.32" y="321.8" text-anchor="middle" style="font-family: 'Open Sans', verdana, arial, sans-serif; font-size: 14px; fill: rgb(42, 63, 95); opacity: 1; font-weight: normal; white-space: pre;">Time, hour</text></g><g class="g-x2title"><text class="x2title" x="446.49999999999994" y="321.8" text-anchor="middle" style="font-family: 'Open Sans', verdana, arial, sans-serif; font-size: 14px; fill: rgb(42, 63, 95); opacity: 1; font-weight: normal; white-space: pre;">Time, hour</text></g><g class="g-x3title"><text class="x3title" x="693.6799999999998" y="321.8" text-anchor="middle" style="font-family: 'Open Sans', verdana, arial, sans-serif; font-size: 14px; fill: rgb(42, 63, 95); opacity: 1; font-weight: normal; white-space: pre;">Time, hour</text></g><g class="g-ytitle" transform="translate(3.453125,0)"><text class="ytitle" transform="rotate(-90,11.546875,170)" x="11.546875" y="170" text-anchor="middle" style="font-family: 'Open Sans', verdana, arial, sans-serif; font-size: 14px; fill: rgb(42, 63, 95); opacity: 1; font-weight: normal; white-space: pre;"><tspan class="line" dy="0em" x="11.546875" y="170">Circulating blood cells,</tspan><tspan class="line" dy="1.3em" x="11.546875" y="170">1000/L</tspan></text></g><g class="g-y2title"/><g class="g-y3title"/><g class="annotation" data-index="0" style="opacity: 1;"><g class="annotation-text-g" transform="rotate(0,199.32,49.5)"><g class="cursor-pointer" transform="translate(138,39)"><rect class="bg" x="0.5" y="0.5" width="122" height="20" style="stroke-width: 1px; stroke: rgb(0, 0, 0); stroke-opacity: 0; fill: rgb(0, 0, 0); fill-opacity: 0;"/><text class="annotation-text" text-anchor="middle" x="61.484375" y="15" style="font-family: 'Open Sans', verdana, arial, sans-serif; font-size: 12px; fill: rgb(42, 63, 95); fill-opacity: 1; white-space: pre;">Noise Type=Constant</text></g></g></g><g class="annotation" data-index="1" style="opacity: 1;"><g class="annotation-text-g" transform="rotate(0,446.49999999999994,49.49999999999999)"><g class="cursor-pointer" transform="translate(373,39)"><rect class="bg" x="0.5" y="0.5" width="146" height="20" style="stroke-width: 1px; stroke: rgb(0, 0, 0); stroke-opacity: 0; fill: rgb(0, 0, 0); fill-opacity: 0;"/><text class="annotation-text" text-anchor="middle" x="73.4375" y="15" style="font-family: 'Open Sans', verdana, arial, sans-serif; font-size: 12px; fill: rgb(42, 63, 95); fill-opacity: 1; white-space: pre;">Noise Type=Multiplicative</text></g></g></g><g class="annotation" data-index="2" style="opacity: 1;"><g class="annotation-text-g" transform="rotate(0,693.68,49.5)"><g class="cursor-pointer" transform="translate(629,39)"><rect class="bg" x="0.5" y="0.5" width="129" height="20" style="stroke-width: 1px; stroke: rgb(0, 0, 0); stroke-opacity: 0; fill: rgb(0, 0, 0); fill-opacity: 0;"/><text class="annotation-text" text-anchor="middle" x="65.1875" y="15" style="font-family: 'Open Sans', verdana, arial, sans-serif; font-size: 12px; fill: rgb(42, 63, 95); fill-opacity: 1; white-space: pre;">Noise Type=Combined</text></g></g></g></g></svg>