<svg class="main-svg" xmlns="http://www.w3.org/2000/svg" xmlns:xlink="http://www.w3.org/1999/xlink" width="890" height="360" style="" viewBox="0 0 890 360"><rect x="0" y="0" width="890" height="360" style="fill: rgb(255, 255, 255); fill-opacity: 1;"/><defs id="defs-581693"><g class="clips"><clipPath id="clip581693xyplot" class="plotclip"><rect width="233.59999999999997" height="220"/></clipPath><clipPath id="clip581693x2y2plot" class="plotclip"><rect width="233.59999999999997" height="220"/></clipPath><clipPath id="clip581693x3y3plot" class="plotclip"><rect width="233.59999999999997" height="220"/></clipPath><clipPath class="axesclip" id="clip581693x"><rect x="80" y="0" width="233.59999999999997" height="360"/></clipPath><clipPath class="axesclip" id="clip581693y"><rect x="0" y="60" width="890" height="220"/></clipPath><clipPath class="axesclip" id="clip581693xy"><rect x="80" y="60" width="233.59999999999997" height="220"/></clipPath><clipPath class="axesclip" id="clip581693y2"><rect x="0" y="60" width="890" height="220"/></clipPath><clipPath class="axesclip" id="clip581693xy2"><rect x="80" y="60" width="233.59999999999997" height="220"/></clipPath><clipPath class="axesclip" id="clip581693y3"><rect x="0" y="60" width="890" height="220"/></clipPath><clipPath class="axesclip" id="clip581693xy3"><rect x="80" y="60" width="233.59999999999997" height="220"/></clipPath><clipPath class="axesclip" id="clip581693x2"><rect x="328.2" y="0" width="233.59999999999997" height="360"/></clipPath><clipPath class="axesclip" id="clip581693x2y"><rect x="328.2" y="60" width="233.59999999999997" height="220"/></clipPath><clipPath class="axesclip" id="clip581693x2y2"><rect x="328.2" y="60" width="233.59999999999997" height="220"/></clipPath><clipPath class="axesclip" id="clip581693x2y3"><rect x="328.2" y="60" width="233.59999999999997" height="220"/></clipPath><clipPath class="axesclip" id="clip581693x3"><rect x="576.4" y="0" width="233.59999999999997" height="360"/></clipPath><clipPath class="axesclip" id="clip581693x3y"><rect x="576.4" y="60" width="233.59999999999997" height="220"/></clipPath><clipPath class="axesclip" id="clip581693x3y2"><rect x="576.4" y="60" width="233.59999999999997" height="220"/></clipPath><clipPath class="axesclip" id="clip581693x3y3"><rect x="576.4" y="60" width="233.59999999999997" height="220"/></clipPath></g><g class="gradients"/></defs><g class="bglayer"><rect class="bg" x="80" y="60" width="233.59999999999997" height="220" style="fill: rgb(229, 236, 246); fill-opacity: 1; stroke-width: 0;"/><rect class="bg" x="328.2" y="60" width="233.59999999999997" height="220" style="fill: rgb(229, 236, 246); fill-opacity: 1; stroke-width: 0;"/><rect class="bg" x="576.4" y="60" width="233.59999999999997" height="220" style="fill: rgb(229, 236, 246); fill-opacity: 1; stroke-width: 0;"/></g><g class="layer-below"><g class="imagelayer"/><g class="shapelayer"/></g><g class="cartesianlayer"><g class="subplot xy"><g class="layer-subplot"><g class="shapelayer"/><g class="imagelayer"/></g><g class="gridlayer"><g class="x"><path class="xgrid crisp" transform="translate(157.87,0)" d="M0,60v220" style="stroke: rgb(255, 255, 255); stroke-opacity: 1; stroke-width: 1px;"/><path class="xgrid crisp" transform="translate(235.73,0)" d="M0,60v220" style="stroke: rgb(255, 255, 255); stroke-opacity: 1; stroke-width: 1px;"/></g><g class="y"><path class="ygrid crisp" transform="translate(0,192)" d="M80,0h233.59999999999997" style="stroke: rgb(255, 255, 255); stroke-opacity: 1; stroke-width: 1px;"/><path class="ygrid crisp" transform="translate(0,104)" d="M80,0h233.59999999999997" style="stroke: rgb(255, 255, 255); stroke-opacity: 1; stroke-width: 1px;"/></g></g><g class="zerolinelayer"><path class="xzl zl crisp" transform="translate(80,0)" d="M0,60v220" style="stroke: rgb(255, 255, 255); stroke-opacity: 1; stroke-width: 2px;"/></g><path class="xlines-below"/><path class="ylines-below"/><g class="overlines-below"/><g class="xaxislayer-below"/><g class="yaxislayer-below"/><g class="overaxes-below"/><g class="plot" transform="translate(80,60)" clip-path="url('#clip581693xyplot')"><g class="scatterlayer mlayer"><g class="trace scatter traceba140d" style="stroke-miterlimit: 2; opacity: 1;"><g class="fills"/><g class="errorbars"/><g class="lines"><path class="js-line" d="M0,17.51L18.88,62.93L21.24,68.23L33.03,92.67L35.39,97.06L44.83,112.54L47.19,115.86L54.27,124.47L56.63,126.91L63.71,133.03L66.07,134.72L75.51,140.02L77.87,141.05L89.66,145L92.02,145.61L108.54,148.94L110.9,149.33L148.65,154.53L151.01,154.83L233.6,165.08" style="vector-effect: non-scaling-stroke; fill: none; stroke: rgb(99, 110, 250); stroke-opacity: 1; stroke-width: 2px; opacity: 1;"/></g><g class="points"/><g class="text"/></g><g class="trace scatter trace02d341" style="stroke-miterlimit: 2; opacity: 1;"><g class="fills"><g><path class="js-fill" d="M0,15.73L14.16,47.76L16.52,52.65L25.96,70.38L28.32,74.3L35.39,84.67L37.75,87.65L44.83,95.2L47.19,97.27L54.27,102.34L56.63,103.68L66.07,107.74L68.43,108.49L80.23,111.16L82.59,111.54L101.46,113.59L103.82,113.77L148.65,116.26L151.01,116.36L233.6,119.8L233.6,4620L64.02884567022,4620L63.71,285.18L61.35,235.55L56.63,196.01L54.27,183.11L47.19,153.45L44.83,145.15L35.39,115.5L33.03,108.63L14.16,56.81L11.8,50.53L0,19.38Z" style="fill: rgb(99, 110, 250); fill-opacity: 0.5; stroke-width: 0;"/></g></g><g class="errorbars"/><g class="lines"><path class="js-line" d="M0,15.73L14.16,47.76L16.52,52.65L25.96,70.38L28.32,74.3L35.39,84.67L37.75,87.65L44.83,95.2L47.19,97.27L54.27,102.34L56.63,103.68L66.07,107.74L68.43,108.49L80.23,111.16L82.59,111.54L101.46,113.59L103.82,113.77L148.65,116.26L151.01,116.36L233.6,119.8L233.6,4620L64.02884567022,4620L63.71,285.18L61.35,235.55L56.63,196.01L54.27,183.11L47.19,153.45L44.83,145.15L35.39,115.5L33.03,108.63L14.16,56.81L11.8,50.53L0,19.38" style="vector-effect: non-scaling-stroke; fill: none; stroke: rgb(99, 110, 250); stroke-opacity: 1; stroke-width: 0px; opacity: 1;"/></g><g class="points"/><g class="text"/></g></g></g><g class="overplot"/><path class="xlines-above crisp" d="M0,0" style="fill: none;"/><path class="ylines-above crisp" d="M0,0" style="fill: none;"/><g class="overlines-above"/><g class="xaxislayer-above"><g class="xtick"><text text-anchor="middle" x="0" y="293" transform="translate(80,0)" style="font-family: 'Open Sans', verdana, arial, sans-serif; font-size: 12px; fill: rgb(42, 63, 95); fill-opacity: 1; white-space: pre;">0</text></g><g class="xtick"><text text-anchor="middle" x="0" y="293" transform="translate(157.87,0)" style="font-family: 'Open Sans', verdana, arial, sans-serif; font-size: 12px; fill: rgb(42, 63, 95); fill-opacity: 1; white-space: pre;">1</text></g><g class="xtick"><text text-anchor="middle" x="0" y="293" transform="translate(235.73,0)" style="font-family: 'Open Sans', verdana, arial, sans-serif; font-size: 12px; fill: rgb(42, 63, 95); fill-opacity: 1; white-space: pre;">2</text></g><g class="xtick"><text text-anchor="middle" x="0" y="293" transform="translate(313.6,0)" style="font-family: 'Open Sans', verdana, arial, sans-serif; font-size: 12px; fill: rgb(42, 63, 95); fill-opacity: 1; white-space: pre;">3</text></g></g><g class="yaxislayer-above"><g class="ytick"><text text-anchor="end" x="79" y="4.199999999999999" transform="translate(0,280)" style="font-family: 'Open Sans', verdana, arial, sans-serif; font-size: 12px; fill: rgb(42, 63, 95); fill-opacity: 1; white-space: pre;">0.01</text></g><g class="ytick"><text text-anchor="end" x="79" y="4.199999999999999" transform="translate(0,192)" style="font-family: 'Open Sans', verdana, arial, sans-serif; font-size: 12px; fill: rgb(42, 63, 95); fill-opacity: 1; white-space: pre;">0.1</text></g><g class="ytick"><text text-anchor="end" x="79" y="4.199999999999999" transform="translate(0,104)" style="font-family: 'Open Sans', verdana, arial, sans-serif; font-size: 12px; fill: rgb(42, 63, 95); fill-opacity: 1; white-space: pre;">1</text></g></g><g class="overaxes-above"/></g><g class="subplot x2y2"><g class="layer-subplot"><g class="shapelayer"/><g class="imagelayer"/></g><g class="gridlayer"><g class="x2"><path class="x2grid crisp" transform="translate(406.07,0)" d="M0,60v220" style="stroke: rgb(255, 255, 255); stroke-opacity: 1; stroke-width: 1px;"/><path class="x2grid crisp" transform="translate(483.92999999999995,0)" d="M0,60v220" style="stroke: rgb(255, 255, 255); stroke-opacity: 1; stroke-width: 1px;"/></g><g class="y2"><path class="y2grid crisp" transform="translate(0,253.51)" d="M328.2,0h233.59999999999997" style="stroke: rgb(255, 255, 255); stroke-opacity: 1; stroke-width: 1px;"/><path class="y2grid crisp" transform="translate(0,218.49)" d="M328.2,0h233.59999999999997" style="stroke: rgb(255, 255, 255); stroke-opacity: 1; stroke-width: 1px;"/><path class="y2grid crisp" transform="translate(0,192)" d="M328.2,0h233.59999999999997" style="stroke: rgb(255, 255, 255); stroke-opacity: 1; stroke-width: 1px;"/><path class="y2grid crisp" transform="translate(0,165.51)" d="M328.2,0h233.59999999999997" style="stroke: rgb(255, 255, 255); stroke-opacity: 1; stroke-width: 1px;"/><path class="y2grid crisp" transform="translate(0,130.49)" d="M328.2,0h233.59999999999997" style="stroke: rgb(255, 255, 255); stroke-opacity: 1; stroke-width: 1px;"/><path class="y2grid crisp" transform="translate(0,104)" d="M328.2,0h233.59999999999997" style="stroke: rgb(255, 255, 255); stroke-opacity: 1; stroke-width: 1px;"/><path class="y2grid crisp" transform="translate(0,77.51)" d="M328.2,0h233.59999999999997" style="stroke: rgb(255, 255, 255); stroke-opacity: 1; stroke-width: 1px;"/></g></g><g class="zerolinelayer"><path class="x2zl zl crisp" transform="translate(328.2,0)" d="M0,60v220" style="stroke: rgb(255, 255, 255); stroke-opacity: 1; stroke-width: 2px;"/></g><path class="xlines-below"/><path class="ylines-below"/><g class="overlines-below"/><g class="xaxislayer-below"/><g class="yaxislayer-below"/><g class="overaxes-below"/><g class="plot" transform="translate(328.2,60)" clip-path="url('#clip581693x2y2plot')"><g class="scatterlayer mlayer"><g class="trace scatter trace6c14ca" style="stroke-miterlimit: 2; opacity: 1;"><g class="fills"/><g class="errorbars"/><g class="lines"><path class="js-line" d="M0,17.51L18.88,62.93L21.24,68.23L33.03,92.67L35.39,97.06L44.83,112.54L47.19,115.86L54.27,124.47L56.63,126.91L63.71,133.03L66.07,134.72L75.51,140.02L77.87,141.05L89.66,145L92.02,145.61L108.54,148.94L110.9,149.33L148.65,154.53L151.01,154.83L233.6,165.08" style="vector-effect: non-scaling-stroke; fill: none; stroke: rgb(239, 85, 59); stroke-opacity: 1; stroke-width: 2px; opacity: 1;"/></g><g class="points"/><g class="text"/></g><g class="trace scatter tracee08214" style="stroke-miterlimit: 2; opacity: 1;"><g class="fills"><g><path class="js-fill" d="M0,2.01L18.88,47.43L21.24,52.73L33.03,77.18L35.39,81.56L44.83,97.04L47.19,100.36L54.27,108.97L56.63,111.41L63.71,117.53L66.07,119.22L75.51,124.52L77.87,125.56L89.66,129.5L92.02,130.11L108.54,133.44L110.9,133.83L143.94,138.43L146.29,138.74L233.6,149.59L233.6,191.57L110.9,175.82L108.54,175.43L89.66,171.49L87.31,170.83L75.51,166.51L73.15,165.37L66.07,161.21L63.71,159.52L56.63,153.4L54.27,150.96L47.19,142.35L44.83,139.03L35.39,123.55L33.03,119.16L21.24,94.72L18.88,89.42L2.36,49.89L0,44Z" style="fill: rgb(239, 85, 59); fill-opacity: 0.5; stroke-width: 0;"/></g></g><g class="errorbars"/><g class="lines"><path class="js-line" d="M0,2.01L18.88,47.43L21.24,52.73L33.03,77.18L35.39,81.56L44.83,97.04L47.19,100.36L54.27,108.97L56.63,111.41L63.71,117.53L66.07,119.22L75.51,124.52L77.87,125.56L89.66,129.5L92.02,130.11L108.54,133.44L110.9,133.83L143.94,138.43L146.29,138.74L233.6,149.59L233.6,191.57L110.9,175.82L108.54,175.43L89.66,171.49L87.31,170.83L75.51,166.51L73.15,165.37L66.07,161.21L63.71,159.52L56.63,153.4L54.27,150.96L47.19,142.35L44.83,139.03L35.39,123.55L33.03,119.16L21.24,94.72L18.88,89.42L2.36,49.89L0,44" style="vector-effect: non-scaling-stroke; fill: none; stroke: rgb(239, 85, 59); stroke-opacity: 1; stroke-width: 0px; opacity: 1;"/></g><g class="points"/><g class="text"/></g></g></g><g class="overplot"/><path class="xlines-above crisp" d="M0,0" style="fill: none;"/><path class="ylines-above crisp" d="M0,0" style="fill: none;"/><g class="overlines-above"/><g class="xaxislayer-above"><g class="x2tick"><text text-anchor="middle" x="0" y="293" transform="translate(328.2,0)" style="font-family: 'Open Sans', verdana, arial, sans-serif; font-size: 12px; fill: rgb(42, 63, 95); fill-opacity: 1; white-space: pre;">0</text></g><g class="x2tick"><text text-anchor="middle" x="0" y="293" transform="translate(406.07,0)" style="font-family: 'Open Sans', verdana, arial, sans-serif; font-size: 12px; fill: rgb(42, 63, 95); fill-opacity: 1; white-space: pre;">1</text></g><g class="x2tick"><text text-anchor="middle" x="0" y="293" transform="translate(483.92999999999995,0)" style="font-family: 'Open Sans', verdana, arial, sans-serif; font-size: 12px; fill: rgb(42, 63, 95); fill-opacity: 1; white-space: pre;">2</text></g><g class="x2tick"><text text-anchor="middle" x="0" y="293" transform="translate(561.8,0)" style="font-family: 'Open Sans', verdana, arial, sans-serif; font-size: 12px; fill: rgb(42, 63, 95); fill-opacity: 1; white-space: pre;">3</text></g></g><g class="yaxislayer-above"/><g class="overaxes-above"/></g><g class="subplot x3y3"><g class="layer-subplot"><g class="shapelayer"/><g class="imagelayer"/></g><g class="gridlayer"><g class="x3"><path class="x3grid crisp" transform="translate(654.27,0)" d="M0,60v220" style="stroke: rgb(255, 255, 255); stroke-opacity: 1; stroke-width: 1px;"/><path class="x3grid crisp" transform="translate(732.13,0)" d="M0,60v220" style="stroke: rgb(255, 255, 255); stroke-opacity: 1; stroke-width: 1px;"/></g><g class="y3"><path class="y3grid crisp" transform="translate(0,253.51)" d="M576.4,0h233.59999999999997" style="stroke: rgb(255, 255, 255); stroke-opacity: 1; stroke-width: 1px;"/><path class="y3grid crisp" transform="translate(0,218.49)" d="M576.4,0h233.59999999999997" style="stroke: rgb(255, 255, 255); stroke-opacity: 1; stroke-width: 1px;"/><path class="y3grid crisp" transform="translate(0,192)" d="M576.4,0h233.59999999999997" style="stroke: rgb(255, 255, 255); stroke-opacity: 1; stroke-width: 1px;"/><path class="y3grid crisp" transform="translate(0,165.51)" d="M576.4,0h233.59999999999997" style="stroke: rgb(255, 255, 255); stroke-opacity: 1; stroke-width: 1px;"/><path class="y3grid crisp" transform="translate(0,130.49)" d="M576.4,0h233.59999999999997" style="stroke: rgb(255, 255, 255); stroke-opacity: 1; stroke-width: 1px;"/><path class="y3grid crisp" transform="translate(0,104)" d="M576.4,0h233.59999999999997" style="stroke: rgb(255, 255, 255); stroke-opacity: 1; stroke-width: 1px;"/><path class="y3grid crisp" transform="translate(0,77.51)" d="M576.4,0h233.59999999999997" style="stroke: rgb(255, 255, 255); stroke-opacity: 1; stroke-width: 1px;"/></g></g><g class="zerolinelayer"><path class="x3zl zl crisp" transform="translate(576.4,0)" d="M0,60v220" style="stroke: rgb(255, 255, 255); stroke-opacity: 1; stroke-width: 2px;"/></g><path class="xlines-below"/><path class="ylines-below"/><g class="overlines-below"/><g class="xaxislayer-below"/><g class="yaxislayer-below"/><g class="overaxes-below"/><g class="plot" transform="translate(576.4,60)" clip-path="url('#clip581693x3y3plot')"><g class="scatterlayer mlayer"><g class="trace scatter traceb40dde" style="stroke-miterlimit: 2; opacity: 1;"><g class="fills"/><g class="errorbars"/><g class="lines"><path class="js-line" d="M0,17.51L18.88,62.93L21.24,68.23L33.03,92.67L35.39,97.06L44.83,112.54L47.19,115.86L54.27,124.47L56.63,126.91L63.71,133.03L66.07,134.72L75.51,140.02L77.87,141.05L89.66,145L92.02,145.61L108.54,148.94L110.9,149.33L148.65,154.53L151.01,154.83L233.6,165.08" style="vector-effect: non-scaling-stroke; fill: none; stroke: rgb(0, 204, 150); stroke-opacity: 1; stroke-width: 2px; opacity: 1;"/></g><g class="points"/><g class="text"/></g><g class="trace scatter trace86e8db" style="stroke-miterlimit: 2; opacity: 1;"><g class="fills"><g><path class="js-fill" d="M0,8.26L16.52,46.97L18.88,52.08L30.67,75.2L33.03,79.25L42.47,93.2L44.83,96.11L51.91,103.48L54.27,105.51L61.35,110.51L63.71,111.85L73.15,115.96L75.51,116.73L87.31,119.62L89.66,120.05L110.9,122.81L113.26,123.04L158.09,126.67L160.45,126.85L233.6,131.86L233.6,4620L106.41765166349474,4620L106.18,312.19L103.82,294.14L96.74,262.56L94.38,255.07L84.95,230.64L82.59,225.27L40.11,130.74L37.75,125.05L11.8,60.11L9.44,54.06L0,29.74Z" style="fill: rgb(0, 204, 150); fill-opacity: 0.5; stroke-width: 0;"/></g></g><g class="errorbars"/><g class="lines"><path class="js-line" d="M0,8.26L16.52,46.97L18.88,52.08L30.67,75.2L33.03,79.25L42.47,93.2L44.83,96.11L51.91,103.48L54.27,105.51L61.35,110.51L63.71,111.85L73.15,115.96L75.51,116.73L87.31,119.62L89.66,120.05L110.9,122.81L113.26,123.04L158.09,126.67L160.45,126.85L233.6,131.86L233.6,4620L106.41765166349474,4620L106.18,312.19L103.82,294.14L96.74,262.56L94.38,255.07L84.95,230.64L82.59,225.27L40.11,130.74L37.75,125.05L11.8,60.11L9.44,54.06L0,29.74" style="vector-effect: non-scaling-stroke; fill: none; stroke: rgb(0, 204, 150); stroke-opacity: 1; stroke-width: 0px; opacity: 1;"/></g><g class="points"/><g class="text"/></g></g></g><g class="overplot"/><path class="xlines-above crisp" d="M0,0" style="fill: none;"/><path class="ylines-above crisp" d="M0,0" style="fill: none;"/><g class="overlines-above"/><g class="xaxislayer-above"><g class="x3tick"><text text-anchor="middle" x="0" y="293" transform="translate(576.4,0)" style="font-family: 'Open Sans', verdana, arial, sans-serif; font-size: 12px; fill: rgb(42, 63, 95); fill-opacity: 1; white-space: pre;">0</text></g><g class="x3tick"><text text-anchor="middle" x="0" y="293" transform="translate(654.27,0)" style="font-family: 'Open Sans', verdana, arial, sans-serif; font-size: 12px; fill: rgb(42, 63, 95); fill-opacity: 1; white-space: pre;">1</text></g><g class="x3tick"><text text-anchor="middle" x="0" y="293" transform="translate(732.13,0)" style="font-family: 'Open Sans', verdana, arial, sans-serif; font-size: 12px; fill: rgb(42, 63, 95); fill-opacity: 1; white-space: pre;">2</text></g><g class="x3tick"><text text-anchor="middle" x="0" y="293" transform="translate(810,0)" style="font-family: 'Open Sans', verdana, arial, sans-serif; font-size: 12px; fill: rgb(42, 63, 95); fill-opacity: 1; white-space: pre;">3</text></g></g><g class="yaxislayer-above"/><g class="overaxes-above"/></g></g><g class="polarlayer"/><g class="ternarylayer"/><g class="geolayer"/><g class="funnelarealayer"/><g class="pielayer"/><g class="treemaplayer"/><g class="sunburstlayer"/><g class="glimages"/><defs id="topdefs-581693"><g class="clips"/></defs><g class="layer-above"><g class="imagelayer"/><g class="shapelayer"/></g><g class="infolayer"><g class="g-gtitle"/><g class="g-xtitle"><text class="xtitle" x="196.79999999999998" y="321.8" text-anchor="middle" style="font-family: 'Open Sans', verdana, arial, sans-serif; font-size: 14px; fill: rgb(42, 63, 95); opacity: 1; font-weight: normal; white-space: pre;">Time, hour</text></g><g class="g-x2title"><text class="x2title" x="445" y="321.8" text-anchor="middle" style="font-family: 'Open Sans', verdana, arial, sans-serif; font-size: 14px; fill: rgb(42, 63, 95); opacity: 1; font-weight: normal; white-space: pre;">Time, hour</text></g><g class="g-x3title"><text class="x3title" x="693.1999999999999" y="321.8" text-anchor="middle" style="font-family: 'Open Sans', verdana, arial, sans-serif; font-size: 14px; fill: rgb(42, 63, 95); opacity: 1; font-weight: normal; white-space: pre;">Time, hour</text></g><g class="g-ytitle" transform="translate(2.78125,0)"><text class="ytitle" transform="rotate(-90,12.21875,170)" x="12.21875" y="170" text-anchor="middle" style="font-family: 'Open Sans', verdana, arial, sans-serif; font-size: 14px; fill: rgb(42, 63, 95); opacity: 1; font-weight: normal; white-space: pre;"><tspan class="line" dy="0em" x="12.21875" y="170">Drug concentration in the</tspan><tspan class="line" dy="1.3em" x="12.21875" y="170">central compartment, mg/L</tspan></text></g><g class="g-y2title"/><g class="g-y3title"/><g class="annotation" data-index="0" style="opacity: 1;"><g class="annotation-text-g" transform="rotate(0,196.79999999999998,49.5)"><g class="cursor-pointer" transform="translate(135,39)"><rect class="bg" x="0.5" y="0.5" width="122" height="20" style="stroke-width: 1px; stroke: rgb(0, 0, 0); stroke-opacity: 0; fill: rgb(0, 0, 0); fill-opacity: 0;"/><text class="annotation-text" text-anchor="middle" x="61.484375" y="15" style="font-family: 'Open Sans', verdana, arial, sans-serif; font-size: 12px; fill: rgb(42, 63, 95); fill-opacity: 1; white-space: pre;">Noise Type=Constant</text></g></g></g><g class="annotation" data-index="1" style="opacity: 1;"><g class="annotation-text-g" transform="rotate(0,444.99999999999994,49.49999999999999)"><g class="cursor-pointer" transform="translate(371,39)"><rect class="bg" x="0.5" y="0.5" width="146" height="20" style="stroke-width: 1px; stroke: rgb(0, 0, 0); stroke-opacity: 0; fill: rgb(0, 0, 0); fill-opacity: 0;"/><text class="annotation-text" text-anchor="middle" x="73.4375" y="15" style="font-family: 'Open Sans', verdana, arial, sans-serif; font-size: 12px; fill: rgb(42, 63, 95); fill-opacity: 1; white-space: pre;">Noise Type=Multiplicative</text></g></g></g><g class="annotation" data-index="2" style="opacity: 1;"><g class="annotation-text-g" transform="rotate(0,693.1999999999999,49.5)"><g class="cursor-pointer" transform="translate(628,39)"><rect class="bg" x="0.5" y="0.5" width="129" height="20" style="stroke-width: 1px; stroke: rgb(0, 0, 0); stroke-opacity: 0; fill: rgb(0, 0, 0); fill-opacity: 0;"/><text class="annotation-text" text-anchor="middle" x="65.1875" y="15" style="font-family: 'Open Sans', verdana, arial, sans-serif; font-size: 12px; fill: rgb(42, 63, 95); fill-opacity: 1; white-space: pre;">Noise Type=Combined</text></g></g></g></g></svg>