<?xml version="1.0" encoding="utf-8" standalone="no"?>
<!DOCTYPE svg PUBLIC "-//W3C//DTD SVG 1.1//EN"
  "http://www.w3.org/Graphics/SVG/1.1/DTD/svg11.dtd">
<svg xmlns:xlink="http://www.w3.org/1999/xlink" width="460.8pt" height="345.6pt" viewBox="0 0 460.8 345.6" xmlns="http://www.w3.org/2000/svg" version="1.1">
 <metadata>
  <rdf:RDF xmlns:dc="http://purl.org/dc/elements/1.1/" xmlns:cc="http://creativecommons.org/ns#" xmlns:rdf="http://www.w3.org/1999/02/22-rdf-syntax-ns#">
   <cc:Work>
    <dc:type rdf:resource="http://purl.org/dc/dcmitype/StillImage"/>
    <dc:date>2023-01-09T17:43:32.068280</dc:date>
    <dc:format>image/svg+xml</dc:format>
    <dc:creator>
     <cc:Agent>
      <dc:title>Matplotlib v3.6.2, https://matplotlib.org/</dc:title>
     </cc:Agent>
    </dc:creator>
   </cc:Work>
  </rdf:RDF>
 </metadata>
 <defs>
  <style type="text/css">*{stroke-linejoin: round; stroke-linecap: butt}</style>
 </defs>
 <g id="figure_1">
  <g id="patch_1">
   <path d="M 0 345.6 
L 460.8 345.6 
L 460.8 0 
L 0 0 
z
" style="fill: #ffffff"/>
  </g>
  <g id="axes_1">
   <g id="patch_2">
    <path d="M 57.6 307.584 
L 414.72 307.584 
L 414.72 41.472 
L 57.6 41.472 
z
" style="fill: #ffffff"/>
   </g>
   <g id="matplotlib.axis_1">
    <g id="xtick_1">
     <g id="line2d_1">
      <defs>
       <path id="mf88f3cfba1" d="M 0 0 
L 0 3.5 
" style="stroke: #000000; stroke-width: 0.8"/>
      </defs>
      <g>
       <use xlink:href="#mf88f3cfba1" x="73.832727" y="307.584" style="stroke: #000000; stroke-width: 0.8"/>
      </g>
     </g>
     <g id="text_1">
      <!-- −0.50 -->
      <g transform="translate(58.510071 322.182437) scale(0.1 -0.1)">
       <defs>
        <path id="DejaVuSans-2212" d="M 678 2272 
L 4684 2272 
L 4684 1741 
L 678 1741 
L 678 2272 
z
" transform="scale(0.015625)"/>
        <path id="DejaVuSans-30" d="M 2034 4250 
Q 1547 4250 1301 3770 
Q 1056 3291 1056 2328 
Q 1056 1369 1301 889 
Q 1547 409 2034 409 
Q 2525 409 2770 889 
Q 3016 1369 3016 2328 
Q 3016 3291 2770 3770 
Q 2525 4250 2034 4250 
z
M 2034 4750 
Q 2819 4750 3233 4129 
Q 3647 3509 3647 2328 
Q 3647 1150 3233 529 
Q 2819 -91 2034 -91 
Q 1250 -91 836 529 
Q 422 1150 422 2328 
Q 422 3509 836 4129 
Q 1250 4750 2034 4750 
z
" transform="scale(0.015625)"/>
        <path id="DejaVuSans-2e" d="M 684 794 
L 1344 794 
L 1344 0 
L 684 0 
L 684 794 
z
" transform="scale(0.015625)"/>
        <path id="DejaVuSans-35" d="M 691 4666 
L 3169 4666 
L 3169 4134 
L 1269 4134 
L 1269 2991 
Q 1406 3038 1543 3061 
Q 1681 3084 1819 3084 
Q 2600 3084 3056 2656 
Q 3513 2228 3513 1497 
Q 3513 744 3044 326 
Q 2575 -91 1722 -91 
Q 1428 -91 1123 -41 
Q 819 9 494 109 
L 494 744 
Q 775 591 1075 516 
Q 1375 441 1709 441 
Q 2250 441 2565 725 
Q 2881 1009 2881 1497 
Q 2881 1984 2565 2268 
Q 2250 2553 1709 2553 
Q 1456 2553 1204 2497 
Q 953 2441 691 2322 
L 691 4666 
z
" transform="scale(0.015625)"/>
       </defs>
       <use xlink:href="#DejaVuSans-2212"/>
       <use xlink:href="#DejaVuSans-30" x="83.789062"/>
       <use xlink:href="#DejaVuSans-2e" x="147.412109"/>
       <use xlink:href="#DejaVuSans-35" x="179.199219"/>
       <use xlink:href="#DejaVuSans-30" x="242.822266"/>
      </g>
     </g>
    </g>
    <g id="xtick_2">
     <g id="line2d_2">
      <g>
       <use xlink:href="#mf88f3cfba1" x="114.414545" y="307.584" style="stroke: #000000; stroke-width: 0.8"/>
      </g>
     </g>
     <g id="text_2">
      <!-- −0.25 -->
      <g transform="translate(99.091889 322.182437) scale(0.1 -0.1)">
       <defs>
        <path id="DejaVuSans-32" d="M 1228 531 
L 3431 531 
L 3431 0 
L 469 0 
L 469 531 
Q 828 903 1448 1529 
Q 2069 2156 2228 2338 
Q 2531 2678 2651 2914 
Q 2772 3150 2772 3378 
Q 2772 3750 2511 3984 
Q 2250 4219 1831 4219 
Q 1534 4219 1204 4116 
Q 875 4013 500 3803 
L 500 4441 
Q 881 4594 1212 4672 
Q 1544 4750 1819 4750 
Q 2544 4750 2975 4387 
Q 3406 4025 3406 3419 
Q 3406 3131 3298 2873 
Q 3191 2616 2906 2266 
Q 2828 2175 2409 1742 
Q 1991 1309 1228 531 
z
" transform="scale(0.015625)"/>
       </defs>
       <use xlink:href="#DejaVuSans-2212"/>
       <use xlink:href="#DejaVuSans-30" x="83.789062"/>
       <use xlink:href="#DejaVuSans-2e" x="147.412109"/>
       <use xlink:href="#DejaVuSans-32" x="179.199219"/>
       <use xlink:href="#DejaVuSans-35" x="242.822266"/>
      </g>
     </g>
    </g>
    <g id="xtick_3">
     <g id="line2d_3">
      <g>
       <use xlink:href="#mf88f3cfba1" x="154.996364" y="307.584" style="stroke: #000000; stroke-width: 0.8"/>
      </g>
     </g>
     <g id="text_3">
      <!-- 0.00 -->
      <g transform="translate(143.863551 322.182437) scale(0.1 -0.1)">
       <use xlink:href="#DejaVuSans-30"/>
       <use xlink:href="#DejaVuSans-2e" x="63.623047"/>
       <use xlink:href="#DejaVuSans-30" x="95.410156"/>
       <use xlink:href="#DejaVuSans-30" x="159.033203"/>
      </g>
     </g>
    </g>
    <g id="xtick_4">
     <g id="line2d_4">
      <g>
       <use xlink:href="#mf88f3cfba1" x="195.578182" y="307.584" style="stroke: #000000; stroke-width: 0.8"/>
      </g>
     </g>
     <g id="text_4">
      <!-- 0.25 -->
      <g transform="translate(184.445369 322.182437) scale(0.1 -0.1)">
       <use xlink:href="#DejaVuSans-30"/>
       <use xlink:href="#DejaVuSans-2e" x="63.623047"/>
       <use xlink:href="#DejaVuSans-32" x="95.410156"/>
       <use xlink:href="#DejaVuSans-35" x="159.033203"/>
      </g>
     </g>
    </g>
    <g id="xtick_5">
     <g id="line2d_5">
      <g>
       <use xlink:href="#mf88f3cfba1" x="236.16" y="307.584" style="stroke: #000000; stroke-width: 0.8"/>
      </g>
     </g>
     <g id="text_5">
      <!-- 0.50 -->
      <g transform="translate(225.027187 322.182437) scale(0.1 -0.1)">
       <use xlink:href="#DejaVuSans-30"/>
       <use xlink:href="#DejaVuSans-2e" x="63.623047"/>
       <use xlink:href="#DejaVuSans-35" x="95.410156"/>
       <use xlink:href="#DejaVuSans-30" x="159.033203"/>
      </g>
     </g>
    </g>
    <g id="xtick_6">
     <g id="line2d_6">
      <g>
       <use xlink:href="#mf88f3cfba1" x="276.741818" y="307.584" style="stroke: #000000; stroke-width: 0.8"/>
      </g>
     </g>
     <g id="text_6">
      <!-- 0.75 -->
      <g transform="translate(265.609006 322.182437) scale(0.1 -0.1)">
       <defs>
        <path id="DejaVuSans-37" d="M 525 4666 
L 3525 4666 
L 3525 4397 
L 1831 0 
L 1172 0 
L 2766 4134 
L 525 4134 
L 525 4666 
z
" transform="scale(0.015625)"/>
       </defs>
       <use xlink:href="#DejaVuSans-30"/>
       <use xlink:href="#DejaVuSans-2e" x="63.623047"/>
       <use xlink:href="#DejaVuSans-37" x="95.410156"/>
       <use xlink:href="#DejaVuSans-35" x="159.033203"/>
      </g>
     </g>
    </g>
    <g id="xtick_7">
     <g id="line2d_7">
      <g>
       <use xlink:href="#mf88f3cfba1" x="317.323636" y="307.584" style="stroke: #000000; stroke-width: 0.8"/>
      </g>
     </g>
     <g id="text_7">
      <!-- 1.00 -->
      <g transform="translate(306.190824 322.182437) scale(0.1 -0.1)">
       <defs>
        <path id="DejaVuSans-31" d="M 794 531 
L 1825 531 
L 1825 4091 
L 703 3866 
L 703 4441 
L 1819 4666 
L 2450 4666 
L 2450 531 
L 3481 531 
L 3481 0 
L 794 0 
L 794 531 
z
" transform="scale(0.015625)"/>
       </defs>
       <use xlink:href="#DejaVuSans-31"/>
       <use xlink:href="#DejaVuSans-2e" x="63.623047"/>
       <use xlink:href="#DejaVuSans-30" x="95.410156"/>
       <use xlink:href="#DejaVuSans-30" x="159.033203"/>
      </g>
     </g>
    </g>
    <g id="xtick_8">
     <g id="line2d_8">
      <g>
       <use xlink:href="#mf88f3cfba1" x="357.905455" y="307.584" style="stroke: #000000; stroke-width: 0.8"/>
      </g>
     </g>
     <g id="text_8">
      <!-- 1.25 -->
      <g transform="translate(346.772642 322.182437) scale(0.1 -0.1)">
       <use xlink:href="#DejaVuSans-31"/>
       <use xlink:href="#DejaVuSans-2e" x="63.623047"/>
       <use xlink:href="#DejaVuSans-32" x="95.410156"/>
       <use xlink:href="#DejaVuSans-35" x="159.033203"/>
      </g>
     </g>
    </g>
    <g id="xtick_9">
     <g id="line2d_9">
      <g>
       <use xlink:href="#mf88f3cfba1" x="398.487273" y="307.584" style="stroke: #000000; stroke-width: 0.8"/>
      </g>
     </g>
     <g id="text_9">
      <!-- 1.50 -->
      <g transform="translate(387.35446 322.182437) scale(0.1 -0.1)">
       <use xlink:href="#DejaVuSans-31"/>
       <use xlink:href="#DejaVuSans-2e" x="63.623047"/>
       <use xlink:href="#DejaVuSans-35" x="95.410156"/>
       <use xlink:href="#DejaVuSans-30" x="159.033203"/>
      </g>
     </g>
    </g>
   </g>
   <g id="matplotlib.axis_2">
    <g id="ytick_1">
     <g id="line2d_10">
      <defs>
       <path id="m7083d5df13" d="M 0 0 
L -3.5 0 
" style="stroke: #000000; stroke-width: 0.8"/>
      </defs>
      <g>
       <use xlink:href="#m7083d5df13" x="57.6" y="295.488" style="stroke: #000000; stroke-width: 0.8"/>
      </g>
     </g>
     <g id="text_10">
      <!-- 0.0 -->
      <g transform="translate(34.696875 299.287219) scale(0.1 -0.1)">
       <use xlink:href="#DejaVuSans-30"/>
       <use xlink:href="#DejaVuSans-2e" x="63.623047"/>
       <use xlink:href="#DejaVuSans-30" x="95.410156"/>
      </g>
     </g>
    </g>
    <g id="ytick_2">
     <g id="line2d_11">
      <g>
       <use xlink:href="#m7083d5df13" x="57.6" y="262.346325" style="stroke: #000000; stroke-width: 0.8"/>
      </g>
     </g>
     <g id="text_11">
      <!-- 0.5 -->
      <g transform="translate(34.696875 266.145543) scale(0.1 -0.1)">
       <use xlink:href="#DejaVuSans-30"/>
       <use xlink:href="#DejaVuSans-2e" x="63.623047"/>
       <use xlink:href="#DejaVuSans-35" x="95.410156"/>
      </g>
     </g>
    </g>
    <g id="ytick_3">
     <g id="line2d_12">
      <g>
       <use xlink:href="#m7083d5df13" x="57.6" y="229.204649" style="stroke: #000000; stroke-width: 0.8"/>
      </g>
     </g>
     <g id="text_12">
      <!-- 1.0 -->
      <g transform="translate(34.696875 233.003868) scale(0.1 -0.1)">
       <use xlink:href="#DejaVuSans-31"/>
       <use xlink:href="#DejaVuSans-2e" x="63.623047"/>
       <use xlink:href="#DejaVuSans-30" x="95.410156"/>
      </g>
     </g>
    </g>
    <g id="ytick_4">
     <g id="line2d_13">
      <g>
       <use xlink:href="#m7083d5df13" x="57.6" y="196.062974" style="stroke: #000000; stroke-width: 0.8"/>
      </g>
     </g>
     <g id="text_13">
      <!-- 1.5 -->
      <g transform="translate(34.696875 199.862193) scale(0.1 -0.1)">
       <use xlink:href="#DejaVuSans-31"/>
       <use xlink:href="#DejaVuSans-2e" x="63.623047"/>
       <use xlink:href="#DejaVuSans-35" x="95.410156"/>
      </g>
     </g>
    </g>
    <g id="ytick_5">
     <g id="line2d_14">
      <g>
       <use xlink:href="#m7083d5df13" x="57.6" y="162.921299" style="stroke: #000000; stroke-width: 0.8"/>
      </g>
     </g>
     <g id="text_14">
      <!-- 2.0 -->
      <g transform="translate(34.696875 166.720518) scale(0.1 -0.1)">
       <use xlink:href="#DejaVuSans-32"/>
       <use xlink:href="#DejaVuSans-2e" x="63.623047"/>
       <use xlink:href="#DejaVuSans-30" x="95.410156"/>
      </g>
     </g>
    </g>
    <g id="ytick_6">
     <g id="line2d_15">
      <g>
       <use xlink:href="#m7083d5df13" x="57.6" y="129.779624" style="stroke: #000000; stroke-width: 0.8"/>
      </g>
     </g>
     <g id="text_15">
      <!-- 2.5 -->
      <g transform="translate(34.696875 133.578842) scale(0.1 -0.1)">
       <use xlink:href="#DejaVuSans-32"/>
       <use xlink:href="#DejaVuSans-2e" x="63.623047"/>
       <use xlink:href="#DejaVuSans-35" x="95.410156"/>
      </g>
     </g>
    </g>
    <g id="ytick_7">
     <g id="line2d_16">
      <g>
       <use xlink:href="#m7083d5df13" x="57.6" y="96.637948" style="stroke: #000000; stroke-width: 0.8"/>
      </g>
     </g>
     <g id="text_16">
      <!-- 3.0 -->
      <g transform="translate(34.696875 100.437167) scale(0.1 -0.1)">
       <defs>
        <path id="DejaVuSans-33" d="M 2597 2516 
Q 3050 2419 3304 2112 
Q 3559 1806 3559 1356 
Q 3559 666 3084 287 
Q 2609 -91 1734 -91 
Q 1441 -91 1130 -33 
Q 819 25 488 141 
L 488 750 
Q 750 597 1062 519 
Q 1375 441 1716 441 
Q 2309 441 2620 675 
Q 2931 909 2931 1356 
Q 2931 1769 2642 2001 
Q 2353 2234 1838 2234 
L 1294 2234 
L 1294 2753 
L 1863 2753 
Q 2328 2753 2575 2939 
Q 2822 3125 2822 3475 
Q 2822 3834 2567 4026 
Q 2313 4219 1838 4219 
Q 1578 4219 1281 4162 
Q 984 4106 628 3988 
L 628 4550 
Q 988 4650 1302 4700 
Q 1616 4750 1894 4750 
Q 2613 4750 3031 4423 
Q 3450 4097 3450 3541 
Q 3450 3153 3228 2886 
Q 3006 2619 2597 2516 
z
" transform="scale(0.015625)"/>
       </defs>
       <use xlink:href="#DejaVuSans-33"/>
       <use xlink:href="#DejaVuSans-2e" x="63.623047"/>
       <use xlink:href="#DejaVuSans-30" x="95.410156"/>
      </g>
     </g>
    </g>
    <g id="ytick_8">
     <g id="line2d_17">
      <g>
       <use xlink:href="#m7083d5df13" x="57.6" y="63.496273" style="stroke: #000000; stroke-width: 0.8"/>
      </g>
     </g>
     <g id="text_17">
      <!-- 3.5 -->
      <g transform="translate(34.696875 67.295492) scale(0.1 -0.1)">
       <use xlink:href="#DejaVuSans-33"/>
       <use xlink:href="#DejaVuSans-2e" x="63.623047"/>
       <use xlink:href="#DejaVuSans-35" x="95.410156"/>
      </g>
     </g>
    </g>
   </g>
   <g id="line2d_18">
    <path d="M 73.832727 295.488 
L 153.127731 295.379434 
L 161.252219 295.13227 
L 166.451892 294.768178 
L 170.676626 294.251267 
L 173.926421 293.648284 
L 176.851237 292.895118 
L 179.451073 292.010013 
L 182.050909 290.872322 
L 184.325766 289.626951 
L 186.600622 288.106163 
L 188.5505 286.550526 
L 190.500377 284.731861 
L 192.450254 282.620642 
L 194.400131 280.187217 
L 196.350008 277.402553 
L 198.299885 274.239114 
L 200.249762 270.671851 
L 202.19964 266.679281 
L 204.474496 261.461703 
L 206.749353 255.6264 
L 209.02421 249.170612 
L 211.624046 241.050478 
L 214.223882 232.186355 
L 217.148698 221.429012 
L 220.723473 207.399975 
L 232.747715 159.348927 
L 235.347551 150.337509 
L 237.622408 143.303494 
L 239.572285 138.031602 
L 241.197183 134.240695 
L 242.82208 131.045893 
L 244.121998 128.945473 
L 245.421916 127.267914 
L 246.396855 126.295342 
L 247.371794 125.572497 
L 248.346732 125.102619 
L 249.321671 124.887821 
L 250.296609 124.929069 
L 251.271548 125.226177 
L 252.246486 125.777809 
L 253.221425 126.581487 
L 254.196364 127.633612 
L 255.496282 129.414648 
L 256.7962 131.614855 
L 258.096118 134.217024 
L 259.721016 138.004041 
L 261.345913 142.342286 
L 263.29579 148.203926 
L 265.570647 155.823894 
L 268.170483 165.360176 
L 271.745258 179.45938 
L 282.794562 223.842679 
L 285.719378 234.429971 
L 288.319214 243.117546 
L 290.91905 251.046138 
L 293.193907 257.328244 
L 295.468763 262.989132 
L 297.74362 268.035609 
L 300.018477 272.487281 
L 301.968354 275.851976 
L 303.918231 278.824854 
L 305.868108 281.432323 
L 307.817985 283.702775 
L 309.767862 285.665652 
L 311.71774 287.350631 
L 313.992596 289.004137 
L 316.267453 290.36372 
L 318.54231 291.47119 
L 321.142146 292.477252 
L 324.066962 293.338817 
L 327.316757 294.033474 
L 330.891532 294.559365 
L 335.116265 294.955608 
L 340.640917 295.241511 
L 348.765405 295.415232 
L 364.689402 295.483079 
L 398.487273 295.487996 
L 398.487273 295.487996 
" clip-path="url(#p19d9785168)" style="fill: none; stroke: #1f77b4; stroke-width: 1.5; stroke-linecap: square"/>
   </g>
   <g id="line2d_19">
    <path d="M 73.832727 295.488 
L 180.750991 295.381665 
L 188.875479 295.138823 
L 194.075152 294.78048 
L 198.299885 294.271092 
L 201.549681 293.676296 
L 204.474496 292.932749 
L 207.074333 292.058309 
L 209.674169 290.933554 
L 211.949025 289.701559 
L 214.223882 288.196209 
L 216.173759 286.655517 
L 218.123636 284.853407 
L 220.073514 282.760345 
L 222.023391 280.346622 
L 223.973268 277.5831 
L 225.923145 274.442081 
L 227.873022 270.898293 
L 229.822899 266.929967 
L 232.097756 261.741169 
L 234.372613 255.934539 
L 236.647469 249.506538 
L 239.247305 241.415952 
L 241.847142 232.577674 
L 244.771957 221.843156 
L 248.346732 207.83017 
L 260.370975 159.703082 
L 262.970811 150.646445 
L 265.245667 143.56532 
L 267.195545 138.248144 
L 268.820442 134.41657 
L 270.44534 131.178933 
L 271.745258 129.043026 
L 273.045176 127.329197 
L 274.345094 126.050981 
L 275.320033 125.384432 
L 276.294971 124.971695 
L 277.26991 124.814626 
L 278.244848 124.913933 
L 279.219787 125.269168 
L 280.194726 125.878732 
L 281.169664 126.739888 
L 282.144603 127.848778 
L 283.444521 129.703959 
L 284.744439 131.976021 
L 286.044357 134.64721 
L 287.669255 138.515743 
L 289.294152 142.92938 
L 291.244029 148.872329 
L 293.518886 156.573183 
L 296.118722 166.182058 
L 299.693497 180.345181 
L 310.092842 222.242281 
L 313.342637 234.088878 
L 315.942473 242.808086 
L 318.54231 250.76952 
L 320.817166 257.080437 
L 323.092023 262.769508 
L 325.36688 267.843 
L 327.641736 272.320099 
L 329.591613 275.705091 
L 331.541491 278.696747 
L 333.491368 281.321403 
L 335.441245 283.607426 
L 337.391122 285.584269 
L 339.340999 287.281656 
L 341.615856 288.94777 
L 343.890713 290.318089 
L 346.165569 291.434596 
L 348.765405 292.449136 
L 351.365242 293.23396 
L 354.290057 293.897821 
L 357.864832 294.468744 
L 362.089566 294.900932 
L 367.289238 295.201596 
L 374.763767 295.393295 
L 388.412907 295.478005 
L 398.487273 295.486426 
L 398.487273 295.486426 
" clip-path="url(#p19d9785168)" style="fill: none; stroke: #ff7f0e; stroke-width: 1.5; stroke-linecap: square"/>
   </g>
   <g id="line2d_20">
    <path d="M 73.832727 295.487399 
L 107.630598 295.377223 
L 116.730025 295.133408 
L 122.904636 294.751254 
L 127.454349 294.262676 
L 131.354103 293.631093 
L 134.603898 292.899719 
L 137.528714 292.036804 
L 140.45353 290.934538 
L 143.053366 289.713837 
L 145.653202 288.226726 
L 147.928059 286.675003 
L 150.202916 284.859791 
L 152.477772 282.752316 
L 154.752629 280.324127 
L 157.027486 277.547949 
L 159.302342 274.398664 
L 161.577199 270.854403 
L 163.852056 266.897719 
L 166.126912 262.516803 
L 168.726749 256.984601 
L 171.326585 250.897758 
L 174.2514 243.41449 
L 177.176216 235.314155 
L 180.750991 224.705782 
L 185.300704 210.420427 
L 194.075152 182.663732 
L 197.324947 173.209604 
L 199.924783 166.297388 
L 202.19964 160.854063 
L 204.149517 156.713556 
L 206.099394 153.11548 
L 207.724292 150.566421 
L 209.349189 148.45173 
L 210.649107 147.086437 
L 211.949025 146.020567 
L 213.248943 145.260729 
L 214.548862 144.811653 
L 215.5238 144.680544 
L 216.498739 144.726317 
L 217.473677 144.948811 
L 218.773595 145.518927 
L 220.073514 146.398197 
L 221.373432 147.581154 
L 222.67335 149.060478 
L 224.298247 151.312375 
L 225.923145 153.991564 
L 227.548043 157.072828 
L 229.49792 161.26062 
L 231.772776 166.752413 
L 234.372613 173.710454 
L 237.297428 182.224999 
L 241.197183 194.334268 
L 252.571466 230.146849 
L 255.821261 239.483825 
L 258.746077 247.281038 
L 261.670893 254.42856 
L 264.270729 260.201362 
L 266.870565 265.414501 
L 269.145422 269.518509 
L 271.420278 273.205259 
L 273.695135 276.490368 
L 275.969992 279.394296 
L 278.244848 281.941153 
L 280.519705 284.157576 
L 282.794562 286.071712 
L 285.069419 287.712308 
L 287.344275 289.107951 
L 289.944111 290.438617 
L 292.543948 291.524955 
L 295.468763 292.500299 
L 298.718559 293.332073 
L 302.293333 294.004726 
L 306.518067 294.553786 
L 311.39276 294.954796 
L 317.892351 295.246821 
L 327.316757 295.418416 
L 345.84059 295.483608 
L 398.487273 295.488 
L 398.487273 295.488 
" clip-path="url(#p19d9785168)" style="fill: none; stroke: #2ca02c; stroke-width: 1.5; stroke-linecap: square"/>
   </g>
   <g id="line2d_21">
    <path d="M 73.832727 295.488 
L 186.275643 295.379054 
L 198.949844 295.136763 
L 207.399312 294.766203 
L 213.898903 294.272294 
L 219.423554 293.636337 
L 224.298247 292.849352 
L 228.522981 291.947473 
L 232.422735 290.892874 
L 235.99751 289.704613 
L 239.572285 288.271473 
L 242.82208 286.7283 
L 246.071876 284.93052 
L 249.321671 282.853987 
L 252.246486 280.728136 
L 255.171302 278.343671 
L 258.096118 275.68843 
L 261.020934 272.753356 
L 264.270729 269.157727 
L 267.520524 265.209623 
L 270.770319 260.91637 
L 274.345094 255.814828 
L 278.244848 249.837649 
L 282.469582 242.952962 
L 287.994234 233.494621 
L 300.343456 212.165092 
L 304.24321 205.941643 
L 307.493006 201.143076 
L 310.417821 197.2046 
L 313.017658 194.05784 
L 315.292514 191.610629 
L 317.567371 189.474615 
L 319.842228 187.671216 
L 321.792105 186.404157 
L 323.741982 185.404533 
L 325.691859 184.679933 
L 327.316757 184.29024 
L 328.941654 184.097486 
L 330.566552 184.102699 
L 332.19145 184.305851 
L 333.816347 184.705859 
L 335.766224 185.44265 
L 337.716102 186.454176 
L 339.665979 187.732758 
L 341.615856 189.268762 
L 343.890713 191.37072 
L 346.165569 193.786265 
L 348.765405 196.900108 
L 351.365242 200.352804 
L 354.290057 204.588868 
L 357.864832 210.181249 
L 362.089566 217.222054 
L 368.914136 229.097001 
L 376.713645 242.552057 
L 381.263358 249.972899 
L 385.163112 255.941254 
L 388.737887 261.033635 
L 392.312662 265.727591 
L 395.562457 269.631403 
L 398.487273 272.843191 
L 398.487273 272.843191 
" clip-path="url(#p19d9785168)" style="fill: none; stroke: #d62728; stroke-width: 1.5; stroke-linecap: square"/>
   </g>
   <g id="line2d_22">
    <path d="M 73.832727 295.488 
L 187.900541 295.37987 
L 193.425192 295.138039 
L 196.999967 294.777395 
L 199.924783 294.257178 
L 202.19964 293.636224 
L 204.149517 292.894076 
L 206.099394 291.89811 
L 207.724292 290.824869 
L 209.349189 289.481359 
L 210.974087 287.815388 
L 212.598984 285.769207 
L 214.223882 283.280156 
L 215.84878 280.281715 
L 217.473677 276.705006 
L 219.098575 272.480784 
L 220.723473 267.541923 
L 222.34837 261.826369 
L 223.973268 255.280506 
L 225.598165 247.862846 
L 227.548043 237.776335 
L 229.49792 226.393152 
L 231.447797 213.757796 
L 233.722654 197.573645 
L 236.647469 174.918328 
L 246.396855 97.193744 
L 248.346732 84.241705 
L 249.97163 74.849381 
L 251.271548 68.41113 
L 252.571466 63.036104 
L 253.546405 59.753361 
L 254.521343 57.144986 
L 255.496282 55.234257 
L 256.146241 54.356752 
L 256.7962 53.800588 
L 257.446159 53.568 
L 258.096118 53.659923 
L 258.746077 54.075987 
L 259.396036 54.81452 
L 260.045995 55.872557 
L 261.020934 58.049077 
L 261.995872 60.915154 
L 262.970811 64.445288 
L 264.270729 70.130573 
L 265.570647 76.852691 
L 267.195545 86.557129 
L 269.145422 99.813903 
L 271.420278 116.966757 
L 274.995053 145.983375 
L 280.194726 188.056304 
L 282.794562 207.305121 
L 285.069419 222.591704 
L 287.019296 234.371895 
L 288.969173 244.863503 
L 290.91905 254.057456 
L 292.543948 260.751944 
L 294.168845 266.607951 
L 295.793743 271.677261 
L 297.41864 276.020716 
L 299.043538 279.704788 
L 300.668436 282.798545 
L 302.293333 285.371086 
L 303.918231 287.489461 
L 305.543129 289.217086 
L 307.168026 290.612619 
L 308.792924 291.729247 
L 310.742801 292.767316 
L 312.692678 293.542339 
L 314.967535 294.192139 
L 317.567371 294.689836 
L 320.817166 295.065432 
L 325.0419 295.312183 
L 331.86647 295.450169 
L 349.090385 295.487594 
L 398.487273 295.488 
L 398.487273 295.488 
" clip-path="url(#p19d9785168)" style="fill: none; stroke: #9467bd; stroke-width: 1.5; stroke-linecap: square"/>
   </g>
   <g id="line2d_23">
    <path d="M 73.832727 268.642957 
L 93.006519 261.29776 
L 106.33068 256.315598 
L 115.430106 253.14619 
L 123.229615 250.665491 
L 130.054185 248.722569 
L 136.553776 247.104947 
L 142.728387 245.804934 
L 148.578018 244.805598 
L 154.10267 244.0829 
L 159.627322 243.584861 
L 165.151974 243.318169 
L 170.676626 243.286421 
L 176.201278 243.490047 
L 181.72593 243.926298 
L 187.250581 244.589306 
L 192.775233 245.470217 
L 198.624865 246.627474 
L 204.799476 248.081137 
L 211.299066 249.843674 
L 218.448616 252.02186 
L 226.248124 254.633669 
L 235.672531 258.033671 
L 249.321671 263.223159 
L 269.795381 270.990546 
L 280.194726 274.688624 
L 289.294152 277.698573 
L 298.0686 280.364287 
L 306.518067 282.69155 
L 314.642555 284.698915 
L 322.767043 286.47981 
L 331.216511 288.097796 
L 339.665979 289.488889 
L 348.440426 290.710756 
L 357.864832 291.79457 
L 367.939197 292.723204 
L 378.988501 293.510005 
L 391.337723 294.156346 
L 398.487273 294.439836 
L 398.487273 294.439836 
" clip-path="url(#p19d9785168)" style="fill: none; stroke: #8c564b; stroke-width: 1.5; stroke-linecap: square"/>
   </g>
   <g id="line2d_24">
    <path d="M 73.832727 295.437393 
L 101.780966 295.243563 
L 118.354922 294.920536 
L 130.704144 294.471299 
L 141.103489 293.874791 
L 149.877936 293.15573 
L 157.677445 292.303056 
L 164.826994 291.306054 
L 171.651564 290.128417 
L 177.826175 288.846154 
L 184.000786 287.334754 
L 189.850418 285.673027 
L 195.700049 283.772697 
L 201.224701 281.748982 
L 206.749353 279.497474 
L 212.598984 276.864763 
L 218.448616 273.982308 
L 224.623227 270.684322 
L 231.122817 266.958557 
L 238.597346 262.409264 
L 248.671712 255.986728 
L 264.595708 245.820574 
L 271.420278 241.745563 
L 276.94493 238.686827 
L 282.144603 236.062467 
L 286.694316 234.006772 
L 290.91905 232.325978 
L 295.143784 230.886498 
L 299.043538 229.787883 
L 302.943292 228.922712 
L 306.843047 228.30063 
L 310.417821 227.949953 
L 313.992596 227.812769 
L 317.567371 227.890382 
L 321.142146 228.182055 
L 324.716921 228.685018 
L 328.616675 229.469037 
L 332.516429 230.490045 
L 336.416183 231.73673 
L 340.640917 233.326096 
L 345.190631 235.292861 
L 350.065324 237.662244 
L 355.264996 240.446418 
L 361.114627 243.83533 
L 368.264177 248.244185 
L 380.288419 255.975618 
L 391.987682 263.407789 
L 398.487273 267.331627 
L 398.487273 267.331627 
" clip-path="url(#p19d9785168)" style="fill: none; stroke: #e377c2; stroke-width: 1.5; stroke-linecap: square"/>
   </g>
   <g id="line2d_25">
    <path d="M 73.832727 291.413605 
L 84.557052 290.25713 
L 94.631417 288.954284 
L 104.380803 287.476796 
L 114.130188 285.774335 
L 123.879574 283.84094 
L 133.62896 281.677885 
L 143.703325 279.212032 
L 154.427649 276.353976 
L 166.451892 272.914425 
L 183.025848 267.916424 
L 206.099394 260.970743 
L 217.148698 257.892257 
L 226.248124 255.58423 
L 234.372613 253.748707 
L 241.847142 252.282627 
L 248.996691 251.105694 
L 255.821261 250.206872 
L 262.320852 249.568248 
L 268.820442 249.151278 
L 275.320033 248.962124 
L 281.819623 249.003595 
L 288.319214 249.275073 
L 294.818804 249.772535 
L 301.318395 250.488646 
L 308.142965 251.464394 
L 315.292514 252.715809 
L 322.767043 254.251852 
L 330.891532 256.153039 
L 339.990958 258.520585 
L 350.715283 261.555265 
L 365.339361 265.946705 
L 392.312662 274.070194 
L 398.487273 275.828083 
L 398.487273 275.828083 
" clip-path="url(#p19d9785168)" style="fill: none; stroke: #7f7f7f; stroke-width: 1.5; stroke-linecap: square"/>
   </g>
   <g id="line2d_26">
    <path d="M 73.832727 295.488 
L 158.652383 295.380508 
L 165.151974 295.149143 
L 169.701687 294.772533 
L 172.951482 294.301995 
L 175.876298 293.656356 
L 178.476134 292.835656 
L 180.750991 291.866231 
L 182.700868 290.80123 
L 184.650745 289.474542 
L 186.600622 287.837803 
L 188.22552 286.199016 
L 189.850418 284.275751 
L 191.475315 282.03416 
L 193.100213 279.439709 
L 194.725111 276.457933 
L 196.350008 273.055338 
L 197.974906 269.200437 
L 199.924783 263.937954 
L 201.87466 257.943406 
L 203.824537 251.189136 
L 205.774414 243.663454 
L 208.049271 233.919816 
L 210.324128 223.188049 
L 212.923964 209.839836 
L 216.173759 191.869453 
L 226.898084 131.260285 
L 229.17294 120.311861 
L 231.122817 112.050297 
L 232.747715 106.106068 
L 234.047633 102.038609 
L 235.347551 98.631053 
L 236.647469 95.921022 
L 237.622408 94.364736 
L 238.597346 93.227827 
L 239.572285 92.517521 
L 240.222244 92.283334 
L 240.872203 92.241482 
L 241.522162 92.392083 
L 242.172121 92.734711 
L 242.82208 93.268392 
L 243.797019 94.423687 
L 244.771957 95.997986 
L 245.746896 97.98133 
L 247.046814 101.240185 
L 248.346732 105.167718 
L 249.97163 110.951479 
L 251.596527 117.615595 
L 253.546405 126.620395 
L 255.821261 138.254708 
L 258.746077 154.468069 
L 269.145422 213.496761 
L 271.745258 226.5538 
L 274.020115 236.992898 
L 276.294971 246.423759 
L 278.244848 253.675352 
L 280.194726 260.157644 
L 282.144603 265.888383 
L 284.09448 270.900072 
L 286.044357 275.236578 
L 287.994234 278.949853 
L 289.619132 281.609213 
L 291.244029 283.90969 
L 292.868927 285.885864 
L 294.818804 287.877008 
L 296.768681 289.506467 
L 298.718559 290.826975 
L 300.668436 291.886793 
L 302.943292 292.851284 
L 305.218149 293.579732 
L 307.817985 294.187877 
L 311.067781 294.70021 
L 314.967535 295.069451 
L 320.167207 295.317199 
L 328.291695 295.450712 
L 349.090385 295.487614 
L 398.487273 295.488 
L 398.487273 295.488 
" clip-path="url(#p19d9785168)" style="fill: none; stroke: #bcbd22; stroke-width: 1.5; stroke-linecap: square"/>
   </g>
   <g id="line2d_27">
    <path d="M 73.832727 283.553298 
L 80.982277 281.406233 
L 88.131826 279.024866 
L 95.606355 276.293103 
L 103.405864 273.198101 
L 111.855332 269.600994 
L 121.929697 265.060474 
L 153.77769 250.507011 
L 160.92724 247.59672 
L 167.42683 245.19054 
L 173.276462 243.261953 
L 178.801114 241.677413 
L 184.000786 240.418865 
L 188.875479 239.460088 
L 193.750172 238.727572 
L 198.624865 238.230562 
L 203.174578 237.984781 
L 207.724292 237.952418 
L 212.274005 238.133831 
L 216.823718 238.527003 
L 221.698411 239.178243 
L 226.573104 240.059292 
L 231.447797 241.159103 
L 236.647469 242.557965 
L 242.172121 244.278221 
L 248.021753 246.333578 
L 254.521343 248.858287 
L 261.995872 252.011847 
L 271.420278 256.251541 
L 304.24321 271.257091 
L 312.692678 274.744885 
L 320.492187 277.720609 
L 327.966716 280.327296 
L 335.116265 282.583832 
L 342.265815 284.604956 
L 349.415364 286.393464 
L 356.564914 287.957558 
L 364.039443 289.36635 
L 371.838952 290.60872 
L 379.96344 291.680072 
L 388.737887 292.613113 
L 398.487273 293.41814 
L 398.487273 293.41814 
" clip-path="url(#p19d9785168)" style="fill: none; stroke: #17becf; stroke-width: 1.5; stroke-linecap: square"/>
   </g>
   <g id="patch_3">
    <path d="M 57.6 307.584 
L 57.6 41.472 
" style="fill: none; stroke: #000000; stroke-width: 0.8; stroke-linejoin: miter; stroke-linecap: square"/>
   </g>
   <g id="patch_4">
    <path d="M 414.72 307.584 
L 414.72 41.472 
" style="fill: none; stroke: #000000; stroke-width: 0.8; stroke-linejoin: miter; stroke-linecap: square"/>
   </g>
   <g id="patch_5">
    <path d="M 57.6 307.584 
L 414.72 307.584 
" style="fill: none; stroke: #000000; stroke-width: 0.8; stroke-linejoin: miter; stroke-linecap: square"/>
   </g>
   <g id="patch_6">
    <path d="M 57.6 41.472 
L 414.72 41.472 
" style="fill: none; stroke: #000000; stroke-width: 0.8; stroke-linejoin: miter; stroke-linecap: square"/>
   </g>
  </g>
 </g>
 <defs>
  <clipPath id="p19d9785168">
   <rect x="57.6" y="41.472" width="357.12" height="266.112"/>
  </clipPath>
 </defs>
</svg>
