<svg class="main-svg" xmlns="http://www.w3.org/2000/svg" xmlns:xlink="http://www.w3.org/1999/xlink" width="600" height="400" style="" viewBox="0 0 600 400"><rect x="0" y="0" width="600" height="400" style="fill: rgb(255, 255, 255); fill-opacity: 1;"/><defs id="defs-160070"><g class="clips"><clipPath id="clip160070xyplot" class="plotclip"><rect width="337" height="220"/></clipPath><clipPath class="axesclip" id="clip160070x"><rect x="80" y="0" width="337" height="400"/></clipPath><clipPath class="axesclip" id="clip160070y"><rect x="0" y="100" width="600" height="220"/></clipPath><clipPath class="axesclip" id="clip160070xy"><rect x="80" y="100" width="337" height="220"/></clipPath></g><g class="gradients"/><g class="patterns"/></defs><g class="bglayer"/><g class="layer-below"><g class="imagelayer"/><g class="shapelayer"/></g><g class="cartesianlayer"><g class="subplot xy"><g class="layer-subplot"><g class="shapelayer"/><g class="imagelayer"/></g><g class="minor-gridlayer"><g class="x"/><g class="y"/></g><g class="gridlayer"><g class="x"><path class="xgrid crisp" transform="translate(174.55,0)" d="M0,100v220" style="stroke: rgb(235, 240, 248); stroke-opacity: 1; stroke-width: 1px;"/><path class="xgrid crisp" transform="translate(248.5,0)" d="M0,100v220" style="stroke: rgb(235, 240, 248); stroke-opacity: 1; stroke-width: 1px;"/><path class="xgrid crisp" transform="translate(322.45,0)" d="M0,100v220" style="stroke: rgb(235, 240, 248); stroke-opacity: 1; stroke-width: 1px;"/><path class="xgrid crisp" transform="translate(396.4,0)" d="M0,100v220" style="stroke: rgb(235, 240, 248); stroke-opacity: 1; stroke-width: 1px;"/></g><g class="y"><path class="ygrid crisp" transform="translate(0,260.05)" d="M80,0h337" style="stroke: rgb(235, 240, 248); stroke-opacity: 1; stroke-width: 1px;"/><path class="ygrid crisp" transform="translate(0,214.69)" d="M80,0h337" style="stroke: rgb(235, 240, 248); stroke-opacity: 1; stroke-width: 1px;"/><path class="ygrid crisp" transform="translate(0,169.32)" d="M80,0h337" style="stroke: rgb(235, 240, 248); stroke-opacity: 1; stroke-width: 1px;"/><path class="ygrid crisp" transform="translate(0,123.96000000000001)" d="M80,0h337" style="stroke: rgb(235, 240, 248); stroke-opacity: 1; stroke-width: 1px;"/></g></g><g class="zerolinelayer"><path class="xzl zl crisp" transform="translate(100.6,0)" d="M0,100v220" style="stroke: rgb(235, 240, 248); stroke-opacity: 1; stroke-width: 2px;"/><path class="yzl zl crisp" transform="translate(0,305.40999999999997)" d="M80,0h337" style="stroke: rgb(235, 240, 248); stroke-opacity: 1; stroke-width: 2px;"/></g><path class="xlines-below"/><path class="ylines-below"/><g class="overlines-below"/><g class="xaxislayer-below"/><g class="yaxislayer-below"/><g class="overaxes-below"/><g class="plot" transform="translate(80,100)" clip-path="url(#clip160070xyplot)"><g class="scatterlayer mlayer"><g class="trace scatter trace41a87a" style="stroke-miterlimit: 2; opacity: 1;"><g class="fills"/><g class="errorbars"/><g class="lines"/><g class="points"><path class="point" transform="translate(20.6,203.51)" d="M3,0A3,3 0 1,1 0,-3A3,3 0 0,1 3,0Z" style="opacity: 1; stroke-width: 0px; fill: rgb(136, 204, 238); fill-opacity: 1;"/><path class="point" transform="translate(50.18,198.96)" d="M3,0A3,3 0 1,1 0,-3A3,3 0 0,1 3,0Z" style="opacity: 1; stroke-width: 0px; fill: rgb(136, 204, 238); fill-opacity: 1;"/><path class="point" transform="translate(79.76,201.91)" d="M3,0A3,3 0 1,1 0,-3A3,3 0 0,1 3,0Z" style="opacity: 1; stroke-width: 0px; fill: rgb(136, 204, 238); fill-opacity: 1;"/><path class="point" transform="translate(109.34,185.86)" d="M3,0A3,3 0 1,1 0,-3A3,3 0 0,1 3,0Z" style="opacity: 1; stroke-width: 0px; fill: rgb(136, 204, 238); fill-opacity: 1;"/><path class="point" transform="translate(138.92,148.63)" d="M3,0A3,3 0 1,1 0,-3A3,3 0 0,1 3,0Z" style="opacity: 1; stroke-width: 0px; fill: rgb(136, 204, 238); fill-opacity: 1;"/><path class="point" transform="translate(168.5,103.2)" d="M3,0A3,3 0 1,1 0,-3A3,3 0 0,1 3,0Z" style="opacity: 1; stroke-width: 0px; fill: rgb(136, 204, 238); fill-opacity: 1;"/><path class="point" transform="translate(198.08,61.39)" d="M3,0A3,3 0 1,1 0,-3A3,3 0 0,1 3,0Z" style="opacity: 1; stroke-width: 0px; fill: rgb(136, 204, 238); fill-opacity: 1;"/><path class="point" transform="translate(227.66,45.52)" d="M3,0A3,3 0 1,1 0,-3A3,3 0 0,1 3,0Z" style="opacity: 1; stroke-width: 0px; fill: rgb(136, 204, 238); fill-opacity: 1;"/><path class="point" transform="translate(257.24,21.9)" d="M3,0A3,3 0 1,1 0,-3A3,3 0 0,1 3,0Z" style="opacity: 1; stroke-width: 0px; fill: rgb(136, 204, 238); fill-opacity: 1;"/><path class="point" transform="translate(286.82,31)" d="M3,0A3,3 0 1,1 0,-3A3,3 0 0,1 3,0Z" style="opacity: 1; stroke-width: 0px; fill: rgb(136, 204, 238); fill-opacity: 1;"/><path class="point" transform="translate(316.4,21.42)" d="M3,0A3,3 0 1,1 0,-3A3,3 0 0,1 3,0Z" style="opacity: 1; stroke-width: 0px; fill: rgb(136, 204, 238); fill-opacity: 1;"/></g><g class="text"/></g><g class="trace scatter traceee22d7" style="stroke-miterlimit: 2; opacity: 1;"><g class="fills"/><g class="errorbars"/><g class="lines"><path class="js-line" d="M20.6,203.83L50.21,201.16L50.51,201.12L71.82,196.79L72.12,196.71L83.37,192.96L83.67,192.84L93.74,188.23L94.03,188.07L102.62,182.95L102.91,182.76L112.69,175.36L112.98,175.11L123.64,164.89L123.94,164.58L136.37,149.78L136.67,149.39L148.81,132.4L149.11,131.96L185.82,78.08L186.12,77.7L195.89,66.09L196.18,65.77L205.96,56.09L206.25,55.82L217.5,47.02L217.8,46.82L228.76,40.38L229.05,40.24L240.3,35.41L240.6,35.3L256.29,30.81L256.59,30.74L275.24,27.63L275.54,27.6L292.12,26.05L292.42,26.03L316.4,24.89" style="vector-effect: non-scaling-stroke; fill: none; stroke: rgb(136, 204, 238); stroke-opacity: 1; stroke-width: 2px; opacity: 1;"/></g><g class="points"/><g class="text"/></g><g class="trace scatter trace9a04d7" style="stroke-miterlimit: 2; opacity: 1;"><g class="fills"/><g class="errorbars"/><g class="lines"/><g class="points"><path class="point" transform="translate(20.6,205)" d="M3,0A3,3 0 1,1 0,-3A3,3 0 0,1 3,0Z" style="opacity: 1; stroke-width: 0px; fill: rgb(204, 102, 119); fill-opacity: 1;"/><path class="point" transform="translate(50.18,204.32)" d="M3,0A3,3 0 1,1 0,-3A3,3 0 0,1 3,0Z" style="opacity: 1; stroke-width: 0px; fill: rgb(204, 102, 119); fill-opacity: 1;"/><path class="point" transform="translate(79.76,199.16)" d="M3,0A3,3 0 1,1 0,-3A3,3 0 0,1 3,0Z" style="opacity: 1; stroke-width: 0px; fill: rgb(204, 102, 119); fill-opacity: 1;"/><path class="point" transform="translate(109.34,178.86)" d="M3,0A3,3 0 1,1 0,-3A3,3 0 0,1 3,0Z" style="opacity: 1; stroke-width: 0px; fill: rgb(204, 102, 119); fill-opacity: 1;"/><path class="point" transform="translate(138.92,137.09)" d="M3,0A3,3 0 1,1 0,-3A3,3 0 0,1 3,0Z" style="opacity: 1; stroke-width: 0px; fill: rgb(204, 102, 119); fill-opacity: 1;"/><path class="point" transform="translate(168.5,94.9)" d="M3,0A3,3 0 1,1 0,-3A3,3 0 0,1 3,0Z" style="opacity: 1; stroke-width: 0px; fill: rgb(204, 102, 119); fill-opacity: 1;"/><path class="point" transform="translate(198.08,67.78)" d="M3,0A3,3 0 1,1 0,-3A3,3 0 0,1 3,0Z" style="opacity: 1; stroke-width: 0px; fill: rgb(204, 102, 119); fill-opacity: 1;"/><path class="point" transform="translate(227.66,44.91)" d="M3,0A3,3 0 1,1 0,-3A3,3 0 0,1 3,0Z" style="opacity: 1; stroke-width: 0px; fill: rgb(204, 102, 119); fill-opacity: 1;"/><path class="point" transform="translate(257.24,33.87)" d="M3,0A3,3 0 1,1 0,-3A3,3 0 0,1 3,0Z" style="opacity: 1; stroke-width: 0px; fill: rgb(204, 102, 119); fill-opacity: 1;"/><path class="point" transform="translate(286.82,14.75)" d="M3,0A3,3 0 1,1 0,-3A3,3 0 0,1 3,0Z" style="opacity: 1; stroke-width: 0px; fill: rgb(204, 102, 119); fill-opacity: 1;"/><path class="point" transform="translate(316.4,29.06)" d="M3,0A3,3 0 1,1 0,-3A3,3 0 0,1 3,0Z" style="opacity: 1; stroke-width: 0px; fill: rgb(204, 102, 119); fill-opacity: 1;"/></g><g class="text"/></g><g class="trace scatter tracec2219d" style="stroke-miterlimit: 2; opacity: 1;"><g class="fills"/><g class="errorbars"/><g class="lines"><path class="js-line" d="M20.6,205.41L62.05,204.66L62.35,204.63L71.82,203.25L72.12,203.19L80.41,200.81L80.71,200.7L89,196.77L89.29,196.6L96.7,191.55L96.99,191.32L105.58,183.54L105.88,183.23L115.65,172.07L115.94,171.7L126.6,157.37L126.9,156.95L169.83,95.26L170.13,94.89L181.08,81.74L181.38,81.41L195.3,67.19L195.59,66.92L206.84,57.42L207.14,57.19L219.58,48.59L219.87,48.41L231.42,41.98L231.72,41.83L243.56,36.55L243.86,36.43L261.03,30.67L261.33,30.59L273.76,27.51L274.06,27.44L296.27,23.58L296.56,23.54L316.4,21.34" style="vector-effect: non-scaling-stroke; fill: none; stroke: rgb(204, 102, 119); stroke-opacity: 1; stroke-width: 2px; opacity: 1;"/></g><g class="points"/><g class="text"/></g><g class="trace scatter traceef1c74" style="stroke-miterlimit: 2; opacity: 1;"><g class="fills"/><g class="errorbars"/><g class="lines"/><g class="points"><path class="point" transform="translate(20.6,198.46)" d="M3,0A3,3 0 1,1 0,-3A3,3 0 0,1 3,0Z" style="opacity: 1; stroke-width: 0px; fill: rgb(221, 204, 119); fill-opacity: 1;"/><path class="point" transform="translate(50.18,205.25)" d="M3,0A3,3 0 1,1 0,-3A3,3 0 0,1 3,0Z" style="opacity: 1; stroke-width: 0px; fill: rgb(221, 204, 119); fill-opacity: 1;"/><path class="point" transform="translate(79.76,200.98)" d="M3,0A3,3 0 1,1 0,-3A3,3 0 0,1 3,0Z" style="opacity: 1; stroke-width: 0px; fill: rgb(221, 204, 119); fill-opacity: 1;"/><path class="point" transform="translate(109.34,184.01)" d="M3,0A3,3 0 1,1 0,-3A3,3 0 0,1 3,0Z" style="opacity: 1; stroke-width: 0px; fill: rgb(221, 204, 119); fill-opacity: 1;"/><path class="point" transform="translate(138.92,154.43)" d="M3,0A3,3 0 1,1 0,-3A3,3 0 0,1 3,0Z" style="opacity: 1; stroke-width: 0px; fill: rgb(221, 204, 119); fill-opacity: 1;"/><path class="point" transform="translate(168.5,114.81)" d="M3,0A3,3 0 1,1 0,-3A3,3 0 0,1 3,0Z" style="opacity: 1; stroke-width: 0px; fill: rgb(221, 204, 119); fill-opacity: 1;"/><path class="point" transform="translate(198.08,83.91)" d="M3,0A3,3 0 1,1 0,-3A3,3 0 0,1 3,0Z" style="opacity: 1; stroke-width: 0px; fill: rgb(221, 204, 119); fill-opacity: 1;"/><path class="point" transform="translate(227.66,52.45)" d="M3,0A3,3 0 1,1 0,-3A3,3 0 0,1 3,0Z" style="opacity: 1; stroke-width: 0px; fill: rgb(221, 204, 119); fill-opacity: 1;"/><path class="point" transform="translate(257.24,43.51)" d="M3,0A3,3 0 1,1 0,-3A3,3 0 0,1 3,0Z" style="opacity: 1; stroke-width: 0px; fill: rgb(221, 204, 119); fill-opacity: 1;"/><path class="point" transform="translate(286.82,29.24)" d="M3,0A3,3 0 1,1 0,-3A3,3 0 0,1 3,0Z" style="opacity: 1; stroke-width: 0px; fill: rgb(221, 204, 119); fill-opacity: 1;"/><path class="point" transform="translate(316.4,27.98)" d="M3,0A3,3 0 1,1 0,-3A3,3 0 0,1 3,0Z" style="opacity: 1; stroke-width: 0px; fill: rgb(221, 204, 119); fill-opacity: 1;"/></g><g class="text"/></g><g class="trace scatter tracede189c" style="stroke-miterlimit: 2; opacity: 1;"><g class="fills"/><g class="errorbars"/><g class="lines"><path class="js-line" d="M20.6,205.2L44.88,204.45L45.18,204.44L65.9,202.3L66.2,202.25L79.82,199.16L80.12,199.07L89.29,195.78L89.59,195.65L98.18,191.43L98.47,191.26L108.24,184.89L108.54,184.67L118.02,176.82L118.31,176.54L128.08,166.76L128.38,166.43L139.63,153.36L139.93,153L191.45,87.47L191.74,87.14L206.84,71.61L207.14,71.34L219.87,60.46L220.17,60.23L231.42,52.26L231.72,52.07L243.56,45.2L243.86,45.04L257.77,38.68L258.07,38.56L272.58,33.53L272.87,33.45L289.16,29.32L289.46,29.26L310.48,25.66L310.77,25.62L316.4,24.9" style="vector-effect: non-scaling-stroke; fill: none; stroke: rgb(221, 204, 119); stroke-opacity: 1; stroke-width: 2px; opacity: 1;"/></g><g class="points"/><g class="text"/></g></g></g><g class="overplot"/><path class="xlines-above crisp" d="M0,0" style="fill: none;"/><path class="ylines-above crisp" d="M0,0" style="fill: none;"/><g class="overlines-above"/><g class="xaxislayer-above"><g class="xtick"><text text-anchor="middle" x="0" y="333" transform="translate(100.6,0)" style="font-family: 'Open Sans', verdana, arial, sans-serif; font-size: 12px; fill: rgb(42, 63, 95); fill-opacity: 1; white-space: pre; opacity: 1;">0</text></g><g class="xtick"><text text-anchor="middle" x="0" y="333" style="font-family: 'Open Sans', verdana, arial, sans-serif; font-size: 12px; fill: rgb(42, 63, 95); fill-opacity: 1; white-space: pre; opacity: 1;" transform="translate(174.55,0)">1000</text></g><g class="xtick"><text text-anchor="middle" x="0" y="333" style="font-family: 'Open Sans', verdana, arial, sans-serif; font-size: 12px; fill: rgb(42, 63, 95); fill-opacity: 1; white-space: pre; opacity: 1;" transform="translate(248.5,0)">2000</text></g><g class="xtick"><text text-anchor="middle" x="0" y="333" style="font-family: 'Open Sans', verdana, arial, sans-serif; font-size: 12px; fill: rgb(42, 63, 95); fill-opacity: 1; white-space: pre; opacity: 1;" transform="translate(322.45,0)">3000</text></g><g class="xtick"><text text-anchor="middle" x="0" y="333" style="font-family: 'Open Sans', verdana, arial, sans-serif; font-size: 12px; fill: rgb(42, 63, 95); fill-opacity: 1; white-space: pre; opacity: 1;" transform="translate(396.4,0)">4000</text></g></g><g class="yaxislayer-above"><g class="ytick"><text text-anchor="end" x="79" y="4.199999999999999" transform="translate(0,305.40999999999997)" style="font-family: 'Open Sans', verdana, arial, sans-serif; font-size: 12px; fill: rgb(42, 63, 95); fill-opacity: 1; white-space: pre; opacity: 1;">0</text></g><g class="ytick"><text text-anchor="end" x="79" y="4.199999999999999" style="font-family: 'Open Sans', verdana, arial, sans-serif; font-size: 12px; fill: rgb(42, 63, 95); fill-opacity: 1; white-space: pre; opacity: 1;" transform="translate(0,260.05)">20</text></g><g class="ytick"><text text-anchor="end" x="79" y="4.199999999999999" style="font-family: 'Open Sans', verdana, arial, sans-serif; font-size: 12px; fill: rgb(42, 63, 95); fill-opacity: 1; white-space: pre; opacity: 1;" transform="translate(0,214.69)">40</text></g><g class="ytick"><text text-anchor="end" x="79" y="4.199999999999999" style="font-family: 'Open Sans', verdana, arial, sans-serif; font-size: 12px; fill: rgb(42, 63, 95); fill-opacity: 1; white-space: pre; opacity: 1;" transform="translate(0,169.32)">60</text></g><g class="ytick"><text text-anchor="end" x="79" y="4.199999999999999" style="font-family: 'Open Sans', verdana, arial, sans-serif; font-size: 12px; fill: rgb(42, 63, 95); fill-opacity: 1; white-space: pre; opacity: 1;" transform="translate(0,123.96000000000001)">80</text></g></g><g class="overaxes-above"/></g></g><g class="polarlayer"/><g class="smithlayer"/><g class="ternarylayer"/><g class="geolayer"/><g class="funnelarealayer"/><g class="pielayer"/><g class="iciclelayer"/><g class="treemaplayer"/><g class="sunburstlayer"/><g class="glimages"/><defs id="topdefs-160070"><g class="clips"/><clipPath id="legend160070"><rect width="164" height="204" x="0" y="0"/></clipPath></defs><g class="layer-above"><g class="imagelayer"/><g class="shapelayer"/></g><g class="infolayer"><g class="legend" pointer-events="all" transform="translate(423.74,100)"><rect class="bg" shape-rendering="crispEdges" style="stroke: rgb(68, 68, 68); stroke-opacity: 1; fill: rgb(255, 255, 255); fill-opacity: 1; stroke-width: 0px;" width="164" height="204" x="0" y="0"/><g class="scrollbox" transform="" clip-path="url(#legend160070)"><g class="groups" transform=""><g class="traces" transform="translate(0,14.950000000000001)" style="opacity: 1;"><text class="legendtext" text-anchor="start" x="5" y="5.07" style="font-family: 'Open Sans', verdana, arial, sans-serif; font-size: 13px; fill: rgb(42, 63, 95); fill-opacity: 1; white-space: pre;">Standard growth model</text><g class="layers"><g class="legendfill"/><g class="legendlines"/><g class="legendsymbols"><g class="legendpoints"/></g></g><rect class="legendtoggle" x="0" y="-9.950000000000001" width="158.859375" height="19.900000000000002" style="fill: rgb(0, 0, 0); fill-opacity: 0;"/></g><g class="traces" transform="translate(0,34.400000000000006)" style="opacity: 1;"><text class="legendtext" text-anchor="start" x="40" y="4.680000000000001" style="font-family: 'Open Sans', verdana, arial, sans-serif; font-size: 12px; fill: rgb(42, 63, 95); fill-opacity: 1; white-space: pre;">data</text><g class="layers" style="opacity: 1;"><g class="legendfill"/><g class="legendlines"/><g class="legendsymbols"><g class="legendpoints"><path class="scatterpts" transform="translate(20,0)" d="M3,0A3,3 0 1,1 0,-3A3,3 0 0,1 3,0Z" style="opacity: 1; stroke-width: 0px; fill: rgb(136, 204, 238); fill-opacity: 1;"/></g></g></g><rect class="legendtoggle" x="0" y="-9.5" width="158.859375" height="19" style="fill: rgb(0, 0, 0); fill-opacity: 0;"/></g><g class="traces" transform="translate(0,53.400000000000006)" style="opacity: 1;"><text class="legendtext" text-anchor="start" x="40" y="4.680000000000001" style="font-family: 'Open Sans', verdana, arial, sans-serif; font-size: 12px; fill: rgb(42, 63, 95); fill-opacity: 1; white-space: pre;">Simulated curve</text><g class="layers" style="opacity: 1;"><g class="legendfill"/><g class="legendlines"><path class="js-line" d="M5,0h30" style="fill: none; stroke: rgb(136, 204, 238); stroke-opacity: 1; stroke-width: 2px;"/></g><g class="legendsymbols"><g class="legendpoints"/></g></g><rect class="legendtoggle" x="0" y="-9.5" width="158.859375" height="19" style="fill: rgb(0, 0, 0); fill-opacity: 0;"/></g></g><g class="groups" transform="translate(0,10)"><g class="traces" transform="translate(0,72.85000000000001)" style="opacity: 1;"><text class="legendtext" text-anchor="start" x="5" y="5.07" style="font-family: 'Open Sans', verdana, arial, sans-serif; font-size: 13px; fill: rgb(42, 63, 95); fill-opacity: 1; white-space: pre;">Gompertz growth model</text><g class="layers"><g class="legendfill"/><g class="legendlines"/><g class="legendsymbols"><g class="legendpoints"/></g></g><rect class="legendtoggle" x="0" y="-9.950000000000001" width="158.859375" height="19.900000000000002" style="fill: rgb(0, 0, 0); fill-opacity: 0;"/></g><g class="traces" transform="translate(0,92.30000000000001)" style="opacity: 1;"><text class="legendtext" text-anchor="start" x="40" y="4.680000000000001" style="font-family: 'Open Sans', verdana, arial, sans-serif; font-size: 12px; fill: rgb(42, 63, 95); fill-opacity: 1; white-space: pre;">data</text><g class="layers" style="opacity: 1;"><g class="legendfill"/><g class="legendlines"/><g class="legendsymbols"><g class="legendpoints"><path class="scatterpts" transform="translate(20,0)" d="M3,0A3,3 0 1,1 0,-3A3,3 0 0,1 3,0Z" style="opacity: 1; stroke-width: 0px; fill: rgb(204, 102, 119); fill-opacity: 1;"/></g></g></g><rect class="legendtoggle" x="0" y="-9.5" width="158.859375" height="19" style="fill: rgb(0, 0, 0); fill-opacity: 0;"/></g><g class="traces" transform="translate(0,111.30000000000001)" style="opacity: 1;"><text class="legendtext" text-anchor="start" x="40" y="4.680000000000001" style="font-family: 'Open Sans', verdana, arial, sans-serif; font-size: 12px; fill: rgb(42, 63, 95); fill-opacity: 1; white-space: pre;">Simulated curve</text><g class="layers" style="opacity: 1;"><g class="legendfill"/><g class="legendlines"><path class="js-line" d="M5,0h30" style="fill: none; stroke: rgb(204, 102, 119); stroke-opacity: 1; stroke-width: 2px;"/></g><g class="legendsymbols"><g class="legendpoints"/></g></g><rect class="legendtoggle" x="0" y="-9.5" width="158.859375" height="19" style="fill: rgb(0, 0, 0); fill-opacity: 0;"/></g></g><g class="groups" transform="translate(0,20)"><g class="traces" transform="translate(0,130.75)" style="opacity: 1;"><text class="legendtext" text-anchor="start" x="5" y="5.07" style="font-family: 'Open Sans', verdana, arial, sans-serif; font-size: 13px; fill: rgb(42, 63, 95); fill-opacity: 1; white-space: pre;">Richards growth model</text><g class="layers"><g class="legendfill"/><g class="legendlines"/><g class="legendsymbols"><g class="legendpoints"/></g></g><rect class="legendtoggle" x="0" y="-9.950000000000001" width="158.859375" height="19.900000000000002" style="fill: rgb(0, 0, 0); fill-opacity: 0;"/></g><g class="traces" transform="translate(0,150.20000000000002)" style="opacity: 1;"><text class="legendtext" text-anchor="start" x="40" y="4.680000000000001" style="font-family: 'Open Sans', verdana, arial, sans-serif; font-size: 12px; fill: rgb(42, 63, 95); fill-opacity: 1; white-space: pre;">data</text><g class="layers" style="opacity: 1;"><g class="legendfill"/><g class="legendlines"/><g class="legendsymbols"><g class="legendpoints"><path class="scatterpts" transform="translate(20,0)" d="M3,0A3,3 0 1,1 0,-3A3,3 0 0,1 3,0Z" style="opacity: 1; stroke-width: 0px; fill: rgb(221, 204, 119); fill-opacity: 1;"/></g></g></g><rect class="legendtoggle" x="0" y="-9.5" width="158.859375" height="19" style="fill: rgb(0, 0, 0); fill-opacity: 0;"/></g><g class="traces" transform="translate(0,169.20000000000002)" style="opacity: 1;"><text class="legendtext" text-anchor="start" x="40" y="4.680000000000001" style="font-family: 'Open Sans', verdana, arial, sans-serif; font-size: 12px; fill: rgb(42, 63, 95); fill-opacity: 1; white-space: pre;">Simulated curve</text><g class="layers" style="opacity: 1;"><g class="legendfill"/><g class="legendlines"><path class="js-line" d="M5,0h30" style="fill: none; stroke: rgb(221, 204, 119); stroke-opacity: 1; stroke-width: 2px;"/></g><g class="legendsymbols"><g class="legendpoints"/></g></g><rect class="legendtoggle" x="0" y="-9.5" width="158.859375" height="19" style="fill: rgb(0, 0, 0); fill-opacity: 0;"/></g></g></g><rect class="scrollbar" rx="20" ry="3" width="0" height="0" style="fill: rgb(128, 139, 164); fill-opacity: 1;" x="0" y="0"/></g><g class="g-gtitle"/><g class="g-xtitle"/><g class="g-ytitle"/></g></svg>