<?xml version="1.0" encoding="utf-8" standalone="no"?>
<!DOCTYPE svg PUBLIC "-//W3C//DTD SVG 1.1//EN"
  "http://www.w3.org/Graphics/SVG/1.1/DTD/svg11.dtd">
<!-- Created with matplotlib (https://matplotlib.org/) -->
<svg height="540pt" version="1.1" viewBox="0 0 540 540" width="540pt" xmlns="http://www.w3.org/2000/svg" xmlns:xlink="http://www.w3.org/1999/xlink">
 <metadata>
  <rdf:RDF xmlns:cc="http://creativecommons.org/ns#" xmlns:dc="http://purl.org/dc/elements/1.1/" xmlns:rdf="http://www.w3.org/1999/02/22-rdf-syntax-ns#">
   <cc:Work>
    <dc:type rdf:resource="http://purl.org/dc/dcmitype/StillImage"/>
    <dc:date>2022-03-30T23:30:43.912531</dc:date>
    <dc:format>image/svg+xml</dc:format>
    <dc:creator>
     <cc:Agent>
      <dc:title>Matplotlib v3.3.4, https://matplotlib.org/</dc:title>
     </cc:Agent>
    </dc:creator>
   </cc:Work>
  </rdf:RDF>
 </metadata>
 <defs>
  <style type="text/css">*{stroke-linecap:butt;stroke-linejoin:round;}</style>
 </defs>
 <g id="figure_1">
  <g id="patch_1">
   <path d="M 0 540 
L 540 540 
L 540 0 
L 0 0 
z
" style="fill:none;"/>
  </g>
  <g id="axes_1">
   <g id="patch_2">
    <path d="M 67.5 250.118182 
L 257.727273 250.118182 
L 257.727273 64.8 
L 67.5 64.8 
z
" style="fill:#ffffff;"/>
   </g>
   <g id="matplotlib.axis_1">
    <g id="xtick_1">
     <g id="line2d_1">
      <defs>
       <path d="M 0 0 
L 0 3.5 
" id="me09e033003" style="stroke:#000000;stroke-width:0.8;"/>
      </defs>
      <g>
       <use style="stroke:#000000;stroke-width:0.8;" x="94.973695" xlink:href="#me09e033003" y="250.118182"/>
      </g>
     </g>
     <g id="text_1">
      <!-- 600 -->
      <g transform="translate(85.429945 264.716619)scale(0.1 -0.1)">
       <defs>
        <path d="M 33.015625 40.375 
Q 26.375 40.375 22.484375 35.828125 
Q 18.609375 31.296875 18.609375 23.390625 
Q 18.609375 15.53125 22.484375 10.953125 
Q 26.375 6.390625 33.015625 6.390625 
Q 39.65625 6.390625 43.53125 10.953125 
Q 47.40625 15.53125 47.40625 23.390625 
Q 47.40625 31.296875 43.53125 35.828125 
Q 39.65625 40.375 33.015625 40.375 
z
M 52.59375 71.296875 
L 52.59375 62.3125 
Q 48.875 64.0625 45.09375 64.984375 
Q 41.3125 65.921875 37.59375 65.921875 
Q 27.828125 65.921875 22.671875 59.328125 
Q 17.53125 52.734375 16.796875 39.40625 
Q 19.671875 43.65625 24.015625 45.921875 
Q 28.375 48.1875 33.59375 48.1875 
Q 44.578125 48.1875 50.953125 41.515625 
Q 57.328125 34.859375 57.328125 23.390625 
Q 57.328125 12.15625 50.6875 5.359375 
Q 44.046875 -1.421875 33.015625 -1.421875 
Q 20.359375 -1.421875 13.671875 8.265625 
Q 6.984375 17.96875 6.984375 36.375 
Q 6.984375 53.65625 15.1875 63.9375 
Q 23.390625 74.21875 37.203125 74.21875 
Q 40.921875 74.21875 44.703125 73.484375 
Q 48.484375 72.75 52.59375 71.296875 
z
" id="DejaVuSans-54"/>
        <path d="M 31.78125 66.40625 
Q 24.171875 66.40625 20.328125 58.90625 
Q 16.5 51.421875 16.5 36.375 
Q 16.5 21.390625 20.328125 13.890625 
Q 24.171875 6.390625 31.78125 6.390625 
Q 39.453125 6.390625 43.28125 13.890625 
Q 47.125 21.390625 47.125 36.375 
Q 47.125 51.421875 43.28125 58.90625 
Q 39.453125 66.40625 31.78125 66.40625 
z
M 31.78125 74.21875 
Q 44.046875 74.21875 50.515625 64.515625 
Q 56.984375 54.828125 56.984375 36.375 
Q 56.984375 17.96875 50.515625 8.265625 
Q 44.046875 -1.421875 31.78125 -1.421875 
Q 19.53125 -1.421875 13.0625 8.265625 
Q 6.59375 17.96875 6.59375 36.375 
Q 6.59375 54.828125 13.0625 64.515625 
Q 19.53125 74.21875 31.78125 74.21875 
z
" id="DejaVuSans-48"/>
       </defs>
       <use xlink:href="#DejaVuSans-54"/>
       <use x="63.623047" xlink:href="#DejaVuSans-48"/>
       <use x="127.246094" xlink:href="#DejaVuSans-48"/>
      </g>
     </g>
    </g>
    <g id="xtick_2">
     <g id="line2d_2">
      <g>
       <use style="stroke:#000000;stroke-width:0.8;" x="130.071676" xlink:href="#me09e033003" y="250.118182"/>
      </g>
     </g>
     <g id="text_2">
      <!-- 800 -->
      <g transform="translate(120.527926 264.716619)scale(0.1 -0.1)">
       <defs>
        <path d="M 31.78125 34.625 
Q 24.75 34.625 20.71875 30.859375 
Q 16.703125 27.09375 16.703125 20.515625 
Q 16.703125 13.921875 20.71875 10.15625 
Q 24.75 6.390625 31.78125 6.390625 
Q 38.8125 6.390625 42.859375 10.171875 
Q 46.921875 13.96875 46.921875 20.515625 
Q 46.921875 27.09375 42.890625 30.859375 
Q 38.875 34.625 31.78125 34.625 
z
M 21.921875 38.8125 
Q 15.578125 40.375 12.03125 44.71875 
Q 8.5 49.078125 8.5 55.328125 
Q 8.5 64.0625 14.71875 69.140625 
Q 20.953125 74.21875 31.78125 74.21875 
Q 42.671875 74.21875 48.875 69.140625 
Q 55.078125 64.0625 55.078125 55.328125 
Q 55.078125 49.078125 51.53125 44.71875 
Q 48 40.375 41.703125 38.8125 
Q 48.828125 37.15625 52.796875 32.3125 
Q 56.78125 27.484375 56.78125 20.515625 
Q 56.78125 9.90625 50.3125 4.234375 
Q 43.84375 -1.421875 31.78125 -1.421875 
Q 19.734375 -1.421875 13.25 4.234375 
Q 6.78125 9.90625 6.78125 20.515625 
Q 6.78125 27.484375 10.78125 32.3125 
Q 14.796875 37.15625 21.921875 38.8125 
z
M 18.3125 54.390625 
Q 18.3125 48.734375 21.84375 45.5625 
Q 25.390625 42.390625 31.78125 42.390625 
Q 38.140625 42.390625 41.71875 45.5625 
Q 45.3125 48.734375 45.3125 54.390625 
Q 45.3125 60.0625 41.71875 63.234375 
Q 38.140625 66.40625 31.78125 66.40625 
Q 25.390625 66.40625 21.84375 63.234375 
Q 18.3125 60.0625 18.3125 54.390625 
z
" id="DejaVuSans-56"/>
       </defs>
       <use xlink:href="#DejaVuSans-56"/>
       <use x="63.623047" xlink:href="#DejaVuSans-48"/>
       <use x="127.246094" xlink:href="#DejaVuSans-48"/>
      </g>
     </g>
    </g>
    <g id="xtick_3">
     <g id="line2d_3">
      <g>
       <use style="stroke:#000000;stroke-width:0.8;" x="165.169657" xlink:href="#me09e033003" y="250.118182"/>
      </g>
     </g>
     <g id="text_3">
      <!-- 1000 -->
      <g transform="translate(152.444657 264.716619)scale(0.1 -0.1)">
       <defs>
        <path d="M 12.40625 8.296875 
L 28.515625 8.296875 
L 28.515625 63.921875 
L 10.984375 60.40625 
L 10.984375 69.390625 
L 28.421875 72.90625 
L 38.28125 72.90625 
L 38.28125 8.296875 
L 54.390625 8.296875 
L 54.390625 0 
L 12.40625 0 
z
" id="DejaVuSans-49"/>
       </defs>
       <use xlink:href="#DejaVuSans-49"/>
       <use x="63.623047" xlink:href="#DejaVuSans-48"/>
       <use x="127.246094" xlink:href="#DejaVuSans-48"/>
       <use x="190.869141" xlink:href="#DejaVuSans-48"/>
      </g>
     </g>
    </g>
    <g id="xtick_4">
     <g id="line2d_4">
      <g>
       <use style="stroke:#000000;stroke-width:0.8;" x="200.267638" xlink:href="#me09e033003" y="250.118182"/>
      </g>
     </g>
     <g id="text_4">
      <!-- 1200 -->
      <g transform="translate(187.542638 264.716619)scale(0.1 -0.1)">
       <defs>
        <path d="M 19.1875 8.296875 
L 53.609375 8.296875 
L 53.609375 0 
L 7.328125 0 
L 7.328125 8.296875 
Q 12.9375 14.109375 22.625 23.890625 
Q 32.328125 33.6875 34.8125 36.53125 
Q 39.546875 41.84375 41.421875 45.53125 
Q 43.3125 49.21875 43.3125 52.78125 
Q 43.3125 58.59375 39.234375 62.25 
Q 35.15625 65.921875 28.609375 65.921875 
Q 23.96875 65.921875 18.8125 64.3125 
Q 13.671875 62.703125 7.8125 59.421875 
L 7.8125 69.390625 
Q 13.765625 71.78125 18.9375 73 
Q 24.125 74.21875 28.421875 74.21875 
Q 39.75 74.21875 46.484375 68.546875 
Q 53.21875 62.890625 53.21875 53.421875 
Q 53.21875 48.921875 51.53125 44.890625 
Q 49.859375 40.875 45.40625 35.40625 
Q 44.1875 33.984375 37.640625 27.21875 
Q 31.109375 20.453125 19.1875 8.296875 
z
" id="DejaVuSans-50"/>
       </defs>
       <use xlink:href="#DejaVuSans-49"/>
       <use x="63.623047" xlink:href="#DejaVuSans-50"/>
       <use x="127.246094" xlink:href="#DejaVuSans-48"/>
       <use x="190.869141" xlink:href="#DejaVuSans-48"/>
      </g>
     </g>
    </g>
    <g id="xtick_5">
     <g id="line2d_5">
      <g>
       <use style="stroke:#000000;stroke-width:0.8;" x="235.365618" xlink:href="#me09e033003" y="250.118182"/>
      </g>
     </g>
     <g id="text_5">
      <!-- 1400 -->
      <g transform="translate(222.640618 264.716619)scale(0.1 -0.1)">
       <defs>
        <path d="M 37.796875 64.3125 
L 12.890625 25.390625 
L 37.796875 25.390625 
z
M 35.203125 72.90625 
L 47.609375 72.90625 
L 47.609375 25.390625 
L 58.015625 25.390625 
L 58.015625 17.1875 
L 47.609375 17.1875 
L 47.609375 0 
L 37.796875 0 
L 37.796875 17.1875 
L 4.890625 17.1875 
L 4.890625 26.703125 
z
" id="DejaVuSans-52"/>
       </defs>
       <use xlink:href="#DejaVuSans-49"/>
       <use x="63.623047" xlink:href="#DejaVuSans-52"/>
       <use x="127.246094" xlink:href="#DejaVuSans-48"/>
       <use x="190.869141" xlink:href="#DejaVuSans-48"/>
      </g>
     </g>
    </g>
    <g id="text_6">
     <!-- R_0 -->
     <g transform="translate(153.458168 278.218182)scale(0.1 -0.1)">
      <defs>
       <path d="M 44.390625 34.1875 
Q 47.5625 33.109375 50.5625 29.59375 
Q 53.5625 26.078125 56.59375 19.921875 
L 66.609375 0 
L 56 0 
L 46.6875 18.703125 
Q 43.0625 26.03125 39.671875 28.421875 
Q 36.28125 30.8125 30.421875 30.8125 
L 19.671875 30.8125 
L 19.671875 0 
L 9.8125 0 
L 9.8125 72.90625 
L 32.078125 72.90625 
Q 44.578125 72.90625 50.734375 67.671875 
Q 56.890625 62.453125 56.890625 51.90625 
Q 56.890625 45.015625 53.6875 40.46875 
Q 50.484375 35.9375 44.390625 34.1875 
z
M 19.671875 64.796875 
L 19.671875 38.921875 
L 32.078125 38.921875 
Q 39.203125 38.921875 42.84375 42.21875 
Q 46.484375 45.515625 46.484375 51.90625 
Q 46.484375 58.296875 42.84375 61.546875 
Q 39.203125 64.796875 32.078125 64.796875 
z
" id="DejaVuSans-82"/>
       <path d="M 50.984375 -16.609375 
L 50.984375 -23.578125 
L -0.984375 -23.578125 
L -0.984375 -16.609375 
z
" id="DejaVuSans-95"/>
      </defs>
      <use xlink:href="#DejaVuSans-82"/>
      <use x="69.482422" xlink:href="#DejaVuSans-95"/>
      <use x="119.482422" xlink:href="#DejaVuSans-48"/>
     </g>
    </g>
   </g>
   <g id="matplotlib.axis_2">
    <g id="ytick_1">
     <g id="line2d_6">
      <defs>
       <path d="M 0 0 
L -3.5 0 
" id="me92386b5db" style="stroke:#000000;stroke-width:0.8;"/>
      </defs>
      <g>
       <use style="stroke:#000000;stroke-width:0.8;" x="67.5" xlink:href="#me92386b5db" y="221.65396"/>
      </g>
     </g>
     <g id="text_7">
      <!-- −132 -->
      <g transform="translate(33.032812 225.453179)scale(0.1 -0.1)">
       <defs>
        <path d="M 10.59375 35.5 
L 73.1875 35.5 
L 73.1875 27.203125 
L 10.59375 27.203125 
z
" id="DejaVuSans-8722"/>
        <path d="M 40.578125 39.3125 
Q 47.65625 37.796875 51.625 33 
Q 55.609375 28.21875 55.609375 21.1875 
Q 55.609375 10.40625 48.1875 4.484375 
Q 40.765625 -1.421875 27.09375 -1.421875 
Q 22.515625 -1.421875 17.65625 -0.515625 
Q 12.796875 0.390625 7.625 2.203125 
L 7.625 11.71875 
Q 11.71875 9.328125 16.59375 8.109375 
Q 21.484375 6.890625 26.8125 6.890625 
Q 36.078125 6.890625 40.9375 10.546875 
Q 45.796875 14.203125 45.796875 21.1875 
Q 45.796875 27.640625 41.28125 31.265625 
Q 36.765625 34.90625 28.71875 34.90625 
L 20.21875 34.90625 
L 20.21875 43.015625 
L 29.109375 43.015625 
Q 36.375 43.015625 40.234375 45.921875 
Q 44.09375 48.828125 44.09375 54.296875 
Q 44.09375 59.90625 40.109375 62.90625 
Q 36.140625 65.921875 28.71875 65.921875 
Q 24.65625 65.921875 20.015625 65.03125 
Q 15.375 64.15625 9.8125 62.3125 
L 9.8125 71.09375 
Q 15.4375 72.65625 20.34375 73.4375 
Q 25.25 74.21875 29.59375 74.21875 
Q 40.828125 74.21875 47.359375 69.109375 
Q 53.90625 64.015625 53.90625 55.328125 
Q 53.90625 49.265625 50.4375 45.09375 
Q 46.96875 40.921875 40.578125 39.3125 
z
" id="DejaVuSans-51"/>
       </defs>
       <use xlink:href="#DejaVuSans-8722"/>
       <use x="83.789062" xlink:href="#DejaVuSans-49"/>
       <use x="147.412109" xlink:href="#DejaVuSans-51"/>
       <use x="211.035156" xlink:href="#DejaVuSans-50"/>
      </g>
     </g>
    </g>
    <g id="ytick_2">
     <g id="line2d_7">
      <g>
       <use style="stroke:#000000;stroke-width:0.8;" x="67.5" xlink:href="#me92386b5db" y="183.046006"/>
      </g>
     </g>
     <g id="text_8">
      <!-- −130 -->
      <g transform="translate(33.032812 186.845224)scale(0.1 -0.1)">
       <use xlink:href="#DejaVuSans-8722"/>
       <use x="83.789062" xlink:href="#DejaVuSans-49"/>
       <use x="147.412109" xlink:href="#DejaVuSans-51"/>
       <use x="211.035156" xlink:href="#DejaVuSans-48"/>
      </g>
     </g>
    </g>
    <g id="ytick_3">
     <g id="line2d_8">
      <g>
       <use style="stroke:#000000;stroke-width:0.8;" x="67.5" xlink:href="#me92386b5db" y="144.438051"/>
      </g>
     </g>
     <g id="text_9">
      <!-- −128 -->
      <g transform="translate(33.032812 148.23727)scale(0.1 -0.1)">
       <use xlink:href="#DejaVuSans-8722"/>
       <use x="83.789062" xlink:href="#DejaVuSans-49"/>
       <use x="147.412109" xlink:href="#DejaVuSans-50"/>
       <use x="211.035156" xlink:href="#DejaVuSans-56"/>
      </g>
     </g>
    </g>
    <g id="ytick_4">
     <g id="line2d_9">
      <g>
       <use style="stroke:#000000;stroke-width:0.8;" x="67.5" xlink:href="#me92386b5db" y="105.830096"/>
      </g>
     </g>
     <g id="text_10">
      <!-- −126 -->
      <g transform="translate(33.032812 109.629315)scale(0.1 -0.1)">
       <use xlink:href="#DejaVuSans-8722"/>
       <use x="83.789062" xlink:href="#DejaVuSans-49"/>
       <use x="147.412109" xlink:href="#DejaVuSans-50"/>
       <use x="211.035156" xlink:href="#DejaVuSans-54"/>
      </g>
     </g>
    </g>
    <g id="ytick_5">
     <g id="line2d_10">
      <g>
       <use style="stroke:#000000;stroke-width:0.8;" x="67.5" xlink:href="#me92386b5db" y="67.222142"/>
      </g>
     </g>
     <g id="text_11">
      <!-- −124 -->
      <g transform="translate(33.032812 71.021361)scale(0.1 -0.1)">
       <use xlink:href="#DejaVuSans-8722"/>
       <use x="83.789062" xlink:href="#DejaVuSans-49"/>
       <use x="147.412109" xlink:href="#DejaVuSans-50"/>
       <use x="211.035156" xlink:href="#DejaVuSans-52"/>
      </g>
     </g>
    </g>
   </g>
   <g id="line2d_11">
    <path clip-path="url(#p0b5a0fd61f)" d="M 90.353635 541 
L 95.36157 515.389222 
L 99.728588 491.841866 
L 104.095605 467.11224 
L 108.462622 441.116635 
L 113.703043 407.977632 
L 118.07006 378.761791 
L 122.437077 348.119748 
L 128.550902 303.214999 
L 135.538129 249.389532 
L 138.15834 229.295038 
L 139.031743 224.604783 
L 140.77855 209.025052 
L 141.651953 202.072598 
L 142.525357 199.209135 
L 144.272164 183.548287 
L 146.018971 170.24203 
L 146.892374 167.086341 
L 148.639181 152.844578 
L 150.385988 141.170544 
L 151.259391 140.602995 
L 153.006198 128.679816 
L 154.753005 119.394946 
L 155.626409 115.68717 
L 156.499812 116.389294 
L 157.373216 112.409762 
L 158.246619 109.101258 
L 159.120023 106.441427 
L 159.993426 104.408549 
L 160.866829 102.981524 
L 161.740233 102.139857 
L 162.613636 101.863636 
L 162.613636 101.863636 
L 163.48704 102.13352 
L 164.360443 102.930722 
L 165.233847 104.068591 
L 166.10725 105.806499 
L 166.980654 107.218715 
L 168.727461 111.621138 
L 169.600864 114.482776 
L 171.347671 121.38293 
L 173.094478 129.498781 
L 174.841285 138.452329 
L 175.714688 141.06991 
L 177.461495 150.22023 
L 180.081705 165.097549 
L 180.955109 168.660331 
L 183.575319 182.532079 
L 185.322126 191.676567 
L 186.19553 195.292465 
L 187.942337 203.154937 
L 192.309354 223.600593 
L 194.929564 237.908591 
L 196.676371 248.227025 
L 197.549775 235.028057 
L 198.423178 215.758273 
L 199.296582 216.675997 
L 200.169985 217.823634 
L 201.043388 219.191502 
L 202.790195 222.550956 
L 204.537002 226.683728 
L 205.410406 222.586028 
L 208.90402 226.784141 
L 209.777423 227.812176 
L 210.650826 221.475094 
L 212.397633 222.989357 
L 213.271037 223.852122 
L 215.017844 226.067016 
L 215.891247 227.382799 
L 216.764651 226.577597 
L 217.638054 226.959435 
L 218.511458 227.620625 
L 219.384861 226.998219 
L 226.372089 231.363123 
L 227.245492 231.773325 
L 229.865702 233.788444 
L 230.739106 234.547464 
L 231.612509 234.936078 
L 232.485913 234.673533 
L 236.85293 237.418991 
L 237.726334 238.113639 
L 238.599737 238.274121 
L 240.346544 239.333115 
L 243.840158 241.622842 
L 245.586965 243.139089 
L 246.460368 242.476733 
L 249.080579 243.910652 
L 249.080579 243.910652 
" style="fill:none;stroke:#1f77b4;stroke-linecap:square;stroke-width:1.5;"/>
   </g>
   <g id="line2d_12">
    <path clip-path="url(#p0b5a0fd61f)" d="M 67.5 138.927273 
L 257.727273 138.927273 
" style="fill:none;stroke:#ff0000;stroke-linecap:square;stroke-width:1.5;"/>
   </g>
   <g id="patch_3">
    <path d="M 67.5 250.118182 
L 67.5 64.8 
" style="fill:none;stroke:#000000;stroke-linecap:square;stroke-linejoin:miter;stroke-width:0.8;"/>
   </g>
   <g id="patch_4">
    <path d="M 257.727273 250.118182 
L 257.727273 64.8 
" style="fill:none;stroke:#000000;stroke-linecap:square;stroke-linejoin:miter;stroke-width:0.8;"/>
   </g>
   <g id="patch_5">
    <path d="M 67.5 250.118182 
L 257.727273 250.118182 
" style="fill:none;stroke:#000000;stroke-linecap:square;stroke-linejoin:miter;stroke-width:0.8;"/>
   </g>
   <g id="patch_6">
    <path d="M 67.5 64.8 
L 257.727273 64.8 
" style="fill:none;stroke:#000000;stroke-linecap:square;stroke-linejoin:miter;stroke-width:0.8;"/>
   </g>
  </g>
  <g id="axes_2">
   <g id="patch_7">
    <path d="M 295.772727 250.118182 
L 486 250.118182 
L 486 64.8 
L 295.772727 64.8 
z
" style="fill:#ffffff;"/>
   </g>
   <g id="matplotlib.axis_3">
    <g id="xtick_6">
     <g id="line2d_13">
      <g>
       <use style="stroke:#000000;stroke-width:0.8;" x="299.894853" xlink:href="#me09e033003" y="250.118182"/>
      </g>
     </g>
     <g id="text_12">
      <!-- 40 -->
      <g transform="translate(293.532353 264.716619)scale(0.1 -0.1)">
       <use xlink:href="#DejaVuSans-52"/>
       <use x="63.623047" xlink:href="#DejaVuSans-48"/>
      </g>
     </g>
    </g>
    <g id="xtick_7">
     <g id="line2d_14">
      <g>
       <use style="stroke:#000000;stroke-width:0.8;" x="340.866041" xlink:href="#me09e033003" y="250.118182"/>
      </g>
     </g>
     <g id="text_13">
      <!-- 60 -->
      <g transform="translate(334.503541 264.716619)scale(0.1 -0.1)">
       <use xlink:href="#DejaVuSans-54"/>
       <use x="63.623047" xlink:href="#DejaVuSans-48"/>
      </g>
     </g>
    </g>
    <g id="xtick_8">
     <g id="line2d_15">
      <g>
       <use style="stroke:#000000;stroke-width:0.8;" x="381.837228" xlink:href="#me09e033003" y="250.118182"/>
      </g>
     </g>
     <g id="text_14">
      <!-- 80 -->
      <g transform="translate(375.474728 264.716619)scale(0.1 -0.1)">
       <use xlink:href="#DejaVuSans-56"/>
       <use x="63.623047" xlink:href="#DejaVuSans-48"/>
      </g>
     </g>
    </g>
    <g id="xtick_9">
     <g id="line2d_16">
      <g>
       <use style="stroke:#000000;stroke-width:0.8;" x="422.808415" xlink:href="#me09e033003" y="250.118182"/>
      </g>
     </g>
     <g id="text_15">
      <!-- 100 -->
      <g transform="translate(413.264665 264.716619)scale(0.1 -0.1)">
       <use xlink:href="#DejaVuSans-49"/>
       <use x="63.623047" xlink:href="#DejaVuSans-48"/>
       <use x="127.246094" xlink:href="#DejaVuSans-48"/>
      </g>
     </g>
    </g>
    <g id="xtick_10">
     <g id="line2d_17">
      <g>
       <use style="stroke:#000000;stroke-width:0.8;" x="463.779602" xlink:href="#me09e033003" y="250.118182"/>
      </g>
     </g>
     <g id="text_16">
      <!-- 120 -->
      <g transform="translate(454.235852 264.716619)scale(0.1 -0.1)">
       <use xlink:href="#DejaVuSans-49"/>
       <use x="63.623047" xlink:href="#DejaVuSans-50"/>
       <use x="127.246094" xlink:href="#DejaVuSans-48"/>
      </g>
     </g>
    </g>
    <g id="text_17">
     <!-- MTT -->
     <g transform="translate(380.551989 278.394744)scale(0.1 -0.1)">
      <defs>
       <path d="M 9.8125 72.90625 
L 24.515625 72.90625 
L 43.109375 23.296875 
L 61.8125 72.90625 
L 76.515625 72.90625 
L 76.515625 0 
L 66.890625 0 
L 66.890625 64.015625 
L 48.09375 14.015625 
L 38.1875 14.015625 
L 19.390625 64.015625 
L 19.390625 0 
L 9.8125 0 
z
" id="DejaVuSans-77"/>
       <path d="M -0.296875 72.90625 
L 61.375 72.90625 
L 61.375 64.59375 
L 35.5 64.59375 
L 35.5 0 
L 25.59375 0 
L 25.59375 64.59375 
L -0.296875 64.59375 
z
" id="DejaVuSans-84"/>
      </defs>
      <use xlink:href="#DejaVuSans-77"/>
      <use x="86.279297" xlink:href="#DejaVuSans-84"/>
      <use x="145.613281" xlink:href="#DejaVuSans-84"/>
     </g>
    </g>
   </g>
   <g id="matplotlib.axis_4"/>
   <g id="line2d_18">
    <path clip-path="url(#p54b8790519)" d="M 304.419421 196.240778 
L 305.292825 196.275113 
L 307.039632 194.638021 
L 307.913035 194.143735 
L 308.786439 195.40656 
L 309.659842 194.196452 
L 310.533246 193.298817 
L 312.280053 191.191471 
L 314.02686 189.664039 
L 314.900263 196.742212 
L 316.64707 192.35417 
L 318.393877 188.722135 
L 320.140684 185.805326 
L 321.887491 183.569797 
L 322.760894 182.708971 
L 323.634298 182.032369 
L 324.507701 181.854582 
L 325.381104 182.790268 
L 326.254508 182.675475 
L 327.127911 181.6211 
L 328.001315 180.747557 
L 328.874718 180.402462 
L 330.621525 178.37634 
L 331.494929 180.218555 
L 332.368332 178.800505 
L 334.988542 175.503295 
L 335.861946 174.619796 
L 336.735349 173.482305 
L 337.608753 172.814613 
L 339.35556 170.0445 
L 340.228963 168.915276 
L 341.102367 167.396379 
L 344.59598 162.095443 
L 348.089594 156.166 
L 348.962998 155.26326 
L 350.709805 151.734355 
L 355.076822 144.254514 
L 357.697032 139.455707 
L 358.570436 138.071446 
L 359.443839 136.406472 
L 360.317243 135.795358 
L 361.190646 133.698579 
L 362.06405 131.924178 
L 366.431067 124.690124 
L 367.30447 123.678939 
L 369.051277 120.600985 
L 371.671488 116.724993 
L 372.544891 115.511563 
L 373.418295 114.560654 
L 374.291698 113.254564 
L 376.911908 110.076858 
L 381.278926 105.85777 
L 385.645943 103.092205 
L 386.519346 102.711029 
L 389.139557 101.99789 
L 391.759767 101.90626 
L 393.506574 102.210227 
L 394.379977 102.464407 
L 397.000188 103.763293 
L 397.873591 104.61279 
L 398.746995 104.928007 
L 399.620398 105.860719 
L 400.493802 106.403397 
L 401.367205 107.499447 
L 402.240609 109.046 
L 403.114012 109.332266 
L 403.987415 110.585069 
L 404.860819 112.282633 
L 405.734222 114.402731 
L 406.607626 114.066441 
L 407.481029 115.664086 
L 408.354433 117.692189 
L 409.227836 120.12585 
L 410.974643 126.110179 
L 411.848047 123.380304 
L 412.72145 125.593578 
L 413.594853 128.203363 
L 415.34166 134.494426 
L 417.088467 142.017018 
L 417.961871 136.65548 
L 418.835274 138.759693 
L 419.708678 141.268184 
L 421.455485 147.335266 
L 422.328888 150.81675 
L 423.202292 149.2025 
L 424.075695 151.590085 
L 424.949098 153.641702 
L 425.822502 156.037969 
L 426.695905 158.02379 
L 427.569309 160.375674 
L 428.442712 162.358447 
L 430.189519 167.074434 
L 431.062923 168.872336 
L 431.936326 171.244264 
L 432.80973 173.260264 
L 436.303343 182.816044 
L 437.176747 183.719643 
L 438.05015 185.922124 
L 438.923554 187.210287 
L 442.417168 194.580401 
L 443.290571 195.973012 
L 444.163974 198.009929 
L 445.910781 200.968196 
L 446.784185 202.809289 
L 447.657588 188.690746 
L 448.530992 187.7488 
L 450.277799 188.862777 
L 451.151202 189.447859 
L 452.898009 190.290121 
L 455.518219 191.580588 
L 457.265026 192.257777 
L 459.011833 193.000491 
L 460.75864 193.487976 
L 462.505447 194.123723 
L 463.37885 194.175995 
L 464.252254 195.381892 
L 465.125657 194.745601 
L 465.999061 195.846867 
L 466.872464 198.649305 
L 467.745868 202.661115 
L 469.492675 212.824389 
L 471.239482 224.123372 
L 472.112885 196.158408 
L 472.986289 196.402054 
L 473.859692 197.822852 
L 474.733095 201.547384 
L 475.606499 206.764781 
L 476.479902 196.713955 
L 477.353306 198.548335 
L 477.353306 198.548335 
" style="fill:none;stroke:#1f77b4;stroke-linecap:square;stroke-width:1.5;"/>
   </g>
   <g id="line2d_19">
    <path clip-path="url(#p54b8790519)" d="M 295.772727 138.927273 
L 486 138.927273 
" style="fill:none;stroke:#ff0000;stroke-linecap:square;stroke-width:1.5;"/>
   </g>
   <g id="patch_8">
    <path d="M 295.772727 250.118182 
L 295.772727 64.8 
" style="fill:none;stroke:#000000;stroke-linecap:square;stroke-linejoin:miter;stroke-width:0.8;"/>
   </g>
   <g id="patch_9">
    <path d="M 486 250.118182 
L 486 64.8 
" style="fill:none;stroke:#000000;stroke-linecap:square;stroke-linejoin:miter;stroke-width:0.8;"/>
   </g>
   <g id="patch_10">
    <path d="M 295.772727 250.118182 
L 486 250.118182 
" style="fill:none;stroke:#000000;stroke-linecap:square;stroke-linejoin:miter;stroke-width:0.8;"/>
   </g>
   <g id="patch_11">
    <path d="M 295.772727 64.8 
L 486 64.8 
" style="fill:none;stroke:#000000;stroke-linecap:square;stroke-linejoin:miter;stroke-width:0.8;"/>
   </g>
  </g>
  <g id="axes_3">
   <g id="patch_12">
    <path d="M 67.5 472.5 
L 257.727273 472.5 
L 257.727273 287.181818 
L 67.5 287.181818 
z
" style="fill:#ffffff;"/>
   </g>
   <g id="matplotlib.axis_5">
    <g id="xtick_11">
     <g id="line2d_20">
      <g>
       <use style="stroke:#000000;stroke-width:0.8;" x="73.642546" xlink:href="#me09e033003" y="472.5"/>
      </g>
     </g>
     <g id="text_18">
      <!-- 0.2 -->
      <g transform="translate(65.690984 487.098437)scale(0.1 -0.1)">
       <defs>
        <path d="M 10.6875 12.40625 
L 21 12.40625 
L 21 0 
L 10.6875 0 
z
" id="DejaVuSans-46"/>
       </defs>
       <use xlink:href="#DejaVuSans-48"/>
       <use x="63.623047" xlink:href="#DejaVuSans-46"/>
       <use x="95.410156" xlink:href="#DejaVuSans-50"/>
      </g>
     </g>
    </g>
    <g id="xtick_12">
     <g id="line2d_21">
      <g>
       <use style="stroke:#000000;stroke-width:0.8;" x="115.623943" xlink:href="#me09e033003" y="472.5"/>
      </g>
     </g>
     <g id="text_19">
      <!-- 0.3 -->
      <g transform="translate(107.672381 487.098437)scale(0.1 -0.1)">
       <use xlink:href="#DejaVuSans-48"/>
       <use x="63.623047" xlink:href="#DejaVuSans-46"/>
       <use x="95.410156" xlink:href="#DejaVuSans-51"/>
      </g>
     </g>
    </g>
    <g id="xtick_13">
     <g id="line2d_22">
      <g>
       <use style="stroke:#000000;stroke-width:0.8;" x="157.60534" xlink:href="#me09e033003" y="472.5"/>
      </g>
     </g>
     <g id="text_20">
      <!-- 0.4 -->
      <g transform="translate(149.653778 487.098437)scale(0.1 -0.1)">
       <use xlink:href="#DejaVuSans-48"/>
       <use x="63.623047" xlink:href="#DejaVuSans-46"/>
       <use x="95.410156" xlink:href="#DejaVuSans-52"/>
      </g>
     </g>
    </g>
    <g id="xtick_14">
     <g id="line2d_23">
      <g>
       <use style="stroke:#000000;stroke-width:0.8;" x="199.586737" xlink:href="#me09e033003" y="472.5"/>
      </g>
     </g>
     <g id="text_21">
      <!-- 0.5 -->
      <g transform="translate(191.635175 487.098437)scale(0.1 -0.1)">
       <defs>
        <path d="M 10.796875 72.90625 
L 49.515625 72.90625 
L 49.515625 64.59375 
L 19.828125 64.59375 
L 19.828125 46.734375 
Q 21.96875 47.46875 24.109375 47.828125 
Q 26.265625 48.1875 28.421875 48.1875 
Q 40.625 48.1875 47.75 41.5 
Q 54.890625 34.8125 54.890625 23.390625 
Q 54.890625 11.625 47.5625 5.09375 
Q 40.234375 -1.421875 26.90625 -1.421875 
Q 22.3125 -1.421875 17.546875 -0.640625 
Q 12.796875 0.140625 7.71875 1.703125 
L 7.71875 11.625 
Q 12.109375 9.234375 16.796875 8.0625 
Q 21.484375 6.890625 26.703125 6.890625 
Q 35.15625 6.890625 40.078125 11.328125 
Q 45.015625 15.765625 45.015625 23.390625 
Q 45.015625 31 40.078125 35.4375 
Q 35.15625 39.890625 26.703125 39.890625 
Q 22.75 39.890625 18.8125 39.015625 
Q 14.890625 38.140625 10.796875 36.28125 
z
" id="DejaVuSans-53"/>
       </defs>
       <use xlink:href="#DejaVuSans-48"/>
       <use x="63.623047" xlink:href="#DejaVuSans-46"/>
       <use x="95.410156" xlink:href="#DejaVuSans-53"/>
      </g>
     </g>
    </g>
    <g id="xtick_15">
     <g id="line2d_24">
      <g>
       <use style="stroke:#000000;stroke-width:0.8;" x="241.568134" xlink:href="#me09e033003" y="472.5"/>
      </g>
     </g>
     <g id="text_22">
      <!-- 0.6 -->
      <g transform="translate(233.616572 487.098437)scale(0.1 -0.1)">
       <use xlink:href="#DejaVuSans-48"/>
       <use x="63.623047" xlink:href="#DejaVuSans-46"/>
       <use x="95.410156" xlink:href="#DejaVuSans-54"/>
      </g>
     </g>
    </g>
    <g id="text_23">
     <!-- gamma -->
     <g transform="translate(143.570668 500.776562)scale(0.1 -0.1)">
      <defs>
       <path d="M 45.40625 27.984375 
Q 45.40625 37.75 41.375 43.109375 
Q 37.359375 48.484375 30.078125 48.484375 
Q 22.859375 48.484375 18.828125 43.109375 
Q 14.796875 37.75 14.796875 27.984375 
Q 14.796875 18.265625 18.828125 12.890625 
Q 22.859375 7.515625 30.078125 7.515625 
Q 37.359375 7.515625 41.375 12.890625 
Q 45.40625 18.265625 45.40625 27.984375 
z
M 54.390625 6.78125 
Q 54.390625 -7.171875 48.1875 -13.984375 
Q 42 -20.796875 29.203125 -20.796875 
Q 24.46875 -20.796875 20.265625 -20.09375 
Q 16.0625 -19.390625 12.109375 -17.921875 
L 12.109375 -9.1875 
Q 16.0625 -11.328125 19.921875 -12.34375 
Q 23.78125 -13.375 27.78125 -13.375 
Q 36.625 -13.375 41.015625 -8.765625 
Q 45.40625 -4.15625 45.40625 5.171875 
L 45.40625 9.625 
Q 42.625 4.78125 38.28125 2.390625 
Q 33.9375 0 27.875 0 
Q 17.828125 0 11.671875 7.65625 
Q 5.515625 15.328125 5.515625 27.984375 
Q 5.515625 40.671875 11.671875 48.328125 
Q 17.828125 56 27.875 56 
Q 33.9375 56 38.28125 53.609375 
Q 42.625 51.21875 45.40625 46.390625 
L 45.40625 54.6875 
L 54.390625 54.6875 
z
" id="DejaVuSans-103"/>
       <path d="M 34.28125 27.484375 
Q 23.390625 27.484375 19.1875 25 
Q 14.984375 22.515625 14.984375 16.5 
Q 14.984375 11.71875 18.140625 8.90625 
Q 21.296875 6.109375 26.703125 6.109375 
Q 34.1875 6.109375 38.703125 11.40625 
Q 43.21875 16.703125 43.21875 25.484375 
L 43.21875 27.484375 
z
M 52.203125 31.203125 
L 52.203125 0 
L 43.21875 0 
L 43.21875 8.296875 
Q 40.140625 3.328125 35.546875 0.953125 
Q 30.953125 -1.421875 24.3125 -1.421875 
Q 15.921875 -1.421875 10.953125 3.296875 
Q 6 8.015625 6 15.921875 
Q 6 25.140625 12.171875 29.828125 
Q 18.359375 34.515625 30.609375 34.515625 
L 43.21875 34.515625 
L 43.21875 35.40625 
Q 43.21875 41.609375 39.140625 45 
Q 35.0625 48.390625 27.6875 48.390625 
Q 23 48.390625 18.546875 47.265625 
Q 14.109375 46.140625 10.015625 43.890625 
L 10.015625 52.203125 
Q 14.9375 54.109375 19.578125 55.046875 
Q 24.21875 56 28.609375 56 
Q 40.484375 56 46.34375 49.84375 
Q 52.203125 43.703125 52.203125 31.203125 
z
" id="DejaVuSans-97"/>
       <path d="M 52 44.1875 
Q 55.375 50.25 60.0625 53.125 
Q 64.75 56 71.09375 56 
Q 79.640625 56 84.28125 50.015625 
Q 88.921875 44.046875 88.921875 33.015625 
L 88.921875 0 
L 79.890625 0 
L 79.890625 32.71875 
Q 79.890625 40.578125 77.09375 44.375 
Q 74.3125 48.1875 68.609375 48.1875 
Q 61.625 48.1875 57.5625 43.546875 
Q 53.515625 38.921875 53.515625 30.90625 
L 53.515625 0 
L 44.484375 0 
L 44.484375 32.71875 
Q 44.484375 40.625 41.703125 44.40625 
Q 38.921875 48.1875 33.109375 48.1875 
Q 26.21875 48.1875 22.15625 43.53125 
Q 18.109375 38.875 18.109375 30.90625 
L 18.109375 0 
L 9.078125 0 
L 9.078125 54.6875 
L 18.109375 54.6875 
L 18.109375 46.1875 
Q 21.1875 51.21875 25.484375 53.609375 
Q 29.78125 56 35.6875 56 
Q 41.65625 56 45.828125 52.96875 
Q 50 49.953125 52 44.1875 
z
" id="DejaVuSans-109"/>
      </defs>
      <use xlink:href="#DejaVuSans-103"/>
      <use x="63.476562" xlink:href="#DejaVuSans-97"/>
      <use x="124.755859" xlink:href="#DejaVuSans-109"/>
      <use x="222.167969" xlink:href="#DejaVuSans-109"/>
      <use x="319.580078" xlink:href="#DejaVuSans-97"/>
     </g>
    </g>
   </g>
   <g id="matplotlib.axis_6">
    <g id="ytick_6">
     <g id="line2d_25">
      <g>
       <use style="stroke:#000000;stroke-width:0.8;" x="67.5" xlink:href="#me92386b5db" y="444.035778"/>
      </g>
     </g>
     <g id="text_24">
      <!-- −132 -->
      <g transform="translate(33.032812 447.834997)scale(0.1 -0.1)">
       <use xlink:href="#DejaVuSans-8722"/>
       <use x="83.789062" xlink:href="#DejaVuSans-49"/>
       <use x="147.412109" xlink:href="#DejaVuSans-51"/>
       <use x="211.035156" xlink:href="#DejaVuSans-50"/>
      </g>
     </g>
    </g>
    <g id="ytick_7">
     <g id="line2d_26">
      <g>
       <use style="stroke:#000000;stroke-width:0.8;" x="67.5" xlink:href="#me92386b5db" y="405.427824"/>
      </g>
     </g>
     <g id="text_25">
      <!-- −130 -->
      <g transform="translate(33.032812 409.227043)scale(0.1 -0.1)">
       <use xlink:href="#DejaVuSans-8722"/>
       <use x="83.789062" xlink:href="#DejaVuSans-49"/>
       <use x="147.412109" xlink:href="#DejaVuSans-51"/>
       <use x="211.035156" xlink:href="#DejaVuSans-48"/>
      </g>
     </g>
    </g>
    <g id="ytick_8">
     <g id="line2d_27">
      <g>
       <use style="stroke:#000000;stroke-width:0.8;" x="67.5" xlink:href="#me92386b5db" y="366.819869"/>
      </g>
     </g>
     <g id="text_26">
      <!-- −128 -->
      <g transform="translate(33.032812 370.619088)scale(0.1 -0.1)">
       <use xlink:href="#DejaVuSans-8722"/>
       <use x="83.789062" xlink:href="#DejaVuSans-49"/>
       <use x="147.412109" xlink:href="#DejaVuSans-50"/>
       <use x="211.035156" xlink:href="#DejaVuSans-56"/>
      </g>
     </g>
    </g>
    <g id="ytick_9">
     <g id="line2d_28">
      <g>
       <use style="stroke:#000000;stroke-width:0.8;" x="67.5" xlink:href="#me92386b5db" y="328.211915"/>
      </g>
     </g>
     <g id="text_27">
      <!-- −126 -->
      <g transform="translate(33.032812 332.011133)scale(0.1 -0.1)">
       <use xlink:href="#DejaVuSans-8722"/>
       <use x="83.789062" xlink:href="#DejaVuSans-49"/>
       <use x="147.412109" xlink:href="#DejaVuSans-50"/>
       <use x="211.035156" xlink:href="#DejaVuSans-54"/>
      </g>
     </g>
    </g>
    <g id="ytick_10">
     <g id="line2d_29">
      <g>
       <use style="stroke:#000000;stroke-width:0.8;" x="67.5" xlink:href="#me92386b5db" y="289.60396"/>
      </g>
     </g>
     <g id="text_28">
      <!-- −124 -->
      <g transform="translate(33.032812 293.403179)scale(0.1 -0.1)">
       <use xlink:href="#DejaVuSans-8722"/>
       <use x="83.789062" xlink:href="#DejaVuSans-49"/>
       <use x="147.412109" xlink:href="#DejaVuSans-50"/>
       <use x="211.035156" xlink:href="#DejaVuSans-52"/>
      </g>
     </g>
    </g>
   </g>
   <g id="line2d_30">
    <path clip-path="url(#pdaecdb20ba)" d="M 76.146694 384.90336 
L 77.020098 383.779724 
L 77.893501 382.979433 
L 79.640308 380.678361 
L 80.513711 379.744641 
L 83.133922 376.53266 
L 91.867956 366.793373 
L 92.74136 368.696058 
L 93.614763 367.472419 
L 95.36157 364.247265 
L 97.108377 361.424831 
L 98.855184 359.124421 
L 100.601991 357.160271 
L 101.475394 356.558694 
L 102.348798 355.475989 
L 103.222201 354.75573 
L 104.969008 352.76892 
L 105.842412 352.36052 
L 107.589219 350.355825 
L 108.462622 349.503064 
L 109.336026 349.131304 
L 111.082832 347.148513 
L 112.829639 345.601433 
L 113.703043 345.008517 
L 115.44985 343.373331 
L 116.323253 343.223391 
L 118.07006 341.483818 
L 120.69027 339.322704 
L 121.563674 338.905233 
L 124.183884 336.932918 
L 125.057288 336.328692 
L 125.930691 335.92722 
L 127.677498 334.659743 
L 128.550902 334.259822 
L 130.297708 333.096089 
L 134.664726 330.793011 
L 135.538129 331.153523 
L 137.284936 329.82256 
L 139.031743 328.847302 
L 139.905147 351.05221 
L 142.525357 345.160577 
L 145.145567 340.016912 
L 146.892374 337.00148 
L 148.639181 334.312487 
L 150.385988 331.946332 
L 152.132795 329.899995 
L 153.879602 328.171084 
L 155.626409 326.757819 
L 157.373216 325.659009 
L 159.120023 324.874014 
L 160.866829 324.402712 
L 162.613636 324.245455 
L 162.613636 324.245455 
L 164.360443 324.403027 
L 165.233847 324.586972 
L 166.10725 324.413795 
L 167.854057 324.469073 
L 174.841285 325.342412 
L 184.448723 327.563945 
L 189.689144 329.26096 
L 190.562547 329.670488 
L 191.43595 329.890184 
L 193.182757 330.569754 
L 194.929564 331.131929 
L 207.157213 336.495986 
L 213.271037 339.542841 
L 219.384861 342.763833 
L 229.865702 348.586807 
L 249.080579 359.299995 
L 249.080579 359.299995 
" style="fill:none;stroke:#1f77b4;stroke-linecap:square;stroke-width:1.5;"/>
   </g>
   <g id="line2d_31">
    <path clip-path="url(#pdaecdb20ba)" d="M 67.5 361.309091 
L 257.727273 361.309091 
" style="fill:none;stroke:#ff0000;stroke-linecap:square;stroke-width:1.5;"/>
   </g>
   <g id="patch_13">
    <path d="M 67.5 472.5 
L 67.5 287.181818 
" style="fill:none;stroke:#000000;stroke-linecap:square;stroke-linejoin:miter;stroke-width:0.8;"/>
   </g>
   <g id="patch_14">
    <path d="M 257.727273 472.5 
L 257.727273 287.181818 
" style="fill:none;stroke:#000000;stroke-linecap:square;stroke-linejoin:miter;stroke-width:0.8;"/>
   </g>
   <g id="patch_15">
    <path d="M 67.5 472.5 
L 257.727273 472.5 
" style="fill:none;stroke:#000000;stroke-linecap:square;stroke-linejoin:miter;stroke-width:0.8;"/>
   </g>
   <g id="patch_16">
    <path d="M 67.5 287.181818 
L 257.727273 287.181818 
" style="fill:none;stroke:#000000;stroke-linecap:square;stroke-linejoin:miter;stroke-width:0.8;"/>
   </g>
  </g>
  <g id="axes_4">
   <g id="patch_17">
    <path d="M 295.772727 472.5 
L 486 472.5 
L 486 287.181818 
L 295.772727 287.181818 
z
" style="fill:#ffffff;"/>
   </g>
   <g id="matplotlib.axis_7">
    <g id="xtick_16">
     <g id="line2d_32">
      <g>
       <use style="stroke:#000000;stroke-width:0.8;" x="322.370009" xlink:href="#me09e033003" y="472.5"/>
      </g>
     </g>
     <g id="text_29">
      <!-- 10 -->
      <g transform="translate(316.007509 487.098437)scale(0.1 -0.1)">
       <use xlink:href="#DejaVuSans-49"/>
       <use x="63.623047" xlink:href="#DejaVuSans-48"/>
      </g>
     </g>
    </g>
    <g id="xtick_17">
     <g id="line2d_33">
      <g>
       <use style="stroke:#000000;stroke-width:0.8;" x="374.578774" xlink:href="#me09e033003" y="472.5"/>
      </g>
     </g>
     <g id="text_30">
      <!-- 15 -->
      <g transform="translate(368.216274 487.098437)scale(0.1 -0.1)">
       <use xlink:href="#DejaVuSans-49"/>
       <use x="63.623047" xlink:href="#DejaVuSans-53"/>
      </g>
     </g>
    </g>
    <g id="xtick_18">
     <g id="line2d_34">
      <g>
       <use style="stroke:#000000;stroke-width:0.8;" x="426.787539" xlink:href="#me09e033003" y="472.5"/>
      </g>
     </g>
     <g id="text_31">
      <!-- 20 -->
      <g transform="translate(420.425039 487.098437)scale(0.1 -0.1)">
       <use xlink:href="#DejaVuSans-50"/>
       <use x="63.623047" xlink:href="#DejaVuSans-48"/>
      </g>
     </g>
    </g>
    <g id="xtick_19">
     <g id="line2d_35">
      <g>
       <use style="stroke:#000000;stroke-width:0.8;" x="478.996304" xlink:href="#me09e033003" y="472.5"/>
      </g>
     </g>
     <g id="text_32">
      <!-- 25 -->
      <g transform="translate(472.633804 487.098437)scale(0.1 -0.1)">
       <use xlink:href="#DejaVuSans-50"/>
       <use x="63.623047" xlink:href="#DejaVuSans-53"/>
      </g>
     </g>
    </g>
    <g id="text_33">
     <!-- s -->
     <g transform="translate(388.281676 500.776562)scale(0.1 -0.1)">
      <defs>
       <path d="M 44.28125 53.078125 
L 44.28125 44.578125 
Q 40.484375 46.53125 36.375 47.5 
Q 32.28125 48.484375 27.875 48.484375 
Q 21.1875 48.484375 17.84375 46.4375 
Q 14.5 44.390625 14.5 40.28125 
Q 14.5 37.15625 16.890625 35.375 
Q 19.28125 33.59375 26.515625 31.984375 
L 29.59375 31.296875 
Q 39.15625 29.25 43.1875 25.515625 
Q 47.21875 21.78125 47.21875 15.09375 
Q 47.21875 7.46875 41.1875 3.015625 
Q 35.15625 -1.421875 24.609375 -1.421875 
Q 20.21875 -1.421875 15.453125 -0.5625 
Q 10.6875 0.296875 5.421875 2 
L 5.421875 11.28125 
Q 10.40625 8.6875 15.234375 7.390625 
Q 20.0625 6.109375 24.8125 6.109375 
Q 31.15625 6.109375 34.5625 8.28125 
Q 37.984375 10.453125 37.984375 14.40625 
Q 37.984375 18.0625 35.515625 20.015625 
Q 33.0625 21.96875 24.703125 23.78125 
L 21.578125 24.515625 
Q 13.234375 26.265625 9.515625 29.90625 
Q 5.8125 33.546875 5.8125 39.890625 
Q 5.8125 47.609375 11.28125 51.796875 
Q 16.75 56 26.8125 56 
Q 31.78125 56 36.171875 55.265625 
Q 40.578125 54.546875 44.28125 53.078125 
z
" id="DejaVuSans-115"/>
      </defs>
      <use xlink:href="#DejaVuSans-115"/>
     </g>
    </g>
   </g>
   <g id="matplotlib.axis_8"/>
   <g id="line2d_36">
    <path clip-path="url(#p98aa714b1c)" d="M 304.419421 413.019145 
L 305.292825 418.916533 
L 309.659842 408.567261 
L 314.02686 398.821707 
L 318.393877 389.707616 
L 321.887491 382.876366 
L 325.381104 376.458514 
L 328.874718 370.458597 
L 332.368332 364.881543 
L 334.988542 360.979441 
L 335.861946 360.204002 
L 339.35556 355.093858 
L 342.849174 350.439015 
L 345.469384 347.312258 
L 346.342787 346.640381 
L 347.216191 347.057484 
L 348.089594 346.330062 
L 351.583208 342.530811 
L 354.203418 339.933301 
L 355.076822 339.433384 
L 357.697032 337.005397 
L 358.570436 336.264535 
L 359.443839 335.788814 
L 360.317243 335.599051 
L 361.190646 335.006551 
L 362.06405 334.586771 
L 365.557663 332.137683 
L 367.30447 331.822398 
L 371.671488 329.170404 
L 375.165101 327.433042 
L 377.785312 326.383812 
L 378.658715 326.080006 
L 379.532119 325.932773 
L 382.152329 325.215807 
L 389.139557 324.295587 
L 391.759767 324.258883 
L 394.379977 324.446005 
L 397.000188 324.800492 
L 398.746995 325.14898 
L 401.367205 325.804059 
L 402.240609 325.903657 
L 404.860819 326.839826 
L 407.481029 327.977406 
L 409.227836 328.833822 
L 410.10124 328.074041 
L 410.974643 328.096541 
L 411.848047 328.320837 
L 414.468257 329.458083 
L 417.088467 330.845499 
L 418.835274 331.741403 
L 419.708678 332.214109 
L 420.582081 332.10704 
L 422.328888 333.003384 
L 425.822502 335.26212 
L 426.695905 335.411415 
L 430.189519 337.551171 
L 431.062923 337.833876 
L 433.683133 339.53129 
L 437.176747 342.029742 
L 438.923554 343.374748 
L 439.796957 343.752836 
L 444.163974 347.008806 
L 452.898009 354.048611 
L 465.125657 364.790401 
L 470.366078 369.736926 
L 472.112885 371.370586 
L 473.859692 372.841857 
L 476.479902 375.294431 
L 477.353306 376.145803 
L 477.353306 376.145803 
" style="fill:none;stroke:#1f77b4;stroke-linecap:square;stroke-width:1.5;"/>
   </g>
   <g id="line2d_37">
    <path clip-path="url(#p98aa714b1c)" d="M 295.772727 361.309091 
L 486 361.309091 
" style="fill:none;stroke:#ff0000;stroke-linecap:square;stroke-width:1.5;"/>
   </g>
   <g id="patch_18">
    <path d="M 295.772727 472.5 
L 295.772727 287.181818 
" style="fill:none;stroke:#000000;stroke-linecap:square;stroke-linejoin:miter;stroke-width:0.8;"/>
   </g>
   <g id="patch_19">
    <path d="M 486 472.5 
L 486 287.181818 
" style="fill:none;stroke:#000000;stroke-linecap:square;stroke-linejoin:miter;stroke-width:0.8;"/>
   </g>
   <g id="patch_20">
    <path d="M 295.772727 472.5 
L 486 472.5 
" style="fill:none;stroke:#000000;stroke-linecap:square;stroke-linejoin:miter;stroke-width:0.8;"/>
   </g>
   <g id="patch_21">
    <path d="M 295.772727 287.181818 
L 486 287.181818 
" style="fill:none;stroke:#000000;stroke-linecap:square;stroke-linejoin:miter;stroke-width:0.8;"/>
   </g>
  </g>
 </g>
 <defs>
  <clipPath id="p0b5a0fd61f">
   <rect height="185.318182" width="190.227273" x="67.5" y="64.8"/>
  </clipPath>
  <clipPath id="p54b8790519">
   <rect height="185.318182" width="190.227273" x="295.772727" y="64.8"/>
  </clipPath>
  <clipPath id="pdaecdb20ba">
   <rect height="185.318182" width="190.227273" x="67.5" y="287.181818"/>
  </clipPath>
  <clipPath id="p98aa714b1c">
   <rect height="185.318182" width="190.227273" x="295.772727" y="287.181818"/>
  </clipPath>
 </defs>
</svg>
