<?xml version="1.0" encoding="utf-8" standalone="no"?>
<!DOCTYPE svg PUBLIC "-//W3C//DTD SVG 1.1//EN"
  "http://www.w3.org/Graphics/SVG/1.1/DTD/svg11.dtd">
<!-- Created with matplotlib (https://matplotlib.org/) -->
<svg height="540pt" version="1.1" viewBox="0 0 540 540" width="540pt" xmlns="http://www.w3.org/2000/svg" xmlns:xlink="http://www.w3.org/1999/xlink">
 <metadata>
  <rdf:RDF xmlns:cc="http://creativecommons.org/ns#" xmlns:dc="http://purl.org/dc/elements/1.1/" xmlns:rdf="http://www.w3.org/1999/02/22-rdf-syntax-ns#">
   <cc:Work>
    <dc:type rdf:resource="http://purl.org/dc/dcmitype/StillImage"/>
    <dc:date>2022-11-23T09:40:35.169971</dc:date>
    <dc:format>image/svg+xml</dc:format>
    <dc:creator>
     <cc:Agent>
      <dc:title>Matplotlib v3.3.4, https://matplotlib.org/</dc:title>
     </cc:Agent>
    </dc:creator>
   </cc:Work>
  </rdf:RDF>
 </metadata>
 <defs>
  <style type="text/css">*{stroke-linecap:butt;stroke-linejoin:round;}</style>
 </defs>
 <g id="figure_1">
  <g id="patch_1">
   <path d="M 0 540 
L 540 540 
L 540 0 
L 0 0 
z
" style="fill:none;"/>
  </g>
  <g id="axes_1">
   <g id="patch_2">
    <path d="M 67.5 250.118182 
L 257.727273 250.118182 
L 257.727273 64.8 
L 67.5 64.8 
z
" style="fill:#ffffff;"/>
   </g>
   <g id="matplotlib.axis_1">
    <g id="xtick_1">
     <g id="line2d_1">
      <defs>
       <path d="M 0 0 
L 0 3.5 
" id="m41050f4a8a" style="stroke:#000000;stroke-width:0.8;"/>
      </defs>
      <g>
       <use style="stroke:#000000;stroke-width:0.8;" x="94.532763" xlink:href="#m41050f4a8a" y="250.118182"/>
      </g>
     </g>
     <g id="text_1">
      <!-- 600 -->
      <g transform="translate(84.989013 264.716619)scale(0.1 -0.1)">
       <defs>
        <path d="M 33.015625 40.375 
Q 26.375 40.375 22.484375 35.828125 
Q 18.609375 31.296875 18.609375 23.390625 
Q 18.609375 15.53125 22.484375 10.953125 
Q 26.375 6.390625 33.015625 6.390625 
Q 39.65625 6.390625 43.53125 10.953125 
Q 47.40625 15.53125 47.40625 23.390625 
Q 47.40625 31.296875 43.53125 35.828125 
Q 39.65625 40.375 33.015625 40.375 
z
M 52.59375 71.296875 
L 52.59375 62.3125 
Q 48.875 64.0625 45.09375 64.984375 
Q 41.3125 65.921875 37.59375 65.921875 
Q 27.828125 65.921875 22.671875 59.328125 
Q 17.53125 52.734375 16.796875 39.40625 
Q 19.671875 43.65625 24.015625 45.921875 
Q 28.375 48.1875 33.59375 48.1875 
Q 44.578125 48.1875 50.953125 41.515625 
Q 57.328125 34.859375 57.328125 23.390625 
Q 57.328125 12.15625 50.6875 5.359375 
Q 44.046875 -1.421875 33.015625 -1.421875 
Q 20.359375 -1.421875 13.671875 8.265625 
Q 6.984375 17.96875 6.984375 36.375 
Q 6.984375 53.65625 15.1875 63.9375 
Q 23.390625 74.21875 37.203125 74.21875 
Q 40.921875 74.21875 44.703125 73.484375 
Q 48.484375 72.75 52.59375 71.296875 
z
" id="DejaVuSans-54"/>
        <path d="M 31.78125 66.40625 
Q 24.171875 66.40625 20.328125 58.90625 
Q 16.5 51.421875 16.5 36.375 
Q 16.5 21.390625 20.328125 13.890625 
Q 24.171875 6.390625 31.78125 6.390625 
Q 39.453125 6.390625 43.28125 13.890625 
Q 47.125 21.390625 47.125 36.375 
Q 47.125 51.421875 43.28125 58.90625 
Q 39.453125 66.40625 31.78125 66.40625 
z
M 31.78125 74.21875 
Q 44.046875 74.21875 50.515625 64.515625 
Q 56.984375 54.828125 56.984375 36.375 
Q 56.984375 17.96875 50.515625 8.265625 
Q 44.046875 -1.421875 31.78125 -1.421875 
Q 19.53125 -1.421875 13.0625 8.265625 
Q 6.59375 17.96875 6.59375 36.375 
Q 6.59375 54.828125 13.0625 64.515625 
Q 19.53125 74.21875 31.78125 74.21875 
z
" id="DejaVuSans-48"/>
       </defs>
       <use xlink:href="#DejaVuSans-54"/>
       <use x="63.623047" xlink:href="#DejaVuSans-48"/>
       <use x="127.246094" xlink:href="#DejaVuSans-48"/>
      </g>
     </g>
    </g>
    <g id="xtick_2">
     <g id="line2d_2">
      <g>
       <use style="stroke:#000000;stroke-width:0.8;" x="129.483766" xlink:href="#m41050f4a8a" y="250.118182"/>
      </g>
     </g>
     <g id="text_2">
      <!-- 800 -->
      <g transform="translate(119.940016 264.716619)scale(0.1 -0.1)">
       <defs>
        <path d="M 31.78125 34.625 
Q 24.75 34.625 20.71875 30.859375 
Q 16.703125 27.09375 16.703125 20.515625 
Q 16.703125 13.921875 20.71875 10.15625 
Q 24.75 6.390625 31.78125 6.390625 
Q 38.8125 6.390625 42.859375 10.171875 
Q 46.921875 13.96875 46.921875 20.515625 
Q 46.921875 27.09375 42.890625 30.859375 
Q 38.875 34.625 31.78125 34.625 
z
M 21.921875 38.8125 
Q 15.578125 40.375 12.03125 44.71875 
Q 8.5 49.078125 8.5 55.328125 
Q 8.5 64.0625 14.71875 69.140625 
Q 20.953125 74.21875 31.78125 74.21875 
Q 42.671875 74.21875 48.875 69.140625 
Q 55.078125 64.0625 55.078125 55.328125 
Q 55.078125 49.078125 51.53125 44.71875 
Q 48 40.375 41.703125 38.8125 
Q 48.828125 37.15625 52.796875 32.3125 
Q 56.78125 27.484375 56.78125 20.515625 
Q 56.78125 9.90625 50.3125 4.234375 
Q 43.84375 -1.421875 31.78125 -1.421875 
Q 19.734375 -1.421875 13.25 4.234375 
Q 6.78125 9.90625 6.78125 20.515625 
Q 6.78125 27.484375 10.78125 32.3125 
Q 14.796875 37.15625 21.921875 38.8125 
z
M 18.3125 54.390625 
Q 18.3125 48.734375 21.84375 45.5625 
Q 25.390625 42.390625 31.78125 42.390625 
Q 38.140625 42.390625 41.71875 45.5625 
Q 45.3125 48.734375 45.3125 54.390625 
Q 45.3125 60.0625 41.71875 63.234375 
Q 38.140625 66.40625 31.78125 66.40625 
Q 25.390625 66.40625 21.84375 63.234375 
Q 18.3125 60.0625 18.3125 54.390625 
z
" id="DejaVuSans-56"/>
       </defs>
       <use xlink:href="#DejaVuSans-56"/>
       <use x="63.623047" xlink:href="#DejaVuSans-48"/>
       <use x="127.246094" xlink:href="#DejaVuSans-48"/>
      </g>
     </g>
    </g>
    <g id="xtick_3">
     <g id="line2d_3">
      <g>
       <use style="stroke:#000000;stroke-width:0.8;" x="164.43477" xlink:href="#m41050f4a8a" y="250.118182"/>
      </g>
     </g>
     <g id="text_3">
      <!-- 1000 -->
      <g transform="translate(151.70977 264.716619)scale(0.1 -0.1)">
       <defs>
        <path d="M 12.40625 8.296875 
L 28.515625 8.296875 
L 28.515625 63.921875 
L 10.984375 60.40625 
L 10.984375 69.390625 
L 28.421875 72.90625 
L 38.28125 72.90625 
L 38.28125 8.296875 
L 54.390625 8.296875 
L 54.390625 0 
L 12.40625 0 
z
" id="DejaVuSans-49"/>
       </defs>
       <use xlink:href="#DejaVuSans-49"/>
       <use x="63.623047" xlink:href="#DejaVuSans-48"/>
       <use x="127.246094" xlink:href="#DejaVuSans-48"/>
       <use x="190.869141" xlink:href="#DejaVuSans-48"/>
      </g>
     </g>
    </g>
    <g id="xtick_4">
     <g id="line2d_4">
      <g>
       <use style="stroke:#000000;stroke-width:0.8;" x="199.385774" xlink:href="#m41050f4a8a" y="250.118182"/>
      </g>
     </g>
     <g id="text_4">
      <!-- 1200 -->
      <g transform="translate(186.660774 264.716619)scale(0.1 -0.1)">
       <defs>
        <path d="M 19.1875 8.296875 
L 53.609375 8.296875 
L 53.609375 0 
L 7.328125 0 
L 7.328125 8.296875 
Q 12.9375 14.109375 22.625 23.890625 
Q 32.328125 33.6875 34.8125 36.53125 
Q 39.546875 41.84375 41.421875 45.53125 
Q 43.3125 49.21875 43.3125 52.78125 
Q 43.3125 58.59375 39.234375 62.25 
Q 35.15625 65.921875 28.609375 65.921875 
Q 23.96875 65.921875 18.8125 64.3125 
Q 13.671875 62.703125 7.8125 59.421875 
L 7.8125 69.390625 
Q 13.765625 71.78125 18.9375 73 
Q 24.125 74.21875 28.421875 74.21875 
Q 39.75 74.21875 46.484375 68.546875 
Q 53.21875 62.890625 53.21875 53.421875 
Q 53.21875 48.921875 51.53125 44.890625 
Q 49.859375 40.875 45.40625 35.40625 
Q 44.1875 33.984375 37.640625 27.21875 
Q 31.109375 20.453125 19.1875 8.296875 
z
" id="DejaVuSans-50"/>
       </defs>
       <use xlink:href="#DejaVuSans-49"/>
       <use x="63.623047" xlink:href="#DejaVuSans-50"/>
       <use x="127.246094" xlink:href="#DejaVuSans-48"/>
       <use x="190.869141" xlink:href="#DejaVuSans-48"/>
      </g>
     </g>
    </g>
    <g id="xtick_5">
     <g id="line2d_5">
      <g>
       <use style="stroke:#000000;stroke-width:0.8;" x="234.336777" xlink:href="#m41050f4a8a" y="250.118182"/>
      </g>
     </g>
     <g id="text_5">
      <!-- 1400 -->
      <g transform="translate(221.611777 264.716619)scale(0.1 -0.1)">
       <defs>
        <path d="M 37.796875 64.3125 
L 12.890625 25.390625 
L 37.796875 25.390625 
z
M 35.203125 72.90625 
L 47.609375 72.90625 
L 47.609375 25.390625 
L 58.015625 25.390625 
L 58.015625 17.1875 
L 47.609375 17.1875 
L 47.609375 0 
L 37.796875 0 
L 37.796875 17.1875 
L 4.890625 17.1875 
L 4.890625 26.703125 
z
" id="DejaVuSans-52"/>
       </defs>
       <use xlink:href="#DejaVuSans-49"/>
       <use x="63.623047" xlink:href="#DejaVuSans-52"/>
       <use x="127.246094" xlink:href="#DejaVuSans-48"/>
       <use x="190.869141" xlink:href="#DejaVuSans-48"/>
      </g>
     </g>
    </g>
    <g id="text_6">
     <!-- $R_0$ -->
     <g transform="translate(156.763636 278.394744)scale(0.1 -0.1)">
      <defs>
       <path d="M 25.203125 64.796875 
L 20.21875 38.921875 
L 32.90625 38.921875 
Q 40.375 38.921875 44.984375 43.046875 
Q 49.609375 47.171875 49.609375 53.8125 
Q 49.609375 59.125 46.5 61.953125 
Q 43.40625 64.796875 37.59375 64.796875 
z
M 43.3125 35.015625 
Q 46.4375 34.28125 48.515625 31.390625 
Q 50.59375 28.515625 53.328125 19.921875 
L 59.515625 0 
L 49.125 0 
L 43.40625 18.703125 
Q 41.21875 25.921875 38.328125 28.359375 
Q 35.453125 30.8125 29.5 30.8125 
L 18.609375 30.8125 
L 12.59375 0 
L 2.6875 0 
L 16.890625 72.90625 
L 39.109375 72.90625 
Q 49.21875 72.90625 54.609375 68.328125 
Q 60.015625 63.765625 60.015625 55.171875 
Q 60.015625 47.5625 55.421875 41.984375 
Q 50.828125 36.421875 43.3125 35.015625 
z
" id="DejaVuSans-Oblique-82"/>
      </defs>
      <use transform="translate(0 0.09375)" xlink:href="#DejaVuSans-Oblique-82"/>
      <use transform="translate(69.482422 -16.3125)scale(0.7)" xlink:href="#DejaVuSans-48"/>
     </g>
    </g>
   </g>
   <g id="matplotlib.axis_2">
    <g id="ytick_1">
     <g id="line2d_6">
      <defs>
       <path d="M 0 0 
L -3.5 0 
" id="mdf1cd68d07" style="stroke:#000000;stroke-width:0.8;"/>
      </defs>
      <g>
       <use style="stroke:#000000;stroke-width:0.8;" x="67.5" xlink:href="#mdf1cd68d07" y="238.442541"/>
      </g>
     </g>
     <g id="text_7">
      <!-- −2420 -->
      <g transform="translate(26.670313 242.24176)scale(0.1 -0.1)">
       <defs>
        <path d="M 10.59375 35.5 
L 73.1875 35.5 
L 73.1875 27.203125 
L 10.59375 27.203125 
z
" id="DejaVuSans-8722"/>
       </defs>
       <use xlink:href="#DejaVuSans-8722"/>
       <use x="83.789062" xlink:href="#DejaVuSans-50"/>
       <use x="147.412109" xlink:href="#DejaVuSans-52"/>
       <use x="211.035156" xlink:href="#DejaVuSans-50"/>
       <use x="274.658203" xlink:href="#DejaVuSans-48"/>
      </g>
     </g>
    </g>
    <g id="ytick_2">
     <g id="line2d_7">
      <g>
       <use style="stroke:#000000;stroke-width:0.8;" x="67.5" xlink:href="#mdf1cd68d07" y="204.022373"/>
      </g>
     </g>
     <g id="text_8">
      <!-- −2410 -->
      <g transform="translate(26.670313 207.821592)scale(0.1 -0.1)">
       <use xlink:href="#DejaVuSans-8722"/>
       <use x="83.789062" xlink:href="#DejaVuSans-50"/>
       <use x="147.412109" xlink:href="#DejaVuSans-52"/>
       <use x="211.035156" xlink:href="#DejaVuSans-49"/>
       <use x="274.658203" xlink:href="#DejaVuSans-48"/>
      </g>
     </g>
    </g>
    <g id="ytick_3">
     <g id="line2d_8">
      <g>
       <use style="stroke:#000000;stroke-width:0.8;" x="67.5" xlink:href="#mdf1cd68d07" y="169.602206"/>
      </g>
     </g>
     <g id="text_9">
      <!-- −2400 -->
      <g transform="translate(26.670313 173.401425)scale(0.1 -0.1)">
       <use xlink:href="#DejaVuSans-8722"/>
       <use x="83.789062" xlink:href="#DejaVuSans-50"/>
       <use x="147.412109" xlink:href="#DejaVuSans-52"/>
       <use x="211.035156" xlink:href="#DejaVuSans-48"/>
       <use x="274.658203" xlink:href="#DejaVuSans-48"/>
      </g>
     </g>
    </g>
    <g id="ytick_4">
     <g id="line2d_9">
      <g>
       <use style="stroke:#000000;stroke-width:0.8;" x="67.5" xlink:href="#mdf1cd68d07" y="135.182038"/>
      </g>
     </g>
     <g id="text_10">
      <!-- −2390 -->
      <g transform="translate(26.670313 138.981257)scale(0.1 -0.1)">
       <defs>
        <path d="M 40.578125 39.3125 
Q 47.65625 37.796875 51.625 33 
Q 55.609375 28.21875 55.609375 21.1875 
Q 55.609375 10.40625 48.1875 4.484375 
Q 40.765625 -1.421875 27.09375 -1.421875 
Q 22.515625 -1.421875 17.65625 -0.515625 
Q 12.796875 0.390625 7.625 2.203125 
L 7.625 11.71875 
Q 11.71875 9.328125 16.59375 8.109375 
Q 21.484375 6.890625 26.8125 6.890625 
Q 36.078125 6.890625 40.9375 10.546875 
Q 45.796875 14.203125 45.796875 21.1875 
Q 45.796875 27.640625 41.28125 31.265625 
Q 36.765625 34.90625 28.71875 34.90625 
L 20.21875 34.90625 
L 20.21875 43.015625 
L 29.109375 43.015625 
Q 36.375 43.015625 40.234375 45.921875 
Q 44.09375 48.828125 44.09375 54.296875 
Q 44.09375 59.90625 40.109375 62.90625 
Q 36.140625 65.921875 28.71875 65.921875 
Q 24.65625 65.921875 20.015625 65.03125 
Q 15.375 64.15625 9.8125 62.3125 
L 9.8125 71.09375 
Q 15.4375 72.65625 20.34375 73.4375 
Q 25.25 74.21875 29.59375 74.21875 
Q 40.828125 74.21875 47.359375 69.109375 
Q 53.90625 64.015625 53.90625 55.328125 
Q 53.90625 49.265625 50.4375 45.09375 
Q 46.96875 40.921875 40.578125 39.3125 
z
" id="DejaVuSans-51"/>
        <path d="M 10.984375 1.515625 
L 10.984375 10.5 
Q 14.703125 8.734375 18.5 7.8125 
Q 22.3125 6.890625 25.984375 6.890625 
Q 35.75 6.890625 40.890625 13.453125 
Q 46.046875 20.015625 46.78125 33.40625 
Q 43.953125 29.203125 39.59375 26.953125 
Q 35.25 24.703125 29.984375 24.703125 
Q 19.046875 24.703125 12.671875 31.3125 
Q 6.296875 37.9375 6.296875 49.421875 
Q 6.296875 60.640625 12.9375 67.421875 
Q 19.578125 74.21875 30.609375 74.21875 
Q 43.265625 74.21875 49.921875 64.515625 
Q 56.59375 54.828125 56.59375 36.375 
Q 56.59375 19.140625 48.40625 8.859375 
Q 40.234375 -1.421875 26.421875 -1.421875 
Q 22.703125 -1.421875 18.890625 -0.6875 
Q 15.09375 0.046875 10.984375 1.515625 
z
M 30.609375 32.421875 
Q 37.25 32.421875 41.125 36.953125 
Q 45.015625 41.5 45.015625 49.421875 
Q 45.015625 57.28125 41.125 61.84375 
Q 37.25 66.40625 30.609375 66.40625 
Q 23.96875 66.40625 20.09375 61.84375 
Q 16.21875 57.28125 16.21875 49.421875 
Q 16.21875 41.5 20.09375 36.953125 
Q 23.96875 32.421875 30.609375 32.421875 
z
" id="DejaVuSans-57"/>
       </defs>
       <use xlink:href="#DejaVuSans-8722"/>
       <use x="83.789062" xlink:href="#DejaVuSans-50"/>
       <use x="147.412109" xlink:href="#DejaVuSans-51"/>
       <use x="211.035156" xlink:href="#DejaVuSans-57"/>
       <use x="274.658203" xlink:href="#DejaVuSans-48"/>
      </g>
     </g>
    </g>
    <g id="ytick_5">
     <g id="line2d_10">
      <g>
       <use style="stroke:#000000;stroke-width:0.8;" x="67.5" xlink:href="#mdf1cd68d07" y="100.761871"/>
      </g>
     </g>
     <g id="text_11">
      <!-- −2380 -->
      <g transform="translate(26.670313 104.56109)scale(0.1 -0.1)">
       <use xlink:href="#DejaVuSans-8722"/>
       <use x="83.789062" xlink:href="#DejaVuSans-50"/>
       <use x="147.412109" xlink:href="#DejaVuSans-51"/>
       <use x="211.035156" xlink:href="#DejaVuSans-56"/>
       <use x="274.658203" xlink:href="#DejaVuSans-48"/>
      </g>
     </g>
    </g>
    <g id="ytick_6">
     <g id="line2d_11">
      <g>
       <use style="stroke:#000000;stroke-width:0.8;" x="67.5" xlink:href="#mdf1cd68d07" y="66.341703"/>
      </g>
     </g>
     <g id="text_12">
      <!-- −2370 -->
      <g transform="translate(26.670313 70.140922)scale(0.1 -0.1)">
       <defs>
        <path d="M 8.203125 72.90625 
L 55.078125 72.90625 
L 55.078125 68.703125 
L 28.609375 0 
L 18.3125 0 
L 43.21875 64.59375 
L 8.203125 64.59375 
z
" id="DejaVuSans-55"/>
       </defs>
       <use xlink:href="#DejaVuSans-8722"/>
       <use x="83.789062" xlink:href="#DejaVuSans-50"/>
       <use x="147.412109" xlink:href="#DejaVuSans-51"/>
       <use x="211.035156" xlink:href="#DejaVuSans-55"/>
       <use x="274.658203" xlink:href="#DejaVuSans-48"/>
      </g>
     </g>
    </g>
   </g>
   <g id="line2d_12">
    <path clip-path="url(#p15c792391f)" d="M 122.864951 541 
L 131.329115 409.626853 
L 136.543202 328.510189 
L 137.846723 310.292156 
L 140.01926 276.761506 
L 142.191796 245.467063 
L 146.536868 187.973103 
L 148.274897 167.398754 
L 148.709404 163.992906 
L 150.447433 144.436462 
L 152.185462 127.690452 
L 153.488984 116.542021 
L 154.357999 110.23651 
L 155.66152 100.923928 
L 156.965042 93.449336 
L 158.268564 87.31765 
L 158.703071 86.257916 
L 159.572086 83.048594 
L 160.4411 80.641723 
L 161.310115 79.038861 
L 161.744622 78.538975 
L 162.179129 78.24681 
L 162.613636 78.165592 
L 162.613636 78.165592 
L 163.482651 78.359224 
L 163.917158 78.75475 
L 164.351665 79.358246 
L 165.22068 81.166831 
L 166.089694 83.777268 
L 166.524202 85.381784 
L 166.958709 86.320944 
L 167.827723 89.964126 
L 168.696738 94.354355 
L 170.434767 104.884123 
L 172.172796 117.942946 
L 173.910825 133.191922 
L 175.648854 150.533917 
L 177.82139 174.806141 
L 179.993926 201.545421 
L 182.60097 236.359105 
L 186.077028 286.099911 
L 193.463651 397.591743 
L 195.20168 422.947225 
L 195.636187 397.638564 
L 200.850274 451.968495 
L 209.263285 541 
L 209.263285 541 
" style="fill:none;stroke:#1f77b4;stroke-linecap:square;stroke-width:1.5;"/>
   </g>
   <g id="line2d_13">
    <path clip-path="url(#p15c792391f)" d="M 67.5 84.774264 
L 257.727273 84.774264 
" style="fill:none;stroke:#ff0000;stroke-linecap:square;stroke-width:1.5;"/>
   </g>
   <g id="patch_3">
    <path d="M 67.5 250.118182 
L 67.5 64.8 
" style="fill:none;stroke:#000000;stroke-linecap:square;stroke-linejoin:miter;stroke-width:0.8;"/>
   </g>
   <g id="patch_4">
    <path d="M 257.727273 250.118182 
L 257.727273 64.8 
" style="fill:none;stroke:#000000;stroke-linecap:square;stroke-linejoin:miter;stroke-width:0.8;"/>
   </g>
   <g id="patch_5">
    <path d="M 67.5 250.118182 
L 257.727273 250.118182 
" style="fill:none;stroke:#000000;stroke-linecap:square;stroke-linejoin:miter;stroke-width:0.8;"/>
   </g>
   <g id="patch_6">
    <path d="M 67.5 64.8 
L 257.727273 64.8 
" style="fill:none;stroke:#000000;stroke-linecap:square;stroke-linejoin:miter;stroke-width:0.8;"/>
   </g>
  </g>
  <g id="axes_2">
   <g id="patch_7">
    <path d="M 295.772727 250.118182 
L 486 250.118182 
L 486 64.8 
L 295.772727 64.8 
z
" style="fill:#ffffff;"/>
   </g>
   <g id="matplotlib.axis_3">
    <g id="xtick_6">
     <g id="line2d_14">
      <g>
       <use style="stroke:#000000;stroke-width:0.8;" x="296.451059" xlink:href="#m41050f4a8a" y="250.118182"/>
      </g>
     </g>
     <g id="text_13">
      <!-- 40 -->
      <g transform="translate(290.088559 264.716619)scale(0.1 -0.1)">
       <use xlink:href="#DejaVuSans-52"/>
       <use x="63.623047" xlink:href="#DejaVuSans-48"/>
      </g>
     </g>
    </g>
    <g id="xtick_7">
     <g id="line2d_15">
      <g>
       <use style="stroke:#000000;stroke-width:0.8;" x="335.700349" xlink:href="#m41050f4a8a" y="250.118182"/>
      </g>
     </g>
     <g id="text_14">
      <!-- 60 -->
      <g transform="translate(329.337849 264.716619)scale(0.1 -0.1)">
       <use xlink:href="#DejaVuSans-54"/>
       <use x="63.623047" xlink:href="#DejaVuSans-48"/>
      </g>
     </g>
    </g>
    <g id="xtick_8">
     <g id="line2d_16">
      <g>
       <use style="stroke:#000000;stroke-width:0.8;" x="374.949638" xlink:href="#m41050f4a8a" y="250.118182"/>
      </g>
     </g>
     <g id="text_15">
      <!-- 80 -->
      <g transform="translate(368.587138 264.716619)scale(0.1 -0.1)">
       <use xlink:href="#DejaVuSans-56"/>
       <use x="63.623047" xlink:href="#DejaVuSans-48"/>
      </g>
     </g>
    </g>
    <g id="xtick_9">
     <g id="line2d_17">
      <g>
       <use style="stroke:#000000;stroke-width:0.8;" x="414.198928" xlink:href="#m41050f4a8a" y="250.118182"/>
      </g>
     </g>
     <g id="text_16">
      <!-- 100 -->
      <g transform="translate(404.655178 264.716619)scale(0.1 -0.1)">
       <use xlink:href="#DejaVuSans-49"/>
       <use x="63.623047" xlink:href="#DejaVuSans-48"/>
       <use x="127.246094" xlink:href="#DejaVuSans-48"/>
      </g>
     </g>
    </g>
    <g id="xtick_10">
     <g id="line2d_18">
      <g>
       <use style="stroke:#000000;stroke-width:0.8;" x="453.448218" xlink:href="#m41050f4a8a" y="250.118182"/>
      </g>
     </g>
     <g id="text_17">
      <!-- 120 -->
      <g transform="translate(443.904468 264.716619)scale(0.1 -0.1)">
       <use xlink:href="#DejaVuSans-49"/>
       <use x="63.623047" xlink:href="#DejaVuSans-50"/>
       <use x="127.246094" xlink:href="#DejaVuSans-48"/>
      </g>
     </g>
    </g>
    <g id="text_18">
     <!-- $MTT$ -->
     <g transform="translate(380.436364 278.394744)scale(0.1 -0.1)">
      <defs>
       <path d="M 16.890625 72.90625 
L 31.6875 72.90625 
L 40.1875 23.78125 
L 68.40625 72.90625 
L 83.59375 72.90625 
L 69.390625 0 
L 59.8125 0 
L 72.21875 63.921875 
L 43.609375 14.015625 
L 33.984375 14.015625 
L 24.703125 64.109375 
L 12.3125 0 
L 2.6875 0 
z
" id="DejaVuSans-Oblique-77"/>
       <path d="M 5.90625 72.90625 
L 67.578125 72.90625 
L 66.015625 64.59375 
L 39.984375 64.59375 
L 27.484375 0 
L 17.578125 0 
L 30.078125 64.59375 
L 4.296875 64.59375 
z
" id="DejaVuSans-Oblique-84"/>
      </defs>
      <use transform="translate(0 0.09375)" xlink:href="#DejaVuSans-Oblique-77"/>
      <use transform="translate(86.279297 0.09375)" xlink:href="#DejaVuSans-Oblique-84"/>
      <use transform="translate(147.363281 0.09375)" xlink:href="#DejaVuSans-Oblique-84"/>
     </g>
    </g>
   </g>
   <g id="matplotlib.axis_4"/>
   <g id="line2d_19">
    <path clip-path="url(#p0e5f911fa2)" d="M 304.419421 228.47436 
L 304.853929 227.949338 
L 305.288436 227.839952 
L 306.591958 225.829252 
L 307.026465 225.241594 
L 307.460972 224.952908 
L 307.895479 224.373876 
L 309.199001 222.205919 
L 313.109566 216.188126 
L 315.71661 211.830379 
L 321.365204 201.151356 
L 325.710277 192.352065 
L 327.013798 189.364192 
L 331.358871 179.357426 
L 337.441972 164.665073 
L 340.483523 157.050792 
L 345.69761 144.026544 
L 350.042682 133.249174 
L 355.256769 120.94972 
L 355.691277 120.193283 
L 356.560291 118.016497 
L 356.994798 117.050927 
L 357.429306 117.728943 
L 358.29832 114.767661 
L 359.167335 112.37972 
L 359.601842 111.39868 
L 360.036349 111.078497 
L 360.905364 108.759099 
L 361.339871 107.819668 
L 361.774378 107.213162 
L 362.643393 105.239737 
L 363.0779 108.049586 
L 363.946914 104.60325 
L 364.815929 101.814898 
L 365.684943 99.67558 
L 366.119451 98.848784 
L 366.553958 99.349336 
L 367.422972 96.955553 
L 368.291987 95.229837 
L 368.726494 96.505298 
L 369.595509 93.900494 
L 370.464523 91.998164 
L 370.89903 91.30642 
L 371.333538 91.427385 
L 372.202552 89.602306 
L 372.637059 88.956464 
L 373.071567 89.672652 
L 373.940581 87.633339 
L 374.809595 86.327978 
L 375.244103 85.843366 
L 375.67861 86.801636 
L 376.547624 84.847412 
L 377.416639 83.646123 
L 377.851146 84.67859 
L 378.720161 82.849062 
L 379.589175 81.80233 
L 380.023682 83.156443 
L 380.892697 81.359683 
L 381.327204 80.76441 
L 381.761711 80.364102 
L 382.196219 81.652792 
L 383.065233 80.030124 
L 383.49974 79.531232 
L 383.934248 79.232972 
L 384.368755 80.591522 
L 385.237769 79.123 
L 385.672277 78.707955 
L 386.106784 78.497306 
L 386.541291 79.939354 
L 387.410306 78.600583 
L 387.844813 78.258325 
L 388.713827 78.098063 
L 389.148335 79.732799 
L 389.582842 78.998669 
L 390.017349 78.49454 
L 390.451856 78.212489 
L 390.886364 78.152949 
L 390.886364 78.152949 
L 391.320871 78.282519 
L 391.755378 78.259583 
L 392.189885 78.434098 
L 392.624393 78.807348 
L 393.0589 79.372189 
L 393.927914 81.042838 
L 394.796929 83.384912 
L 395.231436 84.789108 
L 395.665943 79.448589 
L 396.534958 79.937018 
L 396.969465 80.441257 
L 397.83848 82.026066 
L 398.707494 84.319952 
L 399.576509 87.255198 
L 400.011016 88.942142 
L 400.445523 82.252282 
L 401.314538 83.010675 
L 402.183552 84.508801 
L 403.052567 86.762975 
L 403.487074 84.751714 
L 405.225103 86.61915 
L 405.65961 87.438459 
L 406.094117 87.281772 
L 406.528625 87.725032 
L 406.963132 88.344796 
L 407.397639 89.175584 
L 407.832146 89.125272 
L 409.135668 90.65219 
L 410.43919 92.158713 
L 411.308204 93.345453 
L 411.742711 94.183956 
L 412.177219 94.340535 
L 413.046233 95.587717 
L 413.48074 96.490348 
L 413.915248 96.616297 
L 414.784262 97.899844 
L 415.218769 98.821581 
L 415.653277 98.992077 
L 416.087784 99.736899 
L 416.956798 100.831395 
L 417.391306 101.573245 
L 418.26032 103.747621 
L 418.694827 103.404167 
L 419.563842 104.751627 
L 419.998349 105.762429 
L 420.432856 105.935547 
L 420.867364 106.735143 
L 421.736378 107.924851 
L 422.170885 108.739222 
L 423.0399 111.073326 
L 423.474407 110.621644 
L 423.908914 111.431385 
L 424.343422 111.978515 
L 424.777929 112.823078 
L 425.212436 113.350524 
L 425.646943 114.199932 
L 426.515958 115.432507 
L 426.950465 116.265283 
L 427.384972 116.826614 
L 427.81948 117.65829 
L 428.253987 118.232961 
L 428.688494 119.098199 
L 429.123001 119.647646 
L 429.557509 120.512207 
L 430.426523 121.777778 
L 435.206103 129.68248 
L 435.64061 130.587652 
L 436.075117 131.129417 
L 449.979349 154.215423 
L 451.282871 156.271932 
L 451.717378 157.199028 
L 452.586393 158.382993 
L 453.0209 159.331274 
L 453.455407 159.776099 
L 460.407523 170.874541 
L 465.62161 178.895009 
L 470.40119 186.114574 
L 470.835697 187.22617 
L 471.270204 187.780528 
L 471.704712 188.029879 
L 472.573726 189.313714 
L 473.008233 190.198716 
L 473.442741 190.605954 
L 477.353306 196.296528 
L 477.353306 196.296528 
" style="fill:none;stroke:#1f77b4;stroke-linecap:square;stroke-width:1.5;"/>
   </g>
   <g id="line2d_20">
    <path clip-path="url(#p0e5f911fa2)" d="M 295.772727 84.706735 
L 486 84.706735 
" style="fill:none;stroke:#ff0000;stroke-linecap:square;stroke-width:1.5;"/>
   </g>
   <g id="patch_8">
    <path d="M 295.772727 250.118182 
L 295.772727 64.8 
" style="fill:none;stroke:#000000;stroke-linecap:square;stroke-linejoin:miter;stroke-width:0.8;"/>
   </g>
   <g id="patch_9">
    <path d="M 486 250.118182 
L 486 64.8 
" style="fill:none;stroke:#000000;stroke-linecap:square;stroke-linejoin:miter;stroke-width:0.8;"/>
   </g>
   <g id="patch_10">
    <path d="M 295.772727 250.118182 
L 486 250.118182 
" style="fill:none;stroke:#000000;stroke-linecap:square;stroke-linejoin:miter;stroke-width:0.8;"/>
   </g>
   <g id="patch_11">
    <path d="M 295.772727 64.8 
L 486 64.8 
" style="fill:none;stroke:#000000;stroke-linecap:square;stroke-linejoin:miter;stroke-width:0.8;"/>
   </g>
  </g>
  <g id="axes_3">
   <g id="patch_12">
    <path d="M 67.5 472.5 
L 257.727273 472.5 
L 257.727273 287.181818 
L 67.5 287.181818 
z
" style="fill:#ffffff;"/>
   </g>
   <g id="matplotlib.axis_5">
    <g id="xtick_11">
     <g id="line2d_21">
      <g>
       <use style="stroke:#000000;stroke-width:0.8;" x="97.628211" xlink:href="#m41050f4a8a" y="472.5"/>
      </g>
     </g>
     <g id="text_19">
      <!-- 0.3 -->
      <g transform="translate(89.676649 487.098437)scale(0.1 -0.1)">
       <defs>
        <path d="M 10.6875 12.40625 
L 21 12.40625 
L 21 0 
L 10.6875 0 
z
" id="DejaVuSans-46"/>
       </defs>
       <use xlink:href="#DejaVuSans-48"/>
       <use x="63.623047" xlink:href="#DejaVuSans-46"/>
       <use x="95.410156" xlink:href="#DejaVuSans-51"/>
      </g>
     </g>
    </g>
    <g id="xtick_12">
     <g id="line2d_22">
      <g>
       <use style="stroke:#000000;stroke-width:0.8;" x="133.611031" xlink:href="#m41050f4a8a" y="472.5"/>
      </g>
     </g>
     <g id="text_20">
      <!-- 0.4 -->
      <g transform="translate(125.659469 487.098437)scale(0.1 -0.1)">
       <use xlink:href="#DejaVuSans-48"/>
       <use x="63.623047" xlink:href="#DejaVuSans-46"/>
       <use x="95.410156" xlink:href="#DejaVuSans-52"/>
      </g>
     </g>
    </g>
    <g id="xtick_13">
     <g id="line2d_23">
      <g>
       <use style="stroke:#000000;stroke-width:0.8;" x="169.593851" xlink:href="#m41050f4a8a" y="472.5"/>
      </g>
     </g>
     <g id="text_21">
      <!-- 0.5 -->
      <g transform="translate(161.642288 487.098437)scale(0.1 -0.1)">
       <defs>
        <path d="M 10.796875 72.90625 
L 49.515625 72.90625 
L 49.515625 64.59375 
L 19.828125 64.59375 
L 19.828125 46.734375 
Q 21.96875 47.46875 24.109375 47.828125 
Q 26.265625 48.1875 28.421875 48.1875 
Q 40.625 48.1875 47.75 41.5 
Q 54.890625 34.8125 54.890625 23.390625 
Q 54.890625 11.625 47.5625 5.09375 
Q 40.234375 -1.421875 26.90625 -1.421875 
Q 22.3125 -1.421875 17.546875 -0.640625 
Q 12.796875 0.140625 7.71875 1.703125 
L 7.71875 11.625 
Q 12.109375 9.234375 16.796875 8.0625 
Q 21.484375 6.890625 26.703125 6.890625 
Q 35.15625 6.890625 40.078125 11.328125 
Q 45.015625 15.765625 45.015625 23.390625 
Q 45.015625 31 40.078125 35.4375 
Q 35.15625 39.890625 26.703125 39.890625 
Q 22.75 39.890625 18.8125 39.015625 
Q 14.890625 38.140625 10.796875 36.28125 
z
" id="DejaVuSans-53"/>
       </defs>
       <use xlink:href="#DejaVuSans-48"/>
       <use x="63.623047" xlink:href="#DejaVuSans-46"/>
       <use x="95.410156" xlink:href="#DejaVuSans-53"/>
      </g>
     </g>
    </g>
    <g id="xtick_14">
     <g id="line2d_24">
      <g>
       <use style="stroke:#000000;stroke-width:0.8;" x="205.576671" xlink:href="#m41050f4a8a" y="472.5"/>
      </g>
     </g>
     <g id="text_22">
      <!-- 0.6 -->
      <g transform="translate(197.625108 487.098437)scale(0.1 -0.1)">
       <use xlink:href="#DejaVuSans-48"/>
       <use x="63.623047" xlink:href="#DejaVuSans-46"/>
       <use x="95.410156" xlink:href="#DejaVuSans-54"/>
      </g>
     </g>
    </g>
    <g id="xtick_15">
     <g id="line2d_25">
      <g>
       <use style="stroke:#000000;stroke-width:0.8;" x="241.55949" xlink:href="#m41050f4a8a" y="472.5"/>
      </g>
     </g>
     <g id="text_23">
      <!-- 0.7 -->
      <g transform="translate(233.607928 487.098437)scale(0.1 -0.1)">
       <use xlink:href="#DejaVuSans-48"/>
       <use x="63.623047" xlink:href="#DejaVuSans-46"/>
       <use x="95.410156" xlink:href="#DejaVuSans-55"/>
      </g>
     </g>
    </g>
    <g id="text_24">
     <!-- $\gamma$ -->
     <g transform="translate(159.613636 500.75625)scale(0.1 -0.1)">
      <defs>
       <path d="M 23.296875 46.09375 
L 28.71875 12.3125 
L 54 54.6875 
L 63.53125 54.6875 
L 30.8125 0 
L 26.765625 -20.796875 
L 17.78125 -20.796875 
L 21.828125 0 
L 15.4375 40.828125 
Q 14.453125 46.96875 9.8125 46.96875 
L 7.421875 46.96875 
L 8.890625 54.6875 
L 12.3125 54.6875 
Q 21.921875 54.6875 23.296875 46.09375 
z
" id="DejaVuSans-Oblique-947"/>
      </defs>
      <use transform="translate(0 0.3125)" xlink:href="#DejaVuSans-Oblique-947"/>
     </g>
    </g>
   </g>
   <g id="matplotlib.axis_6">
    <g id="ytick_7">
     <g id="line2d_26">
      <g>
       <use style="stroke:#000000;stroke-width:0.8;" x="67.5" xlink:href="#mdf1cd68d07" y="460.824359"/>
      </g>
     </g>
     <g id="text_25">
      <!-- −2420 -->
      <g transform="translate(26.670313 464.623578)scale(0.1 -0.1)">
       <use xlink:href="#DejaVuSans-8722"/>
       <use x="83.789062" xlink:href="#DejaVuSans-50"/>
       <use x="147.412109" xlink:href="#DejaVuSans-52"/>
       <use x="211.035156" xlink:href="#DejaVuSans-50"/>
       <use x="274.658203" xlink:href="#DejaVuSans-48"/>
      </g>
     </g>
    </g>
    <g id="ytick_8">
     <g id="line2d_27">
      <g>
       <use style="stroke:#000000;stroke-width:0.8;" x="67.5" xlink:href="#mdf1cd68d07" y="426.404192"/>
      </g>
     </g>
     <g id="text_26">
      <!-- −2410 -->
      <g transform="translate(26.670313 430.20341)scale(0.1 -0.1)">
       <use xlink:href="#DejaVuSans-8722"/>
       <use x="83.789062" xlink:href="#DejaVuSans-50"/>
       <use x="147.412109" xlink:href="#DejaVuSans-52"/>
       <use x="211.035156" xlink:href="#DejaVuSans-49"/>
       <use x="274.658203" xlink:href="#DejaVuSans-48"/>
      </g>
     </g>
    </g>
    <g id="ytick_9">
     <g id="line2d_28">
      <g>
       <use style="stroke:#000000;stroke-width:0.8;" x="67.5" xlink:href="#mdf1cd68d07" y="391.984024"/>
      </g>
     </g>
     <g id="text_27">
      <!-- −2400 -->
      <g transform="translate(26.670313 395.783243)scale(0.1 -0.1)">
       <use xlink:href="#DejaVuSans-8722"/>
       <use x="83.789062" xlink:href="#DejaVuSans-50"/>
       <use x="147.412109" xlink:href="#DejaVuSans-52"/>
       <use x="211.035156" xlink:href="#DejaVuSans-48"/>
       <use x="274.658203" xlink:href="#DejaVuSans-48"/>
      </g>
     </g>
    </g>
    <g id="ytick_10">
     <g id="line2d_29">
      <g>
       <use style="stroke:#000000;stroke-width:0.8;" x="67.5" xlink:href="#mdf1cd68d07" y="357.563857"/>
      </g>
     </g>
     <g id="text_28">
      <!-- −2390 -->
      <g transform="translate(26.670313 361.363075)scale(0.1 -0.1)">
       <use xlink:href="#DejaVuSans-8722"/>
       <use x="83.789062" xlink:href="#DejaVuSans-50"/>
       <use x="147.412109" xlink:href="#DejaVuSans-51"/>
       <use x="211.035156" xlink:href="#DejaVuSans-57"/>
       <use x="274.658203" xlink:href="#DejaVuSans-48"/>
      </g>
     </g>
    </g>
    <g id="ytick_11">
     <g id="line2d_30">
      <g>
       <use style="stroke:#000000;stroke-width:0.8;" x="67.5" xlink:href="#mdf1cd68d07" y="323.143689"/>
      </g>
     </g>
     <g id="text_29">
      <!-- −2380 -->
      <g transform="translate(26.670313 326.942908)scale(0.1 -0.1)">
       <use xlink:href="#DejaVuSans-8722"/>
       <use x="83.789062" xlink:href="#DejaVuSans-50"/>
       <use x="147.412109" xlink:href="#DejaVuSans-51"/>
       <use x="211.035156" xlink:href="#DejaVuSans-56"/>
       <use x="274.658203" xlink:href="#DejaVuSans-48"/>
      </g>
     </g>
    </g>
    <g id="ytick_12">
     <g id="line2d_31">
      <g>
       <use style="stroke:#000000;stroke-width:0.8;" x="67.5" xlink:href="#mdf1cd68d07" y="288.723522"/>
      </g>
     </g>
     <g id="text_30">
      <!-- −2370 -->
      <g transform="translate(26.670313 292.52274)scale(0.1 -0.1)">
       <use xlink:href="#DejaVuSans-8722"/>
       <use x="83.789062" xlink:href="#DejaVuSans-50"/>
       <use x="147.412109" xlink:href="#DejaVuSans-51"/>
       <use x="211.035156" xlink:href="#DejaVuSans-55"/>
       <use x="274.658203" xlink:href="#DejaVuSans-48"/>
      </g>
     </g>
    </g>
   </g>
   <g id="line2d_32">
    <path clip-path="url(#ped6e3dc25b)" d="M 76.146694 373.360301 
L 80.057259 365.146092 
L 85.271346 354.951957 
L 88.312897 349.444557 
L 91.788955 343.576144 
L 95.265013 338.16054 
L 98.306564 333.813579 
L 100.913607 330.316662 
L 103.955158 326.563614 
L 106.562202 323.606178 
L 106.996709 325.833135 
L 108.30023 323.202098 
L 109.603752 321.012099 
L 110.907274 319.270639 
L 112.210796 317.989016 
L 114.383332 316.060022 
L 114.817839 315.784225 
L 115.686854 314.983958 
L 116.121361 320.021826 
L 117.85939 316.460571 
L 119.162912 314.218924 
L 120.466433 312.354938 
L 121.769955 310.876552 
L 123.073477 309.792177 
L 125.68052 308.276254 
L 129.156578 306.521612 
L 129.591086 306.651405 
L 130.894607 305.773958 
L 133.067144 304.863397 
L 139.150245 302.881005 
L 139.584752 302.940436 
L 140.888274 302.442119 
L 142.191796 302.139434 
L 142.626303 302.1888 
L 143.929825 301.792391 
L 144.798839 301.640847 
L 145.233346 301.938777 
L 146.536868 301.397884 
L 147.84039 301.150597 
L 148.274897 302.938628 
L 149.578419 301.944279 
L 150.881941 301.218458 
L 152.185462 300.77196 
L 153.054477 300.633936 
L 153.488984 305.865833 
L 155.227013 303.958338 
L 156.965042 302.449987 
L 158.268564 301.591559 
L 159.572086 300.976332 
L 160.875607 300.61422 
L 162.179129 300.51446 
L 164.786173 300.755254 
L 166.089694 301.224109 
L 167.393216 301.987107 
L 168.262231 302.665639 
L 168.696738 301.021759 
L 170.00026 301.251526 
L 171.303781 301.747632 
L 172.607303 302.522055 
L 173.910825 303.587867 
L 174.345332 304.010273 
L 174.779839 301.655058 
L 176.083361 301.970122 
L 177.386883 302.543855 
L 178.690405 303.388735 
L 179.993926 304.518371 
L 180.428433 302.552521 
L 181.731955 302.891155 
L 182.60097 303.253726 
L 183.035477 303.027767 
L 189.553086 304.380728 
L 192.594636 305.151182 
L 193.029144 305.321866 
L 193.463651 305.296097 
L 199.546752 306.825232 
L 208.671405 309.358955 
L 216.492535 311.696938 
L 228.224231 315.422472 
L 245.170013 321.086934 
L 249.080579 322.444832 
L 249.080579 322.444832 
" style="fill:none;stroke:#1f77b4;stroke-linecap:square;stroke-width:1.5;"/>
   </g>
   <g id="line2d_33">
    <path clip-path="url(#ped6e3dc25b)" d="M 67.5 307.123132 
L 257.727273 307.123132 
" style="fill:none;stroke:#ff0000;stroke-linecap:square;stroke-width:1.5;"/>
   </g>
   <g id="patch_13">
    <path d="M 67.5 472.5 
L 67.5 287.181818 
" style="fill:none;stroke:#000000;stroke-linecap:square;stroke-linejoin:miter;stroke-width:0.8;"/>
   </g>
   <g id="patch_14">
    <path d="M 257.727273 472.5 
L 257.727273 287.181818 
" style="fill:none;stroke:#000000;stroke-linecap:square;stroke-linejoin:miter;stroke-width:0.8;"/>
   </g>
   <g id="patch_15">
    <path d="M 67.5 472.5 
L 257.727273 472.5 
" style="fill:none;stroke:#000000;stroke-linecap:square;stroke-linejoin:miter;stroke-width:0.8;"/>
   </g>
   <g id="patch_16">
    <path d="M 67.5 287.181818 
L 257.727273 287.181818 
" style="fill:none;stroke:#000000;stroke-linecap:square;stroke-linejoin:miter;stroke-width:0.8;"/>
   </g>
  </g>
  <g id="axes_4">
   <g id="patch_17">
    <path d="M 295.772727 472.5 
L 486 472.5 
L 486 287.181818 
L 295.772727 287.181818 
z
" style="fill:#ffffff;"/>
   </g>
   <g id="matplotlib.axis_7">
    <g id="xtick_16">
     <g id="line2d_34">
      <g>
       <use style="stroke:#000000;stroke-width:0.8;" x="335.003568" xlink:href="#m41050f4a8a" y="472.5"/>
      </g>
     </g>
     <g id="text_31">
      <!-- 10 -->
      <g transform="translate(328.641068 487.098437)scale(0.1 -0.1)">
       <use xlink:href="#DejaVuSans-49"/>
       <use x="63.623047" xlink:href="#DejaVuSans-48"/>
      </g>
     </g>
    </g>
    <g id="xtick_17">
     <g id="line2d_35">
      <g>
       <use style="stroke:#000000;stroke-width:0.8;" x="393.529112" xlink:href="#m41050f4a8a" y="472.5"/>
      </g>
     </g>
     <g id="text_32">
      <!-- 15 -->
      <g transform="translate(387.166612 487.098437)scale(0.1 -0.1)">
       <use xlink:href="#DejaVuSans-49"/>
       <use x="63.623047" xlink:href="#DejaVuSans-53"/>
      </g>
     </g>
    </g>
    <g id="xtick_18">
     <g id="line2d_36">
      <g>
       <use style="stroke:#000000;stroke-width:0.8;" x="452.054656" xlink:href="#m41050f4a8a" y="472.5"/>
      </g>
     </g>
     <g id="text_33">
      <!-- 20 -->
      <g transform="translate(445.692156 487.098437)scale(0.1 -0.1)">
       <use xlink:href="#DejaVuSans-50"/>
       <use x="63.623047" xlink:href="#DejaVuSans-48"/>
      </g>
     </g>
    </g>
    <g id="text_34">
     <!-- $S$ -->
     <g transform="translate(387.686364 500.776562)scale(0.1 -0.1)">
      <defs>
       <path d="M 60.296875 70.515625 
L 58.40625 60.890625 
Q 53.46875 63.53125 48.609375 64.875 
Q 43.75 66.21875 39.203125 66.21875 
Q 30.375 66.21875 25.140625 62.359375 
Q 19.921875 58.5 19.921875 52.09375 
Q 19.921875 48.578125 21.84375 46.703125 
Q 23.78125 44.828125 31.78125 42.671875 
L 37.703125 41.21875 
Q 47.703125 38.625 51.609375 34.640625 
Q 55.515625 30.671875 55.515625 23.484375 
Q 55.515625 12.453125 46.84375 5.515625 
Q 38.1875 -1.421875 24.03125 -1.421875 
Q 18.21875 -1.421875 12.359375 -0.265625 
Q 6.5 0.875 0.59375 3.21875 
L 2.59375 13.375 
Q 8.015625 10.015625 13.453125 8.296875 
Q 18.890625 6.59375 24.3125 6.59375 
Q 33.546875 6.59375 39.109375 10.6875 
Q 44.671875 14.796875 44.671875 21.390625 
Q 44.671875 25.78125 42.453125 28.046875 
Q 40.234375 30.328125 32.90625 32.171875 
L 27 33.6875 
Q 16.890625 36.328125 13.203125 39.765625 
Q 9.515625 43.21875 9.515625 49.421875 
Q 9.515625 60.296875 17.890625 67.25 
Q 26.265625 74.21875 39.703125 74.21875 
Q 44.921875 74.21875 50.046875 73.28125 
Q 55.171875 72.359375 60.296875 70.515625 
z
" id="DejaVuSans-Oblique-83"/>
      </defs>
      <use transform="translate(0 0.78125)" xlink:href="#DejaVuSans-Oblique-83"/>
     </g>
    </g>
   </g>
   <g id="matplotlib.axis_8"/>
   <g id="line2d_37">
    <path clip-path="url(#p9491b2e077)" d="M 304.419421 385.053558 
L 308.329987 377.890206 
L 313.978581 367.885161 
L 318.758161 359.936934 
L 321.799711 355.21474 
L 326.579291 347.998718 
L 330.055349 343.073583 
L 333.965914 337.869235 
L 338.310987 332.449242 
L 342.221552 327.949374 
L 346.132117 323.800613 
L 349.608175 320.410585 
L 352.649726 317.608544 
L 355.691277 315.090505 
L 358.732827 312.731488 
L 360.905364 311.167864 
L 361.339871 311.637583 
L 364.815929 309.111146 
L 367.85748 307.18168 
L 370.89903 305.522993 
L 373.940581 304.136851 
L 376.547624 303.155442 
L 376.982132 303.501221 
L 380.023682 302.381807 
L 383.065233 301.521853 
L 386.106784 300.922121 
L 388.713827 300.618118 
L 391.320871 300.510012 
L 393.927914 300.599122 
L 396.534958 300.885935 
L 399.142001 301.371272 
L 399.576509 301.471409 
L 400.011016 300.98714 
L 403.052567 301.531988 
L 407.832146 302.705301 
L 410.873697 303.747391 
L 412.611726 304.455133 
L 413.046233 304.454481 
L 416.522291 305.898032 
L 420.867364 307.988572 
L 425.646943 310.631812 
L 429.992016 313.333041 
L 433.902581 316.013372 
L 437.813146 318.912061 
L 443.461741 323.440981 
L 448.24132 327.60278 
L 453.889914 332.852289 
L 459.973016 338.900597 
L 465.62161 344.841206 
L 471.704712 351.571366 
L 477.353306 358.09395 
L 477.353306 358.09395 
" style="fill:none;stroke:#1f77b4;stroke-linecap:square;stroke-width:1.5;"/>
   </g>
   <g id="line2d_38">
    <path clip-path="url(#p9491b2e077)" d="M 295.772727 307.118685 
L 486 307.118685 
" style="fill:none;stroke:#ff0000;stroke-linecap:square;stroke-width:1.5;"/>
   </g>
   <g id="patch_18">
    <path d="M 295.772727 472.5 
L 295.772727 287.181818 
" style="fill:none;stroke:#000000;stroke-linecap:square;stroke-linejoin:miter;stroke-width:0.8;"/>
   </g>
   <g id="patch_19">
    <path d="M 486 472.5 
L 486 287.181818 
" style="fill:none;stroke:#000000;stroke-linecap:square;stroke-linejoin:miter;stroke-width:0.8;"/>
   </g>
   <g id="patch_20">
    <path d="M 295.772727 472.5 
L 486 472.5 
" style="fill:none;stroke:#000000;stroke-linecap:square;stroke-linejoin:miter;stroke-width:0.8;"/>
   </g>
   <g id="patch_21">
    <path d="M 295.772727 287.181818 
L 486 287.181818 
" style="fill:none;stroke:#000000;stroke-linecap:square;stroke-linejoin:miter;stroke-width:0.8;"/>
   </g>
  </g>
 </g>
 <defs>
  <clipPath id="p15c792391f">
   <rect height="185.318182" width="190.227273" x="67.5" y="64.8"/>
  </clipPath>
  <clipPath id="p0e5f911fa2">
   <rect height="185.318182" width="190.227273" x="295.772727" y="64.8"/>
  </clipPath>
  <clipPath id="ped6e3dc25b">
   <rect height="185.318182" width="190.227273" x="67.5" y="287.181818"/>
  </clipPath>
  <clipPath id="p9491b2e077">
   <rect height="185.318182" width="190.227273" x="295.772727" y="287.181818"/>
  </clipPath>
 </defs>
</svg>
