<?xml version="1.0" encoding="utf-8" standalone="no"?>
<!DOCTYPE svg PUBLIC "-//W3C//DTD SVG 1.1//EN"
  "http://www.w3.org/Graphics/SVG/1.1/DTD/svg11.dtd">
<!-- Created with matplotlib (https://matplotlib.org/) -->
<svg height="540pt" version="1.1" viewBox="0 0 540 540" width="540pt" xmlns="http://www.w3.org/2000/svg" xmlns:xlink="http://www.w3.org/1999/xlink">
 <metadata>
  <rdf:RDF xmlns:cc="http://creativecommons.org/ns#" xmlns:dc="http://purl.org/dc/elements/1.1/" xmlns:rdf="http://www.w3.org/1999/02/22-rdf-syntax-ns#">
   <cc:Work>
    <dc:type rdf:resource="http://purl.org/dc/dcmitype/StillImage"/>
    <dc:date>2022-11-03T16:12:13.894737</dc:date>
    <dc:format>image/svg+xml</dc:format>
    <dc:creator>
     <cc:Agent>
      <dc:title>Matplotlib v3.3.4, https://matplotlib.org/</dc:title>
     </cc:Agent>
    </dc:creator>
   </cc:Work>
  </rdf:RDF>
 </metadata>
 <defs>
  <style type="text/css">*{stroke-linecap:butt;stroke-linejoin:round;}</style>
 </defs>
 <g id="figure_1">
  <g id="patch_1">
   <path d="M 0 540 
L 540 540 
L 540 0 
L 0 0 
z
" style="fill:none;"/>
  </g>
  <g id="axes_1">
   <g id="patch_2">
    <path d="M 67.5 184.711765 
L 190.588235 184.711765 
L 190.588235 64.8 
L 67.5 64.8 
z
" style="fill:#ffffff;"/>
   </g>
   <g id="matplotlib.axis_1"/>
   <g id="matplotlib.axis_2">
    <g id="ytick_1">
     <g id="line2d_1">
      <defs>
       <path d="M 0 0 
L -3.5 0 
" id="ma87423ac36" style="stroke:#000000;stroke-width:0.8;"/>
      </defs>
      <g>
       <use style="stroke:#000000;stroke-width:0.8;" x="67.5" xlink:href="#ma87423ac36" y="177.156938"/>
      </g>
     </g>
     <g id="text_1">
      <!-- −2420 -->
      <g transform="translate(26.670313 180.956157)scale(0.1 -0.1)">
       <defs>
        <path d="M 10.59375 35.5 
L 73.1875 35.5 
L 73.1875 27.203125 
L 10.59375 27.203125 
z
" id="DejaVuSans-8722"/>
        <path d="M 19.1875 8.296875 
L 53.609375 8.296875 
L 53.609375 0 
L 7.328125 0 
L 7.328125 8.296875 
Q 12.9375 14.109375 22.625 23.890625 
Q 32.328125 33.6875 34.8125 36.53125 
Q 39.546875 41.84375 41.421875 45.53125 
Q 43.3125 49.21875 43.3125 52.78125 
Q 43.3125 58.59375 39.234375 62.25 
Q 35.15625 65.921875 28.609375 65.921875 
Q 23.96875 65.921875 18.8125 64.3125 
Q 13.671875 62.703125 7.8125 59.421875 
L 7.8125 69.390625 
Q 13.765625 71.78125 18.9375 73 
Q 24.125 74.21875 28.421875 74.21875 
Q 39.75 74.21875 46.484375 68.546875 
Q 53.21875 62.890625 53.21875 53.421875 
Q 53.21875 48.921875 51.53125 44.890625 
Q 49.859375 40.875 45.40625 35.40625 
Q 44.1875 33.984375 37.640625 27.21875 
Q 31.109375 20.453125 19.1875 8.296875 
z
" id="DejaVuSans-50"/>
        <path d="M 37.796875 64.3125 
L 12.890625 25.390625 
L 37.796875 25.390625 
z
M 35.203125 72.90625 
L 47.609375 72.90625 
L 47.609375 25.390625 
L 58.015625 25.390625 
L 58.015625 17.1875 
L 47.609375 17.1875 
L 47.609375 0 
L 37.796875 0 
L 37.796875 17.1875 
L 4.890625 17.1875 
L 4.890625 26.703125 
z
" id="DejaVuSans-52"/>
        <path d="M 31.78125 66.40625 
Q 24.171875 66.40625 20.328125 58.90625 
Q 16.5 51.421875 16.5 36.375 
Q 16.5 21.390625 20.328125 13.890625 
Q 24.171875 6.390625 31.78125 6.390625 
Q 39.453125 6.390625 43.28125 13.890625 
Q 47.125 21.390625 47.125 36.375 
Q 47.125 51.421875 43.28125 58.90625 
Q 39.453125 66.40625 31.78125 66.40625 
z
M 31.78125 74.21875 
Q 44.046875 74.21875 50.515625 64.515625 
Q 56.984375 54.828125 56.984375 36.375 
Q 56.984375 17.96875 50.515625 8.265625 
Q 44.046875 -1.421875 31.78125 -1.421875 
Q 19.53125 -1.421875 13.0625 8.265625 
Q 6.59375 17.96875 6.59375 36.375 
Q 6.59375 54.828125 13.0625 64.515625 
Q 19.53125 74.21875 31.78125 74.21875 
z
" id="DejaVuSans-48"/>
       </defs>
       <use xlink:href="#DejaVuSans-8722"/>
       <use x="83.789062" xlink:href="#DejaVuSans-50"/>
       <use x="147.412109" xlink:href="#DejaVuSans-52"/>
       <use x="211.035156" xlink:href="#DejaVuSans-50"/>
       <use x="274.658203" xlink:href="#DejaVuSans-48"/>
      </g>
     </g>
    </g>
    <g id="ytick_2">
     <g id="line2d_2">
      <g>
       <use style="stroke:#000000;stroke-width:0.8;" x="67.5" xlink:href="#ma87423ac36" y="132.613192"/>
      </g>
     </g>
     <g id="text_2">
      <!-- −2400 -->
      <g transform="translate(26.670313 136.412411)scale(0.1 -0.1)">
       <use xlink:href="#DejaVuSans-8722"/>
       <use x="83.789062" xlink:href="#DejaVuSans-50"/>
       <use x="147.412109" xlink:href="#DejaVuSans-52"/>
       <use x="211.035156" xlink:href="#DejaVuSans-48"/>
       <use x="274.658203" xlink:href="#DejaVuSans-48"/>
      </g>
     </g>
    </g>
    <g id="ytick_3">
     <g id="line2d_3">
      <g>
       <use style="stroke:#000000;stroke-width:0.8;" x="67.5" xlink:href="#ma87423ac36" y="88.069446"/>
      </g>
     </g>
     <g id="text_3">
      <!-- −2380 -->
      <g transform="translate(26.670313 91.868665)scale(0.1 -0.1)">
       <defs>
        <path d="M 40.578125 39.3125 
Q 47.65625 37.796875 51.625 33 
Q 55.609375 28.21875 55.609375 21.1875 
Q 55.609375 10.40625 48.1875 4.484375 
Q 40.765625 -1.421875 27.09375 -1.421875 
Q 22.515625 -1.421875 17.65625 -0.515625 
Q 12.796875 0.390625 7.625 2.203125 
L 7.625 11.71875 
Q 11.71875 9.328125 16.59375 8.109375 
Q 21.484375 6.890625 26.8125 6.890625 
Q 36.078125 6.890625 40.9375 10.546875 
Q 45.796875 14.203125 45.796875 21.1875 
Q 45.796875 27.640625 41.28125 31.265625 
Q 36.765625 34.90625 28.71875 34.90625 
L 20.21875 34.90625 
L 20.21875 43.015625 
L 29.109375 43.015625 
Q 36.375 43.015625 40.234375 45.921875 
Q 44.09375 48.828125 44.09375 54.296875 
Q 44.09375 59.90625 40.109375 62.90625 
Q 36.140625 65.921875 28.71875 65.921875 
Q 24.65625 65.921875 20.015625 65.03125 
Q 15.375 64.15625 9.8125 62.3125 
L 9.8125 71.09375 
Q 15.4375 72.65625 20.34375 73.4375 
Q 25.25 74.21875 29.59375 74.21875 
Q 40.828125 74.21875 47.359375 69.109375 
Q 53.90625 64.015625 53.90625 55.328125 
Q 53.90625 49.265625 50.4375 45.09375 
Q 46.96875 40.921875 40.578125 39.3125 
z
" id="DejaVuSans-51"/>
        <path d="M 31.78125 34.625 
Q 24.75 34.625 20.71875 30.859375 
Q 16.703125 27.09375 16.703125 20.515625 
Q 16.703125 13.921875 20.71875 10.15625 
Q 24.75 6.390625 31.78125 6.390625 
Q 38.8125 6.390625 42.859375 10.171875 
Q 46.921875 13.96875 46.921875 20.515625 
Q 46.921875 27.09375 42.890625 30.859375 
Q 38.875 34.625 31.78125 34.625 
z
M 21.921875 38.8125 
Q 15.578125 40.375 12.03125 44.71875 
Q 8.5 49.078125 8.5 55.328125 
Q 8.5 64.0625 14.71875 69.140625 
Q 20.953125 74.21875 31.78125 74.21875 
Q 42.671875 74.21875 48.875 69.140625 
Q 55.078125 64.0625 55.078125 55.328125 
Q 55.078125 49.078125 51.53125 44.71875 
Q 48 40.375 41.703125 38.8125 
Q 48.828125 37.15625 52.796875 32.3125 
Q 56.78125 27.484375 56.78125 20.515625 
Q 56.78125 9.90625 50.3125 4.234375 
Q 43.84375 -1.421875 31.78125 -1.421875 
Q 19.734375 -1.421875 13.25 4.234375 
Q 6.78125 9.90625 6.78125 20.515625 
Q 6.78125 27.484375 10.78125 32.3125 
Q 14.796875 37.15625 21.921875 38.8125 
z
M 18.3125 54.390625 
Q 18.3125 48.734375 21.84375 45.5625 
Q 25.390625 42.390625 31.78125 42.390625 
Q 38.140625 42.390625 41.71875 45.5625 
Q 45.3125 48.734375 45.3125 54.390625 
Q 45.3125 60.0625 41.71875 63.234375 
Q 38.140625 66.40625 31.78125 66.40625 
Q 25.390625 66.40625 21.84375 63.234375 
Q 18.3125 60.0625 18.3125 54.390625 
z
" id="DejaVuSans-56"/>
       </defs>
       <use xlink:href="#DejaVuSans-8722"/>
       <use x="83.789062" xlink:href="#DejaVuSans-50"/>
       <use x="147.412109" xlink:href="#DejaVuSans-51"/>
       <use x="211.035156" xlink:href="#DejaVuSans-56"/>
       <use x="274.658203" xlink:href="#DejaVuSans-48"/>
      </g>
     </g>
    </g>
    <g id="text_4">
     <!-- Fixed $\sigma_{c, PD}$ -->
     <g transform="translate(20.170313 151.655882)rotate(-90)scale(0.1 -0.1)">
      <defs>
       <path d="M 9.8125 72.90625 
L 51.703125 72.90625 
L 51.703125 64.59375 
L 19.671875 64.59375 
L 19.671875 43.109375 
L 48.578125 43.109375 
L 48.578125 34.8125 
L 19.671875 34.8125 
L 19.671875 0 
L 9.8125 0 
z
" id="DejaVuSans-70"/>
       <path d="M 9.421875 54.6875 
L 18.40625 54.6875 
L 18.40625 0 
L 9.421875 0 
z
M 9.421875 75.984375 
L 18.40625 75.984375 
L 18.40625 64.59375 
L 9.421875 64.59375 
z
" id="DejaVuSans-105"/>
       <path d="M 54.890625 54.6875 
L 35.109375 28.078125 
L 55.90625 0 
L 45.3125 0 
L 29.390625 21.484375 
L 13.484375 0 
L 2.875 0 
L 24.125 28.609375 
L 4.6875 54.6875 
L 15.28125 54.6875 
L 29.78125 35.203125 
L 44.28125 54.6875 
z
" id="DejaVuSans-120"/>
       <path d="M 56.203125 29.59375 
L 56.203125 25.203125 
L 14.890625 25.203125 
Q 15.484375 15.921875 20.484375 11.0625 
Q 25.484375 6.203125 34.421875 6.203125 
Q 39.59375 6.203125 44.453125 7.46875 
Q 49.3125 8.734375 54.109375 11.28125 
L 54.109375 2.78125 
Q 49.265625 0.734375 44.1875 -0.34375 
Q 39.109375 -1.421875 33.890625 -1.421875 
Q 20.796875 -1.421875 13.15625 6.1875 
Q 5.515625 13.8125 5.515625 26.8125 
Q 5.515625 40.234375 12.765625 48.109375 
Q 20.015625 56 32.328125 56 
Q 43.359375 56 49.78125 48.890625 
Q 56.203125 41.796875 56.203125 29.59375 
z
M 47.21875 32.234375 
Q 47.125 39.59375 43.09375 43.984375 
Q 39.0625 48.390625 32.421875 48.390625 
Q 24.90625 48.390625 20.390625 44.140625 
Q 15.875 39.890625 15.1875 32.171875 
z
" id="DejaVuSans-101"/>
       <path d="M 45.40625 46.390625 
L 45.40625 75.984375 
L 54.390625 75.984375 
L 54.390625 0 
L 45.40625 0 
L 45.40625 8.203125 
Q 42.578125 3.328125 38.25 0.953125 
Q 33.9375 -1.421875 27.875 -1.421875 
Q 17.96875 -1.421875 11.734375 6.484375 
Q 5.515625 14.40625 5.515625 27.296875 
Q 5.515625 40.1875 11.734375 48.09375 
Q 17.96875 56 27.875 56 
Q 33.9375 56 38.25 53.625 
Q 42.578125 51.265625 45.40625 46.390625 
z
M 14.796875 27.296875 
Q 14.796875 17.390625 18.875 11.75 
Q 22.953125 6.109375 30.078125 6.109375 
Q 37.203125 6.109375 41.296875 11.75 
Q 45.40625 17.390625 45.40625 27.296875 
Q 45.40625 37.203125 41.296875 42.84375 
Q 37.203125 48.484375 30.078125 48.484375 
Q 22.953125 48.484375 18.875 42.84375 
Q 14.796875 37.203125 14.796875 27.296875 
z
" id="DejaVuSans-100"/>
       <path id="DejaVuSans-32"/>
       <path d="M 34.671875 47.5625 
Q 27.25 47.5625 22.21875 42.1875 
Q 16.890625 36.578125 15.140625 27.296875 
Q 13.1875 17.484375 16.3125 11.8125 
Q 19.390625 6.203125 26.65625 6.203125 
Q 33.84375 6.203125 39.109375 11.859375 
Q 44.4375 17.53125 46.34375 27.296875 
Q 48.046875 36.234375 45.015625 42.1875 
Q 42.1875 47.5625 34.671875 47.5625 
z
M 36.078125 54.734375 
L 65.921875 54.6875 
L 64.15625 45.703125 
L 54.109375 45.703125 
Q 57.90625 38.09375 55.859375 27.296875 
Q 53.21875 13.875 45.0625 6.25 
Q 36.859375 -1.421875 25.140625 -1.421875 
Q 13.375 -1.421875 8.203125 6.25 
Q 3.03125 13.875 5.671875 27.296875 
Q 8.25 40.765625 16.40625 48.390625 
Q 23.1875 54.734375 36.078125 54.734375 
z
" id="DejaVuSans-Oblique-963"/>
       <path d="M 53.609375 52.59375 
L 51.8125 43.703125 
Q 48.578125 46.046875 44.9375 47.21875 
Q 41.3125 48.390625 37.40625 48.390625 
Q 33.109375 48.390625 29.21875 46.875 
Q 25.34375 45.359375 22.703125 42.578125 
Q 18.5 38.328125 16.203125 32.609375 
Q 13.921875 26.90625 13.921875 20.796875 
Q 13.921875 13.421875 17.609375 9.8125 
Q 21.296875 6.203125 28.8125 6.203125 
Q 32.515625 6.203125 36.6875 7.328125 
Q 40.875 8.453125 45.40625 10.6875 
L 43.703125 1.8125 
Q 39.796875 0.203125 35.671875 -0.609375 
Q 31.546875 -1.421875 27.203125 -1.421875 
Q 16.3125 -1.421875 10.453125 4.015625 
Q 4.59375 9.46875 4.59375 19.578125 
Q 4.59375 28.078125 7.640625 35.234375 
Q 10.6875 42.390625 16.703125 48.09375 
Q 20.796875 52 26.3125 54 
Q 31.84375 56 38.375 56 
Q 42.1875 56 45.9375 55.140625 
Q 49.703125 54.296875 53.609375 52.59375 
z
" id="DejaVuSans-Oblique-99"/>
       <path d="M 11.71875 12.40625 
L 22.015625 12.40625 
L 22.015625 4 
L 14.015625 -11.625 
L 7.71875 -11.625 
L 11.71875 4 
z
" id="DejaVuSans-44"/>
       <path d="M 16.890625 72.90625 
L 39.703125 72.90625 
Q 49.65625 72.90625 54.875 68.265625 
Q 60.109375 63.625 60.109375 54.6875 
Q 60.109375 42.671875 52.390625 35.984375 
Q 44.671875 29.296875 30.71875 29.296875 
L 18.3125 29.296875 
L 12.59375 0 
L 2.6875 0 
z
M 25.203125 64.796875 
L 19.921875 37.40625 
L 32.328125 37.40625 
Q 40.71875 37.40625 45.203125 41.703125 
Q 49.703125 46 49.703125 54 
Q 49.703125 59.125 46.65625 61.953125 
Q 43.609375 64.796875 38.09375 64.796875 
z
" id="DejaVuSans-Oblique-80"/>
       <path d="M 16.890625 72.90625 
L 38.09375 72.90625 
Q 54.984375 72.90625 63.59375 65.75 
Q 72.21875 58.59375 72.21875 44.484375 
Q 72.21875 35.15625 68.9375 26.53125 
Q 65.671875 17.921875 59.90625 12.015625 
Q 54.109375 5.953125 45.171875 2.96875 
Q 36.234375 0 24.03125 0 
L 2.6875 0 
z
M 25.203125 64.796875 
L 14.203125 8.109375 
L 27.09375 8.109375 
Q 43.65625 8.109375 52.734375 17.625 
Q 61.8125 27.15625 61.8125 44.484375 
Q 61.8125 54.984375 55.953125 59.890625 
Q 50.09375 64.796875 37.59375 64.796875 
z
" id="DejaVuSans-Oblique-68"/>
      </defs>
      <use transform="translate(0 0.015625)" xlink:href="#DejaVuSans-70"/>
      <use transform="translate(57.519531 0.015625)" xlink:href="#DejaVuSans-105"/>
      <use transform="translate(85.302734 0.015625)" xlink:href="#DejaVuSans-120"/>
      <use transform="translate(144.482422 0.015625)" xlink:href="#DejaVuSans-101"/>
      <use transform="translate(206.005859 0.015625)" xlink:href="#DejaVuSans-100"/>
      <use transform="translate(269.482422 0.015625)" xlink:href="#DejaVuSans-32"/>
      <use transform="translate(301.269531 0.015625)" xlink:href="#DejaVuSans-Oblique-963"/>
      <use transform="translate(364.648438 -16.390625)scale(0.7)" xlink:href="#DejaVuSans-Oblique-99"/>
      <use transform="translate(403.134766 -16.390625)scale(0.7)" xlink:href="#DejaVuSans-44"/>
      <use transform="translate(439.023438 -16.390625)scale(0.7)" xlink:href="#DejaVuSans-Oblique-80"/>
      <use transform="translate(481.235352 -16.390625)scale(0.7)" xlink:href="#DejaVuSans-Oblique-68"/>
     </g>
    </g>
   </g>
   <g id="patch_3">
    <path d="M 67.5 184.711765 
L 67.5 64.8 
" style="fill:none;stroke:#000000;stroke-linecap:square;stroke-linejoin:miter;stroke-width:0.8;"/>
   </g>
   <g id="patch_4">
    <path d="M 190.588235 184.711765 
L 190.588235 64.8 
" style="fill:none;stroke:#000000;stroke-linecap:square;stroke-linejoin:miter;stroke-width:0.8;"/>
   </g>
   <g id="patch_5">
    <path d="M 67.5 184.711765 
L 190.588235 184.711765 
" style="fill:none;stroke:#000000;stroke-linecap:square;stroke-linejoin:miter;stroke-width:0.8;"/>
   </g>
   <g id="patch_6">
    <path d="M 67.5 64.8 
L 190.588235 64.8 
" style="fill:none;stroke:#000000;stroke-linecap:square;stroke-linejoin:miter;stroke-width:0.8;"/>
   </g>
  </g>
  <g id="axes_2">
   <g id="patch_7">
    <path d="M 215.205882 184.711765 
L 338.294118 184.711765 
L 338.294118 64.8 
L 215.205882 64.8 
z
" style="fill:#ffffff;"/>
   </g>
   <g id="matplotlib.axis_3"/>
   <g id="matplotlib.axis_4"/>
   <g id="line2d_4">
    <path clip-path="url(#p2d4e8ddc82)" d="M 303.329791 541 
L 303.362266 95.493546 
L 303.926438 97.386456 
L 304.490609 98.647337 
L 305.054781 102.345263 
L 305.618953 103.917332 
L 306.183125 104.419708 
L 306.747297 106.401026 
L 307.311468 109.412778 
L 307.87564 110.75727 
L 308.439812 115.457221 
L 309.003984 116.092012 
L 309.568155 118.602343 
L 310.132327 127.500731 
L 310.696499 124.157274 
L 311.260671 127.165771 
L 311.824842 133.202678 
L 312.389014 289.80449 
L 313.015683 541 
L 313.015683 541 
" style="fill:none;stroke:#1f77b4;stroke-linecap:square;stroke-width:1.5;"/>
   </g>
   <g id="line2d_5">
    <path clip-path="url(#p2d4e8ddc82)" d="M 215.205882 99.769746 
L 338.294118 99.769746 
" style="fill:none;stroke:#ff0000;stroke-linecap:square;stroke-width:1.5;"/>
   </g>
   <g id="patch_8">
    <path d="M 215.205882 184.711765 
L 215.205882 64.8 
" style="fill:none;stroke:#000000;stroke-linecap:square;stroke-linejoin:miter;stroke-width:0.8;"/>
   </g>
   <g id="patch_9">
    <path d="M 338.294118 184.711765 
L 338.294118 64.8 
" style="fill:none;stroke:#000000;stroke-linecap:square;stroke-linejoin:miter;stroke-width:0.8;"/>
   </g>
   <g id="patch_10">
    <path d="M 215.205882 184.711765 
L 338.294118 184.711765 
" style="fill:none;stroke:#000000;stroke-linecap:square;stroke-linejoin:miter;stroke-width:0.8;"/>
   </g>
   <g id="patch_11">
    <path d="M 215.205882 64.8 
L 338.294118 64.8 
" style="fill:none;stroke:#000000;stroke-linecap:square;stroke-linejoin:miter;stroke-width:0.8;"/>
   </g>
  </g>
  <g id="axes_3">
   <g id="patch_12">
    <path d="M 362.911765 184.711765 
L 486 184.711765 
L 486 64.8 
L 362.911765 64.8 
z
" style="fill:#ffffff;"/>
   </g>
   <g id="matplotlib.axis_5"/>
   <g id="matplotlib.axis_6"/>
   <g id="line2d_6">
    <path clip-path="url(#p64fb95cc8a)" d="M 368.506684 129.96239 
L 369.071828 129.690602 
L 371.332402 128.193014 
L 375.853549 126.798629 
L 376.418692 127.05622 
L 376.983836 126.399678 
L 378.679266 125.863725 
L 379.244409 126.580227 
L 379.809553 125.516981 
L 383.765557 124.207714 
L 391.112421 121.736945 
L 392.242708 121.22018 
L 393.938138 120.694661 
L 394.503281 120.566474 
L 395.068425 120.263063 
L 396.763855 119.659044 
L 402.415289 117.747148 
L 403.545576 117.303375 
L 404.110719 117.986225 
L 404.675863 116.947298 
L 406.371293 116.266411 
L 408.066723 115.685938 
L 410.327297 114.901948 
L 410.89244 115.599067 
L 411.457584 114.496729 
L 412.022727 114.350034 
L 413.153014 113.894481 
L 418.239305 112.115074 
L 440.279898 104.250087 
L 443.105615 103.271958 
L 447.061619 101.892663 
L 456.669057 98.708765 
L 457.2342 99.478477 
L 457.799344 98.328026 
L 462.885634 96.706727 
L 464.015921 96.383744 
L 465.146208 95.888048 
L 470.797642 94.050918 
L 471.927929 93.869202 
L 472.493072 93.495178 
L 480.40508 91.065732 
L 480.40508 91.065732 
" style="fill:none;stroke:#1f77b4;stroke-linecap:square;stroke-width:1.5;"/>
   </g>
   <g id="line2d_7">
    <path clip-path="url(#p64fb95cc8a)" d="M 362.911765 95.341932 
L 486 95.341932 
" style="fill:none;stroke:#ff0000;stroke-linecap:square;stroke-width:1.5;"/>
   </g>
   <g id="patch_13">
    <path d="M 362.911765 184.711765 
L 362.911765 64.8 
" style="fill:none;stroke:#000000;stroke-linecap:square;stroke-linejoin:miter;stroke-width:0.8;"/>
   </g>
   <g id="patch_14">
    <path d="M 486 184.711765 
L 486 64.8 
" style="fill:none;stroke:#000000;stroke-linecap:square;stroke-linejoin:miter;stroke-width:0.8;"/>
   </g>
   <g id="patch_15">
    <path d="M 362.911765 184.711765 
L 486 184.711765 
" style="fill:none;stroke:#000000;stroke-linecap:square;stroke-linejoin:miter;stroke-width:0.8;"/>
   </g>
   <g id="patch_16">
    <path d="M 362.911765 64.8 
L 486 64.8 
" style="fill:none;stroke:#000000;stroke-linecap:square;stroke-linejoin:miter;stroke-width:0.8;"/>
   </g>
  </g>
  <g id="axes_4">
   <g id="patch_17">
    <path d="M 67.5 328.605882 
L 190.588235 328.605882 
L 190.588235 208.694118 
L 67.5 208.694118 
z
" style="fill:#ffffff;"/>
   </g>
   <g id="matplotlib.axis_7"/>
   <g id="matplotlib.axis_8">
    <g id="ytick_4">
     <g id="line2d_8">
      <g>
       <use style="stroke:#000000;stroke-width:0.8;" x="67.5" xlink:href="#ma87423ac36" y="321.051056"/>
      </g>
     </g>
     <g id="text_5">
      <!-- −2420 -->
      <g transform="translate(26.670313 324.850275)scale(0.1 -0.1)">
       <use xlink:href="#DejaVuSans-8722"/>
       <use x="83.789062" xlink:href="#DejaVuSans-50"/>
       <use x="147.412109" xlink:href="#DejaVuSans-52"/>
       <use x="211.035156" xlink:href="#DejaVuSans-50"/>
       <use x="274.658203" xlink:href="#DejaVuSans-48"/>
      </g>
     </g>
    </g>
    <g id="ytick_5">
     <g id="line2d_9">
      <g>
       <use style="stroke:#000000;stroke-width:0.8;" x="67.5" xlink:href="#ma87423ac36" y="276.50731"/>
      </g>
     </g>
     <g id="text_6">
      <!-- −2400 -->
      <g transform="translate(26.670313 280.306528)scale(0.1 -0.1)">
       <use xlink:href="#DejaVuSans-8722"/>
       <use x="83.789062" xlink:href="#DejaVuSans-50"/>
       <use x="147.412109" xlink:href="#DejaVuSans-52"/>
       <use x="211.035156" xlink:href="#DejaVuSans-48"/>
       <use x="274.658203" xlink:href="#DejaVuSans-48"/>
      </g>
     </g>
    </g>
    <g id="ytick_6">
     <g id="line2d_10">
      <g>
       <use style="stroke:#000000;stroke-width:0.8;" x="67.5" xlink:href="#ma87423ac36" y="231.963564"/>
      </g>
     </g>
     <g id="text_7">
      <!-- −2380 -->
      <g transform="translate(26.670313 235.762782)scale(0.1 -0.1)">
       <use xlink:href="#DejaVuSans-8722"/>
       <use x="83.789062" xlink:href="#DejaVuSans-50"/>
       <use x="147.412109" xlink:href="#DejaVuSans-51"/>
       <use x="211.035156" xlink:href="#DejaVuSans-56"/>
       <use x="274.658203" xlink:href="#DejaVuSans-48"/>
      </g>
     </g>
    </g>
    <g id="text_8">
     <!-- Fixed $\eta$ -->
     <g transform="translate(20.570312 286.9)rotate(-90)scale(0.1 -0.1)">
      <defs>
       <path d="M 57.859375 33.015625 
L 47.40625 -20.796875 
L 38.421875 -20.796875 
L 48.828125 32.71875 
Q 50.34375 40.484375 48.046875 44.34375 
Q 45.796875 48.1875 39.75 48.1875 
Q 32.46875 48.1875 27.34375 43.5625 
Q 22.265625 38.921875 20.703125 30.90625 
L 14.703125 0 
L 5.671875 0 
L 16.3125 54.6875 
L 25.34375 54.6875 
L 23.6875 46.1875 
Q 27.828125 51.125 32.71875 53.5625 
Q 37.546875 56 43.265625 56 
Q 52.6875 56 56.390625 50.203125 
Q 60.0625 44.34375 57.859375 33.015625 
z
" id="DejaVuSans-Oblique-951"/>
      </defs>
      <use transform="translate(0 0.015625)" xlink:href="#DejaVuSans-70"/>
      <use transform="translate(57.519531 0.015625)" xlink:href="#DejaVuSans-105"/>
      <use transform="translate(85.302734 0.015625)" xlink:href="#DejaVuSans-120"/>
      <use transform="translate(144.482422 0.015625)" xlink:href="#DejaVuSans-101"/>
      <use transform="translate(206.005859 0.015625)" xlink:href="#DejaVuSans-100"/>
      <use transform="translate(269.482422 0.015625)" xlink:href="#DejaVuSans-32"/>
      <use transform="translate(301.269531 0.015625)" xlink:href="#DejaVuSans-Oblique-951"/>
     </g>
    </g>
   </g>
   <g id="line2d_11">
    <path clip-path="url(#pfd6b49878e)" d="M 73.09492 243.255919 
L 123.457392 243.145057 
L 134.208931 242.887701 
L 141.565247 242.384369 
L 144.96047 241.861203 
L 147.789822 241.255645 
L 151.750915 239.990447 
L 153.448527 239.252272 
L 155.712009 237.995501 
L 156.277879 237.890128 
L 157.40962 236.997507 
L 158.541361 235.933492 
L 159.107231 235.592771 
L 159.673102 235.381864 
L 160.238972 234.7555 
L 160.804843 234.617766 
L 161.370713 233.382487 
L 161.936584 233.634069 
L 162.502454 232.743647 
L 163.068325 231.314193 
L 163.634195 230.475306 
L 164.200066 229.350769 
L 165.331807 228.087149 
L 165.897677 298.870142 
L 166.221082 541 
M 167.674489 541 
L 168.727029 394.718592 
L 169.2929 335.119515 
L 169.85877 289.190565 
L 170.424641 255.71496 
L 170.990511 233.441992 
L 171.556382 221.027896 
L 172.122252 217.251019 
L 172.122252 217.251019 
L 172.681864 220.940018 
L 173.241475 231.083847 
L 173.801087 246.857561 
L 174.360698 267.555615 
L 175.479921 321.279722 
L 176.599144 388.144125 
L 178.277978 506.421694 
L 178.727305 541 
L 178.727305 541 
" style="fill:none;stroke:#1f77b4;stroke-linecap:square;stroke-width:1.5;"/>
   </g>
   <g id="line2d_12">
    <path clip-path="url(#pfd6b49878e)" d="M 67.5 221.527219 
L 190.588235 221.527219 
" style="fill:none;stroke:#ff0000;stroke-linecap:square;stroke-width:1.5;"/>
   </g>
   <g id="patch_18">
    <path d="M 67.5 328.605882 
L 67.5 208.694118 
" style="fill:none;stroke:#000000;stroke-linecap:square;stroke-linejoin:miter;stroke-width:0.8;"/>
   </g>
   <g id="patch_19">
    <path d="M 190.588235 328.605882 
L 190.588235 208.694118 
" style="fill:none;stroke:#000000;stroke-linecap:square;stroke-linejoin:miter;stroke-width:0.8;"/>
   </g>
   <g id="patch_20">
    <path d="M 67.5 328.605882 
L 190.588235 328.605882 
" style="fill:none;stroke:#000000;stroke-linecap:square;stroke-linejoin:miter;stroke-width:0.8;"/>
   </g>
   <g id="patch_21">
    <path d="M 67.5 208.694118 
L 190.588235 208.694118 
" style="fill:none;stroke:#000000;stroke-linecap:square;stroke-linejoin:miter;stroke-width:0.8;"/>
   </g>
  </g>
  <g id="axes_5">
   <g id="patch_22">
    <path d="M 215.205882 328.605882 
L 338.294118 328.605882 
L 338.294118 208.694118 
L 215.205882 208.694118 
z
" style="fill:#ffffff;"/>
   </g>
   <g id="matplotlib.axis_9"/>
   <g id="matplotlib.axis_10"/>
   <g id="patch_23">
    <path d="M 215.205882 328.605882 
L 215.205882 208.694118 
" style="fill:none;stroke:#000000;stroke-linecap:square;stroke-linejoin:miter;stroke-width:0.8;"/>
   </g>
   <g id="patch_24">
    <path d="M 338.294118 328.605882 
L 338.294118 208.694118 
" style="fill:none;stroke:#000000;stroke-linecap:square;stroke-linejoin:miter;stroke-width:0.8;"/>
   </g>
   <g id="patch_25">
    <path d="M 215.205882 328.605882 
L 338.294118 328.605882 
" style="fill:none;stroke:#000000;stroke-linecap:square;stroke-linejoin:miter;stroke-width:0.8;"/>
   </g>
   <g id="patch_26">
    <path d="M 215.205882 208.694118 
L 338.294118 208.694118 
" style="fill:none;stroke:#000000;stroke-linecap:square;stroke-linejoin:miter;stroke-width:0.8;"/>
   </g>
  </g>
  <g id="axes_6">
   <g id="patch_27">
    <path d="M 362.911765 328.605882 
L 486 328.605882 
L 486 208.694118 
L 362.911765 208.694118 
z
" style="fill:#ffffff;"/>
   </g>
   <g id="matplotlib.axis_11"/>
   <g id="matplotlib.axis_12"/>
   <g id="line2d_13">
    <path clip-path="url(#pf7b62b3602)" d="M 368.506684 217.249263 
L 399.024429 217.424275 
L 413.718158 217.84857 
L 422.195309 218.468388 
L 423.325596 218.713253 
L 424.455882 219.132523 
L 425.021026 218.912613 
L 426.151313 219.197236 
L 426.716456 219.120205 
L 427.846743 219.602657 
L 428.97703 219.608456 
L 429.542173 219.85102 
L 430.107316 219.693361 
L 431.802747 220.586781 
L 432.933034 221.803988 
L 433.498177 220.913871 
L 434.06332 221.045506 
L 435.193607 221.947711 
L 435.758751 222.63214 
L 436.323894 221.946405 
L 438.019324 223.227157 
L 438.584468 223.200386 
L 439.149611 223.742226 
L 440.279898 225.667236 
L 440.845041 224.239835 
L 441.975328 224.803827 
L 442.540472 225.297518 
L 443.105615 226.157076 
L 443.670758 226.247931 
L 444.801045 227.470764 
L 445.931332 228.844891 
L 446.496475 230.163728 
L 447.061619 231.018934 
L 447.626762 232.963124 
L 448.191906 232.293179 
L 448.757049 233.43353 
L 449.322193 234.187362 
L 449.887336 233.861867 
L 450.452479 235.646686 
L 451.017623 236.864302 
L 451.582766 239.62804 
L 452.14791 237.241592 
L 452.713053 239.154601 
L 453.278196 242.102054 
L 453.84334 241.627677 
L 454.408483 241.811942 
L 455.53877 244.674865 
L 456.103913 247.538299 
L 456.669057 251.834497 
L 457.799344 264.421453 
L 458.929631 281.693821 
L 460.059917 302.925137 
L 461.755348 340.87601 
L 463.450778 384.561218 
L 466.276495 466.26235 
L 468.681667 541 
L 468.681667 541 
" style="fill:none;stroke:#1f77b4;stroke-linecap:square;stroke-width:1.5;"/>
   </g>
   <g id="line2d_14">
    <path clip-path="url(#pf7b62b3602)" d="M 362.911765 221.525463 
L 486 221.525463 
" style="fill:none;stroke:#ff0000;stroke-linecap:square;stroke-width:1.5;"/>
   </g>
   <g id="patch_28">
    <path d="M 362.911765 328.605882 
L 362.911765 208.694118 
" style="fill:none;stroke:#000000;stroke-linecap:square;stroke-linejoin:miter;stroke-width:0.8;"/>
   </g>
   <g id="patch_29">
    <path d="M 486 328.605882 
L 486 208.694118 
" style="fill:none;stroke:#000000;stroke-linecap:square;stroke-linejoin:miter;stroke-width:0.8;"/>
   </g>
   <g id="patch_30">
    <path d="M 362.911765 328.605882 
L 486 328.605882 
" style="fill:none;stroke:#000000;stroke-linecap:square;stroke-linejoin:miter;stroke-width:0.8;"/>
   </g>
   <g id="patch_31">
    <path d="M 362.911765 208.694118 
L 486 208.694118 
" style="fill:none;stroke:#000000;stroke-linecap:square;stroke-linejoin:miter;stroke-width:0.8;"/>
   </g>
  </g>
  <g id="axes_7">
   <g id="patch_32">
    <path d="M 67.5 472.5 
L 190.588235 472.5 
L 190.588235 352.588235 
L 67.5 352.588235 
z
" style="fill:#ffffff;"/>
   </g>
   <g id="matplotlib.axis_13">
    <g id="xtick_1">
     <g id="line2d_15">
      <defs>
       <path d="M 0 0 
L 0 3.5 
" id="mcfcea04a4d" style="stroke:#000000;stroke-width:0.8;"/>
      </defs>
      <g>
       <use style="stroke:#000000;stroke-width:0.8;" x="91.829714" xlink:href="#mcfcea04a4d" y="472.5"/>
      </g>
     </g>
     <g id="text_9">
      <!-- $\mathdefault{10^{-2}}$ -->
      <g transform="translate(80.079714 487.098437)scale(0.1 -0.1)">
       <defs>
        <path d="M 12.40625 8.296875 
L 28.515625 8.296875 
L 28.515625 63.921875 
L 10.984375 60.40625 
L 10.984375 69.390625 
L 28.421875 72.90625 
L 38.28125 72.90625 
L 38.28125 8.296875 
L 54.390625 8.296875 
L 54.390625 0 
L 12.40625 0 
z
" id="DejaVuSans-49"/>
       </defs>
       <use transform="translate(0 0.765625)" xlink:href="#DejaVuSans-49"/>
       <use transform="translate(63.623047 0.765625)" xlink:href="#DejaVuSans-48"/>
       <use transform="translate(128.203125 39.046875)scale(0.7)" xlink:href="#DejaVuSans-8722"/>
       <use transform="translate(186.855469 39.046875)scale(0.7)" xlink:href="#DejaVuSans-50"/>
      </g>
     </g>
    </g>
    <g id="xtick_2">
     <g id="line2d_16">
      <g>
       <use style="stroke:#000000;stroke-width:0.8;" x="129.299303" xlink:href="#mcfcea04a4d" y="472.5"/>
      </g>
     </g>
     <g id="text_10">
      <!-- $\mathdefault{10^{0}}$ -->
      <g transform="translate(120.499303 487.098437)scale(0.1 -0.1)">
       <use transform="translate(0 0.765625)" xlink:href="#DejaVuSans-49"/>
       <use transform="translate(63.623047 0.765625)" xlink:href="#DejaVuSans-48"/>
       <use transform="translate(128.203125 39.046875)scale(0.7)" xlink:href="#DejaVuSans-48"/>
      </g>
     </g>
    </g>
    <g id="xtick_3">
     <g id="line2d_17">
      <g>
       <use style="stroke:#000000;stroke-width:0.8;" x="166.768893" xlink:href="#mcfcea04a4d" y="472.5"/>
      </g>
     </g>
     <g id="text_11">
      <!-- $\mathdefault{10^{2}}$ -->
      <g transform="translate(157.968893 487.098437)scale(0.1 -0.1)">
       <use transform="translate(0 0.765625)" xlink:href="#DejaVuSans-49"/>
       <use transform="translate(63.623047 0.765625)" xlink:href="#DejaVuSans-48"/>
       <use transform="translate(128.203125 39.046875)scale(0.7)" xlink:href="#DejaVuSans-50"/>
      </g>
     </g>
    </g>
    <g id="text_12">
     <!-- $\sigma_{c, PD}$ -->
     <g transform="translate(117.194118 500.35625)scale(0.1 -0.1)">
      <use transform="translate(0 0.265625)" xlink:href="#DejaVuSans-Oblique-963"/>
      <use transform="translate(63.378906 -16.140625)scale(0.7)" xlink:href="#DejaVuSans-Oblique-99"/>
      <use transform="translate(101.865234 -16.140625)scale(0.7)" xlink:href="#DejaVuSans-44"/>
      <use transform="translate(137.753906 -16.140625)scale(0.7)" xlink:href="#DejaVuSans-Oblique-80"/>
      <use transform="translate(179.96582 -16.140625)scale(0.7)" xlink:href="#DejaVuSans-Oblique-68"/>
     </g>
    </g>
   </g>
   <g id="matplotlib.axis_14">
    <g id="ytick_7">
     <g id="line2d_18">
      <g>
       <use style="stroke:#000000;stroke-width:0.8;" x="67.5" xlink:href="#ma87423ac36" y="464.945174"/>
      </g>
     </g>
     <g id="text_13">
      <!-- −2420 -->
      <g transform="translate(26.670313 468.744392)scale(0.1 -0.1)">
       <use xlink:href="#DejaVuSans-8722"/>
       <use x="83.789062" xlink:href="#DejaVuSans-50"/>
       <use x="147.412109" xlink:href="#DejaVuSans-52"/>
       <use x="211.035156" xlink:href="#DejaVuSans-50"/>
       <use x="274.658203" xlink:href="#DejaVuSans-48"/>
      </g>
     </g>
    </g>
    <g id="ytick_8">
     <g id="line2d_19">
      <g>
       <use style="stroke:#000000;stroke-width:0.8;" x="67.5" xlink:href="#ma87423ac36" y="420.401427"/>
      </g>
     </g>
     <g id="text_14">
      <!-- −2400 -->
      <g transform="translate(26.670313 424.200646)scale(0.1 -0.1)">
       <use xlink:href="#DejaVuSans-8722"/>
       <use x="83.789062" xlink:href="#DejaVuSans-50"/>
       <use x="147.412109" xlink:href="#DejaVuSans-52"/>
       <use x="211.035156" xlink:href="#DejaVuSans-48"/>
       <use x="274.658203" xlink:href="#DejaVuSans-48"/>
      </g>
     </g>
    </g>
    <g id="ytick_9">
     <g id="line2d_20">
      <g>
       <use style="stroke:#000000;stroke-width:0.8;" x="67.5" xlink:href="#ma87423ac36" y="375.857681"/>
      </g>
     </g>
     <g id="text_15">
      <!-- −2380 -->
      <g transform="translate(26.670313 379.6569)scale(0.1 -0.1)">
       <use xlink:href="#DejaVuSans-8722"/>
       <use x="83.789062" xlink:href="#DejaVuSans-50"/>
       <use x="147.412109" xlink:href="#DejaVuSans-51"/>
       <use x="211.035156" xlink:href="#DejaVuSans-56"/>
       <use x="274.658203" xlink:href="#DejaVuSans-48"/>
      </g>
     </g>
    </g>
    <g id="text_16">
     <!-- Fixed $\sigma_{m, PD}$ -->
     <g transform="translate(20.170313 440.944118)rotate(-90)scale(0.1 -0.1)">
      <defs>
       <path d="M 89.796875 33.015625 
L 83.40625 0 
L 74.421875 0 
L 80.71875 32.71875 
Q 81.109375 34.8125 81.296875 36.328125 
Q 81.5 37.84375 81.5 38.921875 
Q 81.5 43.3125 79.046875 45.75 
Q 76.609375 48.1875 72.21875 48.1875 
Q 65.671875 48.1875 60.546875 43.28125 
Q 55.421875 38.375 53.90625 30.515625 
L 47.90625 0 
L 38.921875 0 
L 45.3125 32.71875 
Q 45.703125 34.515625 45.890625 36.046875 
Q 46.09375 37.59375 46.09375 38.8125 
Q 46.09375 43.265625 43.65625 45.71875 
Q 41.21875 48.1875 36.921875 48.1875 
Q 30.28125 48.1875 25.140625 43.28125 
Q 20.015625 38.375 18.5 30.515625 
L 12.5 0 
L 3.515625 0 
L 14.203125 54.6875 
L 23.1875 54.6875 
L 21.484375 46.1875 
Q 25.140625 50.984375 30.046875 53.484375 
Q 34.96875 56 40.578125 56 
Q 46.53125 56 50.359375 52.875 
Q 54.203125 49.75 54.984375 44.1875 
Q 59.078125 49.953125 64.46875 52.96875 
Q 69.875 56 75.875 56 
Q 82.90625 56 86.734375 51.953125 
Q 90.578125 47.90625 90.578125 40.484375 
Q 90.578125 38.875 90.375 36.9375 
Q 90.1875 35.015625 89.796875 33.015625 
z
" id="DejaVuSans-Oblique-109"/>
      </defs>
      <use transform="translate(0 0.015625)" xlink:href="#DejaVuSans-70"/>
      <use transform="translate(57.519531 0.015625)" xlink:href="#DejaVuSans-105"/>
      <use transform="translate(85.302734 0.015625)" xlink:href="#DejaVuSans-120"/>
      <use transform="translate(144.482422 0.015625)" xlink:href="#DejaVuSans-101"/>
      <use transform="translate(206.005859 0.015625)" xlink:href="#DejaVuSans-100"/>
      <use transform="translate(269.482422 0.015625)" xlink:href="#DejaVuSans-32"/>
      <use transform="translate(301.269531 0.015625)" xlink:href="#DejaVuSans-Oblique-963"/>
      <use transform="translate(364.648438 -16.390625)scale(0.7)" xlink:href="#DejaVuSans-Oblique-109"/>
      <use transform="translate(432.836914 -16.390625)scale(0.7)" xlink:href="#DejaVuSans-44"/>
      <use transform="translate(468.725586 -16.390625)scale(0.7)" xlink:href="#DejaVuSans-Oblique-80"/>
      <use transform="translate(510.9375 -16.390625)scale(0.7)" xlink:href="#DejaVuSans-Oblique-68"/>
     </g>
    </g>
   </g>
   <g id="line2d_21">
    <path clip-path="url(#pad2ed43733)" d="M 168.808729 541 
L 169.2929 486.155455 
L 169.85877 437.508652 
L 170.424641 402.318138 
L 170.990511 378.837795 
L 171.556382 365.547085 
L 172.122252 361.122651 
L 172.122252 361.122651 
L 172.681864 364.338349 
L 173.241475 374.118339 
L 173.801087 389.638263 
L 174.360698 410.155313 
L 175.479921 463.685832 
L 176.756436 541 
L 176.756436 541 
" style="fill:none;stroke:#1f77b4;stroke-linecap:square;stroke-width:1.5;"/>
   </g>
   <g id="line2d_22">
    <path clip-path="url(#pad2ed43733)" d="M 67.5 365.398851 
L 190.588235 365.398851 
" style="fill:none;stroke:#ff0000;stroke-linecap:square;stroke-width:1.5;"/>
   </g>
   <g id="patch_33">
    <path d="M 67.5 472.5 
L 67.5 352.588235 
" style="fill:none;stroke:#000000;stroke-linecap:square;stroke-linejoin:miter;stroke-width:0.8;"/>
   </g>
   <g id="patch_34">
    <path d="M 190.588235 472.5 
L 190.588235 352.588235 
" style="fill:none;stroke:#000000;stroke-linecap:square;stroke-linejoin:miter;stroke-width:0.8;"/>
   </g>
   <g id="patch_35">
    <path d="M 67.5 472.5 
L 190.588235 472.5 
" style="fill:none;stroke:#000000;stroke-linecap:square;stroke-linejoin:miter;stroke-width:0.8;"/>
   </g>
   <g id="patch_36">
    <path d="M 67.5 352.588235 
L 190.588235 352.588235 
" style="fill:none;stroke:#000000;stroke-linecap:square;stroke-linejoin:miter;stroke-width:0.8;"/>
   </g>
  </g>
  <g id="axes_8">
   <g id="patch_37">
    <path d="M 215.205882 472.5 
L 338.294118 472.5 
L 338.294118 352.588235 
L 215.205882 352.588235 
z
" style="fill:#ffffff;"/>
   </g>
   <g id="matplotlib.axis_15">
    <g id="xtick_4">
     <g id="line2d_23">
      <g>
       <use style="stroke:#000000;stroke-width:0.8;" x="248.775401" xlink:href="#mcfcea04a4d" y="472.5"/>
      </g>
     </g>
     <g id="text_17">
      <!-- $\mathdefault{10^{-2}}$ -->
      <g transform="translate(237.025401 487.098437)scale(0.1 -0.1)">
       <use transform="translate(0 0.765625)" xlink:href="#DejaVuSans-49"/>
       <use transform="translate(63.623047 0.765625)" xlink:href="#DejaVuSans-48"/>
       <use transform="translate(128.203125 39.046875)scale(0.7)" xlink:href="#DejaVuSans-8722"/>
       <use transform="translate(186.855469 39.046875)scale(0.7)" xlink:href="#DejaVuSans-50"/>
      </g>
     </g>
    </g>
    <g id="xtick_5">
     <g id="line2d_24">
      <g>
       <use style="stroke:#000000;stroke-width:0.8;" x="304.724599" xlink:href="#mcfcea04a4d" y="472.5"/>
      </g>
     </g>
     <g id="text_18">
      <!-- $\mathdefault{10^{0}}$ -->
      <g transform="translate(295.924599 487.098437)scale(0.1 -0.1)">
       <use transform="translate(0 0.765625)" xlink:href="#DejaVuSans-49"/>
       <use transform="translate(63.623047 0.765625)" xlink:href="#DejaVuSans-48"/>
       <use transform="translate(128.203125 39.046875)scale(0.7)" xlink:href="#DejaVuSans-48"/>
      </g>
     </g>
    </g>
    <g id="text_19">
     <!-- $\eta$ -->
     <g transform="translate(273.55 500.75625)scale(0.1 -0.1)">
      <use xlink:href="#DejaVuSans-Oblique-951"/>
     </g>
    </g>
   </g>
   <g id="matplotlib.axis_16"/>
   <g id="line2d_25">
    <path clip-path="url(#p31ee5059ea)" d="M 220.800802 361.116994 
L 332.699198 361.116994 
L 332.699198 361.116994 
" style="fill:none;stroke:#1f77b4;stroke-linecap:square;stroke-width:1.5;"/>
   </g>
   <g id="line2d_26">
    <path clip-path="url(#p31ee5059ea)" d="M 215.205882 365.393194 
L 338.294118 365.393194 
" style="fill:none;stroke:#ff0000;stroke-linecap:square;stroke-width:1.5;"/>
   </g>
   <g id="patch_38">
    <path d="M 215.205882 472.5 
L 215.205882 352.588235 
" style="fill:none;stroke:#000000;stroke-linecap:square;stroke-linejoin:miter;stroke-width:0.8;"/>
   </g>
   <g id="patch_39">
    <path d="M 338.294118 472.5 
L 338.294118 352.588235 
" style="fill:none;stroke:#000000;stroke-linecap:square;stroke-linejoin:miter;stroke-width:0.8;"/>
   </g>
   <g id="patch_40">
    <path d="M 215.205882 472.5 
L 338.294118 472.5 
" style="fill:none;stroke:#000000;stroke-linecap:square;stroke-linejoin:miter;stroke-width:0.8;"/>
   </g>
   <g id="patch_41">
    <path d="M 215.205882 352.588235 
L 338.294118 352.588235 
" style="fill:none;stroke:#000000;stroke-linecap:square;stroke-linejoin:miter;stroke-width:0.8;"/>
   </g>
  </g>
  <g id="axes_9">
   <g id="patch_42">
    <path d="M 362.911765 472.5 
L 486 472.5 
L 486 352.588235 
L 362.911765 352.588235 
z
" style="fill:#ffffff;"/>
   </g>
   <g id="matplotlib.axis_17">
    <g id="xtick_6">
     <g id="line2d_27">
      <g>
       <use style="stroke:#000000;stroke-width:0.8;" x="362.911765" xlink:href="#mcfcea04a4d" y="472.5"/>
      </g>
     </g>
     <g id="text_20">
      <!-- $\mathdefault{10^{-3}}$ -->
      <g transform="translate(351.161765 487.098437)scale(0.1 -0.1)">
       <use transform="translate(0 0.765625)" xlink:href="#DejaVuSans-49"/>
       <use transform="translate(63.623047 0.765625)" xlink:href="#DejaVuSans-48"/>
       <use transform="translate(128.203125 39.046875)scale(0.7)" xlink:href="#DejaVuSans-8722"/>
       <use transform="translate(186.855469 39.046875)scale(0.7)" xlink:href="#DejaVuSans-51"/>
      </g>
     </g>
    </g>
    <g id="xtick_7">
     <g id="line2d_28">
      <g>
       <use style="stroke:#000000;stroke-width:0.8;" x="424.455882" xlink:href="#mcfcea04a4d" y="472.5"/>
      </g>
     </g>
     <g id="text_21">
      <!-- $\mathdefault{10^{-1}}$ -->
      <g transform="translate(412.705882 487.098437)scale(0.1 -0.1)">
       <use transform="translate(0 0.684375)" xlink:href="#DejaVuSans-49"/>
       <use transform="translate(63.623047 0.684375)" xlink:href="#DejaVuSans-48"/>
       <use transform="translate(128.203125 38.965625)scale(0.7)" xlink:href="#DejaVuSans-8722"/>
       <use transform="translate(186.855469 38.965625)scale(0.7)" xlink:href="#DejaVuSans-49"/>
      </g>
     </g>
    </g>
    <g id="xtick_8">
     <g id="line2d_29">
      <g>
       <use style="stroke:#000000;stroke-width:0.8;" x="486" xlink:href="#mcfcea04a4d" y="472.5"/>
      </g>
     </g>
     <g id="text_22">
      <!-- $\mathdefault{10^{1}}$ -->
      <g transform="translate(477.2 487.098437)scale(0.1 -0.1)">
       <use transform="translate(0 0.684375)" xlink:href="#DejaVuSans-49"/>
       <use transform="translate(63.623047 0.684375)" xlink:href="#DejaVuSans-48"/>
       <use transform="translate(128.203125 38.965625)scale(0.7)" xlink:href="#DejaVuSans-49"/>
      </g>
     </g>
    </g>
    <g id="text_23">
     <!-- $\sigma_{m, PD}$ -->
     <g transform="translate(411.105882 500.35625)scale(0.1 -0.1)">
      <use transform="translate(0 0.265625)" xlink:href="#DejaVuSans-Oblique-963"/>
      <use transform="translate(63.378906 -16.140625)scale(0.7)" xlink:href="#DejaVuSans-Oblique-109"/>
      <use transform="translate(131.567383 -16.140625)scale(0.7)" xlink:href="#DejaVuSans-44"/>
      <use transform="translate(167.456055 -16.140625)scale(0.7)" xlink:href="#DejaVuSans-Oblique-80"/>
      <use transform="translate(209.667969 -16.140625)scale(0.7)" xlink:href="#DejaVuSans-Oblique-68"/>
     </g>
    </g>
   </g>
   <g id="matplotlib.axis_18"/>
   <g id="patch_43">
    <path d="M 362.911765 472.5 
L 362.911765 352.588235 
" style="fill:none;stroke:#000000;stroke-linecap:square;stroke-linejoin:miter;stroke-width:0.8;"/>
   </g>
   <g id="patch_44">
    <path d="M 486 472.5 
L 486 352.588235 
" style="fill:none;stroke:#000000;stroke-linecap:square;stroke-linejoin:miter;stroke-width:0.8;"/>
   </g>
   <g id="patch_45">
    <path d="M 362.911765 472.5 
L 486 472.5 
" style="fill:none;stroke:#000000;stroke-linecap:square;stroke-linejoin:miter;stroke-width:0.8;"/>
   </g>
   <g id="patch_46">
    <path d="M 362.911765 352.588235 
L 486 352.588235 
" style="fill:none;stroke:#000000;stroke-linecap:square;stroke-linejoin:miter;stroke-width:0.8;"/>
   </g>
  </g>
 </g>
 <defs>
  <clipPath id="p2d4e8ddc82">
   <rect height="119.911765" width="123.088235" x="215.205882" y="64.8"/>
  </clipPath>
  <clipPath id="p64fb95cc8a">
   <rect height="119.911765" width="123.088235" x="362.911765" y="64.8"/>
  </clipPath>
  <clipPath id="pfd6b49878e">
   <rect height="119.911765" width="123.088235" x="67.5" y="208.694118"/>
  </clipPath>
  <clipPath id="pf7b62b3602">
   <rect height="119.911765" width="123.088235" x="362.911765" y="208.694118"/>
  </clipPath>
  <clipPath id="pad2ed43733">
   <rect height="119.911765" width="123.088235" x="67.5" y="352.588235"/>
  </clipPath>
  <clipPath id="p31ee5059ea">
   <rect height="119.911765" width="123.088235" x="215.205882" y="352.588235"/>
  </clipPath>
 </defs>
</svg>
