<?xml version="1.0" encoding="utf-8" standalone="no"?>
<!DOCTYPE svg PUBLIC "-//W3C//DTD SVG 1.1//EN"
  "http://www.w3.org/Graphics/SVG/1.1/DTD/svg11.dtd">
<!-- Created with matplotlib (https://matplotlib.org/) -->
<svg height="540pt" version="1.1" viewBox="0 0 540 540" width="540pt" xmlns="http://www.w3.org/2000/svg" xmlns:xlink="http://www.w3.org/1999/xlink">
 <metadata>
  <rdf:RDF xmlns:cc="http://creativecommons.org/ns#" xmlns:dc="http://purl.org/dc/elements/1.1/" xmlns:rdf="http://www.w3.org/1999/02/22-rdf-syntax-ns#">
   <cc:Work>
    <dc:type rdf:resource="http://purl.org/dc/dcmitype/StillImage"/>
    <dc:date>2022-11-04T11:52:22.876669</dc:date>
    <dc:format>image/svg+xml</dc:format>
    <dc:creator>
     <cc:Agent>
      <dc:title>Matplotlib v3.3.4, https://matplotlib.org/</dc:title>
     </cc:Agent>
    </dc:creator>
   </cc:Work>
  </rdf:RDF>
 </metadata>
 <defs>
  <style type="text/css">*{stroke-linecap:butt;stroke-linejoin:round;}</style>
 </defs>
 <g id="figure_1">
  <g id="patch_1">
   <path d="M 0 540 
L 540 540 
L 540 0 
L 0 0 
z
" style="fill:none;"/>
  </g>
  <g id="axes_1">
   <g id="patch_2">
    <path d="M 67.5 250.118182 
L 257.727273 250.118182 
L 257.727273 64.8 
L 67.5 64.8 
z
" style="fill:#ffffff;"/>
   </g>
   <g id="matplotlib.axis_1">
    <g id="xtick_1">
     <g id="line2d_1">
      <defs>
       <path d="M 0 0 
L 0 3.5 
" id="mbb96f82b7f" style="stroke:#000000;stroke-width:0.8;"/>
      </defs>
      <g>
       <use style="stroke:#000000;stroke-width:0.8;" x="94.672933" xlink:href="#mbb96f82b7f" y="250.118182"/>
      </g>
     </g>
     <g id="text_1">
      <!-- 600 -->
      <g transform="translate(85.129183 264.716619)scale(0.1 -0.1)">
       <defs>
        <path d="M 33.015625 40.375 
Q 26.375 40.375 22.484375 35.828125 
Q 18.609375 31.296875 18.609375 23.390625 
Q 18.609375 15.53125 22.484375 10.953125 
Q 26.375 6.390625 33.015625 6.390625 
Q 39.65625 6.390625 43.53125 10.953125 
Q 47.40625 15.53125 47.40625 23.390625 
Q 47.40625 31.296875 43.53125 35.828125 
Q 39.65625 40.375 33.015625 40.375 
z
M 52.59375 71.296875 
L 52.59375 62.3125 
Q 48.875 64.0625 45.09375 64.984375 
Q 41.3125 65.921875 37.59375 65.921875 
Q 27.828125 65.921875 22.671875 59.328125 
Q 17.53125 52.734375 16.796875 39.40625 
Q 19.671875 43.65625 24.015625 45.921875 
Q 28.375 48.1875 33.59375 48.1875 
Q 44.578125 48.1875 50.953125 41.515625 
Q 57.328125 34.859375 57.328125 23.390625 
Q 57.328125 12.15625 50.6875 5.359375 
Q 44.046875 -1.421875 33.015625 -1.421875 
Q 20.359375 -1.421875 13.671875 8.265625 
Q 6.984375 17.96875 6.984375 36.375 
Q 6.984375 53.65625 15.1875 63.9375 
Q 23.390625 74.21875 37.203125 74.21875 
Q 40.921875 74.21875 44.703125 73.484375 
Q 48.484375 72.75 52.59375 71.296875 
z
" id="DejaVuSans-54"/>
        <path d="M 31.78125 66.40625 
Q 24.171875 66.40625 20.328125 58.90625 
Q 16.5 51.421875 16.5 36.375 
Q 16.5 21.390625 20.328125 13.890625 
Q 24.171875 6.390625 31.78125 6.390625 
Q 39.453125 6.390625 43.28125 13.890625 
Q 47.125 21.390625 47.125 36.375 
Q 47.125 51.421875 43.28125 58.90625 
Q 39.453125 66.40625 31.78125 66.40625 
z
M 31.78125 74.21875 
Q 44.046875 74.21875 50.515625 64.515625 
Q 56.984375 54.828125 56.984375 36.375 
Q 56.984375 17.96875 50.515625 8.265625 
Q 44.046875 -1.421875 31.78125 -1.421875 
Q 19.53125 -1.421875 13.0625 8.265625 
Q 6.59375 17.96875 6.59375 36.375 
Q 6.59375 54.828125 13.0625 64.515625 
Q 19.53125 74.21875 31.78125 74.21875 
z
" id="DejaVuSans-48"/>
       </defs>
       <use xlink:href="#DejaVuSans-54"/>
       <use x="63.623047" xlink:href="#DejaVuSans-48"/>
       <use x="127.246094" xlink:href="#DejaVuSans-48"/>
      </g>
     </g>
    </g>
    <g id="xtick_2">
     <g id="line2d_2">
      <g>
       <use style="stroke:#000000;stroke-width:0.8;" x="129.67066" xlink:href="#mbb96f82b7f" y="250.118182"/>
      </g>
     </g>
     <g id="text_2">
      <!-- 800 -->
      <g transform="translate(120.12691 264.716619)scale(0.1 -0.1)">
       <defs>
        <path d="M 31.78125 34.625 
Q 24.75 34.625 20.71875 30.859375 
Q 16.703125 27.09375 16.703125 20.515625 
Q 16.703125 13.921875 20.71875 10.15625 
Q 24.75 6.390625 31.78125 6.390625 
Q 38.8125 6.390625 42.859375 10.171875 
Q 46.921875 13.96875 46.921875 20.515625 
Q 46.921875 27.09375 42.890625 30.859375 
Q 38.875 34.625 31.78125 34.625 
z
M 21.921875 38.8125 
Q 15.578125 40.375 12.03125 44.71875 
Q 8.5 49.078125 8.5 55.328125 
Q 8.5 64.0625 14.71875 69.140625 
Q 20.953125 74.21875 31.78125 74.21875 
Q 42.671875 74.21875 48.875 69.140625 
Q 55.078125 64.0625 55.078125 55.328125 
Q 55.078125 49.078125 51.53125 44.71875 
Q 48 40.375 41.703125 38.8125 
Q 48.828125 37.15625 52.796875 32.3125 
Q 56.78125 27.484375 56.78125 20.515625 
Q 56.78125 9.90625 50.3125 4.234375 
Q 43.84375 -1.421875 31.78125 -1.421875 
Q 19.734375 -1.421875 13.25 4.234375 
Q 6.78125 9.90625 6.78125 20.515625 
Q 6.78125 27.484375 10.78125 32.3125 
Q 14.796875 37.15625 21.921875 38.8125 
z
M 18.3125 54.390625 
Q 18.3125 48.734375 21.84375 45.5625 
Q 25.390625 42.390625 31.78125 42.390625 
Q 38.140625 42.390625 41.71875 45.5625 
Q 45.3125 48.734375 45.3125 54.390625 
Q 45.3125 60.0625 41.71875 63.234375 
Q 38.140625 66.40625 31.78125 66.40625 
Q 25.390625 66.40625 21.84375 63.234375 
Q 18.3125 60.0625 18.3125 54.390625 
z
" id="DejaVuSans-56"/>
       </defs>
       <use xlink:href="#DejaVuSans-56"/>
       <use x="63.623047" xlink:href="#DejaVuSans-48"/>
       <use x="127.246094" xlink:href="#DejaVuSans-48"/>
      </g>
     </g>
    </g>
    <g id="xtick_3">
     <g id="line2d_3">
      <g>
       <use style="stroke:#000000;stroke-width:0.8;" x="164.668387" xlink:href="#mbb96f82b7f" y="250.118182"/>
      </g>
     </g>
     <g id="text_3">
      <!-- 1000 -->
      <g transform="translate(151.943387 264.716619)scale(0.1 -0.1)">
       <defs>
        <path d="M 12.40625 8.296875 
L 28.515625 8.296875 
L 28.515625 63.921875 
L 10.984375 60.40625 
L 10.984375 69.390625 
L 28.421875 72.90625 
L 38.28125 72.90625 
L 38.28125 8.296875 
L 54.390625 8.296875 
L 54.390625 0 
L 12.40625 0 
z
" id="DejaVuSans-49"/>
       </defs>
       <use xlink:href="#DejaVuSans-49"/>
       <use x="63.623047" xlink:href="#DejaVuSans-48"/>
       <use x="127.246094" xlink:href="#DejaVuSans-48"/>
       <use x="190.869141" xlink:href="#DejaVuSans-48"/>
      </g>
     </g>
    </g>
    <g id="xtick_4">
     <g id="line2d_4">
      <g>
       <use style="stroke:#000000;stroke-width:0.8;" x="199.666114" xlink:href="#mbb96f82b7f" y="250.118182"/>
      </g>
     </g>
     <g id="text_4">
      <!-- 1200 -->
      <g transform="translate(186.941114 264.716619)scale(0.1 -0.1)">
       <defs>
        <path d="M 19.1875 8.296875 
L 53.609375 8.296875 
L 53.609375 0 
L 7.328125 0 
L 7.328125 8.296875 
Q 12.9375 14.109375 22.625 23.890625 
Q 32.328125 33.6875 34.8125 36.53125 
Q 39.546875 41.84375 41.421875 45.53125 
Q 43.3125 49.21875 43.3125 52.78125 
Q 43.3125 58.59375 39.234375 62.25 
Q 35.15625 65.921875 28.609375 65.921875 
Q 23.96875 65.921875 18.8125 64.3125 
Q 13.671875 62.703125 7.8125 59.421875 
L 7.8125 69.390625 
Q 13.765625 71.78125 18.9375 73 
Q 24.125 74.21875 28.421875 74.21875 
Q 39.75 74.21875 46.484375 68.546875 
Q 53.21875 62.890625 53.21875 53.421875 
Q 53.21875 48.921875 51.53125 44.890625 
Q 49.859375 40.875 45.40625 35.40625 
Q 44.1875 33.984375 37.640625 27.21875 
Q 31.109375 20.453125 19.1875 8.296875 
z
" id="DejaVuSans-50"/>
       </defs>
       <use xlink:href="#DejaVuSans-49"/>
       <use x="63.623047" xlink:href="#DejaVuSans-50"/>
       <use x="127.246094" xlink:href="#DejaVuSans-48"/>
       <use x="190.869141" xlink:href="#DejaVuSans-48"/>
      </g>
     </g>
    </g>
    <g id="xtick_5">
     <g id="line2d_5">
      <g>
       <use style="stroke:#000000;stroke-width:0.8;" x="234.663841" xlink:href="#mbb96f82b7f" y="250.118182"/>
      </g>
     </g>
     <g id="text_5">
      <!-- 1400 -->
      <g transform="translate(221.938841 264.716619)scale(0.1 -0.1)">
       <defs>
        <path d="M 37.796875 64.3125 
L 12.890625 25.390625 
L 37.796875 25.390625 
z
M 35.203125 72.90625 
L 47.609375 72.90625 
L 47.609375 25.390625 
L 58.015625 25.390625 
L 58.015625 17.1875 
L 47.609375 17.1875 
L 47.609375 0 
L 37.796875 0 
L 37.796875 17.1875 
L 4.890625 17.1875 
L 4.890625 26.703125 
z
" id="DejaVuSans-52"/>
       </defs>
       <use xlink:href="#DejaVuSans-49"/>
       <use x="63.623047" xlink:href="#DejaVuSans-52"/>
       <use x="127.246094" xlink:href="#DejaVuSans-48"/>
       <use x="190.869141" xlink:href="#DejaVuSans-48"/>
      </g>
     </g>
    </g>
    <g id="text_6">
     <!-- $R_0$ -->
     <g transform="translate(156.763636 278.394744)scale(0.1 -0.1)">
      <defs>
       <path d="M 25.203125 64.796875 
L 20.21875 38.921875 
L 32.90625 38.921875 
Q 40.375 38.921875 44.984375 43.046875 
Q 49.609375 47.171875 49.609375 53.8125 
Q 49.609375 59.125 46.5 61.953125 
Q 43.40625 64.796875 37.59375 64.796875 
z
M 43.3125 35.015625 
Q 46.4375 34.28125 48.515625 31.390625 
Q 50.59375 28.515625 53.328125 19.921875 
L 59.515625 0 
L 49.125 0 
L 43.40625 18.703125 
Q 41.21875 25.921875 38.328125 28.359375 
Q 35.453125 30.8125 29.5 30.8125 
L 18.609375 30.8125 
L 12.59375 0 
L 2.6875 0 
L 16.890625 72.90625 
L 39.109375 72.90625 
Q 49.21875 72.90625 54.609375 68.328125 
Q 60.015625 63.765625 60.015625 55.171875 
Q 60.015625 47.5625 55.421875 41.984375 
Q 50.828125 36.421875 43.3125 35.015625 
z
" id="DejaVuSans-Oblique-82"/>
      </defs>
      <use transform="translate(0 0.09375)" xlink:href="#DejaVuSans-Oblique-82"/>
      <use transform="translate(69.482422 -16.3125)scale(0.7)" xlink:href="#DejaVuSans-48"/>
     </g>
    </g>
   </g>
   <g id="matplotlib.axis_2">
    <g id="ytick_1">
     <g id="line2d_6">
      <defs>
       <path d="M 0 0 
L -3.5 0 
" id="m5ecdb716ab" style="stroke:#000000;stroke-width:0.8;"/>
      </defs>
      <g>
       <use style="stroke:#000000;stroke-width:0.8;" x="67.5" xlink:href="#m5ecdb716ab" y="238.196369"/>
      </g>
     </g>
     <g id="text_7">
      <!-- −3145 -->
      <g transform="translate(26.670313 241.995588)scale(0.1 -0.1)">
       <defs>
        <path d="M 10.59375 35.5 
L 73.1875 35.5 
L 73.1875 27.203125 
L 10.59375 27.203125 
z
" id="DejaVuSans-8722"/>
        <path d="M 40.578125 39.3125 
Q 47.65625 37.796875 51.625 33 
Q 55.609375 28.21875 55.609375 21.1875 
Q 55.609375 10.40625 48.1875 4.484375 
Q 40.765625 -1.421875 27.09375 -1.421875 
Q 22.515625 -1.421875 17.65625 -0.515625 
Q 12.796875 0.390625 7.625 2.203125 
L 7.625 11.71875 
Q 11.71875 9.328125 16.59375 8.109375 
Q 21.484375 6.890625 26.8125 6.890625 
Q 36.078125 6.890625 40.9375 10.546875 
Q 45.796875 14.203125 45.796875 21.1875 
Q 45.796875 27.640625 41.28125 31.265625 
Q 36.765625 34.90625 28.71875 34.90625 
L 20.21875 34.90625 
L 20.21875 43.015625 
L 29.109375 43.015625 
Q 36.375 43.015625 40.234375 45.921875 
Q 44.09375 48.828125 44.09375 54.296875 
Q 44.09375 59.90625 40.109375 62.90625 
Q 36.140625 65.921875 28.71875 65.921875 
Q 24.65625 65.921875 20.015625 65.03125 
Q 15.375 64.15625 9.8125 62.3125 
L 9.8125 71.09375 
Q 15.4375 72.65625 20.34375 73.4375 
Q 25.25 74.21875 29.59375 74.21875 
Q 40.828125 74.21875 47.359375 69.109375 
Q 53.90625 64.015625 53.90625 55.328125 
Q 53.90625 49.265625 50.4375 45.09375 
Q 46.96875 40.921875 40.578125 39.3125 
z
" id="DejaVuSans-51"/>
        <path d="M 10.796875 72.90625 
L 49.515625 72.90625 
L 49.515625 64.59375 
L 19.828125 64.59375 
L 19.828125 46.734375 
Q 21.96875 47.46875 24.109375 47.828125 
Q 26.265625 48.1875 28.421875 48.1875 
Q 40.625 48.1875 47.75 41.5 
Q 54.890625 34.8125 54.890625 23.390625 
Q 54.890625 11.625 47.5625 5.09375 
Q 40.234375 -1.421875 26.90625 -1.421875 
Q 22.3125 -1.421875 17.546875 -0.640625 
Q 12.796875 0.140625 7.71875 1.703125 
L 7.71875 11.625 
Q 12.109375 9.234375 16.796875 8.0625 
Q 21.484375 6.890625 26.703125 6.890625 
Q 35.15625 6.890625 40.078125 11.328125 
Q 45.015625 15.765625 45.015625 23.390625 
Q 45.015625 31 40.078125 35.4375 
Q 35.15625 39.890625 26.703125 39.890625 
Q 22.75 39.890625 18.8125 39.015625 
Q 14.890625 38.140625 10.796875 36.28125 
z
" id="DejaVuSans-53"/>
       </defs>
       <use xlink:href="#DejaVuSans-8722"/>
       <use x="83.789062" xlink:href="#DejaVuSans-51"/>
       <use x="147.412109" xlink:href="#DejaVuSans-49"/>
       <use x="211.035156" xlink:href="#DejaVuSans-52"/>
       <use x="274.658203" xlink:href="#DejaVuSans-53"/>
      </g>
     </g>
    </g>
    <g id="ytick_2">
     <g id="line2d_7">
      <g>
       <use style="stroke:#000000;stroke-width:0.8;" x="67.5" xlink:href="#m5ecdb716ab" y="199.329301"/>
      </g>
     </g>
     <g id="text_8">
      <!-- −3140 -->
      <g transform="translate(26.670313 203.12852)scale(0.1 -0.1)">
       <use xlink:href="#DejaVuSans-8722"/>
       <use x="83.789062" xlink:href="#DejaVuSans-51"/>
       <use x="147.412109" xlink:href="#DejaVuSans-49"/>
       <use x="211.035156" xlink:href="#DejaVuSans-52"/>
       <use x="274.658203" xlink:href="#DejaVuSans-48"/>
      </g>
     </g>
    </g>
    <g id="ytick_3">
     <g id="line2d_8">
      <g>
       <use style="stroke:#000000;stroke-width:0.8;" x="67.5" xlink:href="#m5ecdb716ab" y="160.462233"/>
      </g>
     </g>
     <g id="text_9">
      <!-- −3135 -->
      <g transform="translate(26.670313 164.261451)scale(0.1 -0.1)">
       <use xlink:href="#DejaVuSans-8722"/>
       <use x="83.789062" xlink:href="#DejaVuSans-51"/>
       <use x="147.412109" xlink:href="#DejaVuSans-49"/>
       <use x="211.035156" xlink:href="#DejaVuSans-51"/>
       <use x="274.658203" xlink:href="#DejaVuSans-53"/>
      </g>
     </g>
    </g>
    <g id="ytick_4">
     <g id="line2d_9">
      <g>
       <use style="stroke:#000000;stroke-width:0.8;" x="67.5" xlink:href="#m5ecdb716ab" y="121.595164"/>
      </g>
     </g>
     <g id="text_10">
      <!-- −3130 -->
      <g transform="translate(26.670313 125.394383)scale(0.1 -0.1)">
       <use xlink:href="#DejaVuSans-8722"/>
       <use x="83.789062" xlink:href="#DejaVuSans-51"/>
       <use x="147.412109" xlink:href="#DejaVuSans-49"/>
       <use x="211.035156" xlink:href="#DejaVuSans-51"/>
       <use x="274.658203" xlink:href="#DejaVuSans-48"/>
      </g>
     </g>
    </g>
    <g id="ytick_5">
     <g id="line2d_10">
      <g>
       <use style="stroke:#000000;stroke-width:0.8;" x="67.5" xlink:href="#m5ecdb716ab" y="82.728096"/>
      </g>
     </g>
     <g id="text_11">
      <!-- −3125 -->
      <g transform="translate(26.670313 86.527315)scale(0.1 -0.1)">
       <use xlink:href="#DejaVuSans-8722"/>
       <use x="83.789062" xlink:href="#DejaVuSans-51"/>
       <use x="147.412109" xlink:href="#DejaVuSans-49"/>
       <use x="211.035156" xlink:href="#DejaVuSans-50"/>
       <use x="274.658203" xlink:href="#DejaVuSans-53"/>
      </g>
     </g>
    </g>
   </g>
   <g id="line2d_11">
    <path clip-path="url(#pf1fb27ece2)" d="M 146.36302 541 
L 147.765778 471.295292 
L 149.512585 394.00222 
L 152.132795 291.559991 
L 153.879602 233.537684 
L 155.626409 184.565101 
L 157.373216 145.75385 
L 158.246619 130.211491 
L 159.120023 117.449141 
L 159.993426 107.542536 
L 160.866829 100.36584 
L 161.740233 96.175017 
L 162.613636 94.649906 
L 162.613636 94.649906 
L 163.48704 96.186163 
L 164.360443 100.320615 
L 165.233847 107.537473 
L 166.10725 117.321407 
L 166.980654 129.872565 
L 167.854057 145.152135 
L 169.600864 183.312531 
L 171.347671 230.7342 
L 173.094478 287.876002 
L 175.714688 386.839806 
L 177.461495 460.266887 
L 179.232179 541 
L 179.232179 541 
" style="fill:none;stroke:#1f77b4;stroke-linecap:square;stroke-width:1.5;"/>
   </g>
   <g id="line2d_12">
    <path clip-path="url(#pf1fb27ece2)" d="M 67.5 109.57486 
L 257.727273 109.57486 
" style="fill:none;stroke:#ff0000;stroke-linecap:square;stroke-width:1.5;"/>
   </g>
   <g id="line2d_13">
    <path clip-path="url(#pf1fb27ece2)" d="M 161.711079 250.118182 
L 161.711079 64.8 
" style="fill:none;stroke:#000000;stroke-dasharray:5.55,2.4;stroke-dashoffset:0;stroke-width:1.5;"/>
   </g>
   <g id="patch_3">
    <path d="M 67.5 250.118182 
L 67.5 64.8 
" style="fill:none;stroke:#000000;stroke-linecap:square;stroke-linejoin:miter;stroke-width:0.8;"/>
   </g>
   <g id="patch_4">
    <path d="M 257.727273 250.118182 
L 257.727273 64.8 
" style="fill:none;stroke:#000000;stroke-linecap:square;stroke-linejoin:miter;stroke-width:0.8;"/>
   </g>
   <g id="patch_5">
    <path d="M 67.5 250.118182 
L 257.727273 250.118182 
" style="fill:none;stroke:#000000;stroke-linecap:square;stroke-linejoin:miter;stroke-width:0.8;"/>
   </g>
   <g id="patch_6">
    <path d="M 67.5 64.8 
L 257.727273 64.8 
" style="fill:none;stroke:#000000;stroke-linecap:square;stroke-linejoin:miter;stroke-width:0.8;"/>
   </g>
  </g>
  <g id="axes_2">
   <g id="patch_7">
    <path d="M 295.772727 250.118182 
L 486 250.118182 
L 486 64.8 
L 295.772727 64.8 
z
" style="fill:#ffffff;"/>
   </g>
   <g id="matplotlib.axis_3">
    <g id="xtick_6">
     <g id="line2d_14">
      <g>
       <use style="stroke:#000000;stroke-width:0.8;" x="298.734458" xlink:href="#mbb96f82b7f" y="250.118182"/>
      </g>
     </g>
     <g id="text_12">
      <!-- 40 -->
      <g transform="translate(292.371958 264.716619)scale(0.1 -0.1)">
       <use xlink:href="#DejaVuSans-52"/>
       <use x="63.623047" xlink:href="#DejaVuSans-48"/>
      </g>
     </g>
    </g>
    <g id="xtick_7">
     <g id="line2d_15">
      <g>
       <use style="stroke:#000000;stroke-width:0.8;" x="339.125447" xlink:href="#mbb96f82b7f" y="250.118182"/>
      </g>
     </g>
     <g id="text_13">
      <!-- 60 -->
      <g transform="translate(332.762947 264.716619)scale(0.1 -0.1)">
       <use xlink:href="#DejaVuSans-54"/>
       <use x="63.623047" xlink:href="#DejaVuSans-48"/>
      </g>
     </g>
    </g>
    <g id="xtick_8">
     <g id="line2d_16">
      <g>
       <use style="stroke:#000000;stroke-width:0.8;" x="379.516436" xlink:href="#mbb96f82b7f" y="250.118182"/>
      </g>
     </g>
     <g id="text_14">
      <!-- 80 -->
      <g transform="translate(373.153936 264.716619)scale(0.1 -0.1)">
       <use xlink:href="#DejaVuSans-56"/>
       <use x="63.623047" xlink:href="#DejaVuSans-48"/>
      </g>
     </g>
    </g>
    <g id="xtick_9">
     <g id="line2d_17">
      <g>
       <use style="stroke:#000000;stroke-width:0.8;" x="419.907425" xlink:href="#mbb96f82b7f" y="250.118182"/>
      </g>
     </g>
     <g id="text_15">
      <!-- 100 -->
      <g transform="translate(410.363675 264.716619)scale(0.1 -0.1)">
       <use xlink:href="#DejaVuSans-49"/>
       <use x="63.623047" xlink:href="#DejaVuSans-48"/>
       <use x="127.246094" xlink:href="#DejaVuSans-48"/>
      </g>
     </g>
    </g>
    <g id="xtick_10">
     <g id="line2d_18">
      <g>
       <use style="stroke:#000000;stroke-width:0.8;" x="460.298415" xlink:href="#mbb96f82b7f" y="250.118182"/>
      </g>
     </g>
     <g id="text_16">
      <!-- 120 -->
      <g transform="translate(450.754665 264.716619)scale(0.1 -0.1)">
       <use xlink:href="#DejaVuSans-49"/>
       <use x="63.623047" xlink:href="#DejaVuSans-50"/>
       <use x="127.246094" xlink:href="#DejaVuSans-48"/>
      </g>
     </g>
    </g>
    <g id="text_17">
     <!-- $MTT$ -->
     <g transform="translate(380.436364 278.394744)scale(0.1 -0.1)">
      <defs>
       <path d="M 16.890625 72.90625 
L 31.6875 72.90625 
L 40.1875 23.78125 
L 68.40625 72.90625 
L 83.59375 72.90625 
L 69.390625 0 
L 59.8125 0 
L 72.21875 63.921875 
L 43.609375 14.015625 
L 33.984375 14.015625 
L 24.703125 64.109375 
L 12.3125 0 
L 2.6875 0 
z
" id="DejaVuSans-Oblique-77"/>
       <path d="M 5.90625 72.90625 
L 67.578125 72.90625 
L 66.015625 64.59375 
L 39.984375 64.59375 
L 27.484375 0 
L 17.578125 0 
L 30.078125 64.59375 
L 4.296875 64.59375 
z
" id="DejaVuSans-Oblique-84"/>
      </defs>
      <use transform="translate(0 0.09375)" xlink:href="#DejaVuSans-Oblique-77"/>
      <use transform="translate(86.279297 0.09375)" xlink:href="#DejaVuSans-Oblique-84"/>
      <use transform="translate(147.363281 0.09375)" xlink:href="#DejaVuSans-Oblique-84"/>
     </g>
    </g>
   </g>
   <g id="matplotlib.axis_4"/>
   <g id="line2d_19">
    <path clip-path="url(#pb6b8290a1d)" d="M 353.5187 541 
L 355.076822 509.291237 
L 357.697032 458.235114 
L 362.06405 376.060087 
L 365.557663 316.681813 
L 368.177874 276.263677 
L 370.798084 238.854233 
L 373.418295 204.722264 
L 374.291698 194.167178 
L 375.165101 185.381254 
L 376.038505 174.365169 
L 377.785312 156.697795 
L 378.658715 148.411639 
L 379.532119 142.512845 
L 380.405522 134.073722 
L 381.278926 129.026649 
L 382.152329 121.542835 
L 383.899136 111.696906 
L 384.772539 107.512145 
L 385.645943 103.997298 
L 386.519346 101.039691 
L 387.39275 98.680257 
L 388.266153 96.86678 
L 389.139557 95.594947 
L 390.01296 94.905697 
L 390.886364 94.649906 
L 390.886364 94.649906 
L 391.759767 94.893434 
L 392.633171 95.605647 
L 393.506574 96.783591 
L 395.253381 100.396612 
L 396.126784 102.846983 
L 397.873591 108.982358 
L 399.620398 116.529944 
L 401.367205 125.556824 
L 403.114012 135.801672 
L 405.734222 152.761021 
L 410.974643 189.330848 
L 411.848047 199.627231 
L 412.72145 201.449587 
L 417.961871 238.158972 
L 424.075695 277.713812 
L 424.949098 283.07904 
L 425.822502 295.125776 
L 426.695905 320.328288 
L 427.569309 298.661563 
L 428.442712 311.223531 
L 429.316116 338.312997 
L 430.189519 313.390992 
L 431.062923 326.843715 
L 431.936326 356.367782 
L 432.80973 327.196963 
L 433.683133 340.606285 
L 434.556536 371.69444 
L 435.42994 340.249708 
L 436.303343 354.520755 
L 437.176747 388.299337 
L 438.05015 352.676143 
L 438.923554 367.950182 
L 439.796957 404.710401 
L 440.670361 364.318943 
L 441.543764 380.050968 
L 442.417168 418.99286 
L 443.290571 375.945916 
L 444.163974 392.908425 
L 445.037378 435.742139 
L 445.910781 387.731731 
L 446.784185 405.209357 
L 447.657588 451.010124 
L 448.530992 399.632914 
L 449.404395 419.519847 
L 450.277799 470.377333 
L 451.151202 412.019601 
L 454.644816 429.578675 
L 458.13843 446.951294 
L 459.011833 450.612938 
L 459.885237 453.503937 
L 460.75864 455.24897 
L 464.252254 476.294473 
L 465.125657 483.093003 
L 466.872464 493.223271 
L 469.492675 509.793618 
L 472.112885 526.959052 
L 472.986289 531.993046 
L 473.859692 539.168305 
L 474.212342 541 
L 474.212342 541 
" style="fill:none;stroke:#1f77b4;stroke-linecap:square;stroke-width:1.5;"/>
   </g>
   <g id="line2d_20">
    <path clip-path="url(#pb6b8290a1d)" d="M 295.772727 109.57486 
L 486 109.57486 
" style="fill:none;stroke:#ff0000;stroke-linecap:square;stroke-width:1.5;"/>
   </g>
   <g id="line2d_21">
    <path clip-path="url(#pb6b8290a1d)" d="M 390.139266 250.118182 
L 390.139266 64.8 
" style="fill:none;stroke:#000000;stroke-dasharray:5.55,2.4;stroke-dashoffset:0;stroke-width:1.5;"/>
   </g>
   <g id="patch_8">
    <path d="M 295.772727 250.118182 
L 295.772727 64.8 
" style="fill:none;stroke:#000000;stroke-linecap:square;stroke-linejoin:miter;stroke-width:0.8;"/>
   </g>
   <g id="patch_9">
    <path d="M 486 250.118182 
L 486 64.8 
" style="fill:none;stroke:#000000;stroke-linecap:square;stroke-linejoin:miter;stroke-width:0.8;"/>
   </g>
   <g id="patch_10">
    <path d="M 295.772727 250.118182 
L 486 250.118182 
" style="fill:none;stroke:#000000;stroke-linecap:square;stroke-linejoin:miter;stroke-width:0.8;"/>
   </g>
   <g id="patch_11">
    <path d="M 295.772727 64.8 
L 486 64.8 
" style="fill:none;stroke:#000000;stroke-linecap:square;stroke-linejoin:miter;stroke-width:0.8;"/>
   </g>
  </g>
  <g id="axes_3">
   <g id="patch_12">
    <path d="M 67.5 472.5 
L 257.727273 472.5 
L 257.727273 287.181818 
L 67.5 287.181818 
z
" style="fill:#ffffff;"/>
   </g>
   <g id="matplotlib.axis_5">
    <g id="xtick_11">
     <g id="line2d_22">
      <g>
       <use style="stroke:#000000;stroke-width:0.8;" x="68.285883" xlink:href="#mbb96f82b7f" y="472.5"/>
      </g>
     </g>
     <g id="text_18">
      <!-- 0.2 -->
      <g transform="translate(60.334321 487.098437)scale(0.1 -0.1)">
       <defs>
        <path d="M 10.6875 12.40625 
L 21 12.40625 
L 21 0 
L 10.6875 0 
z
" id="DejaVuSans-46"/>
       </defs>
       <use xlink:href="#DejaVuSans-48"/>
       <use x="63.623047" xlink:href="#DejaVuSans-46"/>
       <use x="95.410156" xlink:href="#DejaVuSans-50"/>
      </g>
     </g>
    </g>
    <g id="xtick_12">
     <g id="line2d_23">
      <g>
       <use style="stroke:#000000;stroke-width:0.8;" x="107.588949" xlink:href="#mbb96f82b7f" y="472.5"/>
      </g>
     </g>
     <g id="text_19">
      <!-- 0.3 -->
      <g transform="translate(99.637387 487.098437)scale(0.1 -0.1)">
       <use xlink:href="#DejaVuSans-48"/>
       <use x="63.623047" xlink:href="#DejaVuSans-46"/>
       <use x="95.410156" xlink:href="#DejaVuSans-51"/>
      </g>
     </g>
    </g>
    <g id="xtick_13">
     <g id="line2d_24">
      <g>
       <use style="stroke:#000000;stroke-width:0.8;" x="146.892015" xlink:href="#mbb96f82b7f" y="472.5"/>
      </g>
     </g>
     <g id="text_20">
      <!-- 0.4 -->
      <g transform="translate(138.940452 487.098437)scale(0.1 -0.1)">
       <use xlink:href="#DejaVuSans-48"/>
       <use x="63.623047" xlink:href="#DejaVuSans-46"/>
       <use x="95.410156" xlink:href="#DejaVuSans-52"/>
      </g>
     </g>
    </g>
    <g id="xtick_14">
     <g id="line2d_25">
      <g>
       <use style="stroke:#000000;stroke-width:0.8;" x="186.195081" xlink:href="#mbb96f82b7f" y="472.5"/>
      </g>
     </g>
     <g id="text_21">
      <!-- 0.5 -->
      <g transform="translate(178.243518 487.098437)scale(0.1 -0.1)">
       <use xlink:href="#DejaVuSans-48"/>
       <use x="63.623047" xlink:href="#DejaVuSans-46"/>
       <use x="95.410156" xlink:href="#DejaVuSans-53"/>
      </g>
     </g>
    </g>
    <g id="xtick_15">
     <g id="line2d_26">
      <g>
       <use style="stroke:#000000;stroke-width:0.8;" x="225.498146" xlink:href="#mbb96f82b7f" y="472.5"/>
      </g>
     </g>
     <g id="text_22">
      <!-- 0.6 -->
      <g transform="translate(217.546584 487.098437)scale(0.1 -0.1)">
       <use xlink:href="#DejaVuSans-48"/>
       <use x="63.623047" xlink:href="#DejaVuSans-46"/>
       <use x="95.410156" xlink:href="#DejaVuSans-54"/>
      </g>
     </g>
    </g>
    <g id="text_23">
     <!-- $\gamma$ -->
     <g transform="translate(159.613636 500.75625)scale(0.1 -0.1)">
      <defs>
       <path d="M 23.296875 46.09375 
L 28.71875 12.3125 
L 54 54.6875 
L 63.53125 54.6875 
L 30.8125 0 
L 26.765625 -20.796875 
L 17.78125 -20.796875 
L 21.828125 0 
L 15.4375 40.828125 
Q 14.453125 46.96875 9.8125 46.96875 
L 7.421875 46.96875 
L 8.890625 54.6875 
L 12.3125 54.6875 
Q 21.921875 54.6875 23.296875 46.09375 
z
" id="DejaVuSans-Oblique-947"/>
      </defs>
      <use transform="translate(0 0.3125)" xlink:href="#DejaVuSans-Oblique-947"/>
     </g>
    </g>
   </g>
   <g id="matplotlib.axis_6">
    <g id="ytick_6">
     <g id="line2d_27">
      <g>
       <use style="stroke:#000000;stroke-width:0.8;" x="67.5" xlink:href="#m5ecdb716ab" y="460.578188"/>
      </g>
     </g>
     <g id="text_24">
      <!-- −3145 -->
      <g transform="translate(26.670313 464.377406)scale(0.1 -0.1)">
       <use xlink:href="#DejaVuSans-8722"/>
       <use x="83.789062" xlink:href="#DejaVuSans-51"/>
       <use x="147.412109" xlink:href="#DejaVuSans-49"/>
       <use x="211.035156" xlink:href="#DejaVuSans-52"/>
       <use x="274.658203" xlink:href="#DejaVuSans-53"/>
      </g>
     </g>
    </g>
    <g id="ytick_7">
     <g id="line2d_28">
      <g>
       <use style="stroke:#000000;stroke-width:0.8;" x="67.5" xlink:href="#m5ecdb716ab" y="421.711119"/>
      </g>
     </g>
     <g id="text_25">
      <!-- −3140 -->
      <g transform="translate(26.670313 425.510338)scale(0.1 -0.1)">
       <use xlink:href="#DejaVuSans-8722"/>
       <use x="83.789062" xlink:href="#DejaVuSans-51"/>
       <use x="147.412109" xlink:href="#DejaVuSans-49"/>
       <use x="211.035156" xlink:href="#DejaVuSans-52"/>
       <use x="274.658203" xlink:href="#DejaVuSans-48"/>
      </g>
     </g>
    </g>
    <g id="ytick_8">
     <g id="line2d_29">
      <g>
       <use style="stroke:#000000;stroke-width:0.8;" x="67.5" xlink:href="#m5ecdb716ab" y="382.844051"/>
      </g>
     </g>
     <g id="text_26">
      <!-- −3135 -->
      <g transform="translate(26.670313 386.64327)scale(0.1 -0.1)">
       <use xlink:href="#DejaVuSans-8722"/>
       <use x="83.789062" xlink:href="#DejaVuSans-51"/>
       <use x="147.412109" xlink:href="#DejaVuSans-49"/>
       <use x="211.035156" xlink:href="#DejaVuSans-51"/>
       <use x="274.658203" xlink:href="#DejaVuSans-53"/>
      </g>
     </g>
    </g>
    <g id="ytick_9">
     <g id="line2d_30">
      <g>
       <use style="stroke:#000000;stroke-width:0.8;" x="67.5" xlink:href="#m5ecdb716ab" y="343.976983"/>
      </g>
     </g>
     <g id="text_27">
      <!-- −3130 -->
      <g transform="translate(26.670313 347.776201)scale(0.1 -0.1)">
       <use xlink:href="#DejaVuSans-8722"/>
       <use x="83.789062" xlink:href="#DejaVuSans-51"/>
       <use x="147.412109" xlink:href="#DejaVuSans-49"/>
       <use x="211.035156" xlink:href="#DejaVuSans-51"/>
       <use x="274.658203" xlink:href="#DejaVuSans-48"/>
      </g>
     </g>
    </g>
    <g id="ytick_10">
     <g id="line2d_31">
      <g>
       <use style="stroke:#000000;stroke-width:0.8;" x="67.5" xlink:href="#m5ecdb716ab" y="305.109914"/>
      </g>
     </g>
     <g id="text_28">
      <!-- −3125 -->
      <g transform="translate(26.670313 308.909133)scale(0.1 -0.1)">
       <use xlink:href="#DejaVuSans-8722"/>
       <use x="83.789062" xlink:href="#DejaVuSans-51"/>
       <use x="147.412109" xlink:href="#DejaVuSans-49"/>
       <use x="211.035156" xlink:href="#DejaVuSans-50"/>
       <use x="274.658203" xlink:href="#DejaVuSans-53"/>
      </g>
     </g>
    </g>
   </g>
   <g id="line2d_32">
    <path clip-path="url(#p6905e6ffe9)" d="M 105.139801 541 
L 106.715815 526.993851 
L 107.589219 518.775479 
L 113.703043 470.271582 
L 116.323253 452.060772 
L 118.07006 440.121251 
L 123.310481 408.671557 
L 127.677498 386.525617 
L 130.297708 374.988137 
L 132.917919 364.787426 
L 133.791322 361.873363 
L 134.664726 358.567687 
L 135.538129 355.951598 
L 136.411533 352.861575 
L 138.15834 347.647162 
L 139.031743 345.522497 
L 139.905147 342.92507 
L 140.77855 340.966027 
L 141.651953 338.623345 
L 142.525357 336.930224 
L 143.39876 334.901877 
L 144.272164 333.158828 
L 145.145567 331.771095 
L 146.018971 329.958481 
L 147.765778 327.147139 
L 148.639181 326.13084 
L 149.512585 324.733287 
L 150.385988 323.839284 
L 151.259391 322.710218 
L 153.006198 320.976012 
L 153.879602 320.264616 
L 154.753005 320.689021 
L 155.626409 319.312897 
L 156.499812 318.528994 
L 157.373216 318.360126 
L 158.246619 317.765603 
L 159.120023 317.821751 
L 159.993426 317.325577 
L 160.866829 317.251347 
L 161.740233 317.324726 
L 162.613636 317.031724 
L 162.613636 317.031724 
L 164.360443 317.155237 
L 166.10725 317.489376 
L 167.854057 318.037776 
L 170.474267 319.217897 
L 173.094478 320.802483 
L 175.714688 322.766834 
L 178.334899 325.075613 
L 180.955109 327.765147 
L 181.828512 328.625527 
L 184.448723 331.640451 
L 185.322126 332.998533 
L 186.19553 333.748012 
L 187.068933 335.165582 
L 187.942337 335.981276 
L 188.81574 337.135935 
L 189.689144 338.565218 
L 190.562547 340.479393 
L 191.43595 340.708963 
L 192.309354 341.993392 
L 193.182757 343.685655 
L 194.056161 344.523351 
L 195.802968 347.179556 
L 196.676371 348.837765 
L 197.549775 349.919208 
L 199.296582 353.396953 
L 200.169985 355.72167 
L 201.043388 355.573816 
L 201.916792 357.278949 
L 202.790195 358.476648 
L 204.537002 361.440424 
L 205.410406 363.227047 
L 206.283809 364.444579 
L 207.157213 365.952962 
L 208.030616 367.735528 
L 208.90402 369.002559 
L 210.650826 372.320288 
L 211.52423 374.561863 
L 212.397633 377.389039 
L 213.271037 376.739402 
L 214.14444 378.560432 
L 215.017844 380.949942 
L 215.891247 383.851289 
L 216.764651 382.800424 
L 217.638054 384.341575 
L 218.511458 386.185877 
L 219.384861 388.588427 
L 220.258264 388.956673 
L 221.131668 390.811458 
L 222.005071 393.229282 
L 222.878475 396.089655 
L 223.751878 395.203064 
L 224.625282 397.034614 
L 225.498685 398.330843 
L 227.245492 401.697025 
L 228.118896 404.033405 
L 228.992299 404.563064 
L 229.865702 406.3763 
L 230.739106 407.668673 
L 231.612509 409.507915 
L 232.485913 410.714535 
L 233.359316 412.54481 
L 234.23272 414.938929 
L 235.106123 414.924075 
L 235.979527 416.67095 
L 236.85293 417.916836 
L 237.726334 419.738223 
L 238.599737 420.842713 
L 239.47314 422.652518 
L 240.346544 423.795118 
L 241.219947 425.282511 
L 242.093351 427.052354 
L 242.966754 428.223875 
L 249.080579 438.231671 
L 249.080579 438.231671 
" style="fill:none;stroke:#1f77b4;stroke-linecap:square;stroke-width:1.5;"/>
   </g>
   <g id="line2d_33">
    <path clip-path="url(#p6905e6ffe9)" d="M 67.5 331.956678 
L 257.727273 331.956678 
" style="fill:none;stroke:#ff0000;stroke-linecap:square;stroke-width:1.5;"/>
   </g>
   <g id="line2d_34">
    <path clip-path="url(#p6905e6ffe9)" d="M 162.613241 472.5 
L 162.613241 287.181818 
" style="fill:none;stroke:#000000;stroke-dasharray:5.55,2.4;stroke-dashoffset:0;stroke-width:1.5;"/>
   </g>
   <g id="patch_13">
    <path d="M 67.5 472.5 
L 67.5 287.181818 
" style="fill:none;stroke:#000000;stroke-linecap:square;stroke-linejoin:miter;stroke-width:0.8;"/>
   </g>
   <g id="patch_14">
    <path d="M 257.727273 472.5 
L 257.727273 287.181818 
" style="fill:none;stroke:#000000;stroke-linecap:square;stroke-linejoin:miter;stroke-width:0.8;"/>
   </g>
   <g id="patch_15">
    <path d="M 67.5 472.5 
L 257.727273 472.5 
" style="fill:none;stroke:#000000;stroke-linecap:square;stroke-linejoin:miter;stroke-width:0.8;"/>
   </g>
   <g id="patch_16">
    <path d="M 67.5 287.181818 
L 257.727273 287.181818 
" style="fill:none;stroke:#000000;stroke-linecap:square;stroke-linejoin:miter;stroke-width:0.8;"/>
   </g>
  </g>
  <g id="axes_4">
   <g id="patch_17">
    <path d="M 295.772727 472.5 
L 486 472.5 
L 486 287.181818 
L 295.772727 287.181818 
z
" style="fill:#ffffff;"/>
   </g>
   <g id="matplotlib.axis_7">
    <g id="xtick_16">
     <g id="line2d_35">
      <g>
       <use style="stroke:#000000;stroke-width:0.8;" x="307.76793" xlink:href="#mbb96f82b7f" y="472.5"/>
      </g>
     </g>
     <g id="text_29">
      <!-- 10 -->
      <g transform="translate(301.40543 487.098437)scale(0.1 -0.1)">
       <use xlink:href="#DejaVuSans-49"/>
       <use x="63.623047" xlink:href="#DejaVuSans-48"/>
      </g>
     </g>
    </g>
    <g id="xtick_17">
     <g id="line2d_36">
      <g>
       <use style="stroke:#000000;stroke-width:0.8;" x="352.675656" xlink:href="#mbb96f82b7f" y="472.5"/>
      </g>
     </g>
     <g id="text_30">
      <!-- 15 -->
      <g transform="translate(346.313156 487.098437)scale(0.1 -0.1)">
       <use xlink:href="#DejaVuSans-49"/>
       <use x="63.623047" xlink:href="#DejaVuSans-53"/>
      </g>
     </g>
    </g>
    <g id="xtick_18">
     <g id="line2d_37">
      <g>
       <use style="stroke:#000000;stroke-width:0.8;" x="397.583381" xlink:href="#mbb96f82b7f" y="472.5"/>
      </g>
     </g>
     <g id="text_31">
      <!-- 20 -->
      <g transform="translate(391.220881 487.098437)scale(0.1 -0.1)">
       <use xlink:href="#DejaVuSans-50"/>
       <use x="63.623047" xlink:href="#DejaVuSans-48"/>
      </g>
     </g>
    </g>
    <g id="xtick_19">
     <g id="line2d_38">
      <g>
       <use style="stroke:#000000;stroke-width:0.8;" x="442.491107" xlink:href="#mbb96f82b7f" y="472.5"/>
      </g>
     </g>
     <g id="text_32">
      <!-- 25 -->
      <g transform="translate(436.128607 487.098437)scale(0.1 -0.1)">
       <use xlink:href="#DejaVuSans-50"/>
       <use x="63.623047" xlink:href="#DejaVuSans-53"/>
      </g>
     </g>
    </g>
    <g id="text_33">
     <!-- $S$ -->
     <g transform="translate(387.686364 500.776562)scale(0.1 -0.1)">
      <defs>
       <path d="M 60.296875 70.515625 
L 58.40625 60.890625 
Q 53.46875 63.53125 48.609375 64.875 
Q 43.75 66.21875 39.203125 66.21875 
Q 30.375 66.21875 25.140625 62.359375 
Q 19.921875 58.5 19.921875 52.09375 
Q 19.921875 48.578125 21.84375 46.703125 
Q 23.78125 44.828125 31.78125 42.671875 
L 37.703125 41.21875 
Q 47.703125 38.625 51.609375 34.640625 
Q 55.515625 30.671875 55.515625 23.484375 
Q 55.515625 12.453125 46.84375 5.515625 
Q 38.1875 -1.421875 24.03125 -1.421875 
Q 18.21875 -1.421875 12.359375 -0.265625 
Q 6.5 0.875 0.59375 3.21875 
L 2.59375 13.375 
Q 8.015625 10.015625 13.453125 8.296875 
Q 18.890625 6.59375 24.3125 6.59375 
Q 33.546875 6.59375 39.109375 10.6875 
Q 44.671875 14.796875 44.671875 21.390625 
Q 44.671875 25.78125 42.453125 28.046875 
Q 40.234375 30.328125 32.90625 32.171875 
L 27 33.6875 
Q 16.890625 36.328125 13.203125 39.765625 
Q 9.515625 43.21875 9.515625 49.421875 
Q 9.515625 60.296875 17.890625 67.25 
Q 26.265625 74.21875 39.703125 74.21875 
Q 44.921875 74.21875 50.046875 73.28125 
Q 55.171875 72.359375 60.296875 70.515625 
z
" id="DejaVuSans-Oblique-83"/>
      </defs>
      <use transform="translate(0 0.78125)" xlink:href="#DejaVuSans-Oblique-83"/>
     </g>
    </g>
   </g>
   <g id="matplotlib.axis_8"/>
   <g id="line2d_39">
    <path clip-path="url(#p3127060987)" d="M 336.990757 541 
L 342.849174 496.577 
L 345.469384 478.4034 
L 348.962998 455.340627 
L 354.203418 423.352283 
L 358.570436 399.916492 
L 361.190646 387.424499 
L 362.06405 383.961555 
L 364.68426 372.25016 
L 367.30447 361.612184 
L 368.177874 358.370816 
L 369.924681 352.53776 
L 371.671488 346.805216 
L 373.418295 341.672916 
L 375.165101 337.042137 
L 376.911908 332.836146 
L 379.532119 327.549577 
L 381.278926 324.514968 
L 382.152329 323.198465 
L 384.772539 320.094553 
L 386.519346 318.587683 
L 388.266153 317.637516 
L 389.139557 317.304322 
L 390.01296 317.101704 
L 390.886364 317.031724 
L 390.886364 317.031724 
L 391.759767 317.097838 
L 392.633171 317.301241 
L 393.506574 317.643998 
L 395.253381 318.523864 
L 397.000188 320.031242 
L 398.746995 322.069672 
L 400.493802 324.589963 
L 403.114012 329.174041 
L 404.860819 332.961756 
L 406.607626 337.269865 
L 408.354433 342.089509 
L 411.848047 352.646989 
L 414.468257 361.98056 
L 417.961871 375.807474 
L 420.582081 387.462687 
L 423.202292 400.075009 
L 425.822502 413.710423 
L 428.442712 428.410144 
L 431.936326 449.29023 
L 435.42994 471.697241 
L 438.923554 495.884069 
L 442.417168 521.48945 
L 444.959677 541 
L 444.959677 541 
" style="fill:none;stroke:#1f77b4;stroke-linecap:square;stroke-width:1.5;"/>
   </g>
   <g id="line2d_40">
    <path clip-path="url(#p3127060987)" d="M 295.772727 331.956678 
L 486 331.956678 
" style="fill:none;stroke:#ff0000;stroke-linecap:square;stroke-width:1.5;"/>
   </g>
   <g id="line2d_41">
    <path clip-path="url(#p3127060987)" d="M 397.583381 472.5 
L 397.583381 287.181818 
" style="fill:none;stroke:#000000;stroke-dasharray:5.55,2.4;stroke-dashoffset:0;stroke-width:1.5;"/>
   </g>
   <g id="patch_18">
    <path d="M 295.772727 472.5 
L 295.772727 287.181818 
" style="fill:none;stroke:#000000;stroke-linecap:square;stroke-linejoin:miter;stroke-width:0.8;"/>
   </g>
   <g id="patch_19">
    <path d="M 486 472.5 
L 486 287.181818 
" style="fill:none;stroke:#000000;stroke-linecap:square;stroke-linejoin:miter;stroke-width:0.8;"/>
   </g>
   <g id="patch_20">
    <path d="M 295.772727 472.5 
L 486 472.5 
" style="fill:none;stroke:#000000;stroke-linecap:square;stroke-linejoin:miter;stroke-width:0.8;"/>
   </g>
   <g id="patch_21">
    <path d="M 295.772727 287.181818 
L 486 287.181818 
" style="fill:none;stroke:#000000;stroke-linecap:square;stroke-linejoin:miter;stroke-width:0.8;"/>
   </g>
  </g>
 </g>
 <defs>
  <clipPath id="pf1fb27ece2">
   <rect height="185.318182" width="190.227273" x="67.5" y="64.8"/>
  </clipPath>
  <clipPath id="pb6b8290a1d">
   <rect height="185.318182" width="190.227273" x="295.772727" y="64.8"/>
  </clipPath>
  <clipPath id="p6905e6ffe9">
   <rect height="185.318182" width="190.227273" x="67.5" y="287.181818"/>
  </clipPath>
  <clipPath id="p3127060987">
   <rect height="185.318182" width="190.227273" x="295.772727" y="287.181818"/>
  </clipPath>
 </defs>
</svg>
