<svg class="main-svg" xmlns="http://www.w3.org/2000/svg" xmlns:xlink="http://www.w3.org/1999/xlink" width="500" height="1200" style="" viewBox="0 0 500 1200"><rect x="0" y="0" width="500" height="1200" style="fill: rgb(255, 255, 255); fill-opacity: 1;"/><defs id="defs-b5cd10"><g class="clips"><clipPath id="clipb5cd10xyplot" class="plotclip"><rect width="340" height="272.00000000000006"/></clipPath><clipPath id="clipb5cd10x2y2plot" class="plotclip"><rect width="340" height="272"/></clipPath><clipPath id="clipb5cd10x3y3plot" class="plotclip"><rect width="340" height="272"/></clipPath><clipPath class="axesclip" id="clipb5cd10x"><rect x="80" y="0" width="340" height="1200"/></clipPath><clipPath class="axesclip" id="clipb5cd10y"><rect x="0" y="100" width="500" height="272.00000000000006"/></clipPath><clipPath class="axesclip" id="clipb5cd10xy"><rect x="80" y="100" width="340" height="272.00000000000006"/></clipPath><clipPath class="axesclip" id="clipb5cd10y2"><rect x="0" y="474.00000000000006" width="500" height="272"/></clipPath><clipPath class="axesclip" id="clipb5cd10xy2"><rect x="80" y="474.00000000000006" width="340" height="272"/></clipPath><clipPath class="axesclip" id="clipb5cd10y3"><rect x="0" y="848.0000000000001" width="500" height="272"/></clipPath><clipPath class="axesclip" id="clipb5cd10xy3"><rect x="80" y="848.0000000000001" width="340" height="272"/></clipPath><clipPath class="axesclip" id="clipb5cd10x2"><rect x="80" y="0" width="340" height="1200"/></clipPath><clipPath class="axesclip" id="clipb5cd10x2y"><rect x="80" y="100" width="340" height="272.00000000000006"/></clipPath><clipPath class="axesclip" id="clipb5cd10x2y2"><rect x="80" y="474.00000000000006" width="340" height="272"/></clipPath><clipPath class="axesclip" id="clipb5cd10x2y3"><rect x="80" y="848.0000000000001" width="340" height="272"/></clipPath><clipPath class="axesclip" id="clipb5cd10x3"><rect x="80" y="0" width="340" height="1200"/></clipPath><clipPath class="axesclip" id="clipb5cd10x3y"><rect x="80" y="100" width="340" height="272.00000000000006"/></clipPath><clipPath class="axesclip" id="clipb5cd10x3y2"><rect x="80" y="474.00000000000006" width="340" height="272"/></clipPath><clipPath class="axesclip" id="clipb5cd10x3y3"><rect x="80" y="848.0000000000001" width="340" height="272"/></clipPath></g><g class="gradients"/><g class="patterns"/></defs><g class="bglayer"/><g class="layer-below"><g class="imagelayer"/><g class="shapelayer"/></g><g class="cartesianlayer"><g class="subplot xy"><g class="layer-subplot"><g class="shapelayer"/><g class="imagelayer"/></g><g class="minor-gridlayer"><g class="x"/><g class="y"/></g><g class="gridlayer"><g class="x"><path class="xgrid crisp" transform="translate(122.5,0)" d="M0,100v272.00000000000006" style="stroke: rgb(235, 240, 248); stroke-opacity: 1; stroke-width: 1px;"/><path class="xgrid crisp" transform="translate(207.5,0)" d="M0,100v272.00000000000006" style="stroke: rgb(235, 240, 248); stroke-opacity: 1; stroke-width: 1px;"/><path class="xgrid crisp" transform="translate(292.5,0)" d="M0,100v272.00000000000006" style="stroke: rgb(235, 240, 248); stroke-opacity: 1; stroke-width: 1px;"/><path class="xgrid crisp" transform="translate(377.5,0)" d="M0,100v272.00000000000006" style="stroke: rgb(235, 240, 248); stroke-opacity: 1; stroke-width: 1px;"/></g><g class="y"><path class="ygrid crisp" transform="translate(0,321.18)" d="M80,0h340" style="stroke: rgb(235, 240, 248); stroke-opacity: 1; stroke-width: 1px;"/><path class="ygrid crisp" transform="translate(0,251.99)" d="M80,0h340" style="stroke: rgb(235, 240, 248); stroke-opacity: 1; stroke-width: 1px;"/><path class="ygrid crisp" transform="translate(0,182.79000000000002)" d="M80,0h340" style="stroke: rgb(235, 240, 248); stroke-opacity: 1; stroke-width: 1px;"/></g></g><g class="zerolinelayer"><path class="yzl zl crisp" transform="translate(0,113.6)" d="M80,0h340" style="stroke: rgb(235, 240, 248); stroke-opacity: 1; stroke-width: 2px;"/></g><path class="xlines-below"/><path class="ylines-below"/><g class="overlines-below"/><g class="xaxislayer-below"/><g class="yaxislayer-below"/><g class="overaxes-below"/><g class="plot" transform="translate(80,100)" clip-path="url(#clipb5cd10xyplot)"><g class="scatterlayer mlayer"><g class="trace scatter tracedcd84a" style="stroke-miterlimit: 2; opacity: 1;"><g class="fills"/><g class="errorbars"/><g class="lines"><path class="js-line" d="M0,258.4L10.3,228.92L13.74,219.96L17.17,211.42L20.61,231.94L34.34,187.57L37.78,177.54L48.08,150L51.52,141.68L61.82,119.27L65.25,112.66L72.12,100.73L75.56,123.99L85.86,98.49L89.29,90.83L99.6,70.41L103.03,64.46L113.33,49.14L116.77,44.88L123.64,37.66L127.07,34.68L130.51,69.28L133.94,62.64L144.24,45.25L147.68,40.29L154.55,31.64L157.98,27.94L164.85,21.82L168.28,19.39L175.15,15.8L178.59,14.64L185.45,13.6L188.89,13.72L195.76,15.22L199.19,16.62L206.06,20.68L209.49,23.37L212.93,20.13L216.36,21.9L223.23,26.69L226.67,29.73L233.54,37.08L236.97,35.29L243.84,41.66L247.27,45.48L254.14,54.39L257.58,59.48L261.01,58.79L264.44,62.95L271.31,72.53L274.75,77.95L281.62,90.07L285.05,90.56L295.35,107.82L298.79,114.41L305.66,128.87L309.09,130.56L319.39,151.31L322.83,159.07L329.7,175.84L333.13,178.72L340,194.5" style="vector-effect: non-scaling-stroke; fill: none; stroke: rgb(169, 169, 169); stroke-opacity: 1; stroke-width: 2px; opacity: 1;"/></g><g class="points"/><g class="text"/></g></g></g><g class="overplot"/><path class="xlines-above crisp" d="M0,0" style="fill: none;"/><path class="ylines-above crisp" d="M0,0" style="fill: none;"/><g class="overlines-above"/><g class="xaxislayer-above"/><g class="yaxislayer-above"><g class="ytick"><text text-anchor="end" x="79" y="4.199999999999999" transform="translate(0,321.18)" style="font-family: 'Open Sans', verdana, arial, sans-serif; font-size: 12px; fill: rgb(42, 63, 95); fill-opacity: 1; white-space: pre; opacity: 1;">−6</text></g><g class="ytick"><text text-anchor="end" x="79" y="4.199999999999999" style="font-family: 'Open Sans', verdana, arial, sans-serif; font-size: 12px; fill: rgb(42, 63, 95); fill-opacity: 1; white-space: pre; opacity: 1;" transform="translate(0,251.99)">−4</text></g><g class="ytick"><text text-anchor="end" x="79" y="4.199999999999999" style="font-family: 'Open Sans', verdana, arial, sans-serif; font-size: 12px; fill: rgb(42, 63, 95); fill-opacity: 1; white-space: pre; opacity: 1;" transform="translate(0,182.79000000000002)">−2</text></g><g class="ytick"><text text-anchor="end" x="79" y="4.199999999999999" style="font-family: 'Open Sans', verdana, arial, sans-serif; font-size: 12px; fill: rgb(42, 63, 95); fill-opacity: 1; white-space: pre; opacity: 1;" transform="translate(0,113.6)">0</text></g></g><g class="overaxes-above"/></g><g class="subplot x2y2"><g class="layer-subplot"><g class="shapelayer"/><g class="imagelayer"/></g><g class="minor-gridlayer"><g class="x2"/><g class="y2"/></g><g class="gridlayer"><g class="x2"><path class="x2grid crisp" transform="translate(122.5,0)" d="M0,474.00000000000006v272" style="stroke: rgb(235, 240, 248); stroke-opacity: 1; stroke-width: 1px;"/><path class="x2grid crisp" transform="translate(207.5,0)" d="M0,474.00000000000006v272" style="stroke: rgb(235, 240, 248); stroke-opacity: 1; stroke-width: 1px;"/><path class="x2grid crisp" transform="translate(292.5,0)" d="M0,474.00000000000006v272" style="stroke: rgb(235, 240, 248); stroke-opacity: 1; stroke-width: 1px;"/><path class="x2grid crisp" transform="translate(377.5,0)" d="M0,474.00000000000006v272" style="stroke: rgb(235, 240, 248); stroke-opacity: 1; stroke-width: 1px;"/></g><g class="y2"><path class="y2grid crisp" transform="translate(0,738.1500000000001)" d="M80,0h340" style="stroke: rgb(235, 240, 248); stroke-opacity: 1; stroke-width: 1px;"/><path class="y2grid crisp" transform="translate(0,686.8600000000001)" d="M80,0h340" style="stroke: rgb(235, 240, 248); stroke-opacity: 1; stroke-width: 1px;"/><path class="y2grid crisp" transform="translate(0,635.5600000000001)" d="M80,0h340" style="stroke: rgb(235, 240, 248); stroke-opacity: 1; stroke-width: 1px;"/><path class="y2grid crisp" transform="translate(0,532.97)" d="M80,0h340" style="stroke: rgb(235, 240, 248); stroke-opacity: 1; stroke-width: 1px;"/><path class="y2grid crisp" transform="translate(0,481.6700000000001)" d="M80,0h340" style="stroke: rgb(235, 240, 248); stroke-opacity: 1; stroke-width: 1px;"/></g></g><g class="zerolinelayer"><path class="y2zl zl crisp" transform="translate(0,584.2600000000001)" d="M80,0h340" style="stroke: rgb(235, 240, 248); stroke-opacity: 1; stroke-width: 2px;"/></g><path class="xlines-below"/><path class="ylines-below"/><g class="overlines-below"/><g class="xaxislayer-below"/><g class="yaxislayer-below"/><g class="overaxes-below"/><g class="plot" transform="translate(80,474.00000000000006)" clip-path="url(#clipb5cd10x2y2plot)"><g class="scatterlayer mlayer"><g class="trace scatter trace2faac0" style="stroke-miterlimit: 2; opacity: 1;"><g class="fills"/><g class="errorbars"/><g class="lines"><path class="js-line" d="M0,185.38L17.17,176.79L20.61,177.7L44.65,164.78L48.08,163.06L72.12,151.98L75.56,152.85L99.6,141.26L103.03,139.73L127.07,129.96L130.51,132.66L154.55,121.96L157.98,120.56L182.02,111.67L185.45,110.53L209.49,103.46L212.93,101.04L250.71,90.66L254.14,89.87L281.62,83.2L285.05,81.97L322.83,74.07L326.26,73.51L340,70.75" style="vector-effect: non-scaling-stroke; fill: none; stroke: rgb(68, 1, 84); stroke-opacity: 1; stroke-width: 1px; opacity: 1;"/></g><g class="points"/><g class="text"/></g><g class="trace scatter trace62ae96" style="stroke-miterlimit: 2; opacity: 1;"><g class="fills"/><g class="errorbars"/><g class="lines"><path class="js-line" d="M0,187.49L17.17,178.76L20.61,182.37L41.21,169.91L44.65,168L65.25,157.49L68.69,155.91L72.12,154.37L75.56,158.07L96.16,146.39L99.6,144.6L120.2,134.85L123.64,133.39L127.07,131.98L130.51,136.18L151.11,125.2L154.55,123.53L175.15,114.47L178.59,113.12L199.19,105.99L202.63,104.96L209.49,103.05L212.93,101.23L250.71,89.62L254.14,88.77L257.58,87.95L261.01,86.23L298.79,75.97L302.22,75.24L305.66,74.55L309.09,72.83L340,65.29" style="vector-effect: non-scaling-stroke; fill: none; stroke: rgb(69, 7, 90); stroke-opacity: 1; stroke-width: 1px; opacity: 1;"/></g><g class="points"/><g class="text"/></g><g class="trace scatter trace62d2c4" style="stroke-miterlimit: 2; opacity: 1;"><g class="fills"/><g class="errorbars"/><g class="lines"><path class="js-line" d="M0,153.11L17.17,148.11L20.61,146.11L58.38,136.29L61.82,135.48L72.12,133.12L75.56,130.83L113.33,123.22L116.77,122.61L127.07,120.86L130.51,117.84L168.28,112.32L171.72,111.9L206.06,108.42L209.49,108.15L219.8,107.09L223.23,106.87L233.54,106.29L236.97,105.06L257.58,104.3L261.01,103.1L281.62,102.86L285.05,101.77L305.66,102.04L309.09,101L329.7,101.78L333.13,100.73L340,101.1" style="vector-effect: non-scaling-stroke; fill: none; stroke: rgb(69, 14, 96); stroke-opacity: 1; stroke-width: 1px; opacity: 1;"/></g><g class="points"/><g class="text"/></g><g class="trace scatter tracef46f38" style="stroke-miterlimit: 2; opacity: 1;"><g class="fills"/><g class="errorbars"/><g class="lines"><path class="js-line" d="M0,128.29L41.21,120.71L44.65,120.19L85.86,114.84L89.29,114.5L123.64,111.89L127.07,111.71L185.45,110.25L188.89,110.3L223.23,111.6L226.67,111.81L267.88,115.18L271.31,115.55L305.66,119.98L309.09,120.59L340,125.79" style="vector-effect: non-scaling-stroke; fill: none; stroke: rgb(70, 20, 101); stroke-opacity: 1; stroke-width: 1px; opacity: 1;"/></g><g class="points"/><g class="text"/></g><g class="trace scatter trace4b5edd" style="stroke-miterlimit: 2; opacity: 1;"><g class="fills"/><g class="errorbars"/><g class="lines"><path class="js-line" d="M0,150.16L17.17,145.43L20.61,143.56L54.95,135.1L58.38,134.32L72.12,131.35L75.56,129.25L113.33,122.19L116.77,121.63L127.07,120.01L130.51,117.09L171.72,111.72L175.15,111.35L212.93,108.19L216.36,107.98L233.54,107.14L236.97,106.11L257.58,105.57L261.01,104.59L281.62,104.55L285.05,103.68L305.66,104.15L309.09,103.35L329.7,104.32L333.13,103.5L340,103.94" style="vector-effect: non-scaling-stroke; fill: none; stroke: rgb(71, 26, 107); stroke-opacity: 1; stroke-width: 1px; opacity: 1;"/></g><g class="points"/><g class="text"/></g><g class="trace scatter trace61aac0" style="stroke-miterlimit: 2; opacity: 1;"><g class="fills"/><g class="errorbars"/><g class="lines"><path class="js-line" d="M0,30.96L17.17,36.1L20.61,42.53L41.21,47.09L44.65,48.01L65.25,54.47L68.69,55.71L72.12,57L75.56,64.01L96.16,69.56L99.6,70.64L120.2,78.08L123.64,79.48L127.07,80.93L130.51,90.07L151.11,96.16L154.55,97.33L175.15,105.29L178.59,106.78L199.19,116.63L202.63,118.44L254.14,146.54L257.58,148.56L267.88,154.65L271.31,156.6L305.66,177.25L309.09,179.64L329.7,192.24L333.13,194.77L340,198.92" style="vector-effect: non-scaling-stroke; fill: none; stroke: rgb(71, 32, 113); stroke-opacity: 1; stroke-width: 1px; opacity: 1;"/></g><g class="points"/><g class="text"/></g><g class="trace scatter traceca2554" style="stroke-miterlimit: 2; opacity: 1;"><g class="fills"/><g class="errorbars"/><g class="lines"><path class="js-line" d="M0,148.31L17.17,143.72L20.61,141.9L58.38,132.97L61.82,132.24L72.12,130.12L75.56,128.08L113.33,121.36L116.77,120.83L127.07,119.31L130.51,116.55L168.28,111.91L171.72,111.57L209.49,108.68L212.93,108.39L233.54,107.57L236.97,106.57L257.58,106.27L261.01,105.31L281.62,105.53L285.05,104.68L305.66,105.41L309.09,104.63L329.7,105.86L333.13,105.07L340,105.59" style="vector-effect: non-scaling-stroke; fill: none; stroke: rgb(72, 39, 119); stroke-opacity: 1; stroke-width: 1px; opacity: 1;"/></g><g class="points"/><g class="text"/></g><g class="trace scatter traceec99e4" style="stroke-miterlimit: 2; opacity: 1;"><g class="fills"/><g class="errorbars"/><g class="lines"><path class="js-line" d="M0,81.63L51.52,86.23L54.95,86.69L72.12,89.35L75.56,88.45L103.03,92.75L106.46,93.4L127.07,97.81L130.51,97.24L157.98,102.86L161.41,103.67L188.89,111.03L192.32,112.06L209.49,117.59L212.93,115.59L233.54,122.74L236.97,121.35L257.58,129.04L261.01,127.48L281.62,135.69L285.05,134.23L305.66,142.96L309.09,141.19L329.7,150.43L333.13,148.72L340,151.87" style="vector-effect: non-scaling-stroke; fill: none; stroke: rgb(71, 44, 122); stroke-opacity: 1; stroke-width: 1px; opacity: 1;"/></g><g class="points"/><g class="text"/></g><g class="trace scatter traced10b48" style="stroke-miterlimit: 2; opacity: 1;"><g class="fills"/><g class="errorbars"/><g class="lines"><path class="js-line" d="M0,95.56L17.17,94.48L20.61,101.17L41.21,97.8L44.65,97.41L65.25,96.1L68.69,96.06L72.12,96.06L75.56,103.77L96.16,101.37L99.6,101.14L120.2,100.79L123.64,100.9L127.07,101.06L130.51,111.25L151.11,109.4L154.55,109.26L175.15,109.44L178.59,109.64L199.19,111.86L202.63,112.4L209.49,113.63L212.93,115.19L233.54,118.58L236.97,120.67L257.58,124.47L261.01,126.76L281.62,130.96L285.05,133.24L305.66,137.77L309.09,140.37L329.7,145.29L333.13,148.06L340,149.64" style="vector-effect: non-scaling-stroke; fill: none; stroke: rgb(69, 49, 125); stroke-opacity: 1; stroke-width: 1px; opacity: 1;"/></g><g class="points"/><g class="text"/></g><g class="trace scatter tracef5f476" style="stroke-miterlimit: 2; opacity: 1;"><g class="fills"/><g class="errorbars"/><g class="lines"><path class="js-line" d="M0,147.7L41.21,135.73L44.65,134.83L82.42,125.88L85.86,125.12L120.2,118.57L123.64,118.01L127.07,117.48L130.51,117.74L161.41,113L164.85,112.57L195.76,109.47L199.19,109.22L243.84,106.17L247.27,106.12L291.92,106.04L295.35,106.17L340,108.57" style="vector-effect: non-scaling-stroke; fill: none; stroke: rgb(68, 55, 128); stroke-opacity: 1; stroke-width: 1px; opacity: 1;"/></g><g class="points"/><g class="text"/></g><g class="trace scatter trace1b3716" style="stroke-miterlimit: 2; opacity: 1;"><g class="fills"/><g class="errorbars"/><g class="lines"><path class="js-line" d="M0,129.86L17.17,125.79L20.61,128.17L44.65,121.8L48.08,121.02L72.12,116.44L75.56,119.88L99.6,114.84L103.03,114.25L127.07,110.99L130.51,117.48L154.55,113.35L157.98,112.89L182.02,110.52L185.45,110.31L212.93,109.52L216.36,109.45L233.54,109.62L236.97,110.79L257.58,111.34L261.01,112.75L281.62,113.76L285.05,115.27L305.66,116.74L309.09,118.52L329.7,120.44L333.13,122.41L340,123.09" style="vector-effect: non-scaling-stroke; fill: none; stroke: rgb(66, 60, 130); stroke-opacity: 1; stroke-width: 1px; opacity: 1;"/></g><g class="points"/><g class="text"/></g><g class="trace scatter trace478518" style="stroke-miterlimit: 2; opacity: 1;"><g class="fills"/><g class="errorbars"/><g class="lines"><path class="js-line" d="M0,154.39L17.17,148.26L20.61,150.66L44.65,141.05L48.08,139.82L72.12,132.18L75.56,135.41L99.6,126.99L103.03,125.93L127.07,119.46L130.51,124.99L154.55,117.52L157.98,116.59L182.02,111.06L185.45,110.41L223.23,104.42L226.67,104.02L257.58,101.44L261.01,101.76L281.62,100.16L285.05,100.55L305.66,99.39L309.09,99.96L329.7,99.25L333.13,100.01L340,99.79" style="vector-effect: non-scaling-stroke; fill: none; stroke: rgb(64, 65, 133); stroke-opacity: 1; stroke-width: 1px; opacity: 1;"/></g><g class="points"/><g class="text"/></g><g class="trace scatter trace77ad77" style="stroke-miterlimit: 2; opacity: 1;"><g class="fills"/><g class="errorbars"/><g class="lines"><path class="js-line" d="M0,191.34L48.08,168.15L51.52,166.62L72.12,157.68L75.56,154.99L120.2,137.01L123.64,135.7L127.07,134.39L130.51,129.8L171.72,115.11L175.15,113.95L209.49,102.91L212.93,103.18L274.75,84.93L278.18,84.08L340,68.87" style="vector-effect: non-scaling-stroke; fill: none; stroke: rgb(63, 71, 136); stroke-opacity: 1; stroke-width: 1px; opacity: 1;"/></g><g class="points"/><g class="text"/></g><g class="trace scatter trace45c82e" style="stroke-miterlimit: 2; opacity: 1;"><g class="fills"/><g class="errorbars"/><g class="lines"><path class="js-line" d="M0,169.82L17.17,162.71L20.61,165L41.21,155.16L44.65,153.66L65.25,145.52L68.69,144.31L72.12,143.13L75.56,145.34L96.16,136.45L99.6,135.1L120.2,127.9L123.64,126.84L127.07,125.82L130.51,129.37L151.11,121.09L154.55,119.85L175.15,113.23L178.59,112.27L199.19,107.34L202.63,106.66L209.49,105.42L212.93,103.37L254.14,95.09L257.58,94.62L261.01,93.16L264.44,92.57L281.62,90.17L285.05,88.76L305.66,86.18L309.09,84.71L329.7,82.54L333.13,81.23L340,80.5" style="vector-effect: non-scaling-stroke; fill: none; stroke: rgb(61, 76, 137); stroke-opacity: 1; stroke-width: 1px; opacity: 1;"/></g><g class="points"/><g class="text"/></g><g class="trace scatter traced6ab68" style="stroke-miterlimit: 2; opacity: 1;"><g class="fills"/><g class="errorbars"/><g class="lines"><path class="js-line" d="M0,153.77L17.17,148.59L20.61,146.55L54.95,137.14L58.38,136.29L72.12,133.03L75.56,130.74L109.9,123.46L113.33,122.82L127.07,120.42L130.51,118.13L164.85,112.79L168.28,112.34L202.63,108.76L206.06,108.49L209.49,108.23L212.93,106.74L233.54,105.6L236.97,104.14L257.58,103.55L261.01,102.1L281.62,102.05L285.05,100.73L305.66,101.22L309.09,99.89L329.7,100.93L333.13,99.63L340,100.09" style="vector-effect: non-scaling-stroke; fill: none; stroke: rgb(59, 81, 138); stroke-opacity: 1; stroke-width: 1px; opacity: 1;"/></g><g class="points"/><g class="text"/></g><g class="trace scatter trace17e04d" style="stroke-miterlimit: 2; opacity: 1;"><g class="fills"/><g class="errorbars"/><g class="lines"><path class="js-line" d="M0,135.27L17.17,131.03L20.61,136.38L41.21,129.27L44.65,128.26L61.82,123.94L65.25,123.22L72.12,121.94L75.56,127.38L96.16,121.14L99.6,120.28L120.2,116.11L123.64,115.58L127.07,115.11L130.51,121.66L151.11,115.96L154.55,115.17L175.15,111.51L178.59,111.07L199.19,109.46L202.63,109.37L278.18,108.27L281.62,108.44L295.35,108.34L298.79,108.47L340,110.03" style="vector-effect: non-scaling-stroke; fill: none; stroke: rgb(45, 114, 142); stroke-opacity: 1; stroke-width: 1px; opacity: 1;"/></g><g class="points"/><g class="text"/></g><g class="trace scatter tracea9581a" style="stroke-miterlimit: 2; opacity: 1;"><g class="fills"/><g class="errorbars"/><g class="lines"><path class="js-line" d="M0,70.29L44.65,76.71L48.08,77.36L72.12,82.24L75.56,81.77L109.9,89.91L113.33,90.8L127.07,94.5L130.51,93.27L168.28,104.39L171.72,105.48L209.49,118.41L212.93,119.64L233.54,127.46L236.97,127.88L257.58,136.22L261.01,136.67L281.62,145.5L285.05,146.04L305.66,155.38L309.09,155.95L329.7,165.79L333.13,166.31L340,169.7" style="vector-effect: non-scaling-stroke; fill: none; stroke: rgb(43, 118, 142); stroke-opacity: 1; stroke-width: 1px; opacity: 1;"/></g><g class="points"/><g class="text"/></g><g class="trace scatter trace214c24" style="stroke-miterlimit: 2; opacity: 1;"><g class="fills"/><g class="errorbars"/><g class="lines"><path class="js-line" d="M0,43.27L34.34,52.29L37.78,53.25L72.12,63.74L75.56,65.52L109.9,77.38L113.33,78.66L127.07,83.96L130.51,87.01L164.85,100.79L168.28,102.27L202.63,117.95L206.06,119.61L233.54,133.58L236.97,135.79L261.01,149.14L264.44,151.02L288.48,165.1L291.92,167.09L315.96,182L319.39,184.09L340,197.48" style="vector-effect: non-scaling-stroke; fill: none; stroke: rgb(41, 122, 142); stroke-opacity: 1; stroke-width: 1px; opacity: 1;"/></g><g class="points"/><g class="text"/></g><g class="trace scatter trace0e3176" style="stroke-miterlimit: 2; opacity: 1;"><g class="fills"/><g class="errorbars"/><g class="lines"><path class="js-line" d="M0,101.32L41.21,100.15L44.65,100.15L78.99,100.94L82.42,101.07L120.2,103.3L123.64,103.58L164.85,107.43L168.28,107.85L206.06,113.32L209.49,113.89L212.93,115.88L216.36,116.47L240.4,121.47L243.84,122.16L264.44,127.12L267.88,127.89L288.48,133.34L291.92,134.2L305.66,137.74L309.09,139.41L329.7,145.13L333.13,146.76L340,148.78" style="vector-effect: non-scaling-stroke; fill: none; stroke: rgb(40, 126, 142); stroke-opacity: 1; stroke-width: 1px; opacity: 1;"/></g><g class="points"/><g class="text"/></g><g class="trace scatter tracee63cf5" style="stroke-miterlimit: 2; opacity: 1;"><g class="fills"/><g class="errorbars"/><g class="lines"><path class="js-line" d="M0,186.68L17.17,177.29L20.61,181.37L41.21,168.42L44.65,166.41L65.25,155.33L68.69,153.64L72.12,152L75.56,156.88L96.16,144.94L99.6,143.1L120.2,133.02L123.64,131.49L127.07,130.01L130.51,137.76L151.11,126.26L154.55,124.5L175.15,114.83L178.59,113.38L199.19,105.56L202.63,104.41L209.49,102.25L212.93,101.9L233.54,95.24L236.97,95.58L257.58,89.28L261.01,89.89L281.62,83.99L285.05,84.64L305.66,79.11L309.09,80.09L329.7,74.94L333.13,76.13L340,74.37" style="vector-effect: non-scaling-stroke; fill: none; stroke: rgb(38, 130, 142); stroke-opacity: 1; stroke-width: 1px; opacity: 1;"/></g><g class="points"/><g class="text"/></g><g class="trace scatter trace8ca283" style="stroke-miterlimit: 2; opacity: 1;"><g class="fills"/><g class="errorbars"/><g class="lines"><path class="js-line" d="M0,258.4L48.08,216.55L51.52,213.68L92.73,180.15L96.16,177.43L140.81,143.19L144.24,140.63L188.89,108.43L192.32,106.04L209.49,94.25L212.93,93.1L233.54,79.46L236.97,77.9L257.58,64.76L261.01,63.44L281.62,50.81L285.05,49.63L305.66,37.51L309.09,36.7L329.7,25.09L333.13,24.34L340,20.59" style="vector-effect: non-scaling-stroke; fill: none; stroke: rgb(37, 135, 141); stroke-opacity: 1; stroke-width: 1px; opacity: 1;"/></g><g class="points"/><g class="text"/></g><g class="trace scatter trace24cc5a" style="stroke-miterlimit: 2; opacity: 1;"><g class="fills"/><g class="errorbars"/><g class="lines"><path class="js-line" d="M0,168.55L17.17,161.38L20.61,160.88L48.08,149.45L51.52,148.13L72.12,140.65L75.56,140.47L103.03,130.86L106.46,129.76L127.07,123.64L130.51,125.58L157.98,117.29L161.41,116.35L188.89,109.69L192.32,108.96L209.49,105.65L212.93,104.07L243.84,99.13L247.27,98.64L281.62,94.61L285.05,94.43L309.09,92.58L312.53,92.31L336.57,91.23L340,91.06" style="vector-effect: non-scaling-stroke; fill: none; stroke: rgb(36, 140, 140); stroke-opacity: 1; stroke-width: 1px; opacity: 1;"/></g><g class="points"/><g class="text"/></g><g class="trace scatter trace1e238f" style="stroke-miterlimit: 2; opacity: 1;"><g class="fills"/><g class="errorbars"/><g class="lines"><path class="js-line" d="M0,88.37L17.17,88.29L20.61,94.82L41.21,92.63L44.65,92.45L61.82,92.28L65.25,92.4L72.12,92.79L75.56,99.52L92.73,98.37L96.16,98.3L113.33,98.66L116.77,98.89L127.07,99.87L130.51,108.05L151.11,107.33L154.55,107.39L171.72,108.41L175.15,108.77L192.32,111.3L195.76,111.96L230.1,119.76L233.54,120.68L298.79,137.75L302.22,138.78L340,150.31" style="vector-effect: non-scaling-stroke; fill: none; stroke: rgb(34, 144, 140); stroke-opacity: 1; stroke-width: 1px; opacity: 1;"/></g><g class="points"/><g class="text"/></g><g class="trace scatter trace9f30a9" style="stroke-miterlimit: 2; opacity: 1;"><g class="fills"/><g class="errorbars"/><g class="lines"><path class="js-line" d="M0,51.42L17.17,55.9L20.61,55.62L51.52,64.26L54.95,65.32L72.12,70.89L75.56,69.73L106.46,80.37L109.9,81.65L127.07,88.33L130.51,86.88L164.85,100.69L168.28,102.17L199.19,116.4L202.63,118.08L209.49,121.49L212.93,120.55L233.54,131.22L236.97,130.42L257.58,141.61L261.01,140.68L281.62,152.41L285.05,151.59L305.66,163.87L309.09,162.75L329.7,175.56L333.13,174.45L340,178.82" style="vector-effect: non-scaling-stroke; fill: none; stroke: rgb(33, 148, 139); stroke-opacity: 1; stroke-width: 1px; opacity: 1;"/></g><g class="points"/><g class="text"/></g><g class="trace scatter trace303390" style="stroke-miterlimit: 2; opacity: 1;"><g class="fills"/><g class="errorbars"/><g class="lines"><path class="js-line" d="M0,161.68L17.17,155.46L20.61,156.52L44.65,146.95L48.08,145.72L72.12,138.02L75.56,138.77L99.6,130.46L103.03,129.41L127.07,122.97L130.51,125.03L154.55,117.6L157.98,116.67L182.02,111.08L185.45,110.42L209.49,106.69L212.93,104.2L233.54,101.56L236.97,99.92L257.58,97.76L261.01,96.07L281.62,94.35L285.05,92.77L305.66,91.47L309.09,89.81L329.7,88.98L333.13,87.45L340,87.19" style="vector-effect: non-scaling-stroke; fill: none; stroke: rgb(32, 153, 138); stroke-opacity: 1; stroke-width: 1px; opacity: 1;"/></g><g class="points"/><g class="text"/></g><g class="trace scatter trace4c236d" style="stroke-miterlimit: 2; opacity: 1;"><g class="fills"/><g class="errorbars"/><g class="lines"><path class="js-line" d="M0,65.2L17.17,67.74L20.61,70.9L41.21,73.07L44.65,73.56L68.69,77.95L72.12,78.72L75.56,81.98L78.99,82.42L103.03,86.46L106.46,87.17L127.07,92.22L130.51,96.33L154.55,101.21L157.98,102.04L182.02,108.88L185.45,109.99L209.49,118.8L212.93,118.07L233.54,126.19L236.97,126.25L257.58,134.83L261.01,134.84L281.62,143.88L285.05,143.93L305.66,153.41L309.09,153.32L329.7,163.24L333.13,163.26L340,166.54" style="vector-effect: non-scaling-stroke; fill: none; stroke: rgb(31, 158, 137); stroke-opacity: 1; stroke-width: 1px; opacity: 1;"/></g><g class="points"/><g class="text"/></g><g class="trace scatter traced9de6b" style="stroke-miterlimit: 2; opacity: 1;"><g class="fills"/><g class="errorbars"/><g class="lines"><path class="js-line" d="M0,104.28L44.65,103.29L48.08,103.34L72.12,104.02L75.56,103.05L116.77,105.58L120.2,105.86L127.07,106.46L130.51,103.69L171.72,108.27L175.15,108.72L209.49,113.86L212.93,115.61L271.31,125.68L274.75,126.45L305.66,133.14L309.09,133.36L329.7,138.83L333.13,138.94L340,140.86" style="vector-effect: non-scaling-stroke; fill: none; stroke: rgb(34, 162, 135); stroke-opacity: 1; stroke-width: 1px; opacity: 1;"/></g><g class="points"/><g class="text"/></g><g class="trace scatter trace872c61" style="stroke-miterlimit: 2; opacity: 1;"><g class="fills"/><g class="errorbars"/><g class="lines"><path class="js-line" d="M0,59.02L17.17,61.38L20.61,66.9L41.21,68.51L44.65,68.93L65.25,72.4L68.69,73.13L72.12,73.91L75.56,80.19L96.16,82.77L99.6,83.35L120.2,87.77L123.64,88.66L127.07,89.59L130.51,98.17L151.11,101.31L154.55,101.98L175.15,106.94L178.59,107.92L199.19,114.7L202.63,115.99L250.71,135.01L254.14,136.47L302.22,158.18L305.66,159.81L312.53,163.37L315.96,164.9L329.7,171.45L333.13,173.66L340,176.8" style="vector-effect: non-scaling-stroke; fill: none; stroke: rgb(38, 166, 132); stroke-opacity: 1; stroke-width: 1px; opacity: 1;"/></g><g class="points"/><g class="text"/></g><g class="trace scatter traced6f683" style="stroke-miterlimit: 2; opacity: 1;"><g class="fills"/><g class="errorbars"/><g class="lines"><path class="js-line" d="M0,46.35L37.78,55.75L41.21,56.66L72.12,65.74L75.56,67.45L106.46,77.42L109.9,78.63L127.07,84.93L130.51,87.91L161.41,99.68L164.85,101.08L199.19,116.16L202.63,117.77L240.4,135.87L243.84,137.64L285.05,160.05L288.48,161.98L322.83,182.22L326.26,184.32L340,192.79" style="vector-effect: non-scaling-stroke; fill: none; stroke: rgb(41, 170, 130); stroke-opacity: 1; stroke-width: 1px; opacity: 1;"/></g><g class="points"/><g class="text"/></g><g class="trace scatter trace0a2b3c" style="stroke-miterlimit: 2; opacity: 1;"><g class="fills"/><g class="errorbars"/><g class="lines"><path class="js-line" d="M0,208.01L17.17,197.47L20.61,203.35L41.21,187.77L44.65,185.4L61.82,174.45L65.25,172.45L72.12,168.65L75.56,172.89L96.16,158.27L99.6,156.05L116.77,145.89L120.2,144.04L127.07,140.54L130.51,144.17L151.11,129.75L154.55,127.56L171.72,117.54L175.15,115.72L192.32,107.57L195.76,106.12L233.54,91.21L236.97,88.11L254.14,81.64L257.58,80.54L261.01,77.23L264.44,75.88L281.62,70.02L285.05,66.63L302.22,60.7L305.66,59.7L309.09,56.15L312.53,54.89L329.7,49.54L333.13,46.08L340,43.76" style="vector-effect: non-scaling-stroke; fill: none; stroke: rgb(45, 174, 127); stroke-opacity: 1; stroke-width: 1px; opacity: 1;"/></g><g class="points"/><g class="text"/></g><g class="trace scatter trace463a20" style="stroke-miterlimit: 2; opacity: 1;"><g class="fills"/><g class="errorbars"/><g class="lines"><path class="js-line" d="M0,185.91L44.65,164.33L48.08,162.83L72.12,152.7L75.56,150.24L113.33,135.62L116.77,134.38L127.07,130.7L130.51,128.04L168.28,115.59L171.72,114.55L206.06,104.85L209.49,103.95L219.8,101.01L223.23,100.18L257.58,91.81L261.01,90.38L319.39,79.13L322.83,78.66L340,75.78" style="vector-effect: non-scaling-stroke; fill: none; stroke: rgb(96, 200, 96); stroke-opacity: 1; stroke-width: 1px; opacity: 1;"/></g><g class="points"/><g class="text"/></g><g class="trace scatter trace9730c5" style="stroke-miterlimit: 2; opacity: 1;"><g class="fills"/><g class="errorbars"/><g class="lines"><path class="js-line" d="M0,149.63L41.21,137.02L44.65,136.06L72.12,129L75.56,128.68L106.46,121.65L109.9,120.95L127.07,117.72L130.51,118.8L161.41,113.52L164.85,113.02L195.76,109.25L199.19,108.92L233.54,106.36L236.97,106.63L257.58,105.87L261.01,106.28L281.62,106.07L285.05,106.63L305.66,106.97L309.09,107.76L329.7,108.64L333.13,109.53L340,109.93" style="vector-effect: non-scaling-stroke; fill: none; stroke: rgb(105, 204, 91); stroke-opacity: 1; stroke-width: 1px; opacity: 1;"/></g><g class="points"/><g class="text"/></g><g class="trace scatter tracecf2cb8" style="stroke-miterlimit: 2; opacity: 1;"><g class="fills"/><g class="errorbars"/><g class="lines"><path class="js-line" d="M0,74.98L34.34,78.42L37.78,78.81L72.12,83.4L75.56,84.94L113.33,91.64L116.77,92.33L127.07,94.49L130.51,96.8L164.85,104.66L168.28,105.52L206.06,115.91L209.49,116.94L212.93,119.56L216.36,120.62L233.54,126.09L236.97,128.41L257.58,135.45L261.01,138L281.62,145.55L285.05,148.2L305.66,156.24L309.09,159.26L329.7,167.83L333.13,170.84L340,173.8" style="vector-effect: non-scaling-stroke; fill: none; stroke: rgb(115, 207, 85); stroke-opacity: 1; stroke-width: 1px; opacity: 1;"/></g><g class="points"/><g class="text"/></g><g class="trace scatter trace175dd8" style="stroke-miterlimit: 2; opacity: 1;"><g class="fills"/><g class="errorbars"/><g class="lines"><path class="js-line" d="M0,106.84L17.17,105.02L20.61,109.82L41.21,106.22L44.65,105.78L65.25,104.09L68.69,103.97L72.12,103.9L75.56,108.94L96.16,106.31L99.6,106.03L120.2,105.3L123.64,105.34L127.07,105.42L130.51,112.26L151.11,110.15L154.55,109.95L175.15,109.72L178.59,109.84L199.19,111.49L202.63,111.93L274.75,122.08L278.18,122.76L312.53,129.11L315.96,129.77L340,134.98" style="vector-effect: non-scaling-stroke; fill: none; stroke: rgb(126, 210, 78); stroke-opacity: 1; stroke-width: 1px; opacity: 1;"/></g><g class="points"/><g class="text"/></g><g class="trace scatter trace1e7284" style="stroke-miterlimit: 2; opacity: 1;"><g class="fills"/><g class="errorbars"/><g class="lines"><path class="js-line" d="M0,139.57L17.17,136.25L20.61,133.89L58.38,127.76L61.82,127.28L72.12,125.93L75.56,122.59L109.9,118.91L113.33,118.62L127.07,117.57L130.51,112.45L168.28,110.59L171.72,110.5L206.06,110.32L209.49,110.37L212.93,109.15L216.36,109.23L233.54,109.83L236.97,107.61L257.58,108.79L261.01,106.47L281.62,108.17L285.05,105.95L305.66,108.16L309.09,105.77L329.7,108.49L333.13,106.04L340,107.06" style="vector-effect: non-scaling-stroke; fill: none; stroke: rgb(138, 212, 70); stroke-opacity: 1; stroke-width: 1px; opacity: 1;"/></g><g class="points"/><g class="text"/></g><g class="trace scatter traceb37811" style="stroke-miterlimit: 2; opacity: 1;"><g class="fills"/><g class="errorbars"/><g class="lines"><path class="js-line" d="M0,116.59L17.17,114.08L20.61,114.58L48.08,110.68L51.52,110.3L72.12,108.49L75.56,110.15L103.03,107.75L106.46,107.56L127.07,106.87L130.51,110.5L157.98,109.63L161.41,109.62L188.89,110.4L192.32,110.6L230.1,113.33L233.54,113.75L240.4,114.94L243.84,115.35L267.88,119.18L271.31,119.71L295.35,124.29L298.79,124.93L322.83,130.28L326.26,131.03L340,134.71" style="vector-effect: non-scaling-stroke; fill: none; stroke: rgb(149, 215, 63); stroke-opacity: 1; stroke-width: 1px; opacity: 1;"/></g><g class="points"/><g class="text"/></g><g class="trace scatter trace12d582" style="stroke-miterlimit: 2; opacity: 1;"><g class="fills"/><g class="errorbars"/><g class="lines"><path class="js-line" d="M0,152.8L17.17,146.47L20.61,152.35L41.21,142.53L44.65,141.07L65.25,133.31L68.69,132.19L72.12,131.11L75.56,137.98L96.16,129.16L99.6,127.86L120.2,121.09L123.64,120.13L127.07,119.22L130.51,128.85L151.11,120.52L154.55,119.3L175.15,112.98L178.59,112.1L199.19,107.82L202.63,107.27L209.49,106.33L212.93,107.14L233.54,104.07L236.97,105.37L257.58,102.64L261.01,104.28L281.62,101.76L285.05,103.55L305.66,101.57L309.09,103.57L329.7,101.94L333.13,104.16L340,103.55" style="vector-effect: non-scaling-stroke; fill: none; stroke: rgb(161, 217, 56); stroke-opacity: 1; stroke-width: 1px; opacity: 1;"/></g><g class="points"/><g class="text"/></g><g class="trace scatter trace25359f" style="stroke-miterlimit: 2; opacity: 1;"><g class="fills"/><g class="errorbars"/><g class="lines"><path class="js-line" d="M0,120.81L17.17,118.95L20.61,117.27L51.52,114.57L54.95,114.36L72.12,113.63L75.56,111.03L106.46,110.22L109.9,110.23L127.07,110.54L130.51,107.44L161.41,108.39L164.85,108.59L192.32,110.87L195.76,111.24L209.49,112.92L212.93,110.49L233.54,113.53L236.97,111.28L257.58,114.87L261.01,112.47L281.62,116.6L285.05,114.34L305.66,119.01L309.09,116.45L329.7,121.66L333.13,119.14L340,120.98" style="vector-effect: non-scaling-stroke; fill: none; stroke: rgb(172, 220, 49); stroke-opacity: 1; stroke-width: 1px; opacity: 1;"/></g><g class="points"/><g class="text"/></g><g class="trace scatter trace3ae1ea" style="stroke-miterlimit: 2; opacity: 1;"><g class="fills"/><g class="errorbars"/><g class="lines"><path class="js-line" d="M0,155.59L17.17,149.79L20.61,151.21L44.65,142.2L48.08,141.05L72.12,133.91L75.56,135.42L99.6,127.62L103.03,126.64L127.07,120.7L130.51,123.62L154.55,116.8L157.98,115.95L182.02,110.97L185.45,110.4L209.49,107.28L212.93,105.22L254.14,100.55L257.58,100.36L261.01,99.25L264.44,98.97L305.66,96.29L309.09,95.27L329.7,94.98L333.13,94.09L340,94.02" style="vector-effect: non-scaling-stroke; fill: none; stroke: rgb(184, 222, 43); stroke-opacity: 1; stroke-width: 1px; opacity: 1;"/></g><g class="points"/><g class="text"/></g><g class="trace scatter trace1ee960" style="stroke-miterlimit: 2; opacity: 1;"><g class="fills"/><g class="errorbars"/><g class="lines"><path class="js-line" d="M0,44.58L17.17,49.13L20.61,52.29L44.65,57.86L48.08,58.78L72.12,66.22L75.56,68.88L99.6,75.82L103.03,76.94L127.07,85.74L130.51,89.31L154.55,97.27L157.98,98.54L182.02,108.36L185.45,109.89L209.49,121.57L212.93,120.91L233.54,131.51L236.97,131.61L257.58,142.69L261.01,142.7L281.62,154.23L285.05,154.32L305.66,166.29L309.09,166.17L329.7,178.61L333.13,178.57L340,182.74" style="vector-effect: non-scaling-stroke; fill: none; stroke: rgb(195, 224, 42); stroke-opacity: 1; stroke-width: 1px; opacity: 1;"/></g><g class="points"/><g class="text"/></g><g class="trace scatter tracee2b5f0" style="stroke-miterlimit: 2; opacity: 1;"><g class="fills"/><g class="errorbars"/><g class="lines"><path class="js-line" d="M0,182.55L48.08,161.64L51.52,160.22L96.16,142.66L99.6,141.37L127.07,131.39L130.51,128.48L175.15,113.7L178.59,112.63L209.49,103.4L212.93,105.1L236.97,99.06L240.4,98.15L257.58,93.77L261.01,93.62L281.62,88.73L285.05,88.64L305.66,84.15L309.09,84.43L329.7,80.33L333.13,80.52L340,79.25" style="vector-effect: non-scaling-stroke; fill: none; stroke: rgb(207, 225, 41); stroke-opacity: 1; stroke-width: 1px; opacity: 1;"/></g><g class="points"/><g class="text"/></g><g class="trace scatter trace45c9fa" style="stroke-miterlimit: 2; opacity: 1;"><g class="fills"/><g class="errorbars"/><g class="lines"><path class="js-line" d="M0,13.6L17.17,20.87L20.61,26.48L41.21,33.82L44.65,35.19L65.25,44.32L68.69,45.99L72.12,47.71L75.56,52.94L96.16,61.25L99.6,62.78L120.2,72.88L123.64,74.71L127.07,76.58L130.51,82.47L151.11,91.45L154.55,93.09L175.15,103.83L178.59,105.77L199.19,118.29L202.63,120.53L209.49,125.13L212.93,125.63L233.54,139.27L236.97,140.06L257.58,154.11L261.01,154.81L281.62,169.24L285.05,169.95L305.66,184.79L309.09,185.25L329.7,200.47L333.13,201.02L340,206.06" style="vector-effect: non-scaling-stroke; fill: none; stroke: rgb(218, 227, 40); stroke-opacity: 1; stroke-width: 1px; opacity: 1;"/></g><g class="points"/><g class="text"/></g><g class="trace scatter trace31477a" style="stroke-miterlimit: 2; opacity: 1;"><g class="fills"/><g class="errorbars"/><g class="lines"><path class="js-line" d="M0,155.6L27.47,146.24L30.91,145.05L65.25,134.17L68.69,133.18L72.12,132.21L75.56,132.33L106.46,123.98L109.9,123.14L127.07,119.2L130.51,121.21L161.41,114.57L164.85,113.92L195.76,108.86L199.19,108.39L226.67,105.37L230.1,105.03L233.54,104.71L236.97,105.32L257.58,103.71L261.01,104.52L281.62,103.48L285.05,104.42L305.66,103.92L309.09,105.19L329.7,105.24L333.13,106.61L340,106.74" style="vector-effect: non-scaling-stroke; fill: none; stroke: rgb(230, 228, 39); stroke-opacity: 1; stroke-width: 1px; opacity: 1;"/></g><g class="points"/><g class="text"/></g><g class="trace scatter tracedc4988" style="stroke-miterlimit: 2; opacity: 1;"><g class="fills"/><g class="errorbars"/><g class="lines"><path class="js-line" d="M0,85.02L17.17,85.56L20.61,93.9L37.78,91.84L41.21,91.62L58.38,91.51L61.82,91.69L72.12,92.61L75.56,100.94L92.73,99.32L96.16,99.19L113.33,99.5L116.77,99.76L127.07,100.92L130.51,108.14L147.68,106.99L151.11,106.95L168.28,107.73L171.72,108.08L188.89,110.78L192.32,111.52L209.49,116.22L212.93,117.12L230.1,121.46L233.54,122.53L236.97,122.19L240.4,123.01L257.58,128.1L261.01,127.56L278.18,132.65L281.62,133.87L285.05,133.17L288.48,134.12L305.66,139.8L309.09,138.93L326.26,144.52L329.7,145.83L333.13,145.08L336.57,146.14L340,147.26" style="vector-effect: non-scaling-stroke; fill: none; stroke: rgb(241, 230, 38); stroke-opacity: 1; stroke-width: 1px; opacity: 1;"/></g><g class="points"/><g class="text"/></g><g class="trace scatter trace9c836f" style="stroke-miterlimit: 2; opacity: 1;"><g class="fills"/><g class="errorbars"/><g class="lines"><path class="js-line" d="M0,147.9L17.17,142.03L20.61,141.92L54.95,131.09L58.38,130.11L72.12,126.33L75.56,128.17L106.46,120.24L109.9,119.44L127.07,115.73L130.51,120.35L161.41,114.19L164.85,113.6L195.76,109L199.19,108.58L209.49,107.42L212.93,108.45L233.54,106.59L236.97,108.71L257.58,107.42L261.01,109.88L281.62,109.14L285.05,111.75L305.66,111.57L309.09,114.71L329.7,115.07L333.13,118.36L340,118.6" style="vector-effect: non-scaling-stroke; fill: none; stroke: rgb(253, 231, 37); stroke-opacity: 1; stroke-width: 1px; opacity: 1;"/></g><g class="points"/><g class="text"/></g></g></g><g class="overplot"/><path class="xlines-above crisp" d="M0,0" style="fill: none;"/><path class="ylines-above crisp" d="M0,0" style="fill: none;"/><g class="overlines-above"/><g class="xaxislayer-above"/><g class="yaxislayer-above"><g class="y2tick"><text text-anchor="end" x="79" y="4.199999999999999" transform="translate(0,738.1500000000001)" style="font-family: 'Open Sans', verdana, arial, sans-serif; font-size: 12px; fill: rgb(42, 63, 95); fill-opacity: 1; white-space: pre; opacity: 1;">−1.5</text></g><g class="y2tick"><text text-anchor="end" x="79" y="4.199999999999999" style="font-family: 'Open Sans', verdana, arial, sans-serif; font-size: 12px; fill: rgb(42, 63, 95); fill-opacity: 1; white-space: pre; opacity: 1;" transform="translate(0,686.8600000000001)">−1</text></g><g class="y2tick"><text text-anchor="end" x="79" y="4.199999999999999" style="font-family: 'Open Sans', verdana, arial, sans-serif; font-size: 12px; fill: rgb(42, 63, 95); fill-opacity: 1; white-space: pre; opacity: 1;" transform="translate(0,635.5600000000001)">−0.5</text></g><g class="y2tick"><text text-anchor="end" x="79" y="4.199999999999999" style="font-family: 'Open Sans', verdana, arial, sans-serif; font-size: 12px; fill: rgb(42, 63, 95); fill-opacity: 1; white-space: pre; opacity: 1;" transform="translate(0,584.2600000000001)">0</text></g><g class="y2tick"><text text-anchor="end" x="79" y="4.199999999999999" style="font-family: 'Open Sans', verdana, arial, sans-serif; font-size: 12px; fill: rgb(42, 63, 95); fill-opacity: 1; white-space: pre; opacity: 1;" transform="translate(0,532.97)">0.5</text></g><g class="y2tick"><text text-anchor="end" x="79" y="4.199999999999999" style="font-family: 'Open Sans', verdana, arial, sans-serif; font-size: 12px; fill: rgb(42, 63, 95); fill-opacity: 1; white-space: pre; opacity: 1;" transform="translate(0,481.6700000000001)">1</text></g></g><g class="overaxes-above"/></g><g class="subplot x3y3"><g class="layer-subplot"><g class="shapelayer"/><g class="imagelayer"/></g><g class="minor-gridlayer"><g class="x3"/><g class="y3"/></g><g class="gridlayer"><g class="x3"><path class="x3grid crisp" transform="translate(122.5,0)" d="M0,848.0000000000001v272" style="stroke: rgb(235, 240, 248); stroke-opacity: 1; stroke-width: 1px;"/><path class="x3grid crisp" transform="translate(207.5,0)" d="M0,848.0000000000001v272" style="stroke: rgb(235, 240, 248); stroke-opacity: 1; stroke-width: 1px;"/><path class="x3grid crisp" transform="translate(292.5,0)" d="M0,848.0000000000001v272" style="stroke: rgb(235, 240, 248); stroke-opacity: 1; stroke-width: 1px;"/><path class="x3grid crisp" transform="translate(377.5,0)" d="M0,848.0000000000001v272" style="stroke: rgb(235, 240, 248); stroke-opacity: 1; stroke-width: 1px;"/></g><g class="y3"><path class="y3grid crisp" transform="translate(0,1105.0100000000002)" d="M80,0h340" style="stroke: rgb(235, 240, 248); stroke-opacity: 1; stroke-width: 1px;"/><path class="y3grid crisp" transform="translate(0,1059.65)" d="M80,0h340" style="stroke: rgb(235, 240, 248); stroke-opacity: 1; stroke-width: 1px;"/><path class="y3grid crisp" transform="translate(0,1014.2800000000001)" d="M80,0h340" style="stroke: rgb(235, 240, 248); stroke-opacity: 1; stroke-width: 1px;"/><path class="y3grid crisp" transform="translate(0,923.5600000000002)" d="M80,0h340" style="stroke: rgb(235, 240, 248); stroke-opacity: 1; stroke-width: 1px;"/><path class="y3grid crisp" transform="translate(0,878.2000000000002)" d="M80,0h340" style="stroke: rgb(235, 240, 248); stroke-opacity: 1; stroke-width: 1px;"/></g></g><g class="zerolinelayer"><path class="y3zl zl crisp" transform="translate(0,968.9200000000001)" d="M80,0h340" style="stroke: rgb(235, 240, 248); stroke-opacity: 1; stroke-width: 2px;"/></g><path class="xlines-below"/><path class="ylines-below"/><g class="overlines-below"/><g class="xaxislayer-below"/><g class="yaxislayer-below"/><g class="overaxes-below"/><g class="plot" transform="translate(80,848.0000000000001)" clip-path="url(#clipb5cd10x3y3plot)"><g class="scatterlayer mlayer"><g class="trace scatter trace132044" style="stroke-miterlimit: 2; opacity: 1;"><g class="fills"/><g class="errorbars"/><g class="lines"><path class="js-line" d="M0,248.47L17.17,248.47L20.61,206.87L72.12,206.87L75.56,167.56L127.07,167.56L130.51,120.92L209.49,120.92L212.93,103.49L233.54,103.49L236.97,85.78L257.58,85.78L261.01,68.2L281.62,68.2L285.05,50.77L305.66,50.77L309.09,32.87L329.7,32.87L333.13,15.79L340,15.79" style="vector-effect: non-scaling-stroke; fill: none; stroke: rgb(68, 1, 84); stroke-opacity: 1; stroke-width: 1px; opacity: 1;"/></g><g class="points"/><g class="text"/></g><g class="trace scatter trace340c65" style="stroke-miterlimit: 2; opacity: 1;"><g class="fills"/><g class="errorbars"/><g class="lines"><path class="js-line" d="M0,229L17.17,229L20.61,192.78L72.12,192.78L75.56,157.22L127.07,157.22L130.51,120.92L209.49,120.92L212.93,105.25L233.54,105.25L236.97,90.67L257.58,90.67L261.01,75.63L281.62,75.63L285.05,60.76L305.66,60.76L309.09,45.56L329.7,45.56L333.13,30.58L340,30.58" style="vector-effect: non-scaling-stroke; fill: none; stroke: rgb(69, 7, 90); stroke-opacity: 1; stroke-width: 1px; opacity: 1;"/></g><g class="points"/><g class="text"/></g><g class="trace scatter traceed0857" style="stroke-miterlimit: 2; opacity: 1;"><g class="fills"/><g class="errorbars"/><g class="lines"><path class="js-line" d="M0,194.48L17.17,194.48L20.61,174.83L72.12,174.83L75.56,156.28L127.07,156.28L130.51,120.92L233.54,121.14L236.97,113.93L257.58,113.93L261.01,104.38L281.62,104.38L285.05,94.58L305.66,94.58L309.09,83.54L329.7,83.54L333.13,75.02L340,75.02" style="vector-effect: non-scaling-stroke; fill: none; stroke: rgb(69, 14, 96); stroke-opacity: 1; stroke-width: 1px; opacity: 1;"/></g><g class="points"/><g class="text"/></g><g class="trace scatter trace476b56" style="stroke-miterlimit: 2; opacity: 1;"><g class="fills"/><g class="errorbars"/><g class="lines"><path class="js-line" d="M0,214.44L17.17,214.44L20.61,188.35L72.12,188.35L75.56,165.5L127.07,165.5L130.51,120.92L209.49,120.92L212.93,119.37L233.54,119.37L236.97,105.1L257.58,105.1L261.01,93.59L281.62,93.59L285.05,80.43L305.66,80.43L309.09,70.63L329.7,70.63L333.13,55.34L340,55.34" style="vector-effect: non-scaling-stroke; fill: none; stroke: rgb(70, 20, 101); stroke-opacity: 1; stroke-width: 1px; opacity: 1;"/></g><g class="points"/><g class="text"/></g><g class="trace scatter traceee828f" style="stroke-miterlimit: 2; opacity: 1;"><g class="fills"/><g class="errorbars"/><g class="lines"><path class="js-line" d="M0,185.41L17.17,185.41L20.61,169.53L72.12,169.53L75.56,154.01L127.07,154.01L130.51,120.92L209.49,120.92L212.93,124.37L233.54,124.37L236.97,116.75L257.58,116.75L261.01,107.67L281.62,107.67L285.05,99.53L305.66,99.53L309.09,90.55L329.7,90.55L333.13,82.5L340,82.5" style="vector-effect: non-scaling-stroke; fill: none; stroke: rgb(71, 26, 107); stroke-opacity: 1; stroke-width: 1px; opacity: 1;"/></g><g class="points"/><g class="text"/></g><g class="trace scatter tracef75d22" style="stroke-miterlimit: 2; opacity: 1;"><g class="fills"/><g class="errorbars"/><g class="lines"><path class="js-line" d="M0,230.31L17.17,230.31L20.61,195.33L72.12,195.33L75.56,160.38L127.07,160.38L130.51,120.92L209.49,120.92L212.93,105.45L233.54,105.45L236.97,90L257.58,90L261.01,74.95L281.62,74.95L285.05,59.53L305.66,59.53L309.09,44.21L329.7,44.21L333.13,29.02L340,29.02" style="vector-effect: non-scaling-stroke; fill: none; stroke: rgb(71, 32, 113); stroke-opacity: 1; stroke-width: 1px; opacity: 1;"/></g><g class="points"/><g class="text"/></g><g class="trace scatter trace0572ab" style="stroke-miterlimit: 2; opacity: 1;"><g class="fills"/><g class="errorbars"/><g class="lines"><path class="js-line" d="M0,190.49L17.17,190.49L20.61,171.46L72.12,171.46L75.56,154.04L127.07,154.04L130.51,120.92L209.49,120.92L212.93,122.56L233.54,122.56L236.97,113.41L257.58,113.41L261.01,104.61L281.62,104.61L285.05,96.92L305.66,96.92L309.09,84.87L329.7,84.87L333.13,76.3L340,76.3" style="vector-effect: non-scaling-stroke; fill: none; stroke: rgb(72, 39, 119); stroke-opacity: 1; stroke-width: 1px; opacity: 1;"/></g><g class="points"/><g class="text"/></g><g class="trace scatter trace551027" style="stroke-miterlimit: 2; opacity: 1;"><g class="fills"/><g class="errorbars"/><g class="lines"><path class="js-line" d="M0,252.92L17.17,252.92L20.61,213.63L72.12,213.63L75.56,172.72L127.07,172.72L130.51,120.92L209.49,120.92L212.93,105.19L233.54,105.19L236.97,87.54L257.58,87.54L261.01,69.3L281.62,69.3L285.05,51.11L305.66,51.11L309.09,33.06L329.7,33.06L333.13,15.17L340,15.17" style="vector-effect: non-scaling-stroke; fill: none; stroke: rgb(71, 44, 122); stroke-opacity: 1; stroke-width: 1px; opacity: 1;"/></g><g class="points"/><g class="text"/></g><g class="trace scatter trace972d46" style="stroke-miterlimit: 2; opacity: 1;"><g class="fills"/><g class="errorbars"/><g class="lines"><path class="js-line" d="M0,225.95L17.17,225.95L20.61,190.84L72.12,190.84L75.56,157.72L127.07,157.72L130.51,120.92L209.49,120.92L212.93,105.45L233.54,105.45L236.97,91.18L257.58,91.18L261.01,76.72L281.62,76.72L285.05,61.65L305.66,61.65L309.09,47.2L329.7,47.2L333.13,32.9L340,32.9" style="vector-effect: non-scaling-stroke; fill: none; stroke: rgb(69, 49, 125); stroke-opacity: 1; stroke-width: 1px; opacity: 1;"/></g><g class="points"/><g class="text"/></g><g class="trace scatter traceca8a73" style="stroke-miterlimit: 2; opacity: 1;"><g class="fills"/><g class="errorbars"/><g class="lines"><path class="js-line" d="M0,240.15L17.17,240.15L20.61,203.6L72.12,203.6L75.56,168.59L127.07,168.59L130.51,120.92L209.49,120.92L212.93,110.16L233.54,110.16L236.97,94.93L257.58,94.93L261.01,78.66L281.62,78.66L285.05,62.41L305.66,62.41L309.09,45.49L329.7,45.49L333.13,30.59L340,30.59" style="vector-effect: non-scaling-stroke; fill: none; stroke: rgb(68, 55, 128); stroke-opacity: 1; stroke-width: 1px; opacity: 1;"/></g><g class="points"/><g class="text"/></g><g class="trace scatter tracefaf1c7" style="stroke-miterlimit: 2; opacity: 1;"><g class="fills"/><g class="errorbars"/><g class="lines"><path class="js-line" d="M0,249.71L17.17,249.71L20.61,209.48L72.12,209.48L75.56,168.99L127.07,168.99L130.51,120.92L209.49,120.92L212.93,104.07L233.54,104.07L236.97,85.53L257.58,85.53L261.01,67.73L281.62,67.73L285.05,49.68L305.66,49.68L309.09,31.82L329.7,31.82L333.13,14.28L340,14.28" style="vector-effect: non-scaling-stroke; fill: none; stroke: rgb(66, 60, 130); stroke-opacity: 1; stroke-width: 1px; opacity: 1;"/></g><g class="points"/><g class="text"/></g><g class="trace scatter trace1c4b13" style="stroke-miterlimit: 2; opacity: 1;"><g class="fills"/><g class="errorbars"/><g class="lines"><path class="js-line" d="M0,244.76L17.17,244.76L20.61,204.72L72.12,204.72L75.56,164.54L127.07,164.54L130.51,120.92L209.49,120.92L212.93,103.48L233.54,103.48L236.97,86.53L257.58,86.53L261.01,69.72L281.62,69.72L285.05,52.33L305.66,52.33L309.09,35.23L329.7,35.23L333.13,18.75L340,18.75" style="vector-effect: non-scaling-stroke; fill: none; stroke: rgb(64, 65, 133); stroke-opacity: 1; stroke-width: 1px; opacity: 1;"/></g><g class="points"/><g class="text"/></g><g class="trace scatter trace8c70f1" style="stroke-miterlimit: 2; opacity: 1;"><g class="fills"/><g class="errorbars"/><g class="lines"><path class="js-line" d="M0,131.21L17.17,131.21L20.61,133.76L72.12,133.76L75.56,132.55L127.07,132.55L130.51,120.92L209.49,120.92L212.93,135.63L257.58,134.94L261.01,133.62L305.66,134.26L309.09,130.44L340,130.86" style="vector-effect: non-scaling-stroke; fill: none; stroke: rgb(63, 71, 136); stroke-opacity: 1; stroke-width: 1px; opacity: 1;"/></g><g class="points"/><g class="text"/></g><g class="trace scatter trace8d9aec" style="stroke-miterlimit: 2; opacity: 1;"><g class="fills"/><g class="errorbars"/><g class="lines"><path class="js-line" d="M0,236.53L17.17,236.53L20.61,200.02L72.12,200.02L75.56,162.62L127.07,162.62L130.51,120.92L209.49,120.92L212.93,104.41L233.54,104.41L236.97,87.99L257.58,87.99L261.01,72.21L281.62,72.21L285.05,56.11L305.66,56.11L309.09,40.02L329.7,40.02L333.13,24.29L340,24.29" style="vector-effect: non-scaling-stroke; fill: none; stroke: rgb(61, 76, 137); stroke-opacity: 1; stroke-width: 1px; opacity: 1;"/></g><g class="points"/><g class="text"/></g><g class="trace scatter trace9f5d1f" style="stroke-miterlimit: 2; opacity: 1;"><g class="fills"/><g class="errorbars"/><g class="lines"><path class="js-line" d="M0,229.63L17.17,229.63L20.61,199.42L72.12,199.42L75.56,166.6L127.07,166.6L130.51,120.92L209.49,120.92L212.93,115.61L233.54,115.61L236.97,101.12L257.58,101.12L261.01,86.98L281.62,86.98L285.05,71.77L305.66,71.77L309.09,58.44L329.7,58.44L333.13,45.28L340,45.28" style="vector-effect: non-scaling-stroke; fill: none; stroke: rgb(59, 81, 138); stroke-opacity: 1; stroke-width: 1px; opacity: 1;"/></g><g class="points"/><g class="text"/></g><g class="trace scatter trace872949" style="stroke-miterlimit: 2; opacity: 1;"><g class="fills"/><g class="errorbars"/><g class="lines"><path class="js-line" d="M0,224.69L17.17,224.69L20.61,190.79L72.12,190.79L75.56,157.41L127.07,157.41L130.51,120.92L209.49,120.92L212.93,106.01L233.54,106.01L236.97,91.29L257.58,91.29L261.01,76.86L281.62,76.86L285.05,61.86L305.66,61.86L309.09,47.38L329.7,47.38L333.13,33.05L340,33.05" style="vector-effect: non-scaling-stroke; fill: none; stroke: rgb(45, 114, 142); stroke-opacity: 1; stroke-width: 1px; opacity: 1;"/></g><g class="points"/><g class="text"/></g><g class="trace scatter tracea9f566" style="stroke-miterlimit: 2; opacity: 1;"><g class="fills"/><g class="errorbars"/><g class="lines"><path class="js-line" d="M0,197.61L17.17,197.61L20.61,170.37L72.12,170.37L75.56,156.73L127.07,156.73L130.51,120.92L233.54,121.16L236.97,112.51L257.58,112.51L261.01,101.24L281.62,101.24L285.05,91.98L305.66,91.98L309.09,81.97L329.7,81.97L333.13,73.16L340,73.16" style="vector-effect: non-scaling-stroke; fill: none; stroke: rgb(43, 118, 142); stroke-opacity: 1; stroke-width: 1px; opacity: 1;"/></g><g class="points"/><g class="text"/></g><g class="trace scatter tracee168fa" style="stroke-miterlimit: 2; opacity: 1;"><g class="fills"/><g class="errorbars"/><g class="lines"><path class="js-line" d="M0,230.15L17.17,230.15L20.61,198.56L72.12,198.56L75.56,168.21L127.07,168.21L130.51,120.92L209.49,120.92L212.93,113.31L233.54,113.31L236.97,98.8L257.58,98.8L261.01,84.49L281.62,84.49L285.05,69.81L305.66,69.81L309.09,54.99L329.7,54.99L333.13,41.25L340,41.25" style="vector-effect: non-scaling-stroke; fill: none; stroke: rgb(41, 122, 142); stroke-opacity: 1; stroke-width: 1px; opacity: 1;"/></g><g class="points"/><g class="text"/></g><g class="trace scatter tracef3864d" style="stroke-miterlimit: 2; opacity: 1;"><g class="fills"/><g class="errorbars"/><g class="lines"><path class="js-line" d="M0,171.14L17.17,171.14L20.61,165.63L72.12,165.63L75.56,153.71L127.07,153.71L130.51,120.92L209.49,120.92L212.93,123.06L233.54,123.06L236.97,121.37L257.58,121.37L261.01,112.96L281.62,112.96L285.05,107.11L305.66,107.11L309.09,97.81L329.7,97.81L333.13,92.18L340,92.18" style="vector-effect: non-scaling-stroke; fill: none; stroke: rgb(40, 126, 142); stroke-opacity: 1; stroke-width: 1px; opacity: 1;"/></g><g class="points"/><g class="text"/></g><g class="trace scatter traceb32c18" style="stroke-miterlimit: 2; opacity: 1;"><g class="fills"/><g class="errorbars"/><g class="lines"><path class="js-line" d="M0,231.53L17.17,231.53L20.61,195.79L72.12,195.79L75.56,161.42L127.07,161.42L130.51,120.92L209.49,120.92L212.93,105.27L233.54,105.27L236.97,89.53L257.58,89.53L261.01,74.17L281.62,74.17L285.05,58.52L305.66,58.52L309.09,43.07L329.7,43.07L333.13,27.69L340,27.69" style="vector-effect: non-scaling-stroke; fill: none; stroke: rgb(38, 130, 142); stroke-opacity: 1; stroke-width: 1px; opacity: 1;"/></g><g class="points"/><g class="text"/></g><g class="trace scatter trace58a2a3" style="stroke-miterlimit: 2; opacity: 1;"><g class="fills"/><g class="errorbars"/><g class="lines"><path class="js-line" d="M0,178.74L17.17,178.74L20.61,167.42L72.12,167.42L75.56,149.31L127.07,149.31L130.51,120.92L209.49,120.92L212.93,127.21L233.54,127.21L236.97,121.09L257.58,121.09L261.01,114.88L281.62,114.88L285.05,106.93L305.66,106.93L309.09,98.84L329.7,98.84L333.13,92.47L340,92.47" style="vector-effect: non-scaling-stroke; fill: none; stroke: rgb(37, 135, 141); stroke-opacity: 1; stroke-width: 1px; opacity: 1;"/></g><g class="points"/><g class="text"/></g><g class="trace scatter traced4ffb4" style="stroke-miterlimit: 2; opacity: 1;"><g class="fills"/><g class="errorbars"/><g class="lines"><path class="js-line" d="M0,255.99L17.17,255.99L20.61,211.6L72.12,211.6L75.56,174.34L127.07,174.34L130.51,120.92L209.49,120.92L212.93,106.64L233.54,106.64L236.97,87.9L257.58,87.9L261.01,69.27L281.62,69.27L285.05,51.57L305.66,51.57L309.09,33.06L329.7,33.06L333.13,14.9L340,14.9" style="vector-effect: non-scaling-stroke; fill: none; stroke: rgb(36, 140, 140); stroke-opacity: 1; stroke-width: 1px; opacity: 1;"/></g><g class="points"/><g class="text"/></g><g class="trace scatter traceb4d82e" style="stroke-miterlimit: 2; opacity: 1;"><g class="fills"/><g class="errorbars"/><g class="lines"><path class="js-line" d="M0,222.75L17.17,222.75L20.61,189.34L72.12,189.34L75.56,156.99L127.07,156.99L130.51,120.92L209.49,120.92L212.93,106.14L233.54,106.14L236.97,91.59L257.58,91.59L261.01,77.43L281.62,77.43L285.05,62.91L305.66,62.91L309.09,48.84L329.7,48.84L333.13,34.65L340,34.65" style="vector-effect: non-scaling-stroke; fill: none; stroke: rgb(34, 144, 140); stroke-opacity: 1; stroke-width: 1px; opacity: 1;"/></g><g class="points"/><g class="text"/></g><g class="trace scatter trace9c3e3e" style="stroke-miterlimit: 2; opacity: 1;"><g class="fills"/><g class="errorbars"/><g class="lines"><path class="js-line" d="M0,248.15L17.17,248.15L20.61,208.2L72.12,208.2L75.56,171.49L127.07,171.49L130.51,120.92L209.49,120.92L212.93,111.85L233.54,111.85L236.97,93.64L257.58,93.64L261.01,76.41L281.62,76.41L285.05,60.27L305.66,60.27L309.09,43.48L329.7,43.48L333.13,28.23L340,28.23" style="vector-effect: non-scaling-stroke; fill: none; stroke: rgb(33, 148, 139); stroke-opacity: 1; stroke-width: 1px; opacity: 1;"/></g><g class="points"/><g class="text"/></g><g class="trace scatter trace6bae7f" style="stroke-miterlimit: 2; opacity: 1;"><g class="fills"/><g class="errorbars"/><g class="lines"><path class="js-line" d="M0,247.92L17.17,247.92L20.61,207.58L72.12,207.58L75.56,167.41L127.07,167.41L130.51,120.92L209.49,120.92L212.93,103.24L233.54,103.24L236.97,86.21L257.58,86.21L261.01,68.23L281.62,68.23L285.05,50.16L305.66,50.16L309.09,32.78L329.7,32.78L333.13,15.36L340,15.36" style="vector-effect: non-scaling-stroke; fill: none; stroke: rgb(32, 153, 138); stroke-opacity: 1; stroke-width: 1px; opacity: 1;"/></g><g class="points"/><g class="text"/></g><g class="trace scatter trace16eadf" style="stroke-miterlimit: 2; opacity: 1;"><g class="fills"/><g class="errorbars"/><g class="lines"><path class="js-line" d="M0,242.58L17.17,242.58L20.61,204.05L72.12,204.05L75.56,162.7L127.07,162.7L130.51,120.92L209.49,120.92L212.93,103.89L233.54,103.89L236.97,87.02L257.58,87.02L261.01,70.16L281.62,70.16L285.05,52.92L305.66,52.92L309.09,36.04L329.7,36.04L333.13,17.53L340,17.53" style="vector-effect: non-scaling-stroke; fill: none; stroke: rgb(31, 158, 137); stroke-opacity: 1; stroke-width: 1px; opacity: 1;"/></g><g class="points"/><g class="text"/></g><g class="trace scatter trace8c9a2e" style="stroke-miterlimit: 2; opacity: 1;"><g class="fills"/><g class="errorbars"/><g class="lines"><path class="js-line" d="M0,153.66L17.17,153.66L20.61,142.97L72.12,142.97L75.56,135.4L127.07,135.4L130.51,120.92L209.49,120.92L212.93,129.35L257.58,129.44L261.01,126.55L281.62,126.55L285.05,122.06L305.66,122.06L309.09,120.07L329.7,120.07L333.13,115.13L340,115.13" style="vector-effect: non-scaling-stroke; fill: none; stroke: rgb(34, 162, 135); stroke-opacity: 1; stroke-width: 1px; opacity: 1;"/></g><g class="points"/><g class="text"/></g><g class="trace scatter traceab4166" style="stroke-miterlimit: 2; opacity: 1;"><g class="fills"/><g class="errorbars"/><g class="lines"><path class="js-line" d="M0,229.17L17.17,229.17L20.61,197L72.12,197L75.56,161.17L127.07,161.17L130.51,120.92L209.49,120.92L212.93,105.29L233.54,105.29L236.97,89.48L257.58,89.48L261.01,74.26L281.62,74.26L285.05,58.63L305.66,58.63L309.09,43.24L329.7,43.24L333.13,27.75L340,27.75" style="vector-effect: non-scaling-stroke; fill: none; stroke: rgb(38, 166, 132); stroke-opacity: 1; stroke-width: 1px; opacity: 1;"/></g><g class="points"/><g class="text"/></g><g class="trace scatter tracec9cbb9" style="stroke-miterlimit: 2; opacity: 1;"><g class="fills"/><g class="errorbars"/><g class="lines"><path class="js-line" d="M0,245.64L17.17,245.64L20.61,207.41L72.12,207.41L75.56,166.19L127.07,166.19L130.51,120.92L209.49,120.92L212.93,110L233.54,110L236.97,94.37L257.58,94.37L261.01,77.19L281.62,77.19L285.05,60.34L305.66,60.34L309.09,45.28L329.7,45.28L333.13,28.59L340,28.59" style="vector-effect: non-scaling-stroke; fill: none; stroke: rgb(41, 170, 130); stroke-opacity: 1; stroke-width: 1px; opacity: 1;"/></g><g class="points"/><g class="text"/></g><g class="trace scatter traced802e2" style="stroke-miterlimit: 2; opacity: 1;"><g class="fills"/><g class="errorbars"/><g class="lines"><path class="js-line" d="M0,209.83L17.17,209.83L20.61,180.64L72.12,180.64L75.56,152.91L127.07,152.91L130.51,120.92L209.49,120.92L212.93,106.92L233.54,106.92L236.97,95.2L257.58,95.2L261.01,82.88L281.62,82.88L285.05,70.09L305.66,70.09L309.09,57.55L329.7,57.55L333.13,45.22L340,45.22" style="vector-effect: non-scaling-stroke; fill: none; stroke: rgb(45, 174, 127); stroke-opacity: 1; stroke-width: 1px; opacity: 1;"/></g><g class="points"/><g class="text"/></g><g class="trace scatter trace9c83bf" style="stroke-miterlimit: 2; opacity: 1;"><g class="fills"/><g class="errorbars"/><g class="lines"><path class="js-line" d="M0,206.42L17.17,206.42L20.61,183.86L72.12,183.86L75.56,155.01L127.07,155.01L130.51,120.92L233.54,120.53L236.97,108.81L257.58,108.81L261.01,98.39L281.62,98.39L285.05,86.36L305.66,86.36L309.09,73.59L329.7,73.59L333.13,63.67L340,63.67" style="vector-effect: non-scaling-stroke; fill: none; stroke: rgb(96, 200, 96); stroke-opacity: 1; stroke-width: 1px; opacity: 1;"/></g><g class="points"/><g class="text"/></g><g class="trace scatter traced0af11" style="stroke-miterlimit: 2; opacity: 1;"><g class="fills"/><g class="errorbars"/><g class="lines"><path class="js-line" d="M0,236.08L17.17,236.08L20.61,205.51L72.12,205.51L75.56,168.12L127.07,168.12L130.51,120.92L209.49,120.92L212.93,111.19L233.54,111.19L236.97,98.44L257.58,98.44L261.01,82.43L281.62,82.43L285.05,68.13L305.66,68.13L309.09,52.72L329.7,52.72L333.13,36.99L340,36.99" style="vector-effect: non-scaling-stroke; fill: none; stroke: rgb(105, 204, 91); stroke-opacity: 1; stroke-width: 1px; opacity: 1;"/></g><g class="points"/><g class="text"/></g><g class="trace scatter trace2c2852" style="stroke-miterlimit: 2; opacity: 1;"><g class="fills"/><g class="errorbars"/><g class="lines"><path class="js-line" d="M0,197.19L17.17,197.19L20.61,173.49L72.12,173.49L75.56,165.56L127.07,165.56L130.51,120.92L233.54,121.59L236.97,112.49L257.58,112.49L261.01,101.42L281.62,101.42L285.05,87.98L305.66,87.98L309.09,83.62L329.7,83.62L333.13,73.16L340,73.16" style="vector-effect: non-scaling-stroke; fill: none; stroke: rgb(115, 207, 85); stroke-opacity: 1; stroke-width: 1px; opacity: 1;"/></g><g class="points"/><g class="text"/></g><g class="trace scatter tracec1c4e0" style="stroke-miterlimit: 2; opacity: 1;"><g class="fills"/><g class="errorbars"/><g class="lines"><path class="js-line" d="M0,227.45L17.17,227.45L20.61,194.96L72.12,194.96L75.56,160.27L127.07,160.27L130.51,120.92L209.49,120.92L212.93,105.33L233.54,105.33L236.97,90.22L257.58,90.22L261.01,75.2L281.62,75.2L285.05,60.04L305.66,60.04L309.09,44.57L329.7,44.57L333.13,29.35L340,29.35" style="vector-effect: non-scaling-stroke; fill: none; stroke: rgb(126, 210, 78); stroke-opacity: 1; stroke-width: 1px; opacity: 1;"/></g><g class="points"/><g class="text"/></g><g class="trace scatter tracec54fdb" style="stroke-miterlimit: 2; opacity: 1;"><g class="fills"/><g class="errorbars"/><g class="lines"><path class="js-line" d="M0,190.09L17.17,190.09L20.61,172.02L72.12,172.02L75.56,149.64L127.07,149.64L130.51,120.92L209.49,120.92L212.93,123.6L233.54,123.6L236.97,109.39L257.58,109.39L261.01,105.67L281.62,105.67L285.05,97.76L305.66,97.76L309.09,88.26L329.7,88.26L333.13,79.1L340,79.1" style="vector-effect: non-scaling-stroke; fill: none; stroke: rgb(138, 212, 70); stroke-opacity: 1; stroke-width: 1px; opacity: 1;"/></g><g class="points"/><g class="text"/></g><g class="trace scatter trace1855f7" style="stroke-miterlimit: 2; opacity: 1;"><g class="fills"/><g class="errorbars"/><g class="lines"><path class="js-line" d="M0,258.4L17.17,258.4L20.61,216.62L72.12,216.62L75.56,168.08L127.07,168.08L130.51,120.92L209.49,120.92L212.93,106.51L233.54,106.51L236.97,87.4L257.58,87.4L261.01,69L281.62,69L285.05,50.7L305.66,50.7L309.09,31.58L329.7,31.58L333.13,13.6L340,13.6" style="vector-effect: non-scaling-stroke; fill: none; stroke: rgb(149, 215, 63); stroke-opacity: 1; stroke-width: 1px; opacity: 1;"/></g><g class="points"/><g class="text"/></g><g class="trace scatter traceca1fcb" style="stroke-miterlimit: 2; opacity: 1;"><g class="fills"/><g class="errorbars"/><g class="lines"><path class="js-line" d="M0,227.07L17.17,227.07L20.61,190.88L72.12,190.88L75.56,158.24L127.07,158.24L130.51,120.92L209.49,120.92L212.93,105.88L233.54,105.88L236.97,90.94L257.58,90.94L261.01,74.83L281.62,74.83L285.05,61.68L305.66,61.68L309.09,46.82L329.7,46.82L333.13,32.26L340,32.26" style="vector-effect: non-scaling-stroke; fill: none; stroke: rgb(161, 217, 56); stroke-opacity: 1; stroke-width: 1px; opacity: 1;"/></g><g class="points"/><g class="text"/></g><g class="trace scatter trace87f093" style="stroke-miterlimit: 2; opacity: 1;"><g class="fills"/><g class="errorbars"/><g class="lines"><path class="js-line" d="M0,246.17L17.17,246.17L20.61,209.81L72.12,209.81L75.56,168.19L127.07,168.19L130.51,120.92L209.49,120.92L212.93,109.66L233.54,109.66L236.97,92.61L257.58,92.61L261.01,75.49L281.62,75.49L285.05,58.32L305.66,58.32L309.09,41.55L329.7,41.55L333.13,25.85L340,25.85" style="vector-effect: non-scaling-stroke; fill: none; stroke: rgb(172, 220, 49); stroke-opacity: 1; stroke-width: 1px; opacity: 1;"/></g><g class="points"/><g class="text"/></g><g class="trace scatter trace11d65f" style="stroke-miterlimit: 2; opacity: 1;"><g class="fills"/><g class="errorbars"/><g class="lines"><path class="js-line" d="M0,247.69L17.17,247.69L20.61,206.81L72.12,206.81L75.56,165.69L127.07,165.69L130.51,120.92L209.49,120.92L212.93,103.85L233.54,103.85L236.97,86.2L257.58,86.2L261.01,68.31L281.62,68.31L285.05,50.55L305.66,50.55L309.09,33.38L329.7,33.38L333.13,16.28L340,16.28" style="vector-effect: non-scaling-stroke; fill: none; stroke: rgb(184, 222, 43); stroke-opacity: 1; stroke-width: 1px; opacity: 1;"/></g><g class="points"/><g class="text"/></g><g class="trace scatter trace699643" style="stroke-miterlimit: 2; opacity: 1;"><g class="fills"/><g class="errorbars"/><g class="lines"><path class="js-line" d="M0,244.93L17.17,244.93L20.61,204.37L72.12,204.37L75.56,165.36L127.07,165.36L130.51,120.92L209.49,120.92L212.93,103.86L233.54,103.86L236.97,86.68L257.58,86.68L261.01,69.17L281.62,69.17L285.05,51.39L305.66,51.39L309.09,34.47L329.7,34.47L333.13,17.38L340,17.38" style="vector-effect: non-scaling-stroke; fill: none; stroke: rgb(195, 224, 42); stroke-opacity: 1; stroke-width: 1px; opacity: 1;"/></g><g class="points"/><g class="text"/></g><g class="trace scatter traceabd11e" style="stroke-miterlimit: 2; opacity: 1;"><g class="fills"/><g class="errorbars"/><g class="lines"><path class="js-line" d="M0,110.37L17.17,110.37L20.61,117.18L72.12,117.18L75.56,129.04L127.07,129.04L130.51,120.92L209.49,120.92L212.93,140.18L233.54,140.18L236.97,144.36L257.58,144.36L261.01,147.19L281.62,147.19L285.05,148.69L305.66,148.69L309.09,149.85L329.7,149.85L333.13,152.96L340,152.96" style="vector-effect: non-scaling-stroke; fill: none; stroke: rgb(207, 225, 41); stroke-opacity: 1; stroke-width: 1px; opacity: 1;"/></g><g class="points"/><g class="text"/></g><g class="trace scatter trace1eb523" style="stroke-miterlimit: 2; opacity: 1;"><g class="fills"/><g class="errorbars"/><g class="lines"><path class="js-line" d="M0,233.39L17.17,233.39L20.61,197.54L72.12,197.54L75.56,160.91L127.07,160.91L130.51,120.92L209.49,120.92L212.93,104.33L233.54,104.33L236.97,88.6L257.58,88.6L261.01,72.68L281.62,72.68L285.05,57.01L305.66,57.01L309.09,41.07L329.7,41.07L333.13,25.52L340,25.52" style="vector-effect: non-scaling-stroke; fill: none; stroke: rgb(218, 227, 40); stroke-opacity: 1; stroke-width: 1px; opacity: 1;"/></g><g class="points"/><g class="text"/></g><g class="trace scatter trace386a90" style="stroke-miterlimit: 2; opacity: 1;"><g class="fills"/><g class="errorbars"/><g class="lines"><path class="js-line" d="M0,240.73L17.17,240.73L20.61,204.06L72.12,204.06L75.56,170.78L127.07,170.78L130.51,120.92L209.49,120.92L212.93,110.15L233.54,110.15L236.97,95.35L257.58,95.35L261.01,80L281.62,80L285.05,63.67L305.66,63.67L309.09,48.52L329.7,48.52L333.13,32.66L340,32.66" style="vector-effect: non-scaling-stroke; fill: none; stroke: rgb(230, 228, 39); stroke-opacity: 1; stroke-width: 1px; opacity: 1;"/></g><g class="points"/><g class="text"/></g><g class="trace scatter trace2363bb" style="stroke-miterlimit: 2; opacity: 1;"><g class="fills"/><g class="errorbars"/><g class="lines"><path class="js-line" d="M0,208.53L17.17,208.53L20.61,180.25L72.12,180.25L75.56,150.45L127.07,150.45L130.51,120.92L209.49,120.92L212.93,106.97L233.54,106.97L236.97,95.57L257.58,95.57L261.01,83.59L281.62,83.59L285.05,71.25L305.66,71.25L309.09,58.64L329.7,58.64L333.13,46.76L340,46.76" style="vector-effect: non-scaling-stroke; fill: none; stroke: rgb(241, 230, 38); stroke-opacity: 1; stroke-width: 1px; opacity: 1;"/></g><g class="points"/><g class="text"/></g><g class="trace scatter trace748b48" style="stroke-miterlimit: 2; opacity: 1;"><g class="fills"/><g class="errorbars"/><g class="lines"><path class="js-line" d="M0,240.4L17.17,240.4L20.61,206.77L72.12,206.77L75.56,166.8L127.07,166.8L130.51,120.92L209.49,120.92L212.93,110.94L233.54,110.94L236.97,96.67L257.58,96.67L261.01,79.89L281.62,79.89L285.05,64.95L305.66,64.95L309.09,49.19L329.7,49.19L333.13,33.99L340,33.99" style="vector-effect: non-scaling-stroke; fill: none; stroke: rgb(253, 231, 37); stroke-opacity: 1; stroke-width: 1px; opacity: 1;"/></g><g class="points"/><g class="text"/></g><g class="trace scatter tracea72242" style="stroke-miterlimit: 2; opacity: 1;"><g class="fills"/><g class="errorbars"/><g class="lines"><path class="js-line" d="M0,240.14L17.17,240.14L20.61,210.08L72.12,210.08L75.56,176.61L127.07,176.61L130.51,120.92L209.49,120.92L212.93,123.57L233.54,123.57L236.97,108.15L257.58,108.15L261.01,92.74L281.62,92.74L285.05,78.36L305.66,78.36L309.09,65.65L329.7,65.65L333.13,49.94L340,49.94" style="vector-effect: non-scaling-stroke; fill: none; stroke: rgb(169, 169, 169); stroke-opacity: 1; stroke-width: 2px; opacity: 1;"/></g><g class="points"/><g class="text"/></g></g></g><g class="overplot"/><path class="xlines-above crisp" d="M0,0" style="fill: none;"/><path class="ylines-above crisp" d="M0,0" style="fill: none;"/><g class="overlines-above"/><g class="xaxislayer-above"><g class="x3tick"><text text-anchor="middle" x="0" y="1133" transform="translate(122.5,0)" style="font-family: 'Open Sans', verdana, arial, sans-serif; font-size: 12px; fill: rgb(42, 63, 95); fill-opacity: 1; white-space: pre; opacity: 1;">2.78</text></g><g class="x3tick"><text text-anchor="middle" x="0" y="1133" style="font-family: 'Open Sans', verdana, arial, sans-serif; font-size: 12px; fill: rgb(42, 63, 95); fill-opacity: 1; white-space: pre; opacity: 1;" transform="translate(207.5,0)">2.79</text></g><g class="x3tick"><text text-anchor="middle" x="0" y="1133" style="font-family: 'Open Sans', verdana, arial, sans-serif; font-size: 12px; fill: rgb(42, 63, 95); fill-opacity: 1; white-space: pre; opacity: 1;" transform="translate(292.5,0)">2.8</text></g><g class="x3tick"><text text-anchor="middle" x="0" y="1133" style="font-family: 'Open Sans', verdana, arial, sans-serif; font-size: 12px; fill: rgb(42, 63, 95); fill-opacity: 1; white-space: pre; opacity: 1;" transform="translate(377.5,0)">2.81</text></g></g><g class="yaxislayer-above"><g class="y3tick"><text text-anchor="end" x="79" y="4.199999999999999" transform="translate(0,1105.0100000000002)" style="font-family: 'Open Sans', verdana, arial, sans-serif; font-size: 12px; fill: rgb(42, 63, 95); fill-opacity: 1; white-space: pre; opacity: 1;">−0.06</text></g><g class="y3tick"><text text-anchor="end" x="79" y="4.199999999999999" style="font-family: 'Open Sans', verdana, arial, sans-serif; font-size: 12px; fill: rgb(42, 63, 95); fill-opacity: 1; white-space: pre; opacity: 1;" transform="translate(0,1059.65)">−0.04</text></g><g class="y3tick"><text text-anchor="end" x="79" y="4.199999999999999" style="font-family: 'Open Sans', verdana, arial, sans-serif; font-size: 12px; fill: rgb(42, 63, 95); fill-opacity: 1; white-space: pre; opacity: 1;" transform="translate(0,1014.2800000000001)">−0.02</text></g><g class="y3tick"><text text-anchor="end" x="79" y="4.199999999999999" style="font-family: 'Open Sans', verdana, arial, sans-serif; font-size: 12px; fill: rgb(42, 63, 95); fill-opacity: 1; white-space: pre; opacity: 1;" transform="translate(0,968.9200000000001)">0</text></g><g class="y3tick"><text text-anchor="end" x="79" y="4.199999999999999" style="font-family: 'Open Sans', verdana, arial, sans-serif; font-size: 12px; fill: rgb(42, 63, 95); fill-opacity: 1; white-space: pre; opacity: 1;" transform="translate(0,923.5600000000002)">0.02</text></g><g class="y3tick"><text text-anchor="end" x="79" y="4.199999999999999" style="font-family: 'Open Sans', verdana, arial, sans-serif; font-size: 12px; fill: rgb(42, 63, 95); fill-opacity: 1; white-space: pre; opacity: 1;" transform="translate(0,878.2000000000002)">0.04</text></g></g><g class="overaxes-above"/></g></g><g class="polarlayer"/><g class="smithlayer"/><g class="ternarylayer"/><g class="geolayer"/><g class="funnelarealayer"/><g class="pielayer"/><g class="iciclelayer"/><g class="treemaplayer"/><g class="sunburstlayer"/><g class="glimages"/><defs id="topdefs-b5cd10"><g class="clips"/><clipPath id="legendb5cd10"><rect width="188" height="29" x="0" y="0"/></clipPath></defs><g class="layer-above"><g class="imagelayer"/><g class="shapelayer"/></g><g class="infolayer"><g class="legend" pointer-events="all" transform="translate(232,50.59999999999998)"><rect class="bg" shape-rendering="crispEdges" width="188" height="29" x="0" y="0" style="stroke: rgb(68, 68, 68); stroke-opacity: 1; fill: rgb(255, 255, 255); fill-opacity: 1; stroke-width: 0px;"/><g class="scrollbox" transform="" clip-path="url(#legendb5cd10)"><g class="groups"><g class="traces" transform="translate(0,14.5)" style="opacity: 1;"><text class="legendtext" text-anchor="start" x="40" y="4.680000000000001" style="font-family: 'Open Sans', verdana, arial, sans-serif; font-size: 12px; fill: rgb(42, 63, 95); fill-opacity: 1; white-space: pre;">Population Log-likelihood</text><g class="layers" style="opacity: 1;"><g class="legendfill"/><g class="legendlines"><path class="js-line" d="M5,0h30" style="fill: none; stroke: rgb(169, 169, 169); stroke-opacity: 1; stroke-width: 2px;"/></g><g class="legendsymbols"><g class="legendpoints"/></g></g><rect class="legendtoggle" x="0" y="-9.5" width="184.703125" height="19" style="fill: rgb(0, 0, 0); fill-opacity: 0;"/></g></g></g><rect class="scrollbar" rx="20" ry="3" width="0" height="0" x="0" y="0" style="fill: rgb(128, 139, 164); fill-opacity: 1;"/></g><g class="g-gtitle"/><g class="g-xtitle"/><g class="g-x2title"/><g class="g-x3title"/><g class="g-ytitle"/><g class="g-y2title"/><g class="g-y3title"/></g></svg>