<svg class="main-svg" xmlns="http://www.w3.org/2000/svg" xmlns:xlink="http://www.w3.org/1999/xlink" width="500" height="360" style="" viewBox="0 0 500 360"><rect x="0" y="0" width="500" height="360" style="fill: rgb(255, 255, 255); fill-opacity: 1;"/><defs id="defs-789464"><g class="clips"><clipPath id="clip789464xyplot" class="plotclip"><rect width="337" height="167"/></clipPath><clipPath class="axesclip" id="clip789464x"><rect x="83" y="0" width="337" height="360"/></clipPath><clipPath class="axesclip" id="clip789464y"><rect x="0" y="113" width="500" height="167"/></clipPath><clipPath class="axesclip" id="clip789464xy"><rect x="83" y="113" width="337" height="167"/></clipPath></g><g class="gradients"/></defs><g class="bglayer"><rect class="bg" x="83" y="113" width="337" height="167" style="fill: rgb(229, 236, 246); fill-opacity: 1; stroke-width: 0;"/></g><g class="layer-below"><g class="imagelayer"/><g class="shapelayer"/></g><g class="cartesianlayer"><g class="subplot xy"><g class="layer-subplot"><g class="shapelayer"/><g class="imagelayer"/></g><g class="gridlayer"><g class="x"><path class="xgrid crisp" transform="translate(225.86,0)" d="M0,113v167" style="stroke: rgb(255, 255, 255); stroke-opacity: 1; stroke-width: 1px;"/><path class="xgrid crisp" transform="translate(324.46000000000004,0)" d="M0,113v167" style="stroke: rgb(255, 255, 255); stroke-opacity: 1; stroke-width: 1px;"/></g><g class="y"><path class="ygrid crisp" transform="translate(0,269.56)" d="M83,0h337" style="stroke: rgb(255, 255, 255); stroke-opacity: 1; stroke-width: 1px;"/><path class="ygrid crisp" transform="translate(0,217.38)" d="M83,0h337" style="stroke: rgb(255, 255, 255); stroke-opacity: 1; stroke-width: 1px;"/><path class="ygrid crisp" transform="translate(0,165.19)" d="M83,0h337" style="stroke: rgb(255, 255, 255); stroke-opacity: 1; stroke-width: 1px;"/></g></g><g class="zerolinelayer"><path class="xzl zl crisp" transform="translate(127.25999999999999,0)" d="M0,113v167" style="stroke: rgb(255, 255, 255); stroke-opacity: 1; stroke-width: 2px;"/></g><path class="xlines-below"/><path class="ylines-below"/><g class="overlines-below"/><g class="xaxislayer-below"/><g class="yaxislayer-below"/><g class="overaxes-below"/><g class="plot" transform="translate(83,113)" clip-path="url('#clip789464xyplot')"><g class="scatterlayer mlayer"><g class="trace scatter trace8a12af" style="stroke-miterlimit: 2; opacity: 1;"><g class="fills"/><g class="errorbars"/><g class="lines"/><g class="points"><path class="point" transform="translate(20.6,119.48)" d="M3,0A3,3 0 1,1 0,-3A3,3 0 0,1 3,0Z" style="opacity: 1; stroke-width: 0px; fill: rgb(99, 110, 250); fill-opacity: 1;"/><path class="point" transform="translate(56.1,101.63)" d="M3,0A3,3 0 1,1 0,-3A3,3 0 0,1 3,0Z" style="opacity: 1; stroke-width: 0px; fill: rgb(99, 110, 250); fill-opacity: 1;"/><path class="point" transform="translate(67.93,117.75)" d="M3,0A3,3 0 1,1 0,-3A3,3 0 0,1 3,0Z" style="opacity: 1; stroke-width: 0px; fill: rgb(99, 110, 250); fill-opacity: 1;"/><path class="point" transform="translate(79.76,139.84)" d="M3,0A3,3 0 1,1 0,-3A3,3 0 0,1 3,0Z" style="opacity: 1; stroke-width: 0px; fill: rgb(99, 110, 250); fill-opacity: 1;"/><path class="point" transform="translate(91.59,148.06)" d="M3,0A3,3 0 1,1 0,-3A3,3 0 0,1 3,0Z" style="opacity: 1; stroke-width: 0px; fill: rgb(99, 110, 250); fill-opacity: 1;"/><path class="point" transform="translate(103.42,159.16)" d="M3,0A3,3 0 1,1 0,-3A3,3 0 0,1 3,0Z" style="opacity: 1; stroke-width: 0px; fill: rgb(99, 110, 250); fill-opacity: 1;"/><path class="point" transform="translate(115.26,125.6)" d="M3,0A3,3 0 1,1 0,-3A3,3 0 0,1 3,0Z" style="opacity: 1; stroke-width: 0px; fill: rgb(99, 110, 250); fill-opacity: 1;"/><path class="point" transform="translate(127.09,155.13)" d="M3,0A3,3 0 1,1 0,-3A3,3 0 0,1 3,0Z" style="opacity: 1; stroke-width: 0px; fill: rgb(99, 110, 250); fill-opacity: 1;"/><path class="point" transform="translate(138.92,104.62)" d="M3,0A3,3 0 1,1 0,-3A3,3 0 0,1 3,0Z" style="opacity: 1; stroke-width: 0px; fill: rgb(99, 110, 250); fill-opacity: 1;"/><path class="point" transform="translate(150.75,108.64)" d="M3,0A3,3 0 1,1 0,-3A3,3 0 0,1 3,0Z" style="opacity: 1; stroke-width: 0px; fill: rgb(99, 110, 250); fill-opacity: 1;"/><path class="point" transform="translate(162.58,62.33)" d="M3,0A3,3 0 1,1 0,-3A3,3 0 0,1 3,0Z" style="opacity: 1; stroke-width: 0px; fill: rgb(99, 110, 250); fill-opacity: 1;"/><path class="point" transform="translate(174.42,55.09)" d="M3,0A3,3 0 1,1 0,-3A3,3 0 0,1 3,0Z" style="opacity: 1; stroke-width: 0px; fill: rgb(99, 110, 250); fill-opacity: 1;"/><path class="point" transform="translate(186.25,13.23)" d="M3,0A3,3 0 1,1 0,-3A3,3 0 0,1 3,0Z" style="opacity: 1; stroke-width: 0px; fill: rgb(99, 110, 250); fill-opacity: 1;"/><path class="point" transform="translate(198.08,67.01)" d="M3,0A3,3 0 1,1 0,-3A3,3 0 0,1 3,0Z" style="opacity: 1; stroke-width: 0px; fill: rgb(99, 110, 250); fill-opacity: 1;"/><path class="point" transform="translate(209.91,49.74)" d="M3,0A3,3 0 1,1 0,-3A3,3 0 0,1 3,0Z" style="opacity: 1; stroke-width: 0px; fill: rgb(99, 110, 250); fill-opacity: 1;"/><path class="point" transform="translate(221.74,126.75)" d="M3,0A3,3 0 1,1 0,-3A3,3 0 0,1 3,0Z" style="opacity: 1; stroke-width: 0px; fill: rgb(99, 110, 250); fill-opacity: 1;"/><path class="point" transform="translate(233.58,119.51)" d="M3,0A3,3 0 1,1 0,-3A3,3 0 0,1 3,0Z" style="opacity: 1; stroke-width: 0px; fill: rgb(99, 110, 250); fill-opacity: 1;"/><path class="point" transform="translate(257.24,117.9)" d="M3,0A3,3 0 1,1 0,-3A3,3 0 0,1 3,0Z" style="opacity: 1; stroke-width: 0px; fill: rgb(99, 110, 250); fill-opacity: 1;"/><path class="point" transform="translate(280.9,136.44)" d="M3,0A3,3 0 1,1 0,-3A3,3 0 0,1 3,0Z" style="opacity: 1; stroke-width: 0px; fill: rgb(99, 110, 250); fill-opacity: 1;"/><path class="point" transform="translate(316.4,110.1)" d="M3,0A3,3 0 1,1 0,-3A3,3 0 0,1 3,0Z" style="opacity: 1; stroke-width: 0px; fill: rgb(99, 110, 250); fill-opacity: 1;"/></g><g class="text"/></g><g class="trace scatter trace1b8088" style="stroke-miterlimit: 2; opacity: 1;"><g class="fills"/><g class="errorbars"/><g class="lines"><path class="js-line" d="M20.6,106.9L316.4,106.9" style="vector-effect: non-scaling-stroke; fill: none; stroke: rgb(239, 85, 59); stroke-opacity: 1; stroke-width: 2px; opacity: 1;"/></g><g class="points"/><g class="text"/></g><g class="trace scatter tracef647b7" style="stroke-miterlimit: 2; opacity: 1;"><g class="fills"/><g class="errorbars"/><g class="lines"><path class="js-line" d="M20.6,104.35L129.27,104.73L129.56,104.75L138.15,104.89L138.45,104.87L158.28,103.59L158.58,103.64L174.27,106.14L174.57,106.1L179.9,104.67L180.2,104.55L190.26,101.03L190.56,101.01L194.41,101.55L194.7,101.66L199.15,104.08L199.44,104.28L208.03,109.57L208.32,109.65L211.58,109.6L211.88,109.51L215.14,107.49L215.43,107.21L219.28,102.65L219.58,102.25L225.5,95.12L225.79,94.9L228.46,93.95L228.76,93.96L231.12,95.07L231.42,95.33L234.09,98.71L234.38,99.19L239.12,108.48L239.42,109.09L244.15,117.46L244.45,117.82L246.82,119.59L247.11,119.66L248.89,119.2L249.19,118.97L251.26,116.04L251.55,115.43L254.22,107.72L254.52,106.63L263.69,71.02L263.99,70.53L265.77,69.36L266.06,69.46L267.54,71.24L267.84,71.85L269.91,78.12L270.21,79.28L273.76,96.61L274.06,98.23L280.87,132.58L281.16,133.69L284.13,141.38L284.42,141.74L285.9,142.13L286.2,141.88L287.38,139.57L287.68,138.63L289.46,129.23L289.75,126.96L291.82,104.54L292.12,100.38L295.38,42.15L295.67,36.22L302.48,-47.29L302.78,-47.05L304.56,-38.71L304.85,-36.28L307.52,-4.67L307.81,-0.37L316.4,123.49" style="vector-effect: non-scaling-stroke; fill: none; stroke: rgb(0, 204, 150); stroke-opacity: 1; stroke-width: 2px; opacity: 1;"/></g><g class="points"/><g class="text"/></g><g class="trace scatter tracea81d5c" style="stroke-miterlimit: 2; opacity: 1;"><g class="fills"/><g class="errorbars"/><g class="lines"><path class="js-line" d="M20.6,107.72L53.47,108.45L53.76,108.54L58.5,110.73L58.8,110.93L64.13,115.49L64.42,115.8L71.23,123.9L71.53,124.28L84.56,140.59L84.85,140.91L91.66,147.35L91.96,147.58L98.18,151.42L98.47,151.55L103.8,153.1L104.1,153.14L108.84,153.07L109.13,153.02L113.87,151.5L114.17,151.35L118.9,148.29L119.2,148.05L123.94,143.39L124.23,143.05L129.86,135.41L130.16,134.95L137.26,122.31L137.56,121.72L148.22,98.41L148.51,97.73L161.84,68.83L162.13,68.28L168.94,57.28L169.24,56.89L174.57,51.2L174.87,50.97L179.01,48.54L179.31,48.43L183.45,47.78L183.75,47.8L187.6,48.71L187.89,48.84L192.34,51.53L192.63,51.77L197.37,56.28L197.67,56.61L205.07,66.16L205.36,66.59L216.02,83.16L216.32,83.64L233.49,109.79L233.79,110.19L244.15,122.54L244.45,122.84L251.55,129.17L251.85,129.39L259.25,133.94L259.55,134.08L266.66,136.4L266.95,136.45L273.17,136.79L273.47,136.77L279.39,135.61L279.68,135.51L286.2,132.57L286.49,132.4L293.6,127.32L293.9,127.07L303.96,117.1L304.26,116.77L316.4,102.43" style="vector-effect: non-scaling-stroke; fill: none; stroke: rgb(171, 99, 250); stroke-opacity: 1; stroke-width: 2px; opacity: 1;"/></g><g class="points"/><g class="text"/></g><g class="trace scatter traceaaaff1" style="stroke-miterlimit: 2; opacity: 1;"><g class="fills"/><g class="errorbars"/><g class="lines"><path class="js-line" d="M20.6,106.14L54.35,106.83L54.65,106.9L59.98,109.03L60.28,109.19L66.2,113.48L66.49,113.74L74.79,121.91L75.08,122.22L89.59,136.19L89.89,136.42L96.7,140.89L96.99,141.04L103.51,143.5L103.8,143.57L110.02,144.1L110.32,144.08L115.94,142.96L116.24,142.86L121.57,140.34L121.86,140.16L128.08,135.41L128.38,135.13L134.3,128.86L134.6,128.51L143.48,116.35L143.78,115.9L171.02,73.77L171.31,73.42L177.83,66.74L178.12,66.5L183.75,62.87L184.05,62.73L189.08,61.29L189.37,61.25L194.41,61.49L194.7,61.55L200.03,63.5L200.33,63.65L205.66,67.09L205.96,67.32L213.65,74.33L213.95,74.63L224.91,87L225.2,87.35L247.41,112.33L247.71,112.61L255.7,119.59L256,119.82L263.69,124.98L263.99,125.15L272.58,128.9L272.87,128.99L279.98,130.4L280.28,130.42L286.49,130.35L286.79,130.32L293.3,128.95L293.6,128.85L300.41,126.04L300.71,125.89L309,120.76L309.29,120.55L316.4,114.94" style="vector-effect: non-scaling-stroke; fill: none; stroke: rgb(255, 161, 90); stroke-opacity: 1; stroke-width: 2px; opacity: 1;"/></g><g class="points"/><g class="text"/></g></g></g><g class="overplot"/><path class="xlines-above crisp" d="M0,0" style="fill: none;"/><path class="ylines-above crisp" d="M0,0" style="fill: none;"/><g class="overlines-above"/><g class="xaxislayer-above"><g class="xtick"><text text-anchor="middle" x="0" y="293" transform="translate(127.25999999999999,0)" style="font-family: 'Open Sans', verdana, arial, sans-serif; font-size: 12px; fill: rgb(42, 63, 95); fill-opacity: 1; white-space: pre;">0</text></g><g class="xtick"><text text-anchor="middle" x="0" y="293" transform="translate(225.86,0)" style="font-family: 'Open Sans', verdana, arial, sans-serif; font-size: 12px; fill: rgb(42, 63, 95); fill-opacity: 1; white-space: pre;">200</text></g><g class="xtick"><text text-anchor="middle" x="0" y="293" transform="translate(324.46000000000004,0)" style="font-family: 'Open Sans', verdana, arial, sans-serif; font-size: 12px; fill: rgb(42, 63, 95); fill-opacity: 1; white-space: pre;">400</text></g></g><g class="yaxislayer-above"><g class="ytick"><text text-anchor="end" x="82" y="4.199999999999999" transform="translate(0,269.56)" style="font-family: 'Open Sans', verdana, arial, sans-serif; font-size: 12px; fill: rgb(42, 63, 95); fill-opacity: 1; white-space: pre;">500</text></g><g class="ytick"><text text-anchor="end" x="82" y="4.199999999999999" transform="translate(0,217.38)" style="font-family: 'Open Sans', verdana, arial, sans-serif; font-size: 12px; fill: rgb(42, 63, 95); fill-opacity: 1; white-space: pre;">1000</text></g><g class="ytick"><text text-anchor="end" x="82" y="4.199999999999999" transform="translate(0,165.19)" style="font-family: 'Open Sans', verdana, arial, sans-serif; font-size: 12px; fill: rgb(42, 63, 95); fill-opacity: 1; white-space: pre;">1500</text></g><g class="ytick"><text text-anchor="end" x="82" y="4.199999999999999" transform="translate(0,113)" style="font-family: 'Open Sans', verdana, arial, sans-serif; font-size: 12px; fill: rgb(42, 63, 95); fill-opacity: 1; white-space: pre;">2000</text></g></g><g class="overaxes-above"/></g></g><g class="polarlayer"/><g class="ternarylayer"/><g class="geolayer"/><g class="funnelarealayer"/><g class="pielayer"/><g class="treemaplayer"/><g class="sunburstlayer"/><g class="glimages"/><defs id="topdefs-789464"><g class="clips"/><clipPath id="legend789464"><rect width="276" height="98" x="0" y="0"/></clipPath></defs><g class="layer-above"><g class="imagelayer"/><g class="shapelayer"/></g><g class="infolayer"><g class="legend" pointer-events="all" transform="translate(144,11.659999999999997)"><rect class="bg" shape-rendering="crispEdges" width="276" height="98" x="0" y="0" style="stroke: rgb(68, 68, 68); stroke-opacity: 1; fill: rgb(255, 255, 255); fill-opacity: 1; stroke-width: 0px;"/><g class="scrollbox" transform="" clip-path="url('#legend789464')"><g class="groups"><g class="traces" transform="translate(0,14.5)" style="opacity: 1;"><text class="legendtext" text-anchor="start" x="40" y="4.680000000000001" style="font-family: 'Open Sans', verdana, arial, sans-serif; font-size: 12px; fill: rgb(42, 63, 95); fill-opacity: 1; white-space: pre;">Simulated Data</text><g class="layers" style="opacity: 1;"><g class="legendfill"/><g class="legendlines"/><g class="legendsymbols"><g class="legendpoints"><path class="scatterpts" transform="translate(20,0)" d="M3,0A3,3 0 1,1 0,-3A3,3 0 0,1 3,0Z" style="opacity: 1; stroke-width: 0px; fill: rgb(99, 110, 250); fill-opacity: 1;"/></g></g></g><rect class="legendtoggle" x="0" y="-9.5" width="128.140625" height="19" style="fill: rgb(0, 0, 0); fill-opacity: 0;"/></g><g class="traces" transform="translate(138,22.1)" style="opacity: 1;"><text class="legendtext" text-anchor="start" x="40" y="-3.1200000000000006" style="font-family: 'Open Sans', verdana, arial, sans-serif; font-size: 12px; fill: rgb(42, 63, 95); fill-opacity: 1; white-space: pre;"><tspan class="line" dy="0em" x="40" y="-3.1200000000000006">Prediction:</tspan><tspan class="line" dy="1.3em" x="40" y="-3.1200000000000006">Constant Noise</tspan></text><g class="layers" style="opacity: 1;"><g class="legendfill"/><g class="legendlines"><path class="js-line" d="M5,0h30" style="fill: none; stroke: rgb(239, 85, 59); stroke-opacity: 1; stroke-width: 2px;"/></g><g class="legendsymbols"><g class="legendpoints"/></g></g><rect class="legendtoggle" x="0" y="-17.1" width="128.09375" height="34.2" style="fill: rgb(0, 0, 0); fill-opacity: 0;"/></g><g class="traces" transform="translate(0,56.300000000000004)" style="opacity: 1;"><text class="legendtext" text-anchor="start" x="40" y="-3.1200000000000006" style="font-family: 'Open Sans', verdana, arial, sans-serif; font-size: 12px; fill: rgb(42, 63, 95); fill-opacity: 1; white-space: pre;"><tspan class="line" dy="0em" x="40" y="-3.1200000000000006">Prediction:</tspan><tspan class="line" dy="1.3em" x="40" y="-3.1200000000000006">Relative Noise</tspan></text><g class="layers" style="opacity: 1;"><g class="legendfill"/><g class="legendlines"><path class="js-line" d="M5,0h30" style="fill: none; stroke: rgb(0, 204, 150); stroke-opacity: 1; stroke-width: 2px;"/></g><g class="legendsymbols"><g class="legendpoints"/></g></g><rect class="legendtoggle" x="0" y="-17.1" width="121.546875" height="34.2" style="fill: rgb(0, 0, 0); fill-opacity: 0;"/></g><g class="traces" transform="translate(138,56.300000000000004)" style="opacity: 1;"><text class="legendtext" text-anchor="start" x="40" y="-3.1200000000000006" style="font-family: 'Open Sans', verdana, arial, sans-serif; font-size: 12px; fill: rgb(42, 63, 95); fill-opacity: 1; white-space: pre;"><tspan class="line" dy="0em" x="40" y="-3.1200000000000006">Prediction:</tspan><tspan class="line" dy="1.3em" x="40" y="-3.1200000000000006">Combined Noise</tspan></text><g class="layers" style="opacity: 1;"><g class="legendfill"/><g class="legendlines"><path class="js-line" d="M5,0h30" style="fill: none; stroke: rgb(171, 99, 250); stroke-opacity: 1; stroke-width: 2px;"/></g><g class="legendsymbols"><g class="legendpoints"/></g></g><rect class="legendtoggle" x="0" y="-17.1" width="135.5" height="34.2" style="fill: rgb(0, 0, 0); fill-opacity: 0;"/></g><g class="traces" transform="translate(0,82.9)" style="opacity: 1;"><text class="legendtext" text-anchor="start" x="40" y="4.680000000000001" style="font-family: 'Open Sans', verdana, arial, sans-serif; font-size: 12px; fill: rgb(42, 63, 95); fill-opacity: 1; white-space: pre;">Actual Curve</text><g class="layers" style="opacity: 1;"><g class="legendfill"/><g class="legendlines"><path class="js-line" d="M5,0h30" style="fill: none; stroke: rgb(255, 161, 90); stroke-opacity: 1; stroke-width: 2px;"/></g><g class="legendsymbols"><g class="legendpoints"/></g></g><rect class="legendtoggle" x="0" y="-9.5" width="113.09375" height="19" style="fill: rgb(0, 0, 0); fill-opacity: 0;"/></g></g></g><rect class="scrollbar" rx="20" ry="3" width="0" height="0" x="0" y="0" style="fill: rgb(128, 139, 164); fill-opacity: 1;"/></g><g class="g-gtitle"/><g class="g-xtitle"><text class="xtitle" x="251.5" y="321.8" text-anchor="middle" style="font-family: 'Open Sans', verdana, arial, sans-serif; font-size: 14px; fill: rgb(42, 63, 95); opacity: 1; font-weight: normal; white-space: pre;">Time, hours</text></g><g class="g-ytitle" transform="translate(3.453125,0)"><text class="ytitle" transform="rotate(-90,11.546875,196.5)" x="11.546875" y="196.5" text-anchor="middle" style="font-family: 'Open Sans', verdana, arial, sans-serif; font-size: 14px; fill: rgb(42, 63, 95); opacity: 1; font-weight: normal; white-space: pre;"><tspan class="line" dy="0em" x="11.546875" y="196.5">Circulating blood cells,</tspan><tspan class="line" dy="1.3em" x="11.546875" y="196.5">1000/L</tspan></text></g></g></svg>