<svg class="main-svg" xmlns="http://www.w3.org/2000/svg" xmlns:xlink="http://www.w3.org/1999/xlink" width="700" height="500" style="" viewBox="0 0 700 500"><rect x="0" y="0" width="700" height="500" style="fill: rgb(255, 255, 255); fill-opacity: 1;"/><defs id="defs-cb32f4"><g class="clips"><clipPath id="clipcb32f4xyplot" class="plotclip"><rect width="496" height="320"/></clipPath><clipPath class="axesclip" id="clipcb32f4x"><rect x="80" y="0" width="496" height="500"/></clipPath><clipPath class="axesclip" id="clipcb32f4y"><rect x="0" y="100" width="700" height="320"/></clipPath><clipPath class="axesclip" id="clipcb32f4xy"><rect x="80" y="100" width="496" height="320"/></clipPath></g><g class="gradients"/></defs><g class="bglayer"><rect class="bg" x="80" y="100" width="496" height="320" style="fill: rgb(229, 236, 246); fill-opacity: 1; stroke-width: 0;"/></g><g class="layer-below"><g class="imagelayer"/><g class="shapelayer"/></g><g class="cartesianlayer"><g class="subplot xy"><g class="layer-subplot"><g class="shapelayer"/><g class="imagelayer"/></g><g class="gridlayer"><g class="x"><path class="xgrid crisp" transform="translate(179.2,0)" d="M0,100v320" style="stroke: rgb(255, 255, 255); stroke-opacity: 1; stroke-width: 1px;"/><path class="xgrid crisp" transform="translate(278.4,0)" d="M0,100v320" style="stroke: rgb(255, 255, 255); stroke-opacity: 1; stroke-width: 1px;"/><path class="xgrid crisp" transform="translate(377.6,0)" d="M0,100v320" style="stroke: rgb(255, 255, 255); stroke-opacity: 1; stroke-width: 1px;"/><path class="xgrid crisp" transform="translate(476.8,0)" d="M0,100v320" style="stroke: rgb(255, 255, 255); stroke-opacity: 1; stroke-width: 1px;"/></g><g class="y"><path class="ygrid crisp" transform="translate(0,344.15)" d="M80,0h496" style="stroke: rgb(255, 255, 255); stroke-opacity: 1; stroke-width: 1px;"/><path class="ygrid crisp" transform="translate(0,301.1)" d="M80,0h496" style="stroke: rgb(255, 255, 255); stroke-opacity: 1; stroke-width: 1px;"/><path class="ygrid crisp" transform="translate(0,258.05)" d="M80,0h496" style="stroke: rgb(255, 255, 255); stroke-opacity: 1; stroke-width: 1px;"/><path class="ygrid crisp" transform="translate(0,215)" d="M80,0h496" style="stroke: rgb(255, 255, 255); stroke-opacity: 1; stroke-width: 1px;"/><path class="ygrid crisp" transform="translate(0,171.95999999999998)" d="M80,0h496" style="stroke: rgb(255, 255, 255); stroke-opacity: 1; stroke-width: 1px;"/><path class="ygrid crisp" transform="translate(0,128.91)" d="M80,0h496" style="stroke: rgb(255, 255, 255); stroke-opacity: 1; stroke-width: 1px;"/></g></g><g class="zerolinelayer"><path class="xzl zl crisp" transform="translate(80,0)" d="M0,100v320" style="stroke: rgb(255, 255, 255); stroke-opacity: 1; stroke-width: 2px;"/><path class="yzl zl crisp" transform="translate(0,387.19)" d="M80,0h496" style="stroke: rgb(255, 255, 255); stroke-opacity: 1; stroke-width: 2px;"/></g><path class="xlines-below"/><path class="ylines-below"/><g class="overlines-below"/><g class="xaxislayer-below"/><g class="yaxislayer-below"/><g class="overaxes-below"/><g class="plot" transform="translate(80,100)" clip-path="url('#clipcb32f4xyplot')"><g class="scatterlayer mlayer"><g class="trace scatter trace52e10b" style="stroke-miterlimit: 2; opacity: 1;"><g class="fills"/><g class="errorbars"/><g class="lines"><path class="js-line" d="M0,38.55L10.43,74.47L10.92,76.04L21.85,107.72L22.34,109.03L33.27,135.6L33.76,136.7L44.68,158.98L45.18,159.91L56.6,179.37L57.1,180.14L67.03,194.39L67.52,195.04L78.45,208.29L78.94,208.84L90.86,220.88L91.36,221.33L103.27,231.27L103.77,231.65L116.68,240.49L117.17,240.79L130.58,248.24L131.08,248.48L144.48,254.5L144.98,254.7L160.37,260.2L160.86,260.35L178.24,265.16L178.74,265.28L207.04,270.79L207.54,270.86L230.87,273.91L231.37,273.96L269.1,277.08L269.6,277.11L315.28,279.16L315.77,279.18L442.87,281.15L443.37,281.15L495.5,281.45L496,281.45" style="vector-effect: non-scaling-stroke; fill: none; stroke: rgb(0, 100, 80); stroke-opacity: 1; stroke-width: 2px; opacity: 1;"/></g><g class="points"/><g class="text"/></g><g class="trace scatter traceae5bcd" style="stroke-miterlimit: 2; opacity: 1;"><g class="fills"><g><path class="js-fill" d="M0,16L10.92,53.49L11.42,55.04L22.34,86.48L22.84,87.79L34.26,115.25L34.75,116.33L45.68,138.27L46.17,139.19L58.09,159.11L58.59,159.87L68.52,173.79L69.01,174.43L80.43,187.92L80.93,188.45L93.34,200.57L93.84,201L104.76,209.84L105.26,210.21L118.66,219.15L119.16,219.44L132.56,226.66L133.06,226.9L148.45,233.5L148.95,233.69L165.83,239.31L166.33,239.45L186.68,244.52L187.18,244.62L213.99,249.26L214.49,249.33L241.3,252.41L241.79,252.45L271.58,254.68L272.08,254.71L316.76,256.66L317.26,256.67L361.95,257.71L362.44,257.72L444.36,258.61L444.86,258.61L496,258.89L496,304L392.73,303.25L392.23,303.24L345.07,302.49L344.57,302.48L285.98,300.56L285.49,300.53L252.22,298.45L251.72,298.41L217.96,294.91L217.47,294.84L197.11,291.67L196.61,291.58L174.27,286.72L173.77,286.59L153.42,280.43L152.92,280.25L136.04,273.41L135.54,273.18L120.65,265.42L120.15,265.13L106.25,256.04L105.75,255.68L91.85,244.34L91.36,243.88L80.93,233.56L80.43,233.02L68.02,218.25L67.52,217.6L55.61,200.36L55.11,199.57L45.68,183.38L45.18,182.46L35.25,162.52L34.75,161.44L23.83,135.48L23.34,134.19L13.9,107.77L13.41,106.27L3.48,73.72L2.98,71.96L0,61.11Z" style="fill: rgb(0, 100, 80); fill-opacity: 0.2; stroke-width: 0;"/></g></g><g class="errorbars"/><g class="lines"><path class="js-line" d="M0,16L10.92,53.49L11.42,55.04L22.34,86.48L22.84,87.79L34.26,115.25L34.75,116.33L45.68,138.27L46.17,139.19L58.09,159.11L58.59,159.87L68.52,173.79L69.01,174.43L80.43,187.92L80.93,188.45L93.34,200.57L93.84,201L104.76,209.84L105.26,210.21L118.66,219.15L119.16,219.44L132.56,226.66L133.06,226.9L148.45,233.5L148.95,233.69L165.83,239.31L166.33,239.45L186.68,244.52L187.18,244.62L213.99,249.26L214.49,249.33L241.3,252.41L241.79,252.45L271.58,254.68L272.08,254.71L316.76,256.66L317.26,256.67L361.95,257.71L362.44,257.72L444.36,258.61L444.86,258.61L496,258.89L496,304L392.73,303.25L392.23,303.24L345.07,302.49L344.57,302.48L285.98,300.56L285.49,300.53L252.22,298.45L251.72,298.41L217.96,294.91L217.47,294.84L197.11,291.67L196.61,291.58L174.27,286.72L173.77,286.59L153.42,280.43L152.92,280.25L136.04,273.41L135.54,273.18L120.65,265.42L120.15,265.13L106.25,256.04L105.75,255.68L91.85,244.34L91.36,243.88L80.93,233.56L80.43,233.02L68.02,218.25L67.52,217.6L55.61,200.36L55.11,199.57L45.68,183.38L45.18,182.46L35.25,162.52L34.75,161.44L23.83,135.48L23.34,134.19L13.9,107.77L13.41,106.27L3.48,73.72L2.98,71.96L0,61.11" style="vector-effect: non-scaling-stroke; fill: none; stroke: rgb(255, 255, 255); stroke-opacity: 0; stroke-width: 2px; opacity: 1;"/></g><g class="points"/><g class="text"/></g></g></g><g class="overplot"/><path class="xlines-above crisp" d="M0,0" style="fill: none;"/><path class="ylines-above crisp" d="M0,0" style="fill: none;"/><g class="overlines-above"/><g class="xaxislayer-above"><g class="xtick"><text text-anchor="middle" x="0" y="433" transform="translate(80,0)" style="font-family: 'Open Sans', verdana, arial, sans-serif; font-size: 12px; fill: rgb(42, 63, 95); fill-opacity: 1; white-space: pre;">0</text></g><g class="xtick"><text text-anchor="middle" x="0" y="433" transform="translate(179.2,0)" style="font-family: 'Open Sans', verdana, arial, sans-serif; font-size: 12px; fill: rgb(42, 63, 95); fill-opacity: 1; white-space: pre;">0.2</text></g><g class="xtick"><text text-anchor="middle" x="0" y="433" transform="translate(278.4,0)" style="font-family: 'Open Sans', verdana, arial, sans-serif; font-size: 12px; fill: rgb(42, 63, 95); fill-opacity: 1; white-space: pre;">0.4</text></g><g class="xtick"><text text-anchor="middle" x="0" y="433" transform="translate(377.6,0)" style="font-family: 'Open Sans', verdana, arial, sans-serif; font-size: 12px; fill: rgb(42, 63, 95); fill-opacity: 1; white-space: pre;">0.6</text></g><g class="xtick"><text text-anchor="middle" x="0" y="433" transform="translate(476.8,0)" style="font-family: 'Open Sans', verdana, arial, sans-serif; font-size: 12px; fill: rgb(42, 63, 95); fill-opacity: 1; white-space: pre;">0.8</text></g><g class="xtick"><text text-anchor="middle" x="0" y="433" transform="translate(576,0)" style="font-family: 'Open Sans', verdana, arial, sans-serif; font-size: 12px; fill: rgb(42, 63, 95); fill-opacity: 1; white-space: pre;">1</text></g></g><g class="yaxislayer-above"><g class="ytick"><text text-anchor="end" x="79" y="4.199999999999999" transform="translate(0,387.19)" style="font-family: 'Open Sans', verdana, arial, sans-serif; font-size: 12px; fill: rgb(42, 63, 95); fill-opacity: 1; white-space: pre;">0</text></g><g class="ytick"><text text-anchor="end" x="79" y="4.199999999999999" transform="translate(0,344.15)" style="font-family: 'Open Sans', verdana, arial, sans-serif; font-size: 12px; fill: rgb(42, 63, 95); fill-opacity: 1; white-space: pre;">500</text></g><g class="ytick"><text text-anchor="end" x="79" y="4.199999999999999" transform="translate(0,301.1)" style="font-family: 'Open Sans', verdana, arial, sans-serif; font-size: 12px; fill: rgb(42, 63, 95); fill-opacity: 1; white-space: pre;">1000</text></g><g class="ytick"><text text-anchor="end" x="79" y="4.199999999999999" transform="translate(0,258.05)" style="font-family: 'Open Sans', verdana, arial, sans-serif; font-size: 12px; fill: rgb(42, 63, 95); fill-opacity: 1; white-space: pre;">1500</text></g><g class="ytick"><text text-anchor="end" x="79" y="4.199999999999999" transform="translate(0,215)" style="font-family: 'Open Sans', verdana, arial, sans-serif; font-size: 12px; fill: rgb(42, 63, 95); fill-opacity: 1; white-space: pre;">2000</text></g><g class="ytick"><text text-anchor="end" x="79" y="4.199999999999999" transform="translate(0,171.95999999999998)" style="font-family: 'Open Sans', verdana, arial, sans-serif; font-size: 12px; fill: rgb(42, 63, 95); fill-opacity: 1; white-space: pre;">2500</text></g><g class="ytick"><text text-anchor="end" x="79" y="4.199999999999999" transform="translate(0,128.91)" style="font-family: 'Open Sans', verdana, arial, sans-serif; font-size: 12px; fill: rgb(42, 63, 95); fill-opacity: 1; white-space: pre;">3000</text></g></g><g class="overaxes-above"/></g></g><g class="polarlayer"/><g class="ternarylayer"/><g class="geolayer"/><g class="funnelarealayer"/><g class="pielayer"/><g class="treemaplayer"/><g class="sunburstlayer"/><g class="glimages"/><defs id="topdefs-cb32f4"><g class="clips"/><clipPath id="legendcb32f4"><rect width="102" height="29" x="0" y="0"/></clipPath></defs><g class="layer-above"><g class="imagelayer"/><g class="shapelayer"/></g><g class="infolayer"><g class="legend" pointer-events="all" transform="translate(585.9200000000001,100)"><rect class="bg" shape-rendering="crispEdges" width="102" height="29" x="0" y="0" style="stroke: rgb(68, 68, 68); stroke-opacity: 1; fill: rgb(255, 255, 255); fill-opacity: 1; stroke-width: 0px;"/><g class="scrollbox" transform="" clip-path="url('#legendcb32f4')"><g class="groups"><g class="traces" transform="translate(0,14.5)" style="opacity: 1;"><text class="legendtext" text-anchor="start" x="40" y="4.680000000000001" style="font-family: 'Open Sans', verdana, arial, sans-serif; font-size: 12px; fill: rgb(42, 63, 95); fill-opacity: 1; white-space: pre;">Prediction</text><g class="layers" style="opacity: 1;"><g class="legendfill"/><g class="legendlines"><path class="js-line" d="M5,0h30" style="fill: none; stroke: rgb(0, 100, 80); stroke-opacity: 1; stroke-width: 2px;"/></g><g class="legendsymbols"><g class="legendpoints"/></g></g><rect class="legendtoggle" x="0" y="-9.5" width="96.84375" height="19" style="fill: rgb(0, 0, 0); fill-opacity: 0;"/></g></g></g><rect class="scrollbar" rx="20" ry="3" width="0" height="0" x="0" y="0" style="fill: rgb(128, 139, 164); fill-opacity: 1;"/></g><g class="g-gtitle"/><g class="g-xtitle"><text class="xtitle" x="328" y="461.8" text-anchor="middle" style="font-family: 'Open Sans', verdana, arial, sans-serif; font-size: 14px; fill: rgb(42, 63, 95); opacity: 1; font-weight: normal; white-space: pre;">Time, hours</text></g><g class="g-ytitle"><text class="ytitle" transform="rotate(-90,26.746875000000003,260)" x="26.746875000000003" y="260" text-anchor="middle" style="font-family: 'Open Sans', verdana, arial, sans-serif; font-size: 14px; fill: rgb(42, 63, 95); opacity: 1; font-weight: normal; white-space: pre;">Docetaxel concentration, ng/mL</text></g></g></svg>