<svg class="main-svg" xmlns="http://www.w3.org/2000/svg" xmlns:xlink="http://www.w3.org/1999/xlink" width="700" height="500" style="" viewBox="0 0 700 500"><rect x="0" y="0" width="700" height="500" style="fill: rgb(255, 255, 255); fill-opacity: 1;"/><defs id="defs-4380a3"><g class="clips"><clipPath id="clip4380a3xyplot" class="plotclip"><rect width="496" height="320"/></clipPath><clipPath class="axesclip" id="clip4380a3x"><rect x="80" y="0" width="496" height="500"/></clipPath><clipPath class="axesclip" id="clip4380a3y"><rect x="0" y="100" width="700" height="320"/></clipPath><clipPath class="axesclip" id="clip4380a3xy"><rect x="80" y="100" width="496" height="320"/></clipPath></g><g class="gradients"/></defs><g class="bglayer"><rect class="bg" x="80" y="100" width="496" height="320" style="fill: rgb(229, 236, 246); fill-opacity: 1; stroke-width: 0;"/></g><g class="layer-below"><g class="imagelayer"/><g class="shapelayer"/></g><g class="cartesianlayer"><g class="subplot xy"><g class="layer-subplot"><g class="shapelayer"/><g class="imagelayer"/></g><g class="gridlayer"><g class="x"><path class="xgrid crisp" transform="translate(179.2,0)" d="M0,100v320" style="stroke: rgb(255, 255, 255); stroke-opacity: 1; stroke-width: 1px;"/><path class="xgrid crisp" transform="translate(278.4,0)" d="M0,100v320" style="stroke: rgb(255, 255, 255); stroke-opacity: 1; stroke-width: 1px;"/><path class="xgrid crisp" transform="translate(377.6,0)" d="M0,100v320" style="stroke: rgb(255, 255, 255); stroke-opacity: 1; stroke-width: 1px;"/><path class="xgrid crisp" transform="translate(476.8,0)" d="M0,100v320" style="stroke: rgb(255, 255, 255); stroke-opacity: 1; stroke-width: 1px;"/></g><g class="y"><path class="ygrid crisp" transform="translate(0,407.19)" d="M80,0h496" style="stroke: rgb(255, 255, 255); stroke-opacity: 1; stroke-width: 1px;"/><path class="ygrid crisp" transform="translate(0,332.75)" d="M80,0h496" style="stroke: rgb(255, 255, 255); stroke-opacity: 1; stroke-width: 1px;"/><path class="ygrid crisp" transform="translate(0,295.53)" d="M80,0h496" style="stroke: rgb(255, 255, 255); stroke-opacity: 1; stroke-width: 1px;"/><path class="ygrid crisp" transform="translate(0,258.32)" d="M80,0h496" style="stroke: rgb(255, 255, 255); stroke-opacity: 1; stroke-width: 1px;"/><path class="ygrid crisp" transform="translate(0,221.1)" d="M80,0h496" style="stroke: rgb(255, 255, 255); stroke-opacity: 1; stroke-width: 1px;"/><path class="ygrid crisp" transform="translate(0,183.88)" d="M80,0h496" style="stroke: rgb(255, 255, 255); stroke-opacity: 1; stroke-width: 1px;"/><path class="ygrid crisp" transform="translate(0,146.66)" d="M80,0h496" style="stroke: rgb(255, 255, 255); stroke-opacity: 1; stroke-width: 1px;"/><path class="ygrid crisp" transform="translate(0,109.44)" d="M80,0h496" style="stroke: rgb(255, 255, 255); stroke-opacity: 1; stroke-width: 1px;"/></g></g><g class="zerolinelayer"><path class="xzl zl crisp" transform="translate(80,0)" d="M0,100v320" style="stroke: rgb(255, 255, 255); stroke-opacity: 1; stroke-width: 2px;"/><path class="yzl zl crisp" transform="translate(0,369.97)" d="M80,0h496" style="stroke: rgb(255, 255, 255); stroke-opacity: 1; stroke-width: 2px;"/></g><path class="xlines-below"/><path class="ylines-below"/><g class="overlines-below"/><g class="xaxislayer-below"/><g class="yaxislayer-below"/><g class="overaxes-below"/><g class="plot" transform="translate(80,100)" clip-path="url('#clip4380a3xyplot')"><g class="scatterlayer mlayer"><g class="trace scatter trace117b5f" style="stroke-miterlimit: 2; opacity: 1;"><g class="fills"/><g class="errorbars"/><g class="lines"><path class="js-line" d="M0,55L10.92,87.41L11.42,88.76L22.84,117.06L23.34,118.19L33.27,138.9L33.76,139.86L45.68,160.72L46.17,161.5L57.1,177.41L57.59,178.08L70.01,193.07L70.5,193.62L83.91,206.8L84.4,207.23L96.32,216.8L96.82,217.16L109.23,225.37L109.73,225.66L122.14,232.39L122.63,232.64L139.02,239.71L139.52,239.9L154.91,245.07L155.4,245.22L178.74,251.02L179.24,251.12L203.07,255.23L203.56,255.3L232.86,258.67L233.35,258.71L262.15,260.84L262.65,260.87L304.85,262.72L305.35,262.73L349.04,263.77L349.53,263.78L431.95,264.68L432.45,264.68L496,265" style="vector-effect: non-scaling-stroke; fill: none; stroke: rgb(0, 100, 80); stroke-opacity: 1; stroke-width: 2px; opacity: 1;"/></g><g class="points"/><g class="text"/></g><g class="trace scatter trace63b0b3" style="stroke-miterlimit: 2; opacity: 1;"><g class="fills"><g><path class="js-fill" d="M0,16L10.92,48.41L11.42,49.76L22.84,78.07L23.34,79.19L33.27,99.9L33.76,100.86L44.68,120.12L45.18,120.92L56.1,137.08L56.6,137.75L68.02,151.86L68.52,152.42L78.94,163.23L79.44,163.7L91.85,174.42L92.35,174.81L105.26,183.91L105.75,184.23L120.65,192.65L121.15,192.9L135.05,199.16L135.54,199.36L152.42,205.32L152.92,205.47L173.77,210.95L174.27,211.06L197.11,215.34L197.61,215.42L220.94,218.48L221.44,218.53L259.17,221.66L259.67,221.69L304.85,223.72L305.35,223.73L349.04,224.77L349.53,224.78L431.95,225.68L432.45,225.68L496,226L496,304L383.3,303.25L382.8,303.24L334.64,302.49L334.14,302.48L275.06,300.53L274.56,300.51L222.93,296.69L222.43,296.63L197.61,293.42L197.11,293.34L172.28,288.61L171.79,288.5L149.94,282.53L149.45,282.37L133.06,276.34L132.56,276.13L116.18,268.32L115.68,268.05L101.29,259.3L100.79,258.96L88.38,249.62L87.88,249.21L75.47,237.81L74.97,237.31L64.54,225.82L64.05,225.23L53.62,211.64L53.13,210.93L43.69,196.5L43.2,195.68L32.77,176.94L32.27,175.97L20.85,151.49L20.36,150.32L10.92,126.41L10.43,125.05L0.99,97.17L0.5,95.59L0,94Z" style="fill: rgb(0, 100, 80); fill-opacity: 0.2; stroke-width: 0;"/></g></g><g class="errorbars"/><g class="lines"><path class="js-line" d="M0,16L10.92,48.41L11.42,49.76L22.84,78.07L23.34,79.19L33.27,99.9L33.76,100.86L44.68,120.12L45.18,120.92L56.1,137.08L56.6,137.75L68.02,151.86L68.52,152.42L78.94,163.23L79.44,163.7L91.85,174.42L92.35,174.81L105.26,183.91L105.75,184.23L120.65,192.65L121.15,192.9L135.05,199.16L135.54,199.36L152.42,205.32L152.92,205.47L173.77,210.95L174.27,211.06L197.11,215.34L197.61,215.42L220.94,218.48L221.44,218.53L259.17,221.66L259.67,221.69L304.85,223.72L305.35,223.73L349.04,224.77L349.53,224.78L431.95,225.68L432.45,225.68L496,226L496,304L383.3,303.25L382.8,303.24L334.64,302.49L334.14,302.48L275.06,300.53L274.56,300.51L222.93,296.69L222.43,296.63L197.61,293.42L197.11,293.34L172.28,288.61L171.79,288.5L149.94,282.53L149.45,282.37L133.06,276.34L132.56,276.13L116.18,268.32L115.68,268.05L101.29,259.3L100.79,258.96L88.38,249.62L87.88,249.21L75.47,237.81L74.97,237.31L64.54,225.82L64.05,225.23L53.62,211.64L53.13,210.93L43.69,196.5L43.2,195.68L32.77,176.94L32.27,175.97L20.85,151.49L20.36,150.32L10.92,126.41L10.43,125.05L0.99,97.17L0.5,95.59L0,94" style="vector-effect: non-scaling-stroke; fill: none; stroke: rgb(255, 255, 255); stroke-opacity: 0; stroke-width: 2px; opacity: 1;"/></g><g class="points"/><g class="text"/></g></g></g><g class="overplot"/><path class="xlines-above crisp" d="M0,0" style="fill: none;"/><path class="ylines-above crisp" d="M0,0" style="fill: none;"/><g class="overlines-above"/><g class="xaxislayer-above"><g class="xtick"><text text-anchor="middle" x="0" y="433" transform="translate(80,0)" style="font-family: 'Open Sans', verdana, arial, sans-serif; font-size: 12px; fill: rgb(42, 63, 95); fill-opacity: 1; white-space: pre;">0</text></g><g class="xtick"><text text-anchor="middle" x="0" y="433" transform="translate(179.2,0)" style="font-family: 'Open Sans', verdana, arial, sans-serif; font-size: 12px; fill: rgb(42, 63, 95); fill-opacity: 1; white-space: pre;">0.2</text></g><g class="xtick"><text text-anchor="middle" x="0" y="433" transform="translate(278.4,0)" style="font-family: 'Open Sans', verdana, arial, sans-serif; font-size: 12px; fill: rgb(42, 63, 95); fill-opacity: 1; white-space: pre;">0.4</text></g><g class="xtick"><text text-anchor="middle" x="0" y="433" transform="translate(377.6,0)" style="font-family: 'Open Sans', verdana, arial, sans-serif; font-size: 12px; fill: rgb(42, 63, 95); fill-opacity: 1; white-space: pre;">0.6</text></g><g class="xtick"><text text-anchor="middle" x="0" y="433" transform="translate(476.8,0)" style="font-family: 'Open Sans', verdana, arial, sans-serif; font-size: 12px; fill: rgb(42, 63, 95); fill-opacity: 1; white-space: pre;">0.8</text></g><g class="xtick"><text text-anchor="middle" x="0" y="433" transform="translate(576,0)" style="font-family: 'Open Sans', verdana, arial, sans-serif; font-size: 12px; fill: rgb(42, 63, 95); fill-opacity: 1; white-space: pre;">1</text></g></g><g class="yaxislayer-above"><g class="ytick"><text text-anchor="end" x="79" y="4.199999999999999" transform="translate(0,407.19)" style="font-family: 'Open Sans', verdana, arial, sans-serif; font-size: 12px; fill: rgb(42, 63, 95); fill-opacity: 1; white-space: pre;">−500</text></g><g class="ytick"><text text-anchor="end" x="79" y="4.199999999999999" transform="translate(0,369.97)" style="font-family: 'Open Sans', verdana, arial, sans-serif; font-size: 12px; fill: rgb(42, 63, 95); fill-opacity: 1; white-space: pre;">0</text></g><g class="ytick"><text text-anchor="end" x="79" y="4.199999999999999" transform="translate(0,332.75)" style="font-family: 'Open Sans', verdana, arial, sans-serif; font-size: 12px; fill: rgb(42, 63, 95); fill-opacity: 1; white-space: pre;">500</text></g><g class="ytick"><text text-anchor="end" x="79" y="4.199999999999999" transform="translate(0,295.53)" style="font-family: 'Open Sans', verdana, arial, sans-serif; font-size: 12px; fill: rgb(42, 63, 95); fill-opacity: 1; white-space: pre;">1000</text></g><g class="ytick"><text text-anchor="end" x="79" y="4.199999999999999" transform="translate(0,258.32)" style="font-family: 'Open Sans', verdana, arial, sans-serif; font-size: 12px; fill: rgb(42, 63, 95); fill-opacity: 1; white-space: pre;">1500</text></g><g class="ytick"><text text-anchor="end" x="79" y="4.199999999999999" transform="translate(0,221.1)" style="font-family: 'Open Sans', verdana, arial, sans-serif; font-size: 12px; fill: rgb(42, 63, 95); fill-opacity: 1; white-space: pre;">2000</text></g><g class="ytick"><text text-anchor="end" x="79" y="4.199999999999999" transform="translate(0,183.88)" style="font-family: 'Open Sans', verdana, arial, sans-serif; font-size: 12px; fill: rgb(42, 63, 95); fill-opacity: 1; white-space: pre;">2500</text></g><g class="ytick"><text text-anchor="end" x="79" y="4.199999999999999" transform="translate(0,146.66)" style="font-family: 'Open Sans', verdana, arial, sans-serif; font-size: 12px; fill: rgb(42, 63, 95); fill-opacity: 1; white-space: pre;">3000</text></g><g class="ytick"><text text-anchor="end" x="79" y="4.199999999999999" transform="translate(0,109.44)" style="font-family: 'Open Sans', verdana, arial, sans-serif; font-size: 12px; fill: rgb(42, 63, 95); fill-opacity: 1; white-space: pre;">3500</text></g></g><g class="overaxes-above"/></g></g><g class="polarlayer"/><g class="ternarylayer"/><g class="geolayer"/><g class="funnelarealayer"/><g class="pielayer"/><g class="treemaplayer"/><g class="sunburstlayer"/><g class="glimages"/><defs id="topdefs-4380a3"><g class="clips"/><clipPath id="legend4380a3"><rect width="102" height="29" x="0" y="0"/></clipPath></defs><g class="layer-above"><g class="imagelayer"/><g class="shapelayer"/></g><g class="infolayer"><g class="legend" pointer-events="all" transform="translate(585.9200000000001,100)"><rect class="bg" shape-rendering="crispEdges" width="102" height="29" x="0" y="0" style="stroke: rgb(68, 68, 68); stroke-opacity: 1; fill: rgb(255, 255, 255); fill-opacity: 1; stroke-width: 0px;"/><g class="scrollbox" transform="" clip-path="url('#legend4380a3')"><g class="groups"><g class="traces" transform="translate(0,14.5)" style="opacity: 1;"><text class="legendtext" text-anchor="start" x="40" y="4.680000000000001" style="font-family: 'Open Sans', verdana, arial, sans-serif; font-size: 12px; fill: rgb(42, 63, 95); fill-opacity: 1; white-space: pre;">Prediction</text><g class="layers" style="opacity: 1;"><g class="legendfill"/><g class="legendlines"><path class="js-line" d="M5,0h30" style="fill: none; stroke: rgb(0, 100, 80); stroke-opacity: 1; stroke-width: 2px;"/></g><g class="legendsymbols"><g class="legendpoints"/></g></g><rect class="legendtoggle" x="0" y="-9.5" width="96.84375" height="19" style="fill: rgb(0, 0, 0); fill-opacity: 0;"/></g></g></g><rect class="scrollbar" rx="20" ry="3" width="0" height="0" x="0" y="0" style="fill: rgb(128, 139, 164); fill-opacity: 1;"/></g><g class="g-gtitle"/><g class="g-xtitle"><text class="xtitle" x="328" y="461.8" text-anchor="middle" style="font-family: 'Open Sans', verdana, arial, sans-serif; font-size: 14px; fill: rgb(42, 63, 95); opacity: 1; font-weight: normal; white-space: pre;">Time, hours</text></g><g class="g-ytitle"><text class="ytitle" transform="rotate(-90,26.746875000000003,260)" x="26.746875000000003" y="260" text-anchor="middle" style="font-family: 'Open Sans', verdana, arial, sans-serif; font-size: 14px; fill: rgb(42, 63, 95); opacity: 1; font-weight: normal; white-space: pre;">Docetaxel concentration, ng/mL</text></g></g></svg>