<svg class="main-svg" xmlns="http://www.w3.org/2000/svg" xmlns:xlink="http://www.w3.org/1999/xlink" width="700" height="500" style="" viewBox="0 0 700 500"><rect x="0" y="0" width="700" height="500" style="fill: rgb(255, 255, 255); fill-opacity: 1;"/><defs id="defs-19509f"><g class="clips"><clipPath id="clip19509fxyplot" class="plotclip"><rect width="496" height="320"/></clipPath><clipPath class="axesclip" id="clip19509fx"><rect x="80" y="0" width="496" height="500"/></clipPath><clipPath class="axesclip" id="clip19509fy"><rect x="0" y="100" width="700" height="320"/></clipPath><clipPath class="axesclip" id="clip19509fxy"><rect x="80" y="100" width="496" height="320"/></clipPath></g><g class="gradients"/></defs><g class="bglayer"><rect class="bg" x="80" y="100" width="496" height="320" style="fill: rgb(229, 236, 246); fill-opacity: 1; stroke-width: 0;"/></g><g class="layer-below"><g class="imagelayer"/><g class="shapelayer"/></g><g class="cartesianlayer"><g class="subplot xy"><g class="layer-subplot"><g class="shapelayer"/><g class="imagelayer"/></g><g class="gridlayer"><g class="x"><path class="xgrid crisp" transform="translate(179.2,0)" d="M0,100v320" style="stroke: rgb(255, 255, 255); stroke-opacity: 1; stroke-width: 1px;"/><path class="xgrid crisp" transform="translate(278.4,0)" d="M0,100v320" style="stroke: rgb(255, 255, 255); stroke-opacity: 1; stroke-width: 1px;"/><path class="xgrid crisp" transform="translate(377.6,0)" d="M0,100v320" style="stroke: rgb(255, 255, 255); stroke-opacity: 1; stroke-width: 1px;"/><path class="xgrid crisp" transform="translate(476.8,0)" d="M0,100v320" style="stroke: rgb(255, 255, 255); stroke-opacity: 1; stroke-width: 1px;"/></g><g class="y"><path class="ygrid crisp" transform="translate(0,328.69)" d="M80,0h496" style="stroke: rgb(255, 255, 255); stroke-opacity: 1; stroke-width: 1px;"/><path class="ygrid crisp" transform="translate(0,259.52)" d="M80,0h496" style="stroke: rgb(255, 255, 255); stroke-opacity: 1; stroke-width: 1px;"/><path class="ygrid crisp" transform="translate(0,190.34)" d="M80,0h496" style="stroke: rgb(255, 255, 255); stroke-opacity: 1; stroke-width: 1px;"/><path class="ygrid crisp" transform="translate(0,121.16)" d="M80,0h496" style="stroke: rgb(255, 255, 255); stroke-opacity: 1; stroke-width: 1px;"/></g></g><g class="zerolinelayer"><path class="xzl zl crisp" transform="translate(80,0)" d="M0,100v320" style="stroke: rgb(255, 255, 255); stroke-opacity: 1; stroke-width: 2px;"/><path class="yzl zl crisp" transform="translate(0,397.87)" d="M80,0h496" style="stroke: rgb(255, 255, 255); stroke-opacity: 1; stroke-width: 2px;"/></g><path class="xlines-below"/><path class="ylines-below"/><g class="overlines-below"/><g class="xaxislayer-below"/><g class="yaxislayer-below"/><g class="overaxes-below"/><g class="plot" transform="translate(80,100)" clip-path="url('#clip19509fxyplot')"><g class="scatterlayer mlayer"><g class="trace scatter traced809cb" style="stroke-miterlimit: 2; opacity: 1;"><g class="fills"/><g class="errorbars"/><g class="lines"><path class="js-line" d="M0,98.09L10.92,128.21L11.42,129.46L22.34,154.72L22.84,155.77L34.26,177.83L34.75,178.7L46.17,197.07L46.67,197.79L57.59,212.47L58.09,213.08L70.5,226.91L71,227.41L82.91,238.34L83.41,238.75L96.82,248.79L97.31,249.13L111.71,257.78L112.21,258.04L127.1,265.13L127.6,265.34L143.98,271.44L144.48,271.6L163.84,277.04L164.34,277.16L185.69,281.53L186.19,281.61L207.04,284.69L207.54,284.75L239.31,287.89L239.81,287.93L299.88,290.98L300.38,290.99L345.56,292.05L346.06,292.06L423.02,292.89L423.51,292.89L474.65,293.17L475.15,293.17L496,293.25" style="vector-effect: non-scaling-stroke; fill: none; stroke: rgb(0, 100, 80); stroke-opacity: 1; stroke-width: 2px; opacity: 1;"/></g><g class="points"/><g class="text"/></g><g class="trace scatter tracea58675" style="stroke-miterlimit: 2; opacity: 1;"><g class="fills"><g><path class="js-fill" d="M0,16L10.92,57.13L11.42,58.84L22.34,93.33L22.84,94.76L33.27,122.48L33.76,123.69L44.68,148.14L45.18,149.15L56.1,169.65L56.6,170.51L68.52,189.13L69.01,189.83L80.43,204.63L80.93,205.21L92.35,217.53L92.84,218.02L104.76,228.68L105.26,229.09L117.17,237.9L117.67,238.23L132.07,246.87L132.56,247.14L148.95,254.85L149.45,255.05L163.35,260.2L163.84,260.37L184.2,266.14L184.7,266.26L204.56,270.37L205.05,270.46L228.88,273.99L229.38,274.05L261.65,277.18L262.15,277.22L297.4,279.29L297.9,279.31L362.44,281.21L362.94,281.22L451.32,282.24L451.81,282.24L496,282.5L496,304L346.55,303.25L346.06,303.24L296.9,302.49L296.41,302.48L239.31,300.6L238.81,300.57L206.05,298.49L205.55,298.44L174.27,295.19L173.77,295.13L143.98,290.16L143.49,290.05L125.12,285.62L124.62,285.48L106.75,279.73L106.25,279.55L91.85,273.58L91.36,273.35L77.45,266.14L76.96,265.85L64.05,257.55L63.55,257.2L49.65,246.13L49.15,245.69L37.24,234.03L36.74,233.5L25.82,220.66L25.32,220.03L13.9,203.96L13.41,203.2L3.48,186.61L2.98,185.71L0,180.17Z" style="fill: rgb(0, 100, 80); fill-opacity: 0.2; stroke-width: 0;"/></g></g><g class="errorbars"/><g class="lines"><path class="js-line" d="M0,16L10.92,57.13L11.42,58.84L22.34,93.33L22.84,94.76L33.27,122.48L33.76,123.69L44.68,148.14L45.18,149.15L56.1,169.65L56.6,170.51L68.52,189.13L69.01,189.83L80.43,204.63L80.93,205.21L92.35,217.53L92.84,218.02L104.76,228.68L105.26,229.09L117.17,237.9L117.67,238.23L132.07,246.87L132.56,247.14L148.95,254.85L149.45,255.05L163.35,260.2L163.84,260.37L184.2,266.14L184.7,266.26L204.56,270.37L205.05,270.46L228.88,273.99L229.38,274.05L261.65,277.18L262.15,277.22L297.4,279.29L297.9,279.31L362.44,281.21L362.94,281.22L451.32,282.24L451.81,282.24L496,282.5L496,304L346.55,303.25L346.06,303.24L296.9,302.49L296.41,302.48L239.31,300.6L238.81,300.57L206.05,298.49L205.55,298.44L174.27,295.19L173.77,295.13L143.98,290.16L143.49,290.05L125.12,285.62L124.62,285.48L106.75,279.73L106.25,279.55L91.85,273.58L91.36,273.35L77.45,266.14L76.96,265.85L64.05,257.55L63.55,257.2L49.65,246.13L49.15,245.69L37.24,234.03L36.74,233.5L25.82,220.66L25.32,220.03L13.9,203.96L13.41,203.2L3.48,186.61L2.98,185.71L0,180.17" style="vector-effect: non-scaling-stroke; fill: none; stroke: rgb(255, 255, 255); stroke-opacity: 0; stroke-width: 2px; opacity: 1;"/></g><g class="points"/><g class="text"/></g></g></g><g class="overplot"/><path class="xlines-above crisp" d="M0,0" style="fill: none;"/><path class="ylines-above crisp" d="M0,0" style="fill: none;"/><g class="overlines-above"/><g class="xaxislayer-above"><g class="xtick"><text text-anchor="middle" x="0" y="433" transform="translate(80,0)" style="font-family: 'Open Sans', verdana, arial, sans-serif; font-size: 12px; fill: rgb(42, 63, 95); fill-opacity: 1; white-space: pre;">0</text></g><g class="xtick"><text text-anchor="middle" x="0" y="433" transform="translate(179.2,0)" style="font-family: 'Open Sans', verdana, arial, sans-serif; font-size: 12px; fill: rgb(42, 63, 95); fill-opacity: 1; white-space: pre;">0.2</text></g><g class="xtick"><text text-anchor="middle" x="0" y="433" transform="translate(278.4,0)" style="font-family: 'Open Sans', verdana, arial, sans-serif; font-size: 12px; fill: rgb(42, 63, 95); fill-opacity: 1; white-space: pre;">0.4</text></g><g class="xtick"><text text-anchor="middle" x="0" y="433" transform="translate(377.6,0)" style="font-family: 'Open Sans', verdana, arial, sans-serif; font-size: 12px; fill: rgb(42, 63, 95); fill-opacity: 1; white-space: pre;">0.6</text></g><g class="xtick"><text text-anchor="middle" x="0" y="433" transform="translate(476.8,0)" style="font-family: 'Open Sans', verdana, arial, sans-serif; font-size: 12px; fill: rgb(42, 63, 95); fill-opacity: 1; white-space: pre;">0.8</text></g><g class="xtick"><text text-anchor="middle" x="0" y="433" transform="translate(576,0)" style="font-family: 'Open Sans', verdana, arial, sans-serif; font-size: 12px; fill: rgb(42, 63, 95); fill-opacity: 1; white-space: pre;">1</text></g></g><g class="yaxislayer-above"><g class="ytick"><text text-anchor="end" x="79" y="4.199999999999999" transform="translate(0,397.87)" style="font-family: 'Open Sans', verdana, arial, sans-serif; font-size: 12px; fill: rgb(42, 63, 95); fill-opacity: 1; white-space: pre;">0</text></g><g class="ytick"><text text-anchor="end" x="79" y="4.199999999999999" transform="translate(0,328.69)" style="font-family: 'Open Sans', verdana, arial, sans-serif; font-size: 12px; fill: rgb(42, 63, 95); fill-opacity: 1; white-space: pre;">1000</text></g><g class="ytick"><text text-anchor="end" x="79" y="4.199999999999999" transform="translate(0,259.52)" style="font-family: 'Open Sans', verdana, arial, sans-serif; font-size: 12px; fill: rgb(42, 63, 95); fill-opacity: 1; white-space: pre;">2000</text></g><g class="ytick"><text text-anchor="end" x="79" y="4.199999999999999" transform="translate(0,190.34)" style="font-family: 'Open Sans', verdana, arial, sans-serif; font-size: 12px; fill: rgb(42, 63, 95); fill-opacity: 1; white-space: pre;">3000</text></g><g class="ytick"><text text-anchor="end" x="79" y="4.199999999999999" transform="translate(0,121.16)" style="font-family: 'Open Sans', verdana, arial, sans-serif; font-size: 12px; fill: rgb(42, 63, 95); fill-opacity: 1; white-space: pre;">4000</text></g></g><g class="overaxes-above"/></g></g><g class="polarlayer"/><g class="ternarylayer"/><g class="geolayer"/><g class="funnelarealayer"/><g class="pielayer"/><g class="treemaplayer"/><g class="sunburstlayer"/><g class="glimages"/><defs id="topdefs-19509f"><g class="clips"/><clipPath id="legend19509f"><rect width="102" height="29" x="0" y="0"/></clipPath></defs><g class="layer-above"><g class="imagelayer"/><g class="shapelayer"/></g><g class="infolayer"><g class="legend" pointer-events="all" transform="translate(585.9200000000001,100)"><rect class="bg" shape-rendering="crispEdges" width="102" height="29" x="0" y="0" style="stroke: rgb(68, 68, 68); stroke-opacity: 1; fill: rgb(255, 255, 255); fill-opacity: 1; stroke-width: 0px;"/><g class="scrollbox" transform="" clip-path="url('#legend19509f')"><g class="groups"><g class="traces" transform="translate(0,14.5)" style="opacity: 1;"><text class="legendtext" text-anchor="start" x="40" y="4.680000000000001" style="font-family: 'Open Sans', verdana, arial, sans-serif; font-size: 12px; fill: rgb(42, 63, 95); fill-opacity: 1; white-space: pre;">Prediction</text><g class="layers" style="opacity: 1;"><g class="legendfill"/><g class="legendlines"><path class="js-line" d="M5,0h30" style="fill: none; stroke: rgb(0, 100, 80); stroke-opacity: 1; stroke-width: 2px;"/></g><g class="legendsymbols"><g class="legendpoints"/></g></g><rect class="legendtoggle" x="0" y="-9.5" width="96.84375" height="19" style="fill: rgb(0, 0, 0); fill-opacity: 0;"/></g></g></g><rect class="scrollbar" rx="20" ry="3" width="0" height="0" x="0" y="0" style="fill: rgb(128, 139, 164); fill-opacity: 1;"/></g><g class="g-gtitle"/><g class="g-xtitle"><text class="xtitle" x="328" y="461.8" text-anchor="middle" style="font-family: 'Open Sans', verdana, arial, sans-serif; font-size: 14px; fill: rgb(42, 63, 95); opacity: 1; font-weight: normal; white-space: pre;">Time, hours</text></g><g class="g-ytitle"><text class="ytitle" transform="rotate(-90,26.746875000000003,260)" x="26.746875000000003" y="260" text-anchor="middle" style="font-family: 'Open Sans', verdana, arial, sans-serif; font-size: 14px; fill: rgb(42, 63, 95); opacity: 1; font-weight: normal; white-space: pre;">Docetaxel concentration, ng/mL</text></g></g></svg>