<svg class="main-svg" xmlns="http://www.w3.org/2000/svg" xmlns:xlink="http://www.w3.org/1999/xlink" width="700" height="500" style="" viewBox="0 0 700 500"><rect x="0" y="0" width="700" height="500" style="fill: rgb(255, 255, 255); fill-opacity: 1;"/><defs id="defs-197ee7"><g class="clips"><clipPath id="clip197ee7xyplot" class="plotclip"><rect width="496" height="320"/></clipPath><clipPath class="axesclip" id="clip197ee7x"><rect x="80" y="0" width="496" height="500"/></clipPath><clipPath class="axesclip" id="clip197ee7y"><rect x="0" y="100" width="700" height="320"/></clipPath><clipPath class="axesclip" id="clip197ee7xy"><rect x="80" y="100" width="496" height="320"/></clipPath></g><g class="gradients"/></defs><g class="bglayer"><rect class="bg" x="80" y="100" width="496" height="320" style="fill: rgb(229, 236, 246); fill-opacity: 1; stroke-width: 0;"/></g><g class="layer-below"><g class="imagelayer"/><g class="shapelayer"/></g><g class="cartesianlayer"><g class="subplot xy"><g class="layer-subplot"><g class="shapelayer"/><g class="imagelayer"/></g><g class="gridlayer"><g class="x"><path class="xgrid crisp" transform="translate(179.2,0)" d="M0,100v320" style="stroke: rgb(255, 255, 255); stroke-opacity: 1; stroke-width: 1px;"/><path class="xgrid crisp" transform="translate(278.4,0)" d="M0,100v320" style="stroke: rgb(255, 255, 255); stroke-opacity: 1; stroke-width: 1px;"/><path class="xgrid crisp" transform="translate(377.6,0)" d="M0,100v320" style="stroke: rgb(255, 255, 255); stroke-opacity: 1; stroke-width: 1px;"/><path class="xgrid crisp" transform="translate(476.8,0)" d="M0,100v320" style="stroke: rgb(255, 255, 255); stroke-opacity: 1; stroke-width: 1px;"/></g><g class="y"><path class="ygrid crisp" transform="translate(0,370.21)" d="M80,0h496" style="stroke: rgb(255, 255, 255); stroke-opacity: 1; stroke-width: 1px;"/><path class="ygrid crisp" transform="translate(0,333.3)" d="M80,0h496" style="stroke: rgb(255, 255, 255); stroke-opacity: 1; stroke-width: 1px;"/><path class="ygrid crisp" transform="translate(0,296.39)" d="M80,0h496" style="stroke: rgb(255, 255, 255); stroke-opacity: 1; stroke-width: 1px;"/><path class="ygrid crisp" transform="translate(0,259.48)" d="M80,0h496" style="stroke: rgb(255, 255, 255); stroke-opacity: 1; stroke-width: 1px;"/><path class="ygrid crisp" transform="translate(0,222.57)" d="M80,0h496" style="stroke: rgb(255, 255, 255); stroke-opacity: 1; stroke-width: 1px;"/><path class="ygrid crisp" transform="translate(0,185.66)" d="M80,0h496" style="stroke: rgb(255, 255, 255); stroke-opacity: 1; stroke-width: 1px;"/><path class="ygrid crisp" transform="translate(0,148.75)" d="M80,0h496" style="stroke: rgb(255, 255, 255); stroke-opacity: 1; stroke-width: 1px;"/><path class="ygrid crisp" transform="translate(0,111.84)" d="M80,0h496" style="stroke: rgb(255, 255, 255); stroke-opacity: 1; stroke-width: 1px;"/></g></g><g class="zerolinelayer"><path class="xzl zl crisp" transform="translate(80,0)" d="M0,100v320" style="stroke: rgb(255, 255, 255); stroke-opacity: 1; stroke-width: 2px;"/><path class="yzl zl crisp" transform="translate(0,407.13)" d="M80,0h496" style="stroke: rgb(255, 255, 255); stroke-opacity: 1; stroke-width: 2px;"/></g><path class="xlines-below"/><path class="ylines-below"/><g class="overlines-below"/><g class="xaxislayer-below"/><g class="yaxislayer-below"/><g class="overaxes-below"/><g class="plot" transform="translate(80,100)" clip-path="url('#clip197ee7xyplot')"><g class="scatterlayer mlayer"><g class="trace scatter tracebf1e66" style="stroke-miterlimit: 2; opacity: 1;"><g class="fills"/><g class="errorbars"/><g class="lines"><path class="js-line" d="M0,93.93L10.92,126.07L11.42,127.41L22.84,155.48L23.34,156.6L33.27,177.14L33.76,178.09L45.18,197.99L45.68,198.77L55.11,212.66L55.61,213.34L66.03,226.41L66.53,226.98L78.45,239.47L78.94,239.94L91.36,250.65L91.85,251.04L106.25,261.08L106.75,261.39L121.15,269.37L121.64,269.62L138.52,276.93L139.02,277.12L159.38,283.71L159.87,283.84L178.24,288.23L178.74,288.33L204.06,292.65L204.56,292.72L230.87,295.73L231.37,295.78L259.67,297.92L260.16,297.95L306.34,299.98L306.83,299.99L351.02,301.01L351.52,301.02L431.95,301.88L432.45,301.88L496,302.2" style="vector-effect: non-scaling-stroke; fill: none; stroke: rgb(0, 100, 80); stroke-opacity: 1; stroke-width: 2px; opacity: 1;"/></g><g class="points"/><g class="text"/></g><g class="trace scatter trace620004" style="stroke-miterlimit: 2; opacity: 1;"><g class="fills"><g><path class="js-fill" d="M0,16L10.92,59.89L11.42,61.72L22.34,98.52L22.84,100.05L33.76,130.92L34.26,132.2L43.69,154.81L44.19,155.91L53.62,175.32L54.12,176.26L64.05,193.72L64.54,194.53L75.96,211.44L76.46,212.11L87.88,226.19L88.38,226.75L98.8,237.54L99.3,238.01L111.71,248.7L112.21,249.09L125.12,258.18L125.61,258.49L140.51,266.91L141.01,267.15L154.91,273.4L155.4,273.6L172.28,279.56L172.78,279.71L189.17,284.17L189.66,284.29L217.47,289.68L217.96,289.75L242.29,292.91L242.79,292.96L280.02,296.02L280.52,296.05L328.18,298.16L328.68,298.18L456.78,300.16L457.27,300.16L496,300.4L496,304L351.02,303.25L350.53,303.24L301.37,302.49L300.88,302.48L243.78,300.59L243.28,300.57L192.64,296.84L192.14,296.78L166.33,293.42L165.83,293.34L142,288.78L141.5,288.67L118.66,282.38L118.17,282.21L102.77,276.5L102.28,276.29L87.38,269.26L86.89,269L72.49,260.42L71.99,260.09L59.08,250.53L58.59,250.13L47.17,239.86L46.67,239.37L36.24,228.19L35.75,227.61L25.32,214.39L24.82,213.7L13.41,196.43L12.91,195.6L3.48,178.72L2.98,177.77L0,171.86Z" style="fill: rgb(0, 100, 80); fill-opacity: 0.2; stroke-width: 0;"/></g></g><g class="errorbars"/><g class="lines"><path class="js-line" d="M0,16L10.92,59.89L11.42,61.72L22.34,98.52L22.84,100.05L33.76,130.92L34.26,132.2L43.69,154.81L44.19,155.91L53.62,175.32L54.12,176.26L64.05,193.72L64.54,194.53L75.96,211.44L76.46,212.11L87.88,226.19L88.38,226.75L98.8,237.54L99.3,238.01L111.71,248.7L112.21,249.09L125.12,258.18L125.61,258.49L140.51,266.91L141.01,267.15L154.91,273.4L155.4,273.6L172.28,279.56L172.78,279.71L189.17,284.17L189.66,284.29L217.47,289.68L217.96,289.75L242.29,292.91L242.79,292.96L280.02,296.02L280.52,296.05L328.18,298.16L328.68,298.18L456.78,300.16L457.27,300.16L496,300.4L496,304L351.02,303.25L350.53,303.24L301.37,302.49L300.88,302.48L243.78,300.59L243.28,300.57L192.64,296.84L192.14,296.78L166.33,293.42L165.83,293.34L142,288.78L141.5,288.67L118.66,282.38L118.17,282.21L102.77,276.5L102.28,276.29L87.38,269.26L86.89,269L72.49,260.42L71.99,260.09L59.08,250.53L58.59,250.13L47.17,239.86L46.67,239.37L36.24,228.19L35.75,227.61L25.32,214.39L24.82,213.7L13.41,196.43L12.91,195.6L3.48,178.72L2.98,177.77L0,171.86" style="vector-effect: non-scaling-stroke; fill: none; stroke: rgb(255, 255, 255); stroke-opacity: 0; stroke-width: 2px; opacity: 1;"/></g><g class="points"/><g class="text"/></g></g></g><g class="overplot"/><path class="xlines-above crisp" d="M0,0" style="fill: none;"/><path class="ylines-above crisp" d="M0,0" style="fill: none;"/><g class="overlines-above"/><g class="xaxislayer-above"><g class="xtick"><text text-anchor="middle" x="0" y="433" transform="translate(80,0)" style="font-family: 'Open Sans', verdana, arial, sans-serif; font-size: 12px; fill: rgb(42, 63, 95); fill-opacity: 1; white-space: pre;">0</text></g><g class="xtick"><text text-anchor="middle" x="0" y="433" transform="translate(179.2,0)" style="font-family: 'Open Sans', verdana, arial, sans-serif; font-size: 12px; fill: rgb(42, 63, 95); fill-opacity: 1; white-space: pre;">0.2</text></g><g class="xtick"><text text-anchor="middle" x="0" y="433" transform="translate(278.4,0)" style="font-family: 'Open Sans', verdana, arial, sans-serif; font-size: 12px; fill: rgb(42, 63, 95); fill-opacity: 1; white-space: pre;">0.4</text></g><g class="xtick"><text text-anchor="middle" x="0" y="433" transform="translate(377.6,0)" style="font-family: 'Open Sans', verdana, arial, sans-serif; font-size: 12px; fill: rgb(42, 63, 95); fill-opacity: 1; white-space: pre;">0.6</text></g><g class="xtick"><text text-anchor="middle" x="0" y="433" transform="translate(476.8,0)" style="font-family: 'Open Sans', verdana, arial, sans-serif; font-size: 12px; fill: rgb(42, 63, 95); fill-opacity: 1; white-space: pre;">0.8</text></g><g class="xtick"><text text-anchor="middle" x="0" y="433" transform="translate(576,0)" style="font-family: 'Open Sans', verdana, arial, sans-serif; font-size: 12px; fill: rgb(42, 63, 95); fill-opacity: 1; white-space: pre;">1</text></g></g><g class="yaxislayer-above"><g class="ytick"><text text-anchor="end" x="79" y="4.199999999999999" transform="translate(0,407.13)" style="font-family: 'Open Sans', verdana, arial, sans-serif; font-size: 12px; fill: rgb(42, 63, 95); fill-opacity: 1; white-space: pre;">0</text></g><g class="ytick"><text text-anchor="end" x="79" y="4.199999999999999" transform="translate(0,370.21)" style="font-family: 'Open Sans', verdana, arial, sans-serif; font-size: 12px; fill: rgb(42, 63, 95); fill-opacity: 1; white-space: pre;">500</text></g><g class="ytick"><text text-anchor="end" x="79" y="4.199999999999999" transform="translate(0,333.3)" style="font-family: 'Open Sans', verdana, arial, sans-serif; font-size: 12px; fill: rgb(42, 63, 95); fill-opacity: 1; white-space: pre;">1000</text></g><g class="ytick"><text text-anchor="end" x="79" y="4.199999999999999" transform="translate(0,296.39)" style="font-family: 'Open Sans', verdana, arial, sans-serif; font-size: 12px; fill: rgb(42, 63, 95); fill-opacity: 1; white-space: pre;">1500</text></g><g class="ytick"><text text-anchor="end" x="79" y="4.199999999999999" transform="translate(0,259.48)" style="font-family: 'Open Sans', verdana, arial, sans-serif; font-size: 12px; fill: rgb(42, 63, 95); fill-opacity: 1; white-space: pre;">2000</text></g><g class="ytick"><text text-anchor="end" x="79" y="4.199999999999999" transform="translate(0,222.57)" style="font-family: 'Open Sans', verdana, arial, sans-serif; font-size: 12px; fill: rgb(42, 63, 95); fill-opacity: 1; white-space: pre;">2500</text></g><g class="ytick"><text text-anchor="end" x="79" y="4.199999999999999" transform="translate(0,185.66)" style="font-family: 'Open Sans', verdana, arial, sans-serif; font-size: 12px; fill: rgb(42, 63, 95); fill-opacity: 1; white-space: pre;">3000</text></g><g class="ytick"><text text-anchor="end" x="79" y="4.199999999999999" transform="translate(0,148.75)" style="font-family: 'Open Sans', verdana, arial, sans-serif; font-size: 12px; fill: rgb(42, 63, 95); fill-opacity: 1; white-space: pre;">3500</text></g><g class="ytick"><text text-anchor="end" x="79" y="4.199999999999999" transform="translate(0,111.84)" style="font-family: 'Open Sans', verdana, arial, sans-serif; font-size: 12px; fill: rgb(42, 63, 95); fill-opacity: 1; white-space: pre;">4000</text></g></g><g class="overaxes-above"/></g></g><g class="polarlayer"/><g class="ternarylayer"/><g class="geolayer"/><g class="funnelarealayer"/><g class="pielayer"/><g class="treemaplayer"/><g class="sunburstlayer"/><g class="glimages"/><defs id="topdefs-197ee7"><g class="clips"/><clipPath id="legend197ee7"><rect width="102" height="29" x="0" y="0"/></clipPath></defs><g class="layer-above"><g class="imagelayer"/><g class="shapelayer"/></g><g class="infolayer"><g class="legend" pointer-events="all" transform="translate(585.9200000000001,100)"><rect class="bg" shape-rendering="crispEdges" width="102" height="29" x="0" y="0" style="stroke: rgb(68, 68, 68); stroke-opacity: 1; fill: rgb(255, 255, 255); fill-opacity: 1; stroke-width: 0px;"/><g class="scrollbox" transform="" clip-path="url('#legend197ee7')"><g class="groups"><g class="traces" transform="translate(0,14.5)" style="opacity: 1;"><text class="legendtext" text-anchor="start" x="40" y="4.680000000000001" style="font-family: 'Open Sans', verdana, arial, sans-serif; font-size: 12px; fill: rgb(42, 63, 95); fill-opacity: 1; white-space: pre;">Prediction</text><g class="layers" style="opacity: 1;"><g class="legendfill"/><g class="legendlines"><path class="js-line" d="M5,0h30" style="fill: none; stroke: rgb(0, 100, 80); stroke-opacity: 1; stroke-width: 2px;"/></g><g class="legendsymbols"><g class="legendpoints"/></g></g><rect class="legendtoggle" x="0" y="-9.5" width="96.84375" height="19" style="fill: rgb(0, 0, 0); fill-opacity: 0;"/></g></g></g><rect class="scrollbar" rx="20" ry="3" width="0" height="0" x="0" y="0" style="fill: rgb(128, 139, 164); fill-opacity: 1;"/></g><g class="g-gtitle"/><g class="g-xtitle"><text class="xtitle" x="328" y="461.8" text-anchor="middle" style="font-family: 'Open Sans', verdana, arial, sans-serif; font-size: 14px; fill: rgb(42, 63, 95); opacity: 1; font-weight: normal; white-space: pre;">Time, hours</text></g><g class="g-ytitle"><text class="ytitle" transform="rotate(-90,26.746875000000003,260)" x="26.746875000000003" y="260" text-anchor="middle" style="font-family: 'Open Sans', verdana, arial, sans-serif; font-size: 14px; fill: rgb(42, 63, 95); opacity: 1; font-weight: normal; white-space: pre;">Docetaxel concentration, ng/mL</text></g></g></svg>