<svg class="main-svg" xmlns="http://www.w3.org/2000/svg" xmlns:xlink="http://www.w3.org/1999/xlink" width="500" height="360" style="" viewBox="0 0 500 360"><rect x="0" y="0" width="500" height="360" style="fill: rgb(255, 255, 255); fill-opacity: 1;"/><defs id="defs-70de50"><g class="clips"><clipPath id="clip70de50xyplot" class="plotclip"><rect width="340" height="220"/></clipPath><clipPath class="axesclip" id="clip70de50x"><rect x="80" y="0" width="340" height="360"/></clipPath><clipPath class="axesclip" id="clip70de50y"><rect x="0" y="60" width="500" height="220"/></clipPath><clipPath class="axesclip" id="clip70de50xy"><rect x="80" y="60" width="340" height="220"/></clipPath></g><g class="gradients"/></defs><g class="bglayer"><rect class="bg" x="80" y="60" width="340" height="220" style="fill: rgb(229, 236, 246); fill-opacity: 1; stroke-width: 0;"/></g><g class="layer-below"><g class="imagelayer"/><g class="shapelayer"/></g><g class="cartesianlayer"><g class="subplot xy"><g class="layer-subplot"><g class="shapelayer"/><g class="imagelayer"/></g><g class="gridlayer"><g class="x"><path class="xgrid crisp" transform="translate(100.75,0)" d="M0,60v220" style="stroke: rgb(255, 255, 255); stroke-opacity: 1; stroke-width: 1px;"/><path class="xgrid crisp" transform="translate(148.51,0)" d="M0,60v220" style="stroke: rgb(255, 255, 255); stroke-opacity: 1; stroke-width: 1px;"/><path class="xgrid crisp" transform="translate(172.39,0)" d="M0,60v220" style="stroke: rgb(255, 255, 255); stroke-opacity: 1; stroke-width: 1px;"/><path class="xgrid crisp" transform="translate(196.26999999999998,0)" d="M0,60v220" style="stroke: rgb(255, 255, 255); stroke-opacity: 1; stroke-width: 1px;"/><path class="xgrid crisp" transform="translate(220.15,0)" d="M0,60v220" style="stroke: rgb(255, 255, 255); stroke-opacity: 1; stroke-width: 1px;"/><path class="xgrid crisp" transform="translate(244.03,0)" d="M0,60v220" style="stroke: rgb(255, 255, 255); stroke-opacity: 1; stroke-width: 1px;"/><path class="xgrid crisp" transform="translate(267.90999999999997,0)" d="M0,60v220" style="stroke: rgb(255, 255, 255); stroke-opacity: 1; stroke-width: 1px;"/><path class="xgrid crisp" transform="translate(291.78999999999996,0)" d="M0,60v220" style="stroke: rgb(255, 255, 255); stroke-opacity: 1; stroke-width: 1px;"/><path class="xgrid crisp" transform="translate(315.66999999999996,0)" d="M0,60v220" style="stroke: rgb(255, 255, 255); stroke-opacity: 1; stroke-width: 1px;"/><path class="xgrid crisp" transform="translate(339.55,0)" d="M0,60v220" style="stroke: rgb(255, 255, 255); stroke-opacity: 1; stroke-width: 1px;"/><path class="xgrid crisp" transform="translate(363.43,0)" d="M0,60v220" style="stroke: rgb(255, 255, 255); stroke-opacity: 1; stroke-width: 1px;"/><path class="xgrid crisp" transform="translate(387.31,0)" d="M0,60v220" style="stroke: rgb(255, 255, 255); stroke-opacity: 1; stroke-width: 1px;"/><path class="xgrid crisp" transform="translate(411.19,0)" d="M0,60v220" style="stroke: rgb(255, 255, 255); stroke-opacity: 1; stroke-width: 1px;"/></g><g class="y"><path class="ygrid crisp" transform="translate(0,217.03)" d="M80,0h340" style="stroke: rgb(255, 255, 255); stroke-opacity: 1; stroke-width: 1px;"/><path class="ygrid crisp" transform="translate(0,163.45)" d="M80,0h340" style="stroke: rgb(255, 255, 255); stroke-opacity: 1; stroke-width: 1px;"/><path class="ygrid crisp" transform="translate(0,109.88)" d="M80,0h340" style="stroke: rgb(255, 255, 255); stroke-opacity: 1; stroke-width: 1px;"/></g></g><g class="zerolinelayer"><path class="xzl zl crisp" transform="translate(124.63,0)" d="M0,60v220" style="stroke: rgb(255, 255, 255); stroke-opacity: 1; stroke-width: 2px;"/><path class="yzl zl crisp" transform="translate(0,270.61)" d="M80,0h340" style="stroke: rgb(255, 255, 255); stroke-opacity: 1; stroke-width: 2px;"/></g><path class="xlines-below"/><path class="ylines-below"/><g class="overlines-below"/><g class="xaxislayer-below"/><g class="yaxislayer-below"/><g class="overaxes-below"/><g class="plot" transform="translate(80,60)" clip-path="url('#clip70de50xyplot')"><g class="scatterlayer mlayer"><g class="trace scatter tracea5fa97" style="stroke-miterlimit: 2; opacity: 1;"><g class="fills"/><g class="errorbars"/><g class="lines"><path class="js-line" d="M20.75,179.27L56.57,174.98L92.39,205.25L128.21,189.18L164.03,43.18L199.85,142.3L235.67,151.67L319.25,176.05" style="vector-effect: non-scaling-stroke; fill: none; stroke: rgb(99, 110, 250); stroke-opacity: 1; stroke-width: 2px; opacity: 1; stroke-dasharray: 3px, 3px;"/></g><g class="points"><path class="point plotly-customdata" transform="translate(20.75,179.27)" d="M3,0A3,3 0 1,1 0,-3A3,3 0 0,1 3,0Z" style="opacity: 1; stroke-width: 0px; fill: rgb(99, 110, 250); fill-opacity: 1;"/><path class="point plotly-customdata" transform="translate(56.57,174.98)" d="M3,0A3,3 0 1,1 0,-3A3,3 0 0,1 3,0Z" style="opacity: 1; stroke-width: 0px; fill: rgb(99, 110, 250); fill-opacity: 1;"/><path class="point plotly-customdata" transform="translate(92.39,205.25)" d="M3,0A3,3 0 1,1 0,-3A3,3 0 0,1 3,0Z" style="opacity: 1; stroke-width: 0px; fill: rgb(99, 110, 250); fill-opacity: 1;"/><path class="point plotly-customdata" transform="translate(128.21,189.18)" d="M3,0A3,3 0 1,1 0,-3A3,3 0 0,1 3,0Z" style="opacity: 1; stroke-width: 0px; fill: rgb(99, 110, 250); fill-opacity: 1;"/><path class="point plotly-customdata" transform="translate(164.03,43.18)" d="M3,0A3,3 0 1,1 0,-3A3,3 0 0,1 3,0Z" style="opacity: 1; stroke-width: 0px; fill: rgb(99, 110, 250); fill-opacity: 1;"/><path class="point plotly-customdata" transform="translate(199.85,142.3)" d="M3,0A3,3 0 1,1 0,-3A3,3 0 0,1 3,0Z" style="opacity: 1; stroke-width: 0px; fill: rgb(99, 110, 250); fill-opacity: 1;"/><path class="point plotly-customdata" transform="translate(235.67,151.67)" d="M3,0A3,3 0 1,1 0,-3A3,3 0 0,1 3,0Z" style="opacity: 1; stroke-width: 0px; fill: rgb(99, 110, 250); fill-opacity: 1;"/><path class="point plotly-customdata" transform="translate(319.25,176.05)" d="M3,0A3,3 0 1,1 0,-3A3,3 0 0,1 3,0Z" style="opacity: 1; stroke-width: 0px; fill: rgb(99, 110, 250); fill-opacity: 1;"/></g><g class="text"/></g></g></g><g class="overplot"/><path class="xlines-above crisp" d="M0,0" style="fill: none;"/><path class="ylines-above crisp" d="M0,0" style="fill: none;"/><g class="overlines-above"/><g class="xaxislayer-above"><g class="xtick"><text text-anchor="middle" x="0" y="293" transform="translate(100.75,0)" style="font-family: 'Open Sans', verdana, arial, sans-serif; font-size: 12px; fill: rgb(42, 63, 95); fill-opacity: 1; white-space: pre;">−48</text></g><g class="xtick"><text text-anchor="middle" x="0" y="293" transform="translate(124.63,0)" style="font-family: 'Open Sans', verdana, arial, sans-serif; font-size: 12px; fill: rgb(42, 63, 95); fill-opacity: 1; white-space: pre;">0</text></g><g class="xtick"><text text-anchor="middle" x="0" y="293" transform="translate(148.51,0)" style="font-family: 'Open Sans', verdana, arial, sans-serif; font-size: 12px; fill: rgb(42, 63, 95); fill-opacity: 1; white-space: pre;">48</text></g><g class="xtick"><text text-anchor="middle" x="0" y="293" transform="translate(172.39,0)" style="font-family: 'Open Sans', verdana, arial, sans-serif; font-size: 12px; fill: rgb(42, 63, 95); fill-opacity: 1; white-space: pre;">96</text></g><g class="xtick"><text text-anchor="middle" x="0" y="293" transform="translate(196.26999999999998,0)" style="font-family: 'Open Sans', verdana, arial, sans-serif; font-size: 12px; fill: rgb(42, 63, 95); fill-opacity: 1; white-space: pre;">144</text></g><g class="xtick"><text text-anchor="middle" x="0" y="293" transform="translate(220.15,0)" style="font-family: 'Open Sans', verdana, arial, sans-serif; font-size: 12px; fill: rgb(42, 63, 95); fill-opacity: 1; white-space: pre;">192</text></g><g class="xtick"><text text-anchor="middle" x="0" y="293" transform="translate(244.03,0)" style="font-family: 'Open Sans', verdana, arial, sans-serif; font-size: 12px; fill: rgb(42, 63, 95); fill-opacity: 1; white-space: pre;">240</text></g><g class="xtick"><text text-anchor="middle" x="0" y="293" transform="translate(267.90999999999997,0)" style="font-family: 'Open Sans', verdana, arial, sans-serif; font-size: 12px; fill: rgb(42, 63, 95); fill-opacity: 1; white-space: pre;">288</text></g><g class="xtick"><text text-anchor="middle" x="0" y="293" transform="translate(291.78999999999996,0)" style="font-family: 'Open Sans', verdana, arial, sans-serif; font-size: 12px; fill: rgb(42, 63, 95); fill-opacity: 1; white-space: pre;">336</text></g><g class="xtick"><text text-anchor="middle" x="0" y="293" transform="translate(315.66999999999996,0)" style="font-family: 'Open Sans', verdana, arial, sans-serif; font-size: 12px; fill: rgb(42, 63, 95); fill-opacity: 1; white-space: pre;">384</text></g><g class="xtick"><text text-anchor="middle" x="0" y="293" transform="translate(339.55,0)" style="font-family: 'Open Sans', verdana, arial, sans-serif; font-size: 12px; fill: rgb(42, 63, 95); fill-opacity: 1; white-space: pre;">432</text></g><g class="xtick"><text text-anchor="middle" x="0" y="293" transform="translate(363.43,0)" style="font-family: 'Open Sans', verdana, arial, sans-serif; font-size: 12px; fill: rgb(42, 63, 95); fill-opacity: 1; white-space: pre;">480</text></g><g class="xtick"><text text-anchor="middle" x="0" y="293" transform="translate(387.31,0)" style="font-family: 'Open Sans', verdana, arial, sans-serif; font-size: 12px; fill: rgb(42, 63, 95); fill-opacity: 1; white-space: pre;">528</text></g><g class="xtick"><text text-anchor="middle" x="0" y="293" transform="translate(411.19,0)" style="font-family: 'Open Sans', verdana, arial, sans-serif; font-size: 12px; fill: rgb(42, 63, 95); fill-opacity: 1; white-space: pre;">576</text></g></g><g class="yaxislayer-above"><g class="ytick"><text text-anchor="end" x="79" y="4.199999999999999" transform="translate(0,270.61)" style="font-family: 'Open Sans', verdana, arial, sans-serif; font-size: 12px; fill: rgb(42, 63, 95); fill-opacity: 1; white-space: pre;">0</text></g><g class="ytick"><text text-anchor="end" x="79" y="4.199999999999999" transform="translate(0,217.03)" style="font-family: 'Open Sans', verdana, arial, sans-serif; font-size: 12px; fill: rgb(42, 63, 95); fill-opacity: 1; white-space: pre;">2</text></g><g class="ytick"><text text-anchor="end" x="79" y="4.199999999999999" transform="translate(0,163.45)" style="font-family: 'Open Sans', verdana, arial, sans-serif; font-size: 12px; fill: rgb(42, 63, 95); fill-opacity: 1; white-space: pre;">4</text></g><g class="ytick"><text text-anchor="end" x="79" y="4.199999999999999" transform="translate(0,109.88)" style="font-family: 'Open Sans', verdana, arial, sans-serif; font-size: 12px; fill: rgb(42, 63, 95); fill-opacity: 1; white-space: pre;">6</text></g></g><g class="overaxes-above"/></g></g><g class="polarlayer"/><g class="ternarylayer"/><g class="geolayer"/><g class="funnelarealayer"/><g class="pielayer"/><g class="treemaplayer"/><g class="sunburstlayer"/><g class="glimages"/><defs id="topdefs-70de50"><g class="clips"/></defs><g class="layer-above"><g class="imagelayer"/><g class="shapelayer"><path data-index="0" fill-rule="evenodd" d="M124.63,280L124.63,60" clip-path="url('#clip70de50x')" style="opacity: 1; stroke: rgb(255, 0, 0); stroke-opacity: 1; fill: rgb(0, 0, 0); fill-opacity: 0; stroke-dasharray: 9px, 9px; stroke-width: 2px;"/></g></g><g class="infolayer"><g class="g-gtitle"/><g class="g-xtitle"><text class="xtitle" x="250" y="321.8" text-anchor="middle" style="font-family: 'Open Sans', verdana, arial, sans-serif; font-size: 14px; fill: rgb(42, 63, 95); opacity: 1; font-weight: normal; white-space: pre;">Time, hours</text></g><g class="g-ytitle"><text class="ytitle" transform="rotate(-90,47.325,170)" x="47.325" y="170" text-anchor="middle" style="font-family: 'Open Sans', verdana, arial, sans-serif; font-size: 14px; fill: rgb(42, 63, 95); opacity: 1; font-weight: normal; white-space: pre;">Neutrophiles absolute, 10^3/mcL</text></g><g class="annotation" data-index="0" style="opacity: 1;"><g class="annotation-text-g" transform="rotate(0,163.63,70.5)"><g class="cursor-pointer" transform="translate(125,60)"><rect class="bg" x="0.5" y="0.5" width="77" height="20" style="stroke-width: 1px; stroke: rgb(0, 0, 0); stroke-opacity: 0; fill: rgb(0, 0, 0); fill-opacity: 0;"/><text class="annotation-text" text-anchor="middle" x="38.796875" y="15" style="font-family: 'Open Sans', verdana, arial, sans-serif; font-size: 12px; fill: rgb(255, 0, 0); fill-opacity: 1; white-space: pre;">Time of Dose</text></g></g></g><g class="annotation" data-index="1" style="opacity: 1;"><g class="annotation-text-g" transform="rotate(0,266.52,70.5)"><g class="cursor-pointer" transform="translate(251,60)"><rect class="bg" x="0.5" y="0.5" width="31" height="20" style="stroke-width: 1px; stroke: rgb(0, 0, 0); stroke-opacity: 0; fill: rgb(0, 0, 0); fill-opacity: 0;"/><text class="annotation-text" text-anchor="middle" x="15.46875" y="15" style="font-family: 'Open Sans', verdana, arial, sans-serif; font-size: 12px; fill: rgb(42, 63, 95); fill-opacity: 1; white-space: pre;">Peak</text></g></g><g class="annotation-arrow-g" style="opacity: 1;"><path d="M259.85333333333335,80.5L246.52,100.5" style="stroke-width: 1px; stroke: rgb(42, 63, 95); stroke-opacity: 1; stroke-dasharray: 0px, 0px, 23.437px, 24.037px;"/><path d="M-2.4,-3V3L0.6,0Z" transform="translate(246.8528289794922,100.00077056884766)rotate(123.68764271835023)" style="fill: rgb(42, 63, 95); stroke-width: 0;"/></g></g><g class="annotation" data-index="2" style="opacity: 1;"><g class="annotation-text-g" transform="rotate(0,150.6,202.3)"><g class="cursor-pointer" transform="translate(133,192)"><rect class="bg" x="0.5" y="0.5" width="35" height="20" style="stroke-width: 1px; stroke: rgb(0, 0, 0); stroke-opacity: 0; fill: rgb(0, 0, 0); fill-opacity: 0;"/><text class="annotation-text" text-anchor="middle" x="17.625" y="15" style="font-family: 'Open Sans', verdana, arial, sans-serif; font-size: 12px; fill: rgb(42, 63, 95); fill-opacity: 1; white-space: pre;">Delay</text></g></g><g class="annotation-arrow-g" style="opacity: 1;"><path d="M143.93333333333334,212.3L130.6,232.3" style="stroke-width: 1px; stroke: rgb(42, 63, 95); stroke-opacity: 1; stroke-dasharray: 0px, 0px, 23.437px, 24.037px;"/><path d="M-2.4,-3V3L0.6,0Z" transform="translate(130.93283081054688,231.80076599121094)rotate(123.68764271835023)" style="fill: rgb(42, 63, 95); stroke-width: 0;"/></g></g></g></svg>