<svg class="main-svg" xmlns="http://www.w3.org/2000/svg" xmlns:xlink="http://www.w3.org/1999/xlink" width="700" height="500" style="" viewBox="0 0 700 500"><rect x="0" y="0" width="700" height="500" style="fill: rgb(255, 255, 255); fill-opacity: 1;"/><defs id="defs-e226b8"><g class="clips"><clipPath id="clipe226b8xyplot" class="plotclip"><rect width="395" height="320"/></clipPath><clipPath class="axesclip" id="clipe226b8x"><rect x="80" y="0" width="395" height="500"/></clipPath><clipPath class="axesclip" id="clipe226b8y"><rect x="0" y="100" width="700" height="320"/></clipPath><clipPath class="axesclip" id="clipe226b8xy"><rect x="80" y="100" width="395" height="320"/></clipPath></g><g class="gradients"/></defs><g class="bglayer"><rect class="bg" x="80" y="100" width="395" height="320" style="fill: rgb(229, 236, 246); fill-opacity: 1; stroke-width: 0;"/></g><g class="layer-below"><g class="imagelayer"/><g class="shapelayer"/></g><g class="cartesianlayer"><g class="subplot xy"><g class="layer-subplot"><g class="shapelayer"/><g class="imagelayer"/></g><g class="gridlayer"><g class="x"><path class="xgrid crisp" transform="translate(247.34,0)" d="M0,100v320" style="stroke: rgb(255, 255, 255); stroke-opacity: 1; stroke-width: 1px;"/><path class="xgrid crisp" transform="translate(363.34,0)" d="M0,100v320" style="stroke: rgb(255, 255, 255); stroke-opacity: 1; stroke-width: 1px;"/></g><g class="y"><path class="ygrid crisp" transform="translate(0,389.09)" d="M80,0h395" style="stroke: rgb(255, 255, 255); stroke-opacity: 1; stroke-width: 1px;"/><path class="ygrid crisp" transform="translate(0,331.82)" d="M80,0h395" style="stroke: rgb(255, 255, 255); stroke-opacity: 1; stroke-width: 1px;"/><path class="ygrid crisp" transform="translate(0,274.55)" d="M80,0h395" style="stroke: rgb(255, 255, 255); stroke-opacity: 1; stroke-width: 1px;"/><path class="ygrid crisp" transform="translate(0,217.28)" d="M80,0h395" style="stroke: rgb(255, 255, 255); stroke-opacity: 1; stroke-width: 1px;"/><path class="ygrid crisp" transform="translate(0,160.02)" d="M80,0h395" style="stroke: rgb(255, 255, 255); stroke-opacity: 1; stroke-width: 1px;"/><path class="ygrid crisp" transform="translate(0,102.75)" d="M80,0h395" style="stroke: rgb(255, 255, 255); stroke-opacity: 1; stroke-width: 1px;"/></g></g><g class="zerolinelayer"><path class="xzl zl crisp" transform="translate(131.34,0)" d="M0,100v320" style="stroke: rgb(255, 255, 255); stroke-opacity: 1; stroke-width: 2px;"/></g><path class="xlines-below"/><path class="ylines-below"/><g class="overlines-below"/><g class="xaxislayer-below"/><g class="yaxislayer-below"/><g class="overaxes-below"/><g class="plot" transform="translate(80,100)" clip-path="url('#clipe226b8xyplot')"><g class="scatterlayer mlayer"><g class="trace scatter tracedf185f" style="stroke-miterlimit: 2; opacity: 1;"><g class="fills"/><g class="errorbars"/><g class="lines"><path class="js-line" d="M23.5,212.02L65.26,185.64L79.18,234.68L93.1,240.44L107.02,249.92L120.94,300.25L134.86,288.08L148.78,293.63L162.7,235.36L176.62,166.01L190.54,127.36L204.46,40.08L218.38,69.42L232.3,113.67L246.22,19.75L260.14,170.59L274.06,141.31L301.9,202.66L329.74,252.39L371.5,165.61" style="vector-effect: non-scaling-stroke; fill: none; stroke: rgb(99, 110, 250); stroke-opacity: 1; stroke-width: 2px; opacity: 1;"/></g><g class="points"><path class="point" transform="translate(23.5,212.02)" d="M3,0A3,3 0 1,1 0,-3A3,3 0 0,1 3,0Z" style="opacity: 1; stroke-width: 0px; fill: rgb(99, 110, 250); fill-opacity: 1;"/><path class="point" transform="translate(65.26,185.64)" d="M3,0A3,3 0 1,1 0,-3A3,3 0 0,1 3,0Z" style="opacity: 1; stroke-width: 0px; fill: rgb(99, 110, 250); fill-opacity: 1;"/><path class="point" transform="translate(79.18,234.68)" d="M3,0A3,3 0 1,1 0,-3A3,3 0 0,1 3,0Z" style="opacity: 1; stroke-width: 0px; fill: rgb(99, 110, 250); fill-opacity: 1;"/><path class="point" transform="translate(93.1,240.44)" d="M3,0A3,3 0 1,1 0,-3A3,3 0 0,1 3,0Z" style="opacity: 1; stroke-width: 0px; fill: rgb(99, 110, 250); fill-opacity: 1;"/><path class="point" transform="translate(107.02,249.92)" d="M3,0A3,3 0 1,1 0,-3A3,3 0 0,1 3,0Z" style="opacity: 1; stroke-width: 0px; fill: rgb(99, 110, 250); fill-opacity: 1;"/><path class="point" transform="translate(120.94,300.25)" d="M3,0A3,3 0 1,1 0,-3A3,3 0 0,1 3,0Z" style="opacity: 1; stroke-width: 0px; fill: rgb(99, 110, 250); fill-opacity: 1;"/><path class="point" transform="translate(134.86,288.08)" d="M3,0A3,3 0 1,1 0,-3A3,3 0 0,1 3,0Z" style="opacity: 1; stroke-width: 0px; fill: rgb(99, 110, 250); fill-opacity: 1;"/><path class="point" transform="translate(148.78,293.63)" d="M3,0A3,3 0 1,1 0,-3A3,3 0 0,1 3,0Z" style="opacity: 1; stroke-width: 0px; fill: rgb(99, 110, 250); fill-opacity: 1;"/><path class="point" transform="translate(162.7,235.36)" d="M3,0A3,3 0 1,1 0,-3A3,3 0 0,1 3,0Z" style="opacity: 1; stroke-width: 0px; fill: rgb(99, 110, 250); fill-opacity: 1;"/><path class="point" transform="translate(176.62,166.01)" d="M3,0A3,3 0 1,1 0,-3A3,3 0 0,1 3,0Z" style="opacity: 1; stroke-width: 0px; fill: rgb(99, 110, 250); fill-opacity: 1;"/><path class="point" transform="translate(190.54,127.36)" d="M3,0A3,3 0 1,1 0,-3A3,3 0 0,1 3,0Z" style="opacity: 1; stroke-width: 0px; fill: rgb(99, 110, 250); fill-opacity: 1;"/><path class="point" transform="translate(204.46,40.08)" d="M3,0A3,3 0 1,1 0,-3A3,3 0 0,1 3,0Z" style="opacity: 1; stroke-width: 0px; fill: rgb(99, 110, 250); fill-opacity: 1;"/><path class="point" transform="translate(218.38,69.42)" d="M3,0A3,3 0 1,1 0,-3A3,3 0 0,1 3,0Z" style="opacity: 1; stroke-width: 0px; fill: rgb(99, 110, 250); fill-opacity: 1;"/><path class="point" transform="translate(232.3,113.67)" d="M3,0A3,3 0 1,1 0,-3A3,3 0 0,1 3,0Z" style="opacity: 1; stroke-width: 0px; fill: rgb(99, 110, 250); fill-opacity: 1;"/><path class="point" transform="translate(246.22,19.75)" d="M3,0A3,3 0 1,1 0,-3A3,3 0 0,1 3,0Z" style="opacity: 1; stroke-width: 0px; fill: rgb(99, 110, 250); fill-opacity: 1;"/><path class="point" transform="translate(260.14,170.59)" d="M3,0A3,3 0 1,1 0,-3A3,3 0 0,1 3,0Z" style="opacity: 1; stroke-width: 0px; fill: rgb(99, 110, 250); fill-opacity: 1;"/><path class="point" transform="translate(274.06,141.31)" d="M3,0A3,3 0 1,1 0,-3A3,3 0 0,1 3,0Z" style="opacity: 1; stroke-width: 0px; fill: rgb(99, 110, 250); fill-opacity: 1;"/><path class="point" transform="translate(301.9,202.66)" d="M3,0A3,3 0 1,1 0,-3A3,3 0 0,1 3,0Z" style="opacity: 1; stroke-width: 0px; fill: rgb(99, 110, 250); fill-opacity: 1;"/><path class="point" transform="translate(329.74,252.39)" d="M3,0A3,3 0 1,1 0,-3A3,3 0 0,1 3,0Z" style="opacity: 1; stroke-width: 0px; fill: rgb(99, 110, 250); fill-opacity: 1;"/><path class="point" transform="translate(371.5,165.61)" d="M3,0A3,3 0 1,1 0,-3A3,3 0 0,1 3,0Z" style="opacity: 1; stroke-width: 0px; fill: rgb(99, 110, 250); fill-opacity: 1;"/></g><g class="text"/></g><g class="trace scatter trace3ab3bc" style="stroke-miterlimit: 2; opacity: 1;"><g class="fills"/><g class="errorbars"/><g class="lines"><path class="js-line" d="M23.5,181.82L59.73,182.56L60.08,182.67L64.26,185.04L64.61,185.34L68.44,189.58L68.79,190.06L73.66,198.38L74.01,199.08L79.93,212.64L80.28,213.52L103.27,271.79L103.62,272.5L110.24,284.19L110.59,284.7L116.16,291.52L116.51,291.86L121.39,295.35L121.73,295.51L125.57,296.55L125.91,296.58L129.75,296.06L130.09,295.94L134.27,293.55L134.62,293.27L139.15,288.5L139.5,288.04L144.03,280.98L144.38,280.34L149.6,269.33L149.95,268.5L156.22,251.39L156.57,250.33L163.54,226.83L163.88,225.55L173.29,188.15L173.64,186.68L195.93,95.62L196.28,94.41L203.6,72.07L203.94,71.16L209.52,58.78L209.87,58.14L214.39,51.44L214.74,51.04L218.58,47.82L218.92,47.63L222.41,46.66L222.76,46.66L226.24,47.5L226.59,47.67L230.07,50.21L230.42,50.55L234.6,55.65L234.95,56.16L240.52,65.95L240.87,66.65L247.49,81.75L247.84,82.62L260.03,116.48L260.38,117.51L284.41,186.36L284.76,187.25L295.21,211.54L295.56,212.26L303.92,227.66L304.27,228.22L311.58,238.38L311.93,238.79L318.2,244.88L318.55,245.15L323.78,248.33L324.12,248.48L329,249.84L329.35,249.89L334.58,249.63L334.92,249.55L339.8,247.73L340.15,247.54L345.37,243.92L345.72,243.62L351.99,237.11L352.34,236.68L359.31,226.93L359.66,226.39L369.76,208.43L370.11,207.75L371.5,205" style="vector-effect: non-scaling-stroke; fill: none; stroke: rgb(239, 85, 59); stroke-opacity: 1; stroke-width: 2px; opacity: 1;"/></g><g class="points"/><g class="text"/></g><g class="trace scatter tracebf6849" style="stroke-miterlimit: 2; opacity: 1;"><g class="fills"/><g class="errorbars"/><g class="lines"><path class="js-line" d="M23.5,181.63L59.73,182.37L60.08,182.49L63.91,184.6L64.26,184.88L68.09,188.99L68.44,189.45L72.97,196.95L73.31,197.63L79.24,210.94L79.58,211.8L91.78,244.44L92.12,245.37L102.23,269.86L102.58,270.59L108.5,281.7L108.85,282.26L114.07,289.5L114.42,289.9L119.3,294.29L119.64,294.52L123.82,296.37L124.17,296.45L128.35,296.46L128.7,296.38L132.53,294.72L132.88,294.5L137.06,290.82L137.41,290.44L141.94,284.24L142.29,283.67L147.51,273.64L147.86,272.87L153.78,257.86L154.13,256.86L160.75,235.81L161.1,234.6L169.81,201.3L170.15,199.88L196.63,91.59L196.98,90.41L203.94,69.69L204.29,68.81L209.87,56.88L210.21,56.28L214.74,49.99L215.09,49.63L218.92,46.79L219.27,46.63L222.76,46.02L223.1,46.05L226.24,47.04L226.59,47.23L230.42,50.32L230.77,50.69L235.3,56.72L235.64,57.28L240.87,66.96L241.22,67.69L248.18,84.13L248.53,85.04L257.94,111.3L258.29,112.33L285.46,190.16L285.81,191.04L293.82,209.63L294.17,210.37L302.18,225.64L302.53,226.22L309.84,236.92L310.19,237.35L316.46,243.91L316.81,244.21L322.73,248.1L323.08,248.27L328.65,249.86L329,249.9L334.23,249.55L334.58,249.47L339.8,247.35L340.15,247.15L345.37,243.31L345.72,243L351.64,236.66L351.99,236.23L358.96,226.31L359.31,225.76L367.32,211.63L367.67,210.96L371.5,203.41" style="vector-effect: non-scaling-stroke; fill: none; stroke: rgb(0, 204, 150); stroke-opacity: 1; stroke-width: 2px; opacity: 1;"/></g><g class="points"/><g class="text"/></g><g class="trace scatter trace183b5e" style="stroke-miterlimit: 2; opacity: 1;"><g class="fills"/><g class="errorbars"/><g class="lines"><path class="js-line" d="M23.5,133.28L84.81,134.02L85.16,134.05L98.39,135.53L98.74,135.58L118.6,139.71L118.95,139.8L142.98,147.38L143.33,147.51L167.02,156.42L167.37,156.56L209.52,171.57L209.87,171.68L233.21,177.79L233.55,177.87L255.85,181.59L256.2,181.63L274.31,182.96L274.66,182.97L292.42,182.75L292.77,182.73L310.54,180.99L310.89,180.94L329.7,177.5L330.05,177.42L351.3,171.68L351.64,171.57L371.5,164.63" style="vector-effect: non-scaling-stroke; fill: none; stroke: rgb(171, 99, 250); stroke-opacity: 1; stroke-width: 2px; opacity: 1;"/></g><g class="points"/><g class="text"/></g><g class="trace scatter tracea9fa1b" style="stroke-miterlimit: 2; opacity: 1;"><g class="fills"/><g class="errorbars"/><g class="lines"><path class="js-line" d="M23.5,179.39L59.73,180.08L60.08,180.18L64.26,182.43L64.61,182.7L68.79,187.19L69.13,187.66L73.66,195.14L74.01,195.81L80.28,209.74L80.63,210.6L93.17,243.38L93.52,244.28L103.27,267.13L103.62,267.85L110.59,280.21L110.94,280.73L116.16,287.26L116.51,287.61L121.39,291.37L121.73,291.55L125.91,292.86L126.26,292.89L130.09,292.48L130.44,292.37L134.27,290.36L134.62,290.1L138.8,286.04L139.15,285.62L144.03,278.38L144.38,277.77L149.95,266.2L150.3,265.37L156.57,248.25L156.92,247.19L164.23,222.22L164.58,220.92L173.64,184.28L173.99,182.79L194.19,96.99L194.54,95.68L202.2,69.75L202.55,68.73L208.47,53.73L208.82,52.99L213.7,44.52L214.05,44.05L217.88,40.02L218.23,39.76L221.71,38.15L222.06,38.08L225.19,38.27L225.54,38.37L229.03,40.32L229.37,40.61L233.21,44.71L233.55,45.17L238.08,52.36L238.43,53L244.35,65.6L244.7,66.43L252.36,86.7L252.71,87.7L264.56,123.75L264.91,124.84L280.93,173.73L281.28,174.73L292.42,204.02L292.77,204.84L301.48,223.42L301.83,224.08L309.49,236.76L309.84,237.25L316.11,244.87L316.46,245.22L322.03,249.8L322.38,250.02L327.61,252.39L327.96,252.48L332.48,252.99L332.83,252.98L338.06,251.78L338.41,251.63L343.28,248.8L343.63,248.53L348.51,244.06L348.86,243.69L355.13,235.65L355.48,235.14L363.14,222.17L363.49,221.51L371.5,204.92" style="vector-effect: non-scaling-stroke; fill: none; stroke: rgb(255, 161, 90); stroke-opacity: 1; stroke-width: 2px; opacity: 1;"/></g><g class="points"/><g class="text"/></g></g></g><g class="overplot"/><path class="xlines-above crisp" d="M0,0" style="fill: none;"/><path class="ylines-above crisp" d="M0,0" style="fill: none;"/><g class="overlines-above"/><g class="xaxislayer-above"><g class="xtick"><text text-anchor="middle" x="0" y="433" transform="translate(131.34,0)" style="font-family: 'Open Sans', verdana, arial, sans-serif; font-size: 12px; fill: rgb(42, 63, 95); fill-opacity: 1; white-space: pre;">0</text></g><g class="xtick"><text text-anchor="middle" x="0" y="433" transform="translate(247.34,0)" style="font-family: 'Open Sans', verdana, arial, sans-serif; font-size: 12px; fill: rgb(42, 63, 95); fill-opacity: 1; white-space: pre;">200</text></g><g class="xtick"><text text-anchor="middle" x="0" y="433" transform="translate(363.34,0)" style="font-family: 'Open Sans', verdana, arial, sans-serif; font-size: 12px; fill: rgb(42, 63, 95); fill-opacity: 1; white-space: pre;">400</text></g></g><g class="yaxislayer-above"><g class="ytick"><text text-anchor="end" x="79" y="4.199999999999999" transform="translate(0,389.09)" style="font-family: 'Open Sans', verdana, arial, sans-serif; font-size: 12px; fill: rgb(42, 63, 95); fill-opacity: 1; white-space: pre;">600</text></g><g class="ytick"><text text-anchor="end" x="79" y="4.199999999999999" transform="translate(0,331.82)" style="font-family: 'Open Sans', verdana, arial, sans-serif; font-size: 12px; fill: rgb(42, 63, 95); fill-opacity: 1; white-space: pre;">800</text></g><g class="ytick"><text text-anchor="end" x="79" y="4.199999999999999" transform="translate(0,274.55)" style="font-family: 'Open Sans', verdana, arial, sans-serif; font-size: 12px; fill: rgb(42, 63, 95); fill-opacity: 1; white-space: pre;">1000</text></g><g class="ytick"><text text-anchor="end" x="79" y="4.199999999999999" transform="translate(0,217.28)" style="font-family: 'Open Sans', verdana, arial, sans-serif; font-size: 12px; fill: rgb(42, 63, 95); fill-opacity: 1; white-space: pre;">1200</text></g><g class="ytick"><text text-anchor="end" x="79" y="4.199999999999999" transform="translate(0,160.02)" style="font-family: 'Open Sans', verdana, arial, sans-serif; font-size: 12px; fill: rgb(42, 63, 95); fill-opacity: 1; white-space: pre;">1400</text></g><g class="ytick"><text text-anchor="end" x="79" y="4.199999999999999" transform="translate(0,102.75)" style="font-family: 'Open Sans', verdana, arial, sans-serif; font-size: 12px; fill: rgb(42, 63, 95); fill-opacity: 1; white-space: pre;">1600</text></g></g><g class="overaxes-above"/></g></g><g class="polarlayer"/><g class="ternarylayer"/><g class="geolayer"/><g class="funnelarealayer"/><g class="pielayer"/><g class="treemaplayer"/><g class="sunburstlayer"/><g class="glimages"/><defs id="topdefs-e226b8"><g class="clips"/><clipPath id="legende226b8"><rect width="205" height="105" x="0" y="0"/></clipPath></defs><g class="layer-above"><g class="imagelayer"/><g class="shapelayer"/></g><g class="infolayer"><g class="legend" pointer-events="all" transform="translate(482.90000000000003,100)"><rect class="bg" shape-rendering="crispEdges" style="stroke: rgb(68, 68, 68); stroke-opacity: 1; fill: rgb(255, 255, 255); fill-opacity: 1; stroke-width: 0px;" width="205" height="105" x="0" y="0"/><g class="scrollbox" transform="" clip-path="url('#legende226b8')"><g class="groups"><g class="traces" transform="translate(0,14.5)" style="opacity: 1;"><text class="legendtext" text-anchor="start" x="40" y="4.680000000000001" style="font-family: 'Open Sans', verdana, arial, sans-serif; font-size: 12px; fill: rgb(42, 63, 95); fill-opacity: 1; white-space: pre;">Simulated Data</text><g class="layers" style="opacity: 1;"><g class="legendfill"/><g class="legendlines"><path class="js-line" d="M5,0h30" style="fill: none; stroke: rgb(99, 110, 250); stroke-opacity: 1; stroke-width: 2px;"/></g><g class="legendsymbols"><g class="legendpoints"><path class="scatterpts" transform="translate(20,0)" d="M3,0A3,3 0 1,1 0,-3A3,3 0 0,1 3,0Z" style="opacity: 1; stroke-width: 0px; fill: rgb(99, 110, 250); fill-opacity: 1;"/></g></g></g><rect class="legendtoggle" x="0" y="-9.5" width="199.9375" height="19" style="fill: rgb(0, 0, 0); fill-opacity: 0;"/></g><g class="traces" transform="translate(0,33.5)" style="opacity: 1;"><text class="legendtext" text-anchor="start" x="40" y="4.680000000000001" style="font-family: 'Open Sans', verdana, arial, sans-serif; font-size: 12px; fill: rgb(42, 63, 95); fill-opacity: 1; white-space: pre;">Prediction - Relative Noise</text><g class="layers" style="opacity: 1;"><g class="legendfill"/><g class="legendlines"><path class="js-line" d="M5,0h30" style="fill: none; stroke: rgb(239, 85, 59); stroke-opacity: 1; stroke-width: 2px;"/></g><g class="legendsymbols"><g class="legendpoints"/></g></g><rect class="legendtoggle" x="0" y="-9.5" width="199.9375" height="19" style="fill: rgb(0, 0, 0); fill-opacity: 0;"/></g><g class="traces" transform="translate(0,52.5)" style="opacity: 1;"><text class="legendtext" text-anchor="start" x="40" y="4.680000000000001" style="font-family: 'Open Sans', verdana, arial, sans-serif; font-size: 12px; fill: rgb(42, 63, 95); fill-opacity: 1; white-space: pre;">Prediction - Combined Noise</text><g class="layers" style="opacity: 1;"><g class="legendfill"/><g class="legendlines"><path class="js-line" d="M5,0h30" style="fill: none; stroke: rgb(0, 204, 150); stroke-opacity: 1; stroke-width: 2px;"/></g><g class="legendsymbols"><g class="legendpoints"/></g></g><rect class="legendtoggle" x="0" y="-9.5" width="199.9375" height="19" style="fill: rgb(0, 0, 0); fill-opacity: 0;"/></g><g class="traces" transform="translate(0,71.5)" style="opacity: 1;"><text class="legendtext" text-anchor="start" x="40" y="4.680000000000001" style="font-family: 'Open Sans', verdana, arial, sans-serif; font-size: 12px; fill: rgb(42, 63, 95); fill-opacity: 1; white-space: pre;">Prediction - Constant Noise</text><g class="layers" style="opacity: 1;"><g class="legendfill"/><g class="legendlines"><path class="js-line" d="M5,0h30" style="fill: none; stroke: rgb(171, 99, 250); stroke-opacity: 1; stroke-width: 2px;"/></g><g class="legendsymbols"><g class="legendpoints"/></g></g><rect class="legendtoggle" x="0" y="-9.5" width="199.9375" height="19" style="fill: rgb(0, 0, 0); fill-opacity: 0;"/></g><g class="traces" transform="translate(0,90.5)" style="opacity: 1;"><text class="legendtext" text-anchor="start" x="40" y="4.680000000000001" style="font-family: 'Open Sans', verdana, arial, sans-serif; font-size: 12px; fill: rgb(42, 63, 95); fill-opacity: 1; white-space: pre;">Actual Curve</text><g class="layers" style="opacity: 1;"><g class="legendfill"/><g class="legendlines"><path class="js-line" d="M5,0h30" style="fill: none; stroke: rgb(255, 161, 90); stroke-opacity: 1; stroke-width: 2px;"/></g><g class="legendsymbols"><g class="legendpoints"/></g></g><rect class="legendtoggle" x="0" y="-9.5" width="199.9375" height="19" style="fill: rgb(0, 0, 0); fill-opacity: 0;"/></g></g></g><rect class="scrollbar" rx="20" ry="3" width="0" height="0" style="fill: rgb(128, 139, 164); fill-opacity: 1;" x="0" y="0"/></g><g class="g-gtitle"><text class="gtitle" x="35" y="50" text-anchor="start" dy="0em" style="font-family: 'Open Sans', verdana, arial, sans-serif; font-size: 17px; fill: rgb(42, 63, 95); opacity: 1; font-weight: normal; white-space: pre;">B) Inference Results on Simulated Data</text></g><g class="g-xtitle"><text class="xtitle" x="277.5" y="461.8" text-anchor="middle" style="font-family: 'Open Sans', verdana, arial, sans-serif; font-size: 14px; fill: rgb(42, 63, 95); opacity: 1; font-weight: normal; white-space: pre;">Time, hours</text></g><g class="g-ytitle"><text class="ytitle" transform="rotate(-90,26.746875000000003,260)" x="26.746875000000003" y="260" text-anchor="middle" style="font-family: 'Open Sans', verdana, arial, sans-serif; font-size: 14px; fill: rgb(42, 63, 95); opacity: 1; font-weight: normal; white-space: pre;">Platelets  concentration,</text></g></g></svg>