<svg class="main-svg" xmlns="http://www.w3.org/2000/svg" xmlns:xlink="http://www.w3.org/1999/xlink" width="500" height="360" style="" viewBox="0 0 500 360"><rect x="0" y="0" width="500" height="360" style="fill: rgb(255, 255, 255); fill-opacity: 1;"/><defs id="defs-66b9f8"><g class="clips"><clipPath id="clip66b9f8xyplot" class="plotclip"><rect width="294" height="220"/></clipPath><clipPath class="axesclip" id="clip66b9f8x"><rect x="83" y="0" width="294" height="360"/></clipPath><clipPath class="axesclip" id="clip66b9f8y"><rect x="0" y="60" width="500" height="220"/></clipPath><clipPath class="axesclip" id="clip66b9f8xy"><rect x="83" y="60" width="294" height="220"/></clipPath></g><g class="gradients"/></defs><g class="bglayer"><rect class="bg" x="83" y="60" width="294" height="220" style="fill: rgb(229, 236, 246); fill-opacity: 1; stroke-width: 0;"/></g><g class="layer-below"><g class="imagelayer"/><g class="shapelayer"/></g><g class="cartesianlayer"><g class="subplot xy"><g class="layer-subplot"><g class="shapelayer"/><g class="imagelayer"/></g><g class="gridlayer"><g class="x"><path class="xgrid crisp" transform="translate(207.72,0)" d="M0,60v220" style="stroke: rgb(255, 255, 255); stroke-opacity: 1; stroke-width: 1px;"/><path class="xgrid crisp" transform="translate(293.41999999999996,0)" d="M0,60v220" style="stroke: rgb(255, 255, 255); stroke-opacity: 1; stroke-width: 1px;"/></g><g class="y"><path class="ygrid crisp" transform="translate(0,261.86)" d="M83,0h294" style="stroke: rgb(255, 255, 255); stroke-opacity: 1; stroke-width: 1px;"/><path class="ygrid crisp" transform="translate(0,193.74)" d="M83,0h294" style="stroke: rgb(255, 255, 255); stroke-opacity: 1; stroke-width: 1px;"/><path class="ygrid crisp" transform="translate(0,125.61)" d="M83,0h294" style="stroke: rgb(255, 255, 255); stroke-opacity: 1; stroke-width: 1px;"/></g></g><g class="zerolinelayer"><path class="xzl zl crisp" transform="translate(122.02000000000001,0)" d="M0,60v220" style="stroke: rgb(255, 255, 255); stroke-opacity: 1; stroke-width: 2px;"/></g><path class="xlines-below"/><path class="ylines-below"/><g class="overlines-below"/><g class="xaxislayer-below"/><g class="yaxislayer-below"/><g class="overaxes-below"/><g class="plot" transform="translate(83,60)" clip-path="url('#clip66b9f8xyplot')"><g class="scatterlayer mlayer"><g class="trace scatter traceef69bf" style="stroke-miterlimit: 2; opacity: 1;"><g class="fills"/><g class="errorbars"/><g class="lines"/><g class="points"><path class="point" transform="translate(18.45,153.45)" d="M3,0A3,3 0 1,1 0,-3A3,3 0 0,1 3,0Z" style="opacity: 1; stroke-width: 0px; fill: rgb(239, 85, 59); fill-opacity: 1;"/><path class="point" transform="translate(49.3,130.16)" d="M3,0A3,3 0 1,1 0,-3A3,3 0 0,1 3,0Z" style="opacity: 1; stroke-width: 0px; fill: rgb(239, 85, 59); fill-opacity: 1;"/><path class="point" transform="translate(59.59,151.19)" d="M3,0A3,3 0 1,1 0,-3A3,3 0 0,1 3,0Z" style="opacity: 1; stroke-width: 0px; fill: rgb(239, 85, 59); fill-opacity: 1;"/><path class="point" transform="translate(69.87,180.03)" d="M3,0A3,3 0 1,1 0,-3A3,3 0 0,1 3,0Z" style="opacity: 1; stroke-width: 0px; fill: rgb(239, 85, 59); fill-opacity: 1;"/><path class="point" transform="translate(80.15,190.76)" d="M3,0A3,3 0 1,1 0,-3A3,3 0 0,1 3,0Z" style="opacity: 1; stroke-width: 0px; fill: rgb(239, 85, 59); fill-opacity: 1;"/><path class="point" transform="translate(90.44,205.25)" d="M3,0A3,3 0 1,1 0,-3A3,3 0 0,1 3,0Z" style="opacity: 1; stroke-width: 0px; fill: rgb(239, 85, 59); fill-opacity: 1;"/><path class="point" transform="translate(100.72,161.44)" d="M3,0A3,3 0 1,1 0,-3A3,3 0 0,1 3,0Z" style="opacity: 1; stroke-width: 0px; fill: rgb(239, 85, 59); fill-opacity: 1;"/><path class="point" transform="translate(111.01,199.99)" d="M3,0A3,3 0 1,1 0,-3A3,3 0 0,1 3,0Z" style="opacity: 1; stroke-width: 0px; fill: rgb(239, 85, 59); fill-opacity: 1;"/><path class="point" transform="translate(121.29,134.05)" d="M3,0A3,3 0 1,1 0,-3A3,3 0 0,1 3,0Z" style="opacity: 1; stroke-width: 0px; fill: rgb(239, 85, 59); fill-opacity: 1;"/><path class="point" transform="translate(131.57,139.31)" d="M3,0A3,3 0 1,1 0,-3A3,3 0 0,1 3,0Z" style="opacity: 1; stroke-width: 0px; fill: rgb(239, 85, 59); fill-opacity: 1;"/><path class="point" transform="translate(141.86,78.85)" d="M3,0A3,3 0 1,1 0,-3A3,3 0 0,1 3,0Z" style="opacity: 1; stroke-width: 0px; fill: rgb(239, 85, 59); fill-opacity: 1;"/><path class="point" transform="translate(152.14,69.4)" d="M3,0A3,3 0 1,1 0,-3A3,3 0 0,1 3,0Z" style="opacity: 1; stroke-width: 0px; fill: rgb(239, 85, 59); fill-opacity: 1;"/><path class="point" transform="translate(162.43,14.75)" d="M3,0A3,3 0 1,1 0,-3A3,3 0 0,1 3,0Z" style="opacity: 1; stroke-width: 0px; fill: rgb(239, 85, 59); fill-opacity: 1;"/><path class="point" transform="translate(172.71,84.96)" d="M3,0A3,3 0 1,1 0,-3A3,3 0 0,1 3,0Z" style="opacity: 1; stroke-width: 0px; fill: rgb(239, 85, 59); fill-opacity: 1;"/><path class="point" transform="translate(182.99,62.42)" d="M3,0A3,3 0 1,1 0,-3A3,3 0 0,1 3,0Z" style="opacity: 1; stroke-width: 0px; fill: rgb(239, 85, 59); fill-opacity: 1;"/><path class="point" transform="translate(193.28,162.94)" d="M3,0A3,3 0 1,1 0,-3A3,3 0 0,1 3,0Z" style="opacity: 1; stroke-width: 0px; fill: rgb(239, 85, 59); fill-opacity: 1;"/><path class="point" transform="translate(203.56,153.49)" d="M3,0A3,3 0 1,1 0,-3A3,3 0 0,1 3,0Z" style="opacity: 1; stroke-width: 0px; fill: rgb(239, 85, 59); fill-opacity: 1;"/><path class="point" transform="translate(224.13,151.4)" d="M3,0A3,3 0 1,1 0,-3A3,3 0 0,1 3,0Z" style="opacity: 1; stroke-width: 0px; fill: rgb(239, 85, 59); fill-opacity: 1;"/><path class="point" transform="translate(244.7,175.6)" d="M3,0A3,3 0 1,1 0,-3A3,3 0 0,1 3,0Z" style="opacity: 1; stroke-width: 0px; fill: rgb(239, 85, 59); fill-opacity: 1;"/><path class="point" transform="translate(275.55,141.21)" d="M3,0A3,3 0 1,1 0,-3A3,3 0 0,1 3,0Z" style="opacity: 1; stroke-width: 0px; fill: rgb(239, 85, 59); fill-opacity: 1;"/></g><g class="text"/></g><g class="trace scatter tracea4c10d" style="stroke-miterlimit: 2; opacity: 1;"><g class="fills"/><g class="errorbars"/><g class="lines"><path class="js-line" d="M18.45,136.04L47.27,136.77L47.53,136.85L51.65,139.01L51.91,139.2L56.8,144.02L57.05,144.33L63.49,153.41L63.74,153.8L78.41,175.27L78.67,175.57L84.85,181.6L85.11,181.79L89.48,184.4L89.74,184.51L94.63,185.63L94.89,185.64L99.26,184.96L99.52,184.87L103.89,182.55L104.15,182.36L108.78,178.08L109.04,177.79L113.93,171.26L114.19,170.86L120.88,158.81L121.14,158.29L130.92,135.89L131.17,135.25L147.9,96.2L148.16,95.71L154.33,85.62L154.59,85.28L159.22,80.33L159.48,80.13L163.6,77.82L163.86,77.74L167.72,77.38L167.97,77.41L171.83,78.71L172.09,78.85L176.72,82.36L176.98,82.61L182.13,88.58L182.39,88.92L190.88,102.04L191.14,102.48L215.33,143.74L215.59,144.11L222.53,153.3L222.79,153.6L230,160.85L230.26,161.07L236.17,165.1L236.43,165.24L242.35,167.43L242.61,167.49L248.01,167.83L248.27,167.81L253.93,166.46L254.19,166.36L259.59,163.49L259.85,163.31L265.51,158.74L265.77,158.5L272.46,151.33L272.72,151.03L275.55,147.53" style="vector-effect: non-scaling-stroke; fill: none; stroke: rgb(99, 110, 250); stroke-opacity: 1; stroke-width: 2px; opacity: 1;"/></g><g class="points"/><g class="text"/></g><g class="trace scatter trace4f1ab3" style="stroke-miterlimit: 2; opacity: 1;"><g class="fills"><g><path class="js-fill" d="M18.45,112.84L47.02,113.59L47.27,113.67L51.39,115.99L51.65,116.2L56.02,120.84L56.28,121.17L61.69,129.38L61.94,129.81L79.19,158.19L79.44,158.52L85.62,164.98L85.88,165.18L90.51,167.95L90.77,168.05L94.63,168.88L94.89,168.89L99,168.22L99.26,168.12L102.86,166.18L103.12,165.99L107.5,161.9L107.75,161.6L112.39,155.21L112.64,154.79L117.79,145.31L118.05,144.78L126.03,125.91L126.28,125.24L149.44,64.57L149.7,64.05L155.62,54.02L155.88,53.67L160.51,48.82L160.77,48.62L164.63,46.74L164.89,46.68L168.49,46.7L168.75,46.76L172.35,48.39L172.61,48.56L176.72,52.19L176.98,52.47L182.39,59.61L182.64,60L189.59,71.98L189.85,72.47L204.26,101.21L204.52,101.72L216.1,122.81L216.36,123.23L224.85,135.3L225.11,135.61L231.8,142.51L232.06,142.72L237.2,146.28L237.46,146.42L243.12,148.49L243.38,148.54L248.27,148.74L248.53,148.72L254.19,147.11L254.45,146.99L260.11,143.47L260.37,143.26L266.54,137.39L266.8,137.11L274.01,128.02L274.26,127.66L275.55,125.83L275.55,169.23L266.8,177.91L266.54,178.13L260.11,182.81L259.85,182.96L253.42,185.87L253.16,185.95L246.73,186.94L246.47,186.94L240.81,186.2L240.55,186.13L234.89,183.89L234.63,183.75L228.2,179.44L227.94,179.23L221.25,172.9L220.99,172.62L213.27,163.25L213.01,162.9L204.26,150.28L204,149.88L184.45,120.75L184.19,120.43L177.24,112.97L176.98,112.75L171.83,109.36L171.58,109.24L167.2,108.16L166.95,108.15L162.83,108.84L162.57,108.93L158.2,111.55L157.94,111.76L153.31,116.61L153.05,116.94L147.64,125.01L147.39,125.45L140.69,138.17L140.44,138.7L118.3,183.41L118.05,183.82L111.36,193.07L111.1,193.37L105.44,198.66L105.18,198.84L100.03,201.55L99.77,201.64L95.14,202.38L94.89,202.38L90.51,201.66L90.25,201.58L84.85,198.87L84.59,198.7L78.93,193.89L78.67,193.63L71.21,184.82L70.95,184.48L54.99,164.41L54.74,164.18L49.85,160.82L49.59,160.7L44.7,159.4L44.44,159.37L33.38,159.23L33.12,159.23L18.45,159.23Z" style="fill: rgb(99, 110, 250); fill-opacity: 0.5; stroke-width: 0;"/></g></g><g class="errorbars"/><g class="lines"><path class="js-line" d="M18.45,112.84L47.02,113.59L47.27,113.67L51.39,115.99L51.65,116.2L56.02,120.84L56.28,121.17L61.69,129.38L61.94,129.81L79.19,158.19L79.44,158.52L85.62,164.98L85.88,165.18L90.51,167.95L90.77,168.05L94.63,168.88L94.89,168.89L99,168.22L99.26,168.12L102.86,166.18L103.12,165.99L107.5,161.9L107.75,161.6L112.39,155.21L112.64,154.79L117.79,145.31L118.05,144.78L126.03,125.91L126.28,125.24L149.44,64.57L149.7,64.05L155.62,54.02L155.88,53.67L160.51,48.82L160.77,48.62L164.63,46.74L164.89,46.68L168.49,46.7L168.75,46.76L172.35,48.39L172.61,48.56L176.72,52.19L176.98,52.47L182.39,59.61L182.64,60L189.59,71.98L189.85,72.47L204.26,101.21L204.52,101.72L216.1,122.81L216.36,123.23L224.85,135.3L225.11,135.61L231.8,142.51L232.06,142.72L237.2,146.28L237.46,146.42L243.12,148.49L243.38,148.54L248.27,148.74L248.53,148.72L254.19,147.11L254.45,146.99L260.11,143.47L260.37,143.26L266.54,137.39L266.8,137.11L274.01,128.02L274.26,127.66L275.55,125.83L275.55,169.23L266.8,177.91L266.54,178.13L260.11,182.81L259.85,182.96L253.42,185.87L253.16,185.95L246.73,186.94L246.47,186.94L240.81,186.2L240.55,186.13L234.89,183.89L234.63,183.75L228.2,179.44L227.94,179.23L221.25,172.9L220.99,172.62L213.27,163.25L213.01,162.9L204.26,150.28L204,149.88L184.45,120.75L184.19,120.43L177.24,112.97L176.98,112.75L171.83,109.36L171.58,109.24L167.2,108.16L166.95,108.15L162.83,108.84L162.57,108.93L158.2,111.55L157.94,111.76L153.31,116.61L153.05,116.94L147.64,125.01L147.39,125.45L140.69,138.17L140.44,138.7L118.3,183.41L118.05,183.82L111.36,193.07L111.1,193.37L105.44,198.66L105.18,198.84L100.03,201.55L99.77,201.64L95.14,202.38L94.89,202.38L90.51,201.66L90.25,201.58L84.85,198.87L84.59,198.7L78.93,193.89L78.67,193.63L71.21,184.82L70.95,184.48L54.99,164.41L54.74,164.18L49.85,160.82L49.59,160.7L44.7,159.4L44.44,159.37L33.38,159.23L33.12,159.23L18.45,159.23" style="vector-effect: non-scaling-stroke; fill: none; stroke: rgb(99, 110, 250); stroke-opacity: 1; stroke-width: 0px; opacity: 1;"/></g><g class="points"/><g class="text"/></g></g></g><g class="overplot"/><path class="xlines-above crisp" d="M0,0" style="fill: none;"/><path class="ylines-above crisp" d="M0,0" style="fill: none;"/><g class="overlines-above"/><g class="xaxislayer-above"><g class="xtick"><text text-anchor="middle" x="0" y="293" transform="translate(122.02000000000001,0)" style="font-family: 'Open Sans', verdana, arial, sans-serif; font-size: 12px; fill: rgb(42, 63, 95); fill-opacity: 1; white-space: pre;">0</text></g><g class="xtick"><text text-anchor="middle" x="0" y="293" transform="translate(207.72,0)" style="font-family: 'Open Sans', verdana, arial, sans-serif; font-size: 12px; fill: rgb(42, 63, 95); fill-opacity: 1; white-space: pre;">200</text></g><g class="xtick"><text text-anchor="middle" x="0" y="293" transform="translate(293.41999999999996,0)" style="font-family: 'Open Sans', verdana, arial, sans-serif; font-size: 12px; fill: rgb(42, 63, 95); fill-opacity: 1; white-space: pre;">400</text></g></g><g class="yaxislayer-above"><g class="ytick"><text text-anchor="end" x="82" y="4.199999999999999" transform="translate(0,261.86)" style="font-family: 'Open Sans', verdana, arial, sans-serif; font-size: 12px; fill: rgb(42, 63, 95); fill-opacity: 1; white-space: pre;">500</text></g><g class="ytick"><text text-anchor="end" x="82" y="4.199999999999999" transform="translate(0,193.74)" style="font-family: 'Open Sans', verdana, arial, sans-serif; font-size: 12px; fill: rgb(42, 63, 95); fill-opacity: 1; white-space: pre;">1000</text></g><g class="ytick"><text text-anchor="end" x="82" y="4.199999999999999" transform="translate(0,125.61)" style="font-family: 'Open Sans', verdana, arial, sans-serif; font-size: 12px; fill: rgb(42, 63, 95); fill-opacity: 1; white-space: pre;">1500</text></g></g><g class="overaxes-above"/></g></g><g class="polarlayer"/><g class="ternarylayer"/><g class="geolayer"/><g class="funnelarealayer"/><g class="pielayer"/><g class="treemaplayer"/><g class="sunburstlayer"/><g class="glimages"/><defs id="topdefs-66b9f8"><g class="clips"/><clipPath id="legend66b9f8"><rect width="105" height="98" x="0" y="0"/></clipPath></defs><g class="layer-above"><g class="imagelayer"/><g class="shapelayer"/></g><g class="infolayer"><g class="legend" pointer-events="all" transform="translate(382.88,60)"><rect class="bg" shape-rendering="crispEdges" style="stroke: rgb(68, 68, 68); stroke-opacity: 1; fill: rgb(255, 255, 255); fill-opacity: 1; stroke-width: 0px;" width="105" height="98" x="0" y="0"/><g class="scrollbox" transform="" clip-path="url('#legend66b9f8')"><g class="groups"><g class="traces" transform="translate(0,22.1)" style="opacity: 1;"><text class="legendtext" text-anchor="start" x="40" y="-3.1200000000000006" style="font-family: 'Open Sans', verdana, arial, sans-serif; font-size: 12px; fill: rgb(42, 63, 95); fill-opacity: 1; white-space: pre;"><tspan class="line" dy="0em" x="40" y="-3.1200000000000006">Simulated</tspan><tspan class="line" dy="1.3em" x="40" y="-3.1200000000000006">data</tspan></text><g class="layers" style="opacity: 1;"><g class="legendfill"/><g class="legendlines"/><g class="legendsymbols"><g class="legendpoints"><path class="scatterpts" transform="translate(20,0)" d="M3,0A3,3 0 1,1 0,-3A3,3 0 0,1 3,0Z" style="opacity: 1; stroke-width: 0px; fill: rgb(239, 85, 59); fill-opacity: 1;"/></g></g></g><rect class="legendtoggle" x="0" y="-17.1" width="99.75" height="34.2" style="fill: rgb(0, 0, 0); fill-opacity: 0;"/></g><g class="traces" transform="translate(0,56.300000000000004)" style="opacity: 1;"><text class="legendtext" text-anchor="start" x="40" y="-3.1200000000000006" style="font-family: 'Open Sans', verdana, arial, sans-serif; font-size: 12px; fill: rgb(42, 63, 95); fill-opacity: 1; white-space: pre;"><tspan class="line" dy="0em" x="40" y="-3.1200000000000006">Noiseless</tspan><tspan class="line" dy="1.3em" x="40" y="-3.1200000000000006">Simulation</tspan></text><g class="layers" style="opacity: 1;"><g class="legendfill"/><g class="legendlines"><path class="js-line" d="M5,0h30" style="fill: none; stroke: rgb(99, 110, 250); stroke-opacity: 1; stroke-width: 2px;"/></g><g class="legendsymbols"><g class="legendpoints"/></g></g><rect class="legendtoggle" x="0" y="-17.1" width="99.75" height="34.2" style="fill: rgb(0, 0, 0); fill-opacity: 0;"/></g><g class="traces" transform="translate(0,82.9)" style="opacity: 1;"><text class="legendtext" text-anchor="start" x="40" y="4.680000000000001" style="font-family: 'Open Sans', verdana, arial, sans-serif; font-size: 12px; fill: rgb(42, 63, 95); fill-opacity: 1; white-space: pre;">Noise</text><g class="layers" style="opacity: 1;"><g class="legendfill"><path class="js-fill" d="M5,-2h30v6h-30z" style="stroke-width: 0; fill: rgb(99, 110, 250); fill-opacity: 0.5;"/></g><g class="legendlines"><path class="js-line" d="M5,-2h30" style="fill: none; stroke: rgb(99, 110, 250); stroke-opacity: 1; stroke-width: 0px;"/></g><g class="legendsymbols"><g class="legendpoints"/></g></g><rect class="legendtoggle" x="0" y="-9.5" width="99.75" height="19" style="fill: rgb(0, 0, 0); fill-opacity: 0;"/></g></g></g><rect class="scrollbar" rx="20" ry="3" width="0" height="0" style="fill: rgb(128, 139, 164); fill-opacity: 1;" x="0" y="0"/></g><g class="g-gtitle"/><g class="g-xtitle"><text class="xtitle" x="230" y="321.8" text-anchor="middle" style="font-family: 'Open Sans', verdana, arial, sans-serif; font-size: 14px; fill: rgb(42, 63, 95); opacity: 1; font-weight: normal; white-space: pre;">Time, hours</text></g><g class="g-ytitle" transform="translate(3.453125,0)"><text class="ytitle" transform="rotate(-90,11.546875,170)" x="11.546875" y="170" text-anchor="middle" style="font-family: 'Open Sans', verdana, arial, sans-serif; font-size: 14px; fill: rgb(42, 63, 95); opacity: 1; font-weight: normal; white-space: pre;"><tspan class="line" dy="0em" x="11.546875" y="170">Blood Cell Concentration,</tspan><tspan class="line" dy="1.3em" x="11.546875" y="170">10^3/mcL</tspan></text></g></g></svg>