<svg class="main-svg" xmlns="http://www.w3.org/2000/svg" xmlns:xlink="http://www.w3.org/1999/xlink" width="500" height="1200" style="" viewBox="0 0 500 1200"><rect x="0" y="0" width="500" height="1200" style="fill: rgb(255, 255, 255); fill-opacity: 1;"/><defs id="defs-a9a129"><g class="clips"><clipPath id="clipa9a129xyplot" class="plotclip"><rect width="340" height="272.00000000000006"/></clipPath><clipPath id="clipa9a129x2y2plot" class="plotclip"><rect width="340" height="272"/></clipPath><clipPath id="clipa9a129x3y3plot" class="plotclip"><rect width="340" height="272"/></clipPath><clipPath class="axesclip" id="clipa9a129x"><rect x="80" y="0" width="340" height="1200"/></clipPath><clipPath class="axesclip" id="clipa9a129y"><rect x="0" y="100" width="500" height="272.00000000000006"/></clipPath><clipPath class="axesclip" id="clipa9a129xy"><rect x="80" y="100" width="340" height="272.00000000000006"/></clipPath><clipPath class="axesclip" id="clipa9a129y2"><rect x="0" y="474.00000000000006" width="500" height="272"/></clipPath><clipPath class="axesclip" id="clipa9a129xy2"><rect x="80" y="474.00000000000006" width="340" height="272"/></clipPath><clipPath class="axesclip" id="clipa9a129y3"><rect x="0" y="848.0000000000001" width="500" height="272"/></clipPath><clipPath class="axesclip" id="clipa9a129xy3"><rect x="80" y="848.0000000000001" width="340" height="272"/></clipPath><clipPath class="axesclip" id="clipa9a129x2"><rect x="80" y="0" width="340" height="1200"/></clipPath><clipPath class="axesclip" id="clipa9a129x2y"><rect x="80" y="100" width="340" height="272.00000000000006"/></clipPath><clipPath class="axesclip" id="clipa9a129x2y2"><rect x="80" y="474.00000000000006" width="340" height="272"/></clipPath><clipPath class="axesclip" id="clipa9a129x2y3"><rect x="80" y="848.0000000000001" width="340" height="272"/></clipPath><clipPath class="axesclip" id="clipa9a129x3"><rect x="80" y="0" width="340" height="1200"/></clipPath><clipPath class="axesclip" id="clipa9a129x3y"><rect x="80" y="100" width="340" height="272.00000000000006"/></clipPath><clipPath class="axesclip" id="clipa9a129x3y2"><rect x="80" y="474.00000000000006" width="340" height="272"/></clipPath><clipPath class="axesclip" id="clipa9a129x3y3"><rect x="80" y="848.0000000000001" width="340" height="272"/></clipPath></g><g class="gradients"/><g class="patterns"/></defs><g class="bglayer"/><g class="layer-below"><g class="imagelayer"/><g class="shapelayer"/></g><g class="cartesianlayer"><g class="subplot xy"><g class="layer-subplot"><g class="shapelayer"/><g class="imagelayer"/></g><g class="minor-gridlayer"><g class="x"/><g class="y"/></g><g class="gridlayer"><g class="x"><path class="xgrid crisp" transform="translate(132.31,0)" d="M0,100v272.00000000000006" style="stroke: rgb(235, 240, 248); stroke-opacity: 1; stroke-width: 1px;"/><path class="xgrid crisp" transform="translate(263.08000000000004,0)" d="M0,100v272.00000000000006" style="stroke: rgb(235, 240, 248); stroke-opacity: 1; stroke-width: 1px;"/><path class="xgrid crisp" transform="translate(393.85,0)" d="M0,100v272.00000000000006" style="stroke: rgb(235, 240, 248); stroke-opacity: 1; stroke-width: 1px;"/></g><g class="y"><path class="ygrid crisp" transform="translate(0,341.01)" d="M80,0h340" style="stroke: rgb(235, 240, 248); stroke-opacity: 1; stroke-width: 1px;"/><path class="ygrid crisp" transform="translate(0,303.11)" d="M80,0h340" style="stroke: rgb(235, 240, 248); stroke-opacity: 1; stroke-width: 1px;"/><path class="ygrid crisp" transform="translate(0,265.21000000000004)" d="M80,0h340" style="stroke: rgb(235, 240, 248); stroke-opacity: 1; stroke-width: 1px;"/><path class="ygrid crisp" transform="translate(0,227.31)" d="M80,0h340" style="stroke: rgb(235, 240, 248); stroke-opacity: 1; stroke-width: 1px;"/><path class="ygrid crisp" transform="translate(0,189.4)" d="M80,0h340" style="stroke: rgb(235, 240, 248); stroke-opacity: 1; stroke-width: 1px;"/><path class="ygrid crisp" transform="translate(0,151.5)" d="M80,0h340" style="stroke: rgb(235, 240, 248); stroke-opacity: 1; stroke-width: 1px;"/></g></g><g class="zerolinelayer"><path class="yzl zl crisp" transform="translate(0,113.6)" d="M80,0h340" style="stroke: rgb(235, 240, 248); stroke-opacity: 1; stroke-width: 2px;"/></g><path class="xlines-below"/><path class="ylines-below"/><g class="overlines-below"/><g class="xaxislayer-below"/><g class="yaxislayer-below"/><g class="overaxes-below"/><g class="plot" transform="translate(80,100)" clip-path="url(#clipa9a129xyplot)"><g class="scatterlayer mlayer"><g class="trace scatter trace04b966" style="stroke-miterlimit: 2; opacity: 1;"><g class="fills"/><g class="errorbars"/><g class="lines"><path class="js-line" d="M0,258.4L13.74,219.78L17.17,211.42L27.47,184.95L30.91,176.94L41.21,153.76L44.65,147.06L48.08,139.03L51.52,133.47L58.38,119.14L61.82,112.67L68.69,101.79L72.12,95.72L75.56,89.96L78.99,85.99L89.29,70.37L92.73,65.58L96.16,62.17L99.6,57.23L109.9,45.33L113.33,42.74L116.77,40.65L120.2,37.12L133.94,26.23L137.37,24.89L144.24,21.36L147.68,20.22L151.11,19.62L154.55,17.09L161.41,14.95L164.85,16.02L171.72,13.82L175.15,13.6L192.32,16.6L195.76,21.2L199.19,19.3L202.63,20.35L212.93,26.25L216.36,28.9L219.8,30.65L223.23,33.55L236.97,46.11L240.4,49.97L247.27,57.46L250.71,61.29L271.31,89.88L274.75,95.4L288.48,119.01L291.92,126.67L298.79,139.14L302.22,145.88L309.09,158.88L312.53,166.29L315.96,173.07L319.39,181.67L322.83,188.15L326.26,196.82L336.57,221.82L340,230.47" style="vector-effect: non-scaling-stroke; fill: none; stroke: rgb(169, 169, 169); stroke-opacity: 1; stroke-width: 2px; opacity: 1;"/></g><g class="points"/><g class="text"/></g></g></g><g class="overplot"/><path class="xlines-above crisp" d="M0,0" style="fill: none;"/><path class="ylines-above crisp" d="M0,0" style="fill: none;"/><g class="overlines-above"/><g class="xaxislayer-above"/><g class="yaxislayer-above"><g class="ytick"><text text-anchor="end" x="79" y="4.199999999999999" transform="translate(0,341.01)" style="font-family: 'Open Sans', verdana, arial, sans-serif; font-size: 12px; fill: rgb(42, 63, 95); fill-opacity: 1; white-space: pre; opacity: 1;">−6</text></g><g class="ytick"><text text-anchor="end" x="79" y="4.199999999999999" style="font-family: 'Open Sans', verdana, arial, sans-serif; font-size: 12px; fill: rgb(42, 63, 95); fill-opacity: 1; white-space: pre; opacity: 1;" transform="translate(0,303.11)">−5</text></g><g class="ytick"><text text-anchor="end" x="79" y="4.199999999999999" style="font-family: 'Open Sans', verdana, arial, sans-serif; font-size: 12px; fill: rgb(42, 63, 95); fill-opacity: 1; white-space: pre; opacity: 1;" transform="translate(0,265.21000000000004)">−4</text></g><g class="ytick"><text text-anchor="end" x="79" y="4.199999999999999" style="font-family: 'Open Sans', verdana, arial, sans-serif; font-size: 12px; fill: rgb(42, 63, 95); fill-opacity: 1; white-space: pre; opacity: 1;" transform="translate(0,227.31)">−3</text></g><g class="ytick"><text text-anchor="end" x="79" y="4.199999999999999" style="font-family: 'Open Sans', verdana, arial, sans-serif; font-size: 12px; fill: rgb(42, 63, 95); fill-opacity: 1; white-space: pre; opacity: 1;" transform="translate(0,189.4)">−2</text></g><g class="ytick"><text text-anchor="end" x="79" y="4.199999999999999" style="font-family: 'Open Sans', verdana, arial, sans-serif; font-size: 12px; fill: rgb(42, 63, 95); fill-opacity: 1; white-space: pre; opacity: 1;" transform="translate(0,151.5)">−1</text></g><g class="ytick"><text text-anchor="end" x="79" y="4.199999999999999" style="font-family: 'Open Sans', verdana, arial, sans-serif; font-size: 12px; fill: rgb(42, 63, 95); fill-opacity: 1; white-space: pre; opacity: 1;" transform="translate(0,113.6)">0</text></g></g><g class="overaxes-above"/></g><g class="subplot x2y2"><g class="layer-subplot"><g class="shapelayer"/><g class="imagelayer"/></g><g class="minor-gridlayer"><g class="x2"/><g class="y2"/></g><g class="gridlayer"><g class="x2"><path class="x2grid crisp" transform="translate(132.31,0)" d="M0,474.00000000000006v272" style="stroke: rgb(235, 240, 248); stroke-opacity: 1; stroke-width: 1px;"/><path class="x2grid crisp" transform="translate(263.08000000000004,0)" d="M0,474.00000000000006v272" style="stroke: rgb(235, 240, 248); stroke-opacity: 1; stroke-width: 1px;"/><path class="x2grid crisp" transform="translate(393.85,0)" d="M0,474.00000000000006v272" style="stroke: rgb(235, 240, 248); stroke-opacity: 1; stroke-width: 1px;"/></g><g class="y2"><path class="y2grid crisp" transform="translate(0,692.5200000000001)" d="M80,0h340" style="stroke: rgb(235, 240, 248); stroke-opacity: 1; stroke-width: 1px;"/><path class="y2grid crisp" transform="translate(0,579.7800000000001)" d="M80,0h340" style="stroke: rgb(235, 240, 248); stroke-opacity: 1; stroke-width: 1px;"/><path class="y2grid crisp" transform="translate(0,523.4100000000001)" d="M80,0h340" style="stroke: rgb(235, 240, 248); stroke-opacity: 1; stroke-width: 1px;"/></g></g><g class="zerolinelayer"><path class="y2zl zl crisp" transform="translate(0,636.1500000000001)" d="M80,0h340" style="stroke: rgb(235, 240, 248); stroke-opacity: 1; stroke-width: 2px;"/></g><path class="xlines-below"/><path class="ylines-below"/><g class="overlines-below"/><g class="xaxislayer-below"/><g class="yaxislayer-below"/><g class="overaxes-below"/><g class="plot" transform="translate(80,474.00000000000006)" clip-path="url(#clipa9a129x2y2plot)"><g class="scatterlayer mlayer"><g class="trace scatter traced6592a" style="stroke-miterlimit: 2; opacity: 1;"><g class="fills"/><g class="errorbars"/><g class="lines"><path class="js-line" d="M0,204.18L106.46,181.35L109.9,180.63L199.19,162.61L202.63,161.98L322.83,139.63L326.26,139.29L336.57,137.18L340,136.63" style="vector-effect: non-scaling-stroke; fill: none; stroke: rgb(68, 1, 84); stroke-opacity: 1; stroke-width: 1px; opacity: 1;"/></g><g class="points"/><g class="text"/></g><g class="trace scatter tracecb00b8" style="stroke-miterlimit: 2; opacity: 1;"><g class="fills"/><g class="errorbars"/><g class="lines"><path class="js-line" d="M0,205.07L113.33,179.73L116.77,179.04L130.51,175.88L133.94,175.1L164.85,168.44L168.28,167.6L209.49,158.42L212.93,157.7L250.71,149.54L254.14,148.88L302.22,138.53L305.66,137.93L340,130.72" style="vector-effect: non-scaling-stroke; fill: none; stroke: rgb(69, 7, 90); stroke-opacity: 1; stroke-width: 1px; opacity: 1;"/></g><g class="points"/><g class="text"/></g><g class="trace scatter trace738223" style="stroke-miterlimit: 2; opacity: 1;"><g class="fills"/><g class="errorbars"/><g class="lines"><path class="js-line" d="M0,28.5L3.43,30.87L6.87,31.8L10.3,35.49L13.74,37.74L20.61,42.59L24.04,44.68L27.47,47.97L30.91,49.71L37.78,54.52L41.21,56.66L44.65,60.37L48.08,61.23L54.95,66.09L58.38,68.75L68.69,75.79L72.12,77.89L85.86,87.67L89.29,90.06L99.6,96.84L103.03,99.56L109.9,103.71L113.33,106.33L116.77,108.97L120.2,110.21L123.64,113.66L127.07,115.63L133.94,119.79L137.37,122.5L147.68,129.98L151.11,130.37L157.98,135.65L161.41,138.02L164.85,141.03L168.28,142.89L175.15,146.45L178.59,149.31L192.32,158.23L195.76,159.38L199.19,163.17L202.63,164.77L230.1,182.21L233.54,184.75L243.84,191.05L247.27,193.31L261.01,201.89L264.44,204.28L271.31,208.31L274.75,210.38L278.18,213.18L281.62,214.39L285.05,216.98L288.48,218.6L291.92,219.1L295.35,222.87L302.22,227L305.66,229.96L309.09,232.26L312.53,233.56L319.39,239.24L322.83,240.37L326.26,238.76L329.7,245.21L333.13,246.17L336.57,249.15L340,250.62" style="vector-effect: non-scaling-stroke; fill: none; stroke: rgb(69, 14, 96); stroke-opacity: 1; stroke-width: 1px; opacity: 1;"/></g><g class="points"/><g class="text"/></g><g class="trace scatter trace002988" style="stroke-miterlimit: 2; opacity: 1;"><g class="fills"/><g class="errorbars"/><g class="lines"><path class="js-line" d="M0,151.81L103.03,155.8L106.46,156.14L171.72,159.56L175.15,159.91L192.32,160.73L195.76,161.49L199.19,160.92L202.63,161.42L250.71,164.76L254.14,164.88L302.22,168.67L305.66,168.67L322.83,170.06L326.26,171.16L329.7,170.48L333.13,171.01L340,171.5" style="vector-effect: non-scaling-stroke; fill: none; stroke: rgb(70, 20, 101); stroke-opacity: 1; stroke-width: 1px; opacity: 1;"/></g><g class="points"/><g class="text"/></g><g class="trace scatter tracedde2b7" style="stroke-miterlimit: 2; opacity: 1;"><g class="fills"/><g class="errorbars"/><g class="lines"><path class="js-line" d="M0,196.68L144.24,169.01L147.68,168.45L161.41,165.74L164.85,165.21L192.32,160.01L195.76,159.89L209.49,156.73L212.93,156.11L257.58,147.99L261.01,147.36L340,133.42" style="vector-effect: non-scaling-stroke; fill: none; stroke: rgb(71, 26, 107); stroke-opacity: 1; stroke-width: 1px; opacity: 1;"/></g><g class="points"/><g class="text"/></g><g class="trace scatter trace9fae9e" style="stroke-miterlimit: 2; opacity: 1;"><g class="fills"/><g class="errorbars"/><g class="lines"><path class="js-line" d="M0,136.36L72.12,145.43L75.56,145.92L130.51,153.6L133.94,154.12L164.85,158.64L168.28,159.26L216.36,167.19L219.8,167.65L267.88,175.9L271.31,176.47L340,188.86" style="vector-effect: non-scaling-stroke; fill: none; stroke: rgb(71, 32, 113); stroke-opacity: 1; stroke-width: 1px; opacity: 1;"/></g><g class="points"/><g class="text"/></g><g class="trace scatter trace4af78c" style="stroke-miterlimit: 2; opacity: 1;"><g class="fills"/><g class="errorbars"/><g class="lines"><path class="js-line" d="M0,200.94L72.12,186.1L75.56,185.45L147.68,171.71L151.11,171.5L171.72,167.74L175.15,167.27L199.19,162.92L202.63,162.58L288.48,149.7L291.92,149.58L302.22,147.83L305.66,147.17L322.83,144.91L326.26,145.25L329.7,143.9L333.13,143.69L340,142.75" style="vector-effect: non-scaling-stroke; fill: none; stroke: rgb(72, 39, 119); stroke-opacity: 1; stroke-width: 1px; opacity: 1;"/></g><g class="points"/><g class="text"/></g><g class="trace scatter trace7cea68" style="stroke-miterlimit: 2; opacity: 1;"><g class="fills"/><g class="errorbars"/><g class="lines"><path class="js-line" d="M0,192.13L130.51,171.5L133.94,170.99L168.28,165.71L171.72,165.26L195.76,161.77L199.19,161.02L216.36,158.91L219.8,158.32L261.01,152.58L264.44,152.07L302.22,147.09L305.66,146.44L340,141.94" style="vector-effect: non-scaling-stroke; fill: none; stroke: rgb(71, 44, 122); stroke-opacity: 1; stroke-width: 1px; opacity: 1;"/></g><g class="points"/><g class="text"/></g><g class="trace scatter trace1c4f0b" style="stroke-miterlimit: 2; opacity: 1;"><g class="fills"/><g class="errorbars"/><g class="lines"><path class="js-line" d="M0,181.59L96.16,169.42L99.6,169.01L171.72,160.71L175.15,160.37L192.32,158.47L195.76,159.42L199.19,157.86L202.63,157.38L271.31,150.32L274.75,149.99L295.35,148.04L298.79,147.76L340,143.91" style="vector-effect: non-scaling-stroke; fill: none; stroke: rgb(69, 49, 125); stroke-opacity: 1; stroke-width: 1px; opacity: 1;"/></g><g class="points"/><g class="text"/></g><g class="trace scatter tracee77f8c" style="stroke-miterlimit: 2; opacity: 1;"><g class="fills"/><g class="errorbars"/><g class="lines"><path class="js-line" d="M0,192.65L109.9,175.13L113.33,174.59L185.45,163.99L188.89,163.55L322.83,145.86L326.26,145.86L333.13,144.66L336.57,144.14L340,143.8" style="vector-effect: non-scaling-stroke; fill: none; stroke: rgb(68, 55, 128); stroke-opacity: 1; stroke-width: 1px; opacity: 1;"/></g><g class="points"/><g class="text"/></g><g class="trace scatter tracea8d70e" style="stroke-miterlimit: 2; opacity: 1;"><g class="fills"/><g class="errorbars"/><g class="lines"><path class="js-line" d="M0,179.29L96.16,170.11L99.6,169.87L127.07,167.5L130.51,167.3L192.32,162.67L195.76,162.74L202.63,161.98L206.06,161.76L322.83,154.88L326.26,155.48L329.7,154.41L333.13,154.47L340,154.09" style="vector-effect: non-scaling-stroke; fill: none; stroke: rgb(66, 60, 130); stroke-opacity: 1; stroke-width: 1px; opacity: 1;"/></g><g class="points"/><g class="text"/></g><g class="trace scatter traceb2a554" style="stroke-miterlimit: 2; opacity: 1;"><g class="fills"/><g class="errorbars"/><g class="lines"><path class="js-line" d="M0,185.39L85.86,175.07L89.29,174.67L120.2,171.53L123.64,170.9L182.02,165.42L185.45,164.98L216.36,162.55L219.8,162.12L250.71,159.67L254.14,159.28L305.66,155.6L309.09,155.31L326.26,155.09L329.7,153.9L340,153.44" style="vector-effect: non-scaling-stroke; fill: none; stroke: rgb(64, 65, 133); stroke-opacity: 1; stroke-width: 1px; opacity: 1;"/></g><g class="points"/><g class="text"/></g><g class="trace scatter traceeb70ae" style="stroke-miterlimit: 2; opacity: 1;"><g class="fills"/><g class="errorbars"/><g class="lines"><path class="js-line" d="M0,174.14L68.69,169.63L72.12,169.51L168.28,165.25L171.72,165.26L188.89,164.81L192.32,164.7L202.63,164.49L206.06,164.46L243.84,163.87L247.27,163.81L315.96,163.57L319.39,163.37L326.26,164.59L329.7,163.52L340,163.82" style="vector-effect: non-scaling-stroke; fill: none; stroke: rgb(63, 71, 136); stroke-opacity: 1; stroke-width: 1px; opacity: 1;"/></g><g class="points"/><g class="text"/></g><g class="trace scatter tracef87974" style="stroke-miterlimit: 2; opacity: 1;"><g class="fills"/><g class="errorbars"/><g class="lines"><path class="js-line" d="M0,55.66L13.74,63.05L17.17,65.19L30.91,72.53L34.34,74.62L41.21,78.11L44.65,80.7L51.52,83.52L54.95,85.65L72.12,95.11L75.56,96.94L116.77,120.04L120.2,121.34L127.07,125.53L130.51,127.21L147.68,137.12L151.11,137.95L164.85,146.29L168.28,147.93L182.02,155.11L185.45,157.28L195.76,161.72L199.19,164.69L209.49,169.69L212.93,171.62L226.67,178.88L230.1,180.84L243.84,188.24L247.27,190.12L271.31,202.81L274.75,204.59L278.18,206.79L281.62,208.06L288.48,211.66L291.92,212.53L295.35,215.28L298.79,216.87L322.83,230.05L326.26,229.68L329.7,234.02L333.13,235.16L340,238.89" style="vector-effect: non-scaling-stroke; fill: none; stroke: rgb(61, 76, 137); stroke-opacity: 1; stroke-width: 1px; opacity: 1;"/></g><g class="points"/><g class="text"/></g><g class="trace scatter tracec4e051" style="stroke-miterlimit: 2; opacity: 1;"><g class="fills"/><g class="errorbars"/><g class="lines"><path class="js-line" d="M0,195.51L99.6,176.93L103.03,176.34L137.37,170.07L140.81,169.43L291.92,142.79L295.35,142.28L340,134.91" style="vector-effect: non-scaling-stroke; fill: none; stroke: rgb(59, 81, 138); stroke-opacity: 1; stroke-width: 1px; opacity: 1;"/></g><g class="points"/><g class="text"/></g><g class="trace scatter trace3d1e8e" style="stroke-miterlimit: 2; opacity: 1;"><g class="fills"/><g class="errorbars"/><g class="lines"><path class="js-line" d="M0,207.13L92.73,185.33L96.16,184.61L137.37,175.03L140.81,174.23L240.4,151.27L243.84,150.58L340,129.34" style="vector-effect: non-scaling-stroke; fill: none; stroke: rgb(45, 114, 142); stroke-opacity: 1; stroke-width: 1px; opacity: 1;"/></g><g class="points"/><g class="text"/></g><g class="trace scatter traceb20549" style="stroke-miterlimit: 2; opacity: 1;"><g class="fills"/><g class="errorbars"/><g class="lines"><path class="js-line" d="M0,13.6L3.43,16.25L6.87,17.14L10.3,21.39L13.74,23.89L17.17,27.15L20.61,29.3L24.04,31.6L27.47,35.35L30.91,37.23L34.34,40.33L41.21,44.94L44.65,49.21L48.08,50.02L51.52,52.26L58.38,58.42L61.82,60.68L72.12,68.54L75.56,71.02L103.03,92.64L106.46,94.48L116.77,103.07L120.2,104.33L123.64,108.27L127.07,110.4L133.94,114.96L137.37,117.99L147.68,126.32L151.11,126.57L157.98,132.46L161.41,135.09L164.85,138.48L168.28,140.49L175.15,144.32L178.59,147.52L192.32,157.34L195.76,158.58L199.19,162.84L202.63,164.53L226.67,180.97L230.1,183.64L236.97,188.5L240.4,190.42L247.27,195.83L250.71,197.96L254.14,201.01L257.58,203.01L274.75,214.49L278.18,217.62L281.62,218.85L285.05,221.73L288.48,223.45L291.92,223.83L295.35,228.1L298.79,229.98L309.09,238.44L312.53,239.79L319.39,246.12L322.83,247.26L326.26,245.13L329.7,252.59L333.13,253.53L336.57,256.86L340,258.4" style="vector-effect: non-scaling-stroke; fill: none; stroke: rgb(43, 118, 142); stroke-opacity: 1; stroke-width: 1px; opacity: 1;"/></g><g class="points"/><g class="text"/></g><g class="trace scatter trace9cef55" style="stroke-miterlimit: 2; opacity: 1;"><g class="fills"/><g class="errorbars"/><g class="lines"><path class="js-line" d="M0,149L103.03,154.56L106.46,154.95L168.28,159.04L171.72,159.4L188.89,160.72L192.32,160.91L195.76,161.66L199.19,161.21L212.93,162.72L216.36,163.09L233.54,164.34L236.97,164.69L261.01,166.75L264.44,167L298.79,170.35L302.22,170.6L312.53,171.49L315.96,171.69L322.83,172.35L326.26,173.46L329.7,172.89L333.13,173.47L340,174.07" style="vector-effect: non-scaling-stroke; fill: none; stroke: rgb(41, 122, 142); stroke-opacity: 1; stroke-width: 1px; opacity: 1;"/></g><g class="points"/><g class="text"/></g><g class="trace scatter tracec92ec4" style="stroke-miterlimit: 2; opacity: 1;"><g class="fills"/><g class="errorbars"/><g class="lines"><path class="js-line" d="M0,198.31L137.37,170.75L140.81,170.06L302.22,138.67L305.66,138.13L340,131.71" style="vector-effect: non-scaling-stroke; fill: none; stroke: rgb(40, 126, 142); stroke-opacity: 1; stroke-width: 1px; opacity: 1;"/></g><g class="points"/><g class="text"/></g><g class="trace scatter trace3c6df1" style="stroke-miterlimit: 2; opacity: 1;"><g class="fills"/><g class="errorbars"/><g class="lines"><path class="js-line" d="M0,136.59L75.56,146.09L78.99,146.53L103.03,149.69L106.46,150.3L168.28,159.39L171.72,160L192.32,163.23L195.76,163.63L236.97,170.69L240.4,171.34L267.88,176.03L271.31,176.6L340,189.01" style="vector-effect: non-scaling-stroke; fill: none; stroke: rgb(38, 130, 142); stroke-opacity: 1; stroke-width: 1px; opacity: 1;"/></g><g class="points"/><g class="text"/></g><g class="trace scatter trace27b235" style="stroke-miterlimit: 2; opacity: 1;"><g class="fills"/><g class="errorbars"/><g class="lines"><path class="js-line" d="M0,199.3L68.69,185.78L72.12,185.18L171.72,167.69L175.15,167.25L199.19,163.08L202.63,162.76L288.48,150.61L291.92,150.52L302.22,148.86L305.66,148.22L322.83,146.07L326.26,146.46L329.7,145.12L333.13,144.94L340,144.06" style="vector-effect: non-scaling-stroke; fill: none; stroke: rgb(37, 135, 141); stroke-opacity: 1; stroke-width: 1px; opacity: 1;"/></g><g class="points"/><g class="text"/></g><g class="trace scatter trace9f5ca5" style="stroke-miterlimit: 2; opacity: 1;"><g class="fills"/><g class="errorbars"/><g class="lines"><path class="js-line" d="M0,187.73L116.77,171.64L120.2,171.36L133.94,169.49L137.37,168.96L236.97,156.76L240.4,156.43L264.44,153.51L267.88,153.2L319.39,147.18L322.83,146.91L326.26,147.15L329.7,146.09L340,145.12" style="vector-effect: non-scaling-stroke; fill: none; stroke: rgb(36, 140, 140); stroke-opacity: 1; stroke-width: 1px; opacity: 1;"/></g><g class="points"/><g class="text"/></g><g class="trace scatter trace1bb126" style="stroke-miterlimit: 2; opacity: 1;"><g class="fills"/><g class="errorbars"/><g class="lines"><path class="js-line" d="M0,180.03L103.03,167.82L106.46,167.48L192.32,158.43L195.76,159.44L199.19,157.86L202.63,157.41L285.05,149.66L288.48,149.41L298.79,148.56L302.22,148.24L322.83,146.43L326.26,146.61L333.13,145.61L336.57,145.22L340,145.03" style="vector-effect: non-scaling-stroke; fill: none; stroke: rgb(34, 144, 140); stroke-opacity: 1; stroke-width: 1px; opacity: 1;"/></g><g class="points"/><g class="text"/></g><g class="trace scatter trace42610f" style="stroke-miterlimit: 2; opacity: 1;"><g class="fills"/><g class="errorbars"/><g class="lines"><path class="js-line" d="M0,191.75L96.16,176.75L99.6,176.27L140.81,170.24L144.24,169.77L171.72,165.97L175.15,165.56L209.49,160.92L212.93,160.45L302.22,149.36L305.66,148.86L322.83,146.86L326.26,146.97L333.13,145.74L336.57,145.23L340,144.93" style="vector-effect: non-scaling-stroke; fill: none; stroke: rgb(33, 148, 139); stroke-opacity: 1; stroke-width: 1px; opacity: 1;"/></g><g class="points"/><g class="text"/></g><g class="trace scatter tracebeec49" style="stroke-miterlimit: 2; opacity: 1;"><g class="fills"/><g class="errorbars"/><g class="lines"><path class="js-line" d="M0,180.67L103.03,170.17L106.46,169.95L168.28,164.48L171.72,164.26L195.76,162.64L199.19,162.04L250.71,158.33L254.14,157.99L315.96,154.05L319.39,153.68L326.26,154.15L329.7,153.13L340,152.7" style="vector-effect: non-scaling-stroke; fill: none; stroke: rgb(32, 153, 138); stroke-opacity: 1; stroke-width: 1px; opacity: 1;"/></g><g class="points"/><g class="text"/></g><g class="trace scatter trace952a77" style="stroke-miterlimit: 2; opacity: 1;"><g class="fills"/><g class="errorbars"/><g class="lines"><path class="js-line" d="M0,183.21L82.42,174.17L85.86,173.84L147.68,167.91L151.11,168.08L168.28,166.34L171.72,166.16L192.32,164.53L195.76,164.09L288.48,158.27L291.92,158.48L298.79,157.78L302.22,157.52L319.39,156.22L322.83,156.26L326.26,156.97L329.7,155.77L340,155.46" style="vector-effect: non-scaling-stroke; fill: none; stroke: rgb(31, 158, 137); stroke-opacity: 1; stroke-width: 1px; opacity: 1;"/></g><g class="points"/><g class="text"/></g><g class="trace scatter tracefc9161" style="stroke-miterlimit: 2; opacity: 1;"><g class="fills"/><g class="errorbars"/><g class="lines"><path class="js-line" d="M0,174.34L68.69,169.74L72.12,169.61L171.72,165.25L175.15,165.3L195.76,164.34L199.19,164.28L216.36,164.34L219.8,164.11L240.4,163.95L243.84,163.77L288.48,163.57L291.92,164L298.79,163.67L302.22,163.6L312.53,163.54L315.96,163.4L322.83,163.44L326.26,164.39L329.7,163.34L333.13,163.64L340,163.63" style="vector-effect: non-scaling-stroke; fill: none; stroke: rgb(34, 162, 135); stroke-opacity: 1; stroke-width: 1px; opacity: 1;"/></g><g class="points"/><g class="text"/></g><g class="trace scatter trace638083" style="stroke-miterlimit: 2; opacity: 1;"><g class="fills"/><g class="errorbars"/><g class="lines"><path class="js-line" d="M0,59.89L24.04,72.31L27.47,74.54L41.21,81.41L44.65,83.84L51.52,86.63L54.95,88.65L72.12,97.72L75.56,99.49L147.68,138.09L151.11,138.97L164.85,146.94L168.28,148.54L182.02,155.48L185.45,157.55L195.76,161.89L199.19,164.69L212.93,171.43L216.36,173.05L226.67,178.46L230.1,180.34L247.27,189.31L250.71,190.97L261.01,196.33L264.44,198.21L274.75,203.32L278.18,205.42L285.05,208.69L288.48,210.18L291.92,211.1L295.35,213.69L302.22,217.13L305.66,219.32L322.83,227.98L326.26,227.78L329.7,231.81L333.13,232.96L340,236.57" style="vector-effect: non-scaling-stroke; fill: none; stroke: rgb(38, 166, 132); stroke-opacity: 1; stroke-width: 1px; opacity: 1;"/></g><g class="points"/><g class="text"/></g><g class="trace scatter tracee30551" style="stroke-miterlimit: 2; opacity: 1;"><g class="fills"/><g class="errorbars"/><g class="lines"><path class="js-line" d="M0,195.01L144.24,168.7L147.68,168.15L168.28,164.46L171.72,163.82L192.32,160.25L195.76,160.18L206.06,157.82L209.49,157.19L340,135.48" style="vector-effect: non-scaling-stroke; fill: none; stroke: rgb(41, 170, 130); stroke-opacity: 1; stroke-width: 1px; opacity: 1;"/></g><g class="points"/><g class="text"/></g><g class="trace scatter trace13713b" style="stroke-miterlimit: 2; opacity: 1;"><g class="fills"/><g class="errorbars"/><g class="lines"><path class="js-line" d="M0,194.45L116.77,175.01L120.2,174.56L144.24,170.73L147.68,170.14L161.41,168.12L164.85,167.56L288.48,149.96L291.92,149.68L309.09,147.12L312.53,146.76L340,143.18" style="vector-effect: non-scaling-stroke; fill: none; stroke: rgb(45, 174, 127); stroke-opacity: 1; stroke-width: 1px; opacity: 1;"/></g><g class="points"/><g class="text"/></g><g class="trace scatter trace102b2b" style="stroke-miterlimit: 2; opacity: 1;"><g class="fills"/><g class="errorbars"/><g class="lines"><path class="js-line" d="M0,27.31L3.43,29.7L6.87,30.68L10.3,34.37L13.74,36.64L20.61,41.53L24.04,43.64L27.47,46.93L30.91,48.7L37.78,53.55L41.21,55.71L44.65,59.42L48.08,60.33L54.95,65.23L58.38,67.91L68.69,75L72.12,77.12L85.86,86.98L89.29,89.4L99.6,96.24L103.03,98.98L109.9,103.18L113.33,105.81L116.77,108.47L120.2,109.75L123.64,113.21L127.07,115.2L133.94,119.41L137.37,122.13L147.68,129.68L151.11,130.12L157.98,135.43L161.41,137.82L164.85,140.85L168.28,142.73L175.15,146.35L178.59,149.22L192.32,158.23L195.76,159.44L199.19,163.22L202.63,164.86L230.1,182.48L233.54,185.05L243.84,191.42L247.27,193.7L261.01,202.38L264.44,204.79L271.31,208.87L274.75,210.97L278.18,213.79L281.62,215.03L285.05,217.64L288.48,219.3L291.92,219.84L295.35,223.61L302.22,227.79L305.66,230.76L309.09,233.08L312.53,234.43L319.39,240.13L322.83,241.3L326.26,239.76L329.7,246.18L333.13,247.18L336.57,250.17L340,251.68" style="vector-effect: non-scaling-stroke; fill: none; stroke: rgb(96, 200, 96); stroke-opacity: 1; stroke-width: 1px; opacity: 1;"/></g><g class="points"/><g class="text"/></g><g class="trace scatter traceadaaaa" style="stroke-miterlimit: 2; opacity: 1;"><g class="fills"/><g class="errorbars"/><g class="lines"><path class="js-line" d="M0,149.24L103.03,154.77L106.46,155.16L168.28,159.26L171.72,159.63L188.89,160.95L192.32,161.14L195.76,161.85L199.19,161.45L212.93,162.97L216.36,163.34L233.54,164.59L236.97,164.95L261.01,167.02L264.44,167.28L298.79,170.66L302.22,170.92L312.53,171.82L315.96,172.02L322.83,172.69L326.26,173.82L329.7,173.23L333.13,173.82L340,174.43" style="vector-effect: non-scaling-stroke; fill: none; stroke: rgb(105, 204, 91); stroke-opacity: 1; stroke-width: 1px; opacity: 1;"/></g><g class="points"/><g class="text"/></g><g class="trace scatter traceb8659d" style="stroke-miterlimit: 2; opacity: 1;"><g class="fills"/><g class="errorbars"/><g class="lines"><path class="js-line" d="M0,198.06L113.33,175.37L116.77,174.76L130.51,171.92L133.94,171.23L168.28,164.54L171.72,163.79L192.32,159.8L195.76,159.63L209.49,156.32L212.93,155.68L250.71,148.4L254.14,147.79L333.13,132.87L336.57,132.32L340,131.64" style="vector-effect: non-scaling-stroke; fill: none; stroke: rgb(115, 207, 85); stroke-opacity: 1; stroke-width: 1px; opacity: 1;"/></g><g class="points"/><g class="text"/></g><g class="trace scatter trace9868b5" style="stroke-miterlimit: 2; opacity: 1;"><g class="fills"/><g class="errorbars"/><g class="lines"><path class="js-line" d="M0,133.39L72.12,143.57L75.56,144.11L130.51,152.63L133.94,153.2L164.85,158.19L168.28,158.85L226.67,169.32L230.1,169.91L264.44,176.23L267.88,176.94L322.83,187.47L326.26,188.6L333.13,189.59L336.57,190.17L340,190.92" style="vector-effect: non-scaling-stroke; fill: none; stroke: rgb(126, 210, 78); stroke-opacity: 1; stroke-width: 1px; opacity: 1;"/></g><g class="points"/><g class="text"/></g><g class="trace scatter trace1fc0d1" style="stroke-miterlimit: 2; opacity: 1;"><g class="fills"/><g class="errorbars"/><g class="lines"><path class="js-line" d="M0,198.2L65.25,185.79L68.69,185.15L199.19,163.24L202.63,162.94L288.48,151.23L291.92,151.17L298.79,150.03L302.22,149.54L319.39,147.03L322.83,146.79L326.26,147.21L329.7,145.86L340,144.85" style="vector-effect: non-scaling-stroke; fill: none; stroke: rgb(138, 212, 70); stroke-opacity: 1; stroke-width: 1px; opacity: 1;"/></g><g class="points"/><g class="text"/></g><g class="trace scatter tracef9ceb7" style="stroke-miterlimit: 2; opacity: 1;"><g class="fills"/><g class="errorbars"/><g class="lines"><path class="js-line" d="M0,192.19L116.77,173.74L120.2,173.4L133.94,171.25L137.37,170.65L223.23,158.5L226.67,158.04L271.31,151.96L274.75,151.53L288.48,149.8L291.92,149.66L305.66,147.4L309.09,146.95L326.26,145.41L329.7,144.22L340,143.09" style="vector-effect: non-scaling-stroke; fill: none; stroke: rgb(149, 215, 63); stroke-opacity: 1; stroke-width: 1px; opacity: 1;"/></g><g class="points"/><g class="text"/></g><g class="trace scatter tracee69d03" style="stroke-miterlimit: 2; opacity: 1;"><g class="fills"/><g class="errorbars"/><g class="lines"><path class="js-line" d="M0,178.24L103.03,166.96L106.46,166.67L171.72,160.32L175.15,160.06L192.32,158.45L195.76,159.53L199.19,157.95L202.63,157.55L278.18,151.11L281.62,151L319.39,147.94L322.83,147.84L326.26,148.12L329.7,147.21L340,146.63" style="vector-effect: non-scaling-stroke; fill: none; stroke: rgb(161, 217, 56); stroke-opacity: 1; stroke-width: 1px; opacity: 1;"/></g><g class="points"/><g class="text"/></g><g class="trace scatter tracef4722d" style="stroke-miterlimit: 2; opacity: 1;"><g class="fills"/><g class="errorbars"/><g class="lines"><path class="js-line" d="M0,191.76L96.16,176.79L99.6,176.3L147.68,169.25L151.11,169L185.45,164.1L188.89,163.7L288.48,151.1L291.92,150.92L305.66,148.98L309.09,148.55L333.13,145.89L336.57,145.38L340,145.08" style="vector-effect: non-scaling-stroke; fill: none; stroke: rgb(172, 220, 49); stroke-opacity: 1; stroke-width: 1px; opacity: 1;"/></g><g class="points"/><g class="text"/></g><g class="trace scatter trace1dbc9c" style="stroke-miterlimit: 2; opacity: 1;"><g class="fills"/><g class="errorbars"/><g class="lines"><path class="js-line" d="M0,180.32L89.29,171.28L92.73,171.03L127.07,167.87L130.51,167.64L233.54,159.67L236.97,159.5L274.75,157.05L278.18,156.7L295.35,155.86L298.79,155.73L322.83,154.18L326.26,154.73L329.7,153.68L333.13,153.71L340,153.3" style="vector-effect: non-scaling-stroke; fill: none; stroke: rgb(184, 222, 43); stroke-opacity: 1; stroke-width: 1px; opacity: 1;"/></g><g class="points"/><g class="text"/></g><g class="trace scatter trace4ecb77" style="stroke-miterlimit: 2; opacity: 1;"><g class="fills"/><g class="errorbars"/><g class="lines"><path class="js-line" d="M0,186.49L85.86,175.69L89.29,175.27L133.94,170.35L137.37,169.89L209.49,162.95L212.93,162.61L243.84,159.84L247.27,159.53L315.96,154.13L319.39,153.7L326.26,154.22L329.7,153.04L340,152.52" style="vector-effect: non-scaling-stroke; fill: none; stroke: rgb(195, 224, 42); stroke-opacity: 1; stroke-width: 1px; opacity: 1;"/></g><g class="points"/><g class="text"/></g><g class="trace scatter trace61442f" style="stroke-miterlimit: 2; opacity: 1;"><g class="fills"/><g class="errorbars"/><g class="lines"><path class="js-line" d="M0,172.76L68.69,168.74L72.12,168.65L171.72,165.11L175.15,165.19L195.76,164.41L199.19,164.37L216.36,164.58L219.8,164.37L240.4,164.38L243.84,164.22L288.48,164.38L291.92,164.84L298.79,164.56L302.22,164.52L315.96,164.43L319.39,164.25L326.26,165.51L329.7,164.47L340,164.84" style="vector-effect: non-scaling-stroke; fill: none; stroke: rgb(207, 225, 41); stroke-opacity: 1; stroke-width: 1px; opacity: 1;"/></g><g class="points"/><g class="text"/></g><g class="trace scatter tracef1c66d" style="stroke-miterlimit: 2; opacity: 1;"><g class="fills"/><g class="errorbars"/><g class="lines"><path class="js-line" d="M0,55.4L13.74,62.81L17.17,64.97L30.91,72.32L34.34,74.42L41.21,77.91L44.65,80.53L51.52,83.33L54.95,85.47L72.12,94.94L75.56,96.78L116.77,119.93L120.2,121.22L127.07,125.43L130.51,127.11L147.68,137.05L151.11,137.86L164.85,146.23L168.28,147.86L182.02,155.04L185.45,157.22L195.76,161.65L199.19,164.64L209.49,169.63L212.93,171.56L226.67,178.83L230.1,180.79L243.84,188.19L247.27,190.07L274.75,204.55L278.18,206.76L281.62,208.02L285.05,210.1L291.92,212.47L295.35,215.24L302.22,218.78L305.66,221.09L322.83,230.01L326.26,229.6L329.7,233.99L333.13,235.11L340,238.85" style="vector-effect: non-scaling-stroke; fill: none; stroke: rgb(218, 227, 40); stroke-opacity: 1; stroke-width: 1px; opacity: 1;"/></g><g class="points"/><g class="text"/></g><g class="trace scatter trace17a177" style="stroke-miterlimit: 2; opacity: 1;"><g class="fills"/><g class="errorbars"/><g class="lines"><path class="js-line" d="M0,196.59L120.2,173.49L123.64,172.99L175.15,163.18L178.59,162.62L243.84,150.61L247.27,149.99L340,133.66" style="vector-effect: non-scaling-stroke; fill: none; stroke: rgb(230, 228, 39); stroke-opacity: 1; stroke-width: 1px; opacity: 1;"/></g><g class="points"/><g class="text"/></g><g class="trace scatter trace777f41" style="stroke-miterlimit: 2; opacity: 1;"><g class="fills"/><g class="errorbars"/><g class="lines"><path class="js-line" d="M0,194.31L96.16,178.24L99.6,177.72L147.68,170.11L151.11,169.77L188.89,164.02L192.32,163.53L212.93,160.56L216.36,160.11L254.14,154.71L257.58,154.26L340,143.5" style="vector-effect: non-scaling-stroke; fill: none; stroke: rgb(241, 230, 38); stroke-opacity: 1; stroke-width: 1px; opacity: 1;"/></g><g class="points"/><g class="text"/></g><g class="trace scatter traceadf650" style="stroke-miterlimit: 2; opacity: 1;"><g class="fills"/><g class="errorbars"/><g class="lines"><path class="js-line" d="M0,172.05L116.77,164.59L120.2,164.66L127.07,164.09L130.51,164L192.32,160.89L195.76,161.25L199.19,160.35L202.63,160.48L250.71,158.71L254.14,158.47L302.22,157.14L305.66,156.77L322.83,156.31L326.26,157.06L329.7,156.01L333.13,156.18L340,155.93" style="vector-effect: non-scaling-stroke; fill: none; stroke: rgb(253, 231, 37); stroke-opacity: 1; stroke-width: 1px; opacity: 1;"/></g><g class="points"/><g class="text"/></g></g></g><g class="overplot"/><path class="xlines-above crisp" d="M0,0" style="fill: none;"/><path class="ylines-above crisp" d="M0,0" style="fill: none;"/><g class="overlines-above"/><g class="xaxislayer-above"/><g class="yaxislayer-above"><g class="y2tick"><text text-anchor="end" x="79" y="4.199999999999999" transform="translate(0,692.5200000000001)" style="font-family: 'Open Sans', verdana, arial, sans-serif; font-size: 12px; fill: rgb(42, 63, 95); fill-opacity: 1; white-space: pre; opacity: 1;">−5</text></g><g class="y2tick"><text text-anchor="end" x="79" y="4.199999999999999" style="font-family: 'Open Sans', verdana, arial, sans-serif; font-size: 12px; fill: rgb(42, 63, 95); fill-opacity: 1; white-space: pre; opacity: 1;" transform="translate(0,636.1500000000001)">0</text></g><g class="y2tick"><text text-anchor="end" x="79" y="4.199999999999999" style="font-family: 'Open Sans', verdana, arial, sans-serif; font-size: 12px; fill: rgb(42, 63, 95); fill-opacity: 1; white-space: pre; opacity: 1;" transform="translate(0,579.7800000000001)">5</text></g><g class="y2tick"><text text-anchor="end" x="79" y="4.199999999999999" style="font-family: 'Open Sans', verdana, arial, sans-serif; font-size: 12px; fill: rgb(42, 63, 95); fill-opacity: 1; white-space: pre; opacity: 1;" transform="translate(0,523.4100000000001)">10</text></g></g><g class="overaxes-above"/></g><g class="subplot x3y3"><g class="layer-subplot"><g class="shapelayer"/><g class="imagelayer"/></g><g class="minor-gridlayer"><g class="x3"/><g class="y3"/></g><g class="gridlayer"><g class="x3"><path class="x3grid crisp" transform="translate(132.31,0)" d="M0,848.0000000000001v272" style="stroke: rgb(235, 240, 248); stroke-opacity: 1; stroke-width: 1px;"/><path class="x3grid crisp" transform="translate(263.08000000000004,0)" d="M0,848.0000000000001v272" style="stroke: rgb(235, 240, 248); stroke-opacity: 1; stroke-width: 1px;"/><path class="x3grid crisp" transform="translate(393.85,0)" d="M0,848.0000000000001v272" style="stroke: rgb(235, 240, 248); stroke-opacity: 1; stroke-width: 1px;"/></g><g class="y3"><path class="y3grid crisp" transform="translate(0,1094.7900000000002)" d="M80,0h340" style="stroke: rgb(235, 240, 248); stroke-opacity: 1; stroke-width: 1px;"/><path class="y3grid crisp" transform="translate(0,1046.89)" d="M80,0h340" style="stroke: rgb(235, 240, 248); stroke-opacity: 1; stroke-width: 1px;"/><path class="y3grid crisp" transform="translate(0,998.9800000000001)" d="M80,0h340" style="stroke: rgb(235, 240, 248); stroke-opacity: 1; stroke-width: 1px;"/><path class="y3grid crisp" transform="translate(0,903.1600000000001)" d="M80,0h340" style="stroke: rgb(235, 240, 248); stroke-opacity: 1; stroke-width: 1px;"/><path class="y3grid crisp" transform="translate(0,855.2500000000001)" d="M80,0h340" style="stroke: rgb(235, 240, 248); stroke-opacity: 1; stroke-width: 1px;"/></g></g><g class="zerolinelayer"><path class="y3zl zl crisp" transform="translate(0,951.0700000000002)" d="M80,0h340" style="stroke: rgb(235, 240, 248); stroke-opacity: 1; stroke-width: 2px;"/></g><path class="xlines-below"/><path class="ylines-below"/><g class="overlines-below"/><g class="xaxislayer-below"/><g class="yaxislayer-below"/><g class="overaxes-below"/><g class="plot" transform="translate(80,848.0000000000001)" clip-path="url(#clipa9a129x3y3plot)"><g class="scatterlayer mlayer"><g class="trace scatter traceafdb92" style="stroke-miterlimit: 2; opacity: 1;"><g class="fills"/><g class="errorbars"/><g class="lines"><path class="js-line" d="M0,201.37L13.74,196.2L17.17,193.13L20.61,193.08L24.04,191.21L30.91,188.81L34.34,188.77L37.78,183.51L41.21,182.94L44.65,181.35L48.08,181.35L51.52,176.19L54.95,176.19L58.38,173.52L61.82,172.9L65.25,170.98L68.69,168.02L75.56,167.37L78.99,162.19L82.42,161.63L85.86,158.48L92.73,157.81L96.16,152.31L99.6,152.24L103.03,149.91L109.9,149.28L113.33,147.96L116.77,142.84L120.2,142.67L123.64,139.74L127.07,139.41L133.94,137.72L137.37,133.45L140.81,133.1L144.24,129.6L147.68,126.29L151.11,125.01L154.55,125.01L157.98,122.76L161.41,122.6L164.85,116.44L175.15,115.96L178.59,112.48L182.02,112.16L185.45,108.63L188.89,108.31L192.32,105.12L195.76,103.28L199.19,103.41L206.06,102.96L209.49,101.31L212.93,100.03L216.36,99.85L219.8,93.39L223.23,93.33L226.67,92.82L230.1,90.96L236.97,86.8L240.4,86.35L243.84,82.05L247.27,81.54L250.71,78.08L254.14,78.07L267.88,71.52L271.31,68.05L278.18,67.17L281.62,63.48L285.05,61.66L288.48,61.51L291.92,61.51L295.35,59.62L298.79,58.26L302.22,55.71L305.66,47.08L309.09,47.66L312.53,47.43L315.96,44.72L319.39,44.72L322.83,39.01L333.13,38.65L336.57,37.68L340,35.34" style="vector-effect: non-scaling-stroke; fill: none; stroke: rgb(68, 1, 84); stroke-opacity: 1; stroke-width: 1px; opacity: 1;"/></g><g class="points"/><g class="text"/></g><g class="trace scatter trace2d3477" style="stroke-miterlimit: 2; opacity: 1;"><g class="fills"/><g class="errorbars"/><g class="lines"><path class="js-line" d="M0,161.95L6.87,159.87L10.3,158.9L13.74,157.75L17.17,155.81L20.61,155.68L24.04,154.73L41.21,149.46L44.65,147.57L48.08,147.57L51.52,145.59L54.95,145.59L58.38,144.59L72.12,140.2L75.56,139.39L85.86,135.51L89.29,135.24L96.16,132.55L99.6,132.47L103.03,130.52L106.46,130.45L116.77,126.46L120.2,126.14L123.64,124.6L127.07,123.99L133.94,121.86L137.37,120.7L147.68,117.89L151.11,115.63L154.55,115.63L157.98,114.1L161.41,113.73L164.85,110.86L175.15,109.93L178.59,108.15L182.02,107.46L185.45,105.95L192.32,104.45L195.76,103.14L206.06,100.76L209.49,98.78L216.36,97.97L219.8,96.25L223.23,95.88L226.67,94.27L250.71,87.03L254.14,86.93L257.58,84.9L261.01,83.9L264.44,83.47L267.88,81.69L278.18,79.67L281.62,77.59L288.48,76.43L291.92,76.42L295.35,73.55L298.79,72.48L315.96,67.41L319.39,67.41L322.83,65.24L326.26,65.2L333.13,62.84L336.57,61.32L340,60.26" style="vector-effect: non-scaling-stroke; fill: none; stroke: rgb(69, 7, 90); stroke-opacity: 1; stroke-width: 1px; opacity: 1;"/></g><g class="points"/><g class="text"/></g><g class="trace scatter trace8b0cad" style="stroke-miterlimit: 2; opacity: 1;"><g class="fills"/><g class="errorbars"/><g class="lines"><path class="js-line" d="M0,189.34L13.74,185.69L17.17,183.47L20.61,183.44L24.04,181.54L27.47,180.69L30.91,178.61L34.34,178.38L37.78,175.03L41.21,174.68L44.65,173.39L48.08,173.39L51.52,169.42L54.95,169.42L58.38,168.47L61.82,168.34L65.25,162.72L68.69,161.56L72.12,161.39L75.56,161.26L78.99,153.99L82.42,153.58L85.86,151.41L92.73,150.89L96.16,146.13L99.6,146.08L103.03,145.25L109.9,145.04L113.33,141.34L116.77,135.26L120.2,135.13L123.64,132.91L127.07,132.7L133.94,130.78L137.37,125.13L140.81,124.71L144.24,121.25L147.68,118.52L151.11,117.53L154.55,117.53L157.98,115.79L161.41,115.65L164.85,111.01L175.15,110.6L178.59,107.19L182.02,106.92L185.45,104.83L188.89,104.72L192.32,103.58L202.63,102.82L206.06,102.66L212.93,100.81L216.36,100.71L219.8,94.51L223.23,94.42L226.67,94.03L230.1,92.54L236.97,88.89L240.4,88.54L243.84,84.53L247.27,83.9L250.71,80.01L254.14,79.98L261.01,77.04L264.44,74.9L267.88,73.78L271.31,70.1L278.18,69.31L281.62,66.05L285.05,63.53L288.48,63.42L291.92,63.42L295.35,62.26L298.79,61.32L302.22,59.59L305.66,50.14L309.09,49.96L312.53,49.27L315.96,46.37L319.39,46.37L322.83,40.87L336.57,40.14L340,38.69" style="vector-effect: non-scaling-stroke; fill: none; stroke: rgb(69, 14, 96); stroke-opacity: 1; stroke-width: 1px; opacity: 1;"/></g><g class="points"/><g class="text"/></g><g class="trace scatter traceb06327" style="stroke-miterlimit: 2; opacity: 1;"><g class="fills"/><g class="errorbars"/><g class="lines"><path class="js-line" d="M0,67.38L13.74,69.16L17.17,70.15L20.61,70.17L24.04,71L34.34,72.77L37.78,74.63L48.08,75.58L51.52,77.91L54.95,77.91L58.38,78.87L61.82,79.07L65.25,83.64L72.12,84.65L75.56,84.83L78.99,88.87L82.42,89.02L89.29,89.84L92.73,90.09L96.16,91.95L99.6,91.96L109.9,92.57L113.33,96.35L116.77,98.44L120.2,98.48L127.07,99.14L130.51,99.38L133.94,99.88L137.37,101.25L144.24,101.97L147.68,102.36L188.89,103.37L192.32,103.25L206.06,103.34L209.49,103.55L216.36,103.74L219.8,105.12L233.54,105.98L236.97,106.54L240.4,106.65L243.84,107.73L247.27,107.94L250.71,109.44L257.58,109.96L261.01,110.65L267.88,111.73L271.31,113.25L278.18,113.67L281.62,114.9L285.05,115.87L288.48,115.93L298.79,116.57L302.22,117.06L305.66,119.98L309.09,120.39L312.53,120.76L315.96,123.96L319.39,123.96L322.83,127.57L336.57,127.98L340,128.54" style="vector-effect: non-scaling-stroke; fill: none; stroke: rgb(70, 20, 101); stroke-opacity: 1; stroke-width: 1px; opacity: 1;"/></g><g class="points"/><g class="text"/></g><g class="trace scatter trace2d431c" style="stroke-miterlimit: 2; opacity: 1;"><g class="fills"/><g class="errorbars"/><g class="lines"><path class="js-line" d="M0,139.36L20.61,135.05L24.04,134.88L65.25,127.04L68.69,126.61L109.9,118.91L113.33,118.28L120.2,116.9L123.64,116.1L147.68,111.96L151.11,110.99L154.55,110.99L157.98,110.05L202.63,101.69L206.06,101.1L223.23,97.63L226.67,97.27L305.66,82.6L309.09,81.84L315.96,80.62L319.39,80.62L322.83,79.51L326.26,79.36L333.13,77.54L336.57,76.7L340,76.19" style="vector-effect: non-scaling-stroke; fill: none; stroke: rgb(71, 26, 107); stroke-opacity: 1; stroke-width: 1px; opacity: 1;"/></g><g class="points"/><g class="text"/></g><g class="trace scatter trace780103" style="stroke-miterlimit: 2; opacity: 1;"><g class="fills"/><g class="errorbars"/><g class="lines"><path class="js-line" d="M0,164.86L13.74,162.69L17.17,161.52L20.61,161.5L24.04,160.6L34.34,158.68L37.78,156.68L48.08,155.7L51.52,153.23L54.95,153.23L58.38,152.43L61.82,152.26L65.25,147.78L68.69,146.78L72.12,146.6L75.56,146.43L78.99,140.97L82.42,140.75L85.86,139.56L92.73,139.17L96.16,136.62L106.46,136.03L109.9,135.79L116.77,125.58L120.2,125.49L123.64,124.08L127.07,123.9L133.94,122.07L137.37,117.82L140.81,117.55L144.24,115.18L147.68,113.59L151.11,113.04L154.55,113.04L157.98,111.87L161.41,111.76L164.85,108.98L175.15,108.72L178.59,106.51L182.02,106.35L185.45,104.97L188.89,104.84L192.32,103.75L199.19,103.3L202.63,103.42L216.36,103.36L219.8,101.86L230.1,101.06L233.54,100.46L240.4,99.26L243.84,97.01L247.27,96.62L250.71,93.84L254.14,93.82L257.58,92.89L267.88,89.64L271.31,86.87L278.18,86.14L281.62,83.9L285.05,82.15L288.48,82.05L295.35,81.29L298.79,80.71L302.22,79.67L305.66,73.7L312.53,72.47L315.96,67.43L319.39,67.43L322.83,62.75L336.57,62.14L340,61.16" style="vector-effect: non-scaling-stroke; fill: none; stroke: rgb(71, 32, 113); stroke-opacity: 1; stroke-width: 1px; opacity: 1;"/></g><g class="points"/><g class="text"/></g><g class="trace scatter trace773aee" style="stroke-miterlimit: 2; opacity: 1;"><g class="fills"/><g class="errorbars"/><g class="lines"><path class="js-line" d="M0,197.86L10.3,195.79L13.74,194.89L17.17,193.04L20.61,193L27.47,190.55L30.91,188.18L34.34,187.86L37.78,183.97L41.21,183.53L44.65,181.85L48.08,181.84L51.52,176.62L54.95,176.62L58.38,174.34L61.82,173.86L65.25,163.47L68.69,161.64L72.12,161.3L75.56,160.88L78.99,152.19L82.42,151.89L85.86,150.15L92.73,149.48L96.16,145.02L99.6,144.99L103.03,143.94L109.9,143.28L113.33,133.12L116.77,128.1L120.2,128L123.64,126.41L127.07,126.21L130.51,125.51L133.94,123.91L137.37,119.55L140.81,119.27L144.24,116.93L147.68,115.54L161.41,113.76L164.85,111.04L175.15,110.75L178.59,108.05L182.02,107.84L185.45,105.84L188.89,105.67L192.32,104.02L195.76,103.23L199.19,103.47L216.36,105.56L219.8,109.35L226.67,109.64L230.1,110.36L247.27,113.83L250.71,115.58L257.58,116.05L261.01,116.61L274.75,118.14L278.18,118.15L288.48,118.59L291.92,118.59L302.22,118.3L305.66,116.96L312.53,116.49L315.96,114.52L319.39,114.52L322.83,111.11L336.57,110.65L340,110" style="vector-effect: non-scaling-stroke; fill: none; stroke: rgb(72, 39, 119); stroke-opacity: 1; stroke-width: 1px; opacity: 1;"/></g><g class="points"/><g class="text"/></g><g class="trace scatter trace8207fe" style="stroke-miterlimit: 2; opacity: 1;"><g class="fills"/><g class="errorbars"/><g class="lines"><path class="js-line" d="M0,16.6L6.87,18.11L10.3,19.71L13.74,21L17.17,23.46L20.61,23.51L24.04,25.65L27.47,26.84L30.91,29.81L34.34,30.19L37.78,34.95L41.21,35.45L44.65,37.55L48.08,37.55L51.52,43.87L54.95,43.87L58.38,46.42L61.82,46.99L65.25,59.26L68.69,61.48L72.12,61.85L75.56,62.31L78.99,71.89L82.42,72.26L85.86,74.19L92.73,74.9L96.16,79.35L99.6,79.38L103.03,80.33L109.9,80.88L113.33,89.75L116.77,94.31L120.2,94.4L123.64,95.69L127.07,95.84L133.94,97.48L137.37,100.28L140.81,100.46L144.24,101.79L151.11,102.79L154.55,102.79L168.28,104.07L171.72,104.09L188.89,103.89L192.32,103.43L199.19,103.29L202.63,103.53L209.49,104.21L212.93,104.65L216.36,104.71L219.8,108.27L226.67,108.65L230.1,109.6L240.4,112.24L243.84,115.16L247.27,115.74L250.71,119.9L254.14,119.93L257.58,121.39L267.88,126.38L271.31,130.78L274.75,131.94L278.18,132.03L285.05,138.59L288.48,138.76L291.92,138.77L295.35,139.9L302.22,142.21L305.66,150.85L312.53,153.44L315.96,164.5L319.39,164.5L322.83,177.78L333.13,178.47L336.57,179.39L340,181.46" style="vector-effect: non-scaling-stroke; fill: none; stroke: rgb(71, 44, 122); stroke-opacity: 1; stroke-width: 1px; opacity: 1;"/></g><g class="points"/><g class="text"/></g><g class="trace scatter trace3fb08b" style="stroke-miterlimit: 2; opacity: 1;"><g class="fills"/><g class="errorbars"/><g class="lines"><path class="js-line" d="M0,130.83L41.21,124.91L44.65,123.95L48.08,123.89L51.52,122.96L58.38,122.51L61.82,121.88L144.24,110.25L147.68,109.7L151.11,108.83L154.55,108.83L288.48,89.77L291.92,89.72L298.79,88.13L302.22,87.77L340,82.3" style="vector-effect: non-scaling-stroke; fill: none; stroke: rgb(69, 49, 125); stroke-opacity: 1; stroke-width: 1px; opacity: 1;"/></g><g class="points"/><g class="text"/></g><g class="trace scatter trace8e6e28" style="stroke-miterlimit: 2; opacity: 1;"><g class="fills"/><g class="errorbars"/><g class="lines"><path class="js-line" d="M0,162.53L10.3,159.4L13.74,158.34L17.17,156.42L20.61,156.29L30.91,153L34.34,151.44L41.21,150.15L44.65,148.04L48.08,148.03L51.52,145.9L54.95,145.9L58.38,144.94L68.69,141.72L72.12,140.66L82.42,137.65L85.86,135.82L89.29,135.55L92.73,134.51L96.16,133L99.6,132.93L103.03,130.74L106.46,130.65L113.33,128.21L116.77,126.5L120.2,126.1L123.64,124.81L130.51,123.59L133.94,122.1L144.24,118.98L147.68,118.08L151.11,115.72L154.55,115.72L157.98,114.22L161.41,113.85L164.85,110.86L168.28,110.68L175.15,109.63L178.59,108.2L188.89,105.47L192.32,104.52L195.76,103.13L199.19,102.56L206.06,100.81L209.49,98.74L216.36,97.99L219.8,96.22L223.23,95.87L226.67,94.25L236.97,91.03L240.4,90.25L247.27,87.9L250.71,86.86L254.14,86.76L257.58,84.74L278.18,79.28L281.62,77.5L288.48,76.08L291.92,76.07L295.35,73.38L298.79,72.14L302.22,70.93L305.66,70.68L309.09,68.73L312.53,68.06L315.96,67.08L319.39,67.08L322.83,64.89L326.26,64.86L333.13,62.45L336.57,60.92L340,59.83" style="vector-effect: non-scaling-stroke; fill: none; stroke: rgb(68, 55, 128); stroke-opacity: 1; stroke-width: 1px; opacity: 1;"/></g><g class="points"/><g class="text"/></g><g class="trace scatter traced808ed" style="stroke-miterlimit: 2; opacity: 1;"><g class="fills"/><g class="errorbars"/><g class="lines"><path class="js-line" d="M0,152.75L3.43,152.31L6.87,150.99L20.61,147.46L24.04,146.62L27.47,146.27L30.91,145.13L41.21,142.65L44.65,140.58L48.08,140.57L51.52,138.9L58.38,138.15L61.82,136.89L65.25,135.73L68.69,135.65L78.99,132.76L82.42,131.82L85.86,130.5L89.29,130.09L103.03,126.12L106.46,126L113.33,123.96L116.77,122.47L120.2,121.42L123.64,121.33L147.68,115.82L151.11,112.86L157.98,112.41L161.41,111.88L164.85,109.86L168.28,109.64L182.02,106.99L185.45,105.62L216.36,98.42L219.8,97.11L223.23,96.57L226.67,95.13L240.4,91.87L243.84,90.91L254.14,89.11L257.58,87.54L274.75,83.47L278.18,82.96L285.05,80.55L288.48,80L291.92,79.99L295.35,78.41L298.79,76.61L302.22,76.13L305.66,75.82L309.09,74.26L319.39,72.73L322.83,71.27L326.26,71.19L329.7,69.78L336.57,67.59L340,66.7" style="vector-effect: non-scaling-stroke; fill: none; stroke: rgb(66, 60, 130); stroke-opacity: 1; stroke-width: 1px; opacity: 1;"/></g><g class="points"/><g class="text"/></g><g class="trace scatter trace9561c2" style="stroke-miterlimit: 2; opacity: 1;"><g class="fills"/><g class="errorbars"/><g class="lines"><path class="js-line" d="M0,193.03L13.74,188.15L17.17,185.28L20.61,185.21L24.04,183.46L30.91,181.26L34.34,181.33L37.78,176.39L41.21,175.79L44.65,174.15L48.08,174.14L51.52,169.63L54.95,169.63L58.38,166.92L61.82,166.15L65.25,164.96L68.69,161.65L75.56,160.77L78.99,157.17L82.42,156.62L85.86,153.39L92.73,152.71L96.16,147.8L99.6,147.71L103.03,145.45L109.9,144.77L113.33,143.6L116.77,139.43L120.2,139.27L123.64,136.35L127.07,136.01L133.94,133.78L137.37,130.94L140.81,130.62L144.24,127.83L147.68,124.57L151.11,123.28L154.55,123.28L157.98,120.92L161.41,120.77L164.85,115.05L175.15,114.56L178.59,111.85L182.02,111.63L185.45,108.27L188.89,108.01L192.32,105.1L195.76,103.26L199.19,103.38L206.06,102.67L209.49,100.56L212.93,99.2L216.36,99.03L219.8,93.6L223.23,93.55L226.67,92.97L230.1,91.06L236.97,87.24L240.4,86.78L243.84,82.93L247.27,82.56L250.71,79.47L254.14,79.43L267.88,73.33L271.31,70.27L278.18,69.53L281.62,66.09L285.05,64.65L288.48,64.47L291.92,64.47L295.35,62.36L298.79,60.97L302.22,58.59L305.66,51.61L309.09,52.69L312.53,52.27L315.96,49.63L319.39,49.63L322.83,44.77L333.13,44.24L336.57,43.14L340,40.68" style="vector-effect: non-scaling-stroke; fill: none; stroke: rgb(64, 65, 133); stroke-opacity: 1; stroke-width: 1px; opacity: 1;"/></g><g class="points"/><g class="text"/></g><g class="trace scatter trace3d260f" style="stroke-miterlimit: 2; opacity: 1;"><g class="fills"/><g class="errorbars"/><g class="lines"><path class="js-line" d="M0,212.06L10.3,208.38L13.74,207.07L17.17,204.37L20.61,204.32L24.04,202.38L27.47,201.41L30.91,198.94L34.34,198.65L37.78,194L41.21,193.53L44.65,191.95L48.08,191.94L51.52,186.96L54.95,186.96L58.38,185.55L61.82,185.35L65.25,179.52L68.69,177.59L75.56,177.16L78.99,168.05L82.42,167.61L85.86,165.03L92.73,164.35L96.16,159.13L99.6,159.09L103.03,158.08L109.9,157.82L113.33,152.57L116.77,145.51L120.2,145.34L123.64,142.91L127.07,142.64L130.51,141.83L133.94,140.08L137.37,133.48L140.81,132.97L144.24,128.53L147.68,125.32L151.11,124.18L154.55,124.18L157.98,121.83L161.41,121.63L164.85,115.93L168.28,115.88L175.15,115.45L178.59,111.19L182.02,110.84L185.45,107.41L188.89,107.15L192.32,104.52L195.76,103.24L199.19,103.44L206.06,103.6L209.49,103.14L216.36,102.54L219.8,97.56L226.67,97.04L230.1,95.55L236.97,91.72L240.4,91.28L243.84,86.82L247.27,86.13L250.71,81.36L254.14,81.33L261.01,77.65L264.44,75.63L267.88,74.4L271.31,70.2L278.18,69.25L281.62,65.71L285.05,63.35L288.48,63.21L291.92,63.21L295.35,61.82L298.79,60.77L302.22,58.75L305.66,48.19L309.09,47.85L312.53,47.33L315.96,43.04L319.39,43.04L322.83,37.8L333.13,37.44L336.57,36.77L340,35" style="vector-effect: non-scaling-stroke; fill: none; stroke: rgb(63, 71, 136); stroke-opacity: 1; stroke-width: 1px; opacity: 1;"/></g><g class="points"/><g class="text"/></g><g class="trace scatter trace32bdd7" style="stroke-miterlimit: 2; opacity: 1;"><g class="fills"/><g class="errorbars"/><g class="lines"><path class="js-line" d="M0,190.06L13.74,185.89L17.17,183.68L20.61,183.63L24.04,181.82L27.47,181.02L30.91,179.21L34.34,178.98L37.78,175.22L41.21,174.83L44.65,173.57L48.08,173.57L51.52,168.98L54.95,168.98L58.38,167.14L61.82,167.03L65.25,163.08L68.69,161.13L72.12,160.87L75.56,160.68L78.99,154.56L82.42,154.09L85.86,151.63L92.73,151.07L96.16,146.34L99.6,146.3L103.03,145.11L109.9,144.87L113.33,142.22L116.77,136.41L120.2,136.23L123.64,134.01L127.07,133.77L133.94,132.02L137.37,127.36L140.81,126.91L144.24,123.56L147.68,120.77L151.11,119.8L154.55,119.8L157.98,117.71L161.41,117.56L164.85,112.56L175.15,112.16L178.59,108.62L182.02,108.27L185.45,105.82L188.89,105.56L192.32,103.9L199.19,103.17L202.63,102.81L206.06,102.56L209.49,101.26L212.93,100.13L216.36,99.98L219.8,93.35L223.23,93.31L226.67,92.96L230.1,91.51L233.54,90.05L236.97,87.72L240.4,87.36L243.84,83.33L247.27,82.78L250.71,79.11L254.14,79.1L257.58,77.8L264.44,74.35L267.88,73.46L271.31,69.81L274.75,69.25L278.18,69.17L281.62,65.96L285.05,64.07L288.48,63.92L291.92,63.91L295.35,62.42L298.79,61.37L302.22,58.99L305.66,50.04L309.09,50.44L312.53,50.19L315.96,47.39L319.39,47.39L322.83,43.89L333.13,43.38L336.57,42.57L340,40.43" style="vector-effect: non-scaling-stroke; fill: none; stroke: rgb(61, 76, 137); stroke-opacity: 1; stroke-width: 1px; opacity: 1;"/></g><g class="points"/><g class="text"/></g><g class="trace scatter trace34bc45" style="stroke-miterlimit: 2; opacity: 1;"><g class="fills"/><g class="errorbars"/><g class="lines"><path class="js-line" d="M0,139.89L44.65,130.88L48.08,130.86L51.52,129.54L54.95,129.54L147.68,112.05L151.11,110.56L157.98,110.13L161.41,109.47L171.72,107.34L175.15,106.84L195.76,102.71L199.19,101.6L206.06,101.05L209.49,100.28L288.48,85.48L291.92,85.46L298.79,83.53L302.22,83.07L312.53,80.73L315.96,80.25L319.39,80.25L322.83,79.16L326.26,79L329.7,77.68L340,75.67" style="vector-effect: non-scaling-stroke; fill: none; stroke: rgb(59, 81, 138); stroke-opacity: 1; stroke-width: 1px; opacity: 1;"/></g><g class="points"/><g class="text"/></g><g class="trace scatter tracea7329b" style="stroke-miterlimit: 2; opacity: 1;"><g class="fills"/><g class="errorbars"/><g class="lines"><path class="js-line" d="M0,162.16L13.74,157.89L17.17,156.08L20.61,155.98L24.04,154.84L27.47,153.21L30.91,152.56L34.34,151.29L37.78,150.82L41.21,150.04L44.65,147.7L48.08,147.69L51.52,145.85L54.95,145.85L58.38,144.7L61.82,143.74L65.25,143.89L68.69,141.32L72.12,140.35L82.42,137.5L85.86,135.65L89.29,135.35L92.73,134.18L96.16,132.73L99.6,132.67L103.03,130.53L106.46,130.45L109.9,130.21L113.33,128.1L116.77,126.54L120.2,126.25L123.64,124.63L127.07,124.2L130.51,123.51L133.94,122.04L151.11,116.04L154.55,116.04L157.98,114.15L161.41,113.77L164.85,110.72L168.28,110.53L175.15,109.49L178.59,108.23L188.89,105.4L192.32,104.4L199.19,102.52L202.63,101.53L206.06,100.82L209.49,98.84L216.36,98.07L219.8,96.2L223.23,95.89L226.67,94.42L236.97,91.27L240.4,90.39L243.84,90.27L247.27,87.97L250.71,86.9L254.14,86.82L257.58,84.87L261.01,83.84L271.31,80.84L274.75,79.31L278.18,79.16L281.62,77.66L285.05,76.48L288.48,76.11L291.92,76.1L295.35,73.53L315.96,67.5L319.39,67.5L322.83,64.76L326.26,64.74L333.13,62.72L336.57,61.26L340,60.13" style="vector-effect: non-scaling-stroke; fill: none; stroke: rgb(45, 114, 142); stroke-opacity: 1; stroke-width: 1px; opacity: 1;"/></g><g class="points"/><g class="text"/></g><g class="trace scatter trace1ef0be" style="stroke-miterlimit: 2; opacity: 1;"><g class="fills"/><g class="errorbars"/><g class="lines"><path class="js-line" d="M0,191.39L13.74,187.43L17.17,185.22L20.61,185.19L24.04,183.36L27.47,182.52L30.91,180.5L34.34,180.28L37.78,176.72L41.21,176.36L44.65,175.14L48.08,175.13L51.52,171L54.95,171L58.38,169.46L61.82,169.28L65.25,164.37L68.69,162.15L72.12,161.93L75.56,161.7L78.99,154.92L82.42,154.44L85.86,152.46L92.73,151.76L96.16,147.42L99.6,147.39L103.03,146.29L109.9,146.22L113.33,141.95L116.77,135.95L120.2,135.79L123.64,133.77L127.07,133.55L130.51,132.94L133.94,131.33L137.37,125.6L140.81,125.16L147.68,118.57L151.11,117.56L154.55,117.56L157.98,115.83L161.41,115.7L164.85,110.88L175.15,110.47L178.59,107.51L182.02,107.27L185.45,105.11L188.89,104.94L192.32,103.58L202.63,102.93L206.06,102.71L212.93,100.47L216.36,100.38L219.8,93.34L223.23,93.24L226.67,92.81L230.1,91.42L233.54,90.21L236.97,87.82L240.4,87.37L243.84,83.36L247.27,82.79L250.71,79.06L254.14,79.03L257.58,77.56L264.44,73.4L267.88,72.55L271.31,68.81L274.75,68.02L278.18,67.94L281.62,64.68L285.05,62.53L288.48,62.44L291.92,62.44L295.35,60.99L298.79,60.11L302.22,57.83L305.66,48.15L309.09,48.04L312.53,47.7L315.96,44.24L319.39,44.24L322.83,38.42L333.13,38.23L336.57,37.58L340,36.12" style="vector-effect: non-scaling-stroke; fill: none; stroke: rgb(43, 118, 142); stroke-opacity: 1; stroke-width: 1px; opacity: 1;"/></g><g class="points"/><g class="text"/></g><g class="trace scatter trace1e3035" style="stroke-miterlimit: 2; opacity: 1;"><g class="fills"/><g class="errorbars"/><g class="lines"><path class="js-line" d="M0,76.16L13.74,77.59L17.17,78.38L24.04,79.07L27.47,79.43L30.91,80.36L34.34,80.47L37.78,81.94L41.21,82.09L48.08,82.68L51.52,84.49L58.38,85.23L61.82,85.38L65.25,88.9L68.69,89.57L75.56,89.82L78.99,92.94L92.73,93.87L96.16,95.28L109.9,95.75L113.33,98.57L116.77,100.14L120.2,100.17L147.68,102.97L151.11,103.05L216.36,103.73L219.8,104.98L233.54,105.71L236.97,106.19L240.4,106.28L243.84,107.17L247.27,107.35L250.71,108.58L257.58,108.99L261.01,109.53L288.48,113.57L291.92,113.57L302.22,114.41L305.66,116.47L312.53,117.04L315.96,119.31L319.39,119.31L322.83,121.86L340,122.51" style="vector-effect: non-scaling-stroke; fill: none; stroke: rgb(41, 122, 142); stroke-opacity: 1; stroke-width: 1px; opacity: 1;"/></g><g class="points"/><g class="text"/></g><g class="trace scatter trace83b6e8" style="stroke-miterlimit: 2; opacity: 1;"><g class="fills"/><g class="errorbars"/><g class="lines"><path class="js-line" d="M0,139.25L6.87,137.75L10.3,137.64L17.17,135.77L20.61,135.29L41.21,131.51L44.65,130.23L48.08,130.2L51.52,128.89L58.38,128.35L61.82,127.61L82.42,123.97L85.86,123.4L103.03,119.88L106.46,119.5L140.81,113.01L144.24,112.51L154.55,110.48L157.98,109.93L195.76,102.85L199.19,101.66L206.06,101.08L209.49,100.28L216.36,99.15L219.8,98.47L226.67,97.34L230.1,96.68L243.84,93.97L247.27,93.39L267.88,89.64L271.31,88.99L291.92,85.85L295.35,84.47L326.26,79.43L329.7,78.19L340,76.28" style="vector-effect: non-scaling-stroke; fill: none; stroke: rgb(40, 126, 142); stroke-opacity: 1; stroke-width: 1px; opacity: 1;"/></g><g class="points"/><g class="text"/></g><g class="trace scatter traceef85b6" style="stroke-miterlimit: 2; opacity: 1;"><g class="fills"/><g class="errorbars"/><g class="lines"><path class="js-line" d="M0,169.91L13.74,167.47L17.17,166.19L20.61,166.16L24.04,165.16L27.47,164.62L30.91,163.26L34.34,163.1L37.78,160.73L48.08,159.62L51.52,157.04L54.95,157.04L58.38,156.12L61.82,155.95L65.25,151.21L68.69,150.14L72.12,149.98L75.56,149.8L78.99,143.8L82.42,143.56L85.86,142.26L92.73,141.87L96.16,139.1L109.9,138.31L113.33,132.29L116.77,127.46L120.2,127.35L123.64,125.8L127.07,125.6L130.51,125.01L133.94,123.62L137.37,119.18L140.81,118.87L147.68,114.63L151.11,114.03L154.55,114.03L157.98,112.7L161.41,112.6L164.85,109.55L175.15,109.29L178.59,106.92L182.02,106.73L185.45,105.1L188.89,104.96L192.32,103.76L199.19,103.32L202.63,103.41L216.36,103.23L219.8,101.46L226.67,101.22L230.1,100.52L240.4,98.4L243.84,96.05L247.27,95.6L250.71,92.54L254.14,92.52L257.58,91.46L267.88,87.86L271.31,84.9L278.18,84.15L281.62,81.72L285.05,79.87L288.48,79.77L291.92,79.77L295.35,78.89L302.22,76.99L305.66,70.31L312.53,69.12L315.96,64.05L319.39,64.05L322.83,59.3L336.57,58.72L340,57.69" style="vector-effect: non-scaling-stroke; fill: none; stroke: rgb(38, 130, 142); stroke-opacity: 1; stroke-width: 1px; opacity: 1;"/></g><g class="points"/><g class="text"/></g><g class="trace scatter trace6f619a" style="stroke-miterlimit: 2; opacity: 1;"><g class="fills"/><g class="errorbars"/><g class="lines"><path class="js-line" d="M0,240.63L6.87,238.79L10.3,236.87L13.74,235.37L17.17,232.36L20.61,232.3L24.04,229.65L27.47,228.22L30.91,224.46L34.34,223.95L37.78,218.05L41.21,217.4L44.65,214.87L48.08,214.87L51.52,207.24L54.95,207.24L58.38,203.82L61.82,203.08L65.25,187.54L68.69,184.76L72.12,184.23L75.56,183.64L78.99,170.61L82.42,170.12L85.86,167.54L89.29,167.43L92.73,166.55L96.16,160.1L99.6,160.05L103.03,158.54L106.46,158.5L109.9,157.54L113.33,143.17L116.77,135.7L120.2,135.56L123.64,133.33L127.07,133.03L130.51,132.08L133.94,129.81L137.37,123.83L140.81,123.43L147.68,118.48L151.11,117.81L154.55,117.81L157.98,116.22L161.41,116.08L164.85,112.47L175.15,112.1L178.59,108.89L182.02,108.63L185.45,106.32L188.89,106.11L192.32,104.14L195.76,103.24L199.19,103.49L216.36,105.5L219.8,108.58L230.1,109.3L233.54,109.6L243.84,110.63L247.27,110.7L267.88,109.56L271.31,108.46L278.18,108.08L281.62,106.74L285.05,105.47L288.48,105.39L295.35,104.85L298.79,104.39L302.22,103.59L305.66,98.67L312.53,97.24L315.96,90.84L319.39,90.84L322.83,83.73L333.13,83.3L336.57,82.75L340,81.46" style="vector-effect: non-scaling-stroke; fill: none; stroke: rgb(37, 135, 141); stroke-opacity: 1; stroke-width: 1px; opacity: 1;"/></g><g class="points"/><g class="text"/></g><g class="trace scatter trace159a70" style="stroke-miterlimit: 2; opacity: 1;"><g class="fills"/><g class="errorbars"/><g class="lines"><path class="js-line" d="M0,21.66L10.3,24.54L13.74,25.72L17.17,28.04L20.61,28.08L24.04,30.12L27.47,31.26L30.91,34.09L34.34,34.46L37.78,38.94L41.21,39.41L44.65,41.33L48.08,41.33L51.52,47.11L54.95,47.11L58.38,49.5L61.82,50.02L65.25,60.87L68.69,62.93L75.56,63.73L78.99,72.93L82.42,73.27L85.86,75.11L92.73,75.76L96.16,79.98L99.6,80.01L103.03,80.91L109.9,81.42L113.33,89.77L116.77,94.34L120.2,94.42L123.64,95.62L127.07,95.78L133.94,97.3L137.37,100.08L140.81,100.25L144.24,101.5L151.11,102.47L154.55,102.47L168.28,103.78L171.72,103.79L192.32,103.39L195.76,103.17L209.49,104.05L212.93,104.44L216.36,104.49L219.8,107.78L226.67,108.12L230.1,108.97L240.4,111.48L243.84,114.25L247.27,114.77L250.71,118.77L254.14,118.8L257.58,120.12L264.44,123.64L267.88,124.74L271.31,128.71L274.75,129.79L278.18,129.87L281.62,133.2L285.05,136.02L288.48,136.18L291.92,136.18L295.35,137.21L302.22,139.36L305.66,147.57L312.53,149.91L315.96,160.01L319.39,160.01L322.83,171.66L333.13,172.27L336.57,173.04L340,174.93" style="vector-effect: non-scaling-stroke; fill: none; stroke: rgb(36, 140, 140); stroke-opacity: 1; stroke-width: 1px; opacity: 1;"/></g><g class="points"/><g class="text"/></g><g class="trace scatter trace682bbc" style="stroke-miterlimit: 2; opacity: 1;"><g class="fills"/><g class="errorbars"/><g class="lines"><path class="js-line" d="M0,130.69L41.21,124.86L44.65,124L48.08,123.96L51.52,122.94L58.38,122.5L61.82,121.83L109.9,115.15L113.33,114.54L137.37,111.19L140.81,110.84L154.55,108.7L157.98,108.33L182.02,104.81L185.45,104.32L202.63,101.91L206.06,101.41L315.96,85.82L319.39,85.82L326.26,84.55L329.7,83.85L340,82.4" style="vector-effect: non-scaling-stroke; fill: none; stroke: rgb(34, 144, 140); stroke-opacity: 1; stroke-width: 1px; opacity: 1;"/></g><g class="points"/><g class="text"/></g><g class="trace scatter trace49f947" style="stroke-miterlimit: 2; opacity: 1;"><g class="fills"/><g class="errorbars"/><g class="lines"><path class="js-line" d="M0,162.45L13.74,158.23L17.17,156.31L20.61,156.17L24.04,155.19L30.91,152.93L34.34,151.44L41.21,149.94L44.65,148.02L48.08,148.01L51.52,145.93L54.95,145.93L58.38,144.9L75.56,139.69L78.99,138.39L82.42,137.57L85.86,135.75L92.73,134.52L96.16,132.92L99.6,132.85L103.03,130.68L106.46,130.6L109.9,129.47L116.77,126.38L120.2,125.94L127.07,124.2L130.51,123.5L140.81,120.11L144.24,119L147.68,118.04L151.11,115.69L154.55,115.69L157.98,114.2L161.41,113.81L164.85,110.94L175.15,109.91L178.59,108.17L188.89,105.52L192.32,104.49L199.19,102.49L202.63,101.46L206.06,100.8L209.49,98.76L216.36,98.02L219.8,96.24L223.23,95.9L226.67,94.35L236.97,91.01L240.4,90.26L243.84,89.52L247.27,87.96L250.71,86.86L254.14,86.75L257.58,84.76L261.01,83.77L267.88,81.57L271.31,80.64L274.75,79.53L278.18,79.32L285.05,76.47L288.48,76.07L291.92,76.06L295.35,73.38L302.22,71.04L305.66,70.97L309.09,68.81L312.53,68.13L315.96,67.14L319.39,67.14L322.83,64.85L326.26,64.83L333.13,62.5L336.57,60.93L340,59.95" style="vector-effect: non-scaling-stroke; fill: none; stroke: rgb(33, 148, 139); stroke-opacity: 1; stroke-width: 1px; opacity: 1;"/></g><g class="points"/><g class="text"/></g><g class="trace scatter trace66626a" style="stroke-miterlimit: 2; opacity: 1;"><g class="fills"/><g class="errorbars"/><g class="lines"><path class="js-line" d="M0,153.15L3.43,152.73L6.87,151.36L24.04,146.98L27.47,146.55L41.21,142.97L44.65,140.93L48.08,140.92L51.52,139.2L54.95,139.2L58.38,138.44L65.25,136.03L68.69,135.92L78.99,133.02L82.42,132.07L85.86,130.74L89.29,130.34L103.03,126.31L106.46,126.19L113.33,124.23L116.77,122.62L120.2,121.57L123.64,121.49L147.68,115.94L151.11,113L157.98,112.49L161.41,111.95L164.85,109.91L168.28,109.7L182.02,106.92L185.45,105.63L209.49,99.63L212.93,98.82L216.36,98.39L219.8,97.08L223.23,96.54L226.67,95.07L240.4,91.76L243.84,90.75L254.14,89.01L257.58,87.44L274.75,83.31L278.18,82.81L285.05,80.37L288.48,79.83L291.92,79.81L295.35,78.12L298.79,76.4L302.22,75.93L319.39,72.46L322.83,70.93L326.26,70.86L329.7,69.52L336.57,67.29L340,66.47" style="vector-effect: non-scaling-stroke; fill: none; stroke: rgb(32, 153, 138); stroke-opacity: 1; stroke-width: 1px; opacity: 1;"/></g><g class="points"/><g class="text"/></g><g class="trace scatter traceaf63be" style="stroke-miterlimit: 2; opacity: 1;"><g class="fills"/><g class="errorbars"/><g class="lines"><path class="js-line" d="M0,192.58L13.74,187.86L17.17,184.74L20.61,184.68L24.04,182.87L30.91,180.7L34.34,180.76L37.78,176.04L41.21,175.49L44.65,174.06L48.08,174.06L51.52,169.38L54.95,169.38L58.38,166.33L61.82,165.47L65.25,164.9L68.69,161.51L75.56,160.68L78.99,156.82L82.42,156.33L85.86,153.1L92.73,152.42L96.16,147.5L99.6,147.43L103.03,144.89L109.9,144.05L113.33,143.24L116.77,139.3L120.2,139.17L123.64,136.01L127.07,135.67L133.94,133.67L137.37,130.72L140.81,130.45L144.24,127.54L147.68,124.5L151.11,123.18L154.55,123.18L157.98,120.83L161.41,120.66L164.85,115L175.15,114.48L178.59,111.76L182.02,111.52L185.45,108.18L188.89,107.9L192.32,105.03L195.76,103.25L199.19,103.3L206.06,102.56L209.49,100.53L212.93,99.21L216.36,99.02L219.8,93.62L223.23,93.56L226.67,92.98L230.1,91.05L236.97,87.23L240.4,86.8L243.84,82.98L247.27,82.6L250.71,79.59L254.14,79.57L267.88,73.47L271.31,70.51L278.18,69.85L281.62,66.3L285.05,64.84L288.48,64.68L291.92,64.67L295.35,62.64L298.79,61.24L302.22,58.8L305.66,52.29L309.09,53.04L312.53,52.62L315.96,50.17L319.39,50.17L322.83,44.93L333.13,44.49L336.57,43.4L340,40.99" style="vector-effect: non-scaling-stroke; fill: none; stroke: rgb(31, 158, 137); stroke-opacity: 1; stroke-width: 1px; opacity: 1;"/></g><g class="points"/><g class="text"/></g><g class="trace scatter trace94eb22" style="stroke-miterlimit: 2; opacity: 1;"><g class="fills"/><g class="errorbars"/><g class="lines"><path class="js-line" d="M0,215.15L10.3,211.61L13.74,210.31L17.17,207.74L20.61,207.69L24.04,205.83L27.47,204.84L30.91,202.42L34.34,202.19L37.78,197.33L41.21,196.86L44.65,195.29L48.08,195.29L51.52,190.12L54.95,190.12L58.38,188.59L61.82,188.32L65.25,182.08L68.69,179.9L75.56,179.45L78.99,169.91L82.42,169.45L85.86,167.05L92.73,166.37L96.16,161.42L99.6,161.38L103.03,160.41L109.9,160.17L113.33,153.52L116.77,145.75L120.2,145.59L123.64,143.1L127.07,142.79L130.51,141.92L133.94,140.06L137.37,132.92L140.81,132.37L147.68,125.07L151.11,123.98L154.55,123.98L157.98,121.57L161.41,121.38L164.85,115.91L175.15,115.44L178.59,110.84L182.02,110.5L185.45,107.26L188.89,106.98L192.32,104.45L195.76,103.26L199.19,103.46L209.49,103.52L212.93,103.25L216.36,103.19L219.8,98.87L226.67,98.38L230.1,97.04L236.97,93.51L240.4,93.09L243.84,88.78L247.27,88.06L250.71,83.2L254.14,83.18L261.01,79.51L264.44,77.53L267.88,76.29L271.31,71.91L274.75,70.86L278.18,70.77L285.05,64.44L288.48,64.3L291.92,64.3L295.35,62.95L298.79,61.95L302.22,60.04L305.66,50.41L309.09,49.76L312.53,48.99L315.96,43.41L319.39,43.41L322.83,36.99L333.13,36.67L336.57,36.13L340,34.59" style="vector-effect: non-scaling-stroke; fill: none; stroke: rgb(34, 162, 135); stroke-opacity: 1; stroke-width: 1px; opacity: 1;"/></g><g class="points"/><g class="text"/></g><g class="trace scatter tracefcaf58" style="stroke-miterlimit: 2; opacity: 1;"><g class="fills"/><g class="errorbars"/><g class="lines"><path class="js-line" d="M0,189.57L13.74,185.71L17.17,183.36L20.61,183.32L24.04,181.71L27.47,180.91L30.91,178.81L34.34,178.67L37.78,174.61L41.21,174.19L44.65,172.74L48.08,172.74L51.52,168.75L54.95,168.75L58.38,167.16L61.82,166.97L65.25,163.6L68.69,161.95L72.12,161.85L75.56,161.79L78.99,154.33L82.42,153.95L85.86,151.58L92.73,151.01L96.16,146.25L99.6,146.21L103.03,144.97L109.9,144.66L113.33,142.47L116.77,136.49L120.2,136.36L123.64,134.05L127.07,133.8L133.94,131.92L137.37,127.29L140.81,126.92L144.24,123.4L147.68,120.6L151.11,119.52L154.55,119.52L157.98,117.46L161.41,117.26L164.85,112.01L175.15,111.62L178.59,108.18L182.02,107.83L185.45,105.59L188.89,105.39L192.32,103.93L195.76,103.17L199.19,103.23L206.06,102.62L209.49,101.31L212.93,100.36L216.36,100.24L219.8,93.67L223.23,93.59L226.67,93.24L230.1,91.87L236.97,88.4L240.4,87.97L243.84,83.77L247.27,83.11L250.71,79.57L254.14,79.55L261.01,76.57L264.44,74.93L267.88,73.83L271.31,70.14L278.18,69.46L281.62,66.29L285.05,64.57L288.48,64.44L291.92,64.44L295.35,62.92L298.79,61.96L302.22,59.77L305.66,52.86L309.09,52.66L312.53,51.98L315.96,47.68L319.39,47.68L322.83,43.32L333.13,42.95L336.57,42.06L340,40.56" style="vector-effect: non-scaling-stroke; fill: none; stroke: rgb(38, 166, 132); stroke-opacity: 1; stroke-width: 1px; opacity: 1;"/></g><g class="points"/><g class="text"/></g><g class="trace scatter traceab862d" style="stroke-miterlimit: 2; opacity: 1;"><g class="fills"/><g class="errorbars"/><g class="lines"><path class="js-line" d="M0,140.1L20.61,135.89L24.04,135.37L37.78,132.73L41.21,132.47L44.65,130.95L48.08,130.93L51.52,129.53L54.95,129.53L99.6,121.08L103.03,120.15L116.77,118.03L120.2,117.4L127.07,115.77L130.51,115.57L140.81,113.27L144.24,112.68L161.41,109.6L164.85,108.5L171.72,107.42L175.15,106.84L195.76,102.75L199.19,101.64L206.06,101.05L209.49,100.52L216.36,98.84L219.8,98.42L230.1,96.48L233.54,96.15L247.27,93.2L250.71,92.64L257.58,91.3L261.01,90.65L291.92,85.45L295.35,83.93L309.09,81.37L312.53,80.79L326.26,79.01L329.7,77.65L340,75.65" style="vector-effect: non-scaling-stroke; fill: none; stroke: rgb(41, 170, 130); stroke-opacity: 1; stroke-width: 1px; opacity: 1;"/></g><g class="points"/><g class="text"/></g><g class="trace scatter trace64fc54" style="stroke-miterlimit: 2; opacity: 1;"><g class="fills"/><g class="errorbars"/><g class="lines"><path class="js-line" d="M0,171.56L13.74,167.12L17.17,164.86L20.61,164.78L24.04,163.47L34.34,160.57L37.78,158.43L41.21,157.6L44.65,155.22L48.08,155.22L51.52,152.79L54.95,152.79L58.38,151.39L65.25,149.96L68.69,147.44L82.42,143.41L85.86,140.87L92.73,139.72L96.16,137.71L99.6,137.66L103.03,134.96L106.46,134.89L109.9,133.8L116.77,130.74L120.2,130.59L123.64,128.18L127.07,127.69L130.51,127.19L133.94,125.38L137.37,123.76L140.81,123.3L151.11,118.44L154.55,118.44L157.98,116.09L161.41,115.83L164.85,111.93L168.28,111.79L175.15,110.99L178.59,109.47L182.02,109.23L185.45,106.78L188.89,106.44L192.32,104.88L195.76,103.2L199.19,102.89L206.06,101.23L209.49,98.64L216.36,97.75L219.8,95.54L223.23,95.28L226.67,93.9L233.54,90.42L236.97,89.47L240.4,88.88L243.84,86.9L247.27,86.13L250.71,84.57L254.14,84.51L257.58,82.27L274.75,76.3L278.18,76.13L281.62,73.81L285.05,72.71L291.92,72.42L295.35,69.47L315.96,61.88L319.39,61.88L322.83,59.73L326.26,59.71L329.7,58.99L333.13,57.45L340,53.43" style="vector-effect: non-scaling-stroke; fill: none; stroke: rgb(45, 174, 127); stroke-opacity: 1; stroke-width: 1px; opacity: 1;"/></g><g class="points"/><g class="text"/></g><g class="trace scatter trace80a886" style="stroke-miterlimit: 2; opacity: 1;"><g class="fills"/><g class="errorbars"/><g class="lines"><path class="js-line" d="M0,189.42L13.74,185.48L17.17,183.52L20.61,183.47L24.04,181.94L27.47,181.11L30.91,179.14L34.34,178.92L37.78,174.84L41.21,174.43L44.65,173.06L48.08,173.06L51.52,168.93L54.95,168.93L58.38,168L61.82,167.79L65.25,164.09L68.69,162.87L72.12,162.7L75.56,162.71L78.99,153.93L82.42,153.56L85.86,151.67L92.73,151.21L96.16,146.9L99.6,146.87L103.03,145.82L109.9,145.55L113.33,140.99L116.77,135.05L120.2,134.9L123.64,133.01L127.07,132.73L133.94,130.71L137.37,125.45L140.81,125.03L144.24,121.48L147.68,118.53L151.11,117.61L154.55,117.61L157.98,115.74L161.41,115.58L164.85,110.78L175.15,110.44L178.59,107.47L182.02,107.21L185.45,104.97L188.89,104.78L192.32,103.61L202.63,102.8L206.06,102.62L212.93,100.64L216.36,100.52L219.8,94.26L223.23,94.18L226.67,93.82L230.1,92.36L236.97,88.93L240.4,88.51L243.84,84.25L247.27,83.6L250.71,79.5L254.14,79.47L267.88,73.55L271.31,69.73L278.18,68.88L281.62,65.53L285.05,63.49L288.48,63.36L291.92,63.36L295.35,62.17L302.22,59.41L305.66,51.39L312.53,50.34L315.96,46.96L319.39,46.96L322.83,40.05L333.13,39.78L336.57,39.09L340,37.71" style="vector-effect: non-scaling-stroke; fill: none; stroke: rgb(96, 200, 96); stroke-opacity: 1; stroke-width: 1px; opacity: 1;"/></g><g class="points"/><g class="text"/></g><g class="trace scatter tracef1309a" style="stroke-miterlimit: 2; opacity: 1;"><g class="fills"/><g class="errorbars"/><g class="lines"><path class="js-line" d="M0,76.81L13.74,78.24L17.17,79.04L24.04,79.71L27.47,80.08L30.91,81L34.34,81.11L37.78,82.59L41.21,82.74L48.08,83.33L51.52,85.15L58.38,85.88L61.82,86.03L65.25,89.5L68.69,90.16L75.56,90.41L78.99,93.48L92.73,94.4L96.16,95.78L109.9,96.24L113.33,98.98L116.77,100.5L120.2,100.52L147.68,103.18L151.11,103.26L216.36,103.78L219.8,105.08L233.54,105.87L236.97,106.36L240.4,106.46L243.84,107.4L247.27,107.58L250.71,108.82L257.58,109.25L261.01,109.82L274.75,112.16L278.18,112.19L285.05,113.87L288.48,113.91L298.79,114.38L302.22,114.74L305.66,116.91L309.09,117.2L312.53,117.47L315.96,119.67L319.39,119.67L322.83,122.17L340,122.79" style="vector-effect: non-scaling-stroke; fill: none; stroke: rgb(105, 204, 91); stroke-opacity: 1; stroke-width: 1px; opacity: 1;"/></g><g class="points"/><g class="text"/></g><g class="trace scatter tracee31eb7" style="stroke-miterlimit: 2; opacity: 1;"><g class="fills"/><g class="errorbars"/><g class="lines"><path class="js-line" d="M0,138.97L10.3,137.17L13.74,136.34L24.04,134.43L27.47,133.71L37.78,131.99L41.21,131.22L44.65,130.12L48.08,130.1L51.52,128.77L54.95,128.77L75.56,124.98L78.99,124.38L120.2,117.2L123.64,115.94L137.37,113.61L140.81,112.86L147.68,111.81L151.11,110.43L157.98,109.91L161.41,109.24L171.72,107.34L175.15,106.87L188.89,104.18L192.32,103.66L199.19,101.77L202.63,101.75L288.48,85.96L291.92,85.94L298.79,84.11L302.22,83.51L315.96,80.89L319.39,80.89L322.83,79.46L326.26,79.35L340,76.52" style="vector-effect: non-scaling-stroke; fill: none; stroke: rgb(115, 207, 85); stroke-opacity: 1; stroke-width: 1px; opacity: 1;"/></g><g class="points"/><g class="text"/></g><g class="trace scatter tracea862a3" style="stroke-miterlimit: 2; opacity: 1;"><g class="fills"/><g class="errorbars"/><g class="lines"><path class="js-line" d="M0,165.86L13.74,163.59L17.17,162.4L20.61,162.37L24.04,161.42L34.34,159.46L37.78,157.3L48.08,156.24L51.52,153.96L54.95,153.96L58.38,153.09L61.82,152.93L65.25,148.5L68.69,147.46L72.12,147.28L75.56,147.1L78.99,141.5L82.42,141.27L85.86,140.09L92.73,139.7L96.16,137.05L109.9,136.24L113.33,130.38L116.77,125.85L120.2,125.77L123.64,124.32L127.07,124.13L130.51,123.59L133.94,122.24L137.37,118.06L140.81,117.77L147.68,113.76L151.11,113.2L154.55,113.2L157.98,111.97L161.41,111.86L164.85,109.04L175.15,108.8L178.59,106.62L182.02,106.44L185.45,104.96L188.89,104.83L192.32,103.71L199.19,103.3L202.63,103.42L216.36,103.29L219.8,101.6L230.1,100.78L233.54,100.12L236.97,99.07L240.4,98.85L243.84,96.6L247.27,96.18L250.71,93.23L254.14,93.21L267.88,88.84L271.31,86.05L278.18,85.31L281.62,83.06L285.05,81.37L288.48,81.28L291.92,81.28L295.35,80.45L302.22,78.74L305.66,72.11L312.53,71L315.96,66.41L319.39,66.41L322.83,61.63L336.57,61.06L340,60.13" style="vector-effect: non-scaling-stroke; fill: none; stroke: rgb(126, 210, 78); stroke-opacity: 1; stroke-width: 1px; opacity: 1;"/></g><g class="points"/><g class="text"/></g><g class="trace scatter trace9c6a3c" style="stroke-miterlimit: 2; opacity: 1;"><g class="fills"/><g class="errorbars"/><g class="lines"><path class="js-line" d="M0,258.4L10.3,254.38L13.74,252.8L17.17,249.53L20.61,249.47L24.04,247.02L27.47,245.63L30.91,241.86L34.34,241.4L37.78,235.32L41.21,234.73L44.65,232.22L48.08,232.22L51.52,224.95L54.95,224.95L58.38,221.86L61.82,221.22L65.25,205.33L68.69,202.25L75.56,201.01L78.99,186.43L82.42,185.81L85.86,182.75L89.29,182.64L92.73,181.69L96.16,174.55L99.6,174.5L103.03,172.87L106.46,172.83L109.9,172.02L113.33,154.47L116.77,144.9L120.2,144.7L123.64,141.72L127.07,141.34L130.51,140.11L133.94,137.39L137.37,129.07L140.81,128.52L144.24,124.18L147.68,121.35L151.11,120.51L154.55,120.51L157.98,118.36L161.41,118.15L164.85,113.66L168.28,113.61L175.15,113.21L178.59,109.34L182.02,108.99L185.45,106.48L188.89,106.26L192.32,104.22L195.76,103.25L199.19,103.44L216.36,104.99L219.8,106.57L233.54,106.24L236.97,105.69L240.4,105.57L243.84,104.25L247.27,103.93L250.71,101.2L254.14,101.18L257.58,100.24L267.88,96.57L271.31,93.04L274.75,92.12L278.18,92.04L285.05,86.28L288.48,86.13L291.92,86.13L295.35,85.15L298.79,84.43L302.22,82.84L305.66,72.86L309.09,71.67L312.53,70.67L315.96,61.34L319.39,61.34L322.83,51.55L333.13,51.05L336.57,50.28L340,48.63" style="vector-effect: non-scaling-stroke; fill: none; stroke: rgb(138, 212, 70); stroke-opacity: 1; stroke-width: 1px; opacity: 1;"/></g><g class="points"/><g class="text"/></g><g class="trace scatter trace7bd817" style="stroke-miterlimit: 2; opacity: 1;"><g class="fills"/><g class="errorbars"/><g class="lines"><path class="js-line" d="M0,13.6L6.87,15.32L10.3,17.04L13.74,18.42L17.17,21.08L20.61,21.13L24.04,23.5L27.47,24.81L30.91,28.08L34.34,28.49L37.78,33.73L41.21,34.3L44.65,36.51L48.08,36.51L51.52,43.21L54.95,43.21L58.38,45.96L61.82,46.55L65.25,59.34L68.69,61.64L72.12,62.06L75.56,62.53L78.99,72.93L82.42,73.3L85.86,75.29L92.73,76L96.16,80.64L99.6,80.67L103.03,81.67L109.9,82.25L113.33,91.23L116.77,95.75L120.2,95.83L123.64,97.05L127.07,97.21L133.94,98.67L137.37,101.44L140.81,101.6L144.24,102.69L151.11,103.59L154.55,103.59L168.28,104.57L171.72,104.58L188.89,104.02L192.32,103.51L199.19,103.32L202.63,103.59L209.49,104.34L212.93,104.84L216.36,104.91L219.8,108.85L226.67,109.27L230.1,110.31L240.4,113.21L243.84,116.24L247.27,116.87L250.71,121.23L254.14,121.27L257.58,122.85L267.88,128.35L271.31,133L274.75,134.25L278.18,134.36L285.05,141.45L288.48,141.64L291.92,141.65L295.35,142.9L298.79,143.73L302.22,145.33L305.66,155.37L309.09,156.81L312.53,158.11L315.96,169.71L319.39,169.71L322.83,183.97L333.13,184.72L336.57,185.69L340,188.02" style="vector-effect: non-scaling-stroke; fill: none; stroke: rgb(149, 215, 63); stroke-opacity: 1; stroke-width: 1px; opacity: 1;"/></g><g class="points"/><g class="text"/></g><g class="trace scatter trace076d6a" style="stroke-miterlimit: 2; opacity: 1;"><g class="fills"/><g class="errorbars"/><g class="lines"><path class="js-line" d="M0,130.47L24.04,127.17L27.47,126.69L96.16,117.32L99.6,116.5L106.46,115.49L109.9,114.96L137.37,111.15L140.81,110.59L216.36,100L219.8,99.48L257.58,94.02L261.01,93.64L295.35,88.88L298.79,88.17L319.39,85.92L322.83,84.96L333.13,83.46L336.57,82.91L340,82.44" style="vector-effect: non-scaling-stroke; fill: none; stroke: rgb(161, 217, 56); stroke-opacity: 1; stroke-width: 1px; opacity: 1;"/></g><g class="points"/><g class="text"/></g><g class="trace scatter trace241421" style="stroke-miterlimit: 2; opacity: 1;"><g class="fills"/><g class="errorbars"/><g class="lines"><path class="js-line" d="M0,163.73L13.74,159.31L17.17,157.58L20.61,157.47L24.04,156.38L41.21,150.9L44.65,148.95L48.08,148.94L51.52,146.78L54.95,146.78L58.38,145.71L75.56,140.49L78.99,139.05L82.42,138.34L85.86,136.52L89.29,136.26L92.73,135.08L96.16,133.45L99.6,133.38L103.03,131.21L106.46,131.13L109.9,130.36L113.33,128.73L116.77,126.94L120.2,126.54L127.07,124.66L130.51,124L140.81,120.44L144.24,119.28L147.68,118.33L151.11,116.24L154.55,116.24L157.98,114.43L161.41,114.07L164.85,111L175.15,109.83L178.59,108.28L182.02,107.61L185.45,106.12L192.32,104.46L195.76,103.14L202.63,101.47L206.06,100.82L209.49,98.83L212.93,98.17L216.36,97.94L219.8,96.08L223.23,95.78L226.67,94.25L233.54,91.27L236.97,90.82L243.84,88.9L247.27,87.67L250.71,86.58L254.14,86.48L257.58,84.38L261.01,83.38L267.88,81.22L271.31,80.29L274.75,79.05L278.18,78.84L285.05,75.92L288.48,75.57L291.92,75.57L295.35,72.79L312.53,67.49L315.96,66.45L319.39,66.45L322.83,64.37L326.26,64.34L329.7,63.48L340,59.15" style="vector-effect: non-scaling-stroke; fill: none; stroke: rgb(172, 220, 49); stroke-opacity: 1; stroke-width: 1px; opacity: 1;"/></g><g class="points"/><g class="text"/></g><g class="trace scatter trace070ee3" style="stroke-miterlimit: 2; opacity: 1;"><g class="fills"/><g class="errorbars"/><g class="lines"><path class="js-line" d="M0,153.05L6.87,151.26L10.3,150.28L13.74,149.47L17.17,147.87L24.04,146.8L27.47,146.39L37.78,143.44L41.21,142.8L44.65,140.73L48.08,140.72L51.52,138.98L54.95,138.98L58.38,138.34L61.82,136.72L65.25,135.82L68.69,135.75L85.86,130.62L89.29,130.24L103.03,126.22L106.46,126.1L116.77,122.51L120.2,121.43L127.07,120.63L130.51,119.67L147.68,115.87L151.11,112.87L157.98,112.44L161.41,111.91L164.85,109.86L168.28,109.65L182.02,106.95L185.45,105.63L206.06,100.68L209.49,99.69L223.23,96.54L226.67,95.12L233.54,94L236.97,92.42L247.27,90.09L250.71,89.21L254.14,89.06L257.58,87.5L288.48,79.95L291.92,79.94L298.79,76.5L302.22,76.14L305.66,76.54L309.09,74.02L319.39,72.64L322.83,70.95L326.26,70.9L329.7,69.6L336.57,67.43L340,66.57" style="vector-effect: non-scaling-stroke; fill: none; stroke: rgb(184, 222, 43); stroke-opacity: 1; stroke-width: 1px; opacity: 1;"/></g><g class="points"/><g class="text"/></g><g class="trace scatter tracefd999d" style="stroke-miterlimit: 2; opacity: 1;"><g class="fills"/><g class="errorbars"/><g class="lines"><path class="js-line" d="M0,193.35L13.74,188.49L17.17,185.44L20.61,185.38L24.04,183.52L30.91,181.56L34.34,181.69L37.78,176.58L41.21,176.01L44.65,174.47L48.08,174.47L51.52,169.91L54.95,169.91L58.38,167.12L61.82,166.39L65.25,165.22L68.69,161.93L75.56,160.99L78.99,157.15L82.42,156.63L85.86,153.57L92.73,152.87L96.16,148.1L99.6,148.03L103.03,145.54L109.9,144.82L113.33,143.6L116.77,139.58L120.2,139.4L123.64,136.24L127.07,135.83L133.94,134.09L137.37,130.96L140.81,130.66L144.24,127.67L147.68,124.46L151.11,123.13L154.55,123.13L157.98,120.97L161.41,120.85L164.85,115.19L175.15,114.7L178.59,111.89L182.02,111.65L185.45,108.23L188.89,107.96L192.32,105.16L195.76,103.22L199.19,103.28L206.06,102.7L209.49,100.67L212.93,99.36L216.36,99.17L219.8,93.68L223.23,93.62L226.67,93.07L230.1,91.14L236.97,87.06L240.4,86.67L243.84,83.04L247.27,82.55L250.71,79.47L254.14,79.46L267.88,73.23L271.31,70.2L278.18,69.49L281.62,66.01L285.05,64.53L288.48,64.36L291.92,64.35L295.35,62.27L298.79,60.91L302.22,58.51L305.66,50.54L309.09,51.9L312.53,51.79L315.96,49.51L319.39,49.51L322.83,44.12L333.13,43.77L336.57,42.71L340,40.44" style="vector-effect: non-scaling-stroke; fill: none; stroke: rgb(195, 224, 42); stroke-opacity: 1; stroke-width: 1px; opacity: 1;"/></g><g class="points"/><g class="text"/></g><g class="trace scatter trace5b34ef" style="stroke-miterlimit: 2; opacity: 1;"><g class="fills"/><g class="errorbars"/><g class="lines"><path class="js-line" d="M0,209.91L10.3,206.4L13.74,205.06L17.17,202.38L20.61,202.33L30.91,197.32L34.34,197.09L37.78,191.9L41.21,191.41L44.65,189.76L48.08,189.76L51.52,185.03L54.95,185.03L58.38,183.45L61.82,183.23L65.25,177.98L68.69,176.12L75.56,175.79L78.99,166.75L82.42,166.28L85.86,163.65L92.73,162.98L96.16,157.85L99.6,157.81L103.03,156.78L109.9,156.5L113.33,151.78L116.77,144.93L120.2,144.77L123.64,142.38L127.07,142.1L133.94,139.79L137.37,133.28L140.81,132.82L144.24,128.46L147.68,125.31L151.11,124.2L154.55,124.2L157.98,121.86L161.41,121.66L164.85,115.95L175.15,115.49L178.59,111.16L182.02,110.81L185.45,107.42L188.89,107.14L192.32,104.54L195.76,103.25L199.19,103.43L209.49,103.01L212.93,102.43L216.36,102.33L219.8,97L226.67,96.51L230.1,94.95L236.97,91.04L240.4,90.59L243.84,86.15L247.27,85.45L250.71,80.79L254.14,80.76L261.01,77.11L264.44,75.23L267.88,74.02L271.31,69.94L278.18,68.99L281.62,65.5L285.05,63.3L288.48,63.15L291.92,63.15L295.35,61.72L298.79,60.67L302.22,58.62L305.66,48.28L309.09,48.04L312.53,47.57L315.96,43.63L319.39,43.63L322.83,38.53L333.13,38.17L336.57,37.46L340,35.62" style="vector-effect: non-scaling-stroke; fill: none; stroke: rgb(207, 225, 41); stroke-opacity: 1; stroke-width: 1px; opacity: 1;"/></g><g class="points"/><g class="text"/></g><g class="trace scatter tracea3def8" style="stroke-miterlimit: 2; opacity: 1;"><g class="fills"/><g class="errorbars"/><g class="lines"><path class="js-line" d="M0,190.3L10.3,186.99L13.74,185.8L17.17,183.55L20.61,183.51L30.91,178.97L34.34,178.81L37.78,174.73L41.21,174.28L44.65,172.77L48.08,172.77L51.52,168.67L54.95,168.67L58.38,167.26L61.82,167.07L65.25,162.97L68.69,161L75.56,160.58L78.99,154.41L82.42,154L85.86,151.58L92.73,151.03L96.16,146.39L99.6,146.34L103.03,145.25L109.9,144.9L113.33,142.19L116.77,136.56L120.2,136.42L123.64,134.23L127.07,134.02L133.94,132.13L137.37,127.85L140.81,127.49L144.24,123.55L147.68,120.71L151.11,119.67L154.55,119.67L157.98,117.72L161.41,117.58L164.85,112.63L175.15,112.19L178.59,108.68L182.02,108.37L185.45,105.74L188.89,105.57L192.32,103.96L199.19,103.05L202.63,102.78L206.06,102.55L209.49,101.07L212.93,99.96L216.36,99.81L219.8,93.92L223.23,93.8L226.67,93.38L230.1,91.76L236.97,88.02L240.4,87.58L243.84,83.47L247.27,82.88L250.71,79.21L254.14,79.2L261.01,76.28L264.44,74.5L267.88,73.53L271.31,69.88L278.18,69.06L281.62,65.65L285.05,63.69L288.48,63.61L291.92,63.61L295.35,62.23L298.79,61.21L302.22,59.29L305.66,50.27L309.09,50.61L312.53,50.38L315.96,47.53L319.39,47.53L322.83,43.5L333.13,42.99L336.57,42.29L340,40.31" style="vector-effect: non-scaling-stroke; fill: none; stroke: rgb(218, 227, 40); stroke-opacity: 1; stroke-width: 1px; opacity: 1;"/></g><g class="points"/><g class="text"/></g><g class="trace scatter tracec02241" style="stroke-miterlimit: 2; opacity: 1;"><g class="fills"/><g class="errorbars"/><g class="lines"><path class="js-line" d="M0,139.66L41.21,132.15L44.65,130.77L48.08,130.74L51.52,129.4L58.38,128.81L61.82,128.19L99.6,121.14L103.03,120.15L116.77,118.07L120.2,117.06L147.68,111.99L151.11,110.54L157.98,110.13L161.41,109.42L171.72,107.43L175.15,106.92L199.19,101.81L202.63,101.68L250.71,92.52L254.14,92.15L271.31,88.71L274.75,88.03L319.39,80.27L322.83,78.86L326.26,78.77L329.7,77.77L340,75.77" style="vector-effect: non-scaling-stroke; fill: none; stroke: rgb(230, 228, 39); stroke-opacity: 1; stroke-width: 1px; opacity: 1;"/></g><g class="points"/><g class="text"/></g><g class="trace scatter trace12d8fd" style="stroke-miterlimit: 2; opacity: 1;"><g class="fills"/><g class="errorbars"/><g class="lines"><path class="js-line" d="M0,171.07L13.74,166.58L17.17,164.32L20.61,164.24L24.04,162.94L34.34,159.86L37.78,157.93L41.21,157.12L44.65,154.81L48.08,154.8L51.52,152.31L54.95,152.31L58.38,150.98L65.25,149.48L68.69,147.08L82.42,143.04L85.86,140.55L92.73,139.4L96.16,137.41L99.6,137.36L103.03,134.69L106.46,134.61L109.9,133.45L116.77,130.45L120.2,130.3L123.64,127.94L127.07,127.46L130.51,126.97L133.94,125.15L137.37,123.55L140.81,123.09L151.11,118.28L154.55,118.28L157.98,115.95L161.41,115.68L164.85,111.83L168.28,111.69L175.15,110.86L178.59,109.38L182.02,109.12L185.45,106.73L188.89,106.39L192.32,104.85L195.76,103.19L199.19,102.87L206.06,101.2L209.49,98.62L216.36,97.77L219.8,95.59L223.23,95.33L226.67,93.97L233.54,90.5L236.97,89.58L240.4,88.98L243.84,87.03L247.27,86.28L250.71,84.73L254.14,84.66L257.58,82.42L274.75,76.52L278.18,76.35L281.62,74.07L285.05,72.96L291.92,72.66L295.35,69.74L315.96,62.22L319.39,62.22L322.83,60.11L326.26,60.08L329.7,59.36L333.13,57.82L340,53.86" style="vector-effect: non-scaling-stroke; fill: none; stroke: rgb(241, 230, 38); stroke-opacity: 1; stroke-width: 1px; opacity: 1;"/></g><g class="points"/><g class="text"/></g><g class="trace scatter tracebd6a42" style="stroke-miterlimit: 2; opacity: 1;"><g class="fills"/><g class="errorbars"/><g class="lines"><path class="js-line" d="M0,45.57L10.3,47.46L13.74,48.25L17.17,49.8L20.61,49.83L30.91,53.75L34.34,53.98L37.78,56.91L41.21,57.21L44.65,58.4L48.08,58.4L51.52,62.24L54.95,62.24L58.38,63.81L61.82,64.15L65.25,71.2L68.69,72.56L75.56,73.08L78.99,79.55L82.42,79.78L85.86,81.03L92.73,81.48L96.16,84.49L106.46,85.18L109.9,85.53L113.33,91.75L116.77,95.09L120.2,95.15L123.64,96.12L130.51,96.62L133.94,97.42L137.37,99.63L140.81,99.78L147.68,101.4L151.11,101.62L161.41,102.07L164.85,102.86L206.06,103.38L209.49,103.64L216.36,103.91L219.8,105.86L230.1,106.6L233.54,107.16L247.27,110.11L250.71,112.49L254.14,112.51L257.58,113.34L267.88,116.3L271.31,118.82L278.18,119.57L281.62,121.68L285.05,123.37L288.48,123.47L295.35,124.14L298.79,124.6L302.22,125.49L305.66,130.66L312.53,132.08L315.96,137.88L319.39,137.88L322.83,144.86L333.13,145.21L336.57,145.68L340,146.78" style="vector-effect: non-scaling-stroke; fill: none; stroke: rgb(253, 231, 37); stroke-opacity: 1; stroke-width: 1px; opacity: 1;"/></g><g class="points"/><g class="text"/></g><g class="trace scatter tracef3792f" style="stroke-miterlimit: 2; opacity: 1;"><g class="fills"/><g class="errorbars"/><g class="lines"><path class="js-line" d="M0,206.61L13.74,203.49L17.17,201.58L20.61,201.57L24.04,200.35L30.91,198.63L34.34,198.97L37.78,195.65L41.21,195.29L44.65,193.88L48.08,193.88L51.52,191.25L54.95,191.25L58.38,189.77L61.82,189.38L65.25,188.17L68.69,185.77L75.56,185.1L78.99,182.06L82.42,181.83L85.86,179.63L92.73,179.11L96.16,176.41L99.6,176.4L103.03,174.68L109.9,174.15L113.33,172.35L116.77,169.66L120.2,169.68L123.64,167.43L127.07,167.21L130.51,166.79L133.94,165.57L137.37,163.07L140.81,162.91L147.68,158.91L151.11,158.19L154.55,158.19L157.98,156.29L161.41,156.21L164.85,152.42L175.15,152.11L178.59,150.19L182.02,150.12L185.45,148.12L188.89,148.16L192.32,143.23L195.76,118.02L199.19,131.51L202.63,140.67L206.06,141.91L209.49,143.19L212.93,142.19L216.36,142.11L219.8,139.59L226.67,139L230.1,137.52L236.97,135.37L240.4,135.12L243.84,132.77L247.27,132.61L250.71,130.79L254.14,130.79L264.44,127.33L267.88,126.63L271.31,125.01L274.75,124.37L278.18,124.34L281.62,122.24L285.05,121.28L288.48,121.19L291.92,121.19L295.35,119.46L302.22,117.13L305.66,113.47L309.09,113.77L312.53,113.13L315.96,111.59L319.39,111.59L322.83,109.3L326.26,109.3L333.13,108.46L336.57,107.17L340,105.57" style="vector-effect: non-scaling-stroke; fill: none; stroke: rgb(169, 169, 169); stroke-opacity: 1; stroke-width: 2px; opacity: 1;"/></g><g class="points"/><g class="text"/></g></g></g><g class="overplot"/><path class="xlines-above crisp" d="M0,0" style="fill: none;"/><path class="ylines-above crisp" d="M0,0" style="fill: none;"/><g class="overlines-above"/><g class="xaxislayer-above"><g class="x3tick"><text text-anchor="middle" x="0" y="1133" transform="translate(132.31,0)" style="font-family: 'Open Sans', verdana, arial, sans-serif; font-size: 12px; fill: rgb(42, 63, 95); fill-opacity: 1; white-space: pre; opacity: 1;">2.45</text></g><g class="x3tick"><text text-anchor="middle" x="0" y="1133" style="font-family: 'Open Sans', verdana, arial, sans-serif; font-size: 12px; fill: rgb(42, 63, 95); fill-opacity: 1; white-space: pre; opacity: 1;" transform="translate(263.08000000000004,0)">2.5</text></g><g class="x3tick"><text text-anchor="middle" x="0" y="1133" style="font-family: 'Open Sans', verdana, arial, sans-serif; font-size: 12px; fill: rgb(42, 63, 95); fill-opacity: 1; white-space: pre; opacity: 1;" transform="translate(393.85,0)">2.55</text></g></g><g class="yaxislayer-above"><g class="y3tick"><text text-anchor="end" x="79" y="4.199999999999999" transform="translate(0,1094.7900000000002)" style="font-family: 'Open Sans', verdana, arial, sans-serif; font-size: 12px; fill: rgb(42, 63, 95); fill-opacity: 1; white-space: pre; opacity: 1;">−0.3</text></g><g class="y3tick"><text text-anchor="end" x="79" y="4.199999999999999" style="font-family: 'Open Sans', verdana, arial, sans-serif; font-size: 12px; fill: rgb(42, 63, 95); fill-opacity: 1; white-space: pre; opacity: 1;" transform="translate(0,1046.89)">−0.2</text></g><g class="y3tick"><text text-anchor="end" x="79" y="4.199999999999999" style="font-family: 'Open Sans', verdana, arial, sans-serif; font-size: 12px; fill: rgb(42, 63, 95); fill-opacity: 1; white-space: pre; opacity: 1;" transform="translate(0,998.9800000000001)">−0.1</text></g><g class="y3tick"><text text-anchor="end" x="79" y="4.199999999999999" style="font-family: 'Open Sans', verdana, arial, sans-serif; font-size: 12px; fill: rgb(42, 63, 95); fill-opacity: 1; white-space: pre; opacity: 1;" transform="translate(0,951.0700000000002)">0</text></g><g class="y3tick"><text text-anchor="end" x="79" y="4.199999999999999" style="font-family: 'Open Sans', verdana, arial, sans-serif; font-size: 12px; fill: rgb(42, 63, 95); fill-opacity: 1; white-space: pre; opacity: 1;" transform="translate(0,903.1600000000001)">0.1</text></g><g class="y3tick"><text text-anchor="end" x="79" y="4.199999999999999" style="font-family: 'Open Sans', verdana, arial, sans-serif; font-size: 12px; fill: rgb(42, 63, 95); fill-opacity: 1; white-space: pre; opacity: 1;" transform="translate(0,855.2500000000001)">0.2</text></g></g><g class="overaxes-above"/></g></g><g class="polarlayer"/><g class="smithlayer"/><g class="ternarylayer"/><g class="geolayer"/><g class="funnelarealayer"/><g class="pielayer"/><g class="iciclelayer"/><g class="treemaplayer"/><g class="sunburstlayer"/><g class="glimages"/><defs id="topdefs-a9a129"><g class="clips"/><clipPath id="legenda9a129"><rect width="188" height="29" x="0" y="0"/></clipPath></defs><g class="layer-above"><g class="imagelayer"/><g class="shapelayer"/></g><g class="infolayer"><g class="legend" pointer-events="all" transform="translate(232,50.59999999999998)"><rect class="bg" shape-rendering="crispEdges" width="188" height="29" x="0" y="0" style="stroke: rgb(68, 68, 68); stroke-opacity: 1; fill: rgb(255, 255, 255); fill-opacity: 1; stroke-width: 0px;"/><g class="scrollbox" transform="" clip-path="url(#legenda9a129)"><g class="groups"><g class="traces" transform="translate(0,14.5)" style="opacity: 1;"><text class="legendtext" text-anchor="start" x="40" y="4.680000000000001" style="font-family: 'Open Sans', verdana, arial, sans-serif; font-size: 12px; fill: rgb(42, 63, 95); fill-opacity: 1; white-space: pre;">Population Log-likelihood</text><g class="layers" style="opacity: 1;"><g class="legendfill"/><g class="legendlines"><path class="js-line" d="M5,0h30" style="fill: none; stroke: rgb(169, 169, 169); stroke-opacity: 1; stroke-width: 2px;"/></g><g class="legendsymbols"><g class="legendpoints"/></g></g><rect class="legendtoggle" x="0" y="-9.5" width="184.703125" height="19" style="fill: rgb(0, 0, 0); fill-opacity: 0;"/></g></g></g><rect class="scrollbar" rx="20" ry="3" width="0" height="0" x="0" y="0" style="fill: rgb(128, 139, 164); fill-opacity: 1;"/></g><g class="g-gtitle"/><g class="g-xtitle"/><g class="g-x2title"/><g class="g-x3title"/><g class="g-ytitle"/><g class="g-y2title"/><g class="g-y3title"/></g></svg>