<svg class="main-svg" xmlns="http://www.w3.org/2000/svg" xmlns:xlink="http://www.w3.org/1999/xlink" width="500" height="1200" style="" viewBox="0 0 500 1200"><rect x="0" y="0" width="500" height="1200" style="fill: rgb(255, 255, 255); fill-opacity: 1;"/><defs id="defs-293214"><g class="clips"><clipPath id="clip293214xyplot" class="plotclip"><rect width="340" height="272.00000000000006"/></clipPath><clipPath id="clip293214x2y2plot" class="plotclip"><rect width="340" height="272"/></clipPath><clipPath id="clip293214x3y3plot" class="plotclip"><rect width="340" height="272"/></clipPath><clipPath class="axesclip" id="clip293214x"><rect x="80" y="0" width="340" height="1200"/></clipPath><clipPath class="axesclip" id="clip293214y"><rect x="0" y="100" width="500" height="272.00000000000006"/></clipPath><clipPath class="axesclip" id="clip293214xy"><rect x="80" y="100" width="340" height="272.00000000000006"/></clipPath><clipPath class="axesclip" id="clip293214y2"><rect x="0" y="474.00000000000006" width="500" height="272"/></clipPath><clipPath class="axesclip" id="clip293214xy2"><rect x="80" y="474.00000000000006" width="340" height="272"/></clipPath><clipPath class="axesclip" id="clip293214y3"><rect x="0" y="848.0000000000001" width="500" height="272"/></clipPath><clipPath class="axesclip" id="clip293214xy3"><rect x="80" y="848.0000000000001" width="340" height="272"/></clipPath><clipPath class="axesclip" id="clip293214x2"><rect x="80" y="0" width="340" height="1200"/></clipPath><clipPath class="axesclip" id="clip293214x2y"><rect x="80" y="100" width="340" height="272.00000000000006"/></clipPath><clipPath class="axesclip" id="clip293214x2y2"><rect x="80" y="474.00000000000006" width="340" height="272"/></clipPath><clipPath class="axesclip" id="clip293214x2y3"><rect x="80" y="848.0000000000001" width="340" height="272"/></clipPath><clipPath class="axesclip" id="clip293214x3"><rect x="80" y="0" width="340" height="1200"/></clipPath><clipPath class="axesclip" id="clip293214x3y"><rect x="80" y="100" width="340" height="272.00000000000006"/></clipPath><clipPath class="axesclip" id="clip293214x3y2"><rect x="80" y="474.00000000000006" width="340" height="272"/></clipPath><clipPath class="axesclip" id="clip293214x3y3"><rect x="80" y="848.0000000000001" width="340" height="272"/></clipPath></g><g class="gradients"/><g class="patterns"/></defs><g class="bglayer"/><g class="layer-below"><g class="imagelayer"/><g class="shapelayer"/></g><g class="cartesianlayer"><g class="subplot xy"><g class="layer-subplot"><g class="shapelayer"/><g class="imagelayer"/></g><g class="minor-gridlayer"><g class="x"/><g class="y"/></g><g class="gridlayer"><g class="x"><path class="xgrid crisp" transform="translate(132.31,0)" d="M0,100v272.00000000000006" style="stroke: rgb(235, 240, 248); stroke-opacity: 1; stroke-width: 1px;"/><path class="xgrid crisp" transform="translate(263.08000000000004,0)" d="M0,100v272.00000000000006" style="stroke: rgb(235, 240, 248); stroke-opacity: 1; stroke-width: 1px;"/><path class="xgrid crisp" transform="translate(393.85,0)" d="M0,100v272.00000000000006" style="stroke: rgb(235, 240, 248); stroke-opacity: 1; stroke-width: 1px;"/></g><g class="y"><path class="ygrid crisp" transform="translate(0,346.96000000000004)" d="M80,0h340" style="stroke: rgb(235, 240, 248); stroke-opacity: 1; stroke-width: 1px;"/><path class="ygrid crisp" transform="translate(0,308.07)" d="M80,0h340" style="stroke: rgb(235, 240, 248); stroke-opacity: 1; stroke-width: 1px;"/><path class="ygrid crisp" transform="translate(0,269.16999999999996)" d="M80,0h340" style="stroke: rgb(235, 240, 248); stroke-opacity: 1; stroke-width: 1px;"/><path class="ygrid crisp" transform="translate(0,230.28)" d="M80,0h340" style="stroke: rgb(235, 240, 248); stroke-opacity: 1; stroke-width: 1px;"/><path class="ygrid crisp" transform="translate(0,191.39)" d="M80,0h340" style="stroke: rgb(235, 240, 248); stroke-opacity: 1; stroke-width: 1px;"/><path class="ygrid crisp" transform="translate(0,152.49)" d="M80,0h340" style="stroke: rgb(235, 240, 248); stroke-opacity: 1; stroke-width: 1px;"/></g></g><g class="zerolinelayer"><path class="yzl zl crisp" transform="translate(0,113.6)" d="M80,0h340" style="stroke: rgb(235, 240, 248); stroke-opacity: 1; stroke-width: 2px;"/></g><path class="xlines-below"/><path class="ylines-below"/><g class="overlines-below"/><g class="xaxislayer-below"/><g class="yaxislayer-below"/><g class="overaxes-below"/><g class="plot" transform="translate(80,100)" clip-path="url(#clip293214xyplot)"><g class="scatterlayer mlayer"><g class="trace scatter trace52217c" style="stroke-miterlimit: 2; opacity: 1;"><g class="fills"/><g class="errorbars"/><g class="lines"><path class="js-line" d="M0,258.4L13.74,220.59L17.17,211.6L34.34,169.88L37.78,162.08L51.52,133.09L54.95,126.31L68.69,101.35L72.12,95.51L85.86,74.48L89.29,69.72L103.03,52.57L106.46,48.77L116.77,38.57L120.2,35.56L130.51,27.7L133.94,25.47L144.24,19.94L147.68,18.44L157.98,15.25L161.41,14.52L171.72,13.6L175.15,13.67L185.45,14.98L188.89,15.84L199.19,19.36L202.63,20.98L212.93,26.85L216.36,29.17L226.67,37.26L230.1,40.28L240.4,50.59L243.84,54.38L257.58,71.41L261.01,76.12L274.75,96.78L278.18,102.42L291.92,126.6L295.35,133.12L309.09,160.88L312.53,168.29L329.7,207.81L333.13,216.27L340,233.61" style="vector-effect: non-scaling-stroke; fill: none; stroke: rgb(169, 169, 169); stroke-opacity: 1; stroke-width: 2px; opacity: 1;"/></g><g class="points"/><g class="text"/></g></g></g><g class="overplot"/><path class="xlines-above crisp" d="M0,0" style="fill: none;"/><path class="ylines-above crisp" d="M0,0" style="fill: none;"/><g class="overlines-above"/><g class="xaxislayer-above"/><g class="yaxislayer-above"><g class="ytick"><text text-anchor="end" x="79" y="4.199999999999999" transform="translate(0,346.96000000000004)" style="font-family: 'Open Sans', verdana, arial, sans-serif; font-size: 12px; fill: rgb(42, 63, 95); fill-opacity: 1; white-space: pre; opacity: 1;">−6</text></g><g class="ytick"><text text-anchor="end" x="79" y="4.199999999999999" style="font-family: 'Open Sans', verdana, arial, sans-serif; font-size: 12px; fill: rgb(42, 63, 95); fill-opacity: 1; white-space: pre; opacity: 1;" transform="translate(0,308.07)">−5</text></g><g class="ytick"><text text-anchor="end" x="79" y="4.199999999999999" style="font-family: 'Open Sans', verdana, arial, sans-serif; font-size: 12px; fill: rgb(42, 63, 95); fill-opacity: 1; white-space: pre; opacity: 1;" transform="translate(0,269.16999999999996)">−4</text></g><g class="ytick"><text text-anchor="end" x="79" y="4.199999999999999" style="font-family: 'Open Sans', verdana, arial, sans-serif; font-size: 12px; fill: rgb(42, 63, 95); fill-opacity: 1; white-space: pre; opacity: 1;" transform="translate(0,230.28)">−3</text></g><g class="ytick"><text text-anchor="end" x="79" y="4.199999999999999" style="font-family: 'Open Sans', verdana, arial, sans-serif; font-size: 12px; fill: rgb(42, 63, 95); fill-opacity: 1; white-space: pre; opacity: 1;" transform="translate(0,191.39)">−2</text></g><g class="ytick"><text text-anchor="end" x="79" y="4.199999999999999" style="font-family: 'Open Sans', verdana, arial, sans-serif; font-size: 12px; fill: rgb(42, 63, 95); fill-opacity: 1; white-space: pre; opacity: 1;" transform="translate(0,152.49)">−1</text></g><g class="ytick"><text text-anchor="end" x="79" y="4.199999999999999" style="font-family: 'Open Sans', verdana, arial, sans-serif; font-size: 12px; fill: rgb(42, 63, 95); fill-opacity: 1; white-space: pre; opacity: 1;" transform="translate(0,113.6)">0</text></g></g><g class="overaxes-above"/></g><g class="subplot x2y2"><g class="layer-subplot"><g class="shapelayer"/><g class="imagelayer"/></g><g class="minor-gridlayer"><g class="x2"/><g class="y2"/></g><g class="gridlayer"><g class="x2"><path class="x2grid crisp" transform="translate(132.31,0)" d="M0,474.00000000000006v272" style="stroke: rgb(235, 240, 248); stroke-opacity: 1; stroke-width: 1px;"/><path class="x2grid crisp" transform="translate(263.08000000000004,0)" d="M0,474.00000000000006v272" style="stroke: rgb(235, 240, 248); stroke-opacity: 1; stroke-width: 1px;"/><path class="x2grid crisp" transform="translate(393.85,0)" d="M0,474.00000000000006v272" style="stroke: rgb(235, 240, 248); stroke-opacity: 1; stroke-width: 1px;"/></g><g class="y2"><path class="y2grid crisp" transform="translate(0,691.3600000000001)" d="M80,0h340" style="stroke: rgb(235, 240, 248); stroke-opacity: 1; stroke-width: 1px;"/><path class="y2grid crisp" transform="translate(0,580.45)" d="M80,0h340" style="stroke: rgb(235, 240, 248); stroke-opacity: 1; stroke-width: 1px;"/><path class="y2grid crisp" transform="translate(0,525)" d="M80,0h340" style="stroke: rgb(235, 240, 248); stroke-opacity: 1; stroke-width: 1px;"/></g></g><g class="zerolinelayer"><path class="y2zl zl crisp" transform="translate(0,635.9000000000001)" d="M80,0h340" style="stroke: rgb(235, 240, 248); stroke-opacity: 1; stroke-width: 2px;"/></g><path class="xlines-below"/><path class="ylines-below"/><g class="overlines-below"/><g class="xaxislayer-below"/><g class="yaxislayer-below"/><g class="overaxes-below"/><g class="plot" transform="translate(80,474.00000000000006)" clip-path="url(#clip293214x2y2plot)"><g class="scatterlayer mlayer"><g class="trace scatter trace2448df" style="stroke-miterlimit: 2; opacity: 1;"><g class="fills"/><g class="errorbars"/><g class="lines"><path class="js-line" d="M0,203.27L78.99,186.49L82.42,185.78L202.63,161.72L206.06,161.05L322.83,139.64L326.26,139.02L340,136.65" style="vector-effect: non-scaling-stroke; fill: none; stroke: rgb(68, 1, 84); stroke-opacity: 1; stroke-width: 1px; opacity: 1;"/></g><g class="points"/><g class="text"/></g><g class="trace scatter trace913499" style="stroke-miterlimit: 2; opacity: 1;"><g class="fills"/><g class="errorbars"/><g class="lines"><path class="js-line" d="M0,203.71L247.27,150.33L250.71,149.6L340,131.12" style="vector-effect: non-scaling-stroke; fill: none; stroke: rgb(69, 7, 90); stroke-opacity: 1; stroke-width: 1px; opacity: 1;"/></g><g class="points"/><g class="text"/></g><g class="trace scatter traceda5e9f" style="stroke-miterlimit: 2; opacity: 1;"><g class="fills"/><g class="errorbars"/><g class="lines"><path class="js-line" d="M0,28.64L24.04,45.49L27.47,47.42L37.78,54.7L41.21,56.98L154.55,133.16L157.98,135.28L264.44,204.19L267.88,206.19L291.92,221.28L295.35,223.32L340,250.46" style="vector-effect: non-scaling-stroke; fill: none; stroke: rgb(69, 14, 96); stroke-opacity: 1; stroke-width: 1px; opacity: 1;"/></g><g class="points"/><g class="text"/></g><g class="trace scatter traced0ac1d" style="stroke-miterlimit: 2; opacity: 1;"><g class="fills"/><g class="errorbars"/><g class="lines"><path class="js-line" d="M0,152.23L133.94,157.45L137.37,157.75L233.54,163.14L236.97,163.41L315.96,168.92L319.39,169.22L340,170.81" style="vector-effect: non-scaling-stroke; fill: none; stroke: rgb(70, 20, 101); stroke-opacity: 1; stroke-width: 1px; opacity: 1;"/></g><g class="points"/><g class="text"/></g><g class="trace scatter tracea90249" style="stroke-miterlimit: 2; opacity: 1;"><g class="fills"/><g class="errorbars"/><g class="lines"><path class="js-line" d="M0,195.54L202.63,157.86L206.06,157.25L291.92,141.99L295.35,141.4L340,133.73" style="vector-effect: non-scaling-stroke; fill: none; stroke: rgb(71, 26, 107); stroke-opacity: 1; stroke-width: 1px; opacity: 1;"/></g><g class="points"/><g class="text"/></g><g class="trace scatter trace6b2b57" style="stroke-miterlimit: 2; opacity: 1;"><g class="fills"/><g class="errorbars"/><g class="lines"><path class="js-line" d="M0,136.96L72.12,145.66L75.56,146.11L182.02,161.34L185.45,161.84L236.97,170.08L240.4,170.64L305.66,181.81L309.09,182.42L340,187.98" style="vector-effect: non-scaling-stroke; fill: none; stroke: rgb(71, 32, 113); stroke-opacity: 1; stroke-width: 1px; opacity: 1;"/></g><g class="points"/><g class="text"/></g><g class="trace scatter traced020dd" style="stroke-miterlimit: 2; opacity: 1;"><g class="fills"/><g class="errorbars"/><g class="lines"><path class="js-line" d="M0,199.95L58.38,188.04L61.82,187.47L85.86,182.72L89.29,182.11L178.59,166.13L182.02,165.63L233.54,157.33L236.97,156.85L288.48,149.28L291.92,148.8L340,142.47" style="vector-effect: non-scaling-stroke; fill: none; stroke: rgb(72, 39, 119); stroke-opacity: 1; stroke-width: 1px; opacity: 1;"/></g><g class="points"/><g class="text"/></g><g class="trace scatter traceec12fb" style="stroke-miterlimit: 2; opacity: 1;"><g class="fills"/><g class="errorbars"/><g class="lines"><path class="js-line" d="M0,191.38L250.71,153.67L254.14,153.17L340,141.53" style="vector-effect: non-scaling-stroke; fill: none; stroke: rgb(71, 44, 122); stroke-opacity: 1; stroke-width: 1px; opacity: 1;"/></g><g class="points"/><g class="text"/></g><g class="trace scatter trace0ca265" style="stroke-miterlimit: 2; opacity: 1;"><g class="fills"/><g class="errorbars"/><g class="lines"><path class="js-line" d="M0,181.13L65.25,172.88L68.69,172.49L106.46,167.92L109.9,167.49L247.27,152.51L250.71,152.18L322.83,145.35L326.26,145.01L340,143.81" style="vector-effect: non-scaling-stroke; fill: none; stroke: rgb(69, 49, 125); stroke-opacity: 1; stroke-width: 1px; opacity: 1;"/></g><g class="points"/><g class="text"/></g><g class="trace scatter traceaf1d5c" style="stroke-miterlimit: 2; opacity: 1;"><g class="fills"/><g class="errorbars"/><g class="lines"><path class="js-line" d="M0,192.05L65.25,181.58L68.69,181.11L103.03,175.78L106.46,175.29L192.32,162.77L195.76,162.31L264.44,153.04L267.88,152.62L319.39,146.14L322.83,145.74L340,143.65" style="vector-effect: non-scaling-stroke; fill: none; stroke: rgb(68, 55, 128); stroke-opacity: 1; stroke-width: 1px; opacity: 1;"/></g><g class="points"/><g class="text"/></g><g class="trace scatter trace0ae54c" style="stroke-miterlimit: 2; opacity: 1;"><g class="fills"/><g class="errorbars"/><g class="lines"><path class="js-line" d="M0,179.14L58.38,173.37L61.82,173.13L99.6,169.69L103.03,169.39L185.45,162.91L188.89,162.63L295.35,155.9L298.79,155.73L340,153.65" style="vector-effect: non-scaling-stroke; fill: none; stroke: rgb(66, 60, 130); stroke-opacity: 1; stroke-width: 1px; opacity: 1;"/></g><g class="points"/><g class="text"/></g><g class="trace scatter traceccba4d" style="stroke-miterlimit: 2; opacity: 1;"><g class="fills"/><g class="errorbars"/><g class="lines"><path class="js-line" d="M0,185.21L48.08,179.29L51.52,178.91L78.99,175.72L82.42,175.36L106.46,172.71L109.9,172.32L178.59,165.41L182.02,165.16L254.14,158.9L257.58,158.72L305.66,155.17L309.09,154.97L340,152.96" style="vector-effect: non-scaling-stroke; fill: none; stroke: rgb(64, 65, 133); stroke-opacity: 1; stroke-width: 1px; opacity: 1;"/></g><g class="points"/><g class="text"/></g><g class="trace scatter trace40ed9f" style="stroke-miterlimit: 2; opacity: 1;"><g class="fills"/><g class="errorbars"/><g class="lines"><path class="js-line" d="M0,174.26L41.21,171.35L44.65,171.13L127.07,166.69L130.51,166.56L178.59,164.78L182.02,164.76L240.4,163.44L243.84,163.35L326.26,162.99L329.7,163.05L340,163.13" style="vector-effect: non-scaling-stroke; fill: none; stroke: rgb(63, 71, 136); stroke-opacity: 1; stroke-width: 1px; opacity: 1;"/></g><g class="points"/><g class="text"/></g><g class="trace scatter trace3664d9" style="stroke-miterlimit: 2; opacity: 1;"><g class="fills"/><g class="errorbars"/><g class="lines"><path class="js-line" d="M0,56.24L58.38,88.07L61.82,89.74L78.99,99.12L82.42,100.93L96.16,108.61L99.6,110.41L254.14,193.54L257.58,195.19L305.66,220.5L309.09,222.23L340,238.27" style="vector-effect: non-scaling-stroke; fill: none; stroke: rgb(61, 76, 137); stroke-opacity: 1; stroke-width: 1px; opacity: 1;"/></g><g class="points"/><g class="text"/></g><g class="trace scatter trace73821d" style="stroke-miterlimit: 2; opacity: 1;"><g class="fills"/><g class="errorbars"/><g class="lines"><path class="js-line" d="M0,194.45L185.45,161.11L188.89,160.53L233.54,152.82L236.97,152.23L340,135.15" style="vector-effect: non-scaling-stroke; fill: none; stroke: rgb(59, 81, 138); stroke-opacity: 1; stroke-width: 1px; opacity: 1;"/></g><g class="points"/><g class="text"/></g><g class="trace scatter traceb9f5cd" style="stroke-miterlimit: 2; opacity: 1;"><g class="fills"/><g class="errorbars"/><g class="lines"><path class="js-line" d="M0,205.72L274.75,143.8L278.18,143.07L340,129.76" style="vector-effect: non-scaling-stroke; fill: none; stroke: rgb(45, 114, 142); stroke-opacity: 1; stroke-width: 1px; opacity: 1;"/></g><g class="points"/><g class="text"/></g><g class="trace scatter trace50c71a" style="stroke-miterlimit: 2; opacity: 1;"><g class="fills"/><g class="errorbars"/><g class="lines"><path class="js-line" d="M0,13.6L24.04,32.43L27.47,34.55L34.34,39.8L37.78,42.68L82.42,76.12L85.86,79.29L99.6,89.32L103.03,91.9L116.77,102L120.2,104.72L140.81,119.52L144.24,122.27L157.98,132.03L161.41,134.49L178.59,147.33L182.02,149.51L233.54,186.33L236.97,188.49L264.44,207.87L267.88,210.05L291.92,226.57L295.35,228.79L340,258.4" style="vector-effect: non-scaling-stroke; fill: none; stroke: rgb(43, 118, 142); stroke-opacity: 1; stroke-width: 1px; opacity: 1;"/></g><g class="points"/><g class="text"/></g><g class="trace scatter trace5e690b" style="stroke-miterlimit: 2; opacity: 1;"><g class="fills"/><g class="errorbars"/><g class="lines"><path class="js-line" d="M0,149.47L127.07,156.3L130.51,156.55L164.85,158.81L168.28,159.07L195.76,161.22L199.19,161.35L240.4,164.56L243.84,164.83L298.79,169.54L302.22,169.85L340,173.35" style="vector-effect: non-scaling-stroke; fill: none; stroke: rgb(41, 122, 142); stroke-opacity: 1; stroke-width: 1px; opacity: 1;"/></g><g class="points"/><g class="text"/></g><g class="trace scatter trace0a212e" style="stroke-miterlimit: 2; opacity: 1;"><g class="fills"/><g class="errorbars"/><g class="lines"><path class="js-line" d="M0,197.07L267.88,145.35L271.31,144.7L340,132.1" style="vector-effect: non-scaling-stroke; fill: none; stroke: rgb(40, 126, 142); stroke-opacity: 1; stroke-width: 1px; opacity: 1;"/></g><g class="points"/><g class="text"/></g><g class="trace scatter tracefbc1d4" style="stroke-miterlimit: 2; opacity: 1;"><g class="fills"/><g class="errorbars"/><g class="lines"><path class="js-line" d="M0,137.2L65.25,144.95L68.69,145.46L103.03,149.94L106.46,150.44L182.02,161.47L185.45,161.97L236.97,170.21L240.4,170.76L305.66,181.94L309.09,182.56L340,188.12" style="vector-effect: non-scaling-stroke; fill: none; stroke: rgb(38, 130, 142); stroke-opacity: 1; stroke-width: 1px; opacity: 1;"/></g><g class="points"/><g class="text"/></g><g class="trace scatter tracec14523" style="stroke-miterlimit: 2; opacity: 1;"><g class="fills"/><g class="errorbars"/><g class="lines"><path class="js-line" d="M0,198.45L58.38,187.06L61.82,186.53L85.86,181.99L89.29,181.4L178.59,166.16L182.02,165.69L233.54,157.79L236.97,157.33L291.92,149.7L295.35,149.26L340,143.71" style="vector-effect: non-scaling-stroke; fill: none; stroke: rgb(37, 135, 141); stroke-opacity: 1; stroke-width: 1px; opacity: 1;"/></g><g class="points"/><g class="text"/></g><g class="trace scatter trace5f1764" style="stroke-miterlimit: 2; opacity: 1;"><g class="fills"/><g class="errorbars"/><g class="lines"><path class="js-line" d="M0,187.15L192.32,161.93L195.76,161.53L226.67,157.64L230.1,157.25L326.26,146.19L329.7,145.85L340,144.74" style="vector-effect: non-scaling-stroke; fill: none; stroke: rgb(36, 140, 140); stroke-opacity: 1; stroke-width: 1px; opacity: 1;"/></g><g class="points"/><g class="text"/></g><g class="trace scatter trace722b05" style="stroke-miterlimit: 2; opacity: 1;"><g class="fills"/><g class="errorbars"/><g class="lines"><path class="js-line" d="M0,179.62L75.56,170.64L78.99,170.3L157.98,161.68L161.41,161.38L219.8,155.49L223.23,155.17L278.18,150.1L281.62,149.82L340,144.9" style="vector-effect: non-scaling-stroke; fill: none; stroke: rgb(34, 144, 140); stroke-opacity: 1; stroke-width: 1px; opacity: 1;"/></g><g class="points"/><g class="text"/></g><g class="trace scatter trace894c0e" style="stroke-miterlimit: 2; opacity: 1;"><g class="fills"/><g class="errorbars"/><g class="lines"><path class="js-line" d="M0,191.22L58.38,182.06L61.82,181.59L99.6,175.9L103.03,175.39L271.31,152.74L274.75,152.35L340,144.73" style="vector-effect: non-scaling-stroke; fill: none; stroke: rgb(33, 148, 139); stroke-opacity: 1; stroke-width: 1px; opacity: 1;"/></g><g class="points"/><g class="text"/></g><g class="trace scatter traceb0b720" style="stroke-miterlimit: 2; opacity: 1;"><g class="fills"/><g class="errorbars"/><g class="lines"><path class="js-line" d="M0,180.46L48.08,175.41L51.52,175.08L85.86,171.6L89.29,171.33L199.19,161.78L202.63,161.53L278.18,156.09L281.62,155.87L340,152.31" style="vector-effect: non-scaling-stroke; fill: none; stroke: rgb(32, 153, 138); stroke-opacity: 1; stroke-width: 1px; opacity: 1;"/></g><g class="points"/><g class="text"/></g><g class="trace scatter traced00d9c" style="stroke-miterlimit: 2; opacity: 1;"><g class="fills"/><g class="errorbars"/><g class="lines"><path class="js-line" d="M0,183.11L48.08,177.69L51.52,177.35L78.99,174.45L82.42,174.14L103.03,172.02L106.46,171.75L178.59,165.3L182.02,165.1L254.14,159.74L257.58,159.6L309.09,156.53L312.53,156.36L340,154.94" style="vector-effect: non-scaling-stroke; fill: none; stroke: rgb(31, 158, 137); stroke-opacity: 1; stroke-width: 1px; opacity: 1;"/></g><g class="points"/><g class="text"/></g><g class="trace scatter tracea0035f" style="stroke-miterlimit: 2; opacity: 1;"><g class="fills"/><g class="errorbars"/><g class="lines"><path class="js-line" d="M0,174.44L48.08,171.05L51.52,170.87L75.56,169.33L78.99,169.18L202.63,164.12L206.06,164.01L309.09,162.83L312.53,162.86L340,162.95" style="vector-effect: non-scaling-stroke; fill: none; stroke: rgb(34, 162, 135); stroke-opacity: 1; stroke-width: 1px; opacity: 1;"/></g><g class="points"/><g class="text"/></g><g class="trace scatter trace9b4a56" style="stroke-miterlimit: 2; opacity: 1;"><g class="fills"/><g class="errorbars"/><g class="lines"><path class="js-line" d="M0,60.52L65.25,94.53L68.69,96.14L85.86,105.39L89.29,107.06L185.45,157.02L188.89,158.89L212.93,171.23L216.36,173.1L340,235.9" style="vector-effect: non-scaling-stroke; fill: none; stroke: rgb(38, 166, 132); stroke-opacity: 1; stroke-width: 1px; opacity: 1;"/></g><g class="points"/><g class="text"/></g><g class="trace scatter trace89b700" style="stroke-miterlimit: 2; opacity: 1;"><g class="fills"/><g class="errorbars"/><g class="lines"><path class="js-line" d="M0,194L144.24,168.24L147.68,167.65L243.84,151.28L247.27,150.71L340,135.7" style="vector-effect: non-scaling-stroke; fill: none; stroke: rgb(41, 170, 130); stroke-opacity: 1; stroke-width: 1px; opacity: 1;"/></g><g class="points"/><g class="text"/></g><g class="trace scatter traceaefb25" style="stroke-miterlimit: 2; opacity: 1;"><g class="fills"/><g class="errorbars"/><g class="lines"><path class="js-line" d="M0,193.82L65.25,182.89L68.69,182.39L113.33,175.21L116.77,174.66L216.36,159.7L219.8,159.21L319.39,145.67L322.83,145.25L340,143.04" style="vector-effect: non-scaling-stroke; fill: none; stroke: rgb(45, 174, 127); stroke-opacity: 1; stroke-width: 1px; opacity: 1;"/></g><g class="points"/><g class="text"/></g><g class="trace scatter traceaabcc7" style="stroke-miterlimit: 2; opacity: 1;"><g class="fills"/><g class="errorbars"/><g class="lines"><path class="js-line" d="M0,27.5L24.04,44.48L27.47,46.44L37.78,53.77L41.21,56.07L154.55,132.93L157.98,135.08L271.31,208.99L274.75,211L309.09,232.45L312.53,234.51L326.26,243.25L329.7,245.21L340,251.47" style="vector-effect: non-scaling-stroke; fill: none; stroke: rgb(96, 200, 96); stroke-opacity: 1; stroke-width: 1px; opacity: 1;"/></g><g class="points"/><g class="text"/></g><g class="trace scatter tracedde2a9" style="stroke-miterlimit: 2; opacity: 1;"><g class="fills"/><g class="errorbars"/><g class="lines"><path class="js-line" d="M0,149.73L109.9,155.48L113.33,155.67L236.97,164.54L240.4,164.81L319.39,171.75L322.83,172.09L340,173.69" style="vector-effect: non-scaling-stroke; fill: none; stroke: rgb(105, 204, 91); stroke-opacity: 1; stroke-width: 1px; opacity: 1;"/></g><g class="points"/><g class="text"/></g><g class="trace scatter trace8552dd" style="stroke-miterlimit: 2; opacity: 1;"><g class="fills"/><g class="errorbars"/><g class="lines"><path class="js-line" d="M0,196.81L250.71,148.48L254.14,147.86L312.53,137.02L315.96,136.42L340,132.04" style="vector-effect: non-scaling-stroke; fill: none; stroke: rgb(115, 207, 85); stroke-opacity: 1; stroke-width: 1px; opacity: 1;"/></g><g class="points"/><g class="text"/></g><g class="trace scatter trace5cd780" style="stroke-miterlimit: 2; opacity: 1;"><g class="fills"/><g class="errorbars"/><g class="lines"><path class="js-line" d="M0,134.02L78.99,144.84L82.42,145.39L109.9,149.49L113.33,149.99L206.06,165.19L209.49,165.8L315.96,185.34L319.39,186.02L340,190.02" style="vector-effect: non-scaling-stroke; fill: none; stroke: rgb(126, 210, 78); stroke-opacity: 1; stroke-width: 1px; opacity: 1;"/></g><g class="points"/><g class="text"/></g><g class="trace scatter trace448176" style="stroke-miterlimit: 2; opacity: 1;"><g class="fills"/><g class="errorbars"/><g class="lines"><path class="js-line" d="M0,197.6L58.38,186.54L61.82,186.02L85.86,181.61L89.29,181.04L182.02,165.79L185.45,165.24L240.4,157.18L243.84,156.67L326.26,146.04L329.7,145.67L340,144.47" style="vector-effect: non-scaling-stroke; fill: none; stroke: rgb(138, 212, 70); stroke-opacity: 1; stroke-width: 1px; opacity: 1;"/></g><g class="points"/><g class="text"/></g><g class="trace scatter tracec14a95" style="stroke-miterlimit: 2; opacity: 1;"><g class="fills"/><g class="errorbars"/><g class="lines"><path class="js-line" d="M0,191.44L178.59,164.41L182.02,163.98L250.71,154.29L254.14,153.8L322.83,144.72L326.26,144.21L340,142.48" style="vector-effect: non-scaling-stroke; fill: none; stroke: rgb(149, 215, 63); stroke-opacity: 1; stroke-width: 1px; opacity: 1;"/></g><g class="points"/><g class="text"/></g><g class="trace scatter trace347f47" style="stroke-miterlimit: 2; opacity: 1;"><g class="fills"/><g class="errorbars"/><g class="lines"><path class="js-line" d="M0,177.91L75.56,169.58L78.99,169.27L175.15,159.79L178.59,159.47L254.14,152.89L257.58,152.64L340,146.44" style="vector-effect: non-scaling-stroke; fill: none; stroke: rgb(161, 217, 56); stroke-opacity: 1; stroke-width: 1px; opacity: 1;"/></g><g class="points"/><g class="text"/></g><g class="trace scatter trace38b40a" style="stroke-miterlimit: 2; opacity: 1;"><g class="fills"/><g class="errorbars"/><g class="lines"><path class="js-line" d="M0,191.22L58.38,182.07L61.82,181.6L103.03,175.43L106.46,174.95L192.32,162.93L195.76,162.49L271.31,152.84L274.75,152.46L340,144.88" style="vector-effect: non-scaling-stroke; fill: none; stroke: rgb(172, 220, 49); stroke-opacity: 1; stroke-width: 1px; opacity: 1;"/></g><g class="points"/><g class="text"/></g><g class="trace scatter trace9d3a5e" style="stroke-miterlimit: 2; opacity: 1;"><g class="fills"/><g class="errorbars"/><g class="lines"><path class="js-line" d="M0,180.14L44.65,175.49L48.08,175.15L178.59,163.44L182.02,163.22L291.92,155.55L295.35,155.37L340,152.87" style="vector-effect: non-scaling-stroke; fill: none; stroke: rgb(184, 222, 43); stroke-opacity: 1; stroke-width: 1px; opacity: 1;"/></g><g class="points"/><g class="text"/></g><g class="trace scatter trace7398f1" style="stroke-miterlimit: 2; opacity: 1;"><g class="fills"/><g class="errorbars"/><g class="lines"><path class="js-line" d="M0,186.26L58.38,178.76L61.82,178.44L85.86,175.47L89.29,175.12L188.89,164.49L192.32,164.17L309.09,154.26L312.53,154.02L340,152.07" style="vector-effect: non-scaling-stroke; fill: none; stroke: rgb(195, 224, 42); stroke-opacity: 1; stroke-width: 1px; opacity: 1;"/></g><g class="points"/><g class="text"/></g><g class="trace scatter traced6e135" style="stroke-miterlimit: 2; opacity: 1;"><g class="fills"/><g class="errorbars"/><g class="lines"><path class="js-line" d="M0,172.9L44.65,170.09L48.08,169.9L168.28,164.96L171.72,164.95L212.93,164.11L216.36,164L315.96,163.81L319.39,163.88L340,164.14" style="vector-effect: non-scaling-stroke; fill: none; stroke: rgb(207, 225, 41); stroke-opacity: 1; stroke-width: 1px; opacity: 1;"/></g><g class="points"/><g class="text"/></g><g class="trace scatter trace1453ef" style="stroke-miterlimit: 2; opacity: 1;"><g class="fills"/><g class="errorbars"/><g class="lines"><path class="js-line" d="M0,55.96L48.08,82.13L51.52,83.92L65.25,91.57L68.69,93.23L85.86,102.91L89.29,104.64L175.15,151.13L178.59,153.07L202.63,165.93L206.06,167.83L340,238.25" style="vector-effect: non-scaling-stroke; fill: none; stroke: rgb(218, 227, 40); stroke-opacity: 1; stroke-width: 1px; opacity: 1;"/></g><g class="points"/><g class="text"/></g><g class="trace scatter tracea92d57" style="stroke-miterlimit: 2; opacity: 1;"><g class="fills"/><g class="errorbars"/><g class="lines"><path class="js-line" d="M0,195.46L185.45,161.05L188.89,160.45L226.67,153.66L230.1,153.05L340,133.96" style="vector-effect: non-scaling-stroke; fill: none; stroke: rgb(230, 228, 39); stroke-opacity: 1; stroke-width: 1px; opacity: 1;"/></g><g class="points"/><g class="text"/></g><g class="trace scatter trace082671" style="stroke-miterlimit: 2; opacity: 1;"><g class="fills"/><g class="errorbars"/><g class="lines"><path class="js-line" d="M0,193.68L78.99,180.59L82.42,180.06L127.07,173.01L130.51,172.48L230.1,157.83L233.54,157.35L340,143.35" style="vector-effect: non-scaling-stroke; fill: none; stroke: rgb(241, 230, 38); stroke-opacity: 1; stroke-width: 1px; opacity: 1;"/></g><g class="points"/><g class="text"/></g><g class="trace scatter tracebfb0f0" style="stroke-miterlimit: 2; opacity: 1;"><g class="fills"/><g class="errorbars"/><g class="lines"><path class="js-line" d="M0,172.03L154.55,162.63L157.98,162.52L309.09,156.33L312.53,156.25L340,155.45" style="vector-effect: non-scaling-stroke; fill: none; stroke: rgb(253, 231, 37); stroke-opacity: 1; stroke-width: 1px; opacity: 1;"/></g><g class="points"/><g class="text"/></g></g></g><g class="overplot"/><path class="xlines-above crisp" d="M0,0" style="fill: none;"/><path class="ylines-above crisp" d="M0,0" style="fill: none;"/><g class="overlines-above"/><g class="xaxislayer-above"/><g class="yaxislayer-above"><g class="y2tick"><text text-anchor="end" x="79" y="4.199999999999999" transform="translate(0,691.3600000000001)" style="font-family: 'Open Sans', verdana, arial, sans-serif; font-size: 12px; fill: rgb(42, 63, 95); fill-opacity: 1; white-space: pre; opacity: 1;">−5</text></g><g class="y2tick"><text text-anchor="end" x="79" y="4.199999999999999" style="font-family: 'Open Sans', verdana, arial, sans-serif; font-size: 12px; fill: rgb(42, 63, 95); fill-opacity: 1; white-space: pre; opacity: 1;" transform="translate(0,635.9000000000001)">0</text></g><g class="y2tick"><text text-anchor="end" x="79" y="4.199999999999999" style="font-family: 'Open Sans', verdana, arial, sans-serif; font-size: 12px; fill: rgb(42, 63, 95); fill-opacity: 1; white-space: pre; opacity: 1;" transform="translate(0,580.45)">5</text></g><g class="y2tick"><text text-anchor="end" x="79" y="4.199999999999999" style="font-family: 'Open Sans', verdana, arial, sans-serif; font-size: 12px; fill: rgb(42, 63, 95); fill-opacity: 1; white-space: pre; opacity: 1;" transform="translate(0,525)">10</text></g></g><g class="overaxes-above"/></g><g class="subplot x3y3"><g class="layer-subplot"><g class="shapelayer"/><g class="imagelayer"/></g><g class="minor-gridlayer"><g class="x3"/><g class="y3"/></g><g class="gridlayer"><g class="x3"><path class="x3grid crisp" transform="translate(132.31,0)" d="M0,848.0000000000001v272" style="stroke: rgb(235, 240, 248); stroke-opacity: 1; stroke-width: 1px;"/><path class="x3grid crisp" transform="translate(263.08000000000004,0)" d="M0,848.0000000000001v272" style="stroke: rgb(235, 240, 248); stroke-opacity: 1; stroke-width: 1px;"/><path class="x3grid crisp" transform="translate(393.85,0)" d="M0,848.0000000000001v272" style="stroke: rgb(235, 240, 248); stroke-opacity: 1; stroke-width: 1px;"/></g><g class="y3"><path class="y3grid crisp" transform="translate(0,1110.0300000000002)" d="M80,0h340" style="stroke: rgb(235, 240, 248); stroke-opacity: 1; stroke-width: 1px;"/><path class="y3grid crisp" transform="translate(0,1061.72)" d="M80,0h340" style="stroke: rgb(235, 240, 248); stroke-opacity: 1; stroke-width: 1px;"/><path class="y3grid crisp" transform="translate(0,1013.4100000000001)" d="M80,0h340" style="stroke: rgb(235, 240, 248); stroke-opacity: 1; stroke-width: 1px;"/><path class="y3grid crisp" transform="translate(0,916.8000000000001)" d="M80,0h340" style="stroke: rgb(235, 240, 248); stroke-opacity: 1; stroke-width: 1px;"/><path class="y3grid crisp" transform="translate(0,868.4900000000001)" d="M80,0h340" style="stroke: rgb(235, 240, 248); stroke-opacity: 1; stroke-width: 1px;"/></g></g><g class="zerolinelayer"><path class="y3zl zl crisp" transform="translate(0,965.1100000000001)" d="M80,0h340" style="stroke: rgb(235, 240, 248); stroke-opacity: 1; stroke-width: 2px;"/></g><path class="xlines-below"/><path class="ylines-below"/><g class="overlines-below"/><g class="xaxislayer-below"/><g class="yaxislayer-below"/><g class="overaxes-below"/><g class="plot" transform="translate(80,848.0000000000001)" clip-path="url(#clip293214x3y3plot)"><g class="scatterlayer mlayer"><g class="trace scatter trace3c36e3" style="stroke-miterlimit: 2; opacity: 1;"><g class="fills"/><g class="errorbars"/><g class="lines"><path class="js-line" d="M0,168.36L30.91,160.53L34.34,159.89L41.21,158.07L44.65,156.95L58.38,153.52L61.82,152.9L68.69,150.83L72.12,150.18L82.42,147.6L85.86,146.7L99.6,143.17L103.03,142.42L109.9,140.65L113.33,139.79L137.37,133.34L140.81,133.04L144.24,131.61L147.68,131.06L161.41,127.15L164.85,126.24L171.72,124.76L175.15,123.68L182.02,121.98L185.45,121.17L192.32,119.92L195.76,119.3L202.63,116.83L206.06,116.12L257.58,102.99L261.01,102.01L333.13,83.53L336.57,82.45L340,81.89" style="vector-effect: non-scaling-stroke; fill: none; stroke: rgb(68, 1, 84); stroke-opacity: 1; stroke-width: 1px; opacity: 1;"/></g><g class="points"/><g class="text"/></g><g class="trace scatter trace5d9237" style="stroke-miterlimit: 2; opacity: 1;"><g class="fills"/><g class="errorbars"/><g class="lines"><path class="js-line" d="M0,146.86L48.08,139.58L51.52,139.14L68.69,136.42L72.12,136.07L92.73,132.85L96.16,132.33L161.41,122.47L164.85,121.91L195.76,117.67L199.19,116.79L309.09,100.1L312.53,99.72L340,95.44" style="vector-effect: non-scaling-stroke; fill: none; stroke: rgb(69, 7, 90); stroke-opacity: 1; stroke-width: 1px; opacity: 1;"/></g><g class="points"/><g class="text"/></g><g class="trace scatter trace57bd1f" style="stroke-miterlimit: 2; opacity: 1;"><g class="fills"/><g class="errorbars"/><g class="lines"><path class="js-line" d="M0,164.28L3.43,163.79L6.87,162.51L13.74,159.91L17.17,160.76L20.61,159.06L24.04,158.44L27.47,158.2L30.91,157.14L44.65,153.1L48.08,153.17L82.42,144.36L85.86,144.12L92.73,141.88L96.16,141.17L120.2,135.43L123.64,134.51L154.55,127.41L157.98,126.38L175.15,121.65L178.59,121.23L188.89,118.99L192.32,118.75L216.36,112.45L219.8,111.75L226.67,109.7L230.1,109.1L240.4,106.56L243.84,105.94L250.71,104.29L254.14,103.25L264.44,100.59L267.88,100.01L281.62,96.82L285.05,95.07L288.48,95.07L291.92,93.87L305.66,90.59L309.09,89.8L333.13,83.63L336.57,83.96L340,82.39" style="vector-effect: non-scaling-stroke; fill: none; stroke: rgb(69, 14, 96); stroke-opacity: 1; stroke-width: 1px; opacity: 1;"/></g><g class="points"/><g class="text"/></g><g class="trace scatter trace56a7e1" style="stroke-miterlimit: 2; opacity: 1;"><g class="fills"/><g class="errorbars"/><g class="lines"><path class="js-line" d="M0,84.66L3.43,86.99L6.87,87.54L10.3,86.99L13.74,88.07L17.17,88.06L20.61,89.58L27.47,90.92L30.91,92.48L34.34,90.01L37.78,95.36L41.21,93.12L44.65,94.13L48.08,94.9L51.52,93.41L54.95,96.4L58.38,97.09L61.82,95.53L65.25,99.13L68.69,96.14L72.12,98.66L82.42,100.88L85.86,102.14L92.73,102.18L96.16,103.69L99.6,103.27L103.03,105.36L106.46,104.98L109.9,105.55L113.33,104.7L116.77,107.08L120.2,106.52L123.64,107.91L127.07,107.85L130.51,109.28L133.94,109.68L137.37,109.12L140.81,109.54L144.24,111.79L147.68,112.43L151.11,111.17L154.55,111.28L157.98,112.96L161.41,113.97L164.85,111.95L168.28,114.79L171.72,116.23L175.15,115.61L178.59,115.77L182.02,118.49L185.45,117.74L188.89,117.36L192.32,119.14L195.76,121.43L199.19,119.66L206.06,119.59L209.49,120.25L216.36,121.22L219.8,122.94L223.23,121.91L226.67,122.56L233.54,123.85L236.97,123.97L254.14,126.16L257.58,126.15L267.88,127.58L271.31,129.03L278.18,128.46L281.62,129.77L285.05,130.72L288.48,130.3L291.92,130.98L295.35,130.88L298.79,130.47L302.22,132.14L305.66,133.62L309.09,132.61L326.26,135.09L329.7,136.82L333.13,136.21L336.57,136.79L340,135.67" style="vector-effect: non-scaling-stroke; fill: none; stroke: rgb(70, 20, 101); stroke-opacity: 1; stroke-width: 1px; opacity: 1;"/></g><g class="points"/><g class="text"/></g><g class="trace scatter trace432a28" style="stroke-miterlimit: 2; opacity: 1;"><g class="fills"/><g class="errorbars"/><g class="lines"><path class="js-line" d="M0,135.44L48.08,130.85L51.52,130.57L109.9,125.11L113.33,124.75L147.68,121.54L151.11,121.24L340,103.52" style="vector-effect: non-scaling-stroke; fill: none; stroke: rgb(71, 26, 107); stroke-opacity: 1; stroke-width: 1px; opacity: 1;"/></g><g class="points"/><g class="text"/></g><g class="trace scatter tracef938df" style="stroke-miterlimit: 2; opacity: 1;"><g class="fills"/><g class="errorbars"/><g class="lines"><path class="js-line" d="M0,152.59L6.87,152.4L10.3,151.11L37.78,147.21L41.21,145.45L44.65,145.86L48.08,144.92L58.38,143.76L61.82,142.09L65.25,142.86L68.69,141.57L103.03,136.43L106.46,135.08L113.33,134.09L116.77,134.46L120.2,132.88L123.64,132.37L127.07,131.49L130.51,131.5L133.94,129.24L137.37,129.68L140.81,129.79L144.24,128.91L151.11,127.24L154.55,125.55L157.98,126.42L161.41,125.98L164.85,124.52L168.28,125.23L171.72,123.38L175.15,123.65L178.59,122.24L182.02,122.79L188.89,120.23L192.32,121.64L199.19,119.04L202.63,117.95L209.49,117.12L212.93,116.16L219.8,115.28L223.23,114.18L230.1,113.38L233.54,112.4L254.14,108.85L257.58,107.94L261.01,107.67L264.44,106.62L267.88,105.89L271.31,106.03L278.18,103.78L281.62,103.82L288.48,102.29L291.92,102.13L302.22,99.68L305.66,99.25L336.57,93.2L340,93.15" style="vector-effect: non-scaling-stroke; fill: none; stroke: rgb(71, 32, 113); stroke-opacity: 1; stroke-width: 1px; opacity: 1;"/></g><g class="points"/><g class="text"/></g><g class="trace scatter trace385324" style="stroke-miterlimit: 2; opacity: 1;"><g class="fills"/><g class="errorbars"/><g class="lines"><path class="js-line" d="M0,257.22L3.43,258.4L6.87,256.65L13.74,246.66L17.17,249.14L24.04,245.17L27.47,241.79L30.91,242.4L34.34,233.64L37.78,236.12L41.21,233.83L48.08,227.92L51.52,227.67L58.38,226.04L61.82,216.95L65.25,219.49L68.69,215L72.12,215.82L75.56,213.15L78.99,212.06L82.42,208.86L89.29,203.39L92.73,203.62L96.16,201.45L99.6,200.8L103.03,196.71L106.46,197.27L113.33,191.73L116.77,193.21L123.64,188.68L127.07,184.78L130.51,184.58L133.94,182.53L140.81,181.55L144.24,174.43L147.68,179.72L151.11,171.86L154.55,174.82L157.98,169.96L161.41,173.47L164.85,162.05L168.28,168.74L171.72,164.47L175.15,162.76L178.59,164.01L182.02,162.42L185.45,162.57L188.89,155.83L192.32,163.2L195.76,164.77L199.19,157.11L202.63,152.09L206.06,150.63L209.49,151.02L212.93,148.48L216.36,146.33L219.8,147.26L223.23,146.18L226.67,142.42L230.1,143.88L233.54,142.58L236.97,139.97L240.4,138.93L243.84,139.31L247.27,134.95L250.71,135.49L254.14,132.53L257.58,134.73L261.01,131.47L264.44,130.83L267.88,127.54L271.31,129.41L274.75,125.01L278.18,123.52L281.62,122.99L285.05,124.36L288.48,122.08L291.92,122.61L295.35,119.83L298.79,117.52L302.22,117.24L305.66,117.85L309.09,114.5L315.96,113.73L319.39,112.42L326.26,109.7L329.7,109.88L333.13,106.99L336.57,105.75L340,105.25" style="vector-effect: non-scaling-stroke; fill: none; stroke: rgb(72, 39, 119); stroke-opacity: 1; stroke-width: 1px; opacity: 1;"/></g><g class="points"/><g class="text"/></g><g class="trace scatter trace8ef1b4" style="stroke-miterlimit: 2; opacity: 1;"><g class="fills"/><g class="errorbars"/><g class="lines"><path class="js-line" d="M0,26.83L3.43,29.9L6.87,29.55L10.3,32.73L13.74,34.28L17.17,35.12L20.61,37.21L27.47,39.7L30.91,42.78L34.34,42.55L37.78,47.68L41.21,47.13L44.65,47.83L51.52,51.3L54.95,54.05L58.38,55.55L61.82,53.93L65.25,59.26L68.69,62.99L72.12,62.93L75.56,64.22L82.42,65.36L85.86,70.12L89.29,70.62L92.73,73.31L99.6,76.04L103.03,78.47L116.77,84.33L120.2,88.16L123.64,87.91L127.07,91.93L130.51,91.62L133.94,93.3L140.81,98.22L144.24,97.12L147.68,101.14L151.11,102.31L154.55,105.34L157.98,104.3L164.85,111.62L168.28,111.43L175.15,116.23L178.59,118.01L182.02,120.54L185.45,124.04L188.89,120.24L192.32,130.8L195.76,126.52L199.19,129.9L202.63,129.59L206.06,131.53L209.49,132.22L212.93,135.22L226.67,142.59L230.1,146.81L233.54,147.6L236.97,149.68L240.4,151.43L243.84,155.72L247.27,155.71L250.71,157.61L254.14,161.06L257.58,162.61L264.44,166.62L267.88,166.66L271.31,174.24L274.75,172.86L278.18,173.84L281.62,177.21L285.05,178.78L288.48,181.31L291.92,186.06L295.35,186.11L298.79,187.67L302.22,190.19L305.66,192.63L309.09,193.79L315.96,200.14L319.39,201.07L322.83,204.41L326.26,204.41L329.7,205.76L333.13,210.52L336.57,211.11L340,215.73" style="vector-effect: non-scaling-stroke; fill: none; stroke: rgb(71, 44, 122); stroke-opacity: 1; stroke-width: 1px; opacity: 1;"/></g><g class="points"/><g class="text"/></g><g class="trace scatter trace996ad5" style="stroke-miterlimit: 2; opacity: 1;"><g class="fills"/><g class="errorbars"/><g class="lines"><path class="js-line" d="M0,131.14L75.56,125.69L78.99,125.47L281.62,110.82L285.05,110.57L340,106.61" style="vector-effect: non-scaling-stroke; fill: none; stroke: rgb(69, 49, 125); stroke-opacity: 1; stroke-width: 1px; opacity: 1;"/></g><g class="points"/><g class="text"/></g><g class="trace scatter trace7fe9d6" style="stroke-miterlimit: 2; opacity: 1;"><g class="fills"/><g class="errorbars"/><g class="lines"><path class="js-line" d="M0,147.17L20.61,144.02L24.04,143.47L116.77,129.31L120.2,128.98L137.37,126.15L140.81,125.79L154.55,123.67L157.98,123.04L340,95.27" style="vector-effect: non-scaling-stroke; fill: none; stroke: rgb(68, 55, 128); stroke-opacity: 1; stroke-width: 1px; opacity: 1;"/></g><g class="points"/><g class="text"/></g><g class="trace scatter tracec94903" style="stroke-miterlimit: 2; opacity: 1;"><g class="fills"/><g class="errorbars"/><g class="lines"><path class="js-line" d="M0,142.11L51.52,135.56L54.95,135.1L147.68,123.29L151.11,122.85L340,98.74" style="vector-effect: non-scaling-stroke; fill: none; stroke: rgb(66, 60, 130); stroke-opacity: 1; stroke-width: 1px; opacity: 1;"/></g><g class="points"/><g class="text"/></g><g class="trace scatter trace2c648c" style="stroke-miterlimit: 2; opacity: 1;"><g class="fills"/><g class="errorbars"/><g class="lines"><path class="js-line" d="M0,163.49L41.21,154.01L44.65,153.3L58.38,150.02L61.82,149.45L82.42,144.6L85.86,144.26L92.73,142.41L96.16,141.62L295.35,95.07L298.79,94.53L319.39,89.69L322.83,88.87L340,84.9" style="vector-effect: non-scaling-stroke; fill: none; stroke: rgb(64, 65, 133); stroke-opacity: 1; stroke-width: 1px; opacity: 1;"/></g><g class="points"/><g class="text"/></g><g class="trace scatter tracec551c5" style="stroke-miterlimit: 2; opacity: 1;"><g class="fills"/><g class="errorbars"/><g class="lines"><path class="js-line" d="M0,176.96L17.17,171.23L20.61,170.97L24.04,169.61L27.47,169.09L34.34,165.77L37.78,165.52L72.12,155.55L75.56,155.01L82.42,152.68L85.86,151.59L96.16,148.98L99.6,147.61L123.64,140.81L127.07,139.55L137.37,136.91L140.81,135.71L147.68,133.71L151.11,132.69L178.59,124.94L182.02,124.56L185.45,122.52L188.89,121.66L192.32,121.84L195.76,120.38L206.06,117.18L209.49,116.05L230.1,110.4L233.54,109.31L250.71,104.25L254.14,104.05L264.44,100.65L267.88,99.73L274.75,97.78L278.18,96.69L281.62,96.33L285.05,95.08L340,79.85" style="vector-effect: non-scaling-stroke; fill: none; stroke: rgb(63, 71, 136); stroke-opacity: 1; stroke-width: 1px; opacity: 1;"/></g><g class="points"/><g class="text"/></g><g class="trace scatter tracee9186d" style="stroke-miterlimit: 2; opacity: 1;"><g class="fills"/><g class="errorbars"/><g class="lines"><path class="js-line" d="M0,163.39L10.3,161.34L13.74,160.36L27.47,157.21L30.91,156.29L48.08,152.45L51.52,151.81L61.82,149.01L65.25,148.28L68.69,147.91L72.12,146.57L92.73,141.68L96.16,141.14L120.2,135.18L123.64,134.3L130.51,133.26L133.94,132.18L147.68,129.36L151.11,127.99L161.41,125.57L164.85,125.02L178.59,121.24L182.02,120.84L192.32,118.48L195.76,118.41L202.63,116.02L206.06,115.01L233.54,108.64L236.97,107.8L250.71,104.79L254.14,104.14L261.01,102.18L264.44,101.39L298.79,93.36L302.22,92.38L312.53,90.26L315.96,89.39L340,83.65" style="vector-effect: non-scaling-stroke; fill: none; stroke: rgb(61, 76, 137); stroke-opacity: 1; stroke-width: 1px; opacity: 1;"/></g><g class="points"/><g class="text"/></g><g class="trace scatter tracea6d02b" style="stroke-miterlimit: 2; opacity: 1;"><g class="fills"/><g class="errorbars"/><g class="lines"><path class="js-line" d="M0,135.68L340,103.29" style="vector-effect: non-scaling-stroke; fill: none; stroke: rgb(59, 81, 138); stroke-opacity: 1; stroke-width: 1px; opacity: 1;"/></g><g class="points"/><g class="text"/></g><g class="trace scatter trace8fed23" style="stroke-miterlimit: 2; opacity: 1;"><g class="fills"/><g class="errorbars"/><g class="lines"><path class="js-line" d="M0,146.79L51.52,139.23L54.95,138.57L106.46,130.85L109.9,130.2L120.2,128.73L123.64,128.2L164.85,121.92L168.28,121.49L202.63,116.21L206.06,115.81L247.27,109.48L250.71,108.97L302.22,101.19L305.66,100.63L329.7,97.1L333.13,96.43L340,95.37" style="vector-effect: non-scaling-stroke; fill: none; stroke: rgb(45, 114, 142); stroke-opacity: 1; stroke-width: 1px; opacity: 1;"/></g><g class="points"/><g class="text"/></g><g class="trace scatter tracefde385" style="stroke-miterlimit: 2; opacity: 1;"><g class="fills"/><g class="errorbars"/><g class="lines"><path class="js-line" d="M0,165.35L6.87,163.23L10.3,163.38L13.74,161.78L17.17,161.72L24.04,159.61L27.47,158.74L30.91,157.47L34.34,157.29L37.78,156.07L41.21,155.7L44.65,154.28L48.08,153.78L51.52,152.08L54.95,152.25L65.25,149.43L68.69,147.56L72.12,148.69L75.56,147.35L82.42,144.64L85.86,145.12L92.73,142.84L96.16,142.21L99.6,140.92L103.03,140.71L130.51,133.32L133.94,133.32L144.24,129.93L147.68,129.58L154.55,127.21L157.98,126.84L161.41,125.08L164.85,124.97L168.28,123.88L171.72,124.37L175.15,122.67L178.59,121.84L188.89,119.18L192.32,118.43L216.36,112.07L219.8,111.38L236.97,106.99L240.4,106.51L250.71,103.48L254.14,102.76L264.44,100.16L267.88,99.15L281.62,96.04L285.05,95.02L298.79,91.43L302.22,90.49L315.96,87.52L319.39,86.69L326.26,83.83L329.7,83.6L333.13,83.26L336.57,81.68L340,81.14" style="vector-effect: non-scaling-stroke; fill: none; stroke: rgb(43, 118, 142); stroke-opacity: 1; stroke-width: 1px; opacity: 1;"/></g><g class="points"/><g class="text"/></g><g class="trace scatter trace9d28e1" style="stroke-miterlimit: 2; opacity: 1;"><g class="fills"/><g class="errorbars"/><g class="lines"><path class="js-line" d="M0,91.96L3.43,94.56L6.87,94.38L10.3,94.34L13.74,95.31L27.47,97.12L30.91,99.14L34.34,95.64L37.78,99.25L41.21,97.74L44.65,99.13L48.08,101.86L51.52,99.44L54.95,102.37L58.38,101.81L61.82,100.65L65.25,103.25L68.69,101.62L72.12,103.75L78.99,105.31L82.42,105.48L85.86,105.38L89.29,106.46L92.73,107.08L96.16,106.86L103.03,108.77L106.46,108.44L109.9,109.83L113.33,109.04L116.77,110.64L120.2,110.6L123.64,111.59L127.07,110.39L130.51,111.98L133.94,109.3L137.37,113.32L140.81,112.52L147.68,113.7L151.11,114.66L154.55,113.79L157.98,114.16L161.41,114.17L164.85,112.33L168.28,115.65L171.72,114.91L175.15,115.25L178.59,116.35L182.02,117.7L185.45,117.08L188.89,117.44L192.32,120.86L202.63,119.47L206.06,119.56L209.49,120.53L212.93,120.39L216.36,120.28L219.8,122.57L223.23,121.05L226.67,121.46L230.1,122.57L233.54,122.2L236.97,119.76L240.4,122.9L243.84,123.57L247.27,123.05L254.14,123.76L257.58,125.12L261.01,126.75L264.44,125.93L267.88,124.85L271.31,126.86L274.75,125.66L278.18,126.1L281.62,126.4L285.05,125.85L295.35,128.47L298.79,127.94L302.22,128.13L305.66,129.51L309.09,128.33L312.53,128.37L319.39,129.08L322.83,128.81L326.26,130.49L329.7,130.5L336.57,131.08L340,128.8" style="vector-effect: non-scaling-stroke; fill: none; stroke: rgb(41, 122, 142); stroke-opacity: 1; stroke-width: 1px; opacity: 1;"/></g><g class="points"/><g class="text"/></g><g class="trace scatter trace323ad7" style="stroke-miterlimit: 2; opacity: 1;"><g class="fills"/><g class="errorbars"/><g class="lines"><path class="js-line" d="M0,135.34L65.25,129.23L68.69,128.97L106.46,125.37L109.9,125.04L171.72,119.29L175.15,118.94L209.49,115.76L212.93,115.42L333.13,104.21L336.57,103.84L340,103.6" style="vector-effect: non-scaling-stroke; fill: none; stroke: rgb(40, 126, 142); stroke-opacity: 1; stroke-width: 1px; opacity: 1;"/></g><g class="points"/><g class="text"/></g><g class="trace scatter trace6ac297" style="stroke-miterlimit: 2; opacity: 1;"><g class="fills"/><g class="errorbars"/><g class="lines"><path class="js-line" d="M0,155.01L3.43,155.67L6.87,154.93L10.3,153.61L13.74,153.28L20.61,151.93L24.04,151.66L34.34,149.44L37.78,149.23L54.95,146.06L58.38,144.82L61.82,143.59L65.25,144.45L68.69,143.16L72.12,143.23L78.99,141.04L82.42,140.9L130.51,132.35L133.94,130.71L144.24,129.45L147.68,128.67L151.11,127.46L154.55,127.88L157.98,126.46L161.41,125.91L164.85,125.15L168.28,125.4L171.72,123.88L175.15,123.67L178.59,122.38L182.02,122.79L185.45,120.79L188.89,120.68L195.76,121.04L199.19,118.98L206.06,117.22L209.49,117.27L216.36,115.76L219.8,114.93L236.97,111.25L240.4,111.02L247.27,109.44L250.71,109.1L267.88,105.33L271.31,105.41L274.75,103.91L278.18,103.41L298.79,99.21L302.22,98.34L305.66,98.24L309.09,97.03L322.83,94.22L326.26,93.34L340,91.27" style="vector-effect: non-scaling-stroke; fill: none; stroke: rgb(38, 130, 142); stroke-opacity: 1; stroke-width: 1px; opacity: 1;"/></g><g class="points"/><g class="text"/></g><g class="trace scatter trace0c4d2f" style="stroke-miterlimit: 2; opacity: 1;"><g class="fills"/><g class="errorbars"/><g class="lines"><path class="js-line" d="M0,242.36L3.43,241.63L6.87,239.51L10.3,239.51L13.74,234.37L17.17,235.49L20.61,232.39L27.47,228.04L30.91,228.02L34.34,222.32L37.78,222.98L44.65,219.58L48.08,219.03L51.52,214.25L54.95,214.27L58.38,212.56L61.82,207.57L65.25,207.53L68.69,204.41L72.12,205.42L75.56,200.28L78.99,204.18L82.42,197.78L85.86,197.78L89.29,194.38L92.73,195.15L96.16,191.1L103.03,188.78L106.46,186.32L113.33,182.93L116.77,182.36L123.64,175.6L127.07,176.66L130.51,173.95L133.94,172.73L137.37,168.97L140.81,169.21L144.24,166.59L147.68,166.85L151.11,162.49L154.55,162.46L157.98,159.83L161.41,159.14L164.85,154.51L168.28,155.68L171.72,155.13L175.15,152.79L182.02,149.47L185.45,148.11L188.89,143.7L192.32,149.89L195.76,149.84L199.19,142.55L202.63,138.67L206.06,137.77L209.49,136.92L212.93,134.4L216.36,132.81L219.8,132.85L223.23,129.97L226.67,128.58L230.1,129.04L233.54,126.35L236.97,125.63L240.4,123.11L243.84,123.01L247.27,119.83L250.71,118.23L254.14,119.14L257.58,116.44L261.01,115.71L267.88,111.11L271.31,111.93L274.75,108.58L278.18,106.52L281.62,107.71L285.05,104.76L288.48,105.06L291.92,102.93L295.35,102.31L298.79,98.36L302.22,99.22L305.66,97.97L312.53,93.94L315.96,93.26L319.39,92.39L322.83,90.64L329.7,89.03L333.13,87.57L336.57,85.42L340,85.6" style="vector-effect: non-scaling-stroke; fill: none; stroke: rgb(37, 135, 141); stroke-opacity: 1; stroke-width: 1px; opacity: 1;"/></g><g class="points"/><g class="text"/></g><g class="trace scatter trace310fc7" style="stroke-miterlimit: 2; opacity: 1;"><g class="fills"/><g class="errorbars"/><g class="lines"><path class="js-line" d="M0,34.22L3.43,37.71L6.87,37.95L10.3,39.52L13.74,42.05L17.17,41.87L20.61,44.67L24.04,47.87L27.47,49.44L34.34,48.58L37.78,51.84L41.21,51.86L44.65,55.14L48.08,55.87L51.52,57.85L58.38,61.99L61.82,60.23L65.25,66.49L68.69,63.25L72.12,68.06L75.56,67.69L78.99,70.62L82.42,72.05L85.86,75.51L89.29,75.73L92.73,75.63L96.16,78.72L106.46,82.41L109.9,83.59L116.77,87.92L120.2,89.55L127.07,92.99L130.51,92.98L133.94,97.37L137.37,96.49L140.81,96.58L144.24,99.8L147.68,103.1L151.11,100.94L154.55,106.63L157.98,104.44L161.41,109.02L164.85,108.85L171.72,113.81L175.15,114.41L178.59,118.63L182.02,119.53L185.45,122.03L188.89,121.01L192.32,125.18L195.76,127.17L199.19,127.67L202.63,126.01L206.06,128.96L209.49,129.56L212.93,130.85L216.36,133.67L219.8,136.28L223.23,136.92L226.67,139.87L230.1,140.57L243.84,147.4L247.27,149.03L250.71,150.53L254.14,153.92L257.58,154.52L261.01,156.33L264.44,157.95L267.88,158.3L271.31,162.89L274.75,161.98L278.18,163.04L281.62,166.48L288.48,170.67L291.92,172.65L295.35,174.05L298.79,174.64L302.22,178.61L305.66,180.1L309.09,180.27L312.53,182.08L315.96,185.03L319.39,185.5L322.83,188.67L326.26,189.82L329.7,192.31L333.13,192.67L336.57,193.41L340,196.75" style="vector-effect: non-scaling-stroke; fill: none; stroke: rgb(36, 140, 140); stroke-opacity: 1; stroke-width: 1px; opacity: 1;"/></g><g class="points"/><g class="text"/></g><g class="trace scatter traceaa2f07" style="stroke-miterlimit: 2; opacity: 1;"><g class="fills"/><g class="errorbars"/><g class="lines"><path class="js-line" d="M0,131.11L48.08,127.63L51.52,127.39L154.55,120L157.98,119.78L199.19,116.78L202.63,116.51L340,106.68" style="vector-effect: non-scaling-stroke; fill: none; stroke: rgb(34, 144, 140); stroke-opacity: 1; stroke-width: 1px; opacity: 1;"/></g><g class="points"/><g class="text"/></g><g class="trace scatter trace20642a" style="stroke-miterlimit: 2; opacity: 1;"><g class="fills"/><g class="errorbars"/><g class="lines"><path class="js-line" d="M0,147.05L250.71,108.93L254.14,108.5L278.18,104.63L281.62,104.28L315.96,99.01L319.39,98.47L340,95.26" style="vector-effect: non-scaling-stroke; fill: none; stroke: rgb(33, 148, 139); stroke-opacity: 1; stroke-width: 1px; opacity: 1;"/></g><g class="points"/><g class="text"/></g><g class="trace scatter trace96ca23" style="stroke-miterlimit: 2; opacity: 1;"><g class="fills"/><g class="errorbars"/><g class="lines"><path class="js-line" d="M0,142.34L216.36,114.53L219.8,114.03L254.14,109.75L257.58,109.21L340,98.54" style="vector-effect: non-scaling-stroke; fill: none; stroke: rgb(32, 153, 138); stroke-opacity: 1; stroke-width: 1px; opacity: 1;"/></g><g class="points"/><g class="text"/></g><g class="trace scatter tracecfa7fd" style="stroke-miterlimit: 2; opacity: 1;"><g class="fills"/><g class="errorbars"/><g class="lines"><path class="js-line" d="M0,163.5L44.65,153.12L48.08,152.52L58.38,149.86L61.82,149.07L82.42,144.56L85.86,143.46L96.16,141.24L99.6,140.31L116.77,136.74L120.2,135.42L154.55,128.02L157.98,127.04L175.15,123.36L178.59,122.2L185.45,120.66L188.89,120.1L202.63,116.65L206.06,115.82L340,85.3" style="vector-effect: non-scaling-stroke; fill: none; stroke: rgb(31, 158, 137); stroke-opacity: 1; stroke-width: 1px; opacity: 1;"/></g><g class="points"/><g class="text"/></g><g class="trace scatter trace51f40d" style="stroke-miterlimit: 2; opacity: 1;"><g class="fills"/><g class="errorbars"/><g class="lines"><path class="js-line" d="M0,180.02L3.43,178.54L6.87,177.91L10.3,177L13.74,174.82L17.17,174.67L20.61,173.55L24.04,172.14L27.47,172.09L30.91,169.67L34.34,170.05L37.78,168.08L41.21,167.27L44.65,166.28L48.08,164.3L54.95,162.84L58.38,161.69L61.82,161.38L65.25,159.59L68.69,159.17L72.12,157.4L82.42,154.17L85.86,153.22L96.16,150.3L99.6,149.44L103.03,149.01L106.46,147.4L116.77,144.02L120.2,142.77L123.64,142.78L127.07,141.04L137.37,138.12L140.81,137.15L161.41,131.41L164.85,128.79L168.28,129.2L171.72,128.39L175.15,126.68L178.59,126.42L185.45,123.55L188.89,122.59L195.76,121.4L199.19,119.55L209.49,117.06L212.93,115.11L216.36,114.99L219.8,113.4L233.54,109.47L236.97,108.6L319.39,84.95L322.83,84.4L326.26,83.01L329.7,82.43L336.57,79.94L340,79.37" style="vector-effect: non-scaling-stroke; fill: none; stroke: rgb(34, 162, 135); stroke-opacity: 1; stroke-width: 1px; opacity: 1;"/></g><g class="points"/><g class="text"/></g><g class="trace scatter trace51bdf1" style="stroke-miterlimit: 2; opacity: 1;"><g class="fills"/><g class="errorbars"/><g class="lines"><path class="js-line" d="M0,162.68L3.43,162.84L6.87,161.93L10.3,161.51L13.74,160.16L82.42,144.02L85.86,143.54L92.73,141.54L96.16,140.94L133.94,132.13L137.37,131.05L147.68,129.05L151.11,128.1L168.28,123.76L171.72,123.67L175.15,121.95L178.59,121.63L188.89,119.2L192.32,119.07L212.93,113.33L216.36,112.81L233.54,108.67L236.97,107.8L261.01,102.47L264.44,101.2L312.53,89.98L315.96,89.11L333.13,85.25L336.57,84.41L340,83.81" style="vector-effect: non-scaling-stroke; fill: none; stroke: rgb(38, 166, 132); stroke-opacity: 1; stroke-width: 1px; opacity: 1;"/></g><g class="points"/><g class="text"/></g><g class="trace scatter trace477b7c" style="stroke-miterlimit: 2; opacity: 1;"><g class="fills"/><g class="errorbars"/><g class="lines"><path class="js-line" d="M0,135.7L340,103.27" style="vector-effect: non-scaling-stroke; fill: none; stroke: rgb(41, 170, 130); stroke-opacity: 1; stroke-width: 1px; opacity: 1;"/></g><g class="points"/><g class="text"/></g><g class="trace scatter trace24ba45" style="stroke-miterlimit: 2; opacity: 1;"><g class="fills"/><g class="errorbars"/><g class="lines"><path class="js-line" d="M0,152L17.17,148.86L20.61,148.33L65.25,140.43L68.69,139.85L340,92.1" style="vector-effect: non-scaling-stroke; fill: none; stroke: rgb(45, 174, 127); stroke-opacity: 1; stroke-width: 1px; opacity: 1;"/></g><g class="points"/><g class="text"/></g><g class="trace scatter trace1764b3" style="stroke-miterlimit: 2; opacity: 1;"><g class="fills"/><g class="errorbars"/><g class="lines"><path class="js-line" d="M0,164.57L27.47,157.84L30.91,157.2L34.34,155.66L37.78,156.01L44.65,153.46L48.08,153.36L51.52,151.73L54.95,151.43L61.82,149.98L65.25,148.72L78.99,145.39L82.42,144.99L89.29,142.72L92.73,142.06L109.9,138.03L113.33,137.31L120.2,135.48L123.64,134.29L133.94,132.63L137.37,131.38L144.24,129.8L147.68,129.03L151.11,127.8L154.55,127.46L164.85,124.49L168.28,124.03L175.15,121.84L178.59,121.51L188.89,119.02L192.32,118.43L195.76,118.53L199.19,116.69L209.49,113.96L212.93,113.7L223.23,110.49L226.67,109.9L243.84,105.13L247.27,104.8L302.22,91.03L305.66,90.64L312.53,88.82L315.96,87.8L329.7,84.48L333.13,83.62L340,82.03" style="vector-effect: non-scaling-stroke; fill: none; stroke: rgb(96, 200, 96); stroke-opacity: 1; stroke-width: 1px; opacity: 1;"/></g><g class="points"/><g class="text"/></g><g class="trace scatter trace8ec49a" style="stroke-miterlimit: 2; opacity: 1;"><g class="fills"/><g class="errorbars"/><g class="lines"><path class="js-line" d="M0,93.77L10.3,95.52L13.74,95.16L17.17,97.22L20.61,97.33L27.47,98.64L30.91,98.17L34.34,97.67L37.78,99.46L41.21,101.09L44.65,99.56L54.95,102.09L58.38,103.13L61.82,101.47L65.25,103.75L68.69,103.91L72.12,105.01L75.56,105.2L78.99,104.6L82.42,106.3L85.86,106.28L92.73,107.02L96.16,108.23L99.6,108L103.03,109.2L113.33,108.52L116.77,110.93L120.2,110.58L123.64,111.43L127.07,110.96L130.51,112.58L133.94,112.24L137.37,112.77L140.81,111.75L144.24,113.8L154.55,114.15L157.98,115.7L161.41,115.28L164.85,113.85L168.28,116.61L171.72,116.11L178.59,116.98L182.02,118.8L185.45,118.91L188.89,117.77L192.32,120.2L195.76,121.59L199.19,119.62L202.63,119.69L206.06,119.81L209.49,120.71L212.93,120L216.36,121.14L219.8,122.06L223.23,120.45L226.67,121.41L230.1,123.31L233.54,122.68L236.97,123.53L240.4,123.02L243.84,123.44L250.71,123.46L254.14,124.1L261.01,125.11L264.44,125.2L271.31,126.52L274.75,125.64L278.18,126.41L281.62,126.41L288.48,125.89L291.92,127.61L298.79,127.61L302.22,127.79L305.66,129.33L309.09,128.38L315.96,129.49L319.39,131.33L322.83,128.83L326.26,130.28L333.13,129.6L336.57,131.32L340,131.38" style="vector-effect: non-scaling-stroke; fill: none; stroke: rgb(105, 204, 91); stroke-opacity: 1; stroke-width: 1px; opacity: 1;"/></g><g class="points"/><g class="text"/></g><g class="trace scatter traceebd63d" style="stroke-miterlimit: 2; opacity: 1;"><g class="fills"/><g class="errorbars"/><g class="lines"><path class="js-line" d="M0,135.2L51.52,130.39L54.95,130.05L127.07,123.44L130.51,123.1L333.13,104.3L336.57,104.03L340,103.67" style="vector-effect: non-scaling-stroke; fill: none; stroke: rgb(115, 207, 85); stroke-opacity: 1; stroke-width: 1px; opacity: 1;"/></g><g class="points"/><g class="text"/></g><g class="trace scatter traceaf5757" style="stroke-miterlimit: 2; opacity: 1;"><g class="fills"/><g class="errorbars"/><g class="lines"><path class="js-line" d="M0,152.99L6.87,152.7L10.3,151.59L44.65,146.04L48.08,144.49L51.52,145.08L54.95,144.44L61.82,142.4L65.25,142.89L68.69,141.64L72.12,141.38L75.56,140.86L78.99,139.48L82.42,139.79L85.86,139.17L89.29,138.04L92.73,137.87L106.46,135.35L109.9,134.29L116.77,133.97L120.2,133.04L127.07,130.97L130.51,131.19L133.94,130.43L137.37,130.95L140.81,127.89L144.24,129.31L151.11,127.4L154.55,127.1L161.41,125.4L164.85,125.2L171.72,123.75L175.15,123.77L178.59,121.7L182.02,122.5L188.89,120.29L192.32,120.55L219.8,114.6L223.23,114.21L261.01,106.94L264.44,107.12L291.92,101.52L295.35,100.87L305.66,99.24L309.09,98.18L319.39,95.9L322.83,95.16L340,92.25" style="vector-effect: non-scaling-stroke; fill: none; stroke: rgb(126, 210, 78); stroke-opacity: 1; stroke-width: 1px; opacity: 1;"/></g><g class="points"/><g class="text"/></g><g class="trace scatter traced32b89" style="stroke-miterlimit: 2; opacity: 1;"><g class="fills"/><g class="errorbars"/><g class="lines"><path class="js-line" d="M0,222.21L3.43,220.82L6.87,218.17L10.3,217.71L13.74,214.5L17.17,214.42L20.61,212.07L24.04,210.2L27.47,207.18L30.91,207.66L34.34,206.39L37.78,203.71L41.21,202.8L51.52,197.76L54.95,195.16L58.38,194.12L61.82,191.21L68.69,189.1L72.12,187.84L75.56,186.65L78.99,184.12L92.73,178.2L96.16,176.76L103.03,173.76L106.46,171.91L113.33,167.85L116.77,167.33L120.2,164.8L123.64,164.61L133.94,160.01L137.37,157.29L140.81,154.61L144.24,153.94L147.68,153.55L151.11,152.24L157.98,146.67L161.41,146.63L164.85,146.29L168.28,143.7L171.72,141.56L175.15,140.38L178.59,141.11L182.02,137.85L188.89,133.94L192.32,134.87L195.76,133.67L199.19,130.43L202.63,127.84L206.06,127.38L212.93,123.46L216.36,123.5L219.8,120.14L223.23,120.22L226.67,117.47L230.1,118.31L233.54,114.64L236.97,113.95L240.4,112.27L243.84,111.76L250.71,107.86L254.14,107.16L261.01,104.41L264.44,102.6L267.88,101.12L271.31,100.68L274.75,97.4L278.18,96.96L285.05,95.01L288.48,92.92L291.92,92.33L295.35,88.93L298.79,88.71L302.22,87.7L305.66,86.85L309.09,83.82L312.53,84.48L315.96,82L326.26,78.08L329.7,77.88L333.13,73.49L336.57,74.04L340,73.19" style="vector-effect: non-scaling-stroke; fill: none; stroke: rgb(138, 212, 70); stroke-opacity: 1; stroke-width: 1px; opacity: 1;"/></g><g class="points"/><g class="text"/></g><g class="trace scatter trace101ab7" style="stroke-miterlimit: 2; opacity: 1;"><g class="fills"/><g class="errorbars"/><g class="lines"><path class="js-line" d="M0,13.6L3.43,18.01L6.87,20.91L10.3,21.71L13.74,24L20.61,26.4L24.04,29.72L27.47,30.95L30.91,33.96L34.34,32.78L37.78,36.47L41.21,37.1L44.65,41.08L48.08,40.94L51.52,45.2L54.95,46.57L58.38,49.33L61.82,48L65.25,53.01L68.69,52.27L72.12,56.23L75.56,56.97L78.99,60.56L82.42,61.81L85.86,64.52L89.29,64.99L92.73,66.59L103.03,74.4L106.46,75.87L109.9,78.96L113.33,78.3L116.77,82.15L120.2,83.79L123.64,84.82L127.07,88.76L130.51,89.05L133.94,91.62L137.37,91.18L140.81,99.6L144.24,95.84L147.68,102.36L151.11,98.2L154.55,105.33L157.98,103.72L161.41,108.81L164.85,108.36L168.28,113.97L171.72,115L175.15,117.19L182.02,123.31L185.45,123.37L188.89,123.96L192.32,133.26L195.76,138.76L199.19,135.35L202.63,134.85L206.06,135.33L212.93,141.5L216.36,142.26L223.23,148.3L226.67,149.63L230.1,154.1L233.54,155.61L240.4,161.01L243.84,164.38L247.27,165.32L250.71,168.97L254.14,172.17L257.58,173.93L264.44,178.58L267.88,180.84L271.31,187.96L274.75,186.08L281.62,191.12L285.05,194.98L291.92,201.56L295.35,202.99L302.22,207.66L305.66,213.99L309.09,213.08L312.53,217.36L319.39,224.18L322.83,224.53L326.26,228.96L329.7,232L336.57,234.69L340,242.53" style="vector-effect: non-scaling-stroke; fill: none; stroke: rgb(149, 215, 63); stroke-opacity: 1; stroke-width: 1px; opacity: 1;"/></g><g class="points"/><g class="text"/></g><g class="trace scatter trace4c4a66" style="stroke-miterlimit: 2; opacity: 1;"><g class="fills"/><g class="errorbars"/><g class="lines"><path class="js-line" d="M0,131.01L340,106.7" style="vector-effect: non-scaling-stroke; fill: none; stroke: rgb(161, 217, 56); stroke-opacity: 1; stroke-width: 1px; opacity: 1;"/></g><g class="points"/><g class="text"/></g><g class="trace scatter tracec75883" style="stroke-miterlimit: 2; opacity: 1;"><g class="fills"/><g class="errorbars"/><g class="lines"><path class="js-line" d="M0,147.65L85.86,134.34L89.29,133.88L113.33,129.97L116.77,129.78L168.28,121.62L171.72,121.17L188.89,118.36L192.32,117.89L240.4,110.35L243.84,109.9L257.58,107.78L261.01,107.19L340,94.81" style="vector-effect: non-scaling-stroke; fill: none; stroke: rgb(172, 220, 49); stroke-opacity: 1; stroke-width: 1px; opacity: 1;"/></g><g class="points"/><g class="text"/></g><g class="trace scatter tracef91389" style="stroke-miterlimit: 2; opacity: 1;"><g class="fills"/><g class="errorbars"/><g class="lines"><path class="js-line" d="M0,142.27L61.82,134.28L65.25,133.91L188.89,118.06L192.32,117.61L309.09,102.71L312.53,102.12L340,98.68" style="vector-effect: non-scaling-stroke; fill: none; stroke: rgb(184, 222, 43); stroke-opacity: 1; stroke-width: 1px; opacity: 1;"/></g><g class="points"/><g class="text"/></g><g class="trace scatter tracedfed1a" style="stroke-miterlimit: 2; opacity: 1;"><g class="fills"/><g class="errorbars"/><g class="lines"><path class="js-line" d="M0,163.8L120.2,135.89L123.64,135.52L133.94,132.62L137.37,132.17L171.72,124.07L175.15,123.01L295.35,95.25L298.79,94.22L309.09,91.94L312.53,91.2L340,84.94" style="vector-effect: non-scaling-stroke; fill: none; stroke: rgb(195, 224, 42); stroke-opacity: 1; stroke-width: 1px; opacity: 1;"/></g><g class="points"/><g class="text"/></g><g class="trace scatter tracefd5cda" style="stroke-miterlimit: 2; opacity: 1;"><g class="fills"/><g class="errorbars"/><g class="lines"><path class="js-line" d="M0,175.32L78.99,152.54L82.42,152.07L85.86,150.48L89.29,150.25L96.16,147.88L99.6,146.93L106.46,144.97L109.9,143.53L116.77,142.07L120.2,140.79L130.51,138.18L133.94,136.87L137.37,136.69L140.81,134.93L144.24,134.63L147.68,133.09L151.11,132.69L154.55,130.61L157.98,130.89L161.41,128.97L171.72,127.13L175.15,124.88L178.59,125.08L182.02,123.94L188.89,121.75L192.32,120.95L199.19,118.92L202.63,117.79L223.23,112.24L226.67,111.07L233.54,109.47L236.97,108.5L261.01,101.82L264.44,100.57L267.88,100.14L271.31,98.91L326.26,84.05L329.7,83.44L336.57,81.28L340,80.37" style="vector-effect: non-scaling-stroke; fill: none; stroke: rgb(207, 225, 41); stroke-opacity: 1; stroke-width: 1px; opacity: 1;"/></g><g class="points"/><g class="text"/></g><g class="trace scatter tracec2e859" style="stroke-miterlimit: 2; opacity: 1;"><g class="fills"/><g class="errorbars"/><g class="lines"><path class="js-line" d="M0,163.92L20.61,158.43L24.04,158.46L27.47,156.91L30.91,156.4L41.21,153.83L44.65,153.04L61.82,149.18L65.25,148L72.12,146.66L75.56,145.51L78.99,145.25L82.42,144.11L85.86,143.02L89.29,142.91L106.46,138.38L109.9,137.74L123.64,134.78L127.07,133.77L171.72,123.51L175.15,122.93L182.02,120.77L185.45,119.97L199.19,116.95L202.63,115.97L209.49,114.35L212.93,113.26L219.8,111.84L223.23,110.92L247.27,105.49L250.71,104.67L261.01,102.37L264.44,101.34L298.79,93.42L302.22,92.36L312.53,90.18L315.96,89.29L326.26,87.03L329.7,85.98L340,83.54" style="vector-effect: non-scaling-stroke; fill: none; stroke: rgb(218, 227, 40); stroke-opacity: 1; stroke-width: 1px; opacity: 1;"/></g><g class="points"/><g class="text"/></g><g class="trace scatter trace493b9c" style="stroke-miterlimit: 2; opacity: 1;"><g class="fills"/><g class="errorbars"/><g class="lines"><path class="js-line" d="M0,135.63L340,103.33" style="vector-effect: non-scaling-stroke; fill: none; stroke: rgb(230, 228, 39); stroke-opacity: 1; stroke-width: 1px; opacity: 1;"/></g><g class="points"/><g class="text"/></g><g class="trace scatter traceab8bf7" style="stroke-miterlimit: 2; opacity: 1;"><g class="fills"/><g class="errorbars"/><g class="lines"><path class="js-line" d="M0,151.65L17.17,148.51L20.61,147.9L54.95,141.96L58.38,141.3L65.25,140.18L68.69,139.54L103.03,133.76L106.46,132.9L130.51,128.92L133.94,128.2L192.32,118.09L195.76,117.52L257.58,106.56L261.01,106.15L305.66,98.23L309.09,97.68L340,92.32" style="vector-effect: non-scaling-stroke; fill: none; stroke: rgb(241, 230, 38); stroke-opacity: 1; stroke-width: 1px; opacity: 1;"/></g><g class="points"/><g class="text"/></g><g class="trace scatter trace16e005" style="stroke-miterlimit: 2; opacity: 1;"><g class="fills"/><g class="errorbars"/><g class="lines"><path class="js-line" d="M0,65.6L3.43,67.22L6.87,69.94L10.3,67.99L13.74,70.99L17.17,69.83L20.61,72.05L27.47,74.29L30.91,74.31L34.34,74.8L37.78,77.25L41.21,77.36L44.65,79L48.08,78.79L51.52,81.3L54.95,82.04L58.38,83.86L65.25,84.88L68.69,86L72.12,85.63L75.56,86.82L78.99,87.6L82.42,90.7L85.86,87.49L89.29,93.09L92.73,91.68L96.16,93.71L99.6,93.78L103.03,95.87L106.46,95.66L109.9,97.11L113.33,97.52L116.77,98.72L120.2,101.19L123.64,99.31L127.07,102.46L130.51,101.59L133.94,102.42L137.37,105.26L140.81,107.45L144.24,104.94L147.68,106.97L151.11,107.64L154.55,109.54L157.98,109.07L161.41,110.95L164.85,110.36L171.72,114.88L175.15,113.92L178.59,116.74L182.02,116.53L188.89,117.42L192.32,119.91L195.76,121.51L199.19,120.3L206.06,120.78L209.49,122.61L212.93,122.91L216.36,124.19L219.8,124.73L223.23,126.88L226.67,126.13L230.1,128.59L233.54,130.32L236.97,130.25L240.4,130.48L243.84,131.8L247.27,132.69L250.71,132.59L254.14,134.58L257.58,135.67L261.01,135.54L264.44,136.44L267.88,137.01L271.31,139.28L278.18,139.64L281.62,141.39L291.92,144.43L295.35,144.16L298.79,145.99L302.22,145.89L305.66,149.01L309.09,147.87L319.39,150.65L322.83,150.59L329.7,153.67L333.13,153.4L340,156.09" style="vector-effect: non-scaling-stroke; fill: none; stroke: rgb(253, 231, 37); stroke-opacity: 1; stroke-width: 1px; opacity: 1;"/></g><g class="points"/><g class="text"/></g><g class="trace scatter trace7504d8" style="stroke-miterlimit: 2; opacity: 1;"><g class="fills"/><g class="errorbars"/><g class="lines"><path class="js-line" d="M0,170.63L3.43,171.04L6.87,170.4L10.3,168.89L13.74,168.86L20.61,167.47L24.04,167.31L30.91,166.27L34.34,165.37L44.65,163.99L48.08,163.17L51.52,163.34L54.95,162.36L65.25,160.87L68.69,159.2L72.12,160.18L75.56,159.39L78.99,158.3L82.42,158.39L85.86,158.3L89.29,156.9L99.6,155.41L103.03,154.93L106.46,153.74L109.9,154.14L113.33,153.09L116.77,152.92L120.2,151.46L123.64,151.69L127.07,150.38L130.51,150.69L133.94,149.46L137.37,149.71L151.11,147.27L154.55,145.19L157.98,146.58L161.41,145.39L164.85,143.67L168.28,144.65L171.72,144.18L175.15,142.91L178.59,142.53L182.02,142.96L188.89,140.25L192.32,142.18L199.19,140.01L202.63,138.58L226.67,135.12L230.1,134.82L254.14,131.35L257.58,130.79L261.01,130.53L264.44,129.4L267.88,128.61L271.31,129.2L278.18,127.32L281.62,126.8L295.35,125.3L298.79,124.78L326.26,120.41L329.7,120.24L340,118.75" style="vector-effect: non-scaling-stroke; fill: none; stroke: rgb(169, 169, 169); stroke-opacity: 1; stroke-width: 2px; opacity: 1;"/></g><g class="points"/><g class="text"/></g></g></g><g class="overplot"/><path class="xlines-above crisp" d="M0,0" style="fill: none;"/><path class="ylines-above crisp" d="M0,0" style="fill: none;"/><g class="overlines-above"/><g class="xaxislayer-above"><g class="x3tick"><text text-anchor="middle" x="0" y="1133" transform="translate(132.31,0)" style="font-family: 'Open Sans', verdana, arial, sans-serif; font-size: 12px; fill: rgb(42, 63, 95); fill-opacity: 1; white-space: pre; opacity: 1;">2.45</text></g><g class="x3tick"><text text-anchor="middle" x="0" y="1133" style="font-family: 'Open Sans', verdana, arial, sans-serif; font-size: 12px; fill: rgb(42, 63, 95); fill-opacity: 1; white-space: pre; opacity: 1;" transform="translate(263.08000000000004,0)">2.5</text></g><g class="x3tick"><text text-anchor="middle" x="0" y="1133" style="font-family: 'Open Sans', verdana, arial, sans-serif; font-size: 12px; fill: rgb(42, 63, 95); fill-opacity: 1; white-space: pre; opacity: 1;" transform="translate(393.85,0)">2.55</text></g></g><g class="yaxislayer-above"><g class="y3tick"><text text-anchor="end" x="79" y="4.199999999999999" transform="translate(0,1110.0300000000002)" style="font-family: 'Open Sans', verdana, arial, sans-serif; font-size: 12px; fill: rgb(42, 63, 95); fill-opacity: 1; white-space: pre; opacity: 1;">−0.6</text></g><g class="y3tick"><text text-anchor="end" x="79" y="4.199999999999999" style="font-family: 'Open Sans', verdana, arial, sans-serif; font-size: 12px; fill: rgb(42, 63, 95); fill-opacity: 1; white-space: pre; opacity: 1;" transform="translate(0,1061.72)">−0.4</text></g><g class="y3tick"><text text-anchor="end" x="79" y="4.199999999999999" style="font-family: 'Open Sans', verdana, arial, sans-serif; font-size: 12px; fill: rgb(42, 63, 95); fill-opacity: 1; white-space: pre; opacity: 1;" transform="translate(0,1013.4100000000001)">−0.2</text></g><g class="y3tick"><text text-anchor="end" x="79" y="4.199999999999999" style="font-family: 'Open Sans', verdana, arial, sans-serif; font-size: 12px; fill: rgb(42, 63, 95); fill-opacity: 1; white-space: pre; opacity: 1;" transform="translate(0,965.1100000000001)">0</text></g><g class="y3tick"><text text-anchor="end" x="79" y="4.199999999999999" style="font-family: 'Open Sans', verdana, arial, sans-serif; font-size: 12px; fill: rgb(42, 63, 95); fill-opacity: 1; white-space: pre; opacity: 1;" transform="translate(0,916.8000000000001)">0.2</text></g><g class="y3tick"><text text-anchor="end" x="79" y="4.199999999999999" style="font-family: 'Open Sans', verdana, arial, sans-serif; font-size: 12px; fill: rgb(42, 63, 95); fill-opacity: 1; white-space: pre; opacity: 1;" transform="translate(0,868.4900000000001)">0.4</text></g></g><g class="overaxes-above"/></g></g><g class="polarlayer"/><g class="smithlayer"/><g class="ternarylayer"/><g class="geolayer"/><g class="funnelarealayer"/><g class="pielayer"/><g class="iciclelayer"/><g class="treemaplayer"/><g class="sunburstlayer"/><g class="glimages"/><defs id="topdefs-293214"><g class="clips"/><clipPath id="legend293214"><rect width="188" height="29" x="0" y="0"/></clipPath></defs><g class="layer-above"><g class="imagelayer"/><g class="shapelayer"/></g><g class="infolayer"><g class="legend" pointer-events="all" transform="translate(232,50.59999999999998)"><rect class="bg" shape-rendering="crispEdges" style="stroke: rgb(68, 68, 68); stroke-opacity: 1; fill: rgb(255, 255, 255); fill-opacity: 1; stroke-width: 0px;" width="188" height="29" x="0" y="0"/><g class="scrollbox" transform="" clip-path="url(#legend293214)"><g class="groups"><g class="traces" transform="translate(0,14.5)" style="opacity: 1;"><text class="legendtext" text-anchor="start" x="40" y="4.680000000000001" style="font-family: 'Open Sans', verdana, arial, sans-serif; font-size: 12px; fill: rgb(42, 63, 95); fill-opacity: 1; white-space: pre;">Population Log-likelihood</text><g class="layers" style="opacity: 1;"><g class="legendfill"/><g class="legendlines"><path class="js-line" d="M5,0h30" style="fill: none; stroke: rgb(169, 169, 169); stroke-opacity: 1; stroke-width: 2px;"/></g><g class="legendsymbols"><g class="legendpoints"/></g></g><rect class="legendtoggle" x="0" y="-9.5" width="184.703125" height="19" style="fill: rgb(0, 0, 0); fill-opacity: 0;"/></g></g></g><rect class="scrollbar" rx="20" ry="3" width="0" height="0" style="fill: rgb(128, 139, 164); fill-opacity: 1;" x="0" y="0"/></g><g class="g-gtitle"/><g class="g-xtitle"/><g class="g-x2title"/><g class="g-x3title"/><g class="g-ytitle"/><g class="g-y2title"/><g class="g-y3title"/></g></svg>