<svg class="main-svg" xmlns="http://www.w3.org/2000/svg" xmlns:xlink="http://www.w3.org/1999/xlink" width="500" height="1200" style="" viewBox="0 0 500 1200"><rect x="0" y="0" width="500" height="1200" style="fill: rgb(255, 255, 255); fill-opacity: 1;"/><defs id="defs-d8aa19"><g class="clips"><clipPath id="clipd8aa19xyplot" class="plotclip"><rect width="340" height="272.00000000000006"/></clipPath><clipPath id="clipd8aa19x2y2plot" class="plotclip"><rect width="340" height="272"/></clipPath><clipPath id="clipd8aa19x3y3plot" class="plotclip"><rect width="340" height="272"/></clipPath><clipPath class="axesclip" id="clipd8aa19x"><rect x="80" y="0" width="340" height="1200"/></clipPath><clipPath class="axesclip" id="clipd8aa19y"><rect x="0" y="100" width="500" height="272.00000000000006"/></clipPath><clipPath class="axesclip" id="clipd8aa19xy"><rect x="80" y="100" width="340" height="272.00000000000006"/></clipPath><clipPath class="axesclip" id="clipd8aa19y2"><rect x="0" y="474.00000000000006" width="500" height="272"/></clipPath><clipPath class="axesclip" id="clipd8aa19xy2"><rect x="80" y="474.00000000000006" width="340" height="272"/></clipPath><clipPath class="axesclip" id="clipd8aa19y3"><rect x="0" y="848.0000000000001" width="500" height="272"/></clipPath><clipPath class="axesclip" id="clipd8aa19xy3"><rect x="80" y="848.0000000000001" width="340" height="272"/></clipPath><clipPath class="axesclip" id="clipd8aa19x2"><rect x="80" y="0" width="340" height="1200"/></clipPath><clipPath class="axesclip" id="clipd8aa19x2y"><rect x="80" y="100" width="340" height="272.00000000000006"/></clipPath><clipPath class="axesclip" id="clipd8aa19x2y2"><rect x="80" y="474.00000000000006" width="340" height="272"/></clipPath><clipPath class="axesclip" id="clipd8aa19x2y3"><rect x="80" y="848.0000000000001" width="340" height="272"/></clipPath><clipPath class="axesclip" id="clipd8aa19x3"><rect x="80" y="0" width="340" height="1200"/></clipPath><clipPath class="axesclip" id="clipd8aa19x3y"><rect x="80" y="100" width="340" height="272.00000000000006"/></clipPath><clipPath class="axesclip" id="clipd8aa19x3y2"><rect x="80" y="474.00000000000006" width="340" height="272"/></clipPath><clipPath class="axesclip" id="clipd8aa19x3y3"><rect x="80" y="848.0000000000001" width="340" height="272"/></clipPath></g><g class="gradients"/><g class="patterns"/></defs><g class="bglayer"/><g class="layer-below"><g class="imagelayer"/><g class="shapelayer"/></g><g class="cartesianlayer"><g class="subplot xy"><g class="layer-subplot"><g class="shapelayer"/><g class="imagelayer"/></g><g class="minor-gridlayer"><g class="x"/><g class="y"/></g><g class="gridlayer"><g class="x"><path class="xgrid crisp" transform="translate(132.31,0)" d="M0,100v272.00000000000006" style="stroke: rgb(235, 240, 248); stroke-opacity: 1; stroke-width: 1px;"/><path class="xgrid crisp" transform="translate(263.08000000000004,0)" d="M0,100v272.00000000000006" style="stroke: rgb(235, 240, 248); stroke-opacity: 1; stroke-width: 1px;"/><path class="xgrid crisp" transform="translate(393.85,0)" d="M0,100v272.00000000000006" style="stroke: rgb(235, 240, 248); stroke-opacity: 1; stroke-width: 1px;"/></g><g class="y"><path class="ygrid crisp" transform="translate(0,346.90999999999997)" d="M80,0h340" style="stroke: rgb(235, 240, 248); stroke-opacity: 1; stroke-width: 1px;"/><path class="ygrid crisp" transform="translate(0,308.02)" d="M80,0h340" style="stroke: rgb(235, 240, 248); stroke-opacity: 1; stroke-width: 1px;"/><path class="ygrid crisp" transform="translate(0,269.14)" d="M80,0h340" style="stroke: rgb(235, 240, 248); stroke-opacity: 1; stroke-width: 1px;"/><path class="ygrid crisp" transform="translate(0,230.25)" d="M80,0h340" style="stroke: rgb(235, 240, 248); stroke-opacity: 1; stroke-width: 1px;"/><path class="ygrid crisp" transform="translate(0,191.37)" d="M80,0h340" style="stroke: rgb(235, 240, 248); stroke-opacity: 1; stroke-width: 1px;"/><path class="ygrid crisp" transform="translate(0,152.48)" d="M80,0h340" style="stroke: rgb(235, 240, 248); stroke-opacity: 1; stroke-width: 1px;"/></g></g><g class="zerolinelayer"><path class="yzl zl crisp" transform="translate(0,113.6)" d="M80,0h340" style="stroke: rgb(235, 240, 248); stroke-opacity: 1; stroke-width: 2px;"/></g><path class="xlines-below"/><path class="ylines-below"/><g class="overlines-below"/><g class="xaxislayer-below"/><g class="yaxislayer-below"/><g class="overaxes-below"/><g class="plot" transform="translate(80,100)" clip-path="url(#clipd8aa19xyplot)"><g class="scatterlayer mlayer"><g class="trace scatter trace7bf5e3" style="stroke-miterlimit: 2; opacity: 1;"><g class="fills"/><g class="errorbars"/><g class="lines"><path class="js-line" d="M0,258.4L17.17,211.6L20.61,203.01L34.34,169.86L37.78,162.16L51.52,133.17L54.95,126.6L65.25,107.3L68.69,101.35L78.99,84.69L82.42,80.51L89.29,69.72L92.73,65.2L103.03,52.6L106.46,48.79L120.2,35.58L123.64,32.79L133.94,25.52L137.37,23.45L147.68,18.49L151.11,17.31L157.98,15.25L161.41,14.78L164.85,14.07L168.28,14.68L171.72,13.6L175.15,13.9L182.02,14.56L185.45,15.35L192.32,16.83L195.76,18.03L206.06,22.88L209.49,24.88L216.36,29.23L219.8,31.83L230.1,40.35L233.54,43.68L243.84,54.45L247.27,59.31L250.71,62.55L254.14,66.97L267.88,86.23L271.31,91.44L274.75,97.99L278.18,102.4L291.92,126.7L295.35,133.13L302.22,146.62L305.66,153.76L322.83,191.47L326.26,199.59L340,233.82" style="vector-effect: non-scaling-stroke; fill: none; stroke: rgb(169, 169, 169); stroke-opacity: 1; stroke-width: 2px; opacity: 1;"/></g><g class="points"/><g class="text"/></g></g></g><g class="overplot"/><path class="xlines-above crisp" d="M0,0" style="fill: none;"/><path class="ylines-above crisp" d="M0,0" style="fill: none;"/><g class="overlines-above"/><g class="xaxislayer-above"/><g class="yaxislayer-above"><g class="ytick"><text text-anchor="end" x="79" y="4.199999999999999" transform="translate(0,346.90999999999997)" style="font-family: 'Open Sans', verdana, arial, sans-serif; font-size: 12px; fill: rgb(42, 63, 95); fill-opacity: 1; white-space: pre; opacity: 1;">−6</text></g><g class="ytick"><text text-anchor="end" x="79" y="4.199999999999999" style="font-family: 'Open Sans', verdana, arial, sans-serif; font-size: 12px; fill: rgb(42, 63, 95); fill-opacity: 1; white-space: pre; opacity: 1;" transform="translate(0,308.02)">−5</text></g><g class="ytick"><text text-anchor="end" x="79" y="4.199999999999999" style="font-family: 'Open Sans', verdana, arial, sans-serif; font-size: 12px; fill: rgb(42, 63, 95); fill-opacity: 1; white-space: pre; opacity: 1;" transform="translate(0,269.14)">−4</text></g><g class="ytick"><text text-anchor="end" x="79" y="4.199999999999999" style="font-family: 'Open Sans', verdana, arial, sans-serif; font-size: 12px; fill: rgb(42, 63, 95); fill-opacity: 1; white-space: pre; opacity: 1;" transform="translate(0,230.25)">−3</text></g><g class="ytick"><text text-anchor="end" x="79" y="4.199999999999999" style="font-family: 'Open Sans', verdana, arial, sans-serif; font-size: 12px; fill: rgb(42, 63, 95); fill-opacity: 1; white-space: pre; opacity: 1;" transform="translate(0,191.37)">−2</text></g><g class="ytick"><text text-anchor="end" x="79" y="4.199999999999999" style="font-family: 'Open Sans', verdana, arial, sans-serif; font-size: 12px; fill: rgb(42, 63, 95); fill-opacity: 1; white-space: pre; opacity: 1;" transform="translate(0,152.48)">−1</text></g><g class="ytick"><text text-anchor="end" x="79" y="4.199999999999999" style="font-family: 'Open Sans', verdana, arial, sans-serif; font-size: 12px; fill: rgb(42, 63, 95); fill-opacity: 1; white-space: pre; opacity: 1;" transform="translate(0,113.6)">0</text></g></g><g class="overaxes-above"/></g><g class="subplot x2y2"><g class="layer-subplot"><g class="shapelayer"/><g class="imagelayer"/></g><g class="minor-gridlayer"><g class="x2"/><g class="y2"/></g><g class="gridlayer"><g class="x2"><path class="x2grid crisp" transform="translate(132.31,0)" d="M0,474.00000000000006v272" style="stroke: rgb(235, 240, 248); stroke-opacity: 1; stroke-width: 1px;"/><path class="x2grid crisp" transform="translate(263.08000000000004,0)" d="M0,474.00000000000006v272" style="stroke: rgb(235, 240, 248); stroke-opacity: 1; stroke-width: 1px;"/><path class="x2grid crisp" transform="translate(393.85,0)" d="M0,474.00000000000006v272" style="stroke: rgb(235, 240, 248); stroke-opacity: 1; stroke-width: 1px;"/></g><g class="y2"><path class="y2grid crisp" transform="translate(0,692.1)" d="M80,0h340" style="stroke: rgb(235, 240, 248); stroke-opacity: 1; stroke-width: 1px;"/><path class="y2grid crisp" transform="translate(0,580.61)" d="M80,0h340" style="stroke: rgb(235, 240, 248); stroke-opacity: 1; stroke-width: 1px;"/><path class="y2grid crisp" transform="translate(0,524.86)" d="M80,0h340" style="stroke: rgb(235, 240, 248); stroke-opacity: 1; stroke-width: 1px;"/></g></g><g class="zerolinelayer"><path class="y2zl zl crisp" transform="translate(0,636.35)" d="M80,0h340" style="stroke: rgb(235, 240, 248); stroke-opacity: 1; stroke-width: 2px;"/></g><path class="xlines-below"/><path class="ylines-below"/><g class="overlines-below"/><g class="xaxislayer-below"/><g class="yaxislayer-below"/><g class="overaxes-below"/><g class="plot" transform="translate(80,474.00000000000006)" clip-path="url(#clipd8aa19x2y2plot)"><g class="scatterlayer mlayer"><g class="trace scatter trace333344" style="stroke-miterlimit: 2; opacity: 1;"><g class="fills"/><g class="errorbars"/><g class="lines"><path class="js-line" d="M0,203.92L109.9,180.65L113.33,179.94L230.1,156.88L233.54,156.24L329.7,138.75L333.13,138.15L340,137.02" style="vector-effect: non-scaling-stroke; fill: none; stroke: rgb(68, 1, 84); stroke-opacity: 1; stroke-width: 1px; opacity: 1;"/></g><g class="points"/><g class="text"/></g><g class="trace scatter trace12abb0" style="stroke-miterlimit: 2; opacity: 1;"><g class="fills"/><g class="errorbars"/><g class="lines"><path class="js-line" d="M0,204.42L109.9,180.29L113.33,179.51L230.1,154.34L233.54,153.58L340,131.31" style="vector-effect: non-scaling-stroke; fill: none; stroke: rgb(69, 7, 90); stroke-opacity: 1; stroke-width: 1px; opacity: 1;"/></g><g class="points"/><g class="text"/></g><g class="trace scatter traceea3307" style="stroke-miterlimit: 2; opacity: 1;"><g class="fills"/><g class="errorbars"/><g class="lines"><path class="js-line" d="M0,28.66L24.04,45.54L27.47,47.77L51.52,64.16L54.95,65.86L61.82,71.15L65.25,73.64L164.85,140.47L168.28,142.15L175.15,147.62L178.59,149.78L195.76,160.69L199.19,162.92L206.06,167.02L209.49,169.16L216.36,174.22L219.8,176.06L233.54,184.92L236.97,187.24L264.44,204.72L267.88,206.19L274.75,212.46L278.18,213.3L295.35,224.05L298.79,227.01L305.66,229.74L309.09,232.86L319.39,238.56L322.83,240.97L340,250.57" style="vector-effect: non-scaling-stroke; fill: none; stroke: rgb(69, 14, 96); stroke-opacity: 1; stroke-width: 1px; opacity: 1;"/></g><g class="points"/><g class="text"/></g><g class="trace scatter trace70255e" style="stroke-miterlimit: 2; opacity: 1;"><g class="fills"/><g class="errorbars"/><g class="lines"><path class="js-line" d="M0,152.6L48.08,154.07L51.52,154.31L65.25,154.81L68.69,154.98L123.64,157.49L127.07,157.62L161.41,159.32L164.85,159.55L178.59,160.23L182.02,160.39L333.13,170.82L336.57,171.19L340,171.51" style="vector-effect: non-scaling-stroke; fill: none; stroke: rgb(70, 20, 101); stroke-opacity: 1; stroke-width: 1px; opacity: 1;"/></g><g class="points"/><g class="text"/></g><g class="trace scatter trace2dc4b5" style="stroke-miterlimit: 2; opacity: 1;"><g class="fills"/><g class="errorbars"/><g class="lines"><path class="js-line" d="M0,196.2L271.31,145.97L274.75,145.41L312.53,138.76L315.96,138.16L340,133.98" style="vector-effect: non-scaling-stroke; fill: none; stroke: rgb(71, 26, 107); stroke-opacity: 1; stroke-width: 1px; opacity: 1;"/></g><g class="points"/><g class="text"/></g><g class="trace scatter trace30ec92" style="stroke-miterlimit: 2; opacity: 1;"><g class="fills"/><g class="errorbars"/><g class="lines"><path class="js-line" d="M0,137.24L48.08,142.85L51.52,143.36L68.69,145.55L72.12,145.98L140.81,155.5L144.24,156.01L247.27,172.23L250.71,172.87L336.57,188.02L340,188.68" style="vector-effect: non-scaling-stroke; fill: none; stroke: rgb(71, 32, 113); stroke-opacity: 1; stroke-width: 1px; opacity: 1;"/></g><g class="points"/><g class="text"/></g><g class="trace scatter tracec84fc7" style="stroke-miterlimit: 2; opacity: 1;"><g class="fills"/><g class="errorbars"/><g class="lines"><path class="js-line" d="M0,200.54L51.52,189.98L54.95,189.44L75.56,185.23L78.99,184.62L226.67,158.83L230.1,158.29L333.13,143.71L336.57,143.37L340,142.99" style="vector-effect: non-scaling-stroke; fill: none; stroke: rgb(72, 39, 119); stroke-opacity: 1; stroke-width: 1px; opacity: 1;"/></g><g class="points"/><g class="text"/></g><g class="trace scatter tracefcdbae" style="stroke-miterlimit: 2; opacity: 1;"><g class="fills"/><g class="errorbars"/><g class="lines"><path class="js-line" d="M0,191.99L109.9,174.8L113.33,174.31L175.15,164.96L178.59,164.46L247.27,154.55L250.71,154.11L340,142.02" style="vector-effect: non-scaling-stroke; fill: none; stroke: rgb(71, 44, 122); stroke-opacity: 1; stroke-width: 1px; opacity: 1;"/></g><g class="points"/><g class="text"/></g><g class="trace scatter trace88618a" style="stroke-miterlimit: 2; opacity: 1;"><g class="fills"/><g class="errorbars"/><g class="lines"><path class="js-line" d="M0,181.64L109.9,167.96L113.33,167.57L206.06,157.24L209.49,156.87L254.14,152.25L257.58,151.93L302.22,147.6L305.66,147.36L326.26,145.41L329.7,145.08L340,144.27" style="vector-effect: non-scaling-stroke; fill: none; stroke: rgb(69, 49, 125); stroke-opacity: 1; stroke-width: 1px; opacity: 1;"/></g><g class="points"/><g class="text"/></g><g class="trace scatter trace00512d" style="stroke-miterlimit: 2; opacity: 1;"><g class="fills"/><g class="errorbars"/><g class="lines"><path class="js-line" d="M0,192.62L78.99,180L82.42,179.51L123.64,173.2L127.07,172.67L216.36,159.86L219.8,159.43L278.18,151.67L281.62,151.23L312.53,147.35L315.96,146.91L340,144.09" style="vector-effect: non-scaling-stroke; fill: none; stroke: rgb(68, 55, 128); stroke-opacity: 1; stroke-width: 1px; opacity: 1;"/></g><g class="points"/><g class="text"/></g><g class="trace scatter trace7f1069" style="stroke-miterlimit: 2; opacity: 1;"><g class="fills"/><g class="errorbars"/><g class="lines"><path class="js-line" d="M0,179.61L72.12,172.58L75.56,172.25L123.64,168.16L127.07,167.84L182.02,163.48L185.45,163.24L233.54,160.04L236.97,159.79L333.13,154.39L336.57,154.32L340,154.21" style="vector-effect: non-scaling-stroke; fill: none; stroke: rgb(66, 60, 130); stroke-opacity: 1; stroke-width: 1px; opacity: 1;"/></g><g class="points"/><g class="text"/></g><g class="trace scatter tracee3b499" style="stroke-miterlimit: 2; opacity: 1;"><g class="fills"/><g class="errorbars"/><g class="lines"><path class="js-line" d="M0,185.71L48.08,179.67L51.52,179.35L65.25,177.72L68.69,177.33L144.24,169.19L147.68,168.87L223.23,161.91L226.67,161.62L298.79,155.89L302.22,155.83L319.39,154.74L322.83,154.44L340,153.54" style="vector-effect: non-scaling-stroke; fill: none; stroke: rgb(64, 65, 133); stroke-opacity: 1; stroke-width: 1px; opacity: 1;"/></g><g class="points"/><g class="text"/></g><g class="trace scatter trace20bdd3" style="stroke-miterlimit: 2; opacity: 1;"><g class="fills"/><g class="errorbars"/><g class="lines"><path class="js-line" d="M0,174.68L48.08,171.21L51.52,171.11L61.82,170.5L65.25,170.25L164.85,165.68L168.28,165.72L185.45,164.96L188.89,164.96L278.18,163.5L281.62,163.49L298.79,163.22L302.22,163.42L315.96,163.44L319.39,163.53L340,163.79" style="vector-effect: non-scaling-stroke; fill: none; stroke: rgb(63, 71, 136); stroke-opacity: 1; stroke-width: 1px; opacity: 1;"/></g><g class="points"/><g class="text"/></g><g class="trace scatter traced0fbae" style="stroke-miterlimit: 2; opacity: 1;"><g class="fills"/><g class="errorbars"/><g class="lines"><path class="js-line" d="M0,56.27L48.08,82.71L51.52,84.39L58.38,88.14L61.82,89.99L99.6,110.64L103.03,112.48L240.4,186.67L243.84,188.41L250.71,192.19L254.14,194.01L267.88,200.93L271.31,203.42L274.75,205.7L278.18,206.75L302.22,219.43L305.66,220.84L312.53,224.8L315.96,226.6L340,238.65" style="vector-effect: non-scaling-stroke; fill: none; stroke: rgb(61, 76, 137); stroke-opacity: 1; stroke-width: 1px; opacity: 1;"/></g><g class="points"/><g class="text"/></g><g class="trace scatter traceedeaa2" style="stroke-miterlimit: 2; opacity: 1;"><g class="fills"/><g class="errorbars"/><g class="lines"><path class="js-line" d="M0,195.09L247.27,150.88L250.71,150.28L340,135.43" style="vector-effect: non-scaling-stroke; fill: none; stroke: rgb(59, 81, 138); stroke-opacity: 1; stroke-width: 1px; opacity: 1;"/></g><g class="points"/><g class="text"/></g><g class="trace scatter trace8019e2" style="stroke-miterlimit: 2; opacity: 1;"><g class="fills"/><g class="errorbars"/><g class="lines"><path class="js-line" d="M0,206.44L78.99,188.23L82.42,187.38L116.77,179.6L120.2,178.8L178.59,165.6L182.02,164.85L271.31,144.95L274.75,144.3L291.92,140.37L295.35,139.66L319.39,134.41L322.83,133.7L340,129.95" style="vector-effect: non-scaling-stroke; fill: none; stroke: rgb(45, 114, 142); stroke-opacity: 1; stroke-width: 1px; opacity: 1;"/></g><g class="points"/><g class="text"/></g><g class="trace scatter tracefb5ec8" style="stroke-miterlimit: 2; opacity: 1;"><g class="fills"/><g class="errorbars"/><g class="lines"><path class="js-line" d="M0,13.6L24.04,32.46L27.47,34.93L51.52,53.17L54.95,55L61.82,60.95L65.25,63.74L164.85,137.74L168.28,139.54L175.15,145.66L178.59,148.04L188.89,155.12L192.32,157.52L230.1,184.49L233.54,186.66L250.71,198.82L254.14,201.21L261.01,206.05L264.44,208.38L267.88,209.92L271.31,213.67L274.75,216.98L278.18,217.78L295.35,229.55L298.79,232.86L305.66,235.69L309.09,239.21L319.39,245.36L322.83,248.02L340,258.4" style="vector-effect: non-scaling-stroke; fill: none; stroke: rgb(43, 118, 142); stroke-opacity: 1; stroke-width: 1px; opacity: 1;"/></g><g class="points"/><g class="text"/></g><g class="trace scatter trace4e5976" style="stroke-miterlimit: 2; opacity: 1;"><g class="fills"/><g class="errorbars"/><g class="lines"><path class="js-line" d="M0,149.83L48.08,152L51.52,152.29L65.25,153.01L68.69,153.22L120.2,156.29L123.64,156.58L164.85,159.28L168.28,159.65L188.89,161.01L192.32,161.29L278.18,168.26L281.62,168.56L298.79,169.88L302.22,170.37L319.39,172.02L322.83,172.29L340,174.06" style="vector-effect: non-scaling-stroke; fill: none; stroke: rgb(41, 122, 142); stroke-opacity: 1; stroke-width: 1px; opacity: 1;"/></g><g class="points"/><g class="text"/></g><g class="trace scatter tracee1394f" style="stroke-miterlimit: 2; opacity: 1;"><g class="fills"/><g class="errorbars"/><g class="lines"><path class="js-line" d="M0,197.74L92.73,179.44L96.16,178.75L257.58,147.58L261.01,146.98L340,132.31" style="vector-effect: non-scaling-stroke; fill: none; stroke: rgb(40, 126, 142); stroke-opacity: 1; stroke-width: 1px; opacity: 1;"/></g><g class="points"/><g class="text"/></g><g class="trace scatter trace5e9d86" style="stroke-miterlimit: 2; opacity: 1;"><g class="fills"/><g class="errorbars"/><g class="lines"><path class="js-line" d="M0,137.47L48.08,143.04L51.52,143.55L68.69,145.73L72.12,146.16L130.51,154.15L133.94,154.7L188.89,162.94L192.32,163.49L264.44,175.32L267.88,176.01L285.05,178.8L288.48,179.49L340,188.82" style="vector-effect: non-scaling-stroke; fill: none; stroke: rgb(38, 130, 142); stroke-opacity: 1; stroke-width: 1px; opacity: 1;"/></g><g class="points"/><g class="text"/></g><g class="trace scatter tracea94830" style="stroke-miterlimit: 2; opacity: 1;"><g class="fills"/><g class="errorbars"/><g class="lines"><path class="js-line" d="M0,199.04L48.08,189.53L51.52,188.95L68.69,185.71L72.12,185.06L130.51,174.61L133.94,174.07L188.89,165.01L192.32,164.48L264.44,153.82L267.88,153.5L278.18,151.95L281.62,151.48L298.79,149.04L302.22,148.76L319.39,146.65L322.83,146.15L340,144.24" style="vector-effect: non-scaling-stroke; fill: none; stroke: rgb(37, 135, 141); stroke-opacity: 1; stroke-width: 1px; opacity: 1;"/></g><g class="points"/><g class="text"/></g><g class="trace scatter tracee90cfd" style="stroke-miterlimit: 2; opacity: 1;"><g class="fills"/><g class="errorbars"/><g class="lines"><path class="js-line" d="M0,187.73L78.99,176.93L82.42,176.53L120.2,171.49L123.64,171.08L195.76,161.89L199.19,161.48L236.97,156.9L240.4,156.49L340,145.25" style="vector-effect: non-scaling-stroke; fill: none; stroke: rgb(36, 140, 140); stroke-opacity: 1; stroke-width: 1px; opacity: 1;"/></g><g class="points"/><g class="text"/></g><g class="trace scatter tracecde51c" style="stroke-miterlimit: 2; opacity: 1;"><g class="fills"/><g class="errorbars"/><g class="lines"><path class="js-line" d="M0,180.12L96.16,168.8L99.6,168.43L216.36,156.23L219.8,155.94L254.14,152.69L257.58,152.4L302.22,148.4L305.66,148.19L326.26,146.4L329.7,146.09L340,145.37" style="vector-effect: non-scaling-stroke; fill: none; stroke: rgb(34, 144, 140); stroke-opacity: 1; stroke-width: 1px; opacity: 1;"/></g><g class="points"/><g class="text"/></g><g class="trace scatter trace1ea2ea" style="stroke-miterlimit: 2; opacity: 1;"><g class="fills"/><g class="errorbars"/><g class="lines"><path class="js-line" d="M0,191.77L89.29,177.94L92.73,177.42L178.59,165.14L182.02,164.66L288.48,151.07L291.92,150.68L340,145.19" style="vector-effect: non-scaling-stroke; fill: none; stroke: rgb(33, 148, 139); stroke-opacity: 1; stroke-width: 1px; opacity: 1;"/></g><g class="points"/><g class="text"/></g><g class="trace scatter trace715934" style="stroke-miterlimit: 2; opacity: 1;"><g class="fills"/><g class="errorbars"/><g class="lines"><path class="js-line" d="M0,180.94L51.52,175.52L54.95,175.3L75.56,173.09L78.99,172.82L116.77,169.22L120.2,168.91L291.92,155.64L295.35,155.39L309.09,154.46L312.53,154.33L340,152.85" style="vector-effect: non-scaling-stroke; fill: none; stroke: rgb(32, 153, 138); stroke-opacity: 1; stroke-width: 1px; opacity: 1;"/></g><g class="points"/><g class="text"/></g><g class="trace scatter trace07f969" style="stroke-miterlimit: 2; opacity: 1;"><g class="fills"/><g class="errorbars"/><g class="lines"><path class="js-line" d="M0,183.59L48.08,178.05L51.52,177.77L65.25,176.29L68.69,175.94L144.24,168.67L147.68,168.39L216.36,162.82L219.8,162.66L261.01,159.77L264.44,159.56L271.31,159.03L274.75,158.64L285.05,158.17L288.48,158.11L340,155.53" style="vector-effect: non-scaling-stroke; fill: none; stroke: rgb(31, 158, 137); stroke-opacity: 1; stroke-width: 1px; opacity: 1;"/></g><g class="points"/><g class="text"/></g><g class="trace scatter trace8f2ce2" style="stroke-miterlimit: 2; opacity: 1;"><g class="fills"/><g class="errorbars"/><g class="lines"><path class="js-line" d="M0,174.88L41.21,171.89L44.65,171.65L72.12,169.96L75.56,169.73L123.64,167.38L127.07,167.18L164.85,165.67L168.28,165.71L185.45,164.93L188.89,164.92L298.79,163.08L302.22,163.27L319.39,163.37L322.83,163.3L340,163.6" style="vector-effect: non-scaling-stroke; fill: none; stroke: rgb(34, 162, 135); stroke-opacity: 1; stroke-width: 1px; opacity: 1;"/></g><g class="points"/><g class="text"/></g><g class="trace scatter tracef86ea6" style="stroke-miterlimit: 2; opacity: 1;"><g class="fills"/><g class="errorbars"/><g class="lines"><path class="js-line" d="M0,60.55L48.08,85.86L51.52,87.48L58.38,91.08L61.82,92.86L99.6,112.69L103.03,114.45L254.14,193.06L257.58,194.67L274.75,204.3L278.18,205.37L336.57,234.73L340,236.32" style="vector-effect: non-scaling-stroke; fill: none; stroke: rgb(38, 166, 132); stroke-opacity: 1; stroke-width: 1px; opacity: 1;"/></g><g class="points"/><g class="text"/></g><g class="trace scatter trace08fe57" style="stroke-miterlimit: 2; opacity: 1;"><g class="fills"/><g class="errorbars"/><g class="lines"><path class="js-line" d="M0,194.63L247.27,151.1L250.71,150.52L340,135.99" style="vector-effect: non-scaling-stroke; fill: none; stroke: rgb(41, 170, 130); stroke-opacity: 1; stroke-width: 1px; opacity: 1;"/></g><g class="points"/><g class="text"/></g><g class="trace scatter trace3e4167" style="stroke-miterlimit: 2; opacity: 1;"><g class="fills"/><g class="errorbars"/><g class="lines"><path class="js-line" d="M0,194.4L89.29,179.54L92.73,178.99L182.02,165.13L185.45,164.62L336.57,143.87L340,143.47" style="vector-effect: non-scaling-stroke; fill: none; stroke: rgb(45, 174, 127); stroke-opacity: 1; stroke-width: 1px; opacity: 1;"/></g><g class="points"/><g class="text"/></g><g class="trace scatter traceeb917e" style="stroke-miterlimit: 2; opacity: 1;"><g class="fills"/><g class="errorbars"/><g class="lines"><path class="js-line" d="M0,27.51L24.04,44.52L27.47,46.77L68.69,75.2L72.12,77.6L99.6,96.31L103.03,98.58L164.85,140.3L168.28,142.01L178.59,149.7L182.02,152.08L243.84,191.77L247.27,194.72L257.58,200.51L261.01,203.05L267.88,206.72L271.31,210.04L274.75,213.01L278.18,213.88L295.35,224.76L298.79,227.73L305.66,230.53L309.09,233.67L319.39,239.44L322.83,241.88L340,251.6" style="vector-effect: non-scaling-stroke; fill: none; stroke: rgb(96, 200, 96); stroke-opacity: 1; stroke-width: 1px; opacity: 1;"/></g><g class="points"/><g class="text"/></g><g class="trace scatter tracea4f188" style="stroke-miterlimit: 2; opacity: 1;"><g class="fills"/><g class="errorbars"/><g class="lines"><path class="js-line" d="M0,150.08L48.08,152.23L51.52,152.52L65.25,153.22L68.69,153.44L120.2,156.5L123.64,156.79L164.85,159.5L168.28,159.87L185.45,160.9L188.89,161.24L322.83,172.61L326.26,172.97L340,174.4" style="vector-effect: non-scaling-stroke; fill: none; stroke: rgb(105, 204, 91); stroke-opacity: 1; stroke-width: 1px; opacity: 1;"/></g><g class="points"/><g class="text"/></g><g class="trace scatter traceaeb96f" style="stroke-miterlimit: 2; opacity: 1;"><g class="fills"/><g class="errorbars"/><g class="lines"><path class="js-line" d="M0,197.48L109.9,175.9L113.33,175.2L230.1,152.73L233.54,152.07L340,132.24" style="vector-effect: non-scaling-stroke; fill: none; stroke: rgb(115, 207, 85); stroke-opacity: 1; stroke-width: 1px; opacity: 1;"/></g><g class="points"/><g class="text"/></g><g class="trace scatter tracec46f94" style="stroke-miterlimit: 2; opacity: 1;"><g class="fills"/><g class="errorbars"/><g class="lines"><path class="js-line" d="M0,134.28L48.08,140.63L51.52,141.2L68.69,143.65L72.12,144.13L137.37,154.16L140.81,154.68L233.54,170.57L236.97,171.17L336.57,190.02L340,190.72" style="vector-effect: non-scaling-stroke; fill: none; stroke: rgb(126, 210, 78); stroke-opacity: 1; stroke-width: 1px; opacity: 1;"/></g><g class="points"/><g class="text"/></g><g class="trace scatter traced56981" style="stroke-miterlimit: 2; opacity: 1;"><g class="fills"/><g class="errorbars"/><g class="lines"><path class="js-line" d="M0,198.18L51.52,188.38L54.95,187.9L72.12,184.59L75.56,183.95L147.68,171.66L151.11,171.08L233.54,158.6L236.97,158.09L315.96,147.69L319.39,147.34L340,145.02" style="vector-effect: non-scaling-stroke; fill: none; stroke: rgb(138, 212, 70); stroke-opacity: 1; stroke-width: 1px; opacity: 1;"/></g><g class="points"/><g class="text"/></g><g class="trace scatter trace512305" style="stroke-miterlimit: 2; opacity: 1;"><g class="fills"/><g class="errorbars"/><g class="lines"><path class="js-line" d="M0,192.03L75.56,180.21L78.99,179.72L123.64,173.01L127.07,172.48L178.59,164.84L182.02,164.33L333.13,143.75L336.57,143.39L340,143" style="vector-effect: non-scaling-stroke; fill: none; stroke: rgb(149, 215, 63); stroke-opacity: 1; stroke-width: 1px; opacity: 1;"/></g><g class="points"/><g class="text"/></g><g class="trace scatter tracea55592" style="stroke-miterlimit: 2; opacity: 1;"><g class="fills"/><g class="errorbars"/><g class="lines"><path class="js-line" d="M0,178.4L75.56,170.04L78.99,169.74L113.33,166.19L116.77,165.83L230.1,155.31L233.54,155.06L302.22,149.55L305.66,149.39L322.83,148.03L326.26,147.81L340,146.93" style="vector-effect: non-scaling-stroke; fill: none; stroke: rgb(161, 217, 56); stroke-opacity: 1; stroke-width: 1px; opacity: 1;"/></g><g class="points"/><g class="text"/></g><g class="trace scatter trace081397" style="stroke-miterlimit: 2; opacity: 1;"><g class="fills"/><g class="errorbars"/><g class="lines"><path class="js-line" d="M0,191.78L85.86,178.48L89.29,177.97L178.59,165.21L182.02,164.73L288.48,151.19L291.92,150.8L340,145.34" style="vector-effect: non-scaling-stroke; fill: none; stroke: rgb(172, 220, 49); stroke-opacity: 1; stroke-width: 1px; opacity: 1;"/></g><g class="points"/><g class="text"/></g><g class="trace scatter trace5cb967" style="stroke-miterlimit: 2; opacity: 1;"><g class="fills"/><g class="errorbars"/><g class="lines"><path class="js-line" d="M0,180.61L68.69,173.55L72.12,173.22L140.81,166.97L144.24,166.7L264.44,157.71L267.88,157.63L278.18,156.85L281.62,156.63L302.22,155.38L305.66,155.3L319.39,154.44L322.83,154.19L340,153.43" style="vector-effect: non-scaling-stroke; fill: none; stroke: rgb(184, 222, 43); stroke-opacity: 1; stroke-width: 1px; opacity: 1;"/></g><g class="points"/><g class="text"/></g><g class="trace scatter traced21c88" style="stroke-miterlimit: 2; opacity: 1;"><g class="fills"/><g class="errorbars"/><g class="lines"><path class="js-line" d="M0,186.77L51.52,180.13L54.95,179.86L75.56,177.17L78.99,176.83L116.77,172.45L120.2,172.06L178.59,165.88L182.02,165.52L274.75,157.04L278.18,157.03L340,152.63" style="vector-effect: non-scaling-stroke; fill: none; stroke: rgb(195, 224, 42); stroke-opacity: 1; stroke-width: 1px; opacity: 1;"/></g><g class="points"/><g class="text"/></g><g class="trace scatter traceb1053b" style="stroke-miterlimit: 2; opacity: 1;"><g class="fills"/><g class="errorbars"/><g class="lines"><path class="js-line" d="M0,173.32L41.21,170.68L44.65,170.47L68.69,169.19L72.12,169L120.2,166.91L123.64,166.85L164.85,165.49L168.28,165.55L185.45,164.91L188.89,164.93L285.05,163.96L288.48,164.12L340,164.8" style="vector-effect: non-scaling-stroke; fill: none; stroke: rgb(207, 225, 41); stroke-opacity: 1; stroke-width: 1px; opacity: 1;"/></g><g class="points"/><g class="text"/></g><g class="trace scatter traceedfeb6" style="stroke-miterlimit: 2; opacity: 1;"><g class="fills"/><g class="errorbars"/><g class="lines"><path class="js-line" d="M0,55.99L41.21,78.58L44.65,80.49L65.25,91.76L68.69,93.63L161.41,144.25L164.85,146.03L171.72,149.78L175.15,151.83L243.84,188.37L247.27,190.64L257.58,195.65L261.01,197.67L271.31,203.4L274.75,205.69L281.62,208.53L285.05,210.69L295.35,215.81L298.79,218.11L305.66,220.81L309.09,223.21L326.26,231.86L329.7,233.75L340,238.62" style="vector-effect: non-scaling-stroke; fill: none; stroke: rgb(218, 227, 40); stroke-opacity: 1; stroke-width: 1px; opacity: 1;"/></g><g class="points"/><g class="text"/></g><g class="trace scatter tracef92819" style="stroke-miterlimit: 2; opacity: 1;"><g class="fills"/><g class="errorbars"/><g class="lines"><path class="js-line" d="M0,196.11L305.66,140.09L309.09,139.57L340,134.21" style="vector-effect: non-scaling-stroke; fill: none; stroke: rgb(230, 228, 39); stroke-opacity: 1; stroke-width: 1px; opacity: 1;"/></g><g class="points"/><g class="text"/></g><g class="trace scatter trace19c522" style="stroke-miterlimit: 2; opacity: 1;"><g class="fills"/><g class="errorbars"/><g class="lines"><path class="js-line" d="M0,194.27L85.86,180.01L89.29,179.46L195.76,163.17L199.19,162.67L271.31,152.52L274.75,151.97L295.35,149.39L298.79,148.85L340,143.78" style="vector-effect: non-scaling-stroke; fill: none; stroke: rgb(241, 230, 38); stroke-opacity: 1; stroke-width: 1px; opacity: 1;"/></g><g class="points"/><g class="text"/></g><g class="trace scatter trace611096" style="stroke-miterlimit: 2; opacity: 1;"><g class="fills"/><g class="errorbars"/><g class="lines"><path class="js-line" d="M0,172.52L51.52,169.03L54.95,168.97L75.56,167.49L78.99,167.33L106.46,165.71L109.9,165.49L171.72,162.23L175.15,161.99L285.05,157.44L288.48,157.46L340,156.07" style="vector-effect: non-scaling-stroke; fill: none; stroke: rgb(253, 231, 37); stroke-opacity: 1; stroke-width: 1px; opacity: 1;"/></g><g class="points"/><g class="text"/></g></g></g><g class="overplot"/><path class="xlines-above crisp" d="M0,0" style="fill: none;"/><path class="ylines-above crisp" d="M0,0" style="fill: none;"/><g class="overlines-above"/><g class="xaxislayer-above"/><g class="yaxislayer-above"><g class="y2tick"><text text-anchor="end" x="79" y="4.199999999999999" transform="translate(0,692.1)" style="font-family: 'Open Sans', verdana, arial, sans-serif; font-size: 12px; fill: rgb(42, 63, 95); fill-opacity: 1; white-space: pre; opacity: 1;">−5</text></g><g class="y2tick"><text text-anchor="end" x="79" y="4.199999999999999" style="font-family: 'Open Sans', verdana, arial, sans-serif; font-size: 12px; fill: rgb(42, 63, 95); fill-opacity: 1; white-space: pre; opacity: 1;" transform="translate(0,636.35)">0</text></g><g class="y2tick"><text text-anchor="end" x="79" y="4.199999999999999" style="font-family: 'Open Sans', verdana, arial, sans-serif; font-size: 12px; fill: rgb(42, 63, 95); fill-opacity: 1; white-space: pre; opacity: 1;" transform="translate(0,580.61)">5</text></g><g class="y2tick"><text text-anchor="end" x="79" y="4.199999999999999" style="font-family: 'Open Sans', verdana, arial, sans-serif; font-size: 12px; fill: rgb(42, 63, 95); fill-opacity: 1; white-space: pre; opacity: 1;" transform="translate(0,524.86)">10</text></g></g><g class="overaxes-above"/></g><g class="subplot x3y3"><g class="layer-subplot"><g class="shapelayer"/><g class="imagelayer"/></g><g class="minor-gridlayer"><g class="x3"/><g class="y3"/></g><g class="gridlayer"><g class="x3"><path class="x3grid crisp" transform="translate(132.31,0)" d="M0,848.0000000000001v272" style="stroke: rgb(235, 240, 248); stroke-opacity: 1; stroke-width: 1px;"/><path class="x3grid crisp" transform="translate(263.08000000000004,0)" d="M0,848.0000000000001v272" style="stroke: rgb(235, 240, 248); stroke-opacity: 1; stroke-width: 1px;"/><path class="x3grid crisp" transform="translate(393.85,0)" d="M0,848.0000000000001v272" style="stroke: rgb(235, 240, 248); stroke-opacity: 1; stroke-width: 1px;"/></g><g class="y3"><path class="y3grid crisp" transform="translate(0,1109.2600000000002)" d="M80,0h340" style="stroke: rgb(235, 240, 248); stroke-opacity: 1; stroke-width: 1px;"/><path class="y3grid crisp" transform="translate(0,1060.5900000000001)" d="M80,0h340" style="stroke: rgb(235, 240, 248); stroke-opacity: 1; stroke-width: 1px;"/><path class="y3grid crisp" transform="translate(0,1011.9200000000001)" d="M80,0h340" style="stroke: rgb(235, 240, 248); stroke-opacity: 1; stroke-width: 1px;"/><path class="y3grid crisp" transform="translate(0,914.5800000000002)" d="M80,0h340" style="stroke: rgb(235, 240, 248); stroke-opacity: 1; stroke-width: 1px;"/><path class="y3grid crisp" transform="translate(0,865.9100000000001)" d="M80,0h340" style="stroke: rgb(235, 240, 248); stroke-opacity: 1; stroke-width: 1px;"/></g></g><g class="zerolinelayer"><path class="y3zl zl crisp" transform="translate(0,963.2500000000001)" d="M80,0h340" style="stroke: rgb(235, 240, 248); stroke-opacity: 1; stroke-width: 2px;"/></g><path class="xlines-below"/><path class="ylines-below"/><g class="overlines-below"/><g class="xaxislayer-below"/><g class="yaxislayer-below"/><g class="overaxes-below"/><g class="plot" transform="translate(80,848.0000000000001)" clip-path="url(#clipd8aa19x3y3plot)"><g class="scatterlayer mlayer"><g class="trace scatter traced42e15" style="stroke-miterlimit: 2; opacity: 1;"><g class="fills"/><g class="errorbars"/><g class="lines"><path class="js-line" d="M0,166.76L44.65,155.48L48.08,154.47L68.69,149.25L72.12,149L82.42,144.87L85.86,144.87L103.03,140.6L106.46,139.76L120.2,136.13L123.64,135.35L127.07,134.3L130.51,134.06L133.94,132.52L137.37,131.99L161.41,124.9L164.85,124.82L168.28,122.94L171.72,122.94L175.15,122.95L178.59,121.76L182.02,119.69L185.45,118.65L188.89,117.82L192.32,117.85L202.63,115.26L206.06,114.7L209.49,114.37L212.93,112.54L216.36,110.84L219.8,110.97L226.67,109.48L230.1,107.47L236.97,106.69L240.4,105.16L247.27,104.76L250.71,102.48L267.88,98.8L271.31,97.16L274.75,97.16L278.18,95.52L281.62,95.08L285.05,93.37L288.48,93.14L291.92,91.76L298.79,91.22L302.22,89.41L305.66,89.2L309.09,87.38L315.96,85.71L319.39,84.74L340,79.67" style="vector-effect: non-scaling-stroke; fill: none; stroke: rgb(68, 1, 84); stroke-opacity: 1; stroke-width: 1px; opacity: 1;"/></g><g class="points"/><g class="text"/></g><g class="trace scatter traceb856a5" style="stroke-miterlimit: 2; opacity: 1;"><g class="fills"/><g class="errorbars"/><g class="lines"><path class="js-line" d="M0,145.17L17.17,142.52L20.61,141.94L24.04,141.84L27.47,140.96L51.52,137.48L54.95,137.31L61.82,135.67L65.25,135.31L82.42,132.25L85.86,132.25L116.77,127.49L120.2,126.92L144.24,123.3L147.68,122.71L164.85,120.13L168.28,119.17L175.15,118.46L178.59,117.98L192.32,115.93L195.76,115.37L206.06,113.75L209.49,113.21L219.8,111.72L223.23,111.09L233.54,109.83L236.97,109.26L243.84,108.13L247.27,108.13L254.14,106.54L257.58,106.03L271.31,104.21L274.75,104.21L281.62,102.41L285.05,101.64L302.22,99.24L305.66,98.51L315.96,97.1L319.39,96.38L340,93.31" style="vector-effect: non-scaling-stroke; fill: none; stroke: rgb(69, 7, 90); stroke-opacity: 1; stroke-width: 1px; opacity: 1;"/></g><g class="points"/><g class="text"/></g><g class="trace scatter tracef0dedc" style="stroke-miterlimit: 2; opacity: 1;"><g class="fills"/><g class="errorbars"/><g class="lines"><path class="js-line" d="M0,163.72L3.43,162.06L6.87,161.86L10.3,158.43L13.74,159.52L17.17,158.63L20.61,156.2L24.04,156.01L27.47,154.84L30.91,153.57L34.34,155.31L37.78,153.41L41.21,154.01L44.65,154.35L48.08,151.62L51.52,148.75L54.95,148.43L61.82,146.44L65.25,147.21L68.69,147.61L72.12,146.83L75.56,147.49L78.99,145.24L82.42,141.81L85.86,141.81L92.73,140.26L96.16,141.11L103.03,138.17L106.46,137.18L109.9,135.9L113.33,136.73L116.77,136.04L120.2,134.52L127.07,132.01L130.51,132.74L133.94,130.61L137.37,131.36L140.81,130.18L144.24,126.96L147.68,127.37L151.11,124.53L154.55,125.09L157.98,124.12L161.41,121.49L164.85,121.17L168.28,120.31L171.72,120.31L175.15,118.69L178.59,119.9L182.02,116.63L185.45,117.08L192.32,116.74L195.76,115.43L199.19,115.71L202.63,114.56L209.49,112.32L212.93,113.31L216.36,110.7L219.8,110.81L226.67,109.29L230.1,106.87L233.54,105.65L236.97,107.04L240.4,105.77L243.84,103.57L247.27,103.57L250.71,102.52L254.14,101.01L257.58,103.17L261.01,99.14L264.44,99.63L267.88,99.38L271.31,96.76L278.18,96.65L281.62,94.4L285.05,94.9L288.48,92.62L291.92,92.59L295.35,91.42L298.79,91.42L302.22,89.48L305.66,89.38L309.09,88.47L312.53,88.21L315.96,86.64L326.26,83.46L329.7,82.81L333.13,80.74L336.57,80.74L340,81.02" style="vector-effect: non-scaling-stroke; fill: none; stroke: rgb(69, 14, 96); stroke-opacity: 1; stroke-width: 1px; opacity: 1;"/></g><g class="points"/><g class="text"/></g><g class="trace scatter trace9d0ae8" style="stroke-miterlimit: 2; opacity: 1;"><g class="fills"/><g class="errorbars"/><g class="lines"><path class="js-line" d="M0,84.24L10.3,86.87L13.74,86.91L27.47,89.95L30.91,90.25L44.65,93.02L48.08,94.63L61.82,96.25L65.25,96.71L68.69,96.77L72.12,97.88L78.99,98.87L82.42,100.75L89.29,100.97L92.73,101.69L103.03,103.33L106.46,103.79L127.07,106.99L130.51,107.51L140.81,109.05L144.24,110.58L154.55,111.48L157.98,112.32L171.72,113.98L175.15,113.98L182.02,115.02L185.45,117.21L195.76,117.75L199.19,118.57L202.63,118.56L206.06,119.4L219.8,120.03L223.23,121.47L226.67,121.47L230.1,122.93L233.54,122.29L236.97,122.92L243.84,124.72L247.27,124.72L264.44,126.3L267.88,126.32L271.31,128.41L274.75,128.41L291.92,130.16L295.35,131.3L309.09,131.91L312.53,132.8L319.39,132.78L322.83,133.81L340,135.57" style="vector-effect: non-scaling-stroke; fill: none; stroke: rgb(70, 20, 101); stroke-opacity: 1; stroke-width: 1px; opacity: 1;"/></g><g class="points"/><g class="text"/></g><g class="trace scatter trace2795d9" style="stroke-miterlimit: 2; opacity: 1;"><g class="fills"/><g class="errorbars"/><g class="lines"><path class="js-line" d="M0,133.56L30.91,130.77L34.34,130.4L127.07,121.7L130.51,121.42L182.02,116.41L185.45,116.38L195.76,115.17L199.19,114.86L209.49,113.95L212.93,113.54L302.22,105.14L305.66,104.8L340,101.6" style="vector-effect: non-scaling-stroke; fill: none; stroke: rgb(71, 26, 107); stroke-opacity: 1; stroke-width: 1px; opacity: 1;"/></g><g class="points"/><g class="text"/></g><g class="trace scatter traceaf2e51" style="stroke-miterlimit: 2; opacity: 1;"><g class="fills"/><g class="errorbars"/><g class="lines"><path class="js-line" d="M0,151.34L24.04,148.29L27.47,146.86L34.34,146.04L37.78,145.44L61.82,141.1L65.25,141.79L75.56,139.22L78.99,138.03L85.86,137.38L89.29,137.4L92.73,135.66L96.16,135.66L99.6,134.93L103.03,134.97L106.46,133.71L109.9,134.28L113.33,132.87L116.77,132.52L127.07,130.19L130.51,131.07L133.94,128.74L137.37,128.18L151.11,127.28L154.55,125.41L157.98,124.71L161.41,123.21L171.72,122.39L175.15,120.25L178.59,120.95L182.02,119.84L185.45,118.7L188.89,118.37L195.76,118.44L199.19,117.41L202.63,117.52L206.06,115.66L212.93,114.92L216.36,113.52L219.8,113.67L223.23,111.96L230.1,111.95L233.54,108.9L236.97,111.01L240.4,109.64L247.27,109.68L250.71,108.29L254.14,106.63L257.58,106.48L261.01,105.15L264.44,105.54L274.75,105.4L278.18,102.58L285.05,101.55L288.48,100.1L291.92,100.15L295.35,99.44L298.79,99.44L302.22,97.94L309.09,98.24L312.53,95.55L319.39,93.82L322.83,94.14L326.26,94.41L329.7,92.82L340,90.44" style="vector-effect: non-scaling-stroke; fill: none; stroke: rgb(71, 32, 113); stroke-opacity: 1; stroke-width: 1px; opacity: 1;"/></g><g class="points"/><g class="text"/></g><g class="trace scatter trace5955a2" style="stroke-miterlimit: 2; opacity: 1;"><g class="fills"/><g class="errorbars"/><g class="lines"><path class="js-line" d="M0,258.4L3.43,255.45L6.87,254.7L10.3,255.21L13.74,254.85L17.17,256.58L20.61,255.7L24.04,253.78L27.47,241.35L30.91,240.54L34.34,236.53L37.78,232.93L41.21,232.83L48.08,224.74L51.52,224.49L58.38,223.67L61.82,222L72.12,216.47L75.56,211.35L78.99,208.89L82.42,209.47L85.86,209.47L89.29,208.45L92.73,208.5L96.16,202.69L103.03,197.18L106.46,195.78L109.9,193.46L113.33,192.26L120.2,194.59L123.64,192.14L127.07,191.64L130.51,187.83L137.37,179.2L140.81,179.52L144.24,175.77L147.68,176.17L151.11,173.96L154.55,173.32L157.98,171.91L161.41,173.05L164.85,173.07L168.28,166.06L171.72,166.06L175.15,159.73L178.59,159.87L182.02,160.82L185.45,158.61L188.89,158.48L192.32,158.42L195.76,157.57L199.19,156.37L202.63,156.22L206.06,154.05L209.49,152.92L212.93,151.18L216.36,150.55L219.8,150.61L223.23,148.23L226.67,148.26L230.1,142.37L236.97,138.47L240.4,141.98L243.84,140.09L247.27,140.09L250.71,135.49L254.14,137.67L257.58,137.97L261.01,134.6L264.44,132.11L267.88,131.99L271.31,130.08L274.75,130.08L278.18,129.26L281.62,129.3L285.05,129.24L288.48,127.78L291.92,127.09L295.35,119.21L298.79,119.21L302.22,118.22L309.09,118.11L312.53,117.13L319.39,116.29L322.83,111.39L333.13,109.09L336.57,108.88L340,109.41" style="vector-effect: non-scaling-stroke; fill: none; stroke: rgb(72, 39, 119); stroke-opacity: 1; stroke-width: 1px; opacity: 1;"/></g><g class="points"/><g class="text"/></g><g class="trace scatter trace31103d" style="stroke-miterlimit: 2; opacity: 1;"><g class="fills"/><g class="errorbars"/><g class="lines"><path class="js-line" d="M0,26.16L3.43,30.51L6.87,31.6L10.3,34.05L13.74,34.63L17.17,37.38L20.61,37.77L30.91,42.18L34.34,45.05L37.78,44.66L41.21,47.8L48.08,52.45L51.52,53.66L54.95,55.61L58.38,55.81L61.82,58.4L65.25,57.97L68.69,59.69L72.12,59.4L78.99,63.06L82.42,68.04L85.86,68.04L89.29,69.05L92.73,72.45L96.16,72.73L99.6,75.24L103.03,75.31L109.9,81.1L113.33,84.81L116.77,85.02L120.2,87.09L123.64,87.88L127.07,90.79L130.51,87.63L133.94,89.37L137.37,95.66L140.81,96.4L144.24,99.23L147.68,99.93L151.11,103.43L154.55,105.62L157.98,107.07L161.41,112.08L164.85,112.12L168.28,117.14L171.72,117.14L175.15,120.19L178.59,121.28L182.02,116.7L185.45,124L188.89,124.18L192.32,124.36L195.76,126.93L199.19,129.42L202.63,129.27L206.06,129.58L209.49,127.78L212.93,135.61L216.36,135.24L219.8,136.06L223.23,140.7L226.67,140.93L230.1,147.35L233.54,151.67L236.97,151.22L240.4,150.97L243.84,149.76L247.27,149.76L250.71,160.41L257.58,162.56L261.01,165.15L267.88,165.57L271.31,164.42L274.75,164.42L278.18,173.84L281.62,175.71L285.05,176.02L288.48,180.35L291.92,180.71L295.35,183.75L298.79,183.75L302.22,189.64L305.66,189.64L309.09,190.3L312.53,193.69L315.96,196.47L319.39,197L322.83,206.64L326.26,204.83L329.7,209.3L333.13,208.18L340,208.16" style="vector-effect: non-scaling-stroke; fill: none; stroke: rgb(71, 44, 122); stroke-opacity: 1; stroke-width: 1px; opacity: 1;"/></g><g class="points"/><g class="text"/></g><g class="trace scatter tracef35efe" style="stroke-miterlimit: 2; opacity: 1;"><g class="fills"/><g class="errorbars"/><g class="lines"><path class="js-line" d="M0,129.38L51.52,125.65L54.95,125.49L82.42,123.13L85.86,123.13L340,104.87" style="vector-effect: non-scaling-stroke; fill: none; stroke: rgb(69, 49, 125); stroke-opacity: 1; stroke-width: 1px; opacity: 1;"/></g><g class="points"/><g class="text"/></g><g class="trace scatter trace47574b" style="stroke-miterlimit: 2; opacity: 1;"><g class="fills"/><g class="errorbars"/><g class="lines"><path class="js-line" d="M0,145.49L51.52,137.5L54.95,137.37L68.69,134.78L72.12,134.56L85.86,132.35L89.29,131.73L113.33,128.13L116.77,127.55L154.55,121.77L157.98,121.22L164.85,120.2L168.28,119.13L171.72,119.13L175.15,118.22L188.89,116.73L192.32,115.96L243.84,108.06L247.27,108.06L254.14,106.43L257.58,106L295.35,100.2L298.79,100.2L305.66,98.58L309.09,97.96L322.83,95.84L326.26,95.35L340,93.29" style="vector-effect: non-scaling-stroke; fill: none; stroke: rgb(68, 55, 128); stroke-opacity: 1; stroke-width: 1px; opacity: 1;"/></g><g class="points"/><g class="text"/></g><g class="trace scatter trace492ee1" style="stroke-miterlimit: 2; opacity: 1;"><g class="fills"/><g class="errorbars"/><g class="lines"><path class="js-line" d="M0,140.53L3.43,139.58L6.87,139.58L51.52,133.92L54.95,133.66L65.25,132.08L68.69,131.64L109.9,126.27L113.33,125.95L199.19,114.87L202.63,114.56L216.36,112.69L219.8,112.36L243.84,109.11L247.27,109.11L254.14,107.9L257.58,107.39L333.13,97.73L336.57,97.34L340,96.54" style="vector-effect: non-scaling-stroke; fill: none; stroke: rgb(66, 60, 130); stroke-opacity: 1; stroke-width: 1px; opacity: 1;"/></g><g class="points"/><g class="text"/></g><g class="trace scatter tracee43152" style="stroke-miterlimit: 2; opacity: 1;"><g class="fills"/><g class="errorbars"/><g class="lines"><path class="js-line" d="M0,161.82L6.87,160.5L10.3,160.66L13.74,158.66L17.17,158.03L51.52,149.59L54.95,149.63L65.25,146.69L68.69,146.18L72.12,145.01L75.56,144.66L78.99,144.03L82.42,141.73L89.29,141.04L92.73,140.08L123.64,133.41L127.07,132.12L133.94,131.3L137.37,129.68L144.24,127.99L147.68,127.47L151.11,127.46L154.55,126.02L164.85,123.95L168.28,122.02L171.72,122.02L175.15,121L182.02,119.76L185.45,118.82L188.89,117.48L192.32,117.24L212.93,112.16L216.36,112.48L223.23,109.52L226.67,109.44L230.1,107.98L233.54,107.67L236.97,106.45L240.4,106.17L247.27,105.44L250.71,103.61L254.14,103.02L257.58,101.2L264.44,100.37L267.88,99.65L271.31,98.6L274.75,98.6L278.18,96.94L281.62,96.54L295.35,93.09L298.79,93.09L302.22,91.66L305.66,91.44L312.53,89.32L315.96,88.17L322.83,86.89L326.26,85.92L336.57,83.62L340,82.37" style="vector-effect: non-scaling-stroke; fill: none; stroke: rgb(64, 65, 133); stroke-opacity: 1; stroke-width: 1px; opacity: 1;"/></g><g class="points"/><g class="text"/></g><g class="trace scatter trace6653ab" style="stroke-miterlimit: 2; opacity: 1;"><g class="fills"/><g class="errorbars"/><g class="lines"><path class="js-line" d="M0,174.25L3.43,174.47L6.87,173.36L10.3,171.6L13.74,171.25L20.61,168.26L24.04,168.29L27.47,167.78L30.91,166.37L44.65,161.99L48.08,161.49L58.38,158.28L61.82,157.48L65.25,155.95L68.69,155.28L72.12,154.54L75.56,152.58L78.99,152.09L82.42,150.18L85.86,150.18L89.29,148.1L103.03,145.05L106.46,144L120.2,140.68L123.64,138.43L127.07,138.18L130.51,136.37L133.94,136.12L137.37,134.93L144.24,132.18L147.68,132.06L157.98,129.06L161.41,127.23L164.85,126.97L168.28,124.98L171.72,124.98L175.15,123.99L178.59,123.33L182.02,121.65L185.45,120.02L188.89,119.68L192.32,119.49L195.76,118.43L199.19,117.16L202.63,116.93L209.49,113.15L212.93,113.53L216.36,111.42L219.8,110.98L223.23,111.41L226.67,110.93L230.1,108.32L233.54,107.67L243.84,104.99L247.27,104.99L250.71,102.79L254.14,102.32L261.01,99.95L264.44,99.25L267.88,99.04L271.31,97.31L274.75,97.31L278.18,95.03L285.05,93.81L288.48,92L291.92,91.42L295.35,89.86L298.79,89.86L302.22,88.3L305.66,88.16L309.09,86.28L329.7,81.01L333.13,79.4L336.57,79.26L340,76.88" style="vector-effect: non-scaling-stroke; fill: none; stroke: rgb(63, 71, 136); stroke-opacity: 1; stroke-width: 1px; opacity: 1;"/></g><g class="points"/><g class="text"/></g><g class="trace scatter trace0fe130" style="stroke-miterlimit: 2; opacity: 1;"><g class="fills"/><g class="errorbars"/><g class="lines"><path class="js-line" d="M0,161.83L6.87,160.12L10.3,160.12L13.74,157.88L17.17,157.84L20.61,158.31L24.04,156.98L30.91,154.48L34.34,154L37.78,153.56L41.21,152.17L44.65,151.9L48.08,150.81L51.52,149.37L54.95,149.1L61.82,146.16L65.25,146.36L68.69,144.73L72.12,144.71L75.56,144.57L78.99,142.53L89.29,141.78L92.73,139.5L99.6,139.13L103.03,136.99L106.46,137.22L109.9,136.19L116.77,134.71L120.2,134.27L123.64,132.65L127.07,132.68L130.51,132.58L133.94,130.94L140.81,129.05L144.24,130.1L147.68,126.83L151.11,125.89L157.98,124.59L161.41,123.63L164.85,123.34L168.28,121.16L171.72,121.16L175.15,118.72L178.59,118.25L182.02,119.45L185.45,117.67L188.89,117.1L206.06,113.68L209.49,112.84L212.93,112.33L216.36,111.01L223.23,110.76L226.67,109.99L230.1,108.88L233.54,106.8L236.97,107.54L240.4,105.92L243.84,103.78L247.27,103.78L254.14,102.04L257.58,101.17L261.01,101.48L264.44,100.02L274.75,99.4L278.18,95.92L285.05,94.74L288.48,93.68L298.79,92.16L302.22,90.67L305.66,90.47L309.09,88.72L312.53,90.17L315.96,87.96L319.39,87.18L322.83,85.53L329.7,84.01L333.13,83.25L340,82.26" style="vector-effect: non-scaling-stroke; fill: none; stroke: rgb(61, 76, 137); stroke-opacity: 1; stroke-width: 1px; opacity: 1;"/></g><g class="points"/><g class="text"/></g><g class="trace scatter trace51ba73" style="stroke-miterlimit: 2; opacity: 1;"><g class="fills"/><g class="errorbars"/><g class="lines"><path class="js-line" d="M0,133.91L44.65,129.67L48.08,129.23L61.82,128.03L65.25,127.74L103.03,124.1L106.46,123.76L133.94,121.15L137.37,120.75L274.75,108.13L278.18,107.28L336.57,101.87L340,101.37" style="vector-effect: non-scaling-stroke; fill: none; stroke: rgb(59, 81, 138); stroke-opacity: 1; stroke-width: 1px; opacity: 1;"/></g><g class="points"/><g class="text"/></g><g class="trace scatter traceabf81d" style="stroke-miterlimit: 2; opacity: 1;"><g class="fills"/><g class="errorbars"/><g class="lines"><path class="js-line" d="M0,145.32L17.17,142.59L20.61,142.03L51.52,137.67L54.95,137.16L65.25,135.46L68.69,134.83L78.99,133.33L82.42,132.16L89.29,131.43L92.73,131.32L164.85,119.99L168.28,119.03L175.15,118.55L178.59,117.69L199.19,115.11L202.63,114.46L216.36,112.53L219.8,112.28L226.67,110.26L230.1,110.37L240.4,108.84L243.84,108.25L247.27,108.25L250.71,107.05L271.31,104.19L274.75,104.19L281.62,102.23L285.05,101.67L302.22,99.28L305.66,98.48L312.53,97.46L315.96,96.89L340,93.01" style="vector-effect: non-scaling-stroke; fill: none; stroke: rgb(45, 114, 142); stroke-opacity: 1; stroke-width: 1px; opacity: 1;"/></g><g class="points"/><g class="text"/></g><g class="trace scatter trace3e50d7" style="stroke-miterlimit: 2; opacity: 1;"><g class="fills"/><g class="errorbars"/><g class="lines"><path class="js-line" d="M0,165.22L3.43,161.71L6.87,161.64L10.3,161.27L13.74,159.86L24.04,155.83L27.47,156.56L34.34,155.81L37.78,153.67L44.65,149.92L48.08,149.72L51.52,150.62L54.95,149.76L58.38,149.09L61.82,146.6L68.69,147.07L72.12,145.74L75.56,143.85L78.99,142.97L82.42,141.82L85.86,141.82L89.29,141.98L92.73,139.74L99.6,138.38L103.03,137.46L109.9,135.26L113.33,136.01L116.77,134.34L120.2,133.52L123.64,132.39L127.07,132.54L130.51,130.51L133.94,130.01L137.37,128.82L140.81,129.11L144.24,125.87L147.68,127.07L154.55,125.18L157.98,125.89L161.41,122.69L164.85,122.21L168.28,123.26L171.72,123.26L178.59,120.01L182.02,119.99L185.45,117.95L188.89,117L195.76,115.11L199.19,115.55L202.63,115.2L206.06,116.06L209.49,115.12L212.93,111.61L216.36,111.02L219.8,108.73L223.23,108.71L226.67,107.31L230.1,106.12L233.54,106.94L236.97,105.57L240.4,105.88L243.84,104.87L247.27,104.87L250.71,102.48L254.14,101.95L257.58,99.92L261.01,100.42L264.44,98.27L267.88,97.58L274.75,97.55L278.18,96.29L281.62,95.29L285.05,92.96L288.48,92.48L291.92,90.14L295.35,88.28L298.79,88.28L305.66,88.03L309.09,85.9L312.53,87.3L315.96,86.57L319.39,86.27L322.83,83.52L326.26,82.14L329.7,82.01L333.13,80.63L336.57,81.17L340,79.58" style="vector-effect: non-scaling-stroke; fill: none; stroke: rgb(43, 118, 142); stroke-opacity: 1; stroke-width: 1px; opacity: 1;"/></g><g class="points"/><g class="text"/></g><g class="trace scatter trace089a93" style="stroke-miterlimit: 2; opacity: 1;"><g class="fills"/><g class="errorbars"/><g class="lines"><path class="js-line" d="M0,91.83L10.3,93.9L13.74,93.95L44.65,98.87L48.08,99.93L58.38,100.33L61.82,101.7L72.12,102.98L75.56,103.13L78.99,103.04L82.42,104.08L89.29,104.67L92.73,105.67L103.03,106.38L106.46,106.92L109.9,108.39L113.33,108.71L116.77,107.82L120.2,108.98L123.64,108.94L127.07,109.83L130.51,109.74L133.94,110.68L147.68,112.12L151.11,111.66L154.55,113.22L157.98,113.18L161.41,114.6L164.85,114.61L182.02,115.99L185.45,117.35L202.63,118.02L206.06,118.47L219.8,119.51L223.23,120.3L226.67,120.34L230.1,121.61L233.54,121.16L236.97,121.48L240.4,121.67L243.84,122.62L257.58,123.3L261.01,123.72L267.88,123.85L271.31,126.64L274.75,126.64L278.18,125.52L285.05,125.12L288.48,126L291.92,126.13L295.35,128.01L298.79,128.01L302.22,127L309.09,127.15L312.53,128.63L319.39,128.17L322.83,128.85L326.26,128.59L329.7,129.6L340,129.5" style="vector-effect: non-scaling-stroke; fill: none; stroke: rgb(41, 122, 142); stroke-opacity: 1; stroke-width: 1px; opacity: 1;"/></g><g class="points"/><g class="text"/></g><g class="trace scatter trace85f5d6" style="stroke-miterlimit: 2; opacity: 1;"><g class="fills"/><g class="errorbars"/><g class="lines"><path class="js-line" d="M0,133.54L164.85,118.08L168.28,117.43L178.59,117.03L182.02,116.36L243.84,110.68L247.27,110.68L257.58,109.48L261.01,109.04L340,101.71" style="vector-effect: non-scaling-stroke; fill: none; stroke: rgb(40, 126, 142); stroke-opacity: 1; stroke-width: 1px; opacity: 1;"/></g><g class="points"/><g class="text"/></g><g class="trace scatter trace7ab3a1" style="stroke-miterlimit: 2; opacity: 1;"><g class="fills"/><g class="errorbars"/><g class="lines"><path class="js-line" d="M0,154.95L6.87,153.44L10.3,151.74L13.74,151.84L17.17,151.07L27.47,149.76L30.91,148.75L41.21,147.06L44.65,147.56L48.08,145.7L51.52,144.8L54.95,143.72L58.38,143.49L61.82,143.7L65.25,142.99L68.69,141.74L72.12,142.21L75.56,141.54L78.99,139.49L82.42,138.6L85.86,138.6L89.29,138.66L92.73,137.86L103.03,136.01L106.46,134.86L109.9,135.43L113.33,133.68L116.77,132.74L120.2,132.87L127.07,130.2L130.51,129.61L137.37,129.43L140.81,128.47L151.11,126.15L154.55,126.14L157.98,125.82L161.41,124.59L164.85,124.67L168.28,123.09L171.72,123.09L175.15,120.84L178.59,120.13L182.02,120.85L185.45,119.29L188.89,119.09L192.32,118.86L195.76,117.8L199.19,116.77L202.63,116.67L206.06,115.08L209.49,115.35L219.8,113.23L223.23,111.62L230.1,111.77L233.54,110.81L236.97,109.62L240.4,109.37L243.84,107.95L247.27,107.95L250.71,106.97L254.14,107.54L257.58,107.06L261.01,105.01L264.44,104.25L267.88,104.29L274.75,103.98L278.18,102.06L281.62,100.15L285.05,100.04L288.48,98.93L291.92,98.88L298.79,98.75L302.22,97.18L305.66,97.12L309.09,95.75L312.53,94.47L315.96,95.22L319.39,94.76L322.83,92.85L326.26,93.71L329.7,91.08L333.13,89.16L336.57,88.99L340,90.73" style="vector-effect: non-scaling-stroke; fill: none; stroke: rgb(38, 130, 142); stroke-opacity: 1; stroke-width: 1px; opacity: 1;"/></g><g class="points"/><g class="text"/></g><g class="trace scatter trace417980" style="stroke-miterlimit: 2; opacity: 1;"><g class="fills"/><g class="errorbars"/><g class="lines"><path class="js-line" d="M0,243.6L3.43,240.52L6.87,238.8L10.3,236.71L13.74,236.69L17.17,234.2L20.61,229.87L24.04,228.15L27.47,223.83L30.91,225.21L34.34,222.48L37.78,217.88L41.21,215L48.08,206.73L51.52,205.61L54.95,203.95L58.38,203.38L65.25,198.26L68.69,196.44L82.42,191.42L85.86,191.42L89.29,192.68L92.73,187.34L96.16,186.43L99.6,187.91L103.03,187.47L106.46,186.14L109.9,185.85L113.33,182.31L116.77,181.26L120.2,178.88L123.64,176.62L127.07,176.62L130.51,171.85L133.94,169.15L137.37,168.26L140.81,168.32L144.24,164.57L147.68,164.65L151.11,160.48L154.55,162.21L157.98,160.89L161.41,158.48L164.85,158.52L168.28,151.39L171.72,151.39L175.15,148.09L178.59,151.77L182.02,146.49L192.32,146.86L195.76,141.26L199.19,142.6L202.63,142.61L206.06,142.33L209.49,136.86L212.93,132.12L216.36,133.5L219.8,133.45L223.23,132.6L226.67,132.46L230.1,128.38L233.54,131.24L236.97,126.18L240.4,126.74L243.84,125.3L247.27,125.3L250.71,121.37L254.14,119.75L257.58,119.25L261.01,113.64L264.44,113.69L267.88,113.49L271.31,111.02L278.18,111.7L281.62,108.43L291.92,108.09L295.35,104.97L298.79,104.97L302.22,101.36L305.66,101.33L309.09,100.13L315.96,95.91L319.39,95.25L322.83,91.02L326.26,93.21L333.13,88.29L336.57,88.33L340,86.58" style="vector-effect: non-scaling-stroke; fill: none; stroke: rgb(37, 135, 141); stroke-opacity: 1; stroke-width: 1px; opacity: 1;"/></g><g class="points"/><g class="text"/></g><g class="trace scatter trace27b551" style="stroke-miterlimit: 2; opacity: 1;"><g class="fills"/><g class="errorbars"/><g class="lines"><path class="js-line" d="M0,30.85L3.43,40.05L6.87,37.58L10.3,38.69L13.74,38.56L20.61,44.08L24.04,43.33L27.47,46.39L30.91,47.39L34.34,47.97L37.78,50.47L41.21,53.59L44.65,55.33L48.08,58.15L51.52,58.59L58.38,58.11L61.82,63.22L65.25,65.34L68.69,65.29L72.12,69.2L75.56,71.09L78.99,70.81L82.42,75.3L85.86,75.3L89.29,77.3L92.73,77.66L96.16,77.25L99.6,79.69L103.03,80.22L106.46,81.78L109.9,85.2L113.33,84.18L116.77,88.67L120.2,86.92L123.64,86.66L127.07,91.86L130.51,91.05L133.94,94.44L137.37,95.39L140.81,97.62L144.24,101.98L147.68,102.19L151.11,105.72L154.55,106.02L157.98,103.79L161.41,112.47L164.85,112.62L171.72,112.68L175.15,117.48L178.59,124.65L182.02,121.64L185.45,123.06L188.89,123.1L192.32,122.95L195.76,124.19L199.19,126L202.63,125.91L206.06,130.7L209.49,130.91L212.93,133.71L216.36,134.36L226.67,133.92L230.1,139.27L233.54,138.49L236.97,144.91L243.84,148.94L247.27,148.94L250.71,150.7L254.14,150.03L257.58,150.54L261.01,158.37L267.88,159.03L271.31,163.29L274.75,163.29L278.18,164.53L281.62,167.37L285.05,167.31L288.48,170.6L291.92,170.65L295.35,174.97L298.79,174.97L302.22,177.6L305.66,177.61L309.09,178.7L312.53,182.91L315.96,184.65L319.39,185.04L322.83,190.8L326.26,189.94L329.7,193.71L333.13,195.05L336.57,195.17L340,196.49" style="vector-effect: non-scaling-stroke; fill: none; stroke: rgb(36, 140, 140); stroke-opacity: 1; stroke-width: 1px; opacity: 1;"/></g><g class="points"/><g class="text"/></g><g class="trace scatter trace0774c9" style="stroke-miterlimit: 2; opacity: 1;"><g class="fills"/><g class="errorbars"/><g class="lines"><path class="js-line" d="M0,129.29L340,104.87" style="vector-effect: non-scaling-stroke; fill: none; stroke: rgb(34, 144, 140); stroke-opacity: 1; stroke-width: 1px; opacity: 1;"/></g><g class="points"/><g class="text"/></g><g class="trace scatter trace2b0427" style="stroke-miterlimit: 2; opacity: 1;"><g class="fills"/><g class="errorbars"/><g class="lines"><path class="js-line" d="M0,145.45L51.52,137.47L54.95,137.24L65.25,135.39L68.69,134.99L89.29,131.7L92.73,131.25L175.15,118.4L178.59,118.48L185.45,117.29L188.89,116.68L209.49,113.18L212.93,112.87L216.36,112.02L219.8,112L236.97,109.11L240.4,108.6L281.62,102.3L285.05,101.45L298.79,100.17L302.22,99.06L340,93.31" style="vector-effect: non-scaling-stroke; fill: none; stroke: rgb(33, 148, 139); stroke-opacity: 1; stroke-width: 1px; opacity: 1;"/></g><g class="points"/><g class="text"/></g><g class="trace scatter trace6b33ca" style="stroke-miterlimit: 2; opacity: 1;"><g class="fills"/><g class="errorbars"/><g class="lines"><path class="js-line" d="M0,140.68L164.85,119.33L168.28,118.45L175.15,118.13L178.59,117.38L185.45,116.71L188.89,116.17L236.97,109.95L240.4,109.47L257.58,107.29L261.01,106.83L312.53,100.22L315.96,99.67L336.57,97.01L340,96.4" style="vector-effect: non-scaling-stroke; fill: none; stroke: rgb(32, 153, 138); stroke-opacity: 1; stroke-width: 1px; opacity: 1;"/></g><g class="points"/><g class="text"/></g><g class="trace scatter tracebb5555" style="stroke-miterlimit: 2; opacity: 1;"><g class="fills"/><g class="errorbars"/><g class="lines"><path class="js-line" d="M0,161.56L17.17,158.04L20.61,156.58L27.47,155.14L30.91,154.86L51.52,149.99L54.95,149.4L78.99,143L82.42,141.84L89.29,141.19L92.73,140.45L109.9,136.2L113.33,135.47L127.07,132.37L130.51,131.08L137.37,129.91L140.81,128.96L147.68,127.67L151.11,126.46L164.85,123.53L168.28,122.09L175.15,121.34L178.59,120.63L185.45,117.95L188.89,117.71L206.06,114.47L209.49,112.63L216.36,111.6L219.8,110.75L230.1,108.48L233.54,107.48L236.97,107.27L240.4,106.22L243.84,105.04L247.27,105.04L254.14,102.67L257.58,101.82L271.31,99.19L274.75,99.19L278.18,97.43L281.62,96.52L295.35,93.3L298.79,93.3L302.22,91.69L305.66,91.45L312.53,89.02L315.96,88.62L336.57,84.27L340,83.06" style="vector-effect: non-scaling-stroke; fill: none; stroke: rgb(31, 158, 137); stroke-opacity: 1; stroke-width: 1px; opacity: 1;"/></g><g class="points"/><g class="text"/></g><g class="trace scatter trace8fa503" style="stroke-miterlimit: 2; opacity: 1;"><g class="fills"/><g class="errorbars"/><g class="lines"><path class="js-line" d="M0,177.07L6.87,176.37L10.3,174.8L13.74,174.03L17.17,172.32L24.04,170.71L27.47,168.73L37.78,168.24L41.21,165.24L44.65,164.69L48.08,161.54L51.52,161.63L54.95,160.68L58.38,160.13L61.82,157.54L65.25,157.65L68.69,156.86L72.12,155.36L75.56,155.56L82.42,151.01L85.86,151.01L89.29,150.55L92.73,149.27L96.16,149.2L99.6,147.76L103.03,145.67L106.46,145.32L109.9,143.88L113.33,143.68L116.77,141.95L120.2,142L137.37,134.83L140.81,135.26L151.11,132.06L154.55,131.11L161.41,128.49L164.85,128.41L168.28,124.9L171.72,124.9L175.15,127.57L178.59,125.81L182.02,124.16L185.45,120.7L192.32,120.23L195.76,118.9L202.63,118.82L206.06,116.15L209.49,114.47L212.93,113.72L216.36,111.89L219.8,112.03L223.23,110.42L226.67,110.31L243.84,105.04L247.27,105.04L250.71,102.82L254.14,102.55L264.44,99.19L267.88,98.91L274.75,98.56L278.18,94.26L285.05,93.52L288.48,92.54L295.35,90.04L298.79,90.04L302.22,87.46L305.66,87.45L309.09,85.33L312.53,85.02L326.26,81.4L329.7,80.03L333.13,78.86L336.57,78.69L340,76.96" style="vector-effect: non-scaling-stroke; fill: none; stroke: rgb(34, 162, 135); stroke-opacity: 1; stroke-width: 1px; opacity: 1;"/></g><g class="points"/><g class="text"/></g><g class="trace scatter trace9141c7" style="stroke-miterlimit: 2; opacity: 1;"><g class="fills"/><g class="errorbars"/><g class="lines"><path class="js-line" d="M0,161.5L3.43,161.66L6.87,160.62L17.17,158.14L20.61,156.47L34.34,154.47L37.78,152.43L41.21,152.82L44.65,150.95L65.25,147.48L68.69,145.88L72.12,146.07L75.56,145.05L78.99,141.74L82.42,140.71L89.29,140.7L92.73,138.27L96.16,138.94L99.6,138.1L106.46,137.13L109.9,135.52L113.33,136.06L116.77,133.64L120.2,133.72L123.64,132.71L130.51,131.63L133.94,130.51L144.24,127.9L147.68,126.67L151.11,124.68L154.55,126.15L157.98,125.3L161.41,123.11L164.85,123.11L168.28,121.62L175.15,121.43L178.59,118.84L185.45,117.41L188.89,117.3L192.32,117.14L195.76,116.06L199.19,116.53L202.63,115.67L209.49,114.35L212.93,112.22L216.36,110.58L219.8,111.17L223.23,108.94L226.67,109.17L230.1,108.79L233.54,107.04L236.97,106.98L240.4,105.48L243.84,104.21L247.27,104.21L250.71,103.25L254.14,103.92L257.58,100.86L261.01,100.64L264.44,99.52L267.88,99.3L271.31,98.03L274.75,98.03L288.48,94.28L291.92,93.95L295.35,92.46L298.79,92.46L302.22,90.12L305.66,90.24L309.09,90.76L312.53,88.53L315.96,87.32L319.39,87.83L326.26,84.48L329.7,84.37L333.13,82.83L336.57,83.26L340,82.97" style="vector-effect: non-scaling-stroke; fill: none; stroke: rgb(38, 166, 132); stroke-opacity: 1; stroke-width: 1px; opacity: 1;"/></g><g class="points"/><g class="text"/></g><g class="trace scatter traceac5ce9" style="stroke-miterlimit: 2; opacity: 1;"><g class="fills"/><g class="errorbars"/><g class="lines"><path class="js-line" d="M0,133.93L48.08,129.32L51.52,128.96L61.82,128.08L65.25,127.71L130.51,121.56L133.94,121.16L178.59,116.79L182.02,116.49L226.67,112.28L230.1,111.89L271.31,107.92L274.75,107.92L281.62,106.97L285.05,106.83L295.35,105.6L298.79,105.6L309.09,104.39L312.53,103.94L340,101.47" style="vector-effect: non-scaling-stroke; fill: none; stroke: rgb(41, 170, 130); stroke-opacity: 1; stroke-width: 1px; opacity: 1;"/></g><g class="points"/><g class="text"/></g><g class="trace scatter trace236994" style="stroke-miterlimit: 2; opacity: 1;"><g class="fills"/><g class="errorbars"/><g class="lines"><path class="js-line" d="M0,150.24L37.78,143.57L41.21,143.02L72.12,137.58L75.56,136.96L92.73,133.79L96.16,133.25L164.85,121.13L168.28,119.93L175.15,119.2L178.59,118.75L219.8,111.44L223.23,110.69L236.97,108.38L240.4,107.74L295.35,97.92L298.79,97.92L305.66,96.27L309.09,95.49L315.96,94.23L319.39,93.91L333.13,91.26L336.57,90.62L340,90.01" style="vector-effect: non-scaling-stroke; fill: none; stroke: rgb(45, 174, 127); stroke-opacity: 1; stroke-width: 1px; opacity: 1;"/></g><g class="points"/><g class="text"/></g><g class="trace scatter tracea9a1cc" style="stroke-miterlimit: 2; opacity: 1;"><g class="fills"/><g class="errorbars"/><g class="lines"><path class="js-line" d="M0,162.97L6.87,160.45L10.3,160.57L13.74,160.42L17.17,158.34L20.61,158.52L24.04,156.73L34.34,154.3L37.78,153.16L41.21,152.46L44.65,149.98L48.08,152.35L51.52,150.48L54.95,149.82L58.38,150.01L61.82,146.2L65.25,146.92L72.12,147.1L75.56,145.02L78.99,144.24L82.42,142.31L85.86,142.31L89.29,140.86L96.16,141.03L99.6,139.15L106.46,137.15L109.9,136.86L113.33,135.41L116.77,135.23L120.2,134.31L123.64,131.51L137.37,129.34L140.81,127.86L147.68,128.38L151.11,125.75L154.55,125.48L157.98,123.93L161.41,122.04L164.85,122L171.72,121.94L175.15,119.47L178.59,118.75L182.02,116.73L185.45,117.22L188.89,116.57L192.32,115.35L195.76,115.05L202.63,115.45L206.06,112.9L209.49,113.08L212.93,112L216.36,110.95L219.8,110.79L226.67,108.9L230.1,107.44L233.54,109.57L236.97,107.45L243.84,101.73L247.27,101.73L254.14,101.73L257.58,102.06L264.44,99.45L267.88,99.39L271.31,97.54L274.75,97.54L278.18,95.24L281.62,94.43L285.05,93.2L288.48,93.86L291.92,93.44L295.35,91L298.79,91L302.22,89.14L305.66,89.19L309.09,87.17L315.96,87.59L319.39,84.39L326.26,83.64L329.7,82.48L336.57,82.73L340,80.13" style="vector-effect: non-scaling-stroke; fill: none; stroke: rgb(96, 200, 96); stroke-opacity: 1; stroke-width: 1px; opacity: 1;"/></g><g class="points"/><g class="text"/></g><g class="trace scatter trace5b88fa" style="stroke-miterlimit: 2; opacity: 1;"><g class="fills"/><g class="errorbars"/><g class="lines"><path class="js-line" d="M0,91.89L3.43,93.14L6.87,93.18L10.3,94.85L13.74,94.89L34.34,97.36L37.78,98.64L44.65,98.8L48.08,100.6L72.12,102.84L75.56,103.37L92.73,106.06L96.16,106.73L99.6,106.96L103.03,106.23L106.46,107.73L109.9,108.09L116.77,108.86L120.2,109.25L123.64,110.69L127.07,110.08L130.51,110.29L133.94,111.45L140.81,112L144.24,113.24L154.55,113.85L157.98,114.64L164.85,114.81L168.28,115.84L178.59,115.73L182.02,117.02L188.89,117.49L192.32,117.5L209.49,119.94L212.93,120.05L226.67,120.44L230.1,121.11L233.54,122.4L236.97,121.79L250.71,123.4L254.14,124.21L257.58,123.94L261.01,124.71L267.88,124.43L271.31,124.79L278.18,125.05L281.62,125.68L285.05,125.63L288.48,126.34L298.79,125.74L302.22,126.68L309.09,126.89L312.53,128.74L319.39,128.54L322.83,129.26L329.7,129.16L333.13,130.17L340,129.71" style="vector-effect: non-scaling-stroke; fill: none; stroke: rgb(105, 204, 91); stroke-opacity: 1; stroke-width: 1px; opacity: 1;"/></g><g class="points"/><g class="text"/></g><g class="trace scatter tracec4bee3" style="stroke-miterlimit: 2; opacity: 1;"><g class="fills"/><g class="errorbars"/><g class="lines"><path class="js-line" d="M0,133.45L85.86,125.4L89.29,125.12L109.9,123.2L113.33,122.89L151.11,119.24L154.55,119.06L233.54,111.72L236.97,111.44L295.35,105.89L298.79,105.89L309.09,104.61L312.53,104.21L336.57,102.13L340,101.75" style="vector-effect: non-scaling-stroke; fill: none; stroke: rgb(115, 207, 85); stroke-opacity: 1; stroke-width: 1px; opacity: 1;"/></g><g class="points"/><g class="text"/></g><g class="trace scatter tracea65713" style="stroke-miterlimit: 2; opacity: 1;"><g class="fills"/><g class="errorbars"/><g class="lines"><path class="js-line" d="M0,152.28L17.17,149.15L20.61,149.29L24.04,148.71L27.47,147.25L37.78,146.15L41.21,144.97L51.52,143.2L54.95,142.47L65.25,141.95L68.69,140.81L72.12,140.84L75.56,139.55L78.99,137.96L82.42,137.64L85.86,137.64L89.29,136.79L96.16,135.75L99.6,135.45L113.33,132.93L116.77,132.01L120.2,131.42L123.64,131.74L127.07,130.19L130.51,129.84L137.37,127.96L140.81,128.53L144.24,126.77L147.68,126.39L157.98,124.72L161.41,123.61L164.85,123.64L168.28,122.33L175.15,122.37L178.59,120.26L202.63,117.72L206.06,115.1L209.49,114.53L212.93,115L216.36,113.66L219.8,113.71L223.23,112.67L226.67,112.71L233.54,110.54L236.97,111.37L240.4,109.67L243.84,109.42L247.27,109.42L250.71,107.69L257.58,106.26L261.01,106.05L264.44,104.95L267.88,104.92L274.75,104.41L278.18,102.39L281.62,101.38L285.05,101.18L288.48,99.98L291.92,100.59L295.35,99.28L298.79,99.28L302.22,97.89L305.66,97.86L309.09,97.25L312.53,95.24L315.96,94.36L319.39,94.48L322.83,93.56L326.26,94.04L329.7,91.88L333.13,91.89L336.57,91.79L340,90.9" style="vector-effect: non-scaling-stroke; fill: none; stroke: rgb(126, 210, 78); stroke-opacity: 1; stroke-width: 1px; opacity: 1;"/></g><g class="points"/><g class="text"/></g><g class="trace scatter trace14591d" style="stroke-miterlimit: 2; opacity: 1;"><g class="fills"/><g class="errorbars"/><g class="lines"><path class="js-line" d="M0,218.41L10.3,211.67L13.74,211.46L17.17,211.88L20.61,208.4L24.04,208.12L27.47,203.97L30.91,201.9L34.34,198.19L37.78,194.9L41.21,195.22L44.65,194.34L48.08,192.63L54.95,190.18L58.38,189.47L61.82,188.74L65.25,188.98L68.69,188.56L72.12,185.97L75.56,186.46L78.99,181.82L82.42,177.48L85.86,177.48L89.29,177.29L92.73,176.2L99.6,169.81L103.03,169.57L106.46,168.49L109.9,166.31L113.33,168.35L116.77,166.56L120.2,163.68L123.64,162.95L127.07,161.45L130.51,156.9L133.94,154.37L137.37,153.89L140.81,150.52L144.24,148.45L151.11,145.03L154.55,147.31L157.98,147.3L161.41,142.49L164.85,142.55L168.28,138.46L171.72,138.46L175.15,136.31L178.59,132.8L182.02,130.43L185.45,129.59L188.89,129.69L192.32,129.78L195.76,131.43L199.19,129.5L202.63,129.21L206.06,132.11L209.49,130.62L212.93,128.72L216.36,123.75L219.8,124.76L223.23,124.61L226.67,123.75L230.1,119.58L233.54,118.06L236.97,118.37L243.84,114.27L247.27,114.27L250.71,110.82L254.14,109.22L257.58,106.58L261.01,107.78L264.44,106.04L267.88,105.45L274.75,104.8L278.18,99.64L281.62,98.71L285.05,96.28L288.48,93.59L291.92,93.32L295.35,90.54L298.79,90.54L302.22,86.09L305.66,86.05L309.09,86.07L312.53,85.03L315.96,84.45L319.39,85.08L322.83,82.34L326.26,80.85L329.7,77.68L333.13,77.94L336.57,77.84L340,79.36" style="vector-effect: non-scaling-stroke; fill: none; stroke: rgb(138, 212, 70); stroke-opacity: 1; stroke-width: 1px; opacity: 1;"/></g><g class="points"/><g class="text"/></g><g class="trace scatter trace61f715" style="stroke-miterlimit: 2; opacity: 1;"><g class="fills"/><g class="errorbars"/><g class="lines"><path class="js-line" d="M0,13.6L3.43,17.48L6.87,19.53L10.3,22.29L13.74,22.62L17.17,26.53L20.61,26.58L24.04,30.67L27.47,28.77L30.91,30.43L34.34,30.29L37.78,34.78L41.21,37.29L44.65,39.67L48.08,44.7L54.95,45.05L58.38,45.06L61.82,51.54L65.25,52.08L72.12,59.27L75.56,58.76L78.99,60.14L82.42,63.25L85.86,63.25L89.29,66.82L96.16,68.23L99.6,72.97L103.03,72.42L106.46,74.7L113.33,82.64L116.77,84.11L120.2,88.63L123.64,87.59L130.51,91.29L133.94,96.33L137.37,96.23L140.81,98.92L147.68,99.59L151.11,108.39L154.55,109.06L157.98,113.63L161.41,117.14L164.85,117.17L168.28,115.14L171.72,115.14L175.15,116.45L178.59,123.71L182.02,131.38L185.45,128.63L192.32,128.61L195.76,130.45L199.19,134.53L202.63,134.6L206.06,136.77L209.49,136.1L212.93,141.9L216.36,142.73L219.8,143.89L223.23,147.59L226.67,147.48L230.1,152.93L233.54,152.66L236.97,156.65L243.84,164.57L247.27,164.57L250.71,168.76L254.14,170.61L257.58,171.38L261.01,175.87L264.44,181.34L267.88,181.46L271.31,188.72L274.75,188.72L281.62,191.83L285.05,192.08L288.48,197.77L291.92,198.24L295.35,203.59L298.79,203.59L302.22,212.18L305.66,212.21L309.09,212.4L312.53,215.09L315.96,216.74L319.39,217.02L322.83,223.07L326.26,225.09L329.7,230.21L333.13,228.79L336.57,228.92L340,231.91" style="vector-effect: non-scaling-stroke; fill: none; stroke: rgb(149, 215, 63); stroke-opacity: 1; stroke-width: 1px; opacity: 1;"/></g><g class="points"/><g class="text"/></g><g class="trace scatter trace06b180" style="stroke-miterlimit: 2; opacity: 1;"><g class="fills"/><g class="errorbars"/><g class="lines"><path class="js-line" d="M0,129.24L271.31,109.8L274.75,109.8L285.05,108.78L288.48,108.5L340,104.9" style="vector-effect: non-scaling-stroke; fill: none; stroke: rgb(161, 217, 56); stroke-opacity: 1; stroke-width: 1px; opacity: 1;"/></g><g class="points"/><g class="text"/></g><g class="trace scatter trace886c0d" style="stroke-miterlimit: 2; opacity: 1;"><g class="fills"/><g class="errorbars"/><g class="lines"><path class="js-line" d="M0,146.05L17.17,143.32L20.61,142.69L24.04,142.71L27.47,141.73L85.86,132.65L89.29,132.34L103.03,129.97L106.46,129.47L164.85,120.27L168.28,119.24L175.15,118.66L178.59,118.08L199.19,115.15L202.63,114.61L212.93,112.84L216.36,111.95L226.67,110.54L230.1,110.04L257.58,105.77L261.01,105.22L288.48,100.91L291.92,100.13L298.79,99.89L302.22,98.8L322.83,95.58L326.26,94.98L340,92.91" style="vector-effect: non-scaling-stroke; fill: none; stroke: rgb(172, 220, 49); stroke-opacity: 1; stroke-width: 1px; opacity: 1;"/></g><g class="points"/><g class="text"/></g><g class="trace scatter trace7158da" style="stroke-miterlimit: 2; opacity: 1;"><g class="fills"/><g class="errorbars"/><g class="lines"><path class="js-line" d="M0,140.51L34.34,136.16L37.78,135.74L82.42,129.54L85.86,129.54L199.19,114.88L202.63,114.6L212.93,113.07L216.36,112.59L267.88,106.12L271.31,105.44L274.75,105.44L278.18,104.58L298.79,102.42L302.22,101.53L340,96.67" style="vector-effect: non-scaling-stroke; fill: none; stroke: rgb(184, 222, 43); stroke-opacity: 1; stroke-width: 1px; opacity: 1;"/></g><g class="points"/><g class="text"/></g><g class="trace scatter trace4ce286" style="stroke-miterlimit: 2; opacity: 1;"><g class="fills"/><g class="errorbars"/><g class="lines"><path class="js-line" d="M0,162.45L6.87,160.75L10.3,160.6L13.74,158.94L17.17,158.2L20.61,156.71L24.04,156.75L41.21,152.52L44.65,151.95L51.52,150.28L54.95,149.84L61.82,146.86L65.25,147.19L82.42,142L85.86,142L89.29,140.97L92.73,140.84L106.46,137.36L109.9,136.01L113.33,135.81L116.77,134.75L127.07,132.54L130.51,131.87L137.37,129.92L140.81,129.21L157.98,125.61L161.41,123.72L164.85,123.51L168.28,121.86L171.72,121.86L175.15,121.02L182.02,119.43L185.45,118.3L188.89,117.09L192.32,117.31L206.06,114.33L209.49,112.12L212.93,112.44L216.36,111.31L219.8,109.86L223.23,110.01L243.84,105.24L247.27,105.24L250.71,103.53L254.14,103.21L261.01,101.16L264.44,100.51L271.31,98.67L274.75,98.67L278.18,96.97L281.62,96.16L295.35,93.24L298.79,93.24L302.22,91.54L305.66,91.32L315.96,88.03L319.39,87.79L326.26,85.81L329.7,85.04L336.57,83.93L340,83.13" style="vector-effect: non-scaling-stroke; fill: none; stroke: rgb(195, 224, 42); stroke-opacity: 1; stroke-width: 1px; opacity: 1;"/></g><g class="points"/><g class="text"/></g><g class="trace scatter trace6db120" style="stroke-miterlimit: 2; opacity: 1;"><g class="fills"/><g class="errorbars"/><g class="lines"><path class="js-line" d="M0,173.98L3.43,172.08L6.87,171.88L10.3,171.22L13.74,169.42L24.04,165.98L27.47,166.77L37.78,162.76L41.21,162.39L44.65,162.13L48.08,159.32L58.38,157.28L61.82,156.47L68.69,153.91L72.12,154.32L75.56,151.44L78.99,151.44L82.42,149.2L85.86,149.2L113.33,141.82L116.77,139.69L120.2,139.35L123.64,138.18L130.51,136.09L133.94,134.61L140.81,133.62L144.24,132.47L147.68,131.78L151.11,129.52L154.55,129.54L157.98,128.5L161.41,126.97L164.85,126.81L168.28,124.68L171.72,124.68L175.15,124.02L178.59,122.33L182.02,120.42L185.45,120.22L195.76,117.77L199.19,118.06L202.63,117.54L206.06,114.9L216.36,112.47L219.8,112.53L223.23,109.73L226.67,109.58L230.1,109.13L233.54,107.22L247.27,104.65L250.71,102.88L261.01,99.81L264.44,98.78L267.88,98.65L271.31,97.55L274.75,97.55L278.18,95.41L295.35,90.35L298.79,90.35L302.22,88.52L305.66,88.43L312.53,85.49L315.96,84.66L322.83,82.85L326.26,82.13L336.57,79.66L340,76.63" style="vector-effect: non-scaling-stroke; fill: none; stroke: rgb(207, 225, 41); stroke-opacity: 1; stroke-width: 1px; opacity: 1;"/></g><g class="points"/><g class="text"/></g><g class="trace scatter traceac6ba1" style="stroke-miterlimit: 2; opacity: 1;"><g class="fills"/><g class="errorbars"/><g class="lines"><path class="js-line" d="M0,162.16L3.43,160.64L6.87,160.85L13.74,158.15L17.17,158.04L20.61,155.47L24.04,157.47L27.47,154.65L30.91,154.94L34.34,153.93L37.78,153.79L41.21,153.01L44.65,150.84L48.08,151.59L51.52,150.18L54.95,148.86L58.38,148.37L61.82,145.92L65.25,146.31L78.99,144.04L82.42,142.14L85.86,142.14L89.29,140.5L96.16,139.33L99.6,138.61L109.9,134.8L113.33,135.61L120.2,133.1L123.64,133.04L133.94,129.39L137.37,129.26L140.81,128.7L144.24,126.88L147.68,127.44L151.11,126.1L154.55,125.52L157.98,123.82L164.85,123.15L168.28,121.64L171.72,121.64L175.15,118.44L178.59,118.14L182.02,118.93L188.89,116.7L192.32,116.77L199.19,115.31L202.63,115.25L209.49,112.82L212.93,112.58L219.8,109.6L223.23,110.06L233.54,106.24L236.97,107.48L240.4,105.33L243.84,105.11L247.27,105.11L250.71,103.1L254.14,100.33L257.58,99.59L261.01,101.34L264.44,99.78L267.88,99.6L271.31,98.45L274.75,98.45L278.18,96.82L281.62,95.04L285.05,94.32L288.48,93.51L291.92,93.88L295.35,91.58L298.79,91.58L302.22,90.45L305.66,90.41L309.09,88.71L312.53,87.98L315.96,86.63L319.39,87.68L322.83,84.62L326.26,84.16L329.7,83.09L333.13,84.13L340,82.16" style="vector-effect: non-scaling-stroke; fill: none; stroke: rgb(218, 227, 40); stroke-opacity: 1; stroke-width: 1px; opacity: 1;"/></g><g class="points"/><g class="text"/></g><g class="trace scatter trace1daa50" style="stroke-miterlimit: 2; opacity: 1;"><g class="fills"/><g class="errorbars"/><g class="lines"><path class="js-line" d="M0,134.01L17.17,132.26L20.61,131.91L78.99,126.39L82.42,125.64L92.73,125.06L96.16,124.72L164.85,118.19L168.28,117.5L178.59,116.84L182.02,116.52L206.06,114.2L209.49,114.02L226.67,112.25L230.1,111.96L243.84,110.62L247.27,110.62L254.14,109.72L257.58,109.52L271.31,107.99L274.75,107.99L281.62,106.96L285.05,106.72L336.57,101.54L340,101.46" style="vector-effect: non-scaling-stroke; fill: none; stroke: rgb(230, 228, 39); stroke-opacity: 1; stroke-width: 1px; opacity: 1;"/></g><g class="points"/><g class="text"/></g><g class="trace scatter tracea7e74d" style="stroke-miterlimit: 2; opacity: 1;"><g class="fills"/><g class="errorbars"/><g class="lines"><path class="js-line" d="M0,149.65L13.74,147.5L17.17,146.93L30.91,144.53L34.34,144.03L44.65,141.98L48.08,141.65L61.82,139.13L65.25,138.67L89.29,134.29L92.73,133.86L106.46,131.36L109.9,130.97L123.64,128.31L127.07,127.71L175.15,119.03L178.59,118.84L219.8,111.23L223.23,110.8L226.67,109.77L230.1,109.53L247.27,107.27L250.71,105.99L271.31,102.25L274.75,102.25L285.05,99.82L288.48,99.3L295.35,98.21L298.79,98.21L302.22,96.9L305.66,96.39L340,90.31" style="vector-effect: non-scaling-stroke; fill: none; stroke: rgb(241, 230, 38); stroke-opacity: 1; stroke-width: 1px; opacity: 1;"/></g><g class="points"/><g class="text"/></g><g class="trace scatter trace2c9449" style="stroke-miterlimit: 2; opacity: 1;"><g class="fills"/><g class="errorbars"/><g class="lines"><path class="js-line" d="M0,61.31L6.87,66.32L10.3,66.63L17.17,67.07L20.61,65.09L27.47,70.72L30.91,71.75L34.34,73.87L37.78,74.31L41.21,74.75L44.65,75.98L48.08,79.07L51.52,79.55L68.69,82.67L72.12,85.06L75.56,86.25L78.99,84.88L82.42,87.28L85.86,87.28L92.73,90.22L96.16,89.74L103.03,94.67L106.46,93.12L109.9,95.34L113.33,95.67L116.77,97.35L120.2,97.71L123.64,97.68L127.07,99.1L130.51,101.97L133.94,101.81L137.37,103.69L140.81,104.33L144.24,106.14L147.68,106.81L151.11,106.64L154.55,109.06L161.41,109.17L164.85,109.14L168.28,114.7L171.72,114.7L175.15,116.46L178.59,115.71L182.02,112.81L185.45,118.19L192.32,118.41L195.76,120.71L199.19,117.16L202.63,117.4L209.49,122.94L212.93,122.91L219.8,123.73L223.23,125.67L226.67,125.77L230.1,129.17L240.4,129.57L243.84,130.7L247.27,130.7L250.71,132.37L257.58,132.77L261.01,136.83L264.44,136.14L267.88,136.24L271.31,137.51L274.75,137.51L278.18,142.43L281.62,140.88L285.05,140.86L288.48,144.49L291.92,144.49L295.35,143.09L298.79,143.09L302.22,144.32L309.09,144.93L312.53,146.86L315.96,152.03L319.39,151.91L322.83,154.25L326.26,152.47L329.7,154.56L333.13,151.27L336.57,151.6L340,154.04" style="vector-effect: non-scaling-stroke; fill: none; stroke: rgb(253, 231, 37); stroke-opacity: 1; stroke-width: 1px; opacity: 1;"/></g><g class="points"/><g class="text"/></g><g class="trace scatter trace9a8baf" style="stroke-miterlimit: 2; opacity: 1;"><g class="fills"/><g class="errorbars"/><g class="lines"><path class="js-line" d="M0,170.21L17.17,167.2L20.61,166.94L51.52,161.4L54.95,161.06L75.56,157.9L78.99,156.78L89.29,155.92L92.73,154.56L96.16,154.65L99.6,153.92L109.9,152.42L113.33,152.11L120.2,150.89L123.64,150.32L127.07,150.12L130.51,149.14L133.94,149.19L137.37,148.08L147.68,146.21L151.11,144.56L154.55,145.7L157.98,144.82L171.72,142.69L175.15,142.33L182.02,140.72L185.45,140.42L209.49,137.15L212.93,136.52L219.8,135.42L223.23,135.72L226.67,133.95L230.1,134.36L236.97,132.95L240.4,132.53L247.27,132.2L250.71,130.63L261.01,129.46L264.44,128.96L271.31,128.53L274.75,128.53L278.18,126.74L281.62,126.14L291.92,124.7L295.35,123.58L305.66,122.87L309.09,122.14L312.53,120.94L315.96,121.16L326.26,119.73L329.7,119.21L340,117.59" style="vector-effect: non-scaling-stroke; fill: none; stroke: rgb(169, 169, 169); stroke-opacity: 1; stroke-width: 2px; opacity: 1;"/></g><g class="points"/><g class="text"/></g></g></g><g class="overplot"/><path class="xlines-above crisp" d="M0,0" style="fill: none;"/><path class="ylines-above crisp" d="M0,0" style="fill: none;"/><g class="overlines-above"/><g class="xaxislayer-above"><g class="x3tick"><text text-anchor="middle" x="0" y="1133" transform="translate(132.31,0)" style="font-family: 'Open Sans', verdana, arial, sans-serif; font-size: 12px; fill: rgb(42, 63, 95); fill-opacity: 1; white-space: pre; opacity: 1;">2.45</text></g><g class="x3tick"><text text-anchor="middle" x="0" y="1133" style="font-family: 'Open Sans', verdana, arial, sans-serif; font-size: 12px; fill: rgb(42, 63, 95); fill-opacity: 1; white-space: pre; opacity: 1;" transform="translate(263.08000000000004,0)">2.5</text></g><g class="x3tick"><text text-anchor="middle" x="0" y="1133" style="font-family: 'Open Sans', verdana, arial, sans-serif; font-size: 12px; fill: rgb(42, 63, 95); fill-opacity: 1; white-space: pre; opacity: 1;" transform="translate(393.85,0)">2.55</text></g></g><g class="yaxislayer-above"><g class="y3tick"><text text-anchor="end" x="79" y="4.199999999999999" transform="translate(0,1109.2600000000002)" style="font-family: 'Open Sans', verdana, arial, sans-serif; font-size: 12px; fill: rgb(42, 63, 95); fill-opacity: 1; white-space: pre; opacity: 1;">−0.6</text></g><g class="y3tick"><text text-anchor="end" x="79" y="4.199999999999999" style="font-family: 'Open Sans', verdana, arial, sans-serif; font-size: 12px; fill: rgb(42, 63, 95); fill-opacity: 1; white-space: pre; opacity: 1;" transform="translate(0,1060.5900000000001)">−0.4</text></g><g class="y3tick"><text text-anchor="end" x="79" y="4.199999999999999" style="font-family: 'Open Sans', verdana, arial, sans-serif; font-size: 12px; fill: rgb(42, 63, 95); fill-opacity: 1; white-space: pre; opacity: 1;" transform="translate(0,1011.9200000000001)">−0.2</text></g><g class="y3tick"><text text-anchor="end" x="79" y="4.199999999999999" style="font-family: 'Open Sans', verdana, arial, sans-serif; font-size: 12px; fill: rgb(42, 63, 95); fill-opacity: 1; white-space: pre; opacity: 1;" transform="translate(0,963.2500000000001)">0</text></g><g class="y3tick"><text text-anchor="end" x="79" y="4.199999999999999" style="font-family: 'Open Sans', verdana, arial, sans-serif; font-size: 12px; fill: rgb(42, 63, 95); fill-opacity: 1; white-space: pre; opacity: 1;" transform="translate(0,914.5800000000002)">0.2</text></g><g class="y3tick"><text text-anchor="end" x="79" y="4.199999999999999" style="font-family: 'Open Sans', verdana, arial, sans-serif; font-size: 12px; fill: rgb(42, 63, 95); fill-opacity: 1; white-space: pre; opacity: 1;" transform="translate(0,865.9100000000001)">0.4</text></g></g><g class="overaxes-above"/></g></g><g class="polarlayer"/><g class="smithlayer"/><g class="ternarylayer"/><g class="geolayer"/><g class="funnelarealayer"/><g class="pielayer"/><g class="iciclelayer"/><g class="treemaplayer"/><g class="sunburstlayer"/><g class="glimages"/><defs id="topdefs-d8aa19"><g class="clips"/><clipPath id="legendd8aa19"><rect width="188" height="29" x="0" y="0"/></clipPath></defs><g class="layer-above"><g class="imagelayer"/><g class="shapelayer"/></g><g class="infolayer"><g class="legend" pointer-events="all" transform="translate(232,50.59999999999998)"><rect class="bg" shape-rendering="crispEdges" width="188" height="29" x="0" y="0" style="stroke: rgb(68, 68, 68); stroke-opacity: 1; fill: rgb(255, 255, 255); fill-opacity: 1; stroke-width: 0px;"/><g class="scrollbox" transform="" clip-path="url(#legendd8aa19)"><g class="groups"><g class="traces" transform="translate(0,14.5)" style="opacity: 1;"><text class="legendtext" text-anchor="start" x="40" y="4.680000000000001" style="font-family: 'Open Sans', verdana, arial, sans-serif; font-size: 12px; fill: rgb(42, 63, 95); fill-opacity: 1; white-space: pre;">Population Log-likelihood</text><g class="layers" style="opacity: 1;"><g class="legendfill"/><g class="legendlines"><path class="js-line" d="M5,0h30" style="fill: none; stroke: rgb(169, 169, 169); stroke-opacity: 1; stroke-width: 2px;"/></g><g class="legendsymbols"><g class="legendpoints"/></g></g><rect class="legendtoggle" x="0" y="-9.5" width="184.703125" height="19" style="fill: rgb(0, 0, 0); fill-opacity: 0;"/></g></g></g><rect class="scrollbar" rx="20" ry="3" width="0" height="0" x="0" y="0" style="fill: rgb(128, 139, 164); fill-opacity: 1;"/></g><g class="g-gtitle"/><g class="g-xtitle"/><g class="g-x2title"/><g class="g-x3title"/><g class="g-ytitle"/><g class="g-y2title"/><g class="g-y3title"/></g></svg>