<svg class="main-svg" xmlns="http://www.w3.org/2000/svg" xmlns:xlink="http://www.w3.org/1999/xlink" width="500" height="1200" style="" viewBox="0 0 500 1200"><rect x="0" y="0" width="500" height="1200" style="fill: rgb(255, 255, 255); fill-opacity: 1;"/><defs id="defs-848fc1"><g class="clips"><clipPath id="clip848fc1xyplot" class="plotclip"><rect width="287" height="272.00000000000006"/></clipPath><clipPath id="clip848fc1x2y2plot" class="plotclip"><rect width="287" height="272"/></clipPath><clipPath id="clip848fc1x3y3plot" class="plotclip"><rect width="287" height="272"/></clipPath><clipPath class="axesclip" id="clip848fc1x"><rect x="133" y="0" width="287" height="1200"/></clipPath><clipPath class="axesclip" id="clip848fc1y"><rect x="0" y="100" width="500" height="272.00000000000006"/></clipPath><clipPath class="axesclip" id="clip848fc1xy"><rect x="133" y="100" width="287" height="272.00000000000006"/></clipPath><clipPath class="axesclip" id="clip848fc1y2"><rect x="0" y="474.00000000000006" width="500" height="272"/></clipPath><clipPath class="axesclip" id="clip848fc1xy2"><rect x="133" y="474.00000000000006" width="287" height="272"/></clipPath><clipPath class="axesclip" id="clip848fc1y3"><rect x="0" y="848.0000000000001" width="500" height="272"/></clipPath><clipPath class="axesclip" id="clip848fc1xy3"><rect x="133" y="848.0000000000001" width="287" height="272"/></clipPath><clipPath class="axesclip" id="clip848fc1x2"><rect x="133" y="0" width="287" height="1200"/></clipPath><clipPath class="axesclip" id="clip848fc1x2y"><rect x="133" y="100" width="287" height="272.00000000000006"/></clipPath><clipPath class="axesclip" id="clip848fc1x2y2"><rect x="133" y="474.00000000000006" width="287" height="272"/></clipPath><clipPath class="axesclip" id="clip848fc1x2y3"><rect x="133" y="848.0000000000001" width="287" height="272"/></clipPath><clipPath class="axesclip" id="clip848fc1x3"><rect x="133" y="0" width="287" height="1200"/></clipPath><clipPath class="axesclip" id="clip848fc1x3y"><rect x="133" y="100" width="287" height="272.00000000000006"/></clipPath><clipPath class="axesclip" id="clip848fc1x3y2"><rect x="133" y="474.00000000000006" width="287" height="272"/></clipPath><clipPath class="axesclip" id="clip848fc1x3y3"><rect x="133" y="848.0000000000001" width="287" height="272"/></clipPath></g><g class="gradients"/><g class="patterns"/></defs><g class="bglayer"/><g class="layer-below"><g class="imagelayer"/><g class="shapelayer"/></g><g class="cartesianlayer"><g class="subplot xy"><g class="layer-subplot"><g class="shapelayer"/><g class="imagelayer"/></g><g class="minor-gridlayer"><g class="x"/><g class="y"/></g><g class="gridlayer"><g class="x"><path class="xgrid crisp" transform="translate(157.32,0)" d="M0,100v272.00000000000006" style="stroke: rgb(235, 240, 248); stroke-opacity: 1; stroke-width: 1px;"/><path class="xgrid crisp" transform="translate(243.87,0)" d="M0,100v272.00000000000006" style="stroke: rgb(235, 240, 248); stroke-opacity: 1; stroke-width: 1px;"/><path class="xgrid crisp" transform="translate(330.43,0)" d="M0,100v272.00000000000006" style="stroke: rgb(235, 240, 248); stroke-opacity: 1; stroke-width: 1px;"/><path class="xgrid crisp" transform="translate(416.98,0)" d="M0,100v272.00000000000006" style="stroke: rgb(235, 240, 248); stroke-opacity: 1; stroke-width: 1px;"/></g><g class="y"><path class="ygrid crisp" transform="translate(0,353.40999999999997)" d="M133,0h287" style="stroke: rgb(235, 240, 248); stroke-opacity: 1; stroke-width: 1px;"/><path class="ygrid crisp" transform="translate(0,305.56)" d="M133,0h287" style="stroke: rgb(235, 240, 248); stroke-opacity: 1; stroke-width: 1px;"/><path class="ygrid crisp" transform="translate(0,257.71000000000004)" d="M133,0h287" style="stroke: rgb(235, 240, 248); stroke-opacity: 1; stroke-width: 1px;"/><path class="ygrid crisp" transform="translate(0,209.86)" d="M133,0h287" style="stroke: rgb(235, 240, 248); stroke-opacity: 1; stroke-width: 1px;"/><path class="ygrid crisp" transform="translate(0,162.01)" d="M133,0h287" style="stroke: rgb(235, 240, 248); stroke-opacity: 1; stroke-width: 1px;"/></g></g><g class="zerolinelayer"><path class="yzl zl crisp" transform="translate(0,114.15)" d="M133,0h287" style="stroke: rgb(235, 240, 248); stroke-opacity: 1; stroke-width: 2px;"/></g><path class="xlines-below"/><path class="ylines-below"/><g class="overlines-below"/><g class="xaxislayer-below"/><g class="yaxislayer-below"/><g class="overaxes-below"/><g class="plot" transform="translate(133,100)" clip-path="url(#clip848fc1xyplot)"><g class="scatterlayer mlayer"><g class="trace scatter trace62a5d0" style="stroke-miterlimit: 2; opacity: 1;"><g class="fills"/><g class="errorbars"/><g class="lines"><path class="js-line" d="M0,257.54L14.49,210.71L17.39,201.94L31.89,161.09L34.79,153.52L49.28,118.65L52.18,112.28L63.78,88.77L66.68,83.39L78.27,63.88L81.17,59.5L92.77,43.97L95.67,40.59L104.36,31.64L107.26,29.06L115.96,22.5L118.86,20.71L127.56,16.55L130.45,15.56L139.15,13.79L142.05,13.6L150.75,14.22L153.65,14.83L162.34,17.85L165.24,19.25L173.94,24.67L176.84,26.87L185.54,34.68L188.43,37.68L197.13,47.88L200.03,51.67L211.63,68.87L214.53,73.66L226.12,94.84L229.02,100.63L240.62,125.8L243.52,132.6L258.01,169.54L260.91,177.53L275.4,220.46L278.3,229.65L287,258.4" style="vector-effect: non-scaling-stroke; fill: none; stroke: rgb(51, 34, 136); stroke-opacity: 1; stroke-width: 2px; opacity: 1;"/></g><g class="points"/><g class="text"/></g></g></g><g class="overplot"/><path class="xlines-above crisp" d="M0,0" style="fill: none;"/><path class="ylines-above crisp" d="M0,0" style="fill: none;"/><g class="overlines-above"/><g class="xaxislayer-above"/><g class="yaxislayer-above"><g class="ytick"><text text-anchor="end" x="132" y="4.199999999999999" transform="translate(0,353.40999999999997)" style="font-family: 'Open Sans', verdana, arial, sans-serif; font-size: 12px; fill: rgb(42, 63, 95); fill-opacity: 1; white-space: pre; opacity: 1;">−5</text></g><g class="ytick"><text text-anchor="end" x="132" y="4.199999999999999" style="font-family: 'Open Sans', verdana, arial, sans-serif; font-size: 12px; fill: rgb(42, 63, 95); fill-opacity: 1; white-space: pre; opacity: 1;" transform="translate(0,305.56)">−4</text></g><g class="ytick"><text text-anchor="end" x="132" y="4.199999999999999" style="font-family: 'Open Sans', verdana, arial, sans-serif; font-size: 12px; fill: rgb(42, 63, 95); fill-opacity: 1; white-space: pre; opacity: 1;" transform="translate(0,257.71000000000004)">−3</text></g><g class="ytick"><text text-anchor="end" x="132" y="4.199999999999999" style="font-family: 'Open Sans', verdana, arial, sans-serif; font-size: 12px; fill: rgb(42, 63, 95); fill-opacity: 1; white-space: pre; opacity: 1;" transform="translate(0,209.86)">−2</text></g><g class="ytick"><text text-anchor="end" x="132" y="4.199999999999999" style="font-family: 'Open Sans', verdana, arial, sans-serif; font-size: 12px; fill: rgb(42, 63, 95); fill-opacity: 1; white-space: pre; opacity: 1;" transform="translate(0,162.01)">−1</text></g><g class="ytick"><text text-anchor="end" x="132" y="4.199999999999999" style="font-family: 'Open Sans', verdana, arial, sans-serif; font-size: 12px; fill: rgb(42, 63, 95); fill-opacity: 1; white-space: pre; opacity: 1;" transform="translate(0,114.15)">0</text></g></g><g class="overaxes-above"/></g><g class="subplot x2y2"><g class="layer-subplot"><g class="shapelayer"/><g class="imagelayer"/></g><g class="minor-gridlayer"><g class="x2"/><g class="y2"/></g><g class="gridlayer"><g class="x2"><path class="x2grid crisp" transform="translate(157.32,0)" d="M0,474.00000000000006v272" style="stroke: rgb(235, 240, 248); stroke-opacity: 1; stroke-width: 1px;"/><path class="x2grid crisp" transform="translate(243.87,0)" d="M0,474.00000000000006v272" style="stroke: rgb(235, 240, 248); stroke-opacity: 1; stroke-width: 1px;"/><path class="x2grid crisp" transform="translate(330.43,0)" d="M0,474.00000000000006v272" style="stroke: rgb(235, 240, 248); stroke-opacity: 1; stroke-width: 1px;"/><path class="x2grid crisp" transform="translate(416.98,0)" d="M0,474.00000000000006v272" style="stroke: rgb(235, 240, 248); stroke-opacity: 1; stroke-width: 1px;"/></g><g class="y2"><path class="y2grid crisp" transform="translate(0,733.1300000000001)" d="M133,0h287" style="stroke: rgb(235, 240, 248); stroke-opacity: 1; stroke-width: 1px;"/><path class="y2grid crisp" transform="translate(0,695.2800000000001)" d="M133,0h287" style="stroke: rgb(235, 240, 248); stroke-opacity: 1; stroke-width: 1px;"/><path class="y2grid crisp" transform="translate(0,657.47)" d="M133,0h287" style="stroke: rgb(235, 240, 248); stroke-opacity: 1; stroke-width: 1px;"/><path class="y2grid crisp" transform="translate(0,619.5600000000001)" d="M133,0h287" style="stroke: rgb(235, 240, 248); stroke-opacity: 1; stroke-width: 1px;"/><path class="y2grid crisp" transform="translate(0,581.75)" d="M133,0h287" style="stroke: rgb(235, 240, 248); stroke-opacity: 1; stroke-width: 1px;"/><path class="y2grid crisp" transform="translate(0,543.9100000000001)" d="M133,0h287" style="stroke: rgb(235, 240, 248); stroke-opacity: 1; stroke-width: 1px;"/><path class="y2grid crisp" transform="translate(0,506.0300000000001)" d="M133,0h287" style="stroke: rgb(235, 240, 248); stroke-opacity: 1; stroke-width: 1px;"/></g></g><g class="zerolinelayer"/><path class="xlines-below"/><path class="ylines-below"/><g class="overlines-below"/><g class="xaxislayer-below"/><g class="yaxislayer-below"/><g class="overaxes-below"/><g class="plot" transform="translate(133,474.00000000000006)" clip-path="url(#clip848fc1x2y2plot)"><g class="scatterlayer mlayer"><g class="trace scatter tracede79a5" style="stroke-miterlimit: 2; opacity: 1;"><g class="fills"/><g class="errorbars"/><g class="lines"><path class="js-line" d="M2.9,13.59L5.8,258.41L8.7,91.34L11.6,193.53L14.49,37.38L17.39,201.56L20.29,154.97L23.19,37.38L26.09,252.97L28.99,96.75L31.89,84.28L34.79,243.34L37.69,95.16L40.59,103.56L43.48,171.66L46.38,118.63L49.28,164.59L52.18,96.75L55.08,163L57.98,158.84L60.88,115.44L63.78,134.09L66.68,127.31L69.58,162.19L72.47,164.59L75.37,66.25L78.27,186.28L81.17,111.22L84.07,181.47L86.97,116.44L89.87,104L92.77,193.53L95.67,98.56L98.57,154L101.46,145.34L104.36,107.22L107.26,186.28L110.16,101.81L113.06,135.94L115.96,163.41L118.86,115.28L121.76,153.75L124.66,136.31L127.56,126.28L130.45,160L133.35,127.38L136.25,117.72L139.15,167.44L142.05,126.41L144.95,141.22L147.85,126.97L153.65,163.69L156.55,104L159.44,156.16L162.34,126.69L165.24,133.53L168.14,156.16L171.04,111.22L173.94,167.44L176.84,130.06L179.74,126.13L182.64,171.84L185.54,110.63L188.43,111.44L191.33,186.28L194.23,104L197.13,163.81L200.03,113.84L202.93,168.44L205.83,118.84L208.73,126.5L211.63,163.81L214.53,147.56L217.42,113.03L220.32,132.5L223.22,157.84L226.12,118.03L229.02,165.25L231.92,110.63L234.82,177.47L237.72,72.06L240.62,187.72L243.52,134.09L246.41,127.31L249.31,163L252.21,105.81L255.11,125.09L258.01,163L260.91,186.72L263.81,73.03L266.71,139.56L269.61,210.22L272.51,44.13L275.4,134.72L278.3,178.06L284.1,118.63" style="vector-effect: non-scaling-stroke; fill: none; stroke: rgb(51, 34, 136); stroke-opacity: 1; stroke-width: 2px; opacity: 1;"/></g><g class="points"/><g class="text"/></g></g></g><g class="overplot"/><path class="xlines-above crisp" d="M0,0" style="fill: none;"/><path class="ylines-above crisp" d="M0,0" style="fill: none;"/><g class="overlines-above"/><g class="xaxislayer-above"/><g class="yaxislayer-above"><g class="y2tick"><text text-anchor="end" x="132" y="4.199999999999999" transform="translate(0,733.1300000000001)" style="font-family: 'Open Sans', verdana, arial, sans-serif; font-size: 12px; fill: rgb(42, 63, 95); fill-opacity: 1; white-space: pre; opacity: 1;">−371.6285812649</text></g><g class="y2tick"><text text-anchor="end" x="132" y="4.199999999999999" style="font-family: 'Open Sans', verdana, arial, sans-serif; font-size: 12px; fill: rgb(42, 63, 95); fill-opacity: 1; white-space: pre; opacity: 1;" transform="translate(0,695.2800000000001)">−371.6285812648501</text></g><g class="y2tick"><text text-anchor="end" x="132" y="4.199999999999999" style="font-family: 'Open Sans', verdana, arial, sans-serif; font-size: 12px; fill: rgb(42, 63, 95); fill-opacity: 1; white-space: pre; opacity: 1;" transform="translate(0,657.47)">−371.6285812648001</text></g><g class="y2tick"><text text-anchor="end" x="132" y="4.199999999999999" style="font-family: 'Open Sans', verdana, arial, sans-serif; font-size: 12px; fill: rgb(42, 63, 95); fill-opacity: 1; white-space: pre; opacity: 1;" transform="translate(0,619.5600000000001)">−371.6285812647501</text></g><g class="y2tick"><text text-anchor="end" x="132" y="4.199999999999999" style="font-family: 'Open Sans', verdana, arial, sans-serif; font-size: 12px; fill: rgb(42, 63, 95); fill-opacity: 1; white-space: pre; opacity: 1;" transform="translate(0,581.75)">−371.6285812647001</text></g><g class="y2tick"><text text-anchor="end" x="132" y="4.199999999999999" style="font-family: 'Open Sans', verdana, arial, sans-serif; font-size: 12px; fill: rgb(42, 63, 95); fill-opacity: 1; white-space: pre; opacity: 1;" transform="translate(0,543.9100000000001)">−371.6285812646501</text></g><g class="y2tick"><text text-anchor="end" x="132" y="4.199999999999999" style="font-family: 'Open Sans', verdana, arial, sans-serif; font-size: 12px; fill: rgb(42, 63, 95); fill-opacity: 1; white-space: pre; opacity: 1;" transform="translate(0,506.0300000000001)">−371.6285812646001</text></g></g><g class="overaxes-above"/></g><g class="subplot x3y3"><g class="layer-subplot"><g class="shapelayer"/><g class="imagelayer"/></g><g class="minor-gridlayer"><g class="x3"/><g class="y3"/></g><g class="gridlayer"><g class="x3"><path class="x3grid crisp" transform="translate(157.32,0)" d="M0,848.0000000000001v272" style="stroke: rgb(235, 240, 248); stroke-opacity: 1; stroke-width: 1px;"/><path class="x3grid crisp" transform="translate(243.87,0)" d="M0,848.0000000000001v272" style="stroke: rgb(235, 240, 248); stroke-opacity: 1; stroke-width: 1px;"/><path class="x3grid crisp" transform="translate(330.43,0)" d="M0,848.0000000000001v272" style="stroke: rgb(235, 240, 248); stroke-opacity: 1; stroke-width: 1px;"/><path class="x3grid crisp" transform="translate(416.98,0)" d="M0,848.0000000000001v272" style="stroke: rgb(235, 240, 248); stroke-opacity: 1; stroke-width: 1px;"/></g><g class="y3"><path class="y3grid crisp" transform="translate(0,1067.2600000000002)" d="M133,0h287" style="stroke: rgb(235, 240, 248); stroke-opacity: 1; stroke-width: 1px;"/><path class="y3grid crisp" transform="translate(0,909.3400000000001)" d="M133,0h287" style="stroke: rgb(235, 240, 248); stroke-opacity: 1; stroke-width: 1px;"/></g></g><g class="zerolinelayer"><path class="y3zl zl crisp" transform="translate(0,988.3000000000002)" d="M133,0h287" style="stroke: rgb(235, 240, 248); stroke-opacity: 1; stroke-width: 2px;"/></g><path class="xlines-below"/><path class="ylines-below"/><g class="overlines-below"/><g class="xaxislayer-below"/><g class="yaxislayer-below"/><g class="overaxes-below"/><g class="plot" transform="translate(133,848.0000000000001)" clip-path="url(#clip848fc1x3y3plot)"><g class="scatterlayer mlayer"><g class="trace scatter trace4790af" style="stroke-miterlimit: 2; opacity: 1;"><g class="fills"/><g class="errorbars"/><g class="lines"><path class="js-line" d="M0,155.39L43.48,149.09L46.38,148.73L86.97,144.37L89.87,144.11L133.35,141.06L136.25,140.92L173.94,139.63L176.84,139.58L220.32,139.67L223.22,139.74L260.91,141.17L263.81,141.33L287,142.86" style="vector-effect: non-scaling-stroke; fill: none; stroke: rgb(68, 1, 84); stroke-opacity: 1; stroke-width: 1px; opacity: 1;"/></g><g class="points"/><g class="text"/></g><g class="trace scatter trace94334f" style="stroke-miterlimit: 2; opacity: 1;"><g class="fills"/><g class="errorbars"/><g class="lines"><path class="js-line" d="M0,150.7L52.18,145.65L55.08,145.41L107.26,141.98L110.16,141.83L162.34,140.02L165.24,139.96L217.42,139.76L220.32,139.79L272.51,141.21L275.4,141.33L287,141.87" style="vector-effect: non-scaling-stroke; fill: none; stroke: rgb(69, 7, 90); stroke-opacity: 1; stroke-width: 1px; opacity: 1;"/></g><g class="points"/><g class="text"/></g><g class="trace scatter trace2a03cd" style="stroke-miterlimit: 2; opacity: 1;"><g class="fills"/><g class="errorbars"/><g class="lines"><path class="js-line" d="M0,155.3L40.59,149.27L43.48,148.89L84.07,144.43L86.97,144.16L130.45,141.13L133.35,140.98L176.84,139.74L179.74,139.72L223.22,140.28L226.12,140.38L269.61,142.74L272.51,142.96L287,144.16" style="vector-effect: non-scaling-stroke; fill: none; stroke: rgb(69, 14, 96); stroke-opacity: 1; stroke-width: 1px; opacity: 1;"/></g><g class="points"/><g class="text"/></g><g class="trace scatter trace4056ce" style="stroke-miterlimit: 2; opacity: 1;"><g class="fills"/><g class="errorbars"/><g class="lines"><path class="js-line" d="M0,168.39L28.99,160.24L31.89,159.5L63.78,152.19L66.68,151.6L98.57,146.01L101.46,145.58L133.35,141.71L136.25,141.44L168.14,139.29L171.04,139.18L200.03,138.72L202.93,138.75L234.82,139.9L237.72,140.08L269.61,142.95L272.51,143.29L287,145.18" style="vector-effect: non-scaling-stroke; fill: none; stroke: rgb(70, 20, 101); stroke-opacity: 1; stroke-width: 1px; opacity: 1;"/></g><g class="points"/><g class="text"/></g><g class="trace scatter trace543f53" style="stroke-miterlimit: 2; opacity: 1;"><g class="fills"/><g class="errorbars"/><g class="lines"><path class="js-line" d="M0,147.06L66.68,142.91L69.58,142.77L124.66,140.79L127.56,140.72L191.33,140.08L194.23,140.09L252.21,141.03L255.11,141.12L287,142.27" style="vector-effect: non-scaling-stroke; fill: none; stroke: rgb(71, 26, 107); stroke-opacity: 1; stroke-width: 1px; opacity: 1;"/></g><g class="points"/><g class="text"/></g><g class="trace scatter tracef71587" style="stroke-miterlimit: 2; opacity: 1;"><g class="fills"/><g class="errorbars"/><g class="lines"><path class="js-line" d="M0,150.06L49.28,145.48L52.18,145.25L101.46,142.09L104.36,141.95L156.55,140.17L159.44,140.11L211.63,139.92L214.53,139.96L266.71,141.37L269.61,141.49L287,142.33" style="vector-effect: non-scaling-stroke; fill: none; stroke: rgb(71, 32, 113); stroke-opacity: 1; stroke-width: 1px; opacity: 1;"/></g><g class="points"/><g class="text"/></g><g class="trace scatter traceb038ca" style="stroke-miterlimit: 2; opacity: 1;"><g class="fills"/><g class="errorbars"/><g class="lines"><path class="js-line" d="M0,148.06L57.98,143.79L60.88,143.62L121.76,140.95L124.66,140.86L179.74,140.04L182.64,140.03L237.72,140.72L240.62,140.8L287,142.56" style="vector-effect: non-scaling-stroke; fill: none; stroke: rgb(72, 39, 119); stroke-opacity: 1; stroke-width: 1px; opacity: 1;"/></g><g class="points"/><g class="text"/></g><g class="trace scatter trace80fba1" style="stroke-miterlimit: 2; opacity: 1;"><g class="fills"/><g class="errorbars"/><g class="lines"><path class="js-line" d="M0,155.04L46.38,148.43L49.28,148.08L92.77,143.66L95.67,143.43L139.15,140.73L142.05,140.61L182.64,139.65L185.54,139.63L231.92,140.38L234.82,140.48L278.3,142.96L281.2,143.18L287,143.64" style="vector-effect: non-scaling-stroke; fill: none; stroke: rgb(71, 44, 122); stroke-opacity: 1; stroke-width: 1px; opacity: 1;"/></g><g class="points"/><g class="text"/></g><g class="trace scatter tracea54f72" style="stroke-miterlimit: 2; opacity: 1;"><g class="fills"/><g class="errorbars"/><g class="lines"><path class="js-line" d="M0,148.38L49.28,144.49L52.18,144.3L113.06,141.26L115.96,141.16L168.14,140.08L171.04,140.06L229.02,140.53L231.92,140.6L287,142.66" style="vector-effect: non-scaling-stroke; fill: none; stroke: rgb(69, 49, 125); stroke-opacity: 1; stroke-width: 1px; opacity: 1;"/></g><g class="points"/><g class="text"/></g><g class="trace scatter tracee1884c" style="stroke-miterlimit: 2; opacity: 1;"><g class="fills"/><g class="errorbars"/><g class="lines"><path class="js-line" d="M0,147.67L57.98,143.62L60.88,143.45L118.86,141L121.76,140.91L179.74,140.05L182.64,140.05L240.62,140.78L243.52,140.85L287,142.45" style="vector-effect: non-scaling-stroke; fill: none; stroke: rgb(68, 55, 128); stroke-opacity: 1; stroke-width: 1px; opacity: 1;"/></g><g class="points"/><g class="text"/></g><g class="trace scatter trace5279c5" style="stroke-miterlimit: 2; opacity: 1;"><g class="fills"/><g class="errorbars"/><g class="lines"><path class="js-line" d="M0,145.96L69.58,142.37L72.47,142.26L139.15,140.45L142.05,140.41L208.73,140.21L211.63,140.23L278.3,141.64L281.2,141.74L287,141.94" style="vector-effect: non-scaling-stroke; fill: none; stroke: rgb(66, 60, 130); stroke-opacity: 1; stroke-width: 1px; opacity: 1;"/></g><g class="points"/><g class="text"/></g><g class="trace scatter trace21a2c5" style="stroke-miterlimit: 2; opacity: 1;"><g class="fills"/><g class="errorbars"/><g class="lines"><path class="js-line" d="M0,148.09L52.18,144.16L55.08,143.98L115.96,141.13L118.86,141.04L173.94,140.06L176.84,140.04L237.72,140.73L240.62,140.81L287,142.58" style="vector-effect: non-scaling-stroke; fill: none; stroke: rgb(64, 65, 133); stroke-opacity: 1; stroke-width: 1px; opacity: 1;"/></g><g class="points"/><g class="text"/></g><g class="trace scatter trace6de9fc" style="stroke-miterlimit: 2; opacity: 1;"><g class="fills"/><g class="errorbars"/><g class="lines"><path class="js-line" d="M0,151.69L49.28,146.24L52.18,145.98L95.67,142.64L98.57,142.47L144.95,140.44L147.85,140.36L194.23,139.91L197.13,139.93L240.62,140.93L243.52,141.04L287,143.44" style="vector-effect: non-scaling-stroke; fill: none; stroke: rgb(63, 71, 136); stroke-opacity: 1; stroke-width: 1px; opacity: 1;"/></g><g class="points"/><g class="text"/></g><g class="trace scatter trace0676bd" style="stroke-miterlimit: 2; opacity: 1;"><g class="fills"/><g class="errorbars"/><g class="lines"><path class="js-line" d="M0,151.98L43.48,146.95L46.38,146.66L92.77,142.88L95.67,142.69L142.05,140.52L144.95,140.44L191.33,139.9L194.23,139.91L237.72,140.88L240.62,140.99L287,143.59" style="vector-effect: non-scaling-stroke; fill: none; stroke: rgb(61, 76, 137); stroke-opacity: 1; stroke-width: 1px; opacity: 1;"/></g><g class="points"/><g class="text"/></g><g class="trace scatter trace5a1717" style="stroke-miterlimit: 2; opacity: 1;"><g class="fills"/><g class="errorbars"/><g class="lines"><path class="js-line" d="M0,151.54L43.48,146.71L46.38,146.44L92.77,142.79L95.67,142.61L144.95,140.44L147.85,140.36L197.13,139.92L200.03,139.95L246.41,141.13L249.31,141.26L287,143.36" style="vector-effect: non-scaling-stroke; fill: none; stroke: rgb(59, 81, 138); stroke-opacity: 1; stroke-width: 1px; opacity: 1;"/></g><g class="points"/><g class="text"/></g><g class="trace scatter tracec1cd89" style="stroke-miterlimit: 2; opacity: 1;"><g class="fills"/><g class="errorbars"/><g class="lines"><path class="js-line" d="M0,150.73L52.18,145.65L55.08,145.42L107.26,141.97L110.16,141.83L162.34,140.02L165.24,139.96L217.42,139.79L220.32,139.82L272.51,141.28L275.4,141.4L287,141.95" style="vector-effect: non-scaling-stroke; fill: none; stroke: rgb(45, 114, 142); stroke-opacity: 1; stroke-width: 1px; opacity: 1;"/></g><g class="points"/><g class="text"/></g><g class="trace scatter traceb6cc6a" style="stroke-miterlimit: 2; opacity: 1;"><g class="fills"/><g class="errorbars"/><g class="lines"><path class="js-line" d="M0,155.65L40.59,149.47L43.48,149.09L86.97,144.26L89.87,144L127.56,141.3L130.45,141.15L171.04,139.8L173.94,139.76L214.53,140.01L217.42,140.09L258.01,141.95L260.91,142.14L287,144.2" style="vector-effect: non-scaling-stroke; fill: none; stroke: rgb(43, 118, 142); stroke-opacity: 1; stroke-width: 1px; opacity: 1;"/></g><g class="points"/><g class="text"/></g><g class="trace scatter trace5db42e" style="stroke-miterlimit: 2; opacity: 1;"><g class="fills"/><g class="errorbars"/><g class="lines"><path class="js-line" d="M0,167.32L34.79,158L37.69,157.31L69.58,150.53L72.47,149.99L104.36,144.9L107.26,144.52L139.15,141.12L142.05,140.89L173.94,139.19L176.84,139.11L208.73,139.09L211.63,139.17L243.52,140.85L246.41,141.08L278.3,144.45L281.2,144.83L287,145.64" style="vector-effect: non-scaling-stroke; fill: none; stroke: rgb(41, 122, 142); stroke-opacity: 1; stroke-width: 1px; opacity: 1;"/></g><g class="points"/><g class="text"/></g><g class="trace scatter trace04a302" style="stroke-miterlimit: 2; opacity: 1;"><g class="fills"/><g class="errorbars"/><g class="lines"><path class="js-line" d="M0,147.27L63.78,143.13L66.68,142.99L121.76,140.88L124.66,140.81L176.84,140.07L179.74,140.06L240.62,140.75L243.52,140.82L287,142.34" style="vector-effect: non-scaling-stroke; fill: none; stroke: rgb(40, 126, 142); stroke-opacity: 1; stroke-width: 1px; opacity: 1;"/></g><g class="points"/><g class="text"/></g><g class="trace scatter trace5ace18" style="stroke-miterlimit: 2; opacity: 1;"><g class="fills"/><g class="errorbars"/><g class="lines"><path class="js-line" d="M0,150.21L52.18,145.33L55.08,145.1L107.26,141.84L110.16,141.7L162.34,140.05L165.24,140.01L217.42,139.98L220.32,140.02L272.51,141.61L275.4,141.74L287,142.33" style="vector-effect: non-scaling-stroke; fill: none; stroke: rgb(38, 130, 142); stroke-opacity: 1; stroke-width: 1px; opacity: 1;"/></g><g class="points"/><g class="text"/></g><g class="trace scatter trace2f2923" style="stroke-miterlimit: 2; opacity: 1;"><g class="fills"/><g class="errorbars"/><g class="lines"><path class="js-line" d="M0,147.9L55.08,143.89L57.98,143.72L113.06,141.2L115.96,141.11L173.94,140.06L176.84,140.05L231.92,140.58L234.82,140.65L287,142.52" style="vector-effect: non-scaling-stroke; fill: none; stroke: rgb(37, 135, 141); stroke-opacity: 1; stroke-width: 1px; opacity: 1;"/></g><g class="points"/><g class="text"/></g><g class="trace scatter trace0720d3" style="stroke-miterlimit: 2; opacity: 1;"><g class="fills"/><g class="errorbars"/><g class="lines"><path class="js-line" d="M0,155.11L40.59,149.23L43.48,148.86L86.97,144.21L89.87,143.96L130.45,141.16L133.35,141.01L173.94,139.71L176.84,139.67L220.32,139.93L223.22,140L263.81,141.78L266.71,141.96L287,143.42" style="vector-effect: non-scaling-stroke; fill: none; stroke: rgb(36, 140, 140); stroke-opacity: 1; stroke-width: 1px; opacity: 1;"/></g><g class="points"/><g class="text"/></g><g class="trace scatter trace567ec4" style="stroke-miterlimit: 2; opacity: 1;"><g class="fills"/><g class="errorbars"/><g class="lines"><path class="js-line" d="M0,148.15L57.98,143.84L60.88,143.66L115.96,141.14L118.86,141.04L173.94,140.05L176.84,140.04L231.92,140.59L234.82,140.66L287,142.6" style="vector-effect: non-scaling-stroke; fill: none; stroke: rgb(34, 144, 140); stroke-opacity: 1; stroke-width: 1px; opacity: 1;"/></g><g class="points"/><g class="text"/></g><g class="trace scatter tracea24d90" style="stroke-miterlimit: 2; opacity: 1;"><g class="fills"/><g class="errorbars"/><g class="lines"><path class="js-line" d="M0,147.99L55.08,143.93L57.98,143.76L113.06,141.21L115.96,141.12L173.94,140.06L176.84,140.05L231.92,140.58L234.82,140.65L287,142.54" style="vector-effect: non-scaling-stroke; fill: none; stroke: rgb(33, 148, 139); stroke-opacity: 1; stroke-width: 1px; opacity: 1;"/></g><g class="points"/><g class="text"/></g><g class="trace scatter trace2a3160" style="stroke-miterlimit: 2; opacity: 1;"><g class="fills"/><g class="errorbars"/><g class="lines"><path class="js-line" d="M0,146.02L69.58,142.39L72.47,142.28L130.45,140.6L133.35,140.55L200.03,140.15L202.93,140.16L266.71,141.3L269.61,141.39L287,141.96" style="vector-effect: non-scaling-stroke; fill: none; stroke: rgb(32, 153, 138); stroke-opacity: 1; stroke-width: 1px; opacity: 1;"/></g><g class="points"/><g class="text"/></g><g class="trace scatter trace867aa8" style="stroke-miterlimit: 2; opacity: 1;"><g class="fills"/><g class="errorbars"/><g class="lines"><path class="js-line" d="M0,148.32L55.08,144.09L57.98,143.91L110.16,141.35L113.06,141.25L168.14,140.08L171.04,140.06L231.92,140.6L234.82,140.67L287,142.65" style="vector-effect: non-scaling-stroke; fill: none; stroke: rgb(31, 158, 137); stroke-opacity: 1; stroke-width: 1px; opacity: 1;"/></g><g class="points"/><g class="text"/></g><g class="trace scatter tracecb53de" style="stroke-miterlimit: 2; opacity: 1;"><g class="fills"/><g class="errorbars"/><g class="lines"><path class="js-line" d="M0,151.34L46.38,146.32L49.28,146.06L95.67,142.57L98.57,142.4L142.05,140.51L144.95,140.43L194.23,139.92L197.13,139.94L240.62,140.91L243.52,141.02L287,143.33" style="vector-effect: non-scaling-stroke; fill: none; stroke: rgb(34, 162, 135); stroke-opacity: 1; stroke-width: 1px; opacity: 1;"/></g><g class="points"/><g class="text"/></g><g class="trace scatter trace1d9f66" style="stroke-miterlimit: 2; opacity: 1;"><g class="fills"/><g class="errorbars"/><g class="lines"><path class="js-line" d="M0,151.47L46.38,146.38L49.28,146.12L92.77,142.76L95.67,142.58L144.95,140.43L147.85,140.36L194.23,139.93L197.13,139.96L240.62,140.97L243.52,141.09L287,143.48" style="vector-effect: non-scaling-stroke; fill: none; stroke: rgb(38, 166, 132); stroke-opacity: 1; stroke-width: 1px; opacity: 1;"/></g><g class="points"/><g class="text"/></g><g class="trace scatter trace1515c9" style="stroke-miterlimit: 2; opacity: 1;"><g class="fills"/><g class="errorbars"/><g class="lines"><path class="js-line" d="M0,151.4L52.18,145.83L55.08,145.57L101.46,142.25L104.36,142.09L147.85,140.36L150.75,140.29L194.23,139.91L197.13,139.93L246.41,141.14L249.31,141.26L287,143.36" style="vector-effect: non-scaling-stroke; fill: none; stroke: rgb(41, 170, 130); stroke-opacity: 1; stroke-width: 1px; opacity: 1;"/></g><g class="points"/><g class="text"/></g><g class="trace scatter trace60f4d2" style="stroke-miterlimit: 2; opacity: 1;"><g class="fills"/><g class="errorbars"/><g class="lines"><path class="js-line" d="M0,142.33L55.08,142.94L57.98,142.93L115.96,141.79L118.86,141.69L173.94,138.92L176.84,138.73L234.82,134.02L237.72,133.74L287,128.3" style="vector-effect: non-scaling-stroke; fill: none; stroke: rgb(45, 174, 127); stroke-opacity: 1; stroke-width: 1px; opacity: 1;"/></g><g class="points"/><g class="text"/></g><g class="trace scatter trace06b01e" style="stroke-miterlimit: 2; opacity: 1;"><g class="fills"/><g class="errorbars"/><g class="lines"><path class="js-line" d="M0,155.56L43.48,149.05L46.38,148.68L86.97,144.25L89.87,143.99L127.56,141.3L130.45,141.15L171.04,139.79L173.94,139.75L214.53,139.99L217.42,140.07L258.01,141.9L260.91,142.09L287,144.12" style="vector-effect: non-scaling-stroke; fill: none; stroke: rgb(96, 200, 96); stroke-opacity: 1; stroke-width: 1px; opacity: 1;"/></g><g class="points"/><g class="text"/></g><g class="trace scatter tracea6075f" style="stroke-miterlimit: 2; opacity: 1;"><g class="fills"/><g class="errorbars"/><g class="lines"><path class="js-line" d="M0,170.47L31.89,160.9L34.79,160.12L66.68,152.41L69.58,151.8L98.57,146.41L101.46,145.95L130.45,142.11L133.35,141.81L165.24,139.37L168.14,139.23L200.03,138.66L202.93,138.69L234.82,139.98L237.72,140.18L269.61,143.33L272.51,143.7L287,145.76" style="vector-effect: non-scaling-stroke; fill: none; stroke: rgb(105, 204, 91); stroke-opacity: 1; stroke-width: 1px; opacity: 1;"/></g><g class="points"/><g class="text"/></g><g class="trace scatter tracee51dbc" style="stroke-miterlimit: 2; opacity: 1;"><g class="fills"/><g class="errorbars"/><g class="lines"><path class="js-line" d="M0,146.95L66.68,142.87L69.58,142.73L133.35,140.59L136.25,140.53L200.03,140.12L202.93,140.14L269.61,141.57L272.51,141.67L287,142.24" style="vector-effect: non-scaling-stroke; fill: none; stroke: rgb(115, 207, 85); stroke-opacity: 1; stroke-width: 1px; opacity: 1;"/></g><g class="points"/><g class="text"/></g><g class="trace scatter trace0a179c" style="stroke-miterlimit: 2; opacity: 1;"><g class="fills"/><g class="errorbars"/><g class="lines"><path class="js-line" d="M0,150.27L55.08,145.13L57.98,144.91L107.26,141.85L110.16,141.71L162.34,140.05L165.24,140.01L217.42,139.98L220.32,140.03L266.71,141.37L269.61,141.5L287,142.35" style="vector-effect: non-scaling-stroke; fill: none; stroke: rgb(126, 210, 78); stroke-opacity: 1; stroke-width: 1px; opacity: 1;"/></g><g class="points"/><g class="text"/></g><g class="trace scatter trace2b3e3c" style="stroke-miterlimit: 2; opacity: 1;"><g class="fills"/><g class="errorbars"/><g class="lines"><path class="js-line" d="M0,147.85L60.88,143.53L63.78,143.37L118.86,141.01L121.76,140.93L179.74,140.04L182.64,140.04L240.62,140.79L243.52,140.87L287,142.51" style="vector-effect: non-scaling-stroke; fill: none; stroke: rgb(138, 212, 70); stroke-opacity: 1; stroke-width: 1px; opacity: 1;"/></g><g class="points"/><g class="text"/></g><g class="trace scatter trace34c940" style="stroke-miterlimit: 2; opacity: 1;"><g class="fills"/><g class="errorbars"/><g class="lines"><path class="js-line" d="M0,154.1L43.48,148.24L46.38,147.9L89.87,143.66L92.77,143.43L136.25,140.82L139.15,140.7L179.74,139.73L182.64,139.71L226.12,140.25L229.02,140.34L269.61,142.31L272.51,142.5L287,143.56" style="vector-effect: non-scaling-stroke; fill: none; stroke: rgb(149, 215, 63); stroke-opacity: 1; stroke-width: 1px; opacity: 1;"/></g><g class="points"/><g class="text"/></g><g class="trace scatter trace6016c7" style="stroke-miterlimit: 2; opacity: 1;"><g class="fills"/><g class="errorbars"/><g class="lines"><path class="js-line" d="M0,148.17L52.18,144.2L55.08,144.02L110.16,141.33L113.06,141.23L173.94,140.05L176.84,140.04L231.92,140.59L234.82,140.66L287,142.6" style="vector-effect: non-scaling-stroke; fill: none; stroke: rgb(161, 217, 56); stroke-opacity: 1; stroke-width: 1px; opacity: 1;"/></g><g class="points"/><g class="text"/></g><g class="trace scatter trace120afc" style="stroke-miterlimit: 2; opacity: 1;"><g class="fills"/><g class="errorbars"/><g class="lines"><path class="js-line" d="M0,147.87L60.88,143.54L63.78,143.38L121.76,140.93L124.66,140.85L179.74,140.04L182.64,140.04L240.62,140.79L243.52,140.87L287,142.52" style="vector-effect: non-scaling-stroke; fill: none; stroke: rgb(172, 220, 49); stroke-opacity: 1; stroke-width: 1px; opacity: 1;"/></g><g class="points"/><g class="text"/></g><g class="trace scatter tracecda234" style="stroke-miterlimit: 2; opacity: 1;"><g class="fills"/><g class="errorbars"/><g class="lines"><path class="js-line" d="M0,146L60.88,142.74L63.78,142.62L130.45,140.6L133.35,140.55L200.03,140.15L202.93,140.16L266.71,141.29L269.61,141.38L287,141.95" style="vector-effect: non-scaling-stroke; fill: none; stroke: rgb(184, 222, 43); stroke-opacity: 1; stroke-width: 1px; opacity: 1;"/></g><g class="points"/><g class="text"/></g><g class="trace scatter trace08ad0a" style="stroke-miterlimit: 2; opacity: 1;"><g class="fills"/><g class="errorbars"/><g class="lines"><path class="js-line" d="M0,148.25L55.08,144.06L57.98,143.88L110.16,141.34L113.06,141.24L173.94,140.05L176.84,140.04L231.92,140.59L234.82,140.66L287,142.63" style="vector-effect: non-scaling-stroke; fill: none; stroke: rgb(195, 224, 42); stroke-opacity: 1; stroke-width: 1px; opacity: 1;"/></g><g class="points"/><g class="text"/></g><g class="trace scatter tracee1a831" style="stroke-miterlimit: 2; opacity: 1;"><g class="fills"/><g class="errorbars"/><g class="lines"><path class="js-line" d="M0,151.6L49.28,146.2L52.18,145.93L98.57,142.45L101.46,142.28L150.75,140.29L153.65,140.22L200.03,139.95L202.93,139.99L246.41,141.15L249.31,141.28L287,143.41" style="vector-effect: non-scaling-stroke; fill: none; stroke: rgb(207, 225, 41); stroke-opacity: 1; stroke-width: 1px; opacity: 1;"/></g><g class="points"/><g class="text"/></g><g class="trace scatter trace7e52df" style="stroke-miterlimit: 2; opacity: 1;"><g class="fills"/><g class="errorbars"/><g class="lines"><path class="js-line" d="M0,152.04L46.38,146.7L49.28,146.41L98.57,142.52L101.46,142.35L147.85,140.36L150.75,140.29L194.23,139.91L197.13,139.93L243.52,141.11L246.41,141.24L287,143.61" style="vector-effect: non-scaling-stroke; fill: none; stroke: rgb(218, 227, 40); stroke-opacity: 1; stroke-width: 1px; opacity: 1;"/></g><g class="points"/><g class="text"/></g><g class="trace scatter trace0189e9" style="stroke-miterlimit: 2; opacity: 1;"><g class="fills"/><g class="errorbars"/><g class="lines"><path class="js-line" d="M0,151.77L46.38,146.56L49.28,146.29L95.67,142.66L98.57,142.48L144.95,140.44L147.85,140.36L197.13,139.92L200.03,139.94L249.31,141.28L252.21,141.41L287,143.44" style="vector-effect: non-scaling-stroke; fill: none; stroke: rgb(230, 228, 39); stroke-opacity: 1; stroke-width: 1px; opacity: 1;"/></g><g class="points"/><g class="text"/></g><g class="trace scatter trace247dde" style="stroke-miterlimit: 2; opacity: 1;"><g class="fills"/><g class="errorbars"/><g class="lines"><path class="js-line" d="M0,141.87L52.18,142.77L55.08,142.77L107.26,142.05L110.16,141.97L162.34,139.62L165.24,139.45L217.42,135.49L220.32,135.22L272.51,129.64L275.4,129.29L287,127.82" style="vector-effect: non-scaling-stroke; fill: none; stroke: rgb(241, 230, 38); stroke-opacity: 1; stroke-width: 1px; opacity: 1;"/></g><g class="points"/><g class="text"/></g><g class="trace scatter trace8834cc" style="stroke-miterlimit: 2; opacity: 1;"><g class="fills"/><g class="errorbars"/><g class="lines"><path class="js-line" d="M0,148.22L52.18,144.23L55.08,144.04L115.96,141.14L118.86,141.05L173.94,140.05L176.84,140.04L231.92,140.59L234.82,140.66L287,142.61" style="vector-effect: non-scaling-stroke; fill: none; stroke: rgb(253, 231, 37); stroke-opacity: 1; stroke-width: 1px; opacity: 1;"/></g><g class="points"/><g class="text"/></g><g class="trace scatter traceaa6dae" style="stroke-miterlimit: 2; opacity: 1;"><g class="fills"/><g class="errorbars"/><g class="lines"><path class="js-line" d="M0,258.4L46.38,224.12L49.28,221.92L95.67,185.64L98.57,183.3L144.95,144.89L147.85,142.42L191.33,104.37L194.23,101.76L237.72,61.61L240.62,58.86L284.1,16.5L287,13.6" style="vector-effect: non-scaling-stroke; fill: none; stroke: rgb(169, 169, 169); stroke-opacity: 1; stroke-width: 2px; opacity: 1;"/></g><g class="points"/><g class="text"/></g></g></g><g class="overplot"/><path class="xlines-above crisp" d="M0,0" style="fill: none;"/><path class="ylines-above crisp" d="M0,0" style="fill: none;"/><g class="overlines-above"/><g class="xaxislayer-above"><g class="x3tick"><text text-anchor="middle" x="0" y="1133" transform="translate(157.32,0)" style="font-family: 'Open Sans', verdana, arial, sans-serif; font-size: 12px; fill: rgb(42, 63, 95); fill-opacity: 1; white-space: pre; opacity: 1;">1.4</text></g><g class="x3tick"><text text-anchor="middle" x="0" y="1133" style="font-family: 'Open Sans', verdana, arial, sans-serif; font-size: 12px; fill: rgb(42, 63, 95); fill-opacity: 1; white-space: pre; opacity: 1;" transform="translate(243.87,0)">1.5</text></g><g class="x3tick"><text text-anchor="middle" x="0" y="1133" style="font-family: 'Open Sans', verdana, arial, sans-serif; font-size: 12px; fill: rgb(42, 63, 95); fill-opacity: 1; white-space: pre; opacity: 1;" transform="translate(330.43,0)">1.6</text></g><g class="x3tick"><text text-anchor="middle" x="0" y="1133" style="font-family: 'Open Sans', verdana, arial, sans-serif; font-size: 12px; fill: rgb(42, 63, 95); fill-opacity: 1; white-space: pre; opacity: 1;" transform="translate(416.98,0)">1.7</text></g></g><g class="yaxislayer-above"><g class="y3tick"><text text-anchor="end" x="132" y="4.199999999999999" transform="translate(0,1067.2600000000002)" style="font-family: 'Open Sans', verdana, arial, sans-serif; font-size: 12px; fill: rgb(42, 63, 95); fill-opacity: 1; white-space: pre; opacity: 1;">−0.5</text></g><g class="y3tick"><text text-anchor="end" x="132" y="4.199999999999999" style="font-family: 'Open Sans', verdana, arial, sans-serif; font-size: 12px; fill: rgb(42, 63, 95); fill-opacity: 1; white-space: pre; opacity: 1;" transform="translate(0,988.3000000000002)">0</text></g><g class="y3tick"><text text-anchor="end" x="132" y="4.199999999999999" style="font-family: 'Open Sans', verdana, arial, sans-serif; font-size: 12px; fill: rgb(42, 63, 95); fill-opacity: 1; white-space: pre; opacity: 1;" transform="translate(0,909.3400000000001)">0.5</text></g></g><g class="overaxes-above"/></g></g><g class="polarlayer"/><g class="smithlayer"/><g class="ternarylayer"/><g class="geolayer"/><g class="funnelarealayer"/><g class="pielayer"/><g class="iciclelayer"/><g class="treemaplayer"/><g class="sunburstlayer"/><g class="glimages"/><defs id="topdefs-848fc1"><g class="clips"/><clipPath id="legend848fc1"><rect width="188" height="29" x="0" y="0"/></clipPath></defs><g class="layer-above"><g class="imagelayer"/><g class="shapelayer"/></g><g class="infolayer"><g class="legend" pointer-events="all" transform="translate(232,50.59999999999998)"><rect class="bg" shape-rendering="crispEdges" width="188" height="29" x="0" y="0" style="stroke: rgb(68, 68, 68); stroke-opacity: 1; fill: rgb(255, 255, 255); fill-opacity: 1; stroke-width: 0px;"/><g class="scrollbox" transform="" clip-path="url(#legend848fc1)"><g class="groups"><g class="traces" transform="translate(0,14.5)" style="opacity: 1;"><text class="legendtext" text-anchor="start" x="40" y="4.680000000000001" style="font-family: 'Open Sans', verdana, arial, sans-serif; font-size: 12px; fill: rgb(42, 63, 95); fill-opacity: 1; white-space: pre;">Population Log-likelihood</text><g class="layers" style="opacity: 1;"><g class="legendfill"/><g class="legendlines"><path class="js-line" d="M5,0h30" style="fill: none; stroke: rgb(51, 34, 136); stroke-opacity: 1; stroke-width: 2px;"/></g><g class="legendsymbols"><g class="legendpoints"/></g></g><rect class="legendtoggle" x="0" y="-9.5" width="184.703125" height="19" style="fill: rgb(0, 0, 0); fill-opacity: 0;"/></g></g></g><rect class="scrollbar" rx="20" ry="3" width="0" height="0" x="0" y="0" style="fill: rgb(128, 139, 164); fill-opacity: 1;"/></g><g class="g-gtitle"/><g class="g-xtitle"/><g class="g-x2title"/><g class="g-x3title"/><g class="g-ytitle"/><g class="g-y2title"/><g class="g-y3title"/></g></svg>