<svg class="main-svg" xmlns="http://www.w3.org/2000/svg" xmlns:xlink="http://www.w3.org/1999/xlink" width="500" height="1200" style="" viewBox="0 0 500 1200"><rect x="0" y="0" width="500" height="1200" style="fill: rgb(255, 255, 255); fill-opacity: 1;"/><defs id="defs-3b60c9"><g class="clips"><clipPath id="clip3b60c9xyplot" class="plotclip"><rect width="340" height="272.00000000000006"/></clipPath><clipPath id="clip3b60c9x2y2plot" class="plotclip"><rect width="340" height="272"/></clipPath><clipPath id="clip3b60c9x3y3plot" class="plotclip"><rect width="340" height="272"/></clipPath><clipPath class="axesclip" id="clip3b60c9x"><rect x="80" y="0" width="340" height="1200"/></clipPath><clipPath class="axesclip" id="clip3b60c9y"><rect x="0" y="100" width="500" height="272.00000000000006"/></clipPath><clipPath class="axesclip" id="clip3b60c9xy"><rect x="80" y="100" width="340" height="272.00000000000006"/></clipPath><clipPath class="axesclip" id="clip3b60c9y2"><rect x="0" y="474.00000000000006" width="500" height="272"/></clipPath><clipPath class="axesclip" id="clip3b60c9xy2"><rect x="80" y="474.00000000000006" width="340" height="272"/></clipPath><clipPath class="axesclip" id="clip3b60c9y3"><rect x="0" y="848.0000000000001" width="500" height="272"/></clipPath><clipPath class="axesclip" id="clip3b60c9xy3"><rect x="80" y="848.0000000000001" width="340" height="272"/></clipPath><clipPath class="axesclip" id="clip3b60c9x2"><rect x="80" y="0" width="340" height="1200"/></clipPath><clipPath class="axesclip" id="clip3b60c9x2y"><rect x="80" y="100" width="340" height="272.00000000000006"/></clipPath><clipPath class="axesclip" id="clip3b60c9x2y2"><rect x="80" y="474.00000000000006" width="340" height="272"/></clipPath><clipPath class="axesclip" id="clip3b60c9x2y3"><rect x="80" y="848.0000000000001" width="340" height="272"/></clipPath><clipPath class="axesclip" id="clip3b60c9x3"><rect x="80" y="0" width="340" height="1200"/></clipPath><clipPath class="axesclip" id="clip3b60c9x3y"><rect x="80" y="100" width="340" height="272.00000000000006"/></clipPath><clipPath class="axesclip" id="clip3b60c9x3y2"><rect x="80" y="474.00000000000006" width="340" height="272"/></clipPath><clipPath class="axesclip" id="clip3b60c9x3y3"><rect x="80" y="848.0000000000001" width="340" height="272"/></clipPath></g><g class="gradients"/><g class="patterns"/></defs><g class="bglayer"/><g class="layer-below"><g class="imagelayer"/><g class="shapelayer"/></g><g class="cartesianlayer"><g class="subplot xy"><g class="layer-subplot"><g class="shapelayer"/><g class="imagelayer"/></g><g class="minor-gridlayer"><g class="x"/><g class="y"/></g><g class="gridlayer"><g class="x"><path class="xgrid crisp" transform="translate(109.63,0)" d="M0,100v272.00000000000006" style="stroke: rgb(235, 240, 248); stroke-opacity: 1; stroke-width: 1px;"/><path class="xgrid crisp" transform="translate(207.51,0)" d="M0,100v272.00000000000006" style="stroke: rgb(235, 240, 248); stroke-opacity: 1; stroke-width: 1px;"/><path class="xgrid crisp" transform="translate(305.39,0)" d="M0,100v272.00000000000006" style="stroke: rgb(235, 240, 248); stroke-opacity: 1; stroke-width: 1px;"/><path class="xgrid crisp" transform="translate(403.27,0)" d="M0,100v272.00000000000006" style="stroke: rgb(235, 240, 248); stroke-opacity: 1; stroke-width: 1px;"/></g><g class="y"><path class="ygrid crisp" transform="translate(0,361.88)" d="M80,0h340" style="stroke: rgb(235, 240, 248); stroke-opacity: 1; stroke-width: 1px;"/><path class="ygrid crisp" transform="translate(0,320.5)" d="M80,0h340" style="stroke: rgb(235, 240, 248); stroke-opacity: 1; stroke-width: 1px;"/><path class="ygrid crisp" transform="translate(0,279.12)" d="M80,0h340" style="stroke: rgb(235, 240, 248); stroke-opacity: 1; stroke-width: 1px;"/><path class="ygrid crisp" transform="translate(0,237.74)" d="M80,0h340" style="stroke: rgb(235, 240, 248); stroke-opacity: 1; stroke-width: 1px;"/><path class="ygrid crisp" transform="translate(0,196.36)" d="M80,0h340" style="stroke: rgb(235, 240, 248); stroke-opacity: 1; stroke-width: 1px;"/><path class="ygrid crisp" transform="translate(0,154.98)" d="M80,0h340" style="stroke: rgb(235, 240, 248); stroke-opacity: 1; stroke-width: 1px;"/></g></g><g class="zerolinelayer"><path class="yzl zl crisp" transform="translate(0,113.6)" d="M80,0h340" style="stroke: rgb(235, 240, 248); stroke-opacity: 1; stroke-width: 2px;"/></g><path class="xlines-below"/><path class="ylines-below"/><g class="overlines-below"/><g class="xaxislayer-below"/><g class="yaxislayer-below"/><g class="overaxes-below"/><g class="plot" transform="translate(80,100)" clip-path="url(#clip3b60c9xyplot)"><g class="scatterlayer mlayer"><g class="trace scatter tracec909f7" style="stroke-miterlimit: 2; opacity: 1;"><g class="fills"/><g class="errorbars"/><g class="lines"><path class="js-line" d="M0,227.06L3.43,228.34L6.87,211.23L10.3,203.36L13.74,209.49L17.17,188.14L20.61,180.76L24.04,194.69L27.47,166.24L30.91,159.19L34.34,184.86L37.78,167.31L41.21,208.24L44.65,139.16L48.08,126.84L51.52,119.62L54.95,141.88L58.38,110.59L61.82,107.5L65.25,114.23L68.69,98.55L72.12,86.52L75.56,80.28L78.99,106.62L82.42,83.89L85.86,110.07L89.29,63.02L92.73,60.17L96.16,53.12L99.6,90.54L103.03,52.11L106.46,43.88L109.9,53.87L113.33,54.5L116.77,42.01L120.2,30.75L123.64,28.35L127.07,29.51L130.51,27.56L137.37,19.24L140.81,18.12L144.24,17.61L147.68,16.26L154.55,13.6L157.98,13.65L168.28,14.01L171.72,25.23L175.15,36.91L178.59,31.69L182.02,17.01L185.45,27.76L188.89,18.21L192.32,19.85L195.76,26.68L199.19,59.71L202.63,25.82L206.06,28.24L209.49,54.12L212.93,33.72L216.36,36.77L219.8,49.86L223.23,43.26L226.67,46.85L230.1,56.9L233.54,91.97L236.97,58.71L240.4,63.02L243.84,93.47L247.27,72.26L250.71,77.1L254.14,94.8L257.58,87.24L261.01,92.66L264.44,106.33L267.88,152.89L271.31,109.62L274.75,115.62L278.18,155.3L281.62,128.28L285.05,135.01L288.48,146.37L291.92,198.56L295.35,155.31L298.79,164.36L302.22,169.03L305.66,205.32L309.09,183.13L312.53,190.59L315.96,216.61L319.39,207.21L322.83,258.4L326.26,222.93L329.7,229.52L333.13,247.89L336.57,254.61L340,254.13" style="vector-effect: non-scaling-stroke; fill: none; stroke: rgb(136, 204, 238); stroke-opacity: 1; stroke-width: 2px; opacity: 1;"/></g><g class="points"/><g class="text"/></g></g></g><g class="overplot"/><path class="xlines-above crisp" d="M0,0" style="fill: none;"/><path class="ylines-above crisp" d="M0,0" style="fill: none;"/><g class="overlines-above"/><g class="xaxislayer-above"/><g class="yaxislayer-above"><g class="ytick"><text text-anchor="end" x="79" y="4.199999999999999" transform="translate(0,361.88)" style="font-family: 'Open Sans', verdana, arial, sans-serif; font-size: 12px; fill: rgb(42, 63, 95); fill-opacity: 1; white-space: pre; opacity: 1;">−6</text></g><g class="ytick"><text text-anchor="end" x="79" y="4.199999999999999" style="font-family: 'Open Sans', verdana, arial, sans-serif; font-size: 12px; fill: rgb(42, 63, 95); fill-opacity: 1; white-space: pre; opacity: 1;" transform="translate(0,320.5)">−5</text></g><g class="ytick"><text text-anchor="end" x="79" y="4.199999999999999" style="font-family: 'Open Sans', verdana, arial, sans-serif; font-size: 12px; fill: rgb(42, 63, 95); fill-opacity: 1; white-space: pre; opacity: 1;" transform="translate(0,279.12)">−4</text></g><g class="ytick"><text text-anchor="end" x="79" y="4.199999999999999" style="font-family: 'Open Sans', verdana, arial, sans-serif; font-size: 12px; fill: rgb(42, 63, 95); fill-opacity: 1; white-space: pre; opacity: 1;" transform="translate(0,237.74)">−3</text></g><g class="ytick"><text text-anchor="end" x="79" y="4.199999999999999" style="font-family: 'Open Sans', verdana, arial, sans-serif; font-size: 12px; fill: rgb(42, 63, 95); fill-opacity: 1; white-space: pre; opacity: 1;" transform="translate(0,196.36)">−2</text></g><g class="ytick"><text text-anchor="end" x="79" y="4.199999999999999" style="font-family: 'Open Sans', verdana, arial, sans-serif; font-size: 12px; fill: rgb(42, 63, 95); fill-opacity: 1; white-space: pre; opacity: 1;" transform="translate(0,154.98)">−1</text></g><g class="ytick"><text text-anchor="end" x="79" y="4.199999999999999" style="font-family: 'Open Sans', verdana, arial, sans-serif; font-size: 12px; fill: rgb(42, 63, 95); fill-opacity: 1; white-space: pre; opacity: 1;" transform="translate(0,113.6)">0</text></g></g><g class="overaxes-above"/></g><g class="subplot x2y2"><g class="layer-subplot"><g class="shapelayer"/><g class="imagelayer"/></g><g class="minor-gridlayer"><g class="x2"/><g class="y2"/></g><g class="gridlayer"><g class="x2"><path class="x2grid crisp" transform="translate(109.63,0)" d="M0,474.00000000000006v272" style="stroke: rgb(235, 240, 248); stroke-opacity: 1; stroke-width: 1px;"/><path class="x2grid crisp" transform="translate(207.51,0)" d="M0,474.00000000000006v272" style="stroke: rgb(235, 240, 248); stroke-opacity: 1; stroke-width: 1px;"/><path class="x2grid crisp" transform="translate(305.39,0)" d="M0,474.00000000000006v272" style="stroke: rgb(235, 240, 248); stroke-opacity: 1; stroke-width: 1px;"/><path class="x2grid crisp" transform="translate(403.27,0)" d="M0,474.00000000000006v272" style="stroke: rgb(235, 240, 248); stroke-opacity: 1; stroke-width: 1px;"/></g><g class="y2"><path class="y2grid crisp" transform="translate(0,718.57)" d="M80,0h340" style="stroke: rgb(235, 240, 248); stroke-opacity: 1; stroke-width: 1px;"/><path class="y2grid crisp" transform="translate(0,682.01)" d="M80,0h340" style="stroke: rgb(235, 240, 248); stroke-opacity: 1; stroke-width: 1px;"/><path class="y2grid crisp" transform="translate(0,608.9000000000001)" d="M80,0h340" style="stroke: rgb(235, 240, 248); stroke-opacity: 1; stroke-width: 1px;"/><path class="y2grid crisp" transform="translate(0,572.35)" d="M80,0h340" style="stroke: rgb(235, 240, 248); stroke-opacity: 1; stroke-width: 1px;"/><path class="y2grid crisp" transform="translate(0,535.8000000000001)" d="M80,0h340" style="stroke: rgb(235, 240, 248); stroke-opacity: 1; stroke-width: 1px;"/><path class="y2grid crisp" transform="translate(0,499.24000000000007)" d="M80,0h340" style="stroke: rgb(235, 240, 248); stroke-opacity: 1; stroke-width: 1px;"/></g></g><g class="zerolinelayer"><path class="y2zl zl crisp" transform="translate(0,645.46)" d="M80,0h340" style="stroke: rgb(235, 240, 248); stroke-opacity: 1; stroke-width: 2px;"/></g><path class="xlines-below"/><path class="ylines-below"/><g class="overlines-below"/><g class="xaxislayer-below"/><g class="yaxislayer-below"/><g class="overaxes-below"/><g class="plot" transform="translate(80,474.00000000000006)" clip-path="url(#clip3b60c9x2y2plot)"><g class="scatterlayer mlayer"><g class="trace scatter trace4758be" style="stroke-miterlimit: 2; opacity: 1;"><g class="fills"/><g class="errorbars"/><g class="lines"><path class="js-line" d="M3.43,145.08L6.87,184.71L10.3,191.56L13.74,132.03L17.17,191.49L20.61,202.05L24.04,110.65L27.47,202.15L30.91,218.42L34.34,109.45L37.78,255.37L41.21,13.6L44.65,252.92L48.08,178.76L51.52,213.77L54.95,94.61L58.38,211.92L61.82,185.55L65.25,139.3L68.69,176.69L72.12,179.78L75.56,218.2L78.99,101.05L82.42,241.64L85.86,66.37L89.29,234.89L92.73,165.44L96.16,235.26L99.6,62.62L103.03,214.79L106.46,197.6L109.9,158.03L113.33,152.63L116.77,173.22L120.2,184.18L123.64,176.56L127.07,167L130.51,167.46L133.94,173.11L137.37,174.99L140.81,172.35L144.24,170.24L147.68,170.98L151.11,172.48L154.55,172.92L157.98,171.83L161.41,171.65L164.85,170.31L168.28,188.08L171.72,172.13L175.15,147.2L178.59,157.88L182.02,207.97L185.45,142.32L188.89,187.52L192.32,178.91L195.76,209.06L199.19,75.42L202.63,223.57L206.06,205.11L209.49,105.06L212.93,205.11L216.36,185.86L219.8,143.2L223.23,186.09L226.67,180.71L230.1,207.38L233.54,73.4L236.97,225.36L240.4,208.98L243.84,97.32L247.27,208.84L250.71,189.91L254.14,135.22L257.58,190.07L261.01,183.31L264.44,218.65L267.88,42.55L271.31,242.16L274.75,219.79L278.18,75.76L281.62,219.88L285.05,178.1L288.48,230.05L291.92,34.5L295.35,246.52L298.79,165.16L302.22,216.84L305.66,87.53L309.09,214.02L312.53,198.07L315.96,120.65L319.39,258.4L322.83,47.1L326.26,231.8L329.7,188.38L333.13,154.75L336.57,161.11" style="vector-effect: non-scaling-stroke; fill: none; stroke: rgb(136, 204, 238); stroke-opacity: 1; stroke-width: 2px; opacity: 1;"/></g><g class="points"/><g class="text"/></g></g></g><g class="overplot"/><path class="xlines-above crisp" d="M0,0" style="fill: none;"/><path class="ylines-above crisp" d="M0,0" style="fill: none;"/><g class="overlines-above"/><g class="xaxislayer-above"/><g class="yaxislayer-above"><g class="y2tick"><text text-anchor="end" x="79" y="4.199999999999999" transform="translate(0,718.57)" style="font-family: 'Open Sans', verdana, arial, sans-serif; font-size: 12px; fill: rgb(42, 63, 95); fill-opacity: 1; white-space: pre; opacity: 1;">−100k</text></g><g class="y2tick"><text text-anchor="end" x="79" y="4.199999999999999" style="font-family: 'Open Sans', verdana, arial, sans-serif; font-size: 12px; fill: rgb(42, 63, 95); fill-opacity: 1; white-space: pre; opacity: 1;" transform="translate(0,682.01)">−50k</text></g><g class="y2tick"><text text-anchor="end" x="79" y="4.199999999999999" style="font-family: 'Open Sans', verdana, arial, sans-serif; font-size: 12px; fill: rgb(42, 63, 95); fill-opacity: 1; white-space: pre; opacity: 1;" transform="translate(0,645.46)">0</text></g><g class="y2tick"><text text-anchor="end" x="79" y="4.199999999999999" style="font-family: 'Open Sans', verdana, arial, sans-serif; font-size: 12px; fill: rgb(42, 63, 95); fill-opacity: 1; white-space: pre; opacity: 1;" transform="translate(0,608.9000000000001)">50k</text></g><g class="y2tick"><text text-anchor="end" x="79" y="4.199999999999999" style="font-family: 'Open Sans', verdana, arial, sans-serif; font-size: 12px; fill: rgb(42, 63, 95); fill-opacity: 1; white-space: pre; opacity: 1;" transform="translate(0,572.35)">100k</text></g><g class="y2tick"><text text-anchor="end" x="79" y="4.199999999999999" style="font-family: 'Open Sans', verdana, arial, sans-serif; font-size: 12px; fill: rgb(42, 63, 95); fill-opacity: 1; white-space: pre; opacity: 1;" transform="translate(0,535.8000000000001)">150k</text></g><g class="y2tick"><text text-anchor="end" x="79" y="4.199999999999999" style="font-family: 'Open Sans', verdana, arial, sans-serif; font-size: 12px; fill: rgb(42, 63, 95); fill-opacity: 1; white-space: pre; opacity: 1;" transform="translate(0,499.24000000000007)">200k</text></g></g><g class="overaxes-above"/></g><g class="subplot x3y3"><g class="layer-subplot"><g class="shapelayer"/><g class="imagelayer"/></g><g class="minor-gridlayer"><g class="x3"/><g class="y3"/></g><g class="gridlayer"><g class="x3"><path class="x3grid crisp" transform="translate(109.63,0)" d="M0,848.0000000000001v272" style="stroke: rgb(235, 240, 248); stroke-opacity: 1; stroke-width: 1px;"/><path class="x3grid crisp" transform="translate(207.51,0)" d="M0,848.0000000000001v272" style="stroke: rgb(235, 240, 248); stroke-opacity: 1; stroke-width: 1px;"/><path class="x3grid crisp" transform="translate(305.39,0)" d="M0,848.0000000000001v272" style="stroke: rgb(235, 240, 248); stroke-opacity: 1; stroke-width: 1px;"/><path class="x3grid crisp" transform="translate(403.27,0)" d="M0,848.0000000000001v272" style="stroke: rgb(235, 240, 248); stroke-opacity: 1; stroke-width: 1px;"/></g><g class="y3"><path class="y3grid crisp" transform="translate(0,1071.6100000000001)" d="M80,0h340" style="stroke: rgb(235, 240, 248); stroke-opacity: 1; stroke-width: 1px;"/><path class="y3grid crisp" transform="translate(0,921.7900000000001)" d="M80,0h340" style="stroke: rgb(235, 240, 248); stroke-opacity: 1; stroke-width: 1px;"/></g></g><g class="zerolinelayer"><path class="y3zl zl crisp" transform="translate(0,996.7)" d="M80,0h340" style="stroke: rgb(235, 240, 248); stroke-opacity: 1; stroke-width: 2px;"/></g><path class="xlines-below"/><path class="ylines-below"/><g class="overlines-below"/><g class="xaxislayer-below"/><g class="yaxislayer-below"/><g class="overaxes-below"/><g class="plot" transform="translate(80,848.0000000000001)" clip-path="url(#clip3b60c9x3y3plot)"><g class="scatterlayer mlayer"><g class="trace scatter trace419bfe" style="stroke-miterlimit: 2; opacity: 1;"><g class="fills"/><g class="errorbars"/><g class="lines"><path class="js-line" d="M0,155.25L3.43,159.96L6.87,155.12L10.3,155.12L13.74,160.88L17.17,154.97L20.61,154.97L24.04,162.13L27.47,154.86L30.91,154.96L34.34,163.68L37.78,150.41L41.21,141.77L44.65,150.42L48.08,154.91L51.52,154.43L54.95,146.12L61.82,157.93L65.25,158.44L68.69,158.28L72.12,152.61L75.56,154.01L78.99,162.43L82.42,150.71L85.86,143.49L89.29,151.61L92.73,154.62L96.16,153.35L99.6,143.35L106.46,155.13L109.9,158.86L113.33,159.44L116.77,157.36L123.64,150.89L127.07,149.07L130.51,148.89L133.94,149.96L140.81,152.86L144.24,153.4L151.11,152.18L154.55,151.05L161.41,149.4L164.85,148.98L168.28,149.17L171.72,145.25L175.15,143.17L178.59,144.07L182.02,148.38L185.45,155.03L188.89,149.83L192.32,149.58L195.76,152.98L199.19,158.48L202.63,149.27L206.06,149.16L209.49,156.25L212.93,148.78L216.36,148.8L219.8,153.37L223.23,148.53L226.67,148.36L230.1,151.9L233.54,157.19L236.97,147.87L240.4,147.75L243.84,155.23L247.27,147.32L250.71,147.32L254.14,152.57L257.58,147.04L261.01,147.02L264.44,151.06L267.88,157.18L271.31,146.5L274.75,146.4L278.18,154.95L281.62,146.14L285.05,146.07L288.48,149.38L291.92,156.48L295.35,145.76L298.79,144.75L302.22,146.43L305.66,153.54L309.09,145.06L312.53,145.11L315.96,151.44L319.39,145.78L322.83,134.57L326.26,143.47L329.7,144.5L333.13,139.74L336.57,141.36L340,144.7" style="vector-effect: non-scaling-stroke; fill: none; stroke: rgb(68, 1, 84); stroke-opacity: 1; stroke-width: 1px; opacity: 1;"/></g><g class="points"/><g class="text"/></g><g class="trace scatter traceef6d84" style="stroke-miterlimit: 2; opacity: 1;"><g class="fills"/><g class="errorbars"/><g class="lines"><path class="js-line" d="M0,153.91L3.43,158.47L6.87,153.8L10.3,153.8L13.74,159.36L17.17,153.74L20.61,153.65L24.04,160.61L27.47,153.68L30.91,153.79L34.34,162.06L37.78,149.47L41.21,141.17L44.65,149.4L48.08,153.32L51.52,153.36L54.95,145.35L61.82,156.74L65.25,156.78L68.69,157.08L72.12,151.5L75.56,153.08L78.99,161.12L82.42,149.98L85.86,142.98L89.29,150.84L92.73,153.55L96.16,152.58L99.6,142.9L106.46,154.36L109.9,157.96L113.33,158.54L116.77,156.59L123.64,150.4L127.07,148.67L130.51,148.52L133.94,149.6L140.81,152.47L144.24,153.03L151.11,151.91L154.55,150.86L161.41,149.32L164.85,148.95L168.28,149.17L171.72,145.43L175.15,143.39L178.59,144.3L182.02,148.56L185.45,155.06L188.89,150.02L192.32,149.71L195.76,153.18L199.19,158.55L202.63,149.66L206.06,149.55L209.49,156.48L212.93,149.14L216.36,149.22L219.8,153.83L223.23,149.15L226.67,148.99L230.1,152.52L233.54,157.71L236.97,148.71L240.4,148.57L243.84,155.91L247.27,148.06L250.71,148.18L254.14,153.47L257.58,148.12L261.01,148.03L264.44,152.09L267.88,158.09L271.31,147.75L274.75,147.6L278.18,156L281.62,147.14L285.05,147.64L288.48,150.74L291.92,157.67L295.35,147.17L298.79,146.29L302.22,148.01L305.66,155.15L309.09,146.74L312.53,146.82L315.96,152.95L319.39,147.42L322.83,136.59L326.26,145.16L329.7,146.01L333.13,141.95L336.57,142.39L340,146.69" style="vector-effect: non-scaling-stroke; fill: none; stroke: rgb(69, 7, 90); stroke-opacity: 1; stroke-width: 1px; opacity: 1;"/></g><g class="points"/><g class="text"/></g><g class="trace scatter trace6c266d" style="stroke-miterlimit: 2; opacity: 1;"><g class="fills"/><g class="errorbars"/><g class="lines"><path class="js-line" d="M0,156.31L3.43,161.32L6.87,156.2L10.3,156.03L13.74,162.24L17.17,155.79L20.61,155.83L24.04,163.54L27.47,155.59L30.91,155.57L34.34,165.19L37.78,151.13L41.21,141.03L44.65,150.81L48.08,155.86L51.52,154.95L54.95,145.88L61.82,158.82L65.25,159.4L68.69,159.32L72.12,153.02L75.56,154.41L78.99,163.75L82.42,151.16L85.86,142.76L89.29,151.84L92.73,155.16L96.16,153.73L99.6,142.69L106.46,155.74L109.9,159.89L113.33,160.54L116.77,158.25L123.64,151.1L127.07,149.09L130.51,148.9L133.94,150.11L140.81,153.38L144.24,154.02L151.11,152.7L154.55,151.47L161.41,149.67L164.85,149.22L168.28,149.48L171.72,145.22L175.15,142.83L178.59,143.86L182.02,148.74L185.45,156.24L188.89,150.52L192.32,150.28L195.76,154.08L199.19,160.3L202.63,150.01L206.06,149.94L209.49,157.98L212.93,149.81L216.36,149.6L219.8,154.82L223.23,149.43L226.67,149.31L230.1,153.38L233.54,159.39L236.97,148.91L240.4,148.86L243.84,157.36L247.27,148.7L250.71,148.53L254.14,154.47L257.58,148.29L261.01,148.39L264.44,153L267.88,159.95L271.31,147.93L274.75,147.93L278.18,157.66L281.62,148.05L285.05,147.3L288.48,151.47L291.92,159.62L295.35,147.65L298.79,146.31L302.22,148.38L305.66,156.31L309.09,147.01L312.53,146.94L315.96,154.33L319.39,147.7L322.83,135.18L326.26,145.28L329.7,146.6L333.13,141.04L336.57,143.61L340,147" style="vector-effect: non-scaling-stroke; fill: none; stroke: rgb(69, 14, 96); stroke-opacity: 1; stroke-width: 1px; opacity: 1;"/></g><g class="points"/><g class="text"/></g><g class="trace scatter trace53c139" style="stroke-miterlimit: 2; opacity: 1;"><g class="fills"/><g class="errorbars"/><g class="lines"><path class="js-line" d="M0,159.63L3.43,166.12L6.87,159.43L10.3,159.46L13.74,167.37L17.17,159.08L20.61,159.23L24.04,169.06L27.47,158.84L30.91,158.95L34.34,171.25L37.78,152.61L41.21,140.65L44.65,152.78L48.08,159.83L51.52,158.07L54.95,146.64L61.82,162.93L65.25,164.68L68.69,163.42L72.12,155.88L75.56,157.31L78.99,169.08L82.42,152.61L85.86,142.77L89.29,153.88L92.73,158.51L96.16,156.16L99.6,142.49L106.46,158.54L109.9,163.7L113.33,164.44L116.77,161.49L123.64,152.46L127.07,149.92L130.51,149.61L133.94,151.03L140.81,154.9L144.24,155.58L147.68,155.11L151.11,153.78L157.98,150.77L161.41,149.8L164.85,149.16L168.28,149.35L171.72,143.88L175.15,141.1L178.59,142.25L182.02,148.01L185.45,157.05L188.89,149.9L192.32,149.65L195.76,154.04L199.19,161.58L202.63,148.79L206.06,148.65L209.49,158.32L212.93,148.3L216.36,148.08L219.8,154.07L223.23,147.38L226.67,147.12L230.1,151.83L233.54,159.06L236.97,146.1L240.4,145.99L243.84,156.15L247.27,145.62L250.71,145.34L254.14,152.18L257.58,144.5L261.01,144.63L264.44,149.92L267.88,158.32L271.31,143.45L274.75,143.47L278.18,155.08L281.62,143.7L285.05,142.14L288.48,147.01L291.92,156.88L295.35,142.06L298.79,140.81L302.22,142.66L305.66,152.2L309.09,140.58L312.53,140.83L315.96,149.43L319.39,142.27L322.83,126.14L326.26,139.11L329.7,139.11L333.13,132.46L336.57,134.42L340,139.46" style="vector-effect: non-scaling-stroke; fill: none; stroke: rgb(70, 20, 101); stroke-opacity: 1; stroke-width: 1px; opacity: 1;"/></g><g class="points"/><g class="text"/></g><g class="trace scatter trace1ec790" style="stroke-miterlimit: 2; opacity: 1;"><g class="fills"/><g class="errorbars"/><g class="lines"><path class="js-line" d="M0,152.71L3.43,155.64L6.87,152.67L10.3,152.54L13.74,156.17L17.17,152.43L20.61,152.43L24.04,156.94L27.47,152.33L30.91,152.3L34.34,157.89L37.78,149.75L41.21,143.79L44.65,149.54L48.08,152.35L51.52,151.98L54.95,146.66L61.82,154.26L65.25,154.41L68.69,154.56L72.12,150.81L75.56,151.7L78.99,157.16L82.42,149.82L85.86,144.87L89.29,150.24L92.73,152.13L96.16,151.37L99.6,144.87L106.46,152.58L109.9,155.03L113.33,155.42L116.77,154.09L123.64,149.93L127.07,148.76L130.51,148.66L133.94,149.39L140.81,151.35L144.24,151.74L151.11,151L154.55,150.29L164.85,149.03L168.28,149.2L171.72,146.72L175.15,145.29L178.59,145.92L182.02,148.84L185.45,153.28L188.89,149.93L192.32,149.78L195.76,152.07L199.19,155.75L202.63,149.73L206.06,149.68L209.49,154.44L212.93,149.62L216.36,149.52L219.8,152.66L223.23,149.5L226.67,149.46L230.1,151.89L233.54,155.43L236.97,149.3L240.4,149.28L243.84,154.31L247.27,149.18L250.71,149.12L254.14,152.68L257.58,149.07L261.01,149.11L264.44,151.89L267.88,155.98L271.31,148.95L274.75,148.93L278.18,154.69L281.62,148.94L285.05,148.67L288.48,151.14L291.92,155.93L295.35,148.92L298.79,148.05L302.22,149.4L305.66,154.12L309.09,148.65L312.53,148.58L315.96,152.96L319.39,148.95L322.83,141.73L326.26,147.53L329.7,148.58L333.13,145.31L340,148.81" style="vector-effect: non-scaling-stroke; fill: none; stroke: rgb(71, 26, 107); stroke-opacity: 1; stroke-width: 1px; opacity: 1;"/></g><g class="points"/><g class="text"/></g><g class="trace scatter tracef8efd7" style="stroke-miterlimit: 2; opacity: 1;"><g class="fills"/><g class="errorbars"/><g class="lines"><path class="js-line" d="M0,153.97L3.43,158.29L6.87,153.87L10.3,153.81L13.74,159.12L17.17,153.72L20.61,153.65L24.04,160.28L27.47,153.63L30.91,153.7L34.34,161.67L37.78,149.67L41.21,141.56L44.65,149.54L48.08,153.43L51.52,153.25L54.95,145.58L61.82,156.5L65.25,156.67L68.69,156.86L72.12,151.53L75.56,152.93L78.99,160.7L82.42,150.03L85.86,143.2L89.29,150.79L92.73,153.49L96.16,152.45L99.6,143.15L106.46,154.17L109.9,157.65L113.33,158.21L116.77,156.32L123.64,150.37L127.07,148.7L130.51,148.56L133.94,149.6L140.81,152.38L144.24,152.93L151.11,151.87L154.55,150.85L161.41,149.38L164.85,149.03L168.28,149.25L171.72,145.68L175.15,143.7L178.59,144.57L182.02,148.7L185.45,154.99L188.89,150.16L192.32,149.88L195.76,153.21L199.19,158.44L202.63,149.85L206.06,149.76L209.49,156.49L212.93,149.47L216.36,149.46L219.8,153.94L223.23,149.43L226.67,149.31L230.1,152.74L233.54,157.79L236.97,149.07L240.4,148.98L243.84,156.1L247.27,148.62L250.71,148.62L254.14,153.76L257.58,148.61L261.01,148.56L264.44,152.51L267.88,158.33L271.31,148.34L274.75,148.23L278.18,156.39L281.62,147.96L285.05,148.14L288.48,151.32L291.92,158.07L295.35,147.98L298.79,147.04L302.22,148.75L305.66,155.61L309.09,147.59L312.53,147.62L315.96,153.63L319.39,148.23L322.83,137.8L326.26,146.12L329.7,147.39L333.13,142.97L336.57,144.56L340,147.66" style="vector-effect: non-scaling-stroke; fill: none; stroke: rgb(71, 32, 113); stroke-opacity: 1; stroke-width: 1px; opacity: 1;"/></g><g class="points"/><g class="text"/></g><g class="trace scatter trace6f51c6" style="stroke-miterlimit: 2; opacity: 1;"><g class="fills"/><g class="errorbars"/><g class="lines"><path class="js-line" d="M0,153.24L3.43,156.48L6.87,153.19L10.3,153.05L13.74,157.07L17.17,152.91L20.61,152.92L24.04,157.92L27.47,152.8L30.91,152.77L34.34,158.98L37.78,149.97L41.21,143.31L44.65,149.7L48.08,152.81L51.52,152.4L54.95,146.49L61.82,154.93L65.25,155.06L68.69,155.27L72.12,151.09L75.56,152.08L78.99,158.15L82.42,150.04L85.86,144.48L89.29,150.45L92.73,152.53L96.16,151.71L99.6,144.49L106.46,153.05L109.9,155.76L113.33,156.19L116.77,154.72L123.64,150.09L127.07,148.79L130.51,148.68L133.94,149.49L140.81,151.67L144.24,152.1L151.11,151.27L154.55,150.48L164.85,149.07L168.28,149.26L171.72,146.5L175.15,144.92L178.59,145.61L182.02,148.85L185.45,153.78L188.89,150.06L192.32,149.9L195.76,152.44L199.19,156.52L202.63,149.83L206.06,149.78L209.49,155.07L212.93,149.71L216.36,149.59L219.8,153.08L223.23,149.57L226.67,149.51L230.1,152.22L233.54,156.15L236.97,149.34L240.4,149.31L243.84,154.9L247.27,149.21L250.71,149.13L254.14,153.09L257.58,149.07L261.01,149.12L264.44,152.2L267.88,156.75L271.31,148.93L274.75,148.9L278.18,155.32L281.62,148.93L285.05,148.62L288.48,151.36L291.92,156.68L295.35,148.89L298.79,147.93L302.22,149.42L305.66,154.66L309.09,148.59L312.53,148.5L315.96,153.37L319.39,148.91L322.83,140.87L326.26,147.34L329.7,148.49L333.13,144.84L340,148.75" style="vector-effect: non-scaling-stroke; fill: none; stroke: rgb(72, 39, 119); stroke-opacity: 1; stroke-width: 1px; opacity: 1;"/></g><g class="points"/><g class="text"/></g><g class="trace scatter trace9e8d22" style="stroke-miterlimit: 2; opacity: 1;"><g class="fills"/><g class="errorbars"/><g class="lines"><path class="js-line" d="M0,155.85L3.43,160.74L6.87,155.74L10.3,155.63L13.74,161.66L17.17,155.42L20.61,155.44L24.04,162.94L27.47,155.26L30.91,155.29L34.34,164.56L37.78,150.75L41.21,141.33L44.65,150.63L48.08,155.51L51.52,154.7L54.95,145.95L61.82,158.42L65.25,159.08L68.69,158.86L72.12,152.86L75.56,154.21L78.99,163.19L82.42,150.89L85.86,143.04L89.29,151.71L92.73,154.97L96.16,153.54L99.6,142.94L106.46,155.46L109.9,159.45L113.33,160.07L116.77,157.86L123.64,150.99L127.07,149.07L130.51,148.89L133.94,150.04L140.81,153.16L144.24,153.76L151.11,152.49L154.55,151.3L161.41,149.57L164.85,149.14L168.28,149.37L171.72,145.26L175.15,143.01L178.59,143.98L182.02,148.62L185.45,155.78L188.89,150.28L192.32,150.03L195.76,153.68L199.19,159.63L202.63,149.77L206.06,149.68L209.49,157.35L212.93,149.48L216.36,149.34L219.8,154.3L223.23,149.14L226.67,149L230.1,152.87L233.54,158.6L236.97,148.59L240.4,148.52L243.84,156.61L247.27,148.28L250.71,148.15L254.14,153.82L257.58,147.91L261.01,147.96L264.44,152.35L267.88,158.98L271.31,147.5L274.75,147.47L278.18,156.73L281.62,147.48L285.05,146.93L288.48,150.79L291.92,158.54L295.35,147.07L298.79,145.89L302.22,147.78L305.66,155.38L309.09,146.42L312.53,146.41L315.96,153.36L319.39,147.18L322.83,135.17L326.26,144.82L329.7,145.97L333.13,140.77L336.57,142.85L340,146.3" style="vector-effect: non-scaling-stroke; fill: none; stroke: rgb(71, 44, 122); stroke-opacity: 1; stroke-width: 1px; opacity: 1;"/></g><g class="points"/><g class="text"/></g><g class="trace scatter trace467608" style="stroke-miterlimit: 2; opacity: 1;"><g class="fills"/><g class="errorbars"/><g class="lines"><path class="js-line" d="M0,153.4L3.43,156.73L6.87,153.34L10.3,153.2L13.74,157.34L17.17,153.06L20.61,153.06L24.04,158.21L27.47,152.94L30.91,152.91L34.34,159.31L37.78,150.03L41.21,143.15L44.65,149.74L48.08,152.95L51.52,152.53L54.95,146.44L61.82,155.12L65.25,155.26L68.69,155.48L72.12,151.17L75.56,152.19L78.99,158.45L82.42,150.09L85.86,144.36L89.29,150.51L92.73,152.66L96.16,151.81L99.6,144.37L106.46,153.19L109.9,155.98L113.33,156.43L116.77,154.91L123.64,150.14L127.07,148.8L130.51,148.68L133.94,149.52L140.81,151.76L144.24,152.2L151.11,151.35L154.55,150.54L164.85,149.08L168.28,149.27L171.72,146.43L175.15,144.79L178.59,145.51L182.02,148.85L185.45,153.93L188.89,150.1L192.32,149.93L195.76,152.55L199.19,156.75L202.63,149.86L206.06,149.8L209.49,155.26L212.93,149.73L216.36,149.61L219.8,153.2L223.23,149.58L226.67,149.53L230.1,152.31L233.54,156.37L236.97,149.35L240.4,149.31L243.84,155.08L247.27,149.21L250.71,149.14L254.14,153.21L257.58,149.07L261.01,149.12L264.44,152.29L267.88,156.98L271.31,148.92L274.75,148.89L278.18,155.5L281.62,148.92L285.05,148.6L288.48,151.42L291.92,156.9L295.35,148.88L298.79,147.87L302.22,149.43L305.66,154.81L309.09,148.57L312.53,148.46L315.96,153.5L319.39,148.87L322.83,140.6L326.26,147.24L329.7,148.46L333.13,144.69L340,148.73" style="vector-effect: non-scaling-stroke; fill: none; stroke: rgb(69, 49, 125); stroke-opacity: 1; stroke-width: 1px; opacity: 1;"/></g><g class="points"/><g class="text"/></g><g class="trace scatter trace7e6c48" style="stroke-miterlimit: 2; opacity: 1;"><g class="fills"/><g class="errorbars"/><g class="lines"><path class="js-line" d="M0,153.03L3.43,156.15L6.87,152.98L10.3,152.85L13.74,156.72L17.17,152.72L20.61,152.73L24.04,157.53L27.47,152.61L30.91,152.59L34.34,158.55L37.78,149.89L41.21,143.49L44.65,149.63L48.08,152.63L51.52,152.23L54.95,146.56L61.82,154.66L65.25,154.8L68.69,154.99L72.12,150.98L75.56,151.93L78.99,157.76L82.42,149.97L85.86,144.63L89.29,150.37L92.73,152.38L96.16,151.58L99.6,144.64L106.46,152.87L109.9,155.47L113.33,155.89L116.77,154.48L123.64,150.02L127.07,148.78L130.51,148.67L133.94,149.45L140.81,151.54L144.24,151.96L151.11,151.17L154.55,150.41L164.85,149.05L168.28,149.23L171.72,146.58L175.15,145.06L178.59,145.73L182.02,148.85L185.45,153.58L188.89,150.01L192.32,149.85L195.76,152.3L199.19,156.22L202.63,149.79L206.06,149.74L209.49,154.83L212.93,149.68L216.36,149.56L219.8,152.91L223.23,149.54L226.67,149.49L230.1,152.09L233.54,155.87L236.97,149.32L240.4,149.3L243.84,154.67L247.27,149.21L250.71,149.13L254.14,152.93L257.58,149.07L261.01,149.12L264.44,152.08L267.88,156.45L271.31,148.94L274.75,148.92L278.18,155.08L281.62,148.94L285.05,148.65L288.48,151.28L291.92,156.39L295.35,148.91L298.79,147.98L302.22,149.42L305.66,154.45L309.09,148.62L312.53,148.53L315.96,153.21L319.39,148.93L322.83,141.21L326.26,147.42L329.7,148.52L333.13,145.03L340,148.78" style="vector-effect: non-scaling-stroke; fill: none; stroke: rgb(68, 55, 128); stroke-opacity: 1; stroke-width: 1px; opacity: 1;"/></g><g class="points"/><g class="text"/></g><g class="trace scatter tracea55f15" style="stroke-miterlimit: 2; opacity: 1;"><g class="fills"/><g class="errorbars"/><g class="lines"><path class="js-line" d="M0,152.11L3.43,154.66L6.87,152.07L10.3,151.97L13.74,155.13L17.17,151.87L20.61,151.87L24.04,155.8L27.47,151.79L30.91,151.78L34.34,156.63L37.78,149.54L41.21,144.4L44.65,149.36L48.08,151.79L51.52,151.5L54.95,146.88L61.82,153.47L65.25,153.59L68.69,153.74L72.12,150.48L75.56,151.27L78.99,156L82.42,149.63L85.86,145.34L89.29,149.99L92.73,151.64L96.16,150.99L99.6,145.34L106.46,152.04L109.9,154.16L113.33,154.5L116.77,153.36L123.64,149.74L127.07,148.73L133.94,149.28L137.37,150.21L144.24,151.32L147.68,151.18L164.85,148.98L168.28,149.12L171.72,146.98L175.15,145.74L178.59,146.28L182.02,148.82L185.45,152.68L188.89,149.77L192.32,149.63L195.76,151.64L199.19,154.83L202.63,149.6L206.06,149.56L209.49,153.69L212.93,149.5L216.36,149.41L219.8,152.15L223.23,149.41L226.67,149.37L230.1,151.48L233.54,154.57L236.97,149.25L240.4,149.22L243.84,153.59L247.27,149.13L250.71,149.08L254.14,152.18L257.58,149.05L261.01,149.07L264.44,151.49L267.88,155.05L271.31,148.95L274.75,148.92L278.18,153.93L281.62,148.93L285.05,148.74L288.48,150.86L291.92,155.01L295.35,148.92L298.79,148.2L302.22,149.35L305.66,153.45L309.09,148.7L312.53,148.64L315.96,152.43L319.39,148.96L322.83,142.7L326.26,147.73L329.7,148.63L333.13,145.82L340,148.85" style="vector-effect: non-scaling-stroke; fill: none; stroke: rgb(66, 60, 130); stroke-opacity: 1; stroke-width: 1px; opacity: 1;"/></g><g class="points"/><g class="text"/></g><g class="trace scatter trace8cc467" style="stroke-miterlimit: 2; opacity: 1;"><g class="fills"/><g class="errorbars"/><g class="lines"><path class="js-line" d="M0,153.25L3.43,156.51L6.87,153.2L10.3,153.06L13.74,157.1L17.17,152.93L20.61,152.93L24.04,157.95L27.47,152.81L30.91,152.78L34.34,159.01L37.78,149.97L41.21,143.28L44.65,149.7L48.08,152.84L51.52,152.41L54.95,146.48L61.82,154.95L65.25,155.08L68.69,155.29L72.12,151.1L75.56,152.09L78.99,158.18L82.42,150.04L85.86,144.46L89.29,150.45L92.73,152.56L96.16,151.72L99.6,144.47L106.46,153.06L109.9,155.78L113.33,156.22L116.77,154.75L123.64,150.09L127.07,148.79L130.51,148.68L133.94,149.49L140.81,151.67L144.24,152.11L151.11,151.28L154.55,150.49L164.85,149.07L168.28,149.26L171.72,146.49L175.15,144.9L178.59,145.6L182.02,148.85L185.45,153.8L188.89,150.07L192.32,149.9L195.76,152.45L199.19,156.55L202.63,149.83L206.06,149.78L209.49,155.09L212.93,149.71L216.36,149.59L219.8,153.09L223.23,149.57L226.67,149.52L230.1,152.23L233.54,156.18L236.97,149.34L240.4,149.31L243.84,154.92L247.27,149.21L250.71,149.14L254.14,153.1L257.58,149.07L261.01,149.12L264.44,152.21L267.88,156.78L271.31,148.93L274.75,148.91L278.18,155.34L281.62,148.93L285.05,148.62L288.48,151.37L291.92,156.71L295.35,148.89L298.79,147.93L302.22,149.43L305.66,154.67L309.09,148.59L312.53,148.5L315.96,153.39L319.39,148.91L322.83,140.85L326.26,147.32L329.7,148.49L333.13,144.83L340,148.76" style="vector-effect: non-scaling-stroke; fill: none; stroke: rgb(64, 65, 133); stroke-opacity: 1; stroke-width: 1px; opacity: 1;"/></g><g class="points"/><g class="text"/></g><g class="trace scatter trace67df9d" style="stroke-miterlimit: 2; opacity: 1;"><g class="fills"/><g class="errorbars"/><g class="lines"><path class="js-line" d="M0,154.91L3.43,159.19L6.87,154.83L10.3,154.66L13.74,159.98L17.17,154.48L20.61,154.49L24.04,161.09L27.47,154.32L30.91,154.3L34.34,162.49L37.78,150.5L41.21,141.89L44.65,150.23L48.08,154.49L51.52,153.78L54.95,146.03L61.82,157.1L65.25,157.54L68.69,157.54L72.12,152.14L75.56,153.34L78.99,161.34L82.42,150.55L85.86,143.39L89.29,151.17L92.73,154.03L96.16,152.81L99.6,143.37L106.46,154.55L109.9,158.11L113.33,158.68L116.77,156.73L123.64,150.63L127.07,148.92L130.51,148.77L133.94,149.82L140.81,152.64L144.24,153.2L151.11,152.09L154.55,151.05L161.41,149.54L164.85,149.17L168.28,149.4L171.72,145.78L175.15,143.72L178.59,144.61L182.02,148.82L185.45,155.27L188.89,150.38L192.32,150.17L195.76,153.47L199.19,158.82L202.63,150.02L206.06,149.96L209.49,156.86L212.93,149.87L216.36,149.68L219.8,154.22L223.23,149.6L226.67,149.53L230.1,153.03L233.54,158.2L236.97,149.25L240.4,149.21L243.84,156.5L247.27,149.09L250.71,148.95L254.14,154.09L257.58,148.81L261.01,148.86L264.44,152.88L267.88,158.86L271.31,148.58L274.75,148.56L278.18,156.91L281.62,148.66L285.05,148.07L288.48,151.69L291.92,158.67L295.35,148.45L298.79,147.26L302.22,149.1L305.66,155.93L309.09,147.98L312.53,147.89L315.96,154.24L319.39,148.5L322.83,137.89L326.26,146.42L329.7,147.75L333.13,143L336.57,145.26L340,148.09" style="vector-effect: non-scaling-stroke; fill: none; stroke: rgb(63, 71, 136); stroke-opacity: 1; stroke-width: 1px; opacity: 1;"/></g><g class="points"/><g class="text"/></g><g class="trace scatter trace781c89" style="stroke-miterlimit: 2; opacity: 1;"><g class="fills"/><g class="errorbars"/><g class="lines"><path class="js-line" d="M0,155.08L3.43,159.41L6.87,155L10.3,154.83L13.74,160.2L17.17,154.63L20.61,154.66L24.04,161.32L27.47,154.46L30.91,154.41L34.34,162.74L37.78,150.63L41.21,141.76L44.65,150.31L48.08,154.58L51.52,153.9L54.95,146.01L61.82,157.27L65.25,157.61L68.69,157.73L72.12,152.18L75.56,153.43L78.99,161.55L82.42,150.68L85.86,143.28L89.29,151.24L92.73,154.08L96.16,152.9L99.6,143.27L106.46,154.67L109.9,158.29L113.33,158.86L116.77,156.88L123.64,150.68L127.07,148.94L130.51,148.78L133.94,149.86L140.81,152.73L144.24,153.3L151.11,152.18L154.55,151.11L161.41,149.57L164.85,149.19L168.28,149.43L171.72,145.73L175.15,143.62L178.59,144.54L182.02,148.84L185.45,155.41L188.89,150.44L192.32,150.23L195.76,153.58L199.19,159.02L202.63,150.07L206.06,150L209.49,157.04L212.93,149.92L216.36,149.73L219.8,154.34L223.23,149.65L226.67,149.57L230.1,153.15L233.54,158.4L236.97,149.28L240.4,149.25L243.84,156.69L247.27,149.15L250.71,149L254.14,154.23L257.58,148.86L261.01,148.93L264.44,153.01L267.88,159.08L271.31,148.62L274.75,148.6L278.18,157.14L281.62,148.7L285.05,148.09L288.48,151.8L291.92,158.91L295.35,148.5L298.79,147.21L302.22,149.17L305.66,156.12L309.09,148.03L312.53,147.91L315.96,154.43L319.39,148.51L322.83,137.69L326.26,146.4L329.7,147.8L333.13,142.91L336.57,145.33L340,148.16" style="vector-effect: non-scaling-stroke; fill: none; stroke: rgb(61, 76, 137); stroke-opacity: 1; stroke-width: 1px; opacity: 1;"/></g><g class="points"/><g class="text"/></g><g class="trace scatter trace0c58b3" style="stroke-miterlimit: 2; opacity: 1;"><g class="fills"/><g class="errorbars"/><g class="lines"><path class="js-line" d="M0,154.82L3.43,159.06L6.87,154.74L10.3,154.58L13.74,159.84L17.17,154.4L20.61,154.41L24.04,160.94L27.47,154.24L30.91,154.23L34.34,162.34L37.78,150.46L41.21,141.94L44.65,150.2L48.08,154.39L51.52,153.72L54.95,146.04L61.82,156.99L65.25,157.38L68.69,157.43L72.12,152.07L75.56,153.29L78.99,161.19L82.42,150.55L85.86,143.43L89.29,151.14L92.73,153.93L96.16,152.77L99.6,143.39L106.46,154.48L109.9,158L113.33,158.56L116.77,156.64L123.64,150.6L127.07,148.91L130.51,148.76L133.94,149.8L140.81,152.6L144.24,153.15L151.11,152.06L154.55,151.02L161.41,149.53L164.85,149.16L168.28,149.39L171.72,145.8L175.15,143.76L178.59,144.65L182.02,148.82L185.45,155.19L188.89,150.35L192.32,150.14L195.76,153.42L199.19,158.7L202.63,150L206.06,149.93L209.49,156.78L212.93,149.83L216.36,149.67L219.8,154.16L223.23,149.58L226.67,149.52L230.1,152.98L233.54,158.1L236.97,149.23L240.4,149.19L243.84,156.42L247.27,149.05L250.71,148.93L254.14,154.03L257.58,148.8L261.01,148.87L264.44,152.81L267.88,158.74L271.31,148.57L274.75,148.54L278.18,156.83L281.62,148.6L285.05,148.12L288.48,151.63L291.92,158.55L295.35,148.4L298.79,147.28L302.22,149.08L305.66,155.85L309.09,147.96L312.53,147.88L315.96,154.16L319.39,148.49L322.83,137.97L326.26,146.45L329.7,147.73L333.13,143.04L336.57,145.22L340,148.07" style="vector-effect: non-scaling-stroke; fill: none; stroke: rgb(59, 81, 138); stroke-opacity: 1; stroke-width: 1px; opacity: 1;"/></g><g class="points"/><g class="text"/></g><g class="trace scatter trace005804" style="stroke-miterlimit: 2; opacity: 1;"><g class="fills"/><g class="errorbars"/><g class="lines"><path class="js-line" d="M0,153.92L3.43,158.44L6.87,153.8L10.3,153.8L13.74,159.33L17.17,153.74L20.61,153.66L24.04,160.55L27.47,153.68L30.91,153.79L34.34,162L37.78,149.51L41.21,141.26L44.65,149.44L48.08,153.34L51.52,153.36L54.95,145.41L61.82,156.71L65.25,156.76L68.69,157.05L72.12,151.52L75.56,153.07L78.99,161.06L82.42,150.01L85.86,143.04L89.29,150.84L92.73,153.54L96.16,152.58L99.6,142.96L106.46,154.33L109.9,157.91L113.33,158.48L116.77,156.54L123.64,150.41L127.07,148.69L130.51,148.54L133.94,149.6L140.81,152.45L144.24,153.01L151.11,151.9L154.55,150.85L161.41,149.32L164.85,148.95L168.28,149.17L171.72,145.46L175.15,143.44L178.59,144.33L182.02,148.57L185.45,155.02L188.89,150.02L192.32,149.71L195.76,153.14L199.19,158.48L202.63,149.66L206.06,149.55L209.49,156.43L212.93,149.14L216.36,149.24L219.8,153.81L223.23,149.15L226.67,149L230.1,152.51L233.54,157.65L236.97,148.7L240.4,148.58L243.84,155.86L247.27,148.09L250.71,148.18L254.14,153.43L257.58,148.13L261.01,148.04L264.44,152.08L267.88,158.03L271.31,147.78L274.75,147.62L278.18,155.96L281.62,147.19L285.05,147.63L288.48,150.74L291.92,157.62L295.35,147.22L298.79,146.31L302.22,148.03L305.66,155.1L309.09,146.77L312.53,146.85L315.96,152.93L319.39,147.45L322.83,136.69L326.26,145.22L329.7,146.49L333.13,142.01L336.57,143.39L340,146.72" style="vector-effect: non-scaling-stroke; fill: none; stroke: rgb(45, 114, 142); stroke-opacity: 1; stroke-width: 1px; opacity: 1;"/></g><g class="points"/><g class="text"/></g><g class="trace scatter trace5db8ae" style="stroke-miterlimit: 2; opacity: 1;"><g class="fills"/><g class="errorbars"/><g class="lines"><path class="js-line" d="M0,156.41L3.43,161.49L6.87,156.31L10.3,156.14L13.74,162.43L17.17,155.89L20.61,155.93L24.04,163.74L27.47,155.69L30.91,155.68L34.34,165.42L37.78,151.07L41.21,140.97L44.65,150.86L48.08,156.03L51.52,155.05L54.95,145.88L61.82,158.97L65.25,159.65L68.69,159.47L72.12,153.13L75.56,154.5L78.99,163.96L82.42,151.11L85.86,142.72L89.29,151.89L92.73,155.32L96.16,153.81L99.6,142.65L106.46,155.84L109.9,160.04L113.33,160.69L116.77,158.37L123.64,151.1L127.07,149.12L130.51,148.92L133.94,150.14L140.81,153.43L144.24,154.08L151.11,152.74L154.55,151.49L161.41,149.68L164.85,149.23L168.28,149.48L171.72,145.16L175.15,142.76L178.59,143.78L182.02,148.72L185.45,156.29L188.89,150.51L192.32,150.28L195.76,154.11L199.19,160.4L202.63,149.99L206.06,149.91L209.49,158.04L212.93,149.78L216.36,149.57L219.8,154.84L223.23,149.38L226.67,149.27L230.1,153.37L233.54,159.44L236.97,148.86L240.4,148.81L243.84,157.39L247.27,148.65L250.71,148.46L254.14,154.46L257.58,148.21L261.01,148.29L264.44,152.96L267.88,159.99L271.31,147.83L274.75,147.83L278.18,157.66L281.62,147.96L285.05,147.14L288.48,151.39L291.92,159.63L295.35,147.53L298.79,146.18L302.22,148.25L305.66,156.26L309.09,146.87L312.53,146.78L315.96,154.26L319.39,147.56L322.83,134.91L326.26,145.11L329.7,146.44L333.13,140.82L336.57,143.38L340,146.83" style="vector-effect: non-scaling-stroke; fill: none; stroke: rgb(43, 118, 142); stroke-opacity: 1; stroke-width: 1px; opacity: 1;"/></g><g class="points"/><g class="text"/></g><g class="trace scatter trace49dd26" style="stroke-miterlimit: 2; opacity: 1;"><g class="fills"/><g class="errorbars"/><g class="lines"><path class="js-line" d="M0,159.84L3.43,166.46L6.87,159.63L10.3,159.59L13.74,167.71L17.17,159.21L20.61,159.34L24.04,169.41L27.47,158.94L30.91,158.98L34.34,171.63L37.78,152.86L41.21,140.05L44.65,152.7L48.08,159.69L51.52,158.09L54.95,146.27L61.82,163.12L65.25,164.59L68.69,163.67L72.12,155.75L75.56,157.28L78.99,169.46L82.42,152.75L85.86,142.19L89.29,153.81L92.73,158.44L96.16,156.18L99.6,141.98L106.46,158.68L109.9,164.03L113.33,164.82L116.77,161.79L123.64,152.43L127.07,149.81L130.51,149.51L133.94,151.01L140.81,155.06L144.24,155.81L147.68,155.34L151.11,153.98L157.98,150.89L161.41,149.89L164.85,149.24L168.28,149.48L171.72,143.82L175.15,140.85L178.59,142.09L182.02,148.19L185.45,157.69L188.89,150.26L192.32,150.01L195.76,154.66L199.19,162.57L202.63,149.23L206.06,149.1L209.49,159.29L212.93,148.83L216.36,148.55L219.8,154.93L223.23,147.92L226.67,147.72L230.1,152.73L233.54,160.36L236.97,146.77L240.4,146.7L243.84,157.44L247.27,146.4L250.71,146.1L254.14,153.4L257.58,145.37L261.01,145.51L264.44,151.15L267.88,160.05L271.31,144.46L274.75,144.47L278.18,156.79L281.62,144.72L285.05,143.17L288.48,148.43L291.92,158.88L295.35,143.33L298.79,141.88L302.22,144.03L305.66,154.06L309.09,141.98L312.53,142.06L315.96,151.33L319.39,143.41L322.83,126.66L326.26,140.15L329.7,140.69L333.13,133.59L336.57,136.09L340,141.11" style="vector-effect: non-scaling-stroke; fill: none; stroke: rgb(41, 122, 142); stroke-opacity: 1; stroke-width: 1px; opacity: 1;"/></g><g class="points"/><g class="text"/></g><g class="trace scatter trace8245cf" style="stroke-miterlimit: 2; opacity: 1;"><g class="fills"/><g class="errorbars"/><g class="lines"><path class="js-line" d="M0,152.83L3.43,155.81L6.87,152.78L10.3,152.65L13.74,156.36L17.17,152.53L20.61,152.53L24.04,157.14L27.47,152.43L30.91,152.4L34.34,158.12L37.78,149.8L41.21,143.7L44.65,149.57L48.08,152.41L51.52,152.07L54.95,146.62L61.82,154.39L65.25,154.55L68.69,154.71L72.12,150.88L75.56,151.77L78.99,157.36L82.42,149.85L85.86,144.79L89.29,150.28L92.73,152.22L96.16,151.44L99.6,144.8L106.46,152.68L109.9,155.17L113.33,155.58L116.77,154.22L123.64,149.96L127.07,148.77L130.51,148.66L133.94,149.41L140.81,151.41L144.24,151.81L151.11,151.06L154.55,150.33L164.85,149.03L168.28,149.21L171.72,146.67L175.15,145.22L178.59,145.86L182.02,148.84L185.45,153.39L188.89,149.96L192.32,149.8L195.76,152.15L199.19,155.91L202.63,149.75L206.06,149.7L209.49,154.57L212.93,149.64L216.36,149.53L219.8,152.74L223.23,149.51L226.67,149.47L230.1,151.95L233.54,155.58L236.97,149.31L240.4,149.28L243.84,154.43L247.27,149.19L250.71,149.12L254.14,152.77L257.58,149.07L261.01,149.11L264.44,151.95L267.88,156.14L271.31,148.95L274.75,148.92L278.18,154.82L281.62,148.94L285.05,148.67L288.48,151.19L291.92,156.08L295.35,148.91L298.79,148.04L302.22,149.41L305.66,154.23L309.09,148.64L312.53,148.56L315.96,153.04L319.39,148.96L322.83,141.56L326.26,147.51L329.7,148.55L333.13,145.22L340,148.8" style="vector-effect: non-scaling-stroke; fill: none; stroke: rgb(40, 126, 142); stroke-opacity: 1; stroke-width: 1px; opacity: 1;"/></g><g class="points"/><g class="text"/></g><g class="trace scatter trace207311" style="stroke-miterlimit: 2; opacity: 1;"><g class="fills"/><g class="errorbars"/><g class="lines"><path class="js-line" d="M0,154.01L3.43,158.36L6.87,153.91L10.3,153.85L13.74,159.2L17.17,153.76L20.61,153.69L24.04,160.36L27.47,153.67L30.91,153.74L34.34,161.76L37.78,149.69L41.21,141.53L44.65,149.56L48.08,153.48L51.52,153.29L54.95,145.58L61.82,156.56L65.25,156.74L68.69,156.92L72.12,151.57L75.56,152.97L78.99,160.79L82.42,150.04L85.86,143.19L89.29,150.82L92.73,153.54L96.16,152.48L99.6,143.14L106.46,154.21L109.9,157.71L113.33,158.28L116.77,156.38L123.64,150.39L127.07,148.71L130.51,148.57L133.94,149.61L140.81,152.4L144.24,152.95L151.11,151.88L154.55,150.86L161.41,149.38L164.85,149.02L168.28,149.25L171.72,145.65L175.15,143.65L178.59,144.53L182.02,148.69L185.45,155.01L188.89,150.15L192.32,149.86L195.76,153.22L199.19,158.47L202.63,149.83L206.06,149.75L209.49,156.5L212.93,149.44L216.36,149.44L219.8,153.93L223.23,149.4L226.67,149.29L230.1,152.73L233.54,157.79L236.97,149.04L240.4,148.94L243.84,156.1L247.27,148.57L250.71,148.59L254.14,153.76L257.58,148.56L261.01,148.52L264.44,152.48L267.88,158.35L271.31,148.29L274.75,148.18L278.18,156.37L281.62,147.9L285.05,148.07L288.48,151.27L291.92,158.05L295.35,147.91L298.79,146.97L302.22,148.68L305.66,155.57L309.09,147.5L312.53,147.54L315.96,153.59L319.39,148.11L322.83,137.66L326.26,145.98L329.7,147.31L333.13,142.85L336.57,144.49L340,147.57" style="vector-effect: non-scaling-stroke; fill: none; stroke: rgb(38, 130, 142); stroke-opacity: 1; stroke-width: 1px; opacity: 1;"/></g><g class="points"/><g class="text"/></g><g class="trace scatter trace1d0820" style="stroke-miterlimit: 2; opacity: 1;"><g class="fills"/><g class="errorbars"/><g class="lines"><path class="js-line" d="M0,153.15L3.43,156.34L6.87,153.1L10.3,152.97L13.74,156.93L17.17,152.83L20.61,152.84L24.04,157.76L27.47,152.72L30.91,152.69L34.34,158.81L37.78,149.94L41.21,143.38L44.65,149.67L48.08,152.74L51.52,152.33L54.95,146.51L61.82,154.82L65.25,154.95L68.69,155.16L72.12,151.04L75.56,152.02L78.99,157.99L82.42,150.01L85.86,144.53L89.29,150.42L92.73,152.48L96.16,151.65L99.6,144.54L106.46,152.97L109.9,155.64L113.33,156.07L116.77,154.63L123.64,150.06L127.07,148.79L130.51,148.68L133.94,149.47L140.81,151.61L144.24,152.04L151.11,151.23L154.55,150.45L164.85,149.06L168.28,149.24L171.72,146.53L175.15,144.97L178.59,145.65L182.02,148.85L185.45,153.7L188.89,150.04L192.32,149.88L195.76,152.38L199.19,156.4L202.63,149.81L206.06,149.76L209.49,154.97L212.93,149.7L216.36,149.58L219.8,153.01L223.23,149.55L226.67,149.5L230.1,152.16L233.54,156.04L236.97,149.33L240.4,149.3L243.84,154.81L247.27,149.21L250.71,149.13L254.14,153.02L257.58,149.07L261.01,149.12L264.44,152.15L267.88,156.63L271.31,148.93L274.75,148.91L278.18,155.22L281.62,148.93L285.05,148.62L288.48,151.33L291.92,156.57L295.35,148.9L298.79,147.94L302.22,149.42L305.66,154.57L309.09,148.6L312.53,148.51L315.96,153.31L319.39,148.91L322.83,141L326.26,147.36L329.7,148.5L333.13,144.91L340,148.76" style="vector-effect: non-scaling-stroke; fill: none; stroke: rgb(37, 135, 141); stroke-opacity: 1; stroke-width: 1px; opacity: 1;"/></g><g class="points"/><g class="text"/></g><g class="trace scatter trace13db6c" style="stroke-miterlimit: 2; opacity: 1;"><g class="fills"/><g class="errorbars"/><g class="lines"><path class="js-line" d="M0,155.67L3.43,160.52L6.87,155.54L10.3,155.48L13.74,161.44L17.17,155.29L20.61,155.3L24.04,162.71L27.47,155.14L30.91,155.2L34.34,164.31L37.78,150.64L41.21,141.44L44.65,150.55L48.08,155.3L51.52,154.62L54.95,145.97L61.82,158.28L65.25,158.9L68.69,158.7L72.12,152.78L75.56,154.15L78.99,162.98L82.42,150.84L85.86,143.15L89.29,151.68L92.73,154.87L96.16,153.49L99.6,143.04L106.46,155.37L109.9,159.28L113.33,159.89L116.77,157.72L123.64,150.96L127.07,149.07L130.51,148.88L133.94,150.02L140.81,153.08L144.24,153.66L151.11,152.4L154.55,151.23L161.41,149.52L164.85,149.09L168.28,149.31L171.72,145.26L175.15,143.03L178.59,144L182.02,148.56L185.45,155.58L188.89,150.15L192.32,149.9L195.76,153.49L199.19,159.32L202.63,149.63L206.06,149.54L209.49,157.05L212.93,149.29L216.36,149.19L219.8,154.05L223.23,148.97L226.67,148.82L230.1,152.61L233.54,158.23L236.97,148.4L240.4,148.32L243.84,156.24L247.27,148.02L250.71,147.92L254.14,153.48L257.58,147.68L261.01,147.71L264.44,152.01L267.88,158.51L271.31,147.24L274.75,147.18L278.18,156.25L281.62,147.13L285.05,146.7L288.48,150.41L291.92,157.99L295.35,146.72L298.79,145.59L302.22,147.42L305.66,154.9L309.09,146.06L312.53,146.07L315.96,152.85L319.39,146.82L322.83,135.01L326.26,144.49L329.7,145.57L333.13,140.48L336.57,142.45L340,145.87" style="vector-effect: non-scaling-stroke; fill: none; stroke: rgb(36, 140, 140); stroke-opacity: 1; stroke-width: 1px; opacity: 1;"/></g><g class="points"/><g class="text"/></g><g class="trace scatter trace369dfb" style="stroke-miterlimit: 2; opacity: 1;"><g class="fills"/><g class="errorbars"/><g class="lines"><path class="js-line" d="M0,153.28L3.43,156.56L6.87,153.23L10.3,153.09L13.74,157.15L17.17,152.96L20.61,152.96L24.04,158.01L27.47,152.84L30.91,152.81L34.34,159.08L37.78,149.98L41.21,143.25L44.65,149.71L48.08,152.86L51.52,152.44L54.95,146.47L61.82,154.99L65.25,155.12L68.69,155.33L72.12,151.11L75.56,152.11L78.99,158.24L82.42,150.05L85.86,144.44L89.29,150.47L92.73,152.58L96.16,151.74L99.6,144.45L106.46,153.09L109.9,155.83L113.33,156.27L116.77,154.79L123.64,150.1L127.07,148.79L130.51,148.68L133.94,149.5L140.81,151.69L144.24,152.13L151.11,151.29L154.55,150.5L164.85,149.07L168.28,149.26L171.72,146.47L175.15,144.88L178.59,145.57L182.02,148.85L185.45,153.83L188.89,150.07L192.32,149.91L195.76,152.47L199.19,156.6L202.63,149.84L206.06,149.78L209.49,155.13L212.93,149.71L216.36,149.6L219.8,153.11L223.23,149.57L226.67,149.52L230.1,152.24L233.54,156.22L236.97,149.34L240.4,149.31L243.84,154.96L247.27,149.21L250.71,149.14L254.14,153.12L257.58,149.07L261.01,149.12L264.44,152.22L267.88,156.82L271.31,148.93L274.75,148.9L278.18,155.37L281.62,148.92L285.05,148.61L288.48,151.38L291.92,156.75L295.35,148.88L298.79,147.92L302.22,149.42L305.66,154.7L309.09,148.58L312.53,148.49L315.96,153.41L319.39,148.9L322.83,140.79L326.26,147.3L329.7,148.48L333.13,144.8L340,148.75" style="vector-effect: non-scaling-stroke; fill: none; stroke: rgb(34, 144, 140); stroke-opacity: 1; stroke-width: 1px; opacity: 1;"/></g><g class="points"/><g class="text"/></g><g class="trace scatter traceda6c9d" style="stroke-miterlimit: 2; opacity: 1;"><g class="fills"/><g class="errorbars"/><g class="lines"><path class="js-line" d="M0,153.2L3.43,156.42L6.87,153.15L10.3,153.01L13.74,157.01L17.17,152.88L20.61,152.88L24.04,157.85L27.47,152.76L30.91,152.73L34.34,158.9L37.78,149.95L41.21,143.34L44.65,149.68L48.08,152.78L51.52,152.37L54.95,146.5L61.82,154.88L65.25,155.02L68.69,155.22L72.12,151.07L75.56,152.05L78.99,158.08L82.42,150.02L85.86,144.5L89.29,150.43L92.73,152.51L96.16,151.68L99.6,144.51L106.46,153.02L109.9,155.71L113.33,156.14L116.77,154.68L123.64,150.08L127.07,148.79L130.51,148.67L133.94,149.48L140.81,151.64L144.24,152.07L151.11,151.25L154.55,150.47L164.85,149.06L168.28,149.25L171.72,146.51L175.15,144.94L178.59,145.63L182.02,148.85L185.45,153.75L188.89,150.05L192.32,149.89L195.76,152.41L199.19,156.47L202.63,149.82L206.06,149.77L209.49,155.02L212.93,149.7L216.36,149.59L219.8,153.05L223.23,149.56L226.67,149.51L230.1,152.19L233.54,156.1L236.97,149.33L240.4,149.31L243.84,154.86L247.27,149.21L250.71,149.13L254.14,153.06L257.58,149.07L261.01,149.12L264.44,152.17L267.88,156.69L271.31,148.93L274.75,148.9L278.18,155.27L281.62,148.93L285.05,148.62L288.48,151.34L291.92,156.63L295.35,148.89L298.79,147.94L302.22,149.42L305.66,154.62L309.09,148.59L312.53,148.5L315.96,153.34L319.39,148.92L322.83,140.94L326.26,147.35L329.7,148.49L333.13,144.87L340,148.75" style="vector-effect: non-scaling-stroke; fill: none; stroke: rgb(33, 148, 139); stroke-opacity: 1; stroke-width: 1px; opacity: 1;"/></g><g class="points"/><g class="text"/></g><g class="trace scatter trace80422c" style="stroke-miterlimit: 2; opacity: 1;"><g class="fills"/><g class="errorbars"/><g class="lines"><path class="js-line" d="M0,152.15L3.43,154.71L6.87,152.1L10.3,152L13.74,155.18L17.17,151.9L20.61,151.9L24.04,155.86L27.47,151.82L30.91,151.8L34.34,156.7L37.78,149.56L41.21,144.37L44.65,149.37L48.08,151.83L51.52,151.52L54.95,146.87L61.82,153.52L65.25,153.65L68.69,153.78L72.12,150.51L75.56,151.28L78.99,156.07L82.42,149.65L85.86,145.32L89.29,150.01L92.73,151.66L96.16,151.01L99.6,145.32L106.46,152.07L109.9,154.21L113.33,154.55L116.77,153.4L123.64,149.75L127.07,148.73L133.94,149.29L137.37,150.22L144.24,151.35L147.68,151.2L164.85,148.98L168.28,149.13L171.72,146.96L175.15,145.72L178.59,146.26L182.02,148.82L185.45,152.71L188.89,149.78L192.32,149.64L195.76,151.66L199.19,154.88L202.63,149.61L206.06,149.57L209.49,153.74L212.93,149.51L216.36,149.42L219.8,152.18L223.23,149.41L226.67,149.37L230.1,151.5L233.54,154.61L236.97,149.25L240.4,149.22L243.84,153.63L247.27,149.13L250.71,149.08L254.14,152.21L257.58,149.05L261.01,149.08L264.44,151.52L267.88,155.1L271.31,148.95L274.75,148.93L278.18,153.97L281.62,148.93L285.05,148.74L288.48,150.87L291.92,155.06L295.35,148.92L298.79,148.19L302.22,149.36L305.66,153.49L309.09,148.7L312.53,148.64L315.96,152.46L319.39,148.96L322.83,142.65L326.26,147.72L329.7,148.64L333.13,145.79L340,148.85" style="vector-effect: non-scaling-stroke; fill: none; stroke: rgb(32, 153, 138); stroke-opacity: 1; stroke-width: 1px; opacity: 1;"/></g><g class="points"/><g class="text"/></g><g class="trace scatter traceef6ece" style="stroke-miterlimit: 2; opacity: 1;"><g class="fills"/><g class="errorbars"/><g class="lines"><path class="js-line" d="M0,153.37L3.43,156.69L6.87,153.32L10.3,153.17L13.74,157.3L17.17,153.04L20.61,153.04L24.04,158.16L27.47,152.92L30.91,152.88L34.34,159.25L37.78,150.02L41.21,143.18L44.65,149.74L48.08,152.94L51.52,152.5L54.95,146.45L61.82,155.09L65.25,155.23L68.69,155.45L72.12,151.16L75.56,152.17L78.99,158.4L82.42,150.08L85.86,144.38L89.29,150.5L92.73,152.65L96.16,151.79L99.6,144.39L106.46,153.17L109.9,155.94L113.33,156.39L116.77,154.88L123.64,150.13L127.07,148.8L130.51,148.67L133.94,149.52L140.81,151.74L144.24,152.18L151.11,151.34L154.55,150.53L164.85,149.08L168.28,149.27L171.72,146.44L175.15,144.82L178.59,145.53L182.02,148.85L185.45,153.91L188.89,150.09L192.32,149.93L195.76,152.53L199.19,156.72L202.63,149.85L206.06,149.8L209.49,155.22L212.93,149.72L216.36,149.61L219.8,153.18L223.23,149.58L226.67,149.53L230.1,152.29L233.54,156.33L236.97,149.35L240.4,149.32L243.84,155.05L247.27,149.22L250.71,149.14L254.14,153.19L257.58,149.07L261.01,149.12L264.44,152.27L267.88,156.94L271.31,148.93L274.75,148.9L278.18,155.47L281.62,148.92L285.05,148.61L288.48,151.41L291.92,156.87L295.35,148.88L298.79,147.9L302.22,149.43L305.66,154.79L309.09,148.57L312.53,148.47L315.96,153.48L319.39,148.89L322.83,140.66L326.26,147.27L329.7,148.47L333.13,144.72L340,148.74" style="vector-effect: non-scaling-stroke; fill: none; stroke: rgb(31, 158, 137); stroke-opacity: 1; stroke-width: 1px; opacity: 1;"/></g><g class="points"/><g class="text"/></g><g class="trace scatter traced25a0a" style="stroke-miterlimit: 2; opacity: 1;"><g class="fills"/><g class="errorbars"/><g class="lines"><path class="js-line" d="M0,154.75L3.43,158.95L6.87,154.67L10.3,154.51L13.74,159.72L17.17,154.33L20.61,154.34L24.04,160.81L27.47,154.17L30.91,154.16L34.34,162.19L37.78,150.43L41.21,141.98L44.65,150.16L48.08,154.31L51.52,153.66L54.95,146.05L61.82,156.91L65.25,157.29L68.69,157.33L72.12,152.02L75.56,153.23L78.99,161.06L82.42,150.5L85.86,143.46L89.29,151.1L92.73,153.9L96.16,152.71L99.6,143.44L106.46,154.42L109.9,157.91L113.33,158.47L116.77,156.56L123.64,150.58L127.07,148.9L130.51,148.75L133.94,149.78L140.81,152.56L144.24,153.1L151.11,152.02L154.55,151L161.41,149.52L164.85,149.16L168.28,149.38L171.72,145.83L175.15,143.81L178.59,144.69L182.02,148.82L185.45,155.15L188.89,150.35L192.32,150.14L195.76,153.38L199.19,158.63L202.63,150L206.06,149.94L209.49,156.73L212.93,149.84L216.36,149.68L219.8,154.13L223.23,149.6L226.67,149.53L230.1,152.96L233.54,158.04L236.97,149.26L240.4,149.21L243.84,156.38L247.27,149.08L250.71,148.96L254.14,154.02L257.58,148.83L261.01,148.9L264.44,152.82L267.88,158.68L271.31,148.61L274.75,148.58L278.18,156.8L281.62,148.64L285.05,148.17L288.48,151.66L291.92,158.5L295.35,148.48L298.79,147.31L302.22,149.13L305.66,155.84L309.09,148.03L312.53,147.94L315.96,154.17L319.39,148.52L322.83,138.11L326.26,146.5L329.7,147.81L333.13,143.15L336.57,145.35L340,148.14" style="vector-effect: non-scaling-stroke; fill: none; stroke: rgb(34, 162, 135); stroke-opacity: 1; stroke-width: 1px; opacity: 1;"/></g><g class="points"/><g class="text"/></g><g class="trace scatter traced2366d" style="stroke-miterlimit: 2; opacity: 1;"><g class="fills"/><g class="errorbars"/><g class="lines"><path class="js-line" d="M0,154.87L3.43,159.07L6.87,154.79L10.3,154.62L13.74,159.83L17.17,154.43L20.61,154.45L24.04,160.92L27.47,154.27L30.91,154.22L34.34,162.3L37.78,150.55L41.21,141.94L44.65,150.24L48.08,154.37L51.52,153.73L54.95,146.06L61.82,156.99L65.25,157.28L68.69,157.44L72.12,152.04L75.56,153.28L78.99,161.16L82.42,150.61L85.86,143.41L89.29,151.15L92.73,153.9L96.16,152.76L99.6,143.4L106.46,154.49L109.9,157.99L113.33,158.55L116.77,156.64L123.64,150.61L127.07,148.92L130.51,148.77L133.94,149.81L140.81,152.61L144.24,153.16L151.11,152.08L154.55,151.04L161.41,149.55L164.85,149.18L168.28,149.41L171.72,145.82L175.15,143.78L178.59,144.67L182.02,148.85L185.45,155.23L188.89,150.4L192.32,150.19L195.76,153.46L199.19,158.75L202.63,150.05L206.06,149.99L209.49,156.83L212.93,149.91L216.36,149.73L219.8,154.21L223.23,149.65L226.67,149.58L230.1,153.06L233.54,158.17L236.97,149.31L240.4,149.28L243.84,156.51L247.27,149.17L250.71,149.04L254.14,154.13L257.58,148.91L261.01,148.98L264.44,152.95L267.88,158.84L271.31,148.68L274.75,148.67L278.18,156.96L281.62,148.76L285.05,148.19L288.48,151.79L291.92,158.7L295.35,148.61L298.79,147.31L302.22,149.24L305.66,155.99L309.09,148.14L312.53,148.02L315.96,154.35L319.39,148.6L322.83,138.11L326.26,146.55L329.7,147.93L333.13,143.18L336.57,145.53L340,148.28" style="vector-effect: non-scaling-stroke; fill: none; stroke: rgb(38, 166, 132); stroke-opacity: 1; stroke-width: 1px; opacity: 1;"/></g><g class="points"/><g class="text"/></g><g class="trace scatter traceee3d0a" style="stroke-miterlimit: 2; opacity: 1;"><g class="fills"/><g class="errorbars"/><g class="lines"><path class="js-line" d="M0,154.79L3.43,159L6.87,154.7L10.3,154.54L13.74,159.77L17.17,154.36L20.61,154.37L24.04,160.87L27.47,154.2L30.91,154.19L34.34,162.25L37.78,150.45L41.21,141.96L44.65,150.18L48.08,154.35L51.52,153.68L54.95,146.05L61.82,156.95L65.25,157.34L68.69,157.37L72.12,152.05L75.56,153.25L78.99,161.12L82.42,150.52L85.86,143.45L89.29,151.12L92.73,153.92L96.16,152.73L99.6,143.43L106.46,154.45L109.9,157.95L113.33,158.51L116.77,156.59L123.64,150.59L127.07,148.91L130.51,148.75L133.94,149.79L140.81,152.57L144.24,153.12L151.11,152.04L154.55,151.01L161.41,149.52L164.85,149.16L168.28,149.39L171.72,145.82L175.15,143.8L178.59,144.68L182.02,148.82L185.45,155.18L188.89,150.36L192.32,150.14L195.76,153.41L199.19,158.67L202.63,150.01L206.06,149.95L209.49,156.75L212.93,149.86L216.36,149.68L219.8,154.15L223.23,149.6L226.67,149.54L230.1,152.97L233.54,158.07L236.97,149.26L240.4,149.22L243.84,156.41L247.27,149.08L250.71,148.96L254.14,154.04L257.58,148.83L261.01,148.9L264.44,152.84L267.88,158.72L271.31,148.61L274.75,148.59L278.18,156.83L281.62,148.65L285.05,148.17L288.48,151.67L291.92,158.55L295.35,148.47L298.79,147.33L302.22,149.13L305.66,155.86L309.09,148.02L312.53,147.94L315.96,154.18L319.39,148.57L322.83,138.1L326.26,146.52L329.7,147.8L333.13,143.13L336.57,145.31L340,148.14" style="vector-effect: non-scaling-stroke; fill: none; stroke: rgb(41, 170, 130); stroke-opacity: 1; stroke-width: 1px; opacity: 1;"/></g><g class="points"/><g class="text"/></g><g class="trace scatter trace635943" style="stroke-miterlimit: 2; opacity: 1;"><g class="fills"/><g class="errorbars"/><g class="lines"><path class="js-line" d="M0,140.34L3.43,139.53L6.87,140.25L10.3,141.68L13.74,139.98L17.17,142.46L20.61,142.16L24.04,140.07L27.47,143.28L30.91,144.08L34.34,139.85L37.78,143.86L41.21,150.03L48.08,140.41L51.52,145.15L54.95,148.13L58.38,146.28L65.25,140.73L68.69,142.51L75.56,146.22L78.99,141.68L85.86,151.44L89.29,147.05L92.73,143.94L96.16,146.66L99.6,150.85L103.03,148.45L109.9,143.4L113.33,143.02L120.2,145.79L123.64,147.28L127.07,148.11L130.51,148.14L144.24,145.22L147.68,145.2L164.85,146.57L168.28,146.15L175.15,148.85L178.59,148.25L182.02,145.57L185.45,141.35L188.89,143.55L192.32,143.44L195.76,141.45L199.19,137.75L202.63,142.88L206.06,142.47L209.49,137.78L212.93,140.21L216.36,142.36L219.8,138.9L223.23,141.41L226.67,140.57L230.1,138.16L233.54,134.45L236.97,139.82L240.4,139.22L243.84,134.25L247.27,136.78L250.71,138.55L254.14,134.99L257.58,137.81L261.01,136.95L264.44,134.13L267.88,129.88L271.31,136.13L274.75,135.25L278.18,129.6L281.62,132.01L285.05,137.35L288.48,132.13L291.92,126.77L295.35,132.1L298.79,133.65L302.22,131.98L305.66,128.55L309.09,131.18L312.53,132.1L315.96,126.71L322.83,136.4L326.26,131.03L329.7,129.51L333.13,133.31L336.57,127.6L340,128.13" style="vector-effect: non-scaling-stroke; fill: none; stroke: rgb(45, 174, 127); stroke-opacity: 1; stroke-width: 1px; opacity: 1;"/></g><g class="points"/><g class="text"/></g><g class="trace scatter traceddc1eb" style="stroke-miterlimit: 2; opacity: 1;"><g class="fills"/><g class="errorbars"/><g class="lines"><path class="js-line" d="M0,156.35L3.43,161.4L6.87,156.22L10.3,156.08L13.74,162.33L17.17,155.84L20.61,155.88L24.04,163.64L27.47,155.65L30.91,155.64L34.34,165.31L37.78,151.06L41.21,141.03L44.65,150.83L48.08,155.9L51.52,155.01L54.95,145.88L61.82,158.9L65.25,159.45L68.69,159.39L72.12,153.05L75.56,154.47L78.99,163.86L82.42,151.34L85.86,142.78L89.29,151.88L92.73,154.88L96.16,154.1L99.6,142.7L106.46,155.8L109.9,159.97L113.33,160.62L116.77,158.31L123.64,151.14L127.07,149.12L130.51,148.92L133.94,150.14L140.81,153.41L144.24,154.05L151.11,152.73L154.55,151.49L161.41,149.68L164.85,149.22L168.28,149.47L171.72,145.18L175.15,142.79L178.59,143.82L182.02,148.72L185.45,156.24L188.89,150.49L192.32,150.24L195.76,154.07L199.19,160.31L202.63,149.98L206.06,149.89L209.49,157.96L212.93,149.75L216.36,149.55L219.8,154.78L223.23,149.36L226.67,149.25L230.1,153.32L233.54,159.34L236.97,148.83L240.4,148.78L243.84,157.29L247.27,148.61L250.71,148.43L254.14,154.39L257.58,148.18L261.01,148.26L264.44,152.9L267.88,159.87L271.31,147.8L274.75,147.79L278.18,157.55L281.62,147.9L285.05,147.14L288.48,151.32L291.92,159.49L295.35,147.47L298.79,146.13L302.22,148.2L305.66,156.15L309.09,146.83L312.53,146.75L315.96,154.16L319.39,147.5L322.83,134.97L326.26,145.04L329.7,146.41L333.13,140.83L336.57,143.38L340,146.78" style="vector-effect: non-scaling-stroke; fill: none; stroke: rgb(96, 200, 96); stroke-opacity: 1; stroke-width: 1px; opacity: 1;"/></g><g class="points"/><g class="text"/></g><g class="trace scatter trace9bcf11" style="stroke-miterlimit: 2; opacity: 1;"><g class="fills"/><g class="errorbars"/><g class="lines"><path class="js-line" d="M0,160.44L3.43,167.32L6.87,160.24L10.3,160.22L13.74,168.63L17.17,159.82L20.61,159.97L24.04,170.4L27.47,159.54L30.91,159.63L34.34,172.73L37.78,153.02L41.21,140.16L44.65,153.12L48.08,160.49L51.52,158.69L54.95,146.52L61.82,163.86L65.25,165.69L68.69,164.4L72.12,156.37L75.56,157.85L78.99,170.4L82.42,152.91L85.86,142.36L89.29,154.23L92.73,159.12L96.16,156.64L99.6,142.08L106.46,159.18L109.9,164.67L113.33,165.47L116.77,162.32L123.64,152.68L127.07,149.98L130.51,149.67L133.94,151.17L140.81,155.29L144.24,156.04L147.68,155.53L151.11,154.11L157.98,150.9L161.41,149.86L164.85,149.18L168.28,149.39L171.72,143.55L175.15,140.53L178.59,141.79L182.02,147.96L185.45,157.64L188.89,150L192.32,149.76L195.76,154.44L199.19,162.52L202.63,148.82L206.06,148.68L209.49,159.05L212.93,148.35L216.36,148.07L219.8,154.49L223.23,147.33L226.67,147.04L230.1,152.12L233.54,159.89L236.97,145.97L240.4,145.87L243.84,156.79L247.27,145.53L250.71,145.2L254.14,152.53L257.58,144.25L261.01,144.4L264.44,150.13L267.88,159.18L271.31,143.14L274.75,143.2L278.18,155.72L281.62,143.47L285.05,141.79L288.48,147L291.92,157.7L295.35,141.65L298.79,140.45L302.22,142.35L305.66,152.59L309.09,140.13L312.53,140.37L315.96,149.72L319.39,141.89L322.83,124.56L326.26,138.47L329.7,138.56L333.13,131.31L336.57,133.72L340,138.95" style="vector-effect: non-scaling-stroke; fill: none; stroke: rgb(105, 204, 91); stroke-opacity: 1; stroke-width: 1px; opacity: 1;"/></g><g class="points"/><g class="text"/></g><g class="trace scatter trace3a43a1" style="stroke-miterlimit: 2; opacity: 1;"><g class="fills"/><g class="errorbars"/><g class="lines"><path class="js-line" d="M0,152.84L3.43,155.74L6.87,152.8L10.3,152.68L13.74,156.27L17.17,152.57L20.61,152.57L24.04,157.02L27.47,152.47L30.91,152.45L34.34,157.97L37.78,149.91L41.21,144.05L44.65,149.71L48.08,152.49L51.52,152.12L54.95,146.87L61.82,154.37L65.25,154.52L68.69,154.68L72.12,150.98L75.56,151.85L78.99,157.24L82.42,149.99L85.86,145.1L89.29,150.4L92.73,152.28L96.16,151.53L99.6,145.11L106.46,152.72L109.9,155.14L113.33,155.53L116.77,154.22L123.64,150.1L127.07,148.95L130.51,148.85L133.94,149.57L140.81,151.51L144.24,151.89L151.11,151.16L154.55,150.46L164.85,149.21L168.28,149.38L171.72,146.93L175.15,145.53L178.59,146.15L182.02,149.03L185.45,153.42L188.89,150.11L192.32,149.94L195.76,152.22L199.19,155.86L202.63,149.91L206.06,149.86L209.49,154.57L212.93,149.8L216.36,149.7L219.8,152.8L223.23,149.68L226.67,149.62L230.1,152.04L233.54,155.54L236.97,149.49L240.4,149.46L243.84,154.43L247.27,149.37L250.71,149.3L254.14,152.83L257.58,149.26L261.01,149.3L264.44,152.04L267.88,156.09L271.31,149.14L274.75,149.12L278.18,154.81L281.62,149.13L285.05,148.87L288.48,151.3L291.92,156.03L295.35,149.11L298.79,148.27L302.22,149.59L305.66,154.25L309.09,148.85L312.53,148.78L315.96,153.09L319.39,149.17L322.83,142.02L326.26,147.77L329.7,148.76L333.13,145.55L340,149.01" style="vector-effect: non-scaling-stroke; fill: none; stroke: rgb(115, 207, 85); stroke-opacity: 1; stroke-width: 1px; opacity: 1;"/></g><g class="points"/><g class="text"/></g><g class="trace scatter tracec471d8" style="stroke-miterlimit: 2; opacity: 1;"><g class="fills"/><g class="errorbars"/><g class="lines"><path class="js-line" d="M0,154.02L3.43,158.35L6.87,153.92L10.3,153.86L13.74,159.19L17.17,153.77L20.61,153.7L24.04,160.34L27.47,153.68L30.91,153.76L34.34,161.74L37.78,149.68L41.21,141.6L44.65,149.59L48.08,153.5L51.52,153.3L54.95,145.62L61.82,156.55L65.25,156.77L68.69,156.91L72.12,151.59L75.56,152.98L78.99,160.77L82.42,150.03L85.86,143.25L89.29,150.83L92.73,153.53L96.16,152.49L99.6,143.19L106.46,154.21L109.9,157.7L113.33,158.26L116.77,156.36L123.64,150.4L127.07,148.73L130.51,148.59L133.94,149.63L140.81,152.4L144.24,152.95L151.11,151.88L154.55,150.85L161.41,149.38L164.85,149.03L168.28,149.25L171.72,145.68L175.15,143.69L178.59,144.57L182.02,148.69L185.45,154.99L188.89,150.15L192.32,149.87L195.76,153.2L199.19,158.42L202.63,149.83L206.06,149.74L209.49,156.47L212.93,149.44L216.36,149.44L219.8,153.9L223.23,149.39L226.67,149.28L230.1,152.7L233.54,157.74L236.97,149.03L240.4,148.93L243.84,156.05L247.27,148.57L250.71,148.57L254.14,153.7L257.58,148.54L261.01,148.5L264.44,152.44L267.88,158.27L271.31,148.27L274.75,148.16L278.18,156.31L281.62,147.9L285.05,148.06L288.48,151.24L291.92,157.99L295.35,147.91L298.79,146.95L302.22,148.66L305.66,155.49L309.09,147.48L312.53,147.53L315.96,153.53L319.39,148.15L322.83,137.68L326.26,146.05L329.7,147.26L333.13,142.85L336.57,144.36L340,147.55" style="vector-effect: non-scaling-stroke; fill: none; stroke: rgb(126, 210, 78); stroke-opacity: 1; stroke-width: 1px; opacity: 1;"/></g><g class="points"/><g class="text"/></g><g class="trace scatter trace511e3c" style="stroke-miterlimit: 2; opacity: 1;"><g class="fills"/><g class="errorbars"/><g class="lines"><path class="js-line" d="M0,153.13L3.43,156.31L6.87,153.08L10.3,152.94L13.74,156.9L17.17,152.82L20.61,152.82L24.04,157.72L27.47,152.7L30.91,152.67L34.34,158.76L37.78,149.93L41.21,143.39L44.65,149.66L48.08,152.72L51.52,152.31L54.95,146.52L61.82,154.79L65.25,154.92L68.69,155.13L72.12,151.03L75.56,152L78.99,157.95L82.42,150L85.86,144.55L89.29,150.41L92.73,152.46L96.16,151.64L99.6,144.56L106.46,152.96L109.9,155.61L113.33,156.04L116.77,154.6L123.64,150.06L127.07,148.78L130.51,148.67L133.94,149.47L140.81,151.6L144.24,152.02L151.11,151.22L154.55,150.45L164.85,149.06L168.28,149.24L171.72,146.54L175.15,144.99L178.59,145.67L182.02,148.85L185.45,153.68L188.89,150.04L192.32,149.88L195.76,152.37L199.19,156.37L202.63,149.81L206.06,149.76L209.49,154.95L212.93,149.69L216.36,149.58L219.8,153L223.23,149.55L226.67,149.5L230.1,152.15L233.54,156.02L236.97,149.33L240.4,149.31L243.84,154.79L247.27,149.21L250.71,149.13L254.14,153.01L257.58,149.07L261.01,149.12L264.44,152.14L267.88,156.6L271.31,148.94L274.75,148.91L278.18,155.2L281.62,148.94L285.05,148.63L288.48,151.33L291.92,156.54L295.35,148.9L298.79,147.95L302.22,149.43L305.66,154.56L309.09,148.61L312.53,148.51L315.96,153.3L319.39,148.91L322.83,141.04L326.26,147.32L329.7,148.53L333.13,144.94L340,148.77" style="vector-effect: non-scaling-stroke; fill: none; stroke: rgb(138, 212, 70); stroke-opacity: 1; stroke-width: 1px; opacity: 1;"/></g><g class="points"/><g class="text"/></g><g class="trace scatter trace1257e2" style="stroke-miterlimit: 2; opacity: 1;"><g class="fills"/><g class="errorbars"/><g class="lines"><path class="js-line" d="M0,155.58L3.43,160.33L6.87,155.48L10.3,155.36L13.74,161.21L17.17,155.16L20.61,155.18L24.04,162.46L27.47,155L30.91,155.03L34.34,164.02L37.78,150.66L41.21,141.43L44.65,150.5L48.08,155.2L51.52,154.45L54.95,145.94L61.82,158.07L65.25,158.67L68.69,158.51L72.12,152.66L75.56,153.98L78.99,162.71L82.42,150.79L85.86,143.1L89.29,151.56L92.73,154.72L96.16,153.35L99.6,143.02L106.46,155.23L109.9,159.11L113.33,159.72L116.77,157.58L123.64,150.89L127.07,149.03L130.51,148.85L133.94,149.98L140.81,153.03L144.24,153.62L151.11,152.39L154.55,151.24L161.41,149.56L164.85,149.15L168.28,149.38L171.72,145.39L175.15,143.18L178.59,144.13L182.02,148.68L185.45,155.67L188.89,150.31L192.32,150.06L195.76,153.64L199.19,159.45L202.63,149.84L206.06,149.76L209.49,157.25L212.93,149.57L216.36,149.43L219.8,154.3L223.23,149.27L226.67,149.16L230.1,152.93L233.54,158.53L236.97,148.78L240.4,148.71L243.84,156.61L247.27,148.48L250.71,148.36L254.14,153.92L257.58,148.16L261.01,148.21L264.44,152.51L267.88,158.99L271.31,147.8L274.75,147.76L278.18,156.81L281.62,147.77L285.05,147.27L288.48,151.04L291.92,158.61L295.35,147.42L298.79,146.27L302.22,148.14L305.66,155.56L309.09,146.84L312.53,146.81L315.96,153.62L319.39,147.54L322.83,135.87L326.26,145.26L329.7,146.45L333.13,141.37L336.57,143.46L340,146.79" style="vector-effect: non-scaling-stroke; fill: none; stroke: rgb(149, 215, 63); stroke-opacity: 1; stroke-width: 1px; opacity: 1;"/></g><g class="points"/><g class="text"/></g><g class="trace scatter trace60f29a" style="stroke-miterlimit: 2; opacity: 1;"><g class="fills"/><g class="errorbars"/><g class="lines"><path class="js-line" d="M0,153.57L3.43,156.84L6.87,153.51L10.3,153.38L13.74,157.44L17.17,153.24L20.61,153.25L24.04,158.29L27.47,153.13L30.91,153.1L34.34,159.36L37.78,150.29L41.21,143.54L44.65,150L48.08,153.13L51.52,152.73L54.95,146.76L61.82,155.28L65.25,155.4L68.69,155.62L72.12,151.4L75.56,152.4L78.99,158.52L82.42,150.35L85.86,144.73L89.29,150.76L92.73,152.86L96.16,152.03L99.6,144.74L106.46,153.39L109.9,156.11L113.33,156.55L116.77,155.07L123.64,150.4L127.07,149.09L130.51,148.97L133.94,149.79L140.81,151.98L144.24,152.42L151.11,151.59L154.55,150.79L164.85,149.36L168.28,149.55L171.72,146.76L175.15,145.16L178.59,145.86L182.02,149.14L185.45,154.12L188.89,150.36L192.32,150.2L195.76,152.76L199.19,156.88L202.63,150.12L206.06,150.07L209.49,155.41L212.93,150L216.36,149.88L219.8,153.4L223.23,149.86L226.67,149.81L230.1,152.53L233.54,156.5L236.97,149.63L240.4,149.6L243.84,155.24L247.27,149.5L250.71,149.42L254.14,153.41L257.58,149.36L261.01,149.4L264.44,152.51L267.88,157.1L271.31,149.21L274.75,149.18L278.18,155.66L281.62,149.21L285.05,148.89L288.48,151.67L291.92,157.03L295.35,149.18L298.79,148.19L302.22,149.71L305.66,154.98L309.09,148.87L312.53,148.76L315.96,153.7L319.39,149.13L322.83,141.07L326.26,147.54L329.7,148.78L333.13,145.08L340,149.03" style="vector-effect: non-scaling-stroke; fill: none; stroke: rgb(161, 217, 56); stroke-opacity: 1; stroke-width: 1px; opacity: 1;"/></g><g class="points"/><g class="text"/></g><g class="trace scatter trace964778" style="stroke-miterlimit: 2; opacity: 1;"><g class="fills"/><g class="errorbars"/><g class="lines"><path class="js-line" d="M0,153.14L3.43,156.32L6.87,153.09L10.3,152.95L13.74,156.91L17.17,152.82L20.61,152.82L24.04,157.73L27.47,152.71L30.91,152.68L34.34,158.77L37.78,149.93L41.21,143.4L44.65,149.67L48.08,152.73L51.52,152.32L54.95,146.52L61.82,154.8L65.25,154.94L68.69,155.14L72.12,151.04L75.56,152L78.99,157.96L82.42,150L85.86,144.55L89.29,150.41L92.73,152.46L96.16,151.64L99.6,144.56L106.46,152.96L109.9,155.62L113.33,156.05L116.77,154.61L123.64,150.06L127.07,148.79L130.51,148.68L133.94,149.47L140.81,151.6L144.24,152.03L151.11,151.22L154.55,150.45L164.85,149.06L168.28,149.24L171.72,146.54L175.15,144.99L178.59,145.67L182.02,148.85L185.45,153.69L188.89,150.04L192.32,149.88L195.76,152.37L199.19,156.38L202.63,149.81L206.06,149.76L209.49,154.95L212.93,149.69L216.36,149.58L219.8,153L223.23,149.55L226.67,149.5L230.1,152.15L233.54,156.02L236.97,149.33L240.4,149.31L243.84,154.79L247.27,149.21L250.71,149.13L254.14,153.01L257.58,149.07L261.01,149.12L264.44,152.14L267.88,156.61L271.31,148.94L274.75,149.02L278.18,155.2L281.62,149.1L285.05,148.47L288.48,151.32L291.92,156.54L295.35,148.97L298.79,147.88L302.22,149.42L305.66,154.55L309.09,148.61L312.53,148.51L315.96,153.3L319.39,148.91L322.83,141.04L326.26,147.36L329.7,148.51L333.13,144.93L340,148.77" style="vector-effect: non-scaling-stroke; fill: none; stroke: rgb(172, 220, 49); stroke-opacity: 1; stroke-width: 1px; opacity: 1;"/></g><g class="points"/><g class="text"/></g><g class="trace scatter trace78aae3" style="stroke-miterlimit: 2; opacity: 1;"><g class="fills"/><g class="errorbars"/><g class="lines"><path class="js-line" d="M0,152.13L3.43,154.69L6.87,152.09L10.3,151.98L13.74,155.16L17.17,151.89L20.61,151.89L24.04,155.83L27.47,151.81L30.91,151.79L34.34,156.67L37.78,149.55L41.21,144.38L44.65,149.37L48.08,151.81L51.52,151.51L54.95,146.87L61.82,153.5L65.25,153.61L68.69,153.76L72.12,150.49L75.56,151.28L78.99,156.04L82.42,149.64L85.86,145.33L89.29,150L92.73,151.65L96.16,151L99.6,145.33L106.46,152.05L109.9,154.19L113.33,154.53L116.77,153.38L123.64,149.75L127.07,148.73L133.94,149.28L137.37,150.22L144.24,151.34L147.68,151.19L164.85,148.98L168.28,149.13L171.72,146.97L175.15,145.73L178.59,146.27L182.02,148.82L185.45,152.7L188.89,149.77L192.32,149.63L195.76,151.65L199.19,154.86L202.63,149.6L206.06,149.57L209.49,153.72L212.93,149.51L216.36,149.42L219.8,152.17L223.23,149.41L226.67,149.37L230.1,151.49L233.54,154.6L236.97,149.25L240.4,149.22L243.84,153.62L247.27,149.13L250.71,149.08L254.14,152.2L257.58,149.05L261.01,149.08L264.44,151.51L267.88,155.08L271.31,148.95L274.75,148.93L278.18,153.95L281.62,148.93L285.05,148.73L288.48,150.87L291.92,155.04L295.35,148.93L298.79,148.19L302.22,149.36L305.66,153.47L309.09,148.7L312.53,148.64L315.96,152.45L319.39,148.96L322.83,142.67L326.26,147.72L329.7,148.64L333.13,145.8L340,148.85" style="vector-effect: non-scaling-stroke; fill: none; stroke: rgb(184, 222, 43); stroke-opacity: 1; stroke-width: 1px; opacity: 1;"/></g><g class="points"/><g class="text"/></g><g class="trace scatter trace6dc889" style="stroke-miterlimit: 2; opacity: 1;"><g class="fills"/><g class="errorbars"/><g class="lines"><path class="js-line" d="M0,153.33L3.43,156.63L6.87,153.28L10.3,153.14L13.74,157.24L17.17,153L20.61,153.01L24.04,158.1L27.47,152.88L30.91,152.85L34.34,159.18L37.78,150L41.21,143.21L44.65,149.72L48.08,152.91L51.52,152.48L54.95,146.46L61.82,155.04L65.25,155.19L68.69,155.4L72.12,151.14L75.56,152.15L78.99,158.33L82.42,150.07L85.86,144.4L89.29,150.49L92.73,152.62L96.16,151.77L99.6,144.41L106.46,153.14L109.9,155.89L113.33,156.34L116.77,154.84L123.64,150.12L127.07,148.8L130.51,148.68L133.94,149.51L140.81,151.72L144.24,152.16L151.11,151.32L154.55,150.52L164.85,149.07L168.28,149.26L171.72,146.46L175.15,144.84L178.59,145.55L182.02,148.85L185.45,153.87L188.89,150.09L192.32,149.92L195.76,152.51L199.19,156.66L202.63,149.84L206.06,149.79L209.49,155.18L212.93,149.73L216.36,149.6L219.8,153.15L223.23,149.57L226.67,149.52L230.1,152.27L233.54,156.29L236.97,149.34L240.4,149.31L243.84,155.01L247.27,149.22L250.71,149.14L254.14,153.16L257.58,149.07L261.01,149.12L264.44,152.25L267.88,156.89L271.31,148.93L274.75,148.9L278.18,155.43L281.62,148.93L285.05,148.6L288.48,151.4L291.92,156.82L295.35,148.89L298.79,147.89L302.22,149.43L305.66,154.75L309.09,148.58L312.53,148.48L315.96,153.45L319.39,148.83L322.83,140.71L326.26,147.23L329.7,148.49L333.13,144.75L340,148.74" style="vector-effect: non-scaling-stroke; fill: none; stroke: rgb(195, 224, 42); stroke-opacity: 1; stroke-width: 1px; opacity: 1;"/></g><g class="points"/><g class="text"/></g><g class="trace scatter trace4e763e" style="stroke-miterlimit: 2; opacity: 1;"><g class="fills"/><g class="errorbars"/><g class="lines"><path class="js-line" d="M0,154.86L3.43,159.11L6.87,154.78L10.3,154.62L13.74,159.9L17.17,154.44L20.61,154.45L24.04,161L27.47,154.28L30.91,154.26L34.34,162.4L37.78,150.49L41.21,141.92L44.65,150.22L48.08,154.43L51.52,153.74L54.95,146.04L61.82,157.04L65.25,157.48L68.69,157.47L72.12,152.11L75.56,153.3L78.99,161.25L82.42,150.55L85.86,143.41L89.29,151.15L92.73,153.99L96.16,152.78L99.6,143.4L106.46,154.51L109.9,158.04L113.33,158.61L116.77,156.67L123.64,150.61L127.07,148.92L130.51,148.76L133.94,149.81L140.81,152.61L144.24,153.17L151.11,152.07L154.55,151.03L161.41,149.53L164.85,149.16L168.28,149.39L171.72,145.79L175.15,143.75L178.59,144.64L182.02,148.82L185.45,155.22L188.89,150.37L192.32,150.15L195.76,153.43L199.19,158.75L202.63,150.01L206.06,149.95L209.49,156.82L212.93,149.85L216.36,149.68L219.8,154.19L223.23,149.59L226.67,149.53L230.1,153.01L233.54,158.14L236.97,149.24L240.4,149.2L243.84,156.46L247.27,149.07L250.71,148.94L254.14,154.04L257.58,148.81L261.01,148.88L264.44,152.86L267.88,158.79L271.31,148.58L274.75,148.56L278.18,156.88L281.62,148.63L285.05,148.12L288.48,151.67L291.92,158.6L295.35,148.44L298.79,147.27L302.22,149.1L305.66,155.89L309.09,147.98L312.53,147.89L315.96,154.21L319.39,148.49L322.83,137.96L326.26,146.42L329.7,147.77L333.13,143.03L336.57,145.3L340,148.1" style="vector-effect: non-scaling-stroke; fill: none; stroke: rgb(207, 225, 41); stroke-opacity: 1; stroke-width: 1px; opacity: 1;"/></g><g class="points"/><g class="text"/></g><g class="trace scatter tracec947a2" style="stroke-miterlimit: 2; opacity: 1;"><g class="fills"/><g class="errorbars"/><g class="lines"><path class="js-line" d="M0,155.12L3.43,159.47L6.87,155.03L10.3,154.93L13.74,160.26L17.17,154.93L20.61,154.69L24.04,161.39L27.47,154.5L30.91,154.44L34.34,162.81L37.78,150.64L41.21,141.74L44.65,150.33L48.08,154.62L51.52,153.93L54.95,146L61.82,157.32L65.25,157.62L68.69,157.78L72.12,152.19L75.56,153.47L78.99,161.62L82.42,150.69L85.86,143.26L89.29,151.26L92.73,154.11L96.16,152.93L99.6,143.25L106.46,154.71L109.9,158.34L113.33,158.91L116.77,156.93L123.64,150.69L127.07,148.95L130.51,148.79L133.94,149.86L140.81,152.75L144.24,153.32L151.11,152.19L154.55,151.12L161.41,149.58L164.85,149.2L168.28,149.43L171.72,145.72L175.15,143.6L178.59,144.52L182.02,148.84L185.45,155.44L188.89,150.45L192.32,150.23L195.76,153.6L199.19,159.07L202.63,150.08L206.06,150.01L209.49,157.08L212.93,149.93L216.36,149.74L219.8,154.39L223.23,149.65L226.67,149.59L230.1,153.17L233.54,158.45L236.97,149.29L240.4,149.25L243.84,156.73L247.27,149.15L250.71,149.01L254.14,154.27L257.58,148.86L261.01,148.94L264.44,153.03L267.88,159.13L271.31,148.62L274.75,148.6L278.18,157.18L281.62,148.7L285.05,148.09L288.48,151.82L291.92,158.97L295.35,148.53L298.79,147.19L302.22,149.18L305.66,156.15L309.09,148.04L312.53,147.91L315.96,154.46L319.39,148.52L322.83,137.65L326.26,146.4L329.7,147.8L333.13,142.89L336.57,145.31L340,148.17" style="vector-effect: non-scaling-stroke; fill: none; stroke: rgb(218, 227, 40); stroke-opacity: 1; stroke-width: 1px; opacity: 1;"/></g><g class="points"/><g class="text"/></g><g class="trace scatter tracea6d739" style="stroke-miterlimit: 2; opacity: 1;"><g class="fills"/><g class="errorbars"/><g class="lines"><path class="js-line" d="M0,154.94L3.43,159.22L6.87,154.85L10.3,154.69L13.74,160.01L17.17,154.5L20.61,154.51L24.04,161.13L27.47,154.34L30.91,154.32L34.34,162.52L37.78,150.51L41.21,141.87L44.65,150.24L48.08,154.5L51.52,153.8L54.95,146.02L61.82,157.13L65.25,157.58L68.69,157.57L72.12,152.15L75.56,153.35L78.99,161.38L82.42,150.59L85.86,143.37L89.29,151.18L92.73,154.03L96.16,152.83L99.6,143.34L106.46,154.58L109.9,158.14L113.33,158.71L116.77,156.76L123.64,150.64L127.07,148.92L130.51,148.77L133.94,149.82L140.81,152.65L144.24,153.21L151.11,152.1L154.55,151.06L161.41,149.54L164.85,149.17L168.28,149.4L171.72,145.76L175.15,143.7L178.59,144.59L182.02,148.82L185.45,155.29L188.89,150.38L192.32,150.16L195.76,153.47L199.19,158.85L202.63,150.01L206.06,149.95L209.49,156.89L212.93,149.85L216.36,149.68L219.8,154.23L223.23,149.59L226.67,149.5L230.1,153.03L233.54,158.22L236.97,149.23L240.4,149.19L243.84,156.52L247.27,149.05L250.71,148.93L254.14,154.09L257.58,148.79L261.01,148.86L264.44,152.87L267.88,158.86L271.31,148.55L274.75,148.53L278.18,156.93L281.62,148.6L285.05,148.09L288.48,151.67L291.92,158.67L295.35,148.4L298.79,147.24L302.22,149.07L305.66,155.93L309.09,147.94L312.53,147.86L315.96,154.23L319.39,148.47L322.83,137.81L326.26,146.41L329.7,147.7L333.13,142.95L336.57,145.17L340,148.05" style="vector-effect: non-scaling-stroke; fill: none; stroke: rgb(230, 228, 39); stroke-opacity: 1; stroke-width: 1px; opacity: 1;"/></g><g class="points"/><g class="text"/></g><g class="trace scatter tracebe7163" style="stroke-miterlimit: 2; opacity: 1;"><g class="fills"/><g class="errorbars"/><g class="lines"><path class="js-line" d="M0,139.93L3.43,138.84L6.87,139.78L10.3,141.25L13.74,139.26L17.17,142.06L20.61,141.74L24.04,139.31L27.47,142.9L30.91,143.73L34.34,139.03L37.78,143.39L41.21,150.49L48.08,140.02L51.52,144.85L54.95,148.28L58.38,146.14L65.25,140.29L68.69,141.97L72.12,144.47L75.56,145.97L78.99,140.95L82.42,145.95L85.86,151.78L89.29,146.94L92.73,143.66L96.16,146.44L99.6,151.21L103.03,148.47L109.9,142.85L113.33,142.43L120.2,145.51L123.64,147.19L127.07,148.12L130.51,148.16L144.24,144.94L147.68,144.94L164.85,146.53L168.28,146.09L175.15,149.13L178.59,148.48L182.02,145.51L185.45,140.87L188.89,143.36L192.32,143.29L195.76,141.19L199.19,137.02L202.63,142.69L206.06,142.26L209.49,137.13L212.93,139.95L216.36,142.22L219.8,138.41L223.23,141.2L226.67,140.32L230.1,137.68L233.54,133.66L236.97,139.57L240.4,138.96L243.84,133.53L247.27,136.48L250.71,138.31L254.14,134.39L257.58,137.53L261.01,136.64L264.44,133.56L267.88,128.95L271.31,135.81L274.75,134.92L278.18,128.74L281.62,131.61L285.05,137.11L288.48,131.56L291.92,125.76L295.35,131.68L298.79,133.35L302.22,131.52L305.66,127.69L309.09,130.56L312.53,131.83L315.96,125.89L322.83,136.57L326.26,131.02L329.7,128.91L333.13,133.15L336.57,126.64L340,127.6" style="vector-effect: non-scaling-stroke; fill: none; stroke: rgb(241, 230, 38); stroke-opacity: 1; stroke-width: 1px; opacity: 1;"/></g><g class="points"/><g class="text"/></g><g class="trace scatter trace7f9d63" style="stroke-miterlimit: 2; opacity: 1;"><g class="fills"/><g class="errorbars"/><g class="lines"><path class="js-line" d="M0,153.61L3.43,156.89L6.87,153.55L10.3,153.41L13.74,157.5L17.17,153.28L20.61,153.28L24.04,158.36L27.47,153.16L30.91,153.13L34.34,159.43L37.78,150.29L41.21,143.51L44.65,150.01L48.08,153.17L51.52,152.75L54.95,146.75L61.82,155.31L65.25,155.44L68.69,155.67L72.12,151.41L75.56,152.43L78.99,158.59L82.42,150.36L85.86,144.7L89.29,150.77L92.73,152.89L96.16,152.05L99.6,144.71L106.46,153.41L109.9,156.16L113.33,156.6L116.77,155.11L123.64,150.41L127.07,149.09L130.51,148.97L133.94,149.8L140.81,152L144.24,152.44L151.11,151.73L154.55,150.8L164.85,149.37L168.28,149.55L171.72,146.75L175.15,145.14L178.59,145.85L182.02,149.14L185.45,154.15L188.89,150.37L192.32,150.21L195.76,152.79L199.19,156.93L202.63,150.13L206.06,150.08L209.49,155.45L212.93,150.01L216.36,149.89L219.8,153.43L223.23,149.86L226.67,149.81L230.1,152.56L233.54,156.55L236.97,149.63L240.4,149.6L243.84,155.28L247.27,149.5L250.71,149.43L254.14,153.44L257.58,149.36L261.01,149.41L264.44,152.53L267.88,157.15L271.31,149.22L274.75,149.19L278.18,155.7L281.62,149.21L285.05,148.89L288.48,151.68L291.92,157.08L295.35,149.18L298.79,148.18L302.22,149.72L305.66,155.03L309.09,148.87L312.53,148.77L315.96,153.73L319.39,149.18L322.83,141.03L326.26,147.58L329.7,148.76L333.13,145.06L340,149.03" style="vector-effect: non-scaling-stroke; fill: none; stroke: rgb(253, 231, 37); stroke-opacity: 1; stroke-width: 1px; opacity: 1;"/></g><g class="points"/><g class="text"/></g><g class="trace scatter trace6bffc2" style="stroke-miterlimit: 2; opacity: 1;"><g class="fills"/><g class="errorbars"/><g class="lines"><path class="js-line" d="M0,258.4L51.52,226.55L54.95,224.36L106.46,190.67L109.9,188.36L157.98,155.16L161.41,152.73L212.93,115.16L216.36,112.59L264.44,75.57L267.88,72.86L319.39,30.98L322.83,28.11L340,13.6" style="vector-effect: non-scaling-stroke; fill: none; stroke: rgb(169, 169, 169); stroke-opacity: 1; stroke-width: 2px; opacity: 1;"/></g><g class="points"/><g class="text"/></g></g></g><g class="overplot"/><path class="xlines-above crisp" d="M0,0" style="fill: none;"/><path class="ylines-above crisp" d="M0,0" style="fill: none;"/><g class="overlines-above"/><g class="xaxislayer-above"><g class="x3tick"><text text-anchor="middle" x="0" y="1133" transform="translate(109.63,0)" style="font-family: 'Open Sans', verdana, arial, sans-serif; font-size: 12px; fill: rgb(42, 63, 95); fill-opacity: 1; white-space: pre; opacity: 1;">1.4</text></g><g class="x3tick"><text text-anchor="middle" x="0" y="1133" style="font-family: 'Open Sans', verdana, arial, sans-serif; font-size: 12px; fill: rgb(42, 63, 95); fill-opacity: 1; white-space: pre; opacity: 1;" transform="translate(207.51,0)">1.5</text></g><g class="x3tick"><text text-anchor="middle" x="0" y="1133" style="font-family: 'Open Sans', verdana, arial, sans-serif; font-size: 12px; fill: rgb(42, 63, 95); fill-opacity: 1; white-space: pre; opacity: 1;" transform="translate(305.39,0)">1.6</text></g><g class="x3tick"><text text-anchor="middle" x="0" y="1133" style="font-family: 'Open Sans', verdana, arial, sans-serif; font-size: 12px; fill: rgb(42, 63, 95); fill-opacity: 1; white-space: pre; opacity: 1;" transform="translate(403.27,0)">1.7</text></g></g><g class="yaxislayer-above"><g class="y3tick"><text text-anchor="end" x="79" y="4.199999999999999" transform="translate(0,1071.6100000000001)" style="font-family: 'Open Sans', verdana, arial, sans-serif; font-size: 12px; fill: rgb(42, 63, 95); fill-opacity: 1; white-space: pre; opacity: 1;">−0.5</text></g><g class="y3tick"><text text-anchor="end" x="79" y="4.199999999999999" style="font-family: 'Open Sans', verdana, arial, sans-serif; font-size: 12px; fill: rgb(42, 63, 95); fill-opacity: 1; white-space: pre; opacity: 1;" transform="translate(0,996.7)">0</text></g><g class="y3tick"><text text-anchor="end" x="79" y="4.199999999999999" style="font-family: 'Open Sans', verdana, arial, sans-serif; font-size: 12px; fill: rgb(42, 63, 95); fill-opacity: 1; white-space: pre; opacity: 1;" transform="translate(0,921.7900000000001)">0.5</text></g></g><g class="overaxes-above"/></g></g><g class="polarlayer"/><g class="smithlayer"/><g class="ternarylayer"/><g class="geolayer"/><g class="funnelarealayer"/><g class="pielayer"/><g class="iciclelayer"/><g class="treemaplayer"/><g class="sunburstlayer"/><g class="glimages"/><defs id="topdefs-3b60c9"><g class="clips"/><clipPath id="legend3b60c9"><rect width="188" height="29" x="0" y="0"/></clipPath></defs><g class="layer-above"><g class="imagelayer"/><g class="shapelayer"/></g><g class="infolayer"><g class="legend" pointer-events="all" transform="translate(232,50.59999999999998)"><rect class="bg" shape-rendering="crispEdges" width="188" height="29" x="0" y="0" style="stroke: rgb(68, 68, 68); stroke-opacity: 1; fill: rgb(255, 255, 255); fill-opacity: 1; stroke-width: 0px;"/><g class="scrollbox" transform="" clip-path="url(#legend3b60c9)"><g class="groups"><g class="traces" transform="translate(0,14.5)" style="opacity: 1;"><text class="legendtext" text-anchor="start" x="40" y="4.680000000000001" style="font-family: 'Open Sans', verdana, arial, sans-serif; font-size: 12px; fill: rgb(42, 63, 95); fill-opacity: 1; white-space: pre;">Population Log-likelihood</text><g class="layers" style="opacity: 1;"><g class="legendfill"/><g class="legendlines"><path class="js-line" d="M5,0h30" style="fill: none; stroke: rgb(136, 204, 238); stroke-opacity: 1; stroke-width: 2px;"/></g><g class="legendsymbols"><g class="legendpoints"/></g></g><rect class="legendtoggle" x="0" y="-9.5" width="184.703125" height="19" style="fill: rgb(0, 0, 0); fill-opacity: 0;"/></g></g></g><rect class="scrollbar" rx="20" ry="3" width="0" height="0" x="0" y="0" style="fill: rgb(128, 139, 164); fill-opacity: 1;"/></g><g class="g-gtitle"/><g class="g-xtitle"/><g class="g-x2title"/><g class="g-x3title"/><g class="g-ytitle"/><g class="g-y2title"/><g class="g-y3title"/></g></svg>