<svg class="main-svg" xmlns="http://www.w3.org/2000/svg" xmlns:xlink="http://www.w3.org/1999/xlink" width="500" height="1200" style="" viewBox="0 0 500 1200"><rect x="0" y="0" width="500" height="1200" style="fill: rgb(255, 255, 255); fill-opacity: 1;"/><defs id="defs-3bd6da"><g class="clips"><clipPath id="clip3bd6daxyplot" class="plotclip"><rect width="340" height="272.00000000000006"/></clipPath><clipPath id="clip3bd6dax2y2plot" class="plotclip"><rect width="340" height="272"/></clipPath><clipPath id="clip3bd6dax3y3plot" class="plotclip"><rect width="340" height="272"/></clipPath><clipPath class="axesclip" id="clip3bd6dax"><rect x="80" y="0" width="340" height="1200"/></clipPath><clipPath class="axesclip" id="clip3bd6day"><rect x="0" y="100" width="500" height="272.00000000000006"/></clipPath><clipPath class="axesclip" id="clip3bd6daxy"><rect x="80" y="100" width="340" height="272.00000000000006"/></clipPath><clipPath class="axesclip" id="clip3bd6day2"><rect x="0" y="474.00000000000006" width="500" height="272"/></clipPath><clipPath class="axesclip" id="clip3bd6daxy2"><rect x="80" y="474.00000000000006" width="340" height="272"/></clipPath><clipPath class="axesclip" id="clip3bd6day3"><rect x="0" y="848.0000000000001" width="500" height="272"/></clipPath><clipPath class="axesclip" id="clip3bd6daxy3"><rect x="80" y="848.0000000000001" width="340" height="272"/></clipPath><clipPath class="axesclip" id="clip3bd6dax2"><rect x="80" y="0" width="340" height="1200"/></clipPath><clipPath class="axesclip" id="clip3bd6dax2y"><rect x="80" y="100" width="340" height="272.00000000000006"/></clipPath><clipPath class="axesclip" id="clip3bd6dax2y2"><rect x="80" y="474.00000000000006" width="340" height="272"/></clipPath><clipPath class="axesclip" id="clip3bd6dax2y3"><rect x="80" y="848.0000000000001" width="340" height="272"/></clipPath><clipPath class="axesclip" id="clip3bd6dax3"><rect x="80" y="0" width="340" height="1200"/></clipPath><clipPath class="axesclip" id="clip3bd6dax3y"><rect x="80" y="100" width="340" height="272.00000000000006"/></clipPath><clipPath class="axesclip" id="clip3bd6dax3y2"><rect x="80" y="474.00000000000006" width="340" height="272"/></clipPath><clipPath class="axesclip" id="clip3bd6dax3y3"><rect x="80" y="848.0000000000001" width="340" height="272"/></clipPath></g><g class="gradients"/><g class="patterns"/></defs><g class="bglayer"/><g class="layer-below"><g class="imagelayer"/><g class="shapelayer"/></g><g class="cartesianlayer"><g class="subplot xy"><g class="layer-subplot"><g class="shapelayer"/><g class="imagelayer"/></g><g class="minor-gridlayer"><g class="x"/><g class="y"/></g><g class="gridlayer"><g class="x"><path class="xgrid crisp" transform="translate(108.81,0)" d="M0,100v272.00000000000006" style="stroke: rgb(235, 240, 248); stroke-opacity: 1; stroke-width: 1px;"/><path class="xgrid crisp" transform="translate(211.35,0)" d="M0,100v272.00000000000006" style="stroke: rgb(235, 240, 248); stroke-opacity: 1; stroke-width: 1px;"/><path class="xgrid crisp" transform="translate(313.89,0)" d="M0,100v272.00000000000006" style="stroke: rgb(235, 240, 248); stroke-opacity: 1; stroke-width: 1px;"/><path class="xgrid crisp" transform="translate(416.43,0)" d="M0,100v272.00000000000006" style="stroke: rgb(235, 240, 248); stroke-opacity: 1; stroke-width: 1px;"/></g><g class="y"><path class="ygrid crisp" transform="translate(0,348.12)" d="M80,0h340" style="stroke: rgb(235, 240, 248); stroke-opacity: 1; stroke-width: 1px;"/><path class="ygrid crisp" transform="translate(0,301.22)" d="M80,0h340" style="stroke: rgb(235, 240, 248); stroke-opacity: 1; stroke-width: 1px;"/><path class="ygrid crisp" transform="translate(0,254.31)" d="M80,0h340" style="stroke: rgb(235, 240, 248); stroke-opacity: 1; stroke-width: 1px;"/><path class="ygrid crisp" transform="translate(0,207.41)" d="M80,0h340" style="stroke: rgb(235, 240, 248); stroke-opacity: 1; stroke-width: 1px;"/><path class="ygrid crisp" transform="translate(0,160.5)" d="M80,0h340" style="stroke: rgb(235, 240, 248); stroke-opacity: 1; stroke-width: 1px;"/></g></g><g class="zerolinelayer"><path class="yzl zl crisp" transform="translate(0,113.6)" d="M80,0h340" style="stroke: rgb(235, 240, 248); stroke-opacity: 1; stroke-width: 2px;"/></g><path class="xlines-below"/><path class="ylines-below"/><g class="overlines-below"/><g class="xaxislayer-below"/><g class="yaxislayer-below"/><g class="overaxes-below"/><g class="plot" transform="translate(80,100)" clip-path="url(#clip3bd6daxyplot)"><g class="scatterlayer mlayer"><g class="trace scatter trace110ce1" style="stroke-miterlimit: 2; opacity: 1;"><g class="fills"/><g class="errorbars"/><g class="lines"><path class="js-line" d="M0,258.4L2.78,245.84L5.57,238.99L8.35,231.06L11.13,225.56L16.7,211.23L19.48,204.45L22.26,199.69L25.04,191.6L41.74,155.77L44.52,152.09L50.09,138.92L52.87,132.75L55.65,128.35L58.44,122.07L66.79,108.85L69.57,102.62L80.7,84.61L83.48,81.31L86.26,77.22L89.05,75.94L91.83,69.43L94.61,65.86L97.4,61.38L100.18,59.1L102.96,54.41L105.74,51.73L108.53,48.4L111.31,46.54L114.09,42.48L116.88,39.79L119.66,36.58L122.44,35.01L125.22,31.73L128.01,30.01L130.79,27.83L133.57,27.42L136.35,24.08L139.14,22.44L141.92,20.46L144.7,19.7L147.49,17.83L150.27,17.06L153.05,16.08L155.83,16.39L158.62,14.7L161.4,14.35L164.18,13.72L166.96,14.5L169.75,13.6L172.53,14.41L175.31,14.6L178.1,18.48L180.62,15.29L183.15,15.83L185.68,15.78L188.21,17.25L190.74,17.27L193.27,18.45L195.8,19.43L198.33,21.43L200.86,21.98L203.39,23.46L210.98,28.35L213.51,30.46L223.63,39.23L226.16,41.52L241.34,58.63L243.87,61.88L253.99,75.78L256.52,79.56L276.76,112.69L279.29,117.29L291.93,141.32L294.46,146.33L314.7,189.71L317.23,195.45L329.88,225.13L340,249.93" style="vector-effect: non-scaling-stroke; fill: none; stroke: rgb(51, 34, 136); stroke-opacity: 1; stroke-width: 2px; opacity: 1;"/></g><g class="points"/><g class="text"/></g></g></g><g class="overplot"/><path class="xlines-above crisp" d="M0,0" style="fill: none;"/><path class="ylines-above crisp" d="M0,0" style="fill: none;"/><g class="overlines-above"/><g class="xaxislayer-above"/><g class="yaxislayer-above"><g class="ytick"><text text-anchor="end" x="79" y="4.199999999999999" transform="translate(0,348.12)" style="font-family: 'Open Sans', verdana, arial, sans-serif; font-size: 12px; fill: rgb(42, 63, 95); fill-opacity: 1; white-space: pre; opacity: 1;">−5</text></g><g class="ytick"><text text-anchor="end" x="79" y="4.199999999999999" style="font-family: 'Open Sans', verdana, arial, sans-serif; font-size: 12px; fill: rgb(42, 63, 95); fill-opacity: 1; white-space: pre; opacity: 1;" transform="translate(0,301.22)">−4</text></g><g class="ytick"><text text-anchor="end" x="79" y="4.199999999999999" style="font-family: 'Open Sans', verdana, arial, sans-serif; font-size: 12px; fill: rgb(42, 63, 95); fill-opacity: 1; white-space: pre; opacity: 1;" transform="translate(0,254.31)">−3</text></g><g class="ytick"><text text-anchor="end" x="79" y="4.199999999999999" style="font-family: 'Open Sans', verdana, arial, sans-serif; font-size: 12px; fill: rgb(42, 63, 95); fill-opacity: 1; white-space: pre; opacity: 1;" transform="translate(0,207.41)">−2</text></g><g class="ytick"><text text-anchor="end" x="79" y="4.199999999999999" style="font-family: 'Open Sans', verdana, arial, sans-serif; font-size: 12px; fill: rgb(42, 63, 95); fill-opacity: 1; white-space: pre; opacity: 1;" transform="translate(0,160.5)">−1</text></g><g class="ytick"><text text-anchor="end" x="79" y="4.199999999999999" style="font-family: 'Open Sans', verdana, arial, sans-serif; font-size: 12px; fill: rgb(42, 63, 95); fill-opacity: 1; white-space: pre; opacity: 1;" transform="translate(0,113.6)">0</text></g></g><g class="overaxes-above"/></g><g class="subplot x2y2"><g class="layer-subplot"><g class="shapelayer"/><g class="imagelayer"/></g><g class="minor-gridlayer"><g class="x2"/><g class="y2"/></g><g class="gridlayer"><g class="x2"><path class="x2grid crisp" transform="translate(108.81,0)" d="M0,474.00000000000006v272" style="stroke: rgb(235, 240, 248); stroke-opacity: 1; stroke-width: 1px;"/><path class="x2grid crisp" transform="translate(211.35,0)" d="M0,474.00000000000006v272" style="stroke: rgb(235, 240, 248); stroke-opacity: 1; stroke-width: 1px;"/><path class="x2grid crisp" transform="translate(313.89,0)" d="M0,474.00000000000006v272" style="stroke: rgb(235, 240, 248); stroke-opacity: 1; stroke-width: 1px;"/><path class="x2grid crisp" transform="translate(416.43,0)" d="M0,474.00000000000006v272" style="stroke: rgb(235, 240, 248); stroke-opacity: 1; stroke-width: 1px;"/></g><g class="y2"><path class="y2grid crisp" transform="translate(0,691.2700000000001)" d="M80,0h340" style="stroke: rgb(235, 240, 248); stroke-opacity: 1; stroke-width: 1px;"/><path class="y2grid crisp" transform="translate(0,565.5100000000001)" d="M80,0h340" style="stroke: rgb(235, 240, 248); stroke-opacity: 1; stroke-width: 1px;"/><path class="y2grid crisp" transform="translate(0,502.63000000000005)" d="M80,0h340" style="stroke: rgb(235, 240, 248); stroke-opacity: 1; stroke-width: 1px;"/></g></g><g class="zerolinelayer"><path class="y2zl zl crisp" transform="translate(0,628.3900000000001)" d="M80,0h340" style="stroke: rgb(235, 240, 248); stroke-opacity: 1; stroke-width: 2px;"/></g><path class="xlines-below"/><path class="ylines-below"/><g class="overlines-below"/><g class="xaxislayer-below"/><g class="yaxislayer-below"/><g class="overaxes-below"/><g class="plot" transform="translate(80,474.00000000000006)" clip-path="url(#clip3bd6dax2y2plot)"><g class="scatterlayer mlayer"><g class="trace scatter tracefe6a62" style="stroke-miterlimit: 2; opacity: 1;"><g class="fills"/><g class="errorbars"/><g class="lines"><path class="js-line" d="M2.78,258.4L5.57,134.77L8.35,198.46L11.13,105.08L13.91,192.53L16.7,142.41L19.48,191.18L22.26,93.63L25.04,189.76L27.83,144.37L30.61,186.05L33.39,117.28L36.18,187.91L38.96,141.51L41.74,194.21L44.52,81.76L47.31,193.81L50.09,142.23L52.87,186.69L55.65,120L58.44,183.91L61.22,145.85L64,185.63L66.79,103.06L69.57,186.19L72.35,145.34L75.13,186.74L77.92,115.94L80.7,191.2L83.48,139.91L86.26,205.65L89.05,59.16L91.83,207.8L94.61,138L97.4,194.34L100.18,110.47L102.96,191.07L105.74,142.62L108.53,181.03L111.31,114.44L114.09,179.3L116.88,144.87L119.66,184.29L122.44,123.17L125.22,182.91L128.01,145.84L130.79,186.71L133.57,101.16L136.35,185.19L139.14,148.17L141.92,176.72L144.7,134.04L147.49,174.56L150.27,150.54L153.05,177.69L155.83,118.26L158.62,178.63L161.4,149.35L164.18,179.99L166.96,123.77L169.75,185.63L172.53,142.93L175.31,221.7L178.03,13.6L180.62,236.44L183.15,141.37L185.68,187.74L188.21,122.68L190.74,179.77L193.27,150.11L195.8,176.83L198.33,122.29L200.86,175.04L203.39,151.78L205.92,169.21L208.45,142.3L210.98,168.21L213.51,152.04L216.04,170.86L218.57,129.92L221.1,170.14L223.63,152.8L226.16,164.92L228.69,147.9L231.22,163.02L233.75,154.69L236.28,162.07L238.81,147.51L241.34,161.6L243.87,155.01L246.4,160.82L248.93,151.26L251.46,159.72L253.99,156.85L256.52,161.9L259.05,142.69L261.58,164.78L264.11,152.97L266.64,161.63L269.17,151.24L271.7,158.09L274.23,159.18L276.76,155.27L279.29,153.91L281.82,158.19L284.35,155.61L286.88,156.87L289.4,155.58L291.93,155.32L294.46,158.47L296.99,155.33L302.05,156.26L304.58,154.95L307.11,158.18L309.64,154.87L312.17,156.03L314.7,155.66L317.23,155.36L321.66,156.17L329.88,155.61" style="vector-effect: non-scaling-stroke; fill: none; stroke: rgb(51, 34, 136); stroke-opacity: 1; stroke-width: 2px; opacity: 1;"/></g><g class="points"/><g class="text"/></g></g></g><g class="overplot"/><path class="xlines-above crisp" d="M0,0" style="fill: none;"/><path class="ylines-above crisp" d="M0,0" style="fill: none;"/><g class="overlines-above"/><g class="xaxislayer-above"/><g class="yaxislayer-above"><g class="y2tick"><text text-anchor="end" x="79" y="4.199999999999999" transform="translate(0,691.2700000000001)" style="font-family: 'Open Sans', verdana, arial, sans-serif; font-size: 12px; fill: rgb(42, 63, 95); fill-opacity: 1; white-space: pre; opacity: 1;">−10k</text></g><g class="y2tick"><text text-anchor="end" x="79" y="4.199999999999999" style="font-family: 'Open Sans', verdana, arial, sans-serif; font-size: 12px; fill: rgb(42, 63, 95); fill-opacity: 1; white-space: pre; opacity: 1;" transform="translate(0,628.3900000000001)">0</text></g><g class="y2tick"><text text-anchor="end" x="79" y="4.199999999999999" style="font-family: 'Open Sans', verdana, arial, sans-serif; font-size: 12px; fill: rgb(42, 63, 95); fill-opacity: 1; white-space: pre; opacity: 1;" transform="translate(0,565.5100000000001)">10k</text></g><g class="y2tick"><text text-anchor="end" x="79" y="4.199999999999999" style="font-family: 'Open Sans', verdana, arial, sans-serif; font-size: 12px; fill: rgb(42, 63, 95); fill-opacity: 1; white-space: pre; opacity: 1;" transform="translate(0,502.63000000000005)">20k</text></g></g><g class="overaxes-above"/></g><g class="subplot x3y3"><g class="layer-subplot"><g class="shapelayer"/><g class="imagelayer"/></g><g class="minor-gridlayer"><g class="x3"/><g class="y3"/></g><g class="gridlayer"><g class="x3"><path class="x3grid crisp" transform="translate(108.81,0)" d="M0,848.0000000000001v272" style="stroke: rgb(235, 240, 248); stroke-opacity: 1; stroke-width: 1px;"/><path class="x3grid crisp" transform="translate(211.35,0)" d="M0,848.0000000000001v272" style="stroke: rgb(235, 240, 248); stroke-opacity: 1; stroke-width: 1px;"/><path class="x3grid crisp" transform="translate(313.89,0)" d="M0,848.0000000000001v272" style="stroke: rgb(235, 240, 248); stroke-opacity: 1; stroke-width: 1px;"/><path class="x3grid crisp" transform="translate(416.43,0)" d="M0,848.0000000000001v272" style="stroke: rgb(235, 240, 248); stroke-opacity: 1; stroke-width: 1px;"/></g><g class="y3"><path class="y3grid crisp" transform="translate(0,1067.2600000000002)" d="M80,0h340" style="stroke: rgb(235, 240, 248); stroke-opacity: 1; stroke-width: 1px;"/><path class="y3grid crisp" transform="translate(0,909.3400000000001)" d="M80,0h340" style="stroke: rgb(235, 240, 248); stroke-opacity: 1; stroke-width: 1px;"/></g></g><g class="zerolinelayer"><path class="y3zl zl crisp" transform="translate(0,988.3000000000002)" d="M80,0h340" style="stroke: rgb(235, 240, 248); stroke-opacity: 1; stroke-width: 2px;"/></g><path class="xlines-below"/><path class="ylines-below"/><g class="overlines-below"/><g class="xaxislayer-below"/><g class="yaxislayer-below"/><g class="overaxes-below"/><g class="plot" transform="translate(80,848.0000000000001)" clip-path="url(#clip3bd6dax3y3plot)"><g class="scatterlayer mlayer"><g class="trace scatter tracee67317" style="stroke-miterlimit: 2; opacity: 1;"><g class="fills"/><g class="errorbars"/><g class="lines"><path class="js-line" d="M0,144.77L2.78,146.51L5.57,146.46L8.35,146.97L11.13,146.35L13.91,147.09L16.7,146.79L19.48,146.91L22.26,146.08L25.04,146.88L27.83,146.78L30.61,147.06L33.39,146.39L36.18,146.9L38.96,146.43L41.74,146.41L44.52,145.42L47.31,146.32L50.09,146.26L52.87,146.64L55.65,146.06L58.44,146.63L61.22,146.29L64,146.3L66.79,145.5L69.57,146.16L72.35,145.99L75.13,146.17L77.92,145.43L80.7,145.88L83.48,145.33L86.26,145.25L89.05,144.41L91.83,145.05L94.61,144.92L97.4,145.28L100.18,144.59L102.96,145.19L105.74,144.8L130.79,144.38L133.57,143.75L139.14,144.14L141.92,144.38L144.7,143.85L147.49,144.24L158.62,143.59L161.4,143.36L169.75,143.1L172.53,142.77L175.31,142.67L178.1,140.3L180.62,142.49L183.15,142.4L193.27,142.27L195.8,142.32L200.86,142.18L203.39,142.08L210.98,142L213.51,141.72L340,138.26" style="vector-effect: non-scaling-stroke; fill: none; stroke: rgb(68, 1, 84); stroke-opacity: 1; stroke-width: 1px; opacity: 1;"/></g><g class="points"/><g class="text"/></g><g class="trace scatter trace05f831" style="stroke-miterlimit: 2; opacity: 1;"><g class="fills"/><g class="errorbars"/><g class="lines"><path class="js-line" d="M0,142.39L2.78,144.09L5.57,144.05L8.35,144.54L11.13,143.95L13.91,144.66L16.7,144.39L19.48,144.5L22.26,143.71L25.04,144.49L27.83,144.4L30.61,144.67L33.39,144.04L36.18,144.54L38.96,144.1L41.74,144.09L44.52,143.16L47.31,144.03L50.09,143.98L52.87,144.36L55.65,143.81L58.44,144.37L61.22,144.06L64,144.08L66.79,143.32L69.57,143.97L72.35,143.82L75.13,144.01L77.92,143.32L80.7,143.77L83.48,143.25L86.26,143.19L89.05,142.33L91.83,143.04L94.61,142.92L97.4,143.29L100.18,142.64L102.96,143.24L105.74,142.88L130.79,142.69L133.57,142.05L139.14,142.53L141.92,142.8L144.7,142.31L147.49,142.71L158.62,142.19L161.4,142L169.75,141.83L172.53,141.5L175.31,141.43L178.1,140.3L180.62,141.32L183.15,141.26L190.74,141.5L193.27,141.29L210.98,141.23L213.51,140.99L340,139.11" style="vector-effect: non-scaling-stroke; fill: none; stroke: rgb(69, 7, 90); stroke-opacity: 1; stroke-width: 1px; opacity: 1;"/></g><g class="points"/><g class="text"/></g><g class="trace scatter trace11eebd" style="stroke-miterlimit: 2; opacity: 1;"><g class="fills"/><g class="errorbars"/><g class="lines"><path class="js-line" d="M0,144.56L2.78,146.5L5.57,146.43L8.35,146.97L11.13,146.27L13.91,147.06L16.7,146.72L19.48,146.83L22.26,145.91L25.04,146.76L27.83,146.64L30.61,146.92L33.39,146.18L36.18,146.72L38.96,146.2L41.74,146.17L44.52,145.11L47.31,146.04L50.09,145.96L52.87,146.37L55.65,145.73L58.44,146.33L61.22,145.96L64,145.96L66.79,145.06L69.57,145.79L72.35,145.59L75.13,145.78L77.92,144.97L80.7,145.46L83.48,144.84L86.26,144.76L89.05,143.58L91.83,144.54L94.61,144.39L97.4,144.79L100.18,144.04L102.96,144.69L105.74,144.28L130.79,143.88L133.57,142.98L136.35,143.73L139.14,143.65L141.92,143.94L144.7,143.38L147.49,143.81L150.27,143.46L164.18,143.07L166.96,142.32L169.75,142.73L172.53,142.17L175.31,142.08L178.1,140.3L180.62,141.95L183.15,141.87L185.68,142.26L188.21,141.72L190.74,142.27L193.27,142.04L210.98,141.94L213.51,141.65L256.52,140.78L259.05,140.36L266.64,140.71L269.17,140.51L286.88,140.48L289.4,140.37L319.76,140.01L329.88,139.89L340,139.74" style="vector-effect: non-scaling-stroke; fill: none; stroke: rgb(69, 14, 96); stroke-opacity: 1; stroke-width: 1px; opacity: 1;"/></g><g class="points"/><g class="text"/></g><g class="trace scatter trace3d3536" style="stroke-miterlimit: 2; opacity: 1;"><g class="fills"/><g class="errorbars"/><g class="lines"><path class="js-line" d="M0,150.36L2.78,152.71L5.57,152.64L8.35,153.34L11.13,152.47L13.91,153.49L16.7,153.07L19.48,153.22L22.26,152.05L25.04,153.16L27.83,153.01L30.61,153.38L33.39,152.44L36.18,153.13L38.96,152.47L41.74,152.43L44.52,151.02L47.31,152.27L50.09,152.16L52.87,152.68L55.65,151.85L58.44,152.61L61.22,152.13L64,152.13L66.79,150.99L69.57,151.88L72.35,151.61L75.13,151.84L77.92,150.8L80.7,151.39L83.48,150.6L86.26,150.47L89.05,149.37L91.83,150.14L94.61,149.92L97.4,150.38L100.18,149.44L102.96,150.19L105.74,149.66L119.66,149.58L122.44,148.75L125.22,149.33L128.01,148.78L130.79,148.73L133.57,147.9L139.14,148.26L141.92,148.55L144.7,147.76L147.49,148.26L155.83,146.87L158.62,147.18L172.53,145.87L175.31,145.68L178.1,140.3L180.62,145.33L203.39,144.23L205.92,144.34L208.45,143.69L210.98,143.96L218.57,142.81L221.1,143.03L317.23,137.2L319.76,137.06L340,135.9" style="vector-effect: non-scaling-stroke; fill: none; stroke: rgb(70, 20, 101); stroke-opacity: 1; stroke-width: 1px; opacity: 1;"/></g><g class="points"/><g class="text"/></g><g class="trace scatter trace2c5294" style="stroke-miterlimit: 2; opacity: 1;"><g class="fills"/><g class="errorbars"/><g class="lines"><path class="js-line" d="M0,141.73L2.78,142.88L5.57,142.84L13.91,143.2L16.7,143.01L36.18,143.02L38.96,142.72L50.09,142.59L52.87,142.83L58.44,142.82L61.22,142.57L75.13,142.53L77.92,142.06L83.48,142L86.26,141.96L89.05,141.21L91.83,141.85L116.88,141.66L119.66,141.86L125.22,141.82L128.01,141.59L153.05,141.43L155.83,140.93L161.4,141.21L164.18,141.29L166.96,140.83L169.75,141.13L178.1,140.3L180.62,140.7L243.87,140.68L246.4,140.72L261.58,140.49L264.11,140.48L286.88,140.56L289.4,140.51L340,140.45" style="vector-effect: non-scaling-stroke; fill: none; stroke: rgb(71, 26, 107); stroke-opacity: 1; stroke-width: 1px; opacity: 1;"/></g><g class="points"/><g class="text"/></g><g class="trace scatter tracedd1651" style="stroke-miterlimit: 2; opacity: 1;"><g class="fills"/><g class="errorbars"/><g class="lines"><path class="js-line" d="M0,142.27L2.78,143.91L5.57,143.86L8.35,144.32L11.13,143.75L13.91,144.42L16.7,144.15L19.48,144.25L22.26,143.49L25.04,144.23L27.83,144.13L30.61,144.39L33.39,143.78L36.18,144.25L38.96,143.82L41.74,143.81L44.52,142.93L47.31,143.73L50.09,143.68L52.87,144.03L55.65,143.51L58.44,144.03L61.22,143.73L64,143.75L66.79,143.01L69.57,143.64L72.35,143.49L75.13,143.67L77.92,143L80.7,143.43L83.48,142.92L86.26,142.86L89.05,141.94L91.83,142.71L94.61,142.6L97.4,142.95L100.18,142.33L102.96,142.91L105.74,142.56L130.79,142.38L133.57,141.7L139.14,142.23L141.92,142.49L144.7,142.04L147.49,142.42L158.62,141.94L161.4,141.76L169.75,141.62L172.53,141.23L175.31,141.17L178.1,140.3L180.62,141.09L183.15,141.03L190.74,141.35L193.27,141.16L210.98,141.16L213.51,140.94L340,139.67" style="vector-effect: non-scaling-stroke; fill: none; stroke: rgb(71, 32, 113); stroke-opacity: 1; stroke-width: 1px; opacity: 1;"/></g><g class="points"/><g class="text"/></g><g class="trace scatter trace2ca071" style="stroke-miterlimit: 2; opacity: 1;"><g class="fills"/><g class="errorbars"/><g class="lines"><path class="js-line" d="M0,142.02L2.78,143.3L5.57,143.25L8.35,143.6L11.13,143.15L16.7,143.44L19.48,143.51L22.26,142.91L25.04,143.47L41.74,143.09L44.52,142.42L50.09,142.97L52.87,143.23L55.65,142.82L58.44,143.22L69.57,142.89L72.35,142.76L80.7,142.7L83.48,142.3L86.26,142.25L89.05,141.42L91.83,142.12L94.61,142.03L102.96,142.26L105.74,142L130.79,141.83L133.57,141.22L139.14,141.72L141.92,141.93L147.49,141.87L150.27,141.65L175.31,140.85L178.1,140.3L185.68,141.07L188.21,140.7L193.27,140.98L195.8,141.03L198.33,140.59L200.86,141L243.87,140.74L246.4,140.79L259.05,140.29L261.58,140.52L340,140.45" style="vector-effect: non-scaling-stroke; fill: none; stroke: rgb(72, 39, 119); stroke-opacity: 1; stroke-width: 1px; opacity: 1;"/></g><g class="points"/><g class="text"/></g><g class="trace scatter tracef96ce8" style="stroke-miterlimit: 2; opacity: 1;"><g class="fills"/><g class="errorbars"/><g class="lines"><path class="js-line" d="M0,144.5L2.78,146.36L5.57,146.3L8.35,146.82L11.13,146.16L13.91,146.92L16.7,146.6L19.48,146.71L22.26,145.83L25.04,146.66L27.83,146.54L30.61,146.83L33.39,146.11L36.18,146.64L38.96,146.14L41.74,146.11L44.52,145.09L47.31,146L50.09,145.93L52.87,146.32L55.65,145.71L58.44,146.3L61.22,145.94L64,145.95L66.79,145.08L69.57,145.79L72.35,145.6L75.13,145.79L77.92,145L80.7,145.48L83.48,144.89L86.26,144.81L89.05,143.75L91.83,144.6L94.61,144.45L97.4,144.84L100.18,144.12L102.96,144.75L105.74,144.35L130.79,143.95L133.57,143.16L139.14,143.73L141.92,144L144.7,143.46L147.49,143.87L155.83,142.75L158.62,143.23L175.31,142.22L178.1,140.3L180.62,142.07L183.15,141.99L185.68,142.29L188.21,141.83L193.27,142.06L195.8,142.12L198.33,141.55L200.86,142.01L223.63,141.38L226.16,141.55L233.75,141.31L236.28,141.3L241.34,141.15L243.87,141.05L256.52,140.63L259.05,140.29L269.17,140.32L271.7,140.4L340,139.26" style="vector-effect: non-scaling-stroke; fill: none; stroke: rgb(71, 44, 122); stroke-opacity: 1; stroke-width: 1px; opacity: 1;"/></g><g class="points"/><g class="text"/></g><g class="trace scatter trace12e113" style="stroke-miterlimit: 2; opacity: 1;"><g class="fills"/><g class="errorbars"/><g class="lines"><path class="js-line" d="M0,142.12L2.78,143.43L5.57,143.38L8.35,143.74L11.13,143.28L16.7,143.58L19.48,143.64L22.26,143.03L25.04,143.6L41.74,143.21L44.52,142.52L50.09,143.09L52.87,143.36L55.65,142.93L58.44,143.35L69.57,143L72.35,142.87L80.7,142.81L83.48,142.39L86.26,142.34L89.05,141.49L91.83,142.21L94.61,142.12L97.4,142.4L100.18,141.9L105.74,142.08L108.53,142.11L116.88,141.99L119.66,142.22L122.44,141.79L125.22,142.16L133.57,141.27L136.35,141.84L175.31,140.89L178.1,140.3L183.15,140.8L185.68,141.11L188.21,140.73L190.74,141.15L203.39,140.99L205.92,141.13L213.51,140.88L216.04,140.87L218.57,140.46L221.1,140.82L319.76,140.51L329.88,140.49L340,140.45" style="vector-effect: non-scaling-stroke; fill: none; stroke: rgb(69, 49, 125); stroke-opacity: 1; stroke-width: 1px; opacity: 1;"/></g><g class="points"/><g class="text"/></g><g class="trace scatter trace238c19" style="stroke-miterlimit: 2; opacity: 1;"><g class="fills"/><g class="errorbars"/><g class="lines"><path class="js-line" d="M0,141.91L2.78,143.13L5.57,143.09L8.35,143.42L11.13,142.99L16.7,143.27L19.48,143.33L22.26,142.76L25.04,143.3L41.74,142.94L44.52,142.29L50.09,142.82L52.87,143.08L55.65,142.68L58.44,143.06L69.57,142.74L72.35,142.63L80.7,142.56L83.48,142.18L94.61,141.92L97.4,142.19L100.18,141.72L102.96,142.15L111.31,141.7L114.09,141.87L139.14,141.64L141.92,141.83L150.27,141.57L153.05,141.55L155.83,141.02L158.62,141.43L183.15,140.72L185.68,141.02L190.74,141.05L193.27,140.93L216.04,140.81L218.57,140.42L226.16,140.87L228.69,140.7L236.28,140.81L238.81,140.59L251.46,140.7L253.99,140.58L319.76,140.5L329.88,140.49L340,140.45" style="vector-effect: non-scaling-stroke; fill: none; stroke: rgb(68, 55, 128); stroke-opacity: 1; stroke-width: 1px; opacity: 1;"/></g><g class="points"/><g class="text"/></g><g class="trace scatter trace53bdd3" style="stroke-miterlimit: 2; opacity: 1;"><g class="fills"/><g class="errorbars"/><g class="lines"><path class="js-line" d="M0,141.42L2.78,142.42L5.57,142.39L13.91,142.71L16.7,142.54L41.74,142.28L44.52,141.76L52.87,142.4L55.65,142.08L61.22,142.21L64,142.21L66.79,141.76L69.57,142.14L94.61,141.49L97.4,141.7L102.96,141.67L105.74,141.47L130.79,141.36L133.57,140.88L141.92,141.44L144.7,141.17L153.05,141.22L155.83,140.79L164.18,141.1L166.96,140.71L172.53,140.66L175.31,140.63L180.62,140.6L183.15,140.57L190.74,140.84L193.27,140.74L216.04,140.66L218.57,140.35L226.16,140.72L228.69,140.58L241.34,140.63L243.87,140.6L284.35,140.49L286.88,140.51L329.88,140.45L340,140.43" style="vector-effect: non-scaling-stroke; fill: none; stroke: rgb(66, 60, 130); stroke-opacity: 1; stroke-width: 1px; opacity: 1;"/></g><g class="points"/><g class="text"/></g><g class="trace scatter trace5ea354" style="stroke-miterlimit: 2; opacity: 1;"><g class="fills"/><g class="errorbars"/><g class="lines"><path class="js-line" d="M0,142.03L2.78,143.31L5.57,143.26L8.35,143.61L11.13,143.16L16.7,143.45L19.48,143.52L22.26,142.92L25.04,143.48L41.74,143.1L44.52,142.43L50.09,142.98L52.87,143.24L55.65,142.83L58.44,143.23L69.57,142.89L72.35,142.77L80.7,142.71L83.48,142.31L86.26,142.26L89.05,141.42L91.83,142.13L94.61,142.04L97.4,142.31L100.18,141.82L105.74,142L108.53,142.03L116.88,141.91L119.66,142.14L122.44,141.72L125.22,142.08L133.57,141.22L136.35,141.77L175.31,140.85L178.1,140.3L185.68,141.07L188.21,140.7L193.27,140.98L195.8,141.03L198.33,140.59L200.86,141L243.87,140.75L246.4,140.8L259.05,140.29L261.58,140.53L340,140.45" style="vector-effect: non-scaling-stroke; fill: none; stroke: rgb(64, 65, 133); stroke-opacity: 1; stroke-width: 1px; opacity: 1;"/></g><g class="points"/><g class="text"/></g><g class="trace scatter tracedbe9ef" style="stroke-miterlimit: 2; opacity: 1;"><g class="fills"/><g class="errorbars"/><g class="lines"><path class="js-line" d="M0,143.2L2.78,144.86L5.57,144.8L8.35,145.26L11.13,144.67L13.91,145.34L16.7,145.04L19.48,145.14L22.26,144.36L25.04,145.08L27.83,144.98L30.61,145.22L33.39,144.59L36.18,145.05L38.96,144.61L41.74,144.58L44.52,143.69L47.31,144.48L50.09,144.41L52.87,144.76L55.65,144.22L58.44,144.74L61.22,144.42L64,144.43L66.79,143.66L69.57,144.29L72.35,144.12L75.13,144.29L77.92,143.59L80.7,144.02L83.48,143.5L86.26,143.43L89.05,142.38L91.83,143.25L94.61,143.13L97.4,143.48L100.18,142.84L102.96,143.41L105.74,143.06L130.79,142.79L133.57,142L139.14,142.62L141.92,142.88L144.7,142.41L147.49,142.79L155.83,141.75L158.62,142.28L175.31,141.39L178.1,140.3L180.62,141.3L183.15,141.24L185.68,141.61L188.21,141.14L193.27,141.46L195.8,141.52L198.33,140.96L200.86,141.46L228.69,141L231.22,141.23L259.05,140.32L261.58,140.6L340,140.21" style="vector-effect: non-scaling-stroke; fill: none; stroke: rgb(63, 71, 136); stroke-opacity: 1; stroke-width: 1px; opacity: 1;"/></g><g class="points"/><g class="text"/></g><g class="trace scatter trace5a7c7e" style="stroke-miterlimit: 2; opacity: 1;"><g class="fills"/><g class="errorbars"/><g class="lines"><path class="js-line" d="M0,143.3L2.78,145L5.57,144.93L8.35,145.4L11.13,144.79L13.91,145.47L16.7,145.18L19.48,145.27L22.26,144.47L25.04,145.21L27.83,145.1L30.61,145.35L33.39,144.7L36.18,145.17L38.96,144.72L41.74,144.69L44.52,143.79L47.31,144.58L50.09,144.52L52.87,144.87L55.65,144.32L58.44,144.85L61.22,144.52L64,144.53L66.79,143.74L69.57,144.38L72.35,144.21L75.13,144.37L77.92,143.67L80.7,144.11L83.48,143.58L86.26,143.5L89.05,142.42L91.83,143.32L94.61,143.2L97.4,143.55L100.18,142.9L102.96,143.48L105.74,143.12L130.79,142.84L133.57,142.03L136.35,142.74L139.14,142.67L147.49,142.85L150.27,142.54L172.53,141.47L175.31,141.41L178.1,140.3L180.62,141.32L203.39,141.43L205.92,141.6L213.51,141.25L216.04,141.23L218.57,140.7L221.1,141.15L289.4,140.55L291.93,140.59L340,140.27" style="vector-effect: non-scaling-stroke; fill: none; stroke: rgb(61, 76, 137); stroke-opacity: 1; stroke-width: 1px; opacity: 1;"/></g><g class="points"/><g class="text"/></g><g class="trace scatter tracea1c080" style="stroke-miterlimit: 2; opacity: 1;"><g class="fills"/><g class="errorbars"/><g class="lines"><path class="js-line" d="M0,143.14L2.78,144.79L5.57,144.73L8.35,145.18L11.13,144.6L13.91,145.26L16.7,144.98L19.48,145.06L22.26,144.29L25.04,145.01L27.83,144.91L30.61,145.15L33.39,144.52L36.18,144.98L38.96,144.54L41.74,144.52L44.52,143.64L47.31,144.42L50.09,144.35L52.87,144.7L55.65,144.16L58.44,144.67L61.22,144.36L64,144.37L66.79,143.6L69.57,144.23L72.35,144.07L75.13,144.23L77.92,143.55L80.7,143.97L83.48,143.45L86.26,143.38L89.05,142.35L91.83,143.21L94.61,143.09L97.4,143.43L100.18,142.8L102.96,143.37L105.74,143.02L130.79,142.75L133.57,141.98L139.14,142.59L141.92,142.84L144.7,142.38L147.49,142.76L155.83,141.73L158.62,142.25L175.31,141.37L178.1,140.3L180.62,141.28L183.15,141.23L185.68,141.59L188.21,141.13L193.27,141.44L195.8,141.5L198.33,140.95L200.86,141.44L228.69,140.98L231.22,141.21L259.05,140.31L261.58,140.58L340,140.18" style="vector-effect: non-scaling-stroke; fill: none; stroke: rgb(59, 81, 138); stroke-opacity: 1; stroke-width: 1px; opacity: 1;"/></g><g class="points"/><g class="text"/></g><g class="trace scatter trace3d2c6a" style="stroke-miterlimit: 2; opacity: 1;"><g class="fills"/><g class="errorbars"/><g class="lines"><path class="js-line" d="M0,142.43L2.78,144.12L5.57,144.08L8.35,144.56L11.13,143.98L13.91,144.68L16.7,144.41L19.48,144.52L22.26,143.74L25.04,144.51L27.83,144.42L30.61,144.69L33.39,144.07L36.18,144.56L38.96,144.12L41.74,144.11L44.52,143.19L47.31,144.05L50.09,144L52.87,144.37L55.65,143.83L58.44,144.38L61.22,144.08L64,144.1L66.79,143.34L69.57,143.99L72.35,143.84L75.13,144.02L77.92,143.34L80.7,143.78L83.48,143.27L86.26,143.21L89.05,142.34L91.83,143.06L94.61,142.94L97.4,143.3L100.18,142.66L102.96,143.26L105.74,142.9L130.79,142.7L133.57,142.07L139.14,142.54L141.92,142.8L144.7,142.32L147.49,142.72L158.62,142.2L161.4,142.01L169.75,141.84L172.53,141.51L175.31,141.44L178.1,140.3L180.62,141.33L183.15,141.27L190.74,141.51L193.27,141.3L210.98,141.24L213.51,141L340,139.05" style="vector-effect: non-scaling-stroke; fill: none; stroke: rgb(45, 114, 142); stroke-opacity: 1; stroke-width: 1px; opacity: 1;"/></g><g class="points"/><g class="text"/></g><g class="trace scatter trace788bd9" style="stroke-miterlimit: 2; opacity: 1;"><g class="fills"/><g class="errorbars"/><g class="lines"><path class="js-line" d="M0,144.69L2.78,146.65L5.57,146.58L8.35,147.12L11.13,146.42L13.91,147.22L16.7,146.87L19.48,146.99L22.26,146.05L25.04,146.92L27.83,146.79L30.61,147.08L33.39,146.33L36.18,146.88L38.96,146.35L41.74,146.31L44.52,145.25L47.31,146.19L50.09,146.11L52.87,146.52L55.65,145.87L58.44,146.48L61.22,146.1L64,146.11L66.79,145.19L69.57,145.93L72.35,145.73L75.13,145.93L77.92,145.1L80.7,145.6L83.48,144.98L86.26,144.89L89.05,143.7L91.83,144.67L94.61,144.51L97.4,144.92L100.18,144.16L102.96,144.83L105.74,144.4L119.66,144.53L122.44,143.87L125.22,144.41L128.01,143.99L130.79,143.99L133.57,143.09L136.35,143.84L139.14,143.76L141.92,144.05L144.7,143.48L147.49,143.92L150.27,143.56L164.18,143.16L166.96,142.42L169.75,142.81L172.53,142.26L175.31,142.17L178.1,140.3L180.62,142.03L183.15,141.95L185.68,142.33L188.21,141.8L190.74,142.34L193.27,142.1L205.92,142.15L208.45,141.7L213.51,141.69L216.04,141.65L218.57,141.05L221.1,141.47L256.52,140.78L259.05,140.35L266.64,140.7L269.17,140.5L286.88,140.45L289.4,140.33L319.76,139.95L329.88,139.82L340,139.66" style="vector-effect: non-scaling-stroke; fill: none; stroke: rgb(43, 118, 142); stroke-opacity: 1; stroke-width: 1px; opacity: 1;"/></g><g class="points"/><g class="text"/></g><g class="trace scatter tracef10bb3" style="stroke-miterlimit: 2; opacity: 1;"><g class="fills"/><g class="errorbars"/><g class="lines"><path class="js-line" d="M0,149.71L2.78,152.16L5.57,152.08L8.35,152.79L11.13,151.89L13.91,152.93L16.7,152.49L19.48,152.64L22.26,151.43L25.04,152.56L27.83,152.4L30.61,152.78L33.39,151.8L36.18,152.51L38.96,151.83L41.74,151.78L44.52,150.35L47.31,151.61L50.09,151.5L52.87,152.03L55.65,151.19L58.44,151.96L61.22,151.47L64,151.46L66.79,150.29L69.57,151.21L72.35,150.94L75.13,151.18L77.92,150.1L80.7,150.72L83.48,149.9L86.26,149.76L89.05,148.52L91.83,149.43L94.61,149.21L97.4,149.7L100.18,148.71L102.96,149.51L105.74,148.96L119.66,148.93L122.44,148.08L125.22,148.69L128.01,148.13L130.79,148.08L133.57,147.11L136.35,147.81L139.14,147.65L141.92,147.97L144.7,147.18L147.49,147.7L150.27,147.2L153.05,147.07L155.83,146.18L158.62,146.65L161.4,146.28L164.18,146.41L166.96,145.6L172.53,145.28L175.31,145.1L178.1,140.3L180.62,144.78L203.39,143.94L205.92,144.08L208.45,143.43L210.98,143.74L218.57,142.5L221.1,142.86L302.05,138.64L304.58,138.52L340,136.87" style="vector-effect: non-scaling-stroke; fill: none; stroke: rgb(41, 122, 142); stroke-opacity: 1; stroke-width: 1px; opacity: 1;"/></g><g class="points"/><g class="text"/></g><g class="trace scatter trace8eeb84" style="stroke-miterlimit: 2; opacity: 1;"><g class="fills"/><g class="errorbars"/><g class="lines"><path class="js-line" d="M0,141.79L2.78,142.97L5.57,142.92L13.91,143.3L16.7,143.1L36.18,143.11L38.96,142.8L50.09,142.67L52.87,142.92L58.44,142.9L61.22,142.68L83.48,142.06L86.26,142.02L89.05,141.26L91.83,141.9L116.88,141.72L119.66,141.92L125.22,141.87L128.01,141.64L153.05,141.47L155.83,140.96L161.4,141.25L164.18,141.33L166.96,140.86L169.75,141.16L178.1,140.3L180.62,140.72L243.87,140.69L246.4,140.74L259.05,140.28L261.58,140.49L340,140.45" style="vector-effect: non-scaling-stroke; fill: none; stroke: rgb(40, 126, 142); stroke-opacity: 1; stroke-width: 1px; opacity: 1;"/></g><g class="points"/><g class="text"/></g><g class="trace scatter traced008d9" style="stroke-miterlimit: 2; opacity: 1;"><g class="fills"/><g class="errorbars"/><g class="lines"><path class="js-line" d="M0,142.33L2.78,143.97L5.57,143.93L8.35,144.39L11.13,143.82L13.91,144.49L16.7,144.22L19.48,144.32L22.26,143.56L25.04,144.3L27.83,144.21L30.61,144.46L33.39,143.85L36.18,144.32L38.96,143.89L41.74,143.88L44.52,142.99L47.31,143.8L50.09,143.75L52.87,144.11L55.65,143.58L58.44,144.11L61.22,143.81L64,143.82L66.79,143.08L69.57,143.71L72.35,143.56L75.13,143.74L77.92,143.06L80.7,143.49L83.48,142.99L86.26,142.93L89.05,142.01L91.83,142.78L94.61,142.66L97.4,143.02L100.18,142.39L102.96,142.97L105.74,142.62L130.79,142.43L133.57,141.75L139.14,142.29L141.92,142.55L144.7,142.08L147.49,142.47L158.62,141.98L161.4,141.8L169.75,141.66L172.53,141.27L175.31,141.21L178.1,140.3L180.62,141.12L183.15,141.07L190.74,141.38L193.27,141.19L213.51,140.95L216.04,140.93L218.57,140.5L221.1,140.84L329.88,139.72L340,139.62" style="vector-effect: non-scaling-stroke; fill: none; stroke: rgb(38, 130, 142); stroke-opacity: 1; stroke-width: 1px; opacity: 1;"/></g><g class="points"/><g class="text"/></g><g class="trace scatter trace21dba6" style="stroke-miterlimit: 2; opacity: 1;"><g class="fills"/><g class="errorbars"/><g class="lines"><path class="js-line" d="M0,141.98L2.78,143.23L5.57,143.19L8.35,143.52L11.13,143.08L16.7,143.37L19.48,143.43L22.26,142.85L25.04,143.4L41.74,143.02L44.52,142.37L50.09,142.9L52.87,143.17L55.65,142.76L58.44,143.15L69.57,142.83L72.35,142.71L80.7,142.65L83.48,142.25L86.26,142.2L89.05,141.39L91.83,142.08L94.61,141.99L102.96,142.22L105.74,141.95L130.79,141.8L133.57,141.19L139.14,141.69L141.92,141.89L150.27,141.62L153.05,141.6L155.83,141.05L158.62,141.48L183.15,140.75L185.68,141.05L188.21,140.68L190.74,141.09L203.39,140.94L205.92,141.07L213.51,140.84L216.04,140.83L221.1,140.78L223.63,140.76L236.28,140.83L238.81,140.6L248.93,140.61L251.46,140.71L269.17,140.49L271.7,140.57L340,140.45" style="vector-effect: non-scaling-stroke; fill: none; stroke: rgb(37, 135, 141); stroke-opacity: 1; stroke-width: 1px; opacity: 1;"/></g><g class="points"/><g class="text"/></g><g class="trace scatter trace0872fc" style="stroke-miterlimit: 2; opacity: 1;"><g class="fills"/><g class="errorbars"/><g class="lines"><path class="js-line" d="M0,144.56L2.78,146.39L5.57,146.33L8.35,146.85L11.13,146.2L13.91,146.95L16.7,146.64L19.48,146.75L22.26,145.88L25.04,146.71L27.83,146.59L30.61,146.88L33.39,146.16L36.18,146.7L38.96,146.21L41.74,146.18L44.52,145.17L47.31,146.08L50.09,146.01L52.87,146.4L55.65,145.79L58.44,146.37L61.22,146.02L64,146.03L66.79,145.19L69.57,145.88L72.35,145.69L75.13,145.88L77.92,145.11L80.7,145.58L83.48,145L86.26,144.92L89.05,143.92L91.83,144.71L94.61,144.57L97.4,144.95L100.18,144.24L102.96,144.86L105.74,144.46L130.79,144.06L133.57,143.31L139.14,143.83L141.92,144.1L144.7,143.55L147.49,143.96L155.83,142.88L158.62,143.32L175.31,142.33L178.1,140.3L180.62,142.18L183.15,142.09L190.74,142.35L193.27,142.11L210.98,141.93L213.51,141.65L340,138.99" style="vector-effect: non-scaling-stroke; fill: none; stroke: rgb(36, 140, 140); stroke-opacity: 1; stroke-width: 1px; opacity: 1;"/></g><g class="points"/><g class="text"/></g><g class="trace scatter trace9e2f70" style="stroke-miterlimit: 2; opacity: 1;"><g class="fills"/><g class="errorbars"/><g class="lines"><path class="js-line" d="M0,142.05L2.78,143.34L5.57,143.29L8.35,143.64L11.13,143.19L16.7,143.48L19.48,143.55L22.26,142.95L25.04,143.51L41.74,143.13L44.52,142.45L50.09,143L52.87,143.27L55.65,142.85L58.44,143.26L69.57,142.92L72.35,142.8L80.7,142.73L83.48,142.33L86.26,142.28L89.05,141.44L91.83,142.15L94.61,142.06L97.4,142.33L100.18,141.84L105.74,142.02L108.53,142.05L116.88,141.93L119.66,142.16L122.44,141.74L125.22,142.1L133.57,141.23L136.35,141.79L175.31,140.86L178.1,140.3L185.68,141.08L188.21,140.71L193.27,140.99L195.8,141.04L198.33,140.6L200.86,141.01L243.87,140.75L246.4,140.8L259.05,140.29L261.58,140.53L340,140.45" style="vector-effect: non-scaling-stroke; fill: none; stroke: rgb(34, 144, 140); stroke-opacity: 1; stroke-width: 1px; opacity: 1;"/></g><g class="points"/><g class="text"/></g><g class="trace scatter traceb4352f" style="stroke-miterlimit: 2; opacity: 1;"><g class="fills"/><g class="errorbars"/><g class="lines"><path class="js-line" d="M0,142L2.78,143.26L5.57,143.22L8.35,143.56L11.13,143.12L16.7,143.41L19.48,143.47L22.26,142.88L25.04,143.43L41.74,143.06L44.52,142.4L50.09,142.94L52.87,143.2L55.65,142.79L58.44,143.19L69.57,142.85L72.35,142.74L80.7,142.67L83.48,142.28L86.26,142.23L89.05,141.41L91.83,142.1L94.61,142.01L102.96,142.24L105.74,141.98L130.79,141.81L133.57,141.21L139.14,141.71L141.92,141.91L150.27,141.64L153.05,141.61L155.83,141.06L158.62,141.49L183.15,140.76L185.68,141.06L188.21,140.69L190.74,141.1L203.39,140.95L205.92,141.08L213.51,140.84L216.04,140.84L221.1,140.78L223.63,140.76L236.28,140.83L238.81,140.6L248.93,140.61L251.46,140.71L269.17,140.49L271.7,140.57L340,140.45" style="vector-effect: non-scaling-stroke; fill: none; stroke: rgb(33, 148, 139); stroke-opacity: 1; stroke-width: 1px; opacity: 1;"/></g><g class="points"/><g class="text"/></g><g class="trace scatter traceade047" style="stroke-miterlimit: 2; opacity: 1;"><g class="fills"/><g class="errorbars"/><g class="lines"><path class="js-line" d="M0,141.44L2.78,142.45L5.57,142.42L13.91,142.74L16.7,142.57L41.74,142.3L44.52,141.78L50.09,142.21L52.87,142.42L58.44,142.41L61.22,142.23L86.26,141.67L89.05,141.02L94.61,141.5L97.4,141.72L102.96,141.69L105.74,141.48L130.79,141.37L133.57,140.89L141.92,141.46L144.7,141.19L153.05,141.23L155.83,140.8L164.18,141.11L166.96,140.72L172.53,140.67L175.31,140.64L180.62,140.6L183.15,140.58L190.74,140.85L193.27,140.75L216.04,140.66L218.57,140.35L226.16,140.73L228.69,140.58L241.34,140.64L243.87,140.61L281.82,140.5L284.35,140.49L340,140.43" style="vector-effect: non-scaling-stroke; fill: none; stroke: rgb(32, 153, 138); stroke-opacity: 1; stroke-width: 1px; opacity: 1;"/></g><g class="points"/><g class="text"/></g><g class="trace scatter trace33ec21" style="stroke-miterlimit: 2; opacity: 1;"><g class="fills"/><g class="errorbars"/><g class="lines"><path class="js-line" d="M0,142.1L2.78,143.41L5.57,143.36L8.35,143.72L11.13,143.25L16.7,143.55L19.48,143.62L22.26,143.01L25.04,143.58L41.74,143.19L44.52,142.5L50.09,143.06L52.87,143.34L55.65,142.91L58.44,143.32L69.57,142.98L72.35,142.85L80.7,142.78L83.48,142.37L86.26,142.32L89.05,141.48L91.83,142.2L94.61,142.1L97.4,142.38L100.18,141.88L105.74,142.06L108.53,142.1L116.88,141.97L119.66,142.2L122.44,141.77L125.22,142.14L133.57,141.26L136.35,141.82L175.31,140.88L178.1,140.3L183.15,140.79L185.68,141.11L188.21,140.72L190.74,141.14L203.39,140.99L205.92,141.12L213.51,140.88L216.04,140.87L218.57,140.45L221.1,140.81L319.76,140.51L329.88,140.49L340,140.45" style="vector-effect: non-scaling-stroke; fill: none; stroke: rgb(31, 158, 137); stroke-opacity: 1; stroke-width: 1px; opacity: 1;"/></g><g class="points"/><g class="text"/></g><g class="trace scatter trace8bf04c" style="stroke-miterlimit: 2; opacity: 1;"><g class="fills"/><g class="errorbars"/><g class="lines"><path class="js-line" d="M0,143.06L2.78,144.7L5.57,144.64L8.35,145.09L11.13,144.51L13.91,145.16L16.7,144.88L19.48,144.97L22.26,144.2L25.04,144.92L27.83,144.81L30.61,145.06L33.39,144.43L36.18,144.89L38.96,144.45L41.74,144.43L44.52,143.56L47.31,144.33L50.09,144.26L52.87,144.61L55.65,144.07L58.44,144.58L61.22,144.27L64,144.28L66.79,143.53L69.57,144.14L72.35,143.98L75.13,144.15L77.92,143.47L80.7,143.89L83.48,143.37L86.26,143.31L89.05,142.27L91.83,143.14L94.61,143.01L97.4,143.36L100.18,142.73L102.96,143.29L105.74,142.95L130.79,142.69L133.57,141.92L139.14,142.53L141.92,142.78L144.7,142.33L147.49,142.7L155.83,141.68L158.62,142.2L175.31,141.33L178.1,140.3L180.62,141.25L183.15,141.19L185.68,141.55L188.21,141.09L193.27,141.41L195.8,141.46L198.33,140.92L200.86,141.41L228.69,140.96L231.22,141.19L259.05,140.31L261.58,140.58L340,140.21" style="vector-effect: non-scaling-stroke; fill: none; stroke: rgb(34, 162, 135); stroke-opacity: 1; stroke-width: 1px; opacity: 1;"/></g><g class="points"/><g class="text"/></g><g class="trace scatter traced7c74b" style="stroke-miterlimit: 2; opacity: 1;"><g class="fills"/><g class="errorbars"/><g class="lines"><path class="js-line" d="M0,143.12L2.78,144.77L5.57,144.71L8.35,145.16L11.13,144.58L13.91,145.23L16.7,144.95L19.48,145.04L22.26,144.26L25.04,144.98L27.83,144.88L30.61,145.12L33.39,144.49L36.18,144.95L38.96,144.51L41.74,144.48L44.52,143.6L47.31,144.38L50.09,144.31L52.87,144.66L55.65,144.11L58.44,144.63L61.22,144.31L64,144.32L66.79,143.56L69.57,144.18L72.35,144.02L75.13,144.18L77.92,143.49L80.7,143.92L83.48,143.4L86.26,143.33L89.05,142.27L91.83,143.16L94.61,143.04L97.4,143.38L100.18,142.75L102.96,143.31L105.74,142.97L130.79,142.7L133.57,141.91L139.14,142.54L141.92,142.8L144.7,142.34L147.49,142.71L155.83,141.66L158.62,142.2L175.31,141.32L178.1,140.3L180.62,141.24L183.15,141.18L185.68,141.56L188.21,141.08L193.27,141.42L195.8,141.48L198.33,140.92L200.86,141.42L228.69,140.99L231.22,141.22L259.05,140.33L261.58,140.63L340,140.32" style="vector-effect: non-scaling-stroke; fill: none; stroke: rgb(38, 166, 132); stroke-opacity: 1; stroke-width: 1px; opacity: 1;"/></g><g class="points"/><g class="text"/></g><g class="trace scatter trace06cab8" style="stroke-miterlimit: 2; opacity: 1;"><g class="fills"/><g class="errorbars"/><g class="lines"><path class="js-line" d="M0,143.09L2.78,144.73L5.57,144.67L8.35,145.12L11.13,144.54L13.91,145.2L16.7,144.91L19.48,145L22.26,144.23L25.04,144.95L27.83,144.85L30.61,145.09L33.39,144.46L36.18,144.92L38.96,144.48L41.74,144.46L44.52,143.58L47.31,144.35L50.09,144.29L52.87,144.64L55.65,144.1L58.44,144.61L61.22,144.3L64,144.31L66.79,143.55L69.57,144.17L72.35,144.01L75.13,144.17L77.92,143.49L80.7,143.91L83.48,143.4L86.26,143.33L89.05,142.29L91.83,143.16L94.61,143.04L97.4,143.38L100.18,142.75L102.96,143.31L105.74,142.97L130.79,142.7L133.57,141.93L139.14,142.54L141.92,142.8L144.7,142.34L147.49,142.71L155.83,141.69L158.62,142.21L175.31,141.35L178.1,140.3L180.62,141.25L183.15,141.2L185.68,141.56L188.21,141.1L193.27,141.42L195.8,141.47L198.33,140.93L200.86,141.42L228.69,140.97L231.22,141.2L259.05,140.31L261.58,140.59L340,140.22" style="vector-effect: non-scaling-stroke; fill: none; stroke: rgb(41, 170, 130); stroke-opacity: 1; stroke-width: 1px; opacity: 1;"/></g><g class="points"/><g class="text"/></g><g class="trace scatter trace3bd968" style="stroke-miterlimit: 2; opacity: 1;"><g class="fills"/><g class="errorbars"/><g class="lines"><path class="js-line" d="M0,140.91L2.78,139.9L5.57,140.12L19.48,140.91L22.26,141.37L30.61,141.55L33.39,141.97L41.74,142.42L44.52,142.57L86.26,144.62L89.05,147.18L91.83,144.78L94.61,144.88L102.96,144.77L105.74,144.92L130.79,144.89L133.57,146.8L136.35,144.8L139.14,144.73L147.49,144.32L150.27,144.45L153.05,144.33L155.83,146.12L158.62,144.15L161.4,143.91L164.18,143.94L166.96,145.63L169.75,143.53L172.53,145.35L175.31,145.21L178.1,140.3L180.62,144.81L183.15,144.66L185.68,142.68L188.21,144.34L190.74,142.5L193.27,142.19L195.8,142.13L198.33,143.62L200.86,141.76L203.39,141.6L213.51,140.75L216.04,140.53L218.57,141.89L221.1,140.08L256.52,136.47L259.05,138.08L261.58,135.93L264.11,135.64L284.35,133.15L286.88,132.81L340,126.61" style="vector-effect: non-scaling-stroke; fill: none; stroke: rgb(45, 174, 127); stroke-opacity: 1; stroke-width: 1px; opacity: 1;"/></g><g class="points"/><g class="text"/></g><g class="trace scatter trace6ec963" style="stroke-miterlimit: 2; opacity: 1;"><g class="fills"/><g class="errorbars"/><g class="lines"><path class="js-line" d="M0,144.67L2.78,146.61L5.57,146.54L8.35,147.08L11.13,146.39L13.91,147.18L16.7,146.84L19.48,146.95L22.26,146.02L25.04,146.88L27.83,146.76L30.61,147.05L33.39,146.3L36.18,146.85L38.96,146.32L41.74,146.29L44.52,145.23L47.31,146.16L50.09,146.09L52.87,146.49L55.65,145.85L58.44,146.46L61.22,146.08L64,146.09L66.79,145.18L69.57,145.92L72.35,145.72L75.13,145.91L77.92,145.09L80.7,145.59L83.48,144.97L86.26,144.89L89.05,143.71L91.83,144.67L94.61,144.52L97.4,144.92L100.18,144.16L102.96,144.82L105.74,144.36L119.66,144.52L122.44,143.87L125.22,144.4L128.01,143.99L130.79,143.99L133.57,143.11L136.35,143.85L139.14,143.76L141.92,144.05L144.7,143.49L147.49,143.92L150.27,143.56L172.53,142.26L175.31,142.17L178.1,140.3L180.62,142.03L203.39,141.96L205.92,142.13L210.98,141.98L213.51,141.69L228.69,141.32L231.22,141.57L248.93,140.91L251.46,141.04L264.11,140.56L266.64,140.67L279.29,140.32L281.82,140.45L340,139.6" style="vector-effect: non-scaling-stroke; fill: none; stroke: rgb(96, 200, 96); stroke-opacity: 1; stroke-width: 1px; opacity: 1;"/></g><g class="points"/><g class="text"/></g><g class="trace scatter trace20e420" style="stroke-miterlimit: 2; opacity: 1;"><g class="fills"/><g class="errorbars"/><g class="lines"><path class="js-line" d="M0,151.17L2.78,153.69L5.57,153.61L8.35,154.35L11.13,153.42L13.91,154.5L16.7,154.06L19.48,154.21L22.26,152.97L25.04,154.14L27.83,153.97L30.61,154.37L33.39,153.36L36.18,154.09L38.96,153.39L41.74,153.34L44.52,151.84L47.31,153.17L50.09,153.05L52.87,153.59L55.65,152.71L58.44,153.53L61.22,152.34L64,153L66.79,151.78L69.57,152.74L72.35,152.45L75.13,152.69L77.92,151.58L83.48,153.35L86.26,151.22L89.05,150.06L91.83,150.87L97.4,151.12L100.18,150.1L102.96,150.91L105.74,150.33L119.66,150.25L122.44,149.37L125.22,149.98L128.01,149.39L130.79,149.33L133.57,148.42L136.35,149.03L139.14,148.85L141.92,149.15L144.7,148.31L147.49,148.85L150.27,148.32L169.75,146.76L172.53,146.26L175.31,146.06L178.1,140.3L180.62,145.69L183.15,145.5L190.74,145.5L193.27,145.07L205.92,144.69L208.45,144L213.51,143.83L216.04,143.67L218.57,143.02L221.1,143.3L309.64,137.57L312.17,137.44L340,135.77" style="vector-effect: non-scaling-stroke; fill: none; stroke: rgb(105, 204, 91); stroke-opacity: 1; stroke-width: 1px; opacity: 1;"/></g><g class="points"/><g class="text"/></g><g class="trace scatter traceb06c7c" style="stroke-miterlimit: 2; opacity: 1;"><g class="fills"/><g class="errorbars"/><g class="lines"><path class="js-line" d="M0,141.7L2.78,142.83L5.57,142.79L13.91,143.15L16.7,142.96L36.18,142.97L38.96,142.67L50.09,142.55L52.87,142.79L58.44,142.78L61.22,142.57L86.26,141.93L89.05,141.19L94.61,141.74L97.4,141.98L100.18,141.55L102.96,141.94L114.09,141.69L116.88,141.64L125.22,141.79L128.01,141.56L153.05,141.41L155.83,140.92L161.4,141.19L164.18,141.27L169.75,141.11L172.53,140.76L188.21,140.6L190.74,140.96L203.39,140.84L205.92,140.96L218.57,140.39L221.1,140.7L319.76,140.48L329.88,140.48L340,140.3" style="vector-effect: non-scaling-stroke; fill: none; stroke: rgb(115, 207, 85); stroke-opacity: 1; stroke-width: 1px; opacity: 1;"/></g><g class="points"/><g class="text"/></g><g class="trace scatter trace149ff5" style="stroke-miterlimit: 2; opacity: 1;"><g class="fills"/><g class="errorbars"/><g class="lines"><path class="js-line" d="M0,142.38L2.78,144.01L5.57,143.97L8.35,144.43L11.13,143.86L13.91,144.53L16.7,144.26L19.48,144.36L22.26,143.6L25.04,144.33L27.83,144.24L30.61,144.5L33.39,143.88L36.18,144.35L38.96,143.93L41.74,143.91L44.52,143.03L47.31,143.84L50.09,143.78L52.87,144.14L55.65,143.61L58.44,144.14L61.22,143.84L64,143.86L66.79,143.11L69.57,143.74L72.35,143.59L75.13,143.77L77.92,143.1L80.7,143.53L83.48,143.02L86.26,142.96L89.05,142.04L91.83,142.81L94.61,142.7L97.4,143.05L100.18,142.43L102.96,143L105.74,142.66L130.79,142.46L133.57,141.79L139.14,142.32L141.92,142.57L144.7,142.11L147.49,142.5L158.62,142L161.4,141.82L169.75,141.68L172.53,141.29L175.31,141.23L178.1,140.3L180.62,141.14L183.15,141.08L190.74,141.4L193.27,141.2L210.98,141.2L213.51,140.97L340,139.62" style="vector-effect: non-scaling-stroke; fill: none; stroke: rgb(126, 210, 78); stroke-opacity: 1; stroke-width: 1px; opacity: 1;"/></g><g class="points"/><g class="text"/></g><g class="trace scatter traceecc8e2" style="stroke-miterlimit: 2; opacity: 1;"><g class="fills"/><g class="errorbars"/><g class="lines"><path class="js-line" d="M0,141.96L2.78,143.21L5.57,143.17L8.35,143.5L11.13,143.06L16.7,143.35L19.48,143.42L22.26,142.83L25.04,143.38L41.74,143.01L44.52,142.35L50.09,142.89L52.87,143.15L55.65,142.75L58.44,143.14L69.57,142.81L72.35,142.69L80.7,142.63L83.48,142.24L86.26,142.19L89.05,141.37L94.61,141.98L97.4,142.24L100.18,141.77L102.96,142.2L114.09,141.91L116.88,141.86L125.22,142.02L128.01,141.77L153.05,141.58L155.83,141.04L161.4,141.35L164.18,141.43L166.96,140.93L169.75,141.25L178.1,140.3L180.62,140.78L223.63,140.75L226.16,140.89L238.81,140.6L241.34,140.77L289.4,140.53L291.93,140.57L340,140.45" style="vector-effect: non-scaling-stroke; fill: none; stroke: rgb(138, 212, 70); stroke-opacity: 1; stroke-width: 1px; opacity: 1;"/></g><g class="points"/><g class="text"/></g><g class="trace scatter trace82944f" style="stroke-miterlimit: 2; opacity: 1;"><g class="fills"/><g class="errorbars"/><g class="lines"><path class="js-line" d="M0,144.11L2.78,145.93L5.57,145.87L8.35,146.37L11.13,145.73L13.91,146.47L16.7,146.16L19.48,146.26L22.26,145.4L25.04,146.21L27.83,146.1L30.61,146.37L33.39,145.68L36.18,146.19L38.96,145.7L41.74,145.67L44.52,144.68L47.31,145.57L50.09,145.5L52.87,145.88L55.65,145.28L58.44,145.86L61.22,145.51L64,145.52L66.79,144.67L69.57,145.36L72.35,145.18L75.13,145.36L77.92,144.6L80.7,145.07L83.48,144.49L86.26,144.41L89.05,143.36L91.83,144.22L94.61,144.08L97.4,144.45L100.18,143.75L102.96,144.37L105.74,143.98L130.79,143.62L133.57,142.83L139.14,143.41L141.92,143.68L144.7,143.16L147.49,143.57L155.83,142.46L158.62,142.96L175.31,141.99L178.1,140.3L180.62,141.85L183.15,141.78L185.68,142.09L188.21,141.64L193.27,141.89L195.8,141.94L198.33,141.39L200.86,141.85L228.69,141.17L231.22,141.4L248.93,140.77L251.46,140.89L264.11,140.45L266.64,140.55L279.29,140.22L281.82,140.33L340,139.5" style="vector-effect: non-scaling-stroke; fill: none; stroke: rgb(149, 215, 63); stroke-opacity: 1; stroke-width: 1px; opacity: 1;"/></g><g class="points"/><g class="text"/></g><g class="trace scatter trace969894" style="stroke-miterlimit: 2; opacity: 1;"><g class="fills"/><g class="errorbars"/><g class="lines"><path class="js-line" d="M0,142.06L2.78,143.34L5.57,143.3L8.35,143.65L11.13,143.19L16.7,143.49L19.48,143.55L22.26,142.95L25.04,143.51L41.74,143.13L44.52,142.46L50.09,143.01L52.87,143.28L55.65,142.86L58.44,143.26L69.57,142.93L72.35,142.8L80.7,142.74L83.48,142.33L86.26,142.28L89.05,141.45L91.83,142.15L94.61,142.06L97.4,142.34L100.18,141.85L105.74,142.02L108.53,142.06L116.88,141.94L119.66,142.16L122.44,141.74L125.22,142.1L133.57,141.24L136.35,141.79L175.31,140.87L178.1,140.3L185.68,141.09L188.21,140.71L193.27,140.99L195.8,141.04L198.33,140.6L200.86,141.01L243.87,140.75L246.4,140.8L259.05,140.29L261.58,140.53L340,140.3" style="vector-effect: non-scaling-stroke; fill: none; stroke: rgb(161, 217, 56); stroke-opacity: 1; stroke-width: 1px; opacity: 1;"/></g><g class="points"/><g class="text"/></g><g class="trace scatter traceb2b076" style="stroke-miterlimit: 2; opacity: 1;"><g class="fills"/><g class="errorbars"/><g class="lines"><path class="js-line" d="M0,141.97L2.78,143.22L5.57,143.17L8.35,143.51L11.13,143.07L16.7,143.36L19.48,143.42L22.26,142.84L25.04,143.39L41.74,143.02L44.52,142.36L50.09,142.9L52.87,143.16L55.65,142.75L58.44,143.14L69.57,142.82L72.35,142.7L80.7,142.63L83.48,142.24L86.26,142.19L89.05,141.38L91.83,142.07L94.61,141.98L102.96,142.2L105.74,141.95L108.53,141.98L111.31,141.13L114.09,141.92L116.88,141.86L125.22,142.03L128.01,141.77L153.05,141.59L155.83,141.05L161.4,141.35L164.18,141.44L166.96,140.93L169.75,141.26L178.1,140.3L180.62,140.78L223.63,140.76L226.16,140.89L238.81,140.6L241.34,140.78L281.82,140.57L284.35,140.56L329.88,140.49L340,140.46" style="vector-effect: non-scaling-stroke; fill: none; stroke: rgb(172, 220, 49); stroke-opacity: 1; stroke-width: 1px; opacity: 1;"/></g><g class="points"/><g class="text"/></g><g class="trace scatter trace7faed5" style="stroke-miterlimit: 2; opacity: 1;"><g class="fills"/><g class="errorbars"/><g class="lines"><path class="js-line" d="M0,141.44L2.78,142.44L5.57,142.4L13.91,142.72L16.7,142.56L41.74,142.29L44.52,141.77L50.09,142.2L52.87,142.41L58.44,142.4L61.22,142.22L86.26,141.66L89.05,141.01L94.61,141.5L97.4,141.71L102.96,141.68L105.74,141.47L130.79,141.37L133.57,140.89L141.92,141.45L144.7,141.18L153.05,141.22L155.83,140.79L164.18,141.11L166.96,140.71L172.53,140.67L175.31,140.64L180.62,140.6L183.15,140.57L190.74,140.85L193.27,140.75L216.04,140.66L218.57,140.35L226.16,140.72L228.69,140.58L241.34,140.64L243.87,140.61L281.82,140.5L284.35,140.49L340,140.43" style="vector-effect: non-scaling-stroke; fill: none; stroke: rgb(184, 222, 43); stroke-opacity: 1; stroke-width: 1px; opacity: 1;"/></g><g class="points"/><g class="text"/></g><g class="trace scatter trace234422" style="stroke-miterlimit: 2; opacity: 1;"><g class="fills"/><g class="errorbars"/><g class="lines"><path class="js-line" d="M0,142.08L2.78,143.38L5.57,143.33L8.35,143.68L11.13,143.23L16.7,143.52L19.48,143.59L22.26,142.99L25.04,143.55L41.74,143.16L44.52,142.48L50.09,143.04L52.87,143.31L55.65,142.89L58.44,143.3L69.57,142.96L72.35,142.83L80.7,142.76L83.48,142.36L86.26,142.3L89.05,141.46L91.83,142.18L94.61,142.08L97.4,142.36L100.18,141.87L105.74,142.05L108.53,142.08L116.88,141.96L119.66,142.18L122.44,141.76L125.22,142.13L133.57,141.25L136.35,141.81L175.31,140.87L178.1,140.3L185.68,141.1L188.21,140.72L193.27,141L195.8,141.05L198.33,140.61L200.86,141.02L243.87,140.76L246.4,140.81L259.05,140.29L261.58,140.53L340,140.45" style="vector-effect: non-scaling-stroke; fill: none; stroke: rgb(195, 224, 42); stroke-opacity: 1; stroke-width: 1px; opacity: 1;"/></g><g class="points"/><g class="text"/></g><g class="trace scatter trace4a5897" style="stroke-miterlimit: 2; opacity: 1;"><g class="fills"/><g class="errorbars"/><g class="lines"><path class="js-line" d="M0,143.17L2.78,144.82L5.57,144.76L8.35,145.22L11.13,144.63L13.91,145.29L16.7,145.01L19.48,145.09L22.26,144.32L25.04,145.04L27.83,144.94L30.61,145.18L33.39,144.55L36.18,145.01L38.96,144.57L41.74,144.54L44.52,143.66L47.31,144.44L50.09,144.38L52.87,144.72L55.65,144.18L58.44,144.7L61.22,144.38L64,144.39L66.79,143.62L69.57,144.25L72.35,144.09L75.13,144.26L77.92,143.56L80.7,143.99L83.48,143.47L86.26,143.4L89.05,142.36L91.83,143.23L94.61,143.1L97.4,143.45L100.18,142.82L102.96,143.38L105.74,143.03L130.79,142.76L133.57,141.98L139.14,142.6L141.92,142.86L144.7,142.4L147.49,142.77L155.83,141.73L158.62,142.26L175.31,141.38L178.1,140.3L180.62,141.29L183.15,141.23L185.68,141.6L188.21,141.13L193.27,141.45L195.8,141.51L198.33,140.95L200.86,141.45L228.69,140.99L231.22,141.22L259.05,140.32L261.58,140.59L340,140.2" style="vector-effect: non-scaling-stroke; fill: none; stroke: rgb(207, 225, 41); stroke-opacity: 1; stroke-width: 1px; opacity: 1;"/></g><g class="points"/><g class="text"/></g><g class="trace scatter trace67f36f" style="stroke-miterlimit: 2; opacity: 1;"><g class="fills"/><g class="errorbars"/><g class="lines"><path class="js-line" d="M0,143.32L2.78,145.02L5.57,144.96L8.35,145.43L11.13,144.82L13.91,145.5L16.7,145.21L19.48,145.3L22.26,144.49L25.04,145.24L27.83,145.13L30.61,145.38L33.39,144.73L36.18,145.2L38.96,144.74L41.74,144.72L44.52,143.81L47.31,144.61L50.09,144.54L52.87,144.9L55.65,144.34L58.44,144.87L61.22,144.54L64,144.55L66.79,143.76L69.57,144.41L72.35,144.24L75.13,144.41L77.92,143.69L80.7,144.13L83.48,143.59L86.26,143.52L89.05,142.43L91.83,143.34L94.61,143.21L97.4,143.57L100.18,142.92L102.96,143.5L105.74,143.14L130.79,142.86L133.57,142.04L139.14,142.69L141.92,142.95L144.7,142.48L147.49,142.86L155.83,141.78L158.62,142.33L175.31,141.41L178.1,140.3L180.62,141.32L183.15,141.27L185.68,141.66L188.21,141.16L193.27,141.5L195.8,141.56L198.33,140.98L200.86,141.5L223.63,141.11L226.16,141.29L233.75,141.15L236.28,141.16L241.34,141.07L243.87,141L256.52,140.73L259.05,140.34L266.64,140.73L269.17,140.57L286.88,140.64L289.4,140.55L319.76,140.41L329.88,140.36L340,140.27" style="vector-effect: non-scaling-stroke; fill: none; stroke: rgb(218, 227, 40); stroke-opacity: 1; stroke-width: 1px; opacity: 1;"/></g><g class="points"/><g class="text"/></g><g class="trace scatter trace90490f" style="stroke-miterlimit: 2; opacity: 1;"><g class="fills"/><g class="errorbars"/><g class="lines"><path class="js-line" d="M0,143.22L2.78,144.89L5.57,144.83L8.35,145.29L11.13,144.69L13.91,145.37L16.7,145.08L19.48,145.17L22.26,144.38L25.04,145.11L27.83,145.01L30.61,145.26L33.39,144.62L36.18,145.08L38.96,144.64L41.74,144.61L44.52,143.72L47.31,144.51L50.09,144.44L52.87,144.79L55.65,144.24L58.44,144.77L61.22,144.45L64,144.46L66.79,143.68L69.57,144.32L72.35,144.15L75.13,144.32L77.92,143.62L80.7,144.05L83.48,143.53L86.26,143.45L89.05,142.4L91.83,143.28L94.61,143.16L97.4,143.51L100.18,142.87L102.96,143.44L105.74,143.08L130.79,142.81L133.57,142.03L139.14,142.64L141.92,142.9L144.7,142.44L147.49,142.81L155.83,141.77L158.62,142.3L175.31,141.41L178.1,140.3L180.62,141.32L183.15,141.26L185.68,141.63L188.21,141.15L193.27,141.47L195.8,141.53L198.33,140.97L200.86,141.47L228.69,141L231.22,141.23L259.05,140.32L261.58,140.59L340,140.18" style="vector-effect: non-scaling-stroke; fill: none; stroke: rgb(230, 228, 39); stroke-opacity: 1; stroke-width: 1px; opacity: 1;"/></g><g class="points"/><g class="text"/></g><g class="trace scatter trace720dc3" style="stroke-miterlimit: 2; opacity: 1;"><g class="fills"/><g class="errorbars"/><g class="lines"><path class="js-line" d="M0,140.85L2.78,139.69L5.57,139.92L16.7,140.57L19.48,140.72L25.04,141.09L27.83,141.31L41.74,142.29L44.52,142.5L86.26,144.61L89.05,147.3L91.83,144.79L94.61,144.89L102.96,144.77L105.74,144.94L130.79,144.91L133.57,146.91L136.35,144.83L139.14,144.76L147.49,144.33L150.27,144.48L153.05,144.36L155.83,146.22L158.62,144.18L161.4,143.94L164.18,143.97L166.96,145.73L169.75,143.56L172.53,145.45L175.31,145.3L178.1,140.3L180.62,144.9L183.15,144.75L185.68,142.7L188.21,144.42L190.74,142.51L193.27,142.2L195.8,142.14L198.33,143.68L200.86,141.76L203.39,141.59L213.51,140.73L216.04,140.49L218.57,141.92L221.1,140.03L256.52,136.34L259.05,138.01L261.58,135.79L264.11,135.5L281.82,133.24L284.35,132.93L329.88,127.29L340,126.18" style="vector-effect: non-scaling-stroke; fill: none; stroke: rgb(241, 230, 38); stroke-opacity: 1; stroke-width: 1px; opacity: 1;"/></g><g class="points"/><g class="text"/></g><g class="trace scatter traceb59f83" style="stroke-miterlimit: 2; opacity: 1;"><g class="fills"/><g class="errorbars"/><g class="lines"><path class="js-line" d="M0,142.07L2.78,143.36L5.57,143.32L8.35,143.67L11.13,143.21L16.7,143.51L19.48,143.58L22.26,142.97L25.04,143.54L41.74,143.15L44.52,142.47L50.09,143.03L52.87,143.3L55.65,142.88L58.44,143.28L69.57,142.94L72.35,142.82L80.7,142.75L83.48,142.35L86.26,142.29L89.05,141.45L91.83,142.17L94.61,142.07L97.4,142.35L100.18,141.86L105.74,142.04L108.53,142.07L116.88,141.95L119.66,142.17L122.44,141.75L125.22,142.12L133.57,141.24L136.35,141.8L175.31,140.87L178.1,140.3L183.15,140.78L185.68,141.09L188.21,140.71L190.74,141.13L203.39,140.97L205.92,141.11L213.51,140.87L216.04,140.86L218.57,140.45L221.1,140.8L319.76,140.5L329.88,140.49L340,140.31" style="vector-effect: non-scaling-stroke; fill: none; stroke: rgb(253, 231, 37); stroke-opacity: 1; stroke-width: 1px; opacity: 1;"/></g><g class="points"/><g class="text"/></g><g class="trace scatter tracef6c290" style="stroke-miterlimit: 2; opacity: 1;"><g class="fills"/><g class="errorbars"/><g class="lines"><path class="js-line" d="M0,258.4L52.87,225.45L55.65,223.67L102.96,192.63L105.74,190.76L153.05,158.17L155.83,156.21L203.39,121.8L205.92,119.92L256.52,81.42L259.05,79.45L307.11,40.98L309.64,38.9L340,13.6" style="vector-effect: non-scaling-stroke; fill: none; stroke: rgb(169, 169, 169); stroke-opacity: 1; stroke-width: 2px; opacity: 1;"/></g><g class="points"/><g class="text"/></g></g></g><g class="overplot"/><path class="xlines-above crisp" d="M0,0" style="fill: none;"/><path class="ylines-above crisp" d="M0,0" style="fill: none;"/><g class="overlines-above"/><g class="xaxislayer-above"><g class="x3tick"><text text-anchor="middle" x="0" y="1133" transform="translate(108.81,0)" style="font-family: 'Open Sans', verdana, arial, sans-serif; font-size: 12px; fill: rgb(42, 63, 95); fill-opacity: 1; white-space: pre; opacity: 1;">1.4</text></g><g class="x3tick"><text text-anchor="middle" x="0" y="1133" style="font-family: 'Open Sans', verdana, arial, sans-serif; font-size: 12px; fill: rgb(42, 63, 95); fill-opacity: 1; white-space: pre; opacity: 1;" transform="translate(211.35,0)">1.5</text></g><g class="x3tick"><text text-anchor="middle" x="0" y="1133" style="font-family: 'Open Sans', verdana, arial, sans-serif; font-size: 12px; fill: rgb(42, 63, 95); fill-opacity: 1; white-space: pre; opacity: 1;" transform="translate(313.89,0)">1.6</text></g><g class="x3tick"><text text-anchor="middle" x="0" y="1133" style="font-family: 'Open Sans', verdana, arial, sans-serif; font-size: 12px; fill: rgb(42, 63, 95); fill-opacity: 1; white-space: pre; opacity: 1;" transform="translate(416.43,0)">1.7</text></g></g><g class="yaxislayer-above"><g class="y3tick"><text text-anchor="end" x="79" y="4.199999999999999" transform="translate(0,1067.2600000000002)" style="font-family: 'Open Sans', verdana, arial, sans-serif; font-size: 12px; fill: rgb(42, 63, 95); fill-opacity: 1; white-space: pre; opacity: 1;">−0.5</text></g><g class="y3tick"><text text-anchor="end" x="79" y="4.199999999999999" style="font-family: 'Open Sans', verdana, arial, sans-serif; font-size: 12px; fill: rgb(42, 63, 95); fill-opacity: 1; white-space: pre; opacity: 1;" transform="translate(0,988.3000000000002)">0</text></g><g class="y3tick"><text text-anchor="end" x="79" y="4.199999999999999" style="font-family: 'Open Sans', verdana, arial, sans-serif; font-size: 12px; fill: rgb(42, 63, 95); fill-opacity: 1; white-space: pre; opacity: 1;" transform="translate(0,909.3400000000001)">0.5</text></g></g><g class="overaxes-above"/></g></g><g class="polarlayer"/><g class="smithlayer"/><g class="ternarylayer"/><g class="geolayer"/><g class="funnelarealayer"/><g class="pielayer"/><g class="iciclelayer"/><g class="treemaplayer"/><g class="sunburstlayer"/><g class="glimages"/><defs id="topdefs-3bd6da"><g class="clips"/><clipPath id="legend3bd6da"><rect width="188" height="29" x="0" y="0"/></clipPath></defs><g class="layer-above"><g class="imagelayer"/><g class="shapelayer"/></g><g class="infolayer"><g class="legend" pointer-events="all" transform="translate(232,50.59999999999998)"><rect class="bg" shape-rendering="crispEdges" width="188" height="29" x="0" y="0" style="stroke: rgb(68, 68, 68); stroke-opacity: 1; fill: rgb(255, 255, 255); fill-opacity: 1; stroke-width: 0px;"/><g class="scrollbox" transform="" clip-path="url(#legend3bd6da)"><g class="groups"><g class="traces" transform="translate(0,14.5)" style="opacity: 1;"><text class="legendtext" text-anchor="start" x="40" y="4.680000000000001" style="font-family: 'Open Sans', verdana, arial, sans-serif; font-size: 12px; fill: rgb(42, 63, 95); fill-opacity: 1; white-space: pre;">Population Log-likelihood</text><g class="layers" style="opacity: 1;"><g class="legendfill"/><g class="legendlines"><path class="js-line" d="M5,0h30" style="fill: none; stroke: rgb(51, 34, 136); stroke-opacity: 1; stroke-width: 2px;"/></g><g class="legendsymbols"><g class="legendpoints"/></g></g><rect class="legendtoggle" x="0" y="-9.5" width="184.703125" height="19" style="fill: rgb(0, 0, 0); fill-opacity: 0;"/></g></g></g><rect class="scrollbar" rx="20" ry="3" width="0" height="0" x="0" y="0" style="fill: rgb(128, 139, 164); fill-opacity: 1;"/></g><g class="g-gtitle"/><g class="g-xtitle"/><g class="g-x2title"/><g class="g-x3title"/><g class="g-ytitle"/><g class="g-y2title"/><g class="g-y3title"/></g></svg>