<svg class="main-svg" xmlns="http://www.w3.org/2000/svg" xmlns:xlink="http://www.w3.org/1999/xlink" width="500" height="1200" style="" viewBox="0 0 500 1200"><rect x="0" y="0" width="500" height="1200" style="fill: rgb(255, 255, 255); fill-opacity: 1;"/><defs id="defs-857a08"><g class="clips"><clipPath id="clip857a08xyplot" class="plotclip"><rect width="340" height="272.00000000000006"/></clipPath><clipPath id="clip857a08x2y2plot" class="plotclip"><rect width="340" height="272"/></clipPath><clipPath id="clip857a08x3y3plot" class="plotclip"><rect width="340" height="272"/></clipPath><clipPath class="axesclip" id="clip857a08x"><rect x="80" y="0" width="340" height="1200"/></clipPath><clipPath class="axesclip" id="clip857a08y"><rect x="0" y="100" width="500" height="272.00000000000006"/></clipPath><clipPath class="axesclip" id="clip857a08xy"><rect x="80" y="100" width="340" height="272.00000000000006"/></clipPath><clipPath class="axesclip" id="clip857a08y2"><rect x="0" y="474.00000000000006" width="500" height="272"/></clipPath><clipPath class="axesclip" id="clip857a08xy2"><rect x="80" y="474.00000000000006" width="340" height="272"/></clipPath><clipPath class="axesclip" id="clip857a08y3"><rect x="0" y="848.0000000000001" width="500" height="272"/></clipPath><clipPath class="axesclip" id="clip857a08xy3"><rect x="80" y="848.0000000000001" width="340" height="272"/></clipPath><clipPath class="axesclip" id="clip857a08x2"><rect x="80" y="0" width="340" height="1200"/></clipPath><clipPath class="axesclip" id="clip857a08x2y"><rect x="80" y="100" width="340" height="272.00000000000006"/></clipPath><clipPath class="axesclip" id="clip857a08x2y2"><rect x="80" y="474.00000000000006" width="340" height="272"/></clipPath><clipPath class="axesclip" id="clip857a08x2y3"><rect x="80" y="848.0000000000001" width="340" height="272"/></clipPath><clipPath class="axesclip" id="clip857a08x3"><rect x="80" y="0" width="340" height="1200"/></clipPath><clipPath class="axesclip" id="clip857a08x3y"><rect x="80" y="100" width="340" height="272.00000000000006"/></clipPath><clipPath class="axesclip" id="clip857a08x3y2"><rect x="80" y="474.00000000000006" width="340" height="272"/></clipPath><clipPath class="axesclip" id="clip857a08x3y3"><rect x="80" y="848.0000000000001" width="340" height="272"/></clipPath></g><g class="gradients"/><g class="patterns"/></defs><g class="bglayer"/><g class="layer-below"><g class="imagelayer"/><g class="shapelayer"/></g><g class="cartesianlayer"><g class="subplot xy"><g class="layer-subplot"><g class="shapelayer"/><g class="imagelayer"/></g><g class="minor-gridlayer"><g class="x"/><g class="y"/></g><g class="gridlayer"><g class="x"><path class="xgrid crisp" transform="translate(148,0)" d="M0,100v272.00000000000006" style="stroke: rgb(235, 240, 248); stroke-opacity: 1; stroke-width: 1px;"/><path class="xgrid crisp" transform="translate(216,0)" d="M0,100v272.00000000000006" style="stroke: rgb(235, 240, 248); stroke-opacity: 1; stroke-width: 1px;"/><path class="xgrid crisp" transform="translate(284,0)" d="M0,100v272.00000000000006" style="stroke: rgb(235, 240, 248); stroke-opacity: 1; stroke-width: 1px;"/><path class="xgrid crisp" transform="translate(352,0)" d="M0,100v272.00000000000006" style="stroke: rgb(235, 240, 248); stroke-opacity: 1; stroke-width: 1px;"/></g><g class="y"><path class="ygrid crisp" transform="translate(0,334.55)" d="M80,0h340" style="stroke: rgb(235, 240, 248); stroke-opacity: 1; stroke-width: 1px;"/><path class="ygrid crisp" transform="translate(0,297.73)" d="M80,0h340" style="stroke: rgb(235, 240, 248); stroke-opacity: 1; stroke-width: 1px;"/><path class="ygrid crisp" transform="translate(0,260.9)" d="M80,0h340" style="stroke: rgb(235, 240, 248); stroke-opacity: 1; stroke-width: 1px;"/><path class="ygrid crisp" transform="translate(0,224.07999999999998)" d="M80,0h340" style="stroke: rgb(235, 240, 248); stroke-opacity: 1; stroke-width: 1px;"/><path class="ygrid crisp" transform="translate(0,187.25)" d="M80,0h340" style="stroke: rgb(235, 240, 248); stroke-opacity: 1; stroke-width: 1px;"/><path class="ygrid crisp" transform="translate(0,150.43)" d="M80,0h340" style="stroke: rgb(235, 240, 248); stroke-opacity: 1; stroke-width: 1px;"/></g></g><g class="zerolinelayer"><path class="yzl zl crisp" transform="translate(0,113.6)" d="M80,0h340" style="stroke: rgb(235, 240, 248); stroke-opacity: 1; stroke-width: 2px;"/></g><path class="xlines-below"/><path class="ylines-below"/><g class="overlines-below"/><g class="xaxislayer-below"/><g class="yaxislayer-below"/><g class="overaxes-below"/><g class="plot" transform="translate(80,100)" clip-path="url(#clip857a08xyplot)"><g class="scatterlayer mlayer"><g class="trace scatter trace19ef29" style="stroke-miterlimit: 2; opacity: 1;"><g class="fills"/><g class="errorbars"/><g class="lines"><path class="js-line" d="M0,258.4L17.17,217.66L20.61,209.93L37.78,173.44L41.21,166.57L58.38,134.4L61.82,128.41L75.56,105.9L78.99,100.65L92.73,81.12L96.16,76.61L109.9,60.11L113.33,56.37L127.07,42.94L130.51,39.96L144.24,29.65L147.68,27.46L157.98,21.85L161.41,20.3L171.72,16.61L175.15,15.7L185.45,13.95L188.89,13.69L202.63,14.01L206.06,14.29L226.67,16.25L230.1,16.69L257.58,21.25L261.01,21.96L285.05,27.65L288.48,28.58L315.96,37.04L319.39,38.23L340,45.91" style="vector-effect: non-scaling-stroke; fill: none; stroke: rgb(169, 169, 169); stroke-opacity: 1; stroke-width: 2px; opacity: 1;"/></g><g class="points"/><g class="text"/></g></g></g><g class="overplot"/><path class="xlines-above crisp" d="M0,0" style="fill: none;"/><path class="ylines-above crisp" d="M0,0" style="fill: none;"/><g class="overlines-above"/><g class="xaxislayer-above"/><g class="yaxislayer-above"><g class="ytick"><text text-anchor="end" x="79" y="4.199999999999999" transform="translate(0,371.38)" style="font-family: 'Open Sans', verdana, arial, sans-serif; font-size: 12px; fill: rgb(42, 63, 95); fill-opacity: 1; white-space: pre; opacity: 1;">−35</text></g><g class="ytick"><text text-anchor="end" x="79" y="4.199999999999999" style="font-family: 'Open Sans', verdana, arial, sans-serif; font-size: 12px; fill: rgb(42, 63, 95); fill-opacity: 1; white-space: pre; opacity: 1;" transform="translate(0,334.55)">−30</text></g><g class="ytick"><text text-anchor="end" x="79" y="4.199999999999999" style="font-family: 'Open Sans', verdana, arial, sans-serif; font-size: 12px; fill: rgb(42, 63, 95); fill-opacity: 1; white-space: pre; opacity: 1;" transform="translate(0,297.73)">−25</text></g><g class="ytick"><text text-anchor="end" x="79" y="4.199999999999999" style="font-family: 'Open Sans', verdana, arial, sans-serif; font-size: 12px; fill: rgb(42, 63, 95); fill-opacity: 1; white-space: pre; opacity: 1;" transform="translate(0,260.9)">−20</text></g><g class="ytick"><text text-anchor="end" x="79" y="4.199999999999999" style="font-family: 'Open Sans', verdana, arial, sans-serif; font-size: 12px; fill: rgb(42, 63, 95); fill-opacity: 1; white-space: pre; opacity: 1;" transform="translate(0,224.07999999999998)">−15</text></g><g class="ytick"><text text-anchor="end" x="79" y="4.199999999999999" style="font-family: 'Open Sans', verdana, arial, sans-serif; font-size: 12px; fill: rgb(42, 63, 95); fill-opacity: 1; white-space: pre; opacity: 1;" transform="translate(0,187.25)">−10</text></g><g class="ytick"><text text-anchor="end" x="79" y="4.199999999999999" style="font-family: 'Open Sans', verdana, arial, sans-serif; font-size: 12px; fill: rgb(42, 63, 95); fill-opacity: 1; white-space: pre; opacity: 1;" transform="translate(0,150.43)">−5</text></g><g class="ytick"><text text-anchor="end" x="79" y="4.199999999999999" style="font-family: 'Open Sans', verdana, arial, sans-serif; font-size: 12px; fill: rgb(42, 63, 95); fill-opacity: 1; white-space: pre; opacity: 1;" transform="translate(0,113.6)">0</text></g></g><g class="overaxes-above"/></g><g class="subplot x2y2"><g class="layer-subplot"><g class="shapelayer"/><g class="imagelayer"/></g><g class="minor-gridlayer"><g class="x2"/><g class="y2"/></g><g class="gridlayer"><g class="x2"><path class="x2grid crisp" transform="translate(148,0)" d="M0,474.00000000000006v272" style="stroke: rgb(235, 240, 248); stroke-opacity: 1; stroke-width: 1px;"/><path class="x2grid crisp" transform="translate(216,0)" d="M0,474.00000000000006v272" style="stroke: rgb(235, 240, 248); stroke-opacity: 1; stroke-width: 1px;"/><path class="x2grid crisp" transform="translate(284,0)" d="M0,474.00000000000006v272" style="stroke: rgb(235, 240, 248); stroke-opacity: 1; stroke-width: 1px;"/><path class="x2grid crisp" transform="translate(352,0)" d="M0,474.00000000000006v272" style="stroke: rgb(235, 240, 248); stroke-opacity: 1; stroke-width: 1px;"/></g><g class="y2"><path class="y2grid crisp" transform="translate(0,703.9100000000001)" d="M80,0h340" style="stroke: rgb(235, 240, 248); stroke-opacity: 1; stroke-width: 1px;"/><path class="y2grid crisp" transform="translate(0,591.3700000000001)" d="M80,0h340" style="stroke: rgb(235, 240, 248); stroke-opacity: 1; stroke-width: 1px;"/><path class="y2grid crisp" transform="translate(0,535.11)" d="M80,0h340" style="stroke: rgb(235, 240, 248); stroke-opacity: 1; stroke-width: 1px;"/><path class="y2grid crisp" transform="translate(0,478.84000000000003)" d="M80,0h340" style="stroke: rgb(235, 240, 248); stroke-opacity: 1; stroke-width: 1px;"/></g></g><g class="zerolinelayer"><path class="y2zl zl crisp" transform="translate(0,647.6400000000001)" d="M80,0h340" style="stroke: rgb(235, 240, 248); stroke-opacity: 1; stroke-width: 2px;"/></g><path class="xlines-below"/><path class="ylines-below"/><g class="overlines-below"/><g class="xaxislayer-below"/><g class="yaxislayer-below"/><g class="overaxes-below"/><g class="plot" transform="translate(80,474.00000000000006)" clip-path="url(#clip857a08x2y2plot)"><g class="scatterlayer mlayer"><g class="trace scatter trace38b310" style="stroke-miterlimit: 2; opacity: 1;"><g class="fills"/><g class="errorbars"/><g class="lines"><path class="js-line" d="M0,173.12L96.16,172.7L99.6,172.72L192.32,174.26L195.76,174.36L322.83,182.94L326.26,183.28L333.13,183.85L336.57,183.99L340,184.27" style="vector-effect: non-scaling-stroke; fill: none; stroke: rgb(68, 1, 84); stroke-opacity: 1; stroke-width: 1px; opacity: 1;"/></g><g class="points"/><g class="text"/></g><g class="trace scatter traced08c20" style="stroke-miterlimit: 2; opacity: 1;"><g class="fills"/><g class="errorbars"/><g class="lines"><path class="js-line" d="M0,16.61L72.12,70.87L75.56,73.51L144.24,127.27L147.68,130.01L199.19,170.8L202.63,172.85L206.06,174.45L209.49,177.08L219.8,183.91L223.23,185.89L236.97,194.42L240.4,196.79L250.71,202.52L254.14,205.12L264.44,210.73L267.88,213.24L271.31,214.81L274.75,217.46L285.05,223.36L288.48,225.64L295.35,228.79L298.79,232.01L315.96,241.52L319.39,243.76L326.26,247.23L329.7,251.14L333.13,251.13L336.57,253.97L340,255.92" style="vector-effect: non-scaling-stroke; fill: none; stroke: rgb(69, 7, 90); stroke-opacity: 1; stroke-width: 1px; opacity: 1;"/></g><g class="points"/><g class="text"/></g><g class="trace scatter trace0320a3" style="stroke-miterlimit: 2; opacity: 1;"><g class="fills"/><g class="errorbars"/><g class="lines"><path class="js-line" d="M0,196.98L72.12,187.58L75.56,187.17L151.11,178.89L154.55,178.55L202.63,174.45L206.06,174.41L233.54,172.99L236.97,172.79L267.88,171.5L271.31,171.46L291.92,170.65L295.35,170.69L305.66,170.29L309.09,170.05L340,169.15" style="vector-effect: non-scaling-stroke; fill: none; stroke: rgb(69, 14, 96); stroke-opacity: 1; stroke-width: 1px; opacity: 1;"/></g><g class="points"/><g class="text"/></g><g class="trace scatter trace4f1ee1" style="stroke-miterlimit: 2; opacity: 1;"><g class="fills"/><g class="errorbars"/><g class="lines"><path class="js-line" d="M0,207.66L99.6,190.12L103.03,189.54L192.32,175.16L195.76,174.63L319.39,160.4L322.83,160.04L340,158.26" style="vector-effect: non-scaling-stroke; fill: none; stroke: rgb(70, 20, 101); stroke-opacity: 1; stroke-width: 1px; opacity: 1;"/></g><g class="points"/><g class="text"/></g><g class="trace scatter tracece3af5" style="stroke-miterlimit: 2; opacity: 1;"><g class="fills"/><g class="errorbars"/><g class="lines"><path class="js-line" d="M0,211.89L48.08,200.28L51.52,199.5L103.03,188.8L106.46,188.15L151.11,180.4L154.55,179.86L195.76,174.06L199.19,173.77L340,161.5" style="vector-effect: non-scaling-stroke; fill: none; stroke: rgb(71, 26, 107); stroke-opacity: 1; stroke-width: 1px; opacity: 1;"/></g><g class="points"/><g class="text"/></g><g class="trace scatter traceeeecc5" style="stroke-miterlimit: 2; opacity: 1;"><g class="fills"/><g class="errorbars"/><g class="lines"><path class="js-line" d="M0,13.6L61.82,60.59L65.25,63.26L123.64,109.48L127.07,112.26L185.45,160.33L188.89,163.21L199.19,170.97L202.63,173.08L206.06,174.7L209.49,177.42L219.8,184.44L223.23,186.45L236.97,195.22L240.4,197.66L250.71,203.55L254.14,206.19L264.44,211.98L267.88,214.54L271.31,216.13L274.75,218.88L285.05,224.95L288.48,227.29L295.35,230.5L298.79,233.82L315.96,243.61L319.39,245.92L326.26,249.45L329.7,253.51L333.13,253.46L336.57,256.38L340,258.4" style="vector-effect: non-scaling-stroke; fill: none; stroke: rgb(71, 32, 113); stroke-opacity: 1; stroke-width: 1px; opacity: 1;"/></g><g class="points"/><g class="text"/></g><g class="trace scatter trace1e239f" style="stroke-miterlimit: 2; opacity: 1;"><g class="fills"/><g class="errorbars"/><g class="lines"><path class="js-line" d="M0,217.04L54.95,202.84L58.38,202.01L113.33,189.5L116.77,188.78L168.28,178.69L171.72,178.07L219.8,170.25L223.23,169.72L340,152.65" style="vector-effect: non-scaling-stroke; fill: none; stroke: rgb(72, 39, 119); stroke-opacity: 1; stroke-width: 1px; opacity: 1;"/></g><g class="points"/><g class="text"/></g><g class="trace scatter trace26efa4" style="stroke-miterlimit: 2; opacity: 1;"><g class="fills"/><g class="errorbars"/><g class="lines"><path class="js-line" d="M0,180.05L75.56,176.78L78.99,176.67L157.98,174.87L161.41,174.82L209.49,175.12L212.93,175.17L319.39,179.88L322.83,180.05L340,180.97" style="vector-effect: non-scaling-stroke; fill: none; stroke: rgb(71, 44, 122); stroke-opacity: 1; stroke-width: 1px; opacity: 1;"/></g><g class="points"/><g class="text"/></g><g class="trace scatter tracea8118b" style="stroke-miterlimit: 2; opacity: 1;"><g class="fills"/><g class="errorbars"/><g class="lines"><path class="js-line" d="M0,219.51L58.38,203.74L61.82,202.87L116.77,189.68L120.2,188.91L171.72,178.1L175.15,177.43L340,145.76" style="vector-effect: non-scaling-stroke; fill: none; stroke: rgb(69, 49, 125); stroke-opacity: 1; stroke-width: 1px; opacity: 1;"/></g><g class="points"/><g class="text"/></g><g class="trace scatter traceee256f" style="stroke-miterlimit: 2; opacity: 1;"><g class="fills"/><g class="errorbars"/><g class="lines"><path class="js-line" d="M0,213.3L51.52,200.79L54.95,200.01L109.9,188.44L113.33,187.78L161.41,179.24L164.85,178.69L202.63,173.28L206.06,172.92L254.14,167.3L257.58,166.95L340,158.16" style="vector-effect: non-scaling-stroke; fill: none; stroke: rgb(68, 55, 128); stroke-opacity: 1; stroke-width: 1px; opacity: 1;"/></g><g class="points"/><g class="text"/></g><g class="trace scatter trace805a45" style="stroke-miterlimit: 2; opacity: 1;"><g class="fills"/><g class="errorbars"/><g class="lines"><path class="js-line" d="M0,214.1L44.65,202.18L48.08,201.33L89.29,191.8L92.73,191.07L137.37,182.45L140.81,181.85L182.02,175.54L185.45,175.08L212.93,172.24L216.36,171.94L302.22,164.92L305.66,164.74L340,162.1" style="vector-effect: non-scaling-stroke; fill: none; stroke: rgb(66, 60, 130); stroke-opacity: 1; stroke-width: 1px; opacity: 1;"/></g><g class="points"/><g class="text"/></g><g class="trace scatter trace64f642" style="stroke-miterlimit: 2; opacity: 1;"><g class="fills"/><g class="errorbars"/><g class="lines"><path class="js-line" d="M0,215.99L51.52,202.89L54.95,202.06L113.33,189.03L116.77,188.32L168.28,178.52L171.72,177.92L219.8,170.4L223.23,169.9L340,153.6" style="vector-effect: non-scaling-stroke; fill: none; stroke: rgb(64, 65, 133); stroke-opacity: 1; stroke-width: 1px; opacity: 1;"/></g><g class="points"/><g class="text"/></g><g class="trace scatter trace686e65" style="stroke-miterlimit: 2; opacity: 1;"><g class="fills"/><g class="errorbars"/><g class="lines"><path class="js-line" d="M0,186.36L68.69,180.64L72.12,180.4L133.94,176.79L137.37,176.63L195.76,174.63L199.19,174.73L329.7,177.78L333.13,178.3L340,178.4" style="vector-effect: non-scaling-stroke; fill: none; stroke: rgb(63, 71, 136); stroke-opacity: 1; stroke-width: 1px; opacity: 1;"/></g><g class="points"/><g class="text"/></g><g class="trace scatter trace0922e9" style="stroke-miterlimit: 2; opacity: 1;"><g class="fills"/><g class="errorbars"/><g class="lines"><path class="js-line" d="M0,205.15L65.25,193.48L68.69,192.9L133.94,182.79L137.37,182.3L195.76,174.65L199.19,174.39L329.7,164.02L333.13,164.14L340,163.55" style="vector-effect: non-scaling-stroke; fill: none; stroke: rgb(61, 76, 137); stroke-opacity: 1; stroke-width: 1px; opacity: 1;"/></g><g class="points"/><g class="text"/></g><g class="trace scatter trace94fd56" style="stroke-miterlimit: 2; opacity: 1;"><g class="fills"/><g class="errorbars"/><g class="lines"><path class="js-line" d="M0,185.01L68.69,179.75L72.12,179.53L130.51,176.47L133.94,176.33L192.32,174.63L195.76,174.57L340,178.65" style="vector-effect: non-scaling-stroke; fill: none; stroke: rgb(59, 81, 138); stroke-opacity: 1; stroke-width: 1px; opacity: 1;"/></g><g class="points"/><g class="text"/></g><g class="trace scatter trace293401" style="stroke-miterlimit: 2; opacity: 1;"><g class="fills"/><g class="errorbars"/><g class="lines"><path class="js-line" d="M0,28.9L68.69,76.45L72.12,78.87L137.37,125.88L140.81,128.4L199.19,171.21L202.63,173.13L206.06,174.66L209.49,177.1L219.8,183.48L223.23,185.34L236.97,193.34L240.4,195.55L250.71,200.96L254.14,203.38L264.44,208.68L267.88,211.01L271.31,212.51L274.75,214.97L285.05,220.54L288.48,222.66L295.35,225.68L298.79,228.64L315.96,237.63L319.39,239.73L326.26,243.03L329.7,246.61L333.13,246.7L336.57,249.34L340,251.17" style="vector-effect: non-scaling-stroke; fill: none; stroke: rgb(45, 114, 142); stroke-opacity: 1; stroke-width: 1px; opacity: 1;"/></g><g class="points"/><g class="text"/></g><g class="trace scatter trace49d175" style="stroke-miterlimit: 2; opacity: 1;"><g class="fills"/><g class="errorbars"/><g class="lines"><path class="js-line" d="M0,193.65L75.56,185.13L78.99,184.77L164.85,177L168.28,176.73L202.63,174.52L206.06,174.52L233.54,173.54L236.97,173.4L267.88,172.58L271.31,172.6L291.92,172.1L295.35,172.2L305.66,171.96L309.09,171.77L340,171.35" style="vector-effect: non-scaling-stroke; fill: none; stroke: rgb(43, 118, 142); stroke-opacity: 1; stroke-width: 1px; opacity: 1;"/></g><g class="points"/><g class="text"/></g><g class="trace scatter trace4b1f3f" style="stroke-miterlimit: 2; opacity: 1;"><g class="fills"/><g class="errorbars"/><g class="lines"><path class="js-line" d="M0,210.88L96.16,192.27L99.6,191.64L185.45,176.35L188.89,175.76L223.23,170.64L226.67,170.18L264.44,164.99L267.88,164.47L315.96,158.26L319.39,157.81L340,155.24" style="vector-effect: non-scaling-stroke; fill: none; stroke: rgb(41, 122, 142); stroke-opacity: 1; stroke-width: 1px; opacity: 1;"/></g><g class="points"/><g class="text"/></g><g class="trace scatter trace34ea7a" style="stroke-miterlimit: 2; opacity: 1;"><g class="fills"/><g class="errorbars"/><g class="lines"><path class="js-line" d="M0,212.31L54.95,199.14L58.38,198.38L106.46,188.46L109.9,187.81L154.55,180.02L157.98,179.48L199.19,173.69L202.63,173.34L264.44,167.04L267.88,166.65L326.26,161.23L329.7,160.7L340,159.91" style="vector-effect: non-scaling-stroke; fill: none; stroke: rgb(40, 126, 142); stroke-opacity: 1; stroke-width: 1px; opacity: 1;"/></g><g class="points"/><g class="text"/></g><g class="trace scatter trace01a706" style="stroke-miterlimit: 2; opacity: 1;"><g class="fills"/><g class="errorbars"/><g class="lines"><path class="js-line" d="M0,23.63L65.25,70.15L68.69,72.66L133.94,121.31L137.37,123.93L199.19,171.18L202.63,173.17L206.06,174.71L209.49,177.26L219.8,183.87L223.23,185.77L236.97,194.03L240.4,196.32L250.71,201.89L254.14,204.37L264.44,209.83L267.88,212.25L271.31,213.75L274.75,216.34L285.05,222.07L288.48,224.26L295.35,227.32L298.79,230.42L315.96,239.68L319.39,241.86L326.26,245.19L329.7,248.99L333.13,248.99L336.57,251.73L340,253.64" style="vector-effect: non-scaling-stroke; fill: none; stroke: rgb(38, 130, 142); stroke-opacity: 1; stroke-width: 1px; opacity: 1;"/></g><g class="points"/><g class="text"/></g><g class="trace scatter trace769ecd" style="stroke-miterlimit: 2; opacity: 1;"><g class="fills"/><g class="errorbars"/><g class="lines"><path class="js-line" d="M0,217.13L54.95,202.84L58.38,202L113.33,189.45L116.77,188.72L168.28,178.63L171.72,178.02L219.8,170.21L223.23,169.69L340,152.62" style="vector-effect: non-scaling-stroke; fill: none; stroke: rgb(37, 135, 141); stroke-opacity: 1; stroke-width: 1px; opacity: 1;"/></g><g class="points"/><g class="text"/></g><g class="trace scatter trace5f2581" style="stroke-miterlimit: 2; opacity: 1;"><g class="fills"/><g class="errorbars"/><g class="lines"><path class="js-line" d="M0,177.15L85.86,174.87L89.29,174.81L171.72,174.36L175.15,174.38L209.49,175.27L212.93,175.37L302.22,180.36L305.66,180.74L322.83,181.76L326.26,182.09L333.13,182.59L336.57,182.66L340,182.92" style="vector-effect: non-scaling-stroke; fill: none; stroke: rgb(36, 140, 140); stroke-opacity: 1; stroke-width: 1px; opacity: 1;"/></g><g class="points"/><g class="text"/></g><g class="trace scatter trace08ee93" style="stroke-miterlimit: 2; opacity: 1;"><g class="fills"/><g class="errorbars"/><g class="lines"><path class="js-line" d="M0,220.02L54.95,204.9L58.38,204.01L113.33,190.55L116.77,189.76L168.28,178.74L171.72,178.05L340,144.89" style="vector-effect: non-scaling-stroke; fill: none; stroke: rgb(34, 144, 140); stroke-opacity: 1; stroke-width: 1px; opacity: 1;"/></g><g class="points"/><g class="text"/></g><g class="trace scatter trace52f8bd" style="stroke-miterlimit: 2; opacity: 1;"><g class="fills"/><g class="errorbars"/><g class="lines"><path class="js-line" d="M0,214.39L51.52,201.74L54.95,200.95L106.46,189.82L109.9,189.13L161.41,179.6L164.85,179.02L206.06,172.9L209.49,172.42L261.01,166.08L264.44,165.68L315.96,159.69L319.39,159.28L340,156.97" style="vector-effect: non-scaling-stroke; fill: none; stroke: rgb(33, 148, 139); stroke-opacity: 1; stroke-width: 1px; opacity: 1;"/></g><g class="points"/><g class="text"/></g><g class="trace scatter trace9b795f" style="stroke-miterlimit: 2; opacity: 1;"><g class="fills"/><g class="errorbars"/><g class="lines"><path class="js-line" d="M0,212.72L44.65,201.13L48.08,200.3L92.73,190.36L96.16,189.67L137.37,182.05L140.81,181.48L182.02,175.43L185.45,175L212.93,172.3L216.36,172.02L291.92,166.14L295.35,165.96L319.39,164.13L322.83,163.87L340,162.69" style="vector-effect: non-scaling-stroke; fill: none; stroke: rgb(32, 153, 138); stroke-opacity: 1; stroke-width: 1px; opacity: 1;"/></g><g class="points"/><g class="text"/></g><g class="trace scatter traceafbcb5" style="stroke-miterlimit: 2; opacity: 1;"><g class="fills"/><g class="errorbars"/><g class="lines"><path class="js-line" d="M0,216.18L58.38,201.45L61.82,200.64L113.33,189.18L116.77,188.47L168.28,178.56L171.72,177.95L226.67,169.08L230.1,168.55L340,152.23" style="vector-effect: non-scaling-stroke; fill: none; stroke: rgb(31, 158, 137); stroke-opacity: 1; stroke-width: 1px; opacity: 1;"/></g><g class="points"/><g class="text"/></g><g class="trace scatter tracecd8657" style="stroke-miterlimit: 2; opacity: 1;"><g class="fills"/><g class="errorbars"/><g class="lines"><path class="js-line" d="M0,181.36L68.69,177.3L72.12,177.14L137.37,175.02L140.81,174.95L195.76,174.54L199.19,174.72L322.83,180.65L326.26,180.95L333.13,181.38L336.57,181.42L340,181.65" style="vector-effect: non-scaling-stroke; fill: none; stroke: rgb(34, 162, 135); stroke-opacity: 1; stroke-width: 1px; opacity: 1;"/></g><g class="points"/><g class="text"/></g><g class="trace scatter trace571f40" style="stroke-miterlimit: 2; opacity: 1;"><g class="fills"/><g class="errorbars"/><g class="lines"><path class="js-line" d="M0,202.98L65.25,191.92L68.69,191.38L133.94,181.99L137.37,181.54L195.76,174.62L199.19,174.41L322.83,166.29L326.26,166.2L333.13,165.86L336.57,165.52L340,165.35" style="vector-effect: non-scaling-stroke; fill: none; stroke: rgb(38, 166, 132); stroke-opacity: 1; stroke-width: 1px; opacity: 1;"/></g><g class="points"/><g class="text"/></g><g class="trace scatter trace516d56" style="stroke-miterlimit: 2; opacity: 1;"><g class="fills"/><g class="errorbars"/><g class="lines"><path class="js-line" d="M0,182.84L61.82,178.66L65.25,178.47L127.07,175.8L130.51,175.7L185.45,174.65L188.89,174.63L212.93,175.19L216.36,175.33L274.75,177.66L278.18,177.88L309.09,179.33L312.53,179.54L340,180.96" style="vector-effect: non-scaling-stroke; fill: none; stroke: rgb(41, 170, 130); stroke-opacity: 1; stroke-width: 1px; opacity: 1;"/></g><g class="points"/><g class="text"/></g><g class="trace scatter tracef1898b" style="stroke-miterlimit: 2; opacity: 1;"><g class="fills"/><g class="errorbars"/><g class="lines"><path class="js-line" d="M0,169.09L137.37,171.44L140.81,171.52L216.36,173.94L219.8,174.16L236.97,175.29L240.4,175.41L291.92,178.7L295.35,179.08L319.39,180.39L322.83,180.73L336.57,181.67L340,181.8" style="vector-effect: non-scaling-stroke; fill: none; stroke: rgb(45, 174, 127); stroke-opacity: 1; stroke-width: 1px; opacity: 1;"/></g><g class="points"/><g class="text"/></g><g class="trace scatter tracec9e7cc" style="stroke-miterlimit: 2; opacity: 1;"><g class="fills"/><g class="errorbars"/><g class="lines"><path class="js-line" d="M0,196.53L72.12,187.35L75.56,186.94L151.11,178.82L154.55,178.49L202.63,174.47L206.06,174.43L230.1,173.12L233.54,173.05L281.62,171.1L285.05,171.05L329.7,169.41L333.13,169.73L340,169.4" style="vector-effect: non-scaling-stroke; fill: none; stroke: rgb(96, 200, 96); stroke-opacity: 1; stroke-width: 1px; opacity: 1;"/></g><g class="points"/><g class="text"/></g><g class="trace scatter trace32a07d" style="stroke-miterlimit: 2; opacity: 1;"><g class="fills"/><g class="errorbars"/><g class="lines"><path class="js-line" d="M0,210.16L109.9,189.44L113.33,188.82L202.63,173.56L206.06,173.15L243.84,167.74L247.27,167.22L326.26,156.99L329.7,156.31L340,155.22" style="vector-effect: non-scaling-stroke; fill: none; stroke: rgb(105, 204, 91); stroke-opacity: 1; stroke-width: 1px; opacity: 1;"/></g><g class="points"/><g class="text"/></g><g class="trace scatter trace790061" style="stroke-miterlimit: 2; opacity: 1;"><g class="fills"/><g class="errorbars"/><g class="lines"><path class="js-line" d="M0,211.08L51.52,198.88L54.95,198.12L106.46,187.74L109.9,187.11L157.98,179.17L161.41,178.67L199.19,173.84L202.63,173.56L243.84,170.05L247.27,169.73L295.35,166.14L298.79,165.73L340,162.8" style="vector-effect: non-scaling-stroke; fill: none; stroke: rgb(115, 207, 85); stroke-opacity: 1; stroke-width: 1px; opacity: 1;"/></g><g class="points"/><g class="text"/></g><g class="trace scatter tracefecf97" style="stroke-miterlimit: 2; opacity: 1;"><g class="fills"/><g class="errorbars"/><g class="lines"><path class="js-line" d="M0,29.4L61.82,71.75L65.25,74.16L123.64,115.9L127.07,118.4L185.45,161.87L188.89,164.47L199.19,171.55L202.63,173.52L206.06,175.08L209.49,177.55L219.8,184.02L223.23,185.9L236.97,194.04L240.4,196.28L250.71,201.81L254.14,204.22L264.44,209.67L267.88,212.01L271.31,213.54L274.75,216.05L285.05,221.73L288.48,223.89L295.35,226.99L298.79,229.96L315.96,239.17L319.39,241.3L326.26,244.66L329.7,248.26L333.13,248.42L336.57,251.07L340,252.96" style="vector-effect: non-scaling-stroke; fill: none; stroke: rgb(126, 210, 78); stroke-opacity: 1; stroke-width: 1px; opacity: 1;"/></g><g class="points"/><g class="text"/></g><g class="trace scatter tracefa0032" style="stroke-miterlimit: 2; opacity: 1;"><g class="fills"/><g class="errorbars"/><g class="lines"><path class="js-line" d="M0,216.41L54.95,202.28L58.38,201.46L106.46,190.55L109.9,189.83L154.55,181L157.98,180.37L199.19,173.44L202.63,172.95L340,153.88" style="vector-effect: non-scaling-stroke; fill: none; stroke: rgb(138, 212, 70); stroke-opacity: 1; stroke-width: 1px; opacity: 1;"/></g><g class="points"/><g class="text"/></g><g class="trace scatter trace917ba3" style="stroke-miterlimit: 2; opacity: 1;"><g class="fills"/><g class="errorbars"/><g class="lines"><path class="js-line" d="M0,179.39L78.99,176.17L82.42,176.07L154.55,174.67L157.98,174.64L206.06,175.06L209.49,175.09L247.27,176.48L250.71,176.7L278.18,177.92L281.62,178.03L326.26,180.46L329.7,180.33L336.57,180.92L340,181.13" style="vector-effect: non-scaling-stroke; fill: none; stroke: rgb(149, 215, 63); stroke-opacity: 1; stroke-width: 1px; opacity: 1;"/></g><g class="points"/><g class="text"/></g><g class="trace scatter trace510107" style="stroke-miterlimit: 2; opacity: 1;"><g class="fills"/><g class="errorbars"/><g class="lines"><path class="js-line" d="M0,220.03L58.38,204.09L61.82,203.21L113.33,190.68L116.77,189.89L168.28,178.9L171.72,178.22L309.09,152.13L312.53,151.48L340,146.45" style="vector-effect: non-scaling-stroke; fill: none; stroke: rgb(161, 217, 56); stroke-opacity: 1; stroke-width: 1px; opacity: 1;"/></g><g class="points"/><g class="text"/></g><g class="trace scatter trace84683e" style="stroke-miterlimit: 2; opacity: 1;"><g class="fills"/><g class="errorbars"/><g class="lines"><path class="js-line" d="M0,213.44L51.52,200.94L54.95,200.16L109.9,188.55L113.33,187.88L164.85,178.7L168.28,178.14L209.49,172.24L212.93,171.77L340,156.53" style="vector-effect: non-scaling-stroke; fill: none; stroke: rgb(172, 220, 49); stroke-opacity: 1; stroke-width: 1px; opacity: 1;"/></g><g class="points"/><g class="text"/></g><g class="trace scatter trace75c67d" style="stroke-miterlimit: 2; opacity: 1;"><g class="fills"/><g class="errorbars"/><g class="lines"><path class="js-line" d="M0,213.62L44.65,201.82L48.08,200.97L96.16,190.12L99.6,189.42L140.81,181.74L144.24,181.17L185.45,175.09L188.89,174.65L212.93,172.34L216.36,172.05L291.92,166.13L295.35,165.97L315.96,164.4L319.39,164.11L340,162.67" style="vector-effect: non-scaling-stroke; fill: none; stroke: rgb(184, 222, 43); stroke-opacity: 1; stroke-width: 1px; opacity: 1;"/></g><g class="points"/><g class="text"/></g><g class="trace scatter tracec3eab5" style="stroke-miterlimit: 2; opacity: 1;"><g class="fills"/><g class="errorbars"/><g class="lines"><path class="js-line" d="M0,215.83L54.95,202L58.38,201.19L109.9,189.74L113.33,189.03L168.28,178.53L171.72,177.93L223.23,169.81L226.67,169.31L319.39,156L322.83,155.5L340,153.15" style="vector-effect: non-scaling-stroke; fill: none; stroke: rgb(195, 224, 42); stroke-opacity: 1; stroke-width: 1px; opacity: 1;"/></g><g class="points"/><g class="text"/></g><g class="trace scatter traceaf3d5b" style="stroke-miterlimit: 2; opacity: 1;"><g class="fills"/><g class="errorbars"/><g class="lines"><path class="js-line" d="M0,183.27L68.69,178.59L72.12,178.4L140.81,175.54L144.24,175.44L199.19,174.69L202.63,174.8L223.23,175.36L226.67,175.5L257.58,176.53L261.01,176.69L340,180.01" style="vector-effect: non-scaling-stroke; fill: none; stroke: rgb(207, 225, 41); stroke-opacity: 1; stroke-width: 1px; opacity: 1;"/></g><g class="points"/><g class="text"/></g><g class="trace scatter tracee99ad5" style="stroke-miterlimit: 2; opacity: 1;"><g class="fills"/><g class="errorbars"/><g class="lines"><path class="js-line" d="M0,203.09L68.69,191.56L72.12,191.02L137.37,181.68L140.81,181.23L199.19,174.45L202.63,174.21L223.23,172.67L226.67,172.47L254.14,170.5L257.58,170.36L340,165.48" style="vector-effect: non-scaling-stroke; fill: none; stroke: rgb(218, 227, 40); stroke-opacity: 1; stroke-width: 1px; opacity: 1;"/></g><g class="points"/><g class="text"/></g><g class="trace scatter trace6d451a" style="stroke-miterlimit: 2; opacity: 1;"><g class="fills"/><g class="errorbars"/><g class="lines"><path class="js-line" d="M0,185.6L65.25,180.4L68.69,180.17L130.51,176.72L133.94,176.57L192.32,174.7L195.76,174.64L295.35,177.37L298.79,177.23L340,178.84" style="vector-effect: non-scaling-stroke; fill: none; stroke: rgb(230, 228, 39); stroke-opacity: 1; stroke-width: 1px; opacity: 1;"/></g><g class="points"/><g class="text"/></g><g class="trace scatter trace709528" style="stroke-miterlimit: 2; opacity: 1;"><g class="fills"/><g class="errorbars"/><g class="lines"><path class="js-line" d="M0,170.17L130.51,171.67L133.94,171.73L216.36,173.87L219.8,174.07L236.97,175.12L240.4,175.23L302.22,178.86L305.66,179.22L340,181.2" style="vector-effect: non-scaling-stroke; fill: none; stroke: rgb(241, 230, 38); stroke-opacity: 1; stroke-width: 1px; opacity: 1;"/></g><g class="points"/><g class="text"/></g><g class="trace scatter trace487c48" style="stroke-miterlimit: 2; opacity: 1;"><g class="fills"/><g class="errorbars"/><g class="lines"><path class="js-line" d="M0,219.42L58.38,203.68L61.82,202.8L120.2,188.92L123.64,188.16L171.72,178.21L175.15,177.55L281.62,158.16L285.05,157.55L340,147.93" style="vector-effect: non-scaling-stroke; fill: none; stroke: rgb(253, 231, 37); stroke-opacity: 1; stroke-width: 1px; opacity: 1;"/></g><g class="points"/><g class="text"/></g></g></g><g class="overplot"/><path class="xlines-above crisp" d="M0,0" style="fill: none;"/><path class="ylines-above crisp" d="M0,0" style="fill: none;"/><g class="overlines-above"/><g class="xaxislayer-above"/><g class="yaxislayer-above"><g class="y2tick"><text text-anchor="end" x="79" y="4.199999999999999" transform="translate(0,703.9100000000001)" style="font-family: 'Open Sans', verdana, arial, sans-serif; font-size: 12px; fill: rgb(42, 63, 95); fill-opacity: 1; white-space: pre; opacity: 1;">−5</text></g><g class="y2tick"><text text-anchor="end" x="79" y="4.199999999999999" style="font-family: 'Open Sans', verdana, arial, sans-serif; font-size: 12px; fill: rgb(42, 63, 95); fill-opacity: 1; white-space: pre; opacity: 1;" transform="translate(0,647.6400000000001)">0</text></g><g class="y2tick"><text text-anchor="end" x="79" y="4.199999999999999" style="font-family: 'Open Sans', verdana, arial, sans-serif; font-size: 12px; fill: rgb(42, 63, 95); fill-opacity: 1; white-space: pre; opacity: 1;" transform="translate(0,591.3700000000001)">5</text></g><g class="y2tick"><text text-anchor="end" x="79" y="4.199999999999999" style="font-family: 'Open Sans', verdana, arial, sans-serif; font-size: 12px; fill: rgb(42, 63, 95); fill-opacity: 1; white-space: pre; opacity: 1;" transform="translate(0,535.11)">10</text></g><g class="y2tick"><text text-anchor="end" x="79" y="4.199999999999999" style="font-family: 'Open Sans', verdana, arial, sans-serif; font-size: 12px; fill: rgb(42, 63, 95); fill-opacity: 1; white-space: pre; opacity: 1;" transform="translate(0,478.84000000000003)">15</text></g></g><g class="overaxes-above"/></g><g class="subplot x3y3"><g class="layer-subplot"><g class="shapelayer"/><g class="imagelayer"/></g><g class="minor-gridlayer"><g class="x3"/><g class="y3"/></g><g class="gridlayer"><g class="x3"><path class="x3grid crisp" transform="translate(148,0)" d="M0,848.0000000000001v272" style="stroke: rgb(235, 240, 248); stroke-opacity: 1; stroke-width: 1px;"/><path class="x3grid crisp" transform="translate(216,0)" d="M0,848.0000000000001v272" style="stroke: rgb(235, 240, 248); stroke-opacity: 1; stroke-width: 1px;"/><path class="x3grid crisp" transform="translate(284,0)" d="M0,848.0000000000001v272" style="stroke: rgb(235, 240, 248); stroke-opacity: 1; stroke-width: 1px;"/><path class="x3grid crisp" transform="translate(352,0)" d="M0,848.0000000000001v272" style="stroke: rgb(235, 240, 248); stroke-opacity: 1; stroke-width: 1px;"/></g><g class="y3"><path class="y3grid crisp" transform="translate(0,1093.8400000000001)" d="M80,0h340" style="stroke: rgb(235, 240, 248); stroke-opacity: 1; stroke-width: 1px;"/><path class="y3grid crisp" transform="translate(0,952.6800000000001)" d="M80,0h340" style="stroke: rgb(235, 240, 248); stroke-opacity: 1; stroke-width: 1px;"/><path class="y3grid crisp" transform="translate(0,882.1000000000001)" d="M80,0h340" style="stroke: rgb(235, 240, 248); stroke-opacity: 1; stroke-width: 1px;"/></g></g><g class="zerolinelayer"><path class="y3zl zl crisp" transform="translate(0,1023.2600000000001)" d="M80,0h340" style="stroke: rgb(235, 240, 248); stroke-opacity: 1; stroke-width: 2px;"/></g><path class="xlines-below"/><path class="ylines-below"/><g class="overlines-below"/><g class="xaxislayer-below"/><g class="yaxislayer-below"/><g class="overaxes-below"/><g class="plot" transform="translate(80,848.0000000000001)" clip-path="url(#clip857a08x3y3plot)"><g class="scatterlayer mlayer"><g class="trace scatter tracec0ccf3" style="stroke-miterlimit: 2; opacity: 1;"><g class="fills"/><g class="errorbars"/><g class="lines"><path class="js-line" d="M0,184.91L206.06,185.66L209.49,183.35L212.93,180.79L216.36,176.46L219.8,174.58L223.23,169.56L226.67,168.25L230.1,162.1L233.54,160.7L236.97,155.53L240.4,149.11L243.84,147.04L247.27,143.06L250.71,137.75L254.14,136.48L257.58,131.75L261.01,130.67L264.44,122.45L267.88,118.88L271.31,118.15L274.75,112.86L278.18,106.19L281.62,103.55L285.05,99.83L288.48,96.34L291.92,94.87L295.35,94.87L298.79,87.75L302.22,80.02L305.66,80.02L312.53,69.4L315.96,66.86L319.39,65.52L322.83,59.77L326.26,57.01L329.7,51.24L333.13,51.24L336.57,42.68L340,41.02" style="vector-effect: non-scaling-stroke; fill: none; stroke: rgb(68, 1, 84); stroke-opacity: 1; stroke-width: 1px; opacity: 1;"/></g><g class="points"/><g class="text"/></g><g class="trace scatter trace68ae0d" style="stroke-miterlimit: 2; opacity: 1;"><g class="fills"/><g class="errorbars"/><g class="lines"><path class="js-line" d="M0,180.81L195.76,180.81L199.19,178.75L206.06,178.14L209.49,172.85L212.93,169.1L216.36,158.57L226.67,153.66L230.1,151.07L233.54,147.27L236.97,138.53L243.84,136.64L247.27,130.13L250.71,124.41L254.14,123.31L257.58,115.02L261.01,113.15L267.88,105.59L271.31,105.25L278.18,93.45L281.62,91.66L285.05,87.29L288.48,84.71L291.92,83.79L295.35,83.78L298.79,78.06L302.22,65.84L305.66,65.84L309.09,59.91L312.53,57.61L315.96,51.84L319.39,53.49L322.83,49.72L326.26,49.52L329.7,43.19L333.13,43.19L336.57,36.44L340,35.51" style="vector-effect: non-scaling-stroke; fill: none; stroke: rgb(69, 7, 90); stroke-opacity: 1; stroke-width: 1px; opacity: 1;"/></g><g class="points"/><g class="text"/></g><g class="trace scatter trace2e6b3c" style="stroke-miterlimit: 2; opacity: 1;"><g class="fills"/><g class="errorbars"/><g class="lines"><path class="js-line" d="M0,188.92L195.76,188.92L199.19,186.09L202.63,181.93L206.06,181.92L209.49,175.93L212.93,172.79L216.36,168.17L219.8,165.64L223.23,159.82L226.67,158.28L230.1,150.27L233.54,148.84L240.4,135.16L243.84,133.72L250.71,124.79L254.14,123.27L257.58,117.41L261.01,115.61L267.88,102.92L271.31,102.07L274.75,96.4L278.18,87.61L281.62,87.91L285.05,81.06L288.48,77.65L291.92,76.63L295.35,76.62L298.79,67.03L302.22,59.38L305.66,59.38L312.53,49.38L315.96,46.65L319.39,44.95L322.83,36.14L326.26,34.47L329.7,30.73L333.13,30.73L336.57,17.94L340,16.33" style="vector-effect: non-scaling-stroke; fill: none; stroke: rgb(69, 14, 96); stroke-opacity: 1; stroke-width: 1px; opacity: 1;"/></g><g class="points"/><g class="text"/></g><g class="trace scatter tracee63348" style="stroke-miterlimit: 2; opacity: 1;"><g class="fills"/><g class="errorbars"/><g class="lines"><path class="js-line" d="M0,185.61L199.19,186.17L202.63,192.4L206.06,192.4L209.49,194.13L219.8,191.79L223.23,187.29L226.67,186.01L230.1,181.48L233.54,180.38L236.97,175.58L240.4,167.98L243.84,165.38L247.27,161.44L250.71,155.01L254.14,153.44L257.58,147.77L261.01,146.15L264.44,136.95L267.88,131.81L271.31,130.73L274.75,124.27L278.18,115.28L285.05,107.26L288.48,102.49L291.92,100.51L295.35,100.51L298.79,92.79L302.22,81.82L305.66,81.81L309.09,73.84L312.53,67.71L315.96,64.67L319.39,62.59L322.83,55.57L326.26,52.31L329.7,44.71L333.13,44.7L336.57,32.99L340,30.56" style="vector-effect: non-scaling-stroke; fill: none; stroke: rgb(70, 20, 101); stroke-opacity: 1; stroke-width: 1px; opacity: 1;"/></g><g class="points"/><g class="text"/></g><g class="trace scatter trace0061bf" style="stroke-miterlimit: 2; opacity: 1;"><g class="fills"/><g class="errorbars"/><g class="lines"><path class="js-line" d="M0,179.23L195.76,179.23L199.19,176.68L202.63,173.72L206.06,173.71L212.93,166.68L216.36,164.14L219.8,161.06L223.23,159.33L226.67,156.18L230.1,154.97L233.54,150.77L236.97,149.67L247.27,142.01L250.71,140.22L254.14,136.41L257.58,134.59L261.01,130.93L264.44,128.96L267.88,127.49L271.31,124.09L278.18,120.45L281.62,117.31L288.48,112.54L291.92,108.63L295.35,108.62L298.79,104.58L302.22,101.5L305.66,101.49L309.09,97.57L312.53,94.95L315.96,91.29L319.39,89.1L322.83,87.78L326.26,85.31L329.7,82.25L333.13,82.23L336.57,76.29L340,74" style="vector-effect: non-scaling-stroke; fill: none; stroke: rgb(71, 26, 107); stroke-opacity: 1; stroke-width: 1px; opacity: 1;"/></g><g class="points"/><g class="text"/></g><g class="trace scatter tracef11474" style="stroke-miterlimit: 2; opacity: 1;"><g class="fills"/><g class="errorbars"/><g class="lines"><path class="js-line" d="M0,182.1L195.76,182.1L199.19,177.02L202.63,174.06L206.06,174.06L209.49,166.24L212.93,161.51L216.36,157.5L219.8,156.27L223.23,152.56L226.67,151.22L230.1,148.08L233.54,145.95L236.97,141.64L240.4,135.74L254.14,125.19L257.58,117.74L261.01,116.51L264.44,111.47L267.88,108.4L271.31,108.31L274.75,101.01L278.18,98.98L285.05,88.23L288.48,85.99L291.92,82.39L295.35,82.39L298.79,77.61L302.22,70.31L305.66,70.31L309.09,62.86L315.96,55.67L319.39,54.72L329.7,45.49L333.13,45.49L336.57,37.78L340,35.5" style="vector-effect: non-scaling-stroke; fill: none; stroke: rgb(71, 32, 113); stroke-opacity: 1; stroke-width: 1px; opacity: 1;"/></g><g class="points"/><g class="text"/></g><g class="trace scatter trace4d036c" style="stroke-miterlimit: 2; opacity: 1;"><g class="fills"/><g class="errorbars"/><g class="lines"><path class="js-line" d="M0,180.39L195.76,180.39L199.19,177.53L202.63,174.6L206.06,174.59L209.49,168.04L212.93,165.41L216.36,163.37L219.8,160.43L226.67,154.75L230.1,152.92L240.4,143.45L243.84,140.93L264.44,125.18L267.88,121.73L274.75,116.12L278.18,113.44L285.05,107.85L288.48,105.03L291.92,102.11L295.35,102.11L302.22,92.77L305.66,92.77L309.09,88.17L312.53,85.54L315.96,82.36L319.39,80.56L322.83,77.12L326.26,75.1L329.7,72.63L333.13,72.61L340,63.29" style="vector-effect: non-scaling-stroke; fill: none; stroke: rgb(72, 39, 119); stroke-opacity: 1; stroke-width: 1px; opacity: 1;"/></g><g class="points"/><g class="text"/></g><g class="trace scatter trace2753e8" style="stroke-miterlimit: 2; opacity: 1;"><g class="fills"/><g class="errorbars"/><g class="lines"><path class="js-line" d="M0,186.61L195.76,186.61L199.19,185.67L202.63,184.06L206.06,184.06L212.93,175.86L216.36,170.09L219.8,167.81L223.23,161.87L226.67,160.4L230.1,152.95L233.54,151.52L236.97,146.28L240.4,140.07L243.84,138.19L247.27,133.85L250.71,128.01L254.14,126.77L257.58,121.98L261.01,120.82L264.44,112.01L267.88,108.99L271.31,108.11L278.18,94.88L281.62,92.87L288.48,84.99L291.92,83.62L295.35,83.62L298.79,74.49L302.22,67.7L305.66,67.69L312.53,56.41L315.96,54.06L319.39,52.65L322.83,46.42L326.26,43.21L329.7,36.91L333.13,36.91L336.57,27.51L340,25.85" style="vector-effect: non-scaling-stroke; fill: none; stroke: rgb(71, 44, 122); stroke-opacity: 1; stroke-width: 1px; opacity: 1;"/></g><g class="points"/><g class="text"/></g><g class="trace scatter trace891530" style="stroke-miterlimit: 2; opacity: 1;"><g class="fills"/><g class="errorbars"/><g class="lines"><path class="js-line" d="M0,180.58L195.76,180.58L199.19,177.56L202.63,174.57L206.06,174.57L209.49,168.53L212.93,165.72L223.23,157.22L226.67,154.52L236.97,145.56L240.4,143.38L257.58,128.66L261.01,126.34L264.44,123.79L267.88,119.79L271.31,118.2L274.75,113.76L288.48,102.81L291.92,100.16L295.35,100.15L298.79,93.05L302.22,91.05L305.66,91.04L309.09,86.08L312.53,82.76L315.96,79.47L319.39,77.61L322.83,74.05L326.26,71.58L329.7,68.61L333.13,68.6L336.57,63.3L340,59.95" style="vector-effect: non-scaling-stroke; fill: none; stroke: rgb(69, 49, 125); stroke-opacity: 1; stroke-width: 1px; opacity: 1;"/></g><g class="points"/><g class="text"/></g><g class="trace scatter trace9f2962" style="stroke-miterlimit: 2; opacity: 1;"><g class="fills"/><g class="errorbars"/><g class="lines"><path class="js-line" d="M0,179.54L195.76,179.54L199.19,177.05L202.63,174.35L206.06,174.34L209.49,169.23L212.93,166.14L226.67,155.34L230.1,153.43L233.54,149.68L236.97,147.73L240.4,145.5L243.84,142.17L257.58,131.85L261.01,128.9L267.88,123.47L271.31,121.62L274.75,118.43L278.18,116.3L288.48,107.45L291.92,104.97L295.35,104.96L298.79,99.16L302.22,96.93L305.66,96.92L309.09,92.5L312.53,89.76L315.96,85.64L319.39,83.73L329.7,75.92L333.13,75.91L336.57,70.66L340,67.64" style="vector-effect: non-scaling-stroke; fill: none; stroke: rgb(68, 55, 128); stroke-opacity: 1; stroke-width: 1px; opacity: 1;"/></g><g class="points"/><g class="text"/></g><g class="trace scatter trace8ec7b3" style="stroke-miterlimit: 2; opacity: 1;"><g class="fills"/><g class="errorbars"/><g class="lines"><path class="js-line" d="M0,177.33L199.19,176.66L202.63,173.41L206.06,173.4L209.49,169.55L219.8,162.67L223.23,160.81L240.4,150.29L243.84,147.31L254.14,141.72L257.58,139.2L261.01,136.16L264.44,135.04L267.88,133.3L271.31,130.21L278.18,125.85L281.62,124.1L288.48,120L291.92,118.09L295.35,118.07L298.79,113.24L302.22,110.71L305.66,110.7L309.09,106.91L312.53,104.25L326.26,96.38L329.7,93.42L333.13,93.41L336.57,89.94L340,87.37" style="vector-effect: non-scaling-stroke; fill: none; stroke: rgb(66, 60, 130); stroke-opacity: 1; stroke-width: 1px; opacity: 1;"/></g><g class="points"/><g class="text"/></g><g class="trace scatter trace09dbc6" style="stroke-miterlimit: 2; opacity: 1;"><g class="fills"/><g class="errorbars"/><g class="lines"><path class="js-line" d="M0,179.8L195.76,179.8L199.19,177.35L202.63,174.21L206.06,174.21L209.49,168.7L212.93,165.81L230.1,152.3L233.54,148.96L240.4,144.65L243.84,141.1L247.27,137.67L250.71,135.69L267.88,121.06L271.31,119.48L278.18,112.73L281.62,109.76L285.05,107.82L288.48,104.82L291.92,101.87L295.35,101.86L298.79,95.55L302.22,92.51L305.66,92.51L309.09,88.52L322.83,76.72L326.26,74.38L329.7,71.43L333.13,71.42L336.57,66.34L340,62.79" style="vector-effect: non-scaling-stroke; fill: none; stroke: rgb(64, 65, 133); stroke-opacity: 1; stroke-width: 1px; opacity: 1;"/></g><g class="points"/><g class="text"/></g><g class="trace scatter traceeb1ff0" style="stroke-miterlimit: 2; opacity: 1;"><g class="fills"/><g class="errorbars"/><g class="lines"><path class="js-line" d="M0,185.88L195.76,185.88L199.19,183.13L202.63,176.94L206.06,176.94L209.49,170.45L212.93,166.54L216.36,161.09L219.8,159.67L223.23,156.62L226.67,154.66L230.1,146.98L233.54,145.77L236.97,140.24L240.4,137.21L243.84,134.6L247.27,130.06L250.71,125.43L254.14,124.33L257.58,119.31L261.01,117.9L264.44,111.26L267.88,108.69L271.31,106.91L274.75,99.91L278.18,98.58L281.62,95.18L288.48,86.1L291.92,84.66L295.35,84.66L298.79,74.69L302.22,72.79L305.66,72.79L309.09,63.76L312.53,62.35L315.96,57.82L319.39,56.68L322.83,49.62L326.26,48.03L329.7,43.91L333.13,43.91L336.57,34.64L340,34.05" style="vector-effect: non-scaling-stroke; fill: none; stroke: rgb(63, 71, 136); stroke-opacity: 1; stroke-width: 1px; opacity: 1;"/></g><g class="points"/><g class="text"/></g><g class="trace scatter trace23c142" style="stroke-miterlimit: 2; opacity: 1;"><g class="fills"/><g class="errorbars"/><g class="lines"><path class="js-line" d="M0,186.07L195.76,186.07L199.19,183.74L202.63,175.89L206.06,175.88L209.49,170.33L212.93,166.99L216.36,161.37L219.8,159.91L223.23,154.54L226.67,153.27L230.1,146.51L233.54,145.24L240.4,135.72L243.84,134.33L250.71,124.55L254.14,123.49L257.58,118.03L261.01,117.02L264.44,110.33L267.88,107.09L271.31,105.96L274.75,98.39L278.18,94.63L281.62,92.73L288.48,85.11L291.92,83.23L295.35,83.22L298.79,72.13L302.22,69.4L305.66,69.4L309.09,62.09L312.53,59.39L315.96,56.3L319.39,54.5L322.83,47.17L326.26,44.81L329.7,39.92L333.13,39.92L336.57,31.93L340,30.71" style="vector-effect: non-scaling-stroke; fill: none; stroke: rgb(61, 76, 137); stroke-opacity: 1; stroke-width: 1px; opacity: 1;"/></g><g class="points"/><g class="text"/></g><g class="trace scatter trace01e468" style="stroke-miterlimit: 2; opacity: 1;"><g class="fills"/><g class="errorbars"/><g class="lines"><path class="js-line" d="M0,187.5L195.76,187.5L199.19,182.88L202.63,176.27L206.06,176.27L209.49,169.92L212.93,166.95L216.36,162.83L219.8,161.05L223.23,154.84L226.67,153.73L230.1,146.09L233.54,145.98L240.4,137.21L243.84,135.13L247.27,129.47L250.71,126.7L254.14,124.82L257.58,119.72L261.01,118.41L264.44,112.4L267.88,108.41L271.31,107.13L278.18,96.82L281.62,93.21L285.05,89.23L288.48,87.17L291.92,85.81L295.35,85.81L298.79,75.73L302.22,72.19L305.66,72.19L309.09,63.48L312.53,63.23L315.96,61.17L319.39,58.79L322.83,51.39L329.7,44.89L333.13,44.88L336.57,35.44L340,34.63" style="vector-effect: non-scaling-stroke; fill: none; stroke: rgb(59, 81, 138); stroke-opacity: 1; stroke-width: 1px; opacity: 1;"/></g><g class="points"/><g class="text"/></g><g class="trace scatter trace70bbd0" style="stroke-miterlimit: 2; opacity: 1;"><g class="fills"/><g class="errorbars"/><g class="lines"><path class="js-line" d="M0,179.49L195.76,179.49L199.19,177.84L202.63,179.39L206.06,179.39L209.49,175.68L212.93,170.67L216.36,163.66L219.8,162.92L223.23,157.75L226.67,155.05L230.1,150.62L233.54,148.19L240.4,135.43L243.84,136.45L247.27,133.49L250.71,129.29L254.14,126.89L257.58,118.22L261.01,116.76L264.44,108.27L267.88,108.63L271.31,107.57L274.75,100.97L278.18,97.18L281.62,96.62L285.05,91.09L288.48,84.85L291.92,83.28L295.35,83.28L298.79,75.56L302.22,71.52L305.66,71.51L309.09,63.63L312.53,59.67L319.39,57.94L322.83,50.03L326.26,48.47L329.7,42.06L333.13,42.06L336.57,32.15L340,30.8" style="vector-effect: non-scaling-stroke; fill: none; stroke: rgb(45, 114, 142); stroke-opacity: 1; stroke-width: 1px; opacity: 1;"/></g><g class="points"/><g class="text"/></g><g class="trace scatter tracea93b9d" style="stroke-miterlimit: 2; opacity: 1;"><g class="fills"/><g class="errorbars"/><g class="lines"><path class="js-line" d="M0,186.62L195.76,186.62L199.19,182.27L202.63,184.21L206.06,184.21L212.93,175.83L216.36,167.49L219.8,165L223.23,161.04L226.67,159.31L230.1,150.93L233.54,150.69L236.97,146.01L240.4,135.88L243.84,135.04L247.27,132.91L250.71,120.64L254.14,119.63L257.58,115.14L261.01,114.24L264.44,109.2L267.88,105.37L271.31,105.64L278.18,87.93L281.62,87.7L285.05,82.59L288.48,79.76L291.92,77.64L295.35,77.63L302.22,60.22L305.66,60.22L309.09,57.38L312.53,48.78L315.96,47.79L319.39,45.37L326.26,36.9L329.7,28.79L333.13,28.79L336.57,16.64L340,15.82" style="vector-effect: non-scaling-stroke; fill: none; stroke: rgb(43, 118, 142); stroke-opacity: 1; stroke-width: 1px; opacity: 1;"/></g><g class="points"/><g class="text"/></g><g class="trace scatter trace352e49" style="stroke-miterlimit: 2; opacity: 1;"><g class="fills"/><g class="errorbars"/><g class="lines"><path class="js-line" d="M0,186.86L195.76,186.86L199.19,185.43L202.63,191.96L206.06,191.96L209.49,190.2L212.93,190.55L216.36,188.33L219.8,187.18L223.23,184.63L226.67,183.47L230.1,175L233.54,173.8L236.97,167.97L240.4,159.55L243.84,157.65L247.27,152.55L250.71,145.11L254.14,143.49L257.58,137.66L261.01,136.12L267.88,119.91L271.31,118.92L274.75,111.68L278.18,99.96L285.05,91.75L288.48,87.13L291.92,84.92L295.35,84.91L298.79,77.64L302.22,66.38L305.66,66.38L309.09,58.82L312.53,51.84L315.96,47.78L319.39,45.85L322.83,39.66L326.26,34.36L329.7,26.89L333.13,26.89L336.57,15.5L340,13.6" style="vector-effect: non-scaling-stroke; fill: none; stroke: rgb(41, 122, 142); stroke-opacity: 1; stroke-width: 1px; opacity: 1;"/></g><g class="points"/><g class="text"/></g><g class="trace scatter trace1171c4" style="stroke-miterlimit: 2; opacity: 1;"><g class="fills"/><g class="errorbars"/><g class="lines"><path class="js-line" d="M0,179.63L195.76,179.63L199.19,176.79L202.63,174.25L206.06,174.24L209.49,169.65L212.93,166.56L219.8,160.59L223.23,159.26L226.67,155.72L230.1,154.19L233.54,150.36L236.97,149.33L243.84,143.85L247.27,141.18L264.44,128.42L267.88,127.07L271.31,123.03L274.75,121.24L278.18,119.44L281.62,116.09L291.92,107.36L295.35,107.35L302.22,99.11L305.66,99.1L315.96,89.78L319.39,87.68L326.26,82.76L329.7,79.8L333.13,79.79L336.57,74.88L340,71.8" style="vector-effect: non-scaling-stroke; fill: none; stroke: rgb(40, 126, 142); stroke-opacity: 1; stroke-width: 1px; opacity: 1;"/></g><g class="points"/><g class="text"/></g><g class="trace scatter trace046652" style="stroke-miterlimit: 2; opacity: 1;"><g class="fills"/><g class="errorbars"/><g class="lines"><path class="js-line" d="M0,180.99L195.76,180.99L199.19,180.16L202.63,176.72L206.06,176.72L209.49,169.82L212.93,167.39L219.8,158.99L223.23,158.12L226.67,154.79L230.1,149.58L233.54,146.41L236.97,139.4L243.84,134.34L247.27,128.28L250.71,125.9L254.14,126.44L257.58,117.32L261.01,117.21L267.88,107.89L271.31,106.67L274.75,95.86L278.18,99.65L281.62,95.9L285.05,89.68L288.48,86.06L291.92,85.35L295.35,85.34L298.79,75.93L302.22,72.6L305.66,72.59L309.09,64.98L312.53,62.22L319.39,58.86L322.83,49.49L326.26,48.13L329.7,45.34L333.13,45.34L336.57,38.66L340,36.01" style="vector-effect: non-scaling-stroke; fill: none; stroke: rgb(38, 130, 142); stroke-opacity: 1; stroke-width: 1px; opacity: 1;"/></g><g class="points"/><g class="text"/></g><g class="trace scatter trace901bd9" style="stroke-miterlimit: 2; opacity: 1;"><g class="fills"/><g class="errorbars"/><g class="lines"><path class="js-line" d="M0,179.8L195.76,179.8L199.19,177.07L202.63,174.57L206.06,174.57L209.49,169.08L212.93,165.98L226.67,155.18L230.1,152.56L233.54,149.38L236.97,147.26L261.01,127.69L264.44,125.7L267.88,121.72L271.31,120.15L274.75,116.22L278.18,114.39L288.48,106.01L291.92,103L295.35,103L298.79,97.19L302.22,95.03L305.66,95.02L309.09,90.47L312.53,87.31L319.39,81.28L322.83,79.08L329.7,73.83L333.13,73.82L336.57,68.34L340,64.73" style="vector-effect: non-scaling-stroke; fill: none; stroke: rgb(37, 135, 141); stroke-opacity: 1; stroke-width: 1px; opacity: 1;"/></g><g class="points"/><g class="text"/></g><g class="trace scatter trace622a71" style="stroke-miterlimit: 2; opacity: 1;"><g class="fills"/><g class="errorbars"/><g class="lines"><path class="js-line" d="M0,185.64L199.19,186.29L202.63,184.93L206.06,184.93L209.49,181.65L212.93,177.73L216.36,172.1L219.8,169.97L223.23,163.69L226.67,162.35L230.1,155.89L233.54,154L236.97,148.89L240.4,142L243.84,140.28L250.71,130.5L254.14,129.17L257.58,123.81L261.01,122.69L264.44,113.49L267.88,111L271.31,109.9L274.75,104.21L278.18,97.41L281.62,95.11L288.48,87.31L291.92,86.03L295.35,86.02L298.79,77.8L302.22,69.83L305.66,69.82L309.09,66.02L312.53,60.36L315.96,57.6L319.39,56.31L322.83,50.32L326.26,47.35L329.7,41.69L333.13,41.68L336.57,33.08L340,31.31" style="vector-effect: non-scaling-stroke; fill: none; stroke: rgb(36, 140, 140); stroke-opacity: 1; stroke-width: 1px; opacity: 1;"/></g><g class="points"/><g class="text"/></g><g class="trace scatter trace9bc9ad" style="stroke-miterlimit: 2; opacity: 1;"><g class="fills"/><g class="errorbars"/><g class="lines"><path class="js-line" d="M0,179.99L195.76,179.99L199.19,177.49L202.63,174.47L206.06,174.47L209.49,168.67L212.93,165.9L226.67,154.69L230.1,152.13L236.97,146.6L240.4,143.66L267.88,121.39L271.31,119.1L274.75,115.07L278.18,112.41L291.92,101.55L295.35,101.54L298.79,95.78L302.22,91.71L305.66,91.71L309.09,87.63L326.26,73.9L329.7,71.43L333.13,71.42L336.57,65.73L340,62.29" style="vector-effect: non-scaling-stroke; fill: none; stroke: rgb(34, 144, 140); stroke-opacity: 1; stroke-width: 1px; opacity: 1;"/></g><g class="points"/><g class="text"/></g><g class="trace scatter tracecd560e" style="stroke-miterlimit: 2; opacity: 1;"><g class="fills"/><g class="errorbars"/><g class="lines"><path class="js-line" d="M0,179.03L195.76,179.03L199.19,176.83L202.63,174.26L206.06,174.25L209.49,168.97L212.93,166L223.23,157.85L226.67,155.07L233.54,149.05L236.97,147.3L267.88,121.66L271.31,120.11L274.75,116.13L278.18,113.86L291.92,102.66L295.35,102.65L298.79,96.53L302.22,94.31L305.66,94.3L309.09,88.18L312.53,86.27L315.96,82.4L319.39,80.86L322.83,78.03L326.26,76L329.7,71.42L333.13,71.41L336.57,67.34L340,64.11" style="vector-effect: non-scaling-stroke; fill: none; stroke: rgb(33, 148, 139); stroke-opacity: 1; stroke-width: 1px; opacity: 1;"/></g><g class="points"/><g class="text"/></g><g class="trace scatter trace32e31d" style="stroke-miterlimit: 2; opacity: 1;"><g class="fills"/><g class="errorbars"/><g class="lines"><path class="js-line" d="M0,178.4L195.76,178.4L199.19,176.17L202.63,174.08L206.06,174.06L209.49,169.74L212.93,167.1L223.23,160.69L226.67,158.43L233.54,154.7L236.97,152.39L247.27,145.09L250.71,143.26L257.58,138.73L261.01,135.94L264.44,134.93L267.88,132.83L271.31,129.71L274.75,127.67L291.92,117.45L295.35,117.43L298.79,112.58L302.22,110.3L305.66,110.29L309.09,106.42L312.53,103.79L315.96,102.13L322.83,97.45L326.26,95.96L329.7,92.52L333.13,92.51L340,86.62" style="vector-effect: non-scaling-stroke; fill: none; stroke: rgb(32, 153, 138); stroke-opacity: 1; stroke-width: 1px; opacity: 1;"/></g><g class="points"/><g class="text"/></g><g class="trace scatter trace1b712b" style="stroke-miterlimit: 2; opacity: 1;"><g class="fills"/><g class="errorbars"/><g class="lines"><path class="js-line" d="M0,180.87L195.76,180.87L199.19,177.56L202.63,174.74L206.06,174.74L209.49,168.61L212.93,166L216.36,162.48L219.8,160.2L223.23,156.85L226.67,154.75L267.88,120.05L271.31,118.59L274.75,114.11L278.18,112.98L281.62,108.84L285.05,107.28L288.48,103.21L291.92,100.31L295.35,100.3L298.79,94.76L302.22,90.92L305.66,90.91L312.53,83.03L315.96,79.89L319.39,78.11L322.83,74.99L326.26,70.91L329.7,69.06L333.13,69.05L336.57,63.81L340,60.71" style="vector-effect: non-scaling-stroke; fill: none; stroke: rgb(31, 158, 137); stroke-opacity: 1; stroke-width: 1px; opacity: 1;"/></g><g class="points"/><g class="text"/></g><g class="trace scatter traced46924" style="stroke-miterlimit: 2; opacity: 1;"><g class="fills"/><g class="errorbars"/><g class="lines"><path class="js-line" d="M0,185.69L195.76,185.69L199.19,182.66L202.63,176.19L206.06,176.19L209.49,169.54L212.93,166.24L216.36,161.39L219.8,160L223.23,154.76L226.67,153.47L230.1,146.81L233.54,145.64L236.97,140.51L240.4,137.04L243.84,135.04L247.27,130.51L250.71,126.09L254.14,124.91L257.58,119.49L261.01,118.56L264.44,111.88L267.88,109.62L271.31,108.52L274.75,101.11L278.18,96.98L281.62,95.55L288.48,87.57L291.92,86.24L295.35,86.23L298.79,76.08L302.22,73.58L305.66,73.57L309.09,66.51L312.53,63.53L315.96,60.05L319.39,58.4L322.83,52.28L326.26,49.44L329.7,44.97L333.13,44.96L336.57,37.57L340,36.26" style="vector-effect: non-scaling-stroke; fill: none; stroke: rgb(34, 162, 135); stroke-opacity: 1; stroke-width: 1px; opacity: 1;"/></g><g class="points"/><g class="text"/></g><g class="trace scatter tracedbdb11" style="stroke-miterlimit: 2; opacity: 1;"><g class="fills"/><g class="errorbars"/><g class="lines"><path class="js-line" d="M0,189.42L195.76,189.42L199.19,183.36L202.63,177L206.06,177L209.49,168.42L212.93,165.65L216.36,161.07L219.8,160.06L223.23,153.98L226.67,153.64L230.1,145.66L233.54,144.75L240.4,136.54L243.84,134.86L250.71,123.53L254.14,123.27L257.58,120.1L261.01,118.36L267.88,106.28L271.31,106.38L274.75,102.11L278.18,95.89L281.62,95.03L285.05,91.05L288.48,87.15L291.92,85.86L295.35,85.85L298.79,75.91L302.22,73.15L305.66,73.15L309.09,64.87L312.53,62.6L319.39,57.16L322.83,48.76L326.26,48.66L329.7,45.1L333.13,45.1L336.57,34.78L340,35.03" style="vector-effect: non-scaling-stroke; fill: none; stroke: rgb(38, 166, 132); stroke-opacity: 1; stroke-width: 1px; opacity: 1;"/></g><g class="points"/><g class="text"/></g><g class="trace scatter tracebe846e" style="stroke-miterlimit: 2; opacity: 1;"><g class="fills"/><g class="errorbars"/><g class="lines"><path class="js-line" d="M0,186.22L195.76,186.22L199.19,183.3L202.63,176L206.06,176L209.49,170.44L212.93,166.54L216.36,162.42L219.8,160.35L223.23,155.02L226.67,153.68L230.1,147.1L233.54,146.35L236.97,140.58L240.4,136.92L243.84,135.18L247.27,130.16L250.71,126.08L254.14,125.08L257.58,119.77L261.01,118.74L264.44,112.26L267.88,109.07L271.31,108.26L274.75,101.15L285.05,91.85L288.48,87.64L291.92,85.93L295.35,85.92L298.79,75.24L302.22,73.22L305.66,73.21L309.09,66.72L312.53,62.84L315.96,60.3L319.39,58.29L322.83,51.8L326.26,50.23L329.7,44.94L333.13,44.94L336.57,37.46L340,36.13" style="vector-effect: non-scaling-stroke; fill: none; stroke: rgb(41, 170, 130); stroke-opacity: 1; stroke-width: 1px; opacity: 1;"/></g><g class="points"/><g class="text"/></g><g class="trace scatter trace081f8a" style="stroke-miterlimit: 2; opacity: 1;"><g class="fills"/><g class="errorbars"/><g class="lines"><path class="js-line" d="M0,178.82L195.76,178.82L199.19,179.83L202.63,183.15L206.06,183.15L216.36,190.37L219.8,191.58L223.23,194.44L226.67,195.21L230.1,198.37L233.54,199.12L236.97,201.64L240.4,205.21L243.84,206.39L247.27,208.64L250.71,211.71L254.14,212.44L257.58,214.71L261.01,215.16L264.44,219.02L267.88,220.95L271.31,221.27L274.75,223.45L278.18,226.44L281.62,227.84L288.48,231.25L291.92,231.9L295.35,231.9L298.79,234.06L302.22,236.98L305.66,236.98L312.53,240.98L315.96,242.07L319.39,242.53L322.83,244.44L326.26,245.55L329.7,247.56L333.13,247.56L336.57,250.7L340,251.4" style="vector-effect: non-scaling-stroke; fill: none; stroke: rgb(45, 174, 127); stroke-opacity: 1; stroke-width: 1px; opacity: 1;"/></g><g class="points"/><g class="text"/></g><g class="trace scatter trace68a887" style="stroke-miterlimit: 2; opacity: 1;"><g class="fills"/><g class="errorbars"/><g class="lines"><path class="js-line" d="M0,187.8L195.76,187.8L199.19,186.07L202.63,183.94L206.06,183.94L216.36,168.66L219.8,166.06L223.23,159.69L226.67,158.2L230.1,150.7L233.54,149.26L240.4,137.15L243.84,135.02L247.27,130.43L250.71,124.33L254.14,123.17L257.58,118.01L261.01,116.8L264.44,107.59L267.88,104.28L271.31,103.43L278.18,89.96L281.62,87.72L288.48,79.26L291.92,77.55L295.35,77.54L298.79,68.38L302.22,60.54L305.66,60.53L312.53,49.64L315.96,46.66L319.39,44.98L322.83,38.27L326.26,35.22L329.7,29.17L333.13,29.17L336.57,19L340,17.65" style="vector-effect: non-scaling-stroke; fill: none; stroke: rgb(96, 200, 96); stroke-opacity: 1; stroke-width: 1px; opacity: 1;"/></g><g class="points"/><g class="text"/></g><g class="trace scatter traced3426b" style="stroke-miterlimit: 2; opacity: 1;"><g class="fills"/><g class="errorbars"/><g class="lines"><path class="js-line" d="M0,186.81L195.76,186.81L199.19,184.87L202.63,190.97L206.06,190.97L209.49,192.9L212.93,193.56L219.8,190.53L223.23,189.89L226.67,189.22L230.1,184.83L233.54,183.13L236.97,177.45L240.4,170.49L243.84,167.94L247.27,164.41L250.71,156.32L254.14,154.32L257.58,148.75L261.01,147.35L264.44,137.68L267.88,132.47L271.31,131.9L274.75,125.53L278.18,117.37L281.62,113.3L285.05,107.27L288.48,101.81L291.92,99.61L295.35,99.61L298.79,90.53L302.22,78.12L305.66,78.12L312.53,64.75L315.96,60.59L319.39,58.38L322.83,52.34L326.26,48.06L329.7,39.28L333.13,39.27L336.57,24.91L340,21.65" style="vector-effect: non-scaling-stroke; fill: none; stroke: rgb(105, 204, 91); stroke-opacity: 1; stroke-width: 1px; opacity: 1;"/></g><g class="points"/><g class="text"/></g><g class="trace scatter trace437281" style="stroke-miterlimit: 2; opacity: 1;"><g class="fills"/><g class="errorbars"/><g class="lines"><path class="js-line" d="M0,179.03L195.76,179.03L199.19,176.02L202.63,173.81L206.06,173.8L212.93,166.72L216.36,163.94L219.8,161.24L223.23,159.83L226.67,156.08L230.1,155.33L233.54,151.59L236.97,150.23L247.27,142.25L250.71,140.6L254.14,136.9L257.58,134.68L264.44,129.29L267.88,127.94L274.75,122.6L278.18,121.19L291.92,109.51L295.35,109.5L302.22,102.12L305.66,102.11L315.96,92.26L319.39,90.22L322.83,89.12L326.26,85.98L329.7,83.38L333.13,83.37L336.57,77.49L340,75.6" style="vector-effect: non-scaling-stroke; fill: none; stroke: rgb(115, 207, 85); stroke-opacity: 1; stroke-width: 1px; opacity: 1;"/></g><g class="points"/><g class="text"/></g><g class="trace scatter tracea85479" style="stroke-miterlimit: 2; opacity: 1;"><g class="fills"/><g class="errorbars"/><g class="lines"><path class="js-line" d="M0,181.66L199.19,181.72L202.63,174.33L206.06,174.33L209.49,171.05L212.93,166.62L216.36,160.2L219.8,160.2L223.23,154.2L226.67,151.88L230.1,145.7L233.54,145.66L236.97,142.85L240.4,133.73L243.84,133.38L250.71,124.3L254.14,124.67L257.58,111.67L261.01,111.8L264.44,112.01L267.88,106.92L271.31,107.3L274.75,101.81L278.18,99.34L281.62,95.43L288.48,86.53L291.92,84.87L295.35,84.87L298.79,73.35L302.22,72.05L305.66,72.05L309.09,63.81L312.53,64.17L319.39,58.68L322.83,48.56L326.26,45.5L329.7,43.74L333.13,43.73L336.57,32.8L340,33.57" style="vector-effect: non-scaling-stroke; fill: none; stroke: rgb(126, 210, 78); stroke-opacity: 1; stroke-width: 1px; opacity: 1;"/></g><g class="points"/><g class="text"/></g><g class="trace scatter tracebd956f" style="stroke-miterlimit: 2; opacity: 1;"><g class="fills"/><g class="errorbars"/><g class="lines"><path class="js-line" d="M0,178.57L195.76,178.57L199.19,177.24L202.63,174.48L206.06,174.48L209.49,168.85L212.93,165.57L243.84,141.5L247.27,138.11L250.71,136.21L254.14,133.31L264.44,126.48L267.88,122.41L274.75,117.34L278.18,112.88L281.62,112.24L285.05,109.08L291.92,103.1L295.35,103.09L298.79,97.67L302.22,95.44L305.66,95.44L309.09,89.91L312.53,88.31L315.96,83.43L322.83,79.53L326.26,75.74L329.7,74.03L333.13,74.02L336.57,68.21L340,65.15" style="vector-effect: non-scaling-stroke; fill: none; stroke: rgb(138, 212, 70); stroke-opacity: 1; stroke-width: 1px; opacity: 1;"/></g><g class="points"/><g class="text"/></g><g class="trace scatter trace525a28" style="stroke-miterlimit: 2; opacity: 1;"><g class="fills"/><g class="errorbars"/><g class="lines"><path class="js-line" d="M0,185.15L199.19,185.29L202.63,181.6L206.06,181.6L209.49,176.17L216.36,166.85L219.8,164.99L223.23,159.8L226.67,158.21L230.1,151.82L233.54,150.24L236.97,143.5L240.4,138.53L243.84,136.49L247.27,131.82L250.71,127.47L254.14,126.15L257.58,120.47L261.01,119.38L264.44,112.59L267.88,107.94L271.31,106.85L274.75,101.49L278.18,95.68L281.62,92.18L291.92,83.95L295.35,83.95L298.79,74.54L302.22,68.67L305.66,68.66L309.09,60.9L312.53,58L315.96,54.06L319.39,52.46L322.83,46.54L326.26,43.91L329.7,37.54L333.13,37.54L336.57,27.63L340,26.65" style="vector-effect: non-scaling-stroke; fill: none; stroke: rgb(149, 215, 63); stroke-opacity: 1; stroke-width: 1px; opacity: 1;"/></g><g class="points"/><g class="text"/></g><g class="trace scatter trace39c750" style="stroke-miterlimit: 2; opacity: 1;"><g class="fills"/><g class="errorbars"/><g class="lines"><path class="js-line" d="M0,180.68L195.76,180.68L199.19,174.91L202.63,173.75L206.06,173.75L209.49,168.34L212.93,165.44L216.36,163.46L219.8,159.67L223.23,158.95L226.67,154.14L230.1,150.58L233.54,149.1L236.97,145.01L240.4,144L247.27,137.74L250.71,135.73L254.14,132.71L257.58,128.05L261.01,127.25L264.44,124.41L267.88,121.79L271.31,121.79L274.75,113.32L278.18,113.21L281.62,111.35L285.05,106.82L288.48,105.09L291.92,102.33L295.35,102.32L298.79,95.89L302.22,92.43L305.66,92.43L309.09,86.72L312.53,84.1L319.39,80.38L322.83,75.56L326.26,75.45L329.7,69.79L333.13,69.78L336.57,65.79L340,63.04" style="vector-effect: non-scaling-stroke; fill: none; stroke: rgb(161, 217, 56); stroke-opacity: 1; stroke-width: 1px; opacity: 1;"/></g><g class="points"/><g class="text"/></g><g class="trace scatter trace2b4135" style="stroke-miterlimit: 2; opacity: 1;"><g class="fills"/><g class="errorbars"/><g class="lines"><path class="js-line" d="M0,180.55L195.76,180.55L199.19,177.42L202.63,174.45L206.06,174.44L209.49,169.22L212.93,166.37L223.23,158.61L226.67,155.25L230.1,153.89L233.54,149.99L236.97,146.47L240.4,144.36L243.84,141.76L247.27,140.13L250.71,136.17L254.14,133.78L257.58,131.64L261.01,128.16L274.75,117.52L278.18,116.02L281.62,110.74L285.05,109.59L291.92,103.4L295.35,103.39L298.79,97.62L302.22,94.99L305.66,94.99L309.09,91L312.53,86.4L315.96,83.91L322.83,80.07L326.26,76.69L329.7,73.69L333.13,73.67L340,64.86" style="vector-effect: non-scaling-stroke; fill: none; stroke: rgb(172, 220, 49); stroke-opacity: 1; stroke-width: 1px; opacity: 1;"/></g><g class="points"/><g class="text"/></g><g class="trace scatter tracec02d9b" style="stroke-miterlimit: 2; opacity: 1;"><g class="fills"/><g class="errorbars"/><g class="lines"><path class="js-line" d="M0,178.67L195.76,178.67L199.19,176.69L202.63,173.45L206.06,173.44L209.49,169.61L212.93,166.96L254.14,141.43L257.58,138.56L261.01,136.02L264.44,135.18L278.18,125.65L281.62,123.88L288.48,119.45L291.92,117.6L295.35,117.58L298.79,112.73L302.22,110.77L305.66,110.75L309.09,106.58L312.53,103.96L319.39,100L322.83,97.75L326.26,96.21L329.7,92.98L333.13,92.96L336.57,89.69L340,86.91" style="vector-effect: non-scaling-stroke; fill: none; stroke: rgb(184, 222, 43); stroke-opacity: 1; stroke-width: 1px; opacity: 1;"/></g><g class="points"/><g class="text"/></g><g class="trace scatter trace935ae5" style="stroke-miterlimit: 2; opacity: 1;"><g class="fills"/><g class="errorbars"/><g class="lines"><path class="js-line" d="M0,180.83L195.76,180.83L199.19,177.07L202.63,174.64L206.06,174.64L209.49,168.03L212.93,166.07L216.36,162.39L219.8,160.42L223.23,158.32L226.67,154.94L236.97,146.52L240.4,144.87L247.27,136.6L250.71,133.56L254.14,132.74L257.58,128.95L261.01,126.59L264.44,123.22L271.31,118.67L274.75,114.43L278.18,113.87L281.62,108.82L291.92,101.15L295.35,101.14L298.79,94.58L302.22,93.12L305.66,93.11L309.09,87.86L312.53,82.85L315.96,82.53L322.83,75.83L326.26,74.1L329.7,69.95L333.13,69.94L340,61.19" style="vector-effect: non-scaling-stroke; fill: none; stroke: rgb(195, 224, 42); stroke-opacity: 1; stroke-width: 1px; opacity: 1;"/></g><g class="points"/><g class="text"/></g><g class="trace scatter tracecf0846" style="stroke-miterlimit: 2; opacity: 1;"><g class="fills"/><g class="errorbars"/><g class="lines"><path class="js-line" d="M0,186.59L195.76,186.59L199.19,184.99L202.63,176.38L206.06,176.38L209.49,170.84L212.93,166.94L216.36,161.96L219.8,159.61L223.23,154.19L226.67,153.27L230.1,147.73L233.54,146.15L236.97,140.38L240.4,136.44L243.84,134.85L247.27,129.61L254.14,125.26L257.58,119.1L261.01,118.28L264.44,110.75L271.31,108.58L274.75,100.03L278.18,98.26L281.62,94.77L288.48,87.34L291.92,85.33L295.35,85.33L298.79,75.93L302.22,71.24L305.66,71.24L309.09,65L312.53,61.88L315.96,59.12L319.39,57.71L322.83,50.12L326.26,48.82L329.7,43.95L333.13,43.94L336.57,36.17L340,34.61" style="vector-effect: non-scaling-stroke; fill: none; stroke: rgb(207, 225, 41); stroke-opacity: 1; stroke-width: 1px; opacity: 1;"/></g><g class="points"/><g class="text"/></g><g class="trace scatter tracef5b3a4" style="stroke-miterlimit: 2; opacity: 1;"><g class="fills"/><g class="errorbars"/><g class="lines"><path class="js-line" d="M0,183.31L195.76,183.31L199.19,184.3L202.63,176.07L206.06,176.07L209.49,171.53L212.93,165.69L216.36,165L219.8,160.37L223.23,154.13L226.67,151.84L233.54,147.12L236.97,140.42L240.4,137.68L243.84,133.55L247.27,128.47L250.71,127.56L254.14,123.73L257.58,117.01L261.01,116.78L264.44,108.81L267.88,107.61L271.31,107.59L274.75,97.67L278.18,95.14L285.05,86.83L288.48,84.16L291.92,82.93L295.35,82.93L298.79,73.94L302.22,70.47L305.66,70.46L309.09,63L315.96,55.13L319.39,53.91L322.83,49.23L326.26,46.54L329.7,39.48L333.13,39.47L336.57,32.16L340,31.13" style="vector-effect: non-scaling-stroke; fill: none; stroke: rgb(218, 227, 40); stroke-opacity: 1; stroke-width: 1px; opacity: 1;"/></g><g class="points"/><g class="text"/></g><g class="trace scatter tracebc450e" style="stroke-miterlimit: 2; opacity: 1;"><g class="fills"/><g class="errorbars"/><g class="lines"><path class="js-line" d="M0,187.68L195.76,187.68L199.19,184.42L202.63,176.45L206.06,176.45L209.49,170.95L212.93,166.91L216.36,162.25L219.8,160.39L223.23,154.38L226.67,153.88L230.1,147.5L233.54,146.48L236.97,140.41L240.4,137.09L243.84,133.79L247.27,128.89L250.71,125.61L254.14,124.38L257.58,119.88L261.01,118.02L264.44,110.08L267.88,107.65L271.31,107.42L274.75,100.14L278.18,95.37L281.62,93.99L288.48,86.54L291.92,84.46L295.35,84.45L298.79,76.08L302.22,71.3L305.66,71.3L312.53,60.61L315.96,58.64L319.39,57.24L322.83,50.17L326.26,48.36L329.7,41.65L333.13,41.65L336.57,35.77L340,33.69" style="vector-effect: non-scaling-stroke; fill: none; stroke: rgb(230, 228, 39); stroke-opacity: 1; stroke-width: 1px; opacity: 1;"/></g><g class="points"/><g class="text"/></g><g class="trace scatter trace23cf6a" style="stroke-miterlimit: 2; opacity: 1;"><g class="fills"/><g class="errorbars"/><g class="lines"><path class="js-line" d="M0,178.7L195.76,178.7L199.19,179.86L202.63,183.14L206.06,183.14L216.36,190.39L219.8,191.69L223.23,194.9L226.67,195.69L230.1,199.15L233.54,199.92L236.97,202.56L240.4,206.39L243.84,207.67L247.27,210.1L250.71,213.29L254.14,214.03L257.58,216.57L261.01,217.04L264.44,221.12L267.88,223.4L271.31,223.8L274.75,226.32L278.18,229.5L281.62,231.09L288.48,235.34L291.92,236.09L295.35,236.09L298.79,238.56L302.22,241.77L305.66,241.77L312.53,246.42L315.96,247.88L319.39,248.48L322.83,250.57L326.26,251.66L329.7,253.96L333.13,253.96L336.57,257.64L340,258.4" style="vector-effect: non-scaling-stroke; fill: none; stroke: rgb(241, 230, 38); stroke-opacity: 1; stroke-width: 1px; opacity: 1;"/></g><g class="points"/><g class="text"/></g><g class="trace scatter trace7d14a5" style="stroke-miterlimit: 2; opacity: 1;"><g class="fills"/><g class="errorbars"/><g class="lines"><path class="js-line" d="M0,179.61L195.76,179.61L199.19,177.76L202.63,174.04L206.06,174.03L209.49,169.18L212.93,166.57L216.36,162.14L219.8,159.94L226.67,154.95L230.1,150.45L236.97,146.05L240.4,143.9L247.27,138.15L250.71,134.93L254.14,132.57L257.58,127.92L261.01,127.13L264.44,124.17L267.88,120.74L271.31,118.69L274.75,114.08L278.18,112.65L281.62,109.91L285.05,105.97L288.48,104.67L291.92,101.08L295.35,101.07L298.79,93.9L302.22,92.56L305.66,92.55L309.09,87.01L312.53,83.83L322.83,76.09L326.26,72.55L329.7,70.04L333.13,70.03L336.57,64.94L340,61.65" style="vector-effect: non-scaling-stroke; fill: none; stroke: rgb(253, 231, 37); stroke-opacity: 1; stroke-width: 1px; opacity: 1;"/></g><g class="points"/><g class="text"/></g><g class="trace scatter trace0dd8e2" style="stroke-miterlimit: 2; opacity: 1;"><g class="fills"/><g class="errorbars"/><g class="lines"><path class="js-line" d="M0,210.21L195.76,210.21L199.19,205.12L202.63,201.1L206.06,201.11L209.49,197.25L212.93,195.54L216.36,191.33L219.8,189.18L223.23,185.52L226.67,182.99L233.54,175.53L236.97,174.87L240.4,169.19L243.84,167.92L247.27,163.23L250.71,159.84L254.14,157.42L257.58,153.79L261.01,151.15L264.44,145.66L267.88,144.28L271.31,141.89L278.18,133.61L281.62,131.81L285.05,127.18L288.48,124.78L291.92,121.33L295.35,121.34L298.79,113.48L302.22,109.83L305.66,109.83L309.09,104.03L312.53,102.11L315.96,97.99L319.39,95.71L322.83,95.23L326.26,86.93L329.7,82.55L333.13,82.58L336.57,78.6L340,75.57" style="vector-effect: non-scaling-stroke; fill: none; stroke: rgb(169, 169, 169); stroke-opacity: 1; stroke-width: 2px; opacity: 1;"/></g><g class="points"/><g class="text"/></g></g></g><g class="overplot"/><path class="xlines-above crisp" d="M0,0" style="fill: none;"/><path class="ylines-above crisp" d="M0,0" style="fill: none;"/><g class="overlines-above"/><g class="xaxislayer-above"><g class="x3tick"><text text-anchor="middle" x="0" y="1133" transform="translate(80,0)" style="font-family: 'Open Sans', verdana, arial, sans-serif; font-size: 12px; fill: rgb(42, 63, 95); fill-opacity: 1; white-space: pre; opacity: 1;">2.66</text></g><g class="x3tick"><text text-anchor="middle" x="0" y="1133" style="font-family: 'Open Sans', verdana, arial, sans-serif; font-size: 12px; fill: rgb(42, 63, 95); fill-opacity: 1; white-space: pre; opacity: 1;" transform="translate(148,0)">2.68</text></g><g class="x3tick"><text text-anchor="middle" x="0" y="1133" style="font-family: 'Open Sans', verdana, arial, sans-serif; font-size: 12px; fill: rgb(42, 63, 95); fill-opacity: 1; white-space: pre; opacity: 1;" transform="translate(216,0)">2.7</text></g><g class="x3tick"><text text-anchor="middle" x="0" y="1133" style="font-family: 'Open Sans', verdana, arial, sans-serif; font-size: 12px; fill: rgb(42, 63, 95); fill-opacity: 1; white-space: pre; opacity: 1;" transform="translate(284,0)">2.72</text></g><g class="x3tick"><text text-anchor="middle" x="0" y="1133" style="font-family: 'Open Sans', verdana, arial, sans-serif; font-size: 12px; fill: rgb(42, 63, 95); fill-opacity: 1; white-space: pre; opacity: 1;" transform="translate(352,0)">2.74</text></g><g class="x3tick"><text text-anchor="middle" x="0" y="1133" style="font-family: 'Open Sans', verdana, arial, sans-serif; font-size: 12px; fill: rgb(42, 63, 95); fill-opacity: 1; white-space: pre; opacity: 1;" transform="translate(420,0)">2.76</text></g></g><g class="yaxislayer-above"><g class="y3tick"><text text-anchor="end" x="79" y="4.199999999999999" transform="translate(0,1093.8400000000001)" style="font-family: 'Open Sans', verdana, arial, sans-serif; font-size: 12px; fill: rgb(42, 63, 95); fill-opacity: 1; white-space: pre; opacity: 1;">−0.05</text></g><g class="y3tick"><text text-anchor="end" x="79" y="4.199999999999999" style="font-family: 'Open Sans', verdana, arial, sans-serif; font-size: 12px; fill: rgb(42, 63, 95); fill-opacity: 1; white-space: pre; opacity: 1;" transform="translate(0,1023.2600000000001)">0</text></g><g class="y3tick"><text text-anchor="end" x="79" y="4.199999999999999" style="font-family: 'Open Sans', verdana, arial, sans-serif; font-size: 12px; fill: rgb(42, 63, 95); fill-opacity: 1; white-space: pre; opacity: 1;" transform="translate(0,952.6800000000001)">0.05</text></g><g class="y3tick"><text text-anchor="end" x="79" y="4.199999999999999" style="font-family: 'Open Sans', verdana, arial, sans-serif; font-size: 12px; fill: rgb(42, 63, 95); fill-opacity: 1; white-space: pre; opacity: 1;" transform="translate(0,882.1000000000001)">0.1</text></g></g><g class="overaxes-above"/></g></g><g class="polarlayer"/><g class="smithlayer"/><g class="ternarylayer"/><g class="geolayer"/><g class="funnelarealayer"/><g class="pielayer"/><g class="iciclelayer"/><g class="treemaplayer"/><g class="sunburstlayer"/><g class="glimages"/><defs id="topdefs-857a08"><g class="clips"/><clipPath id="legend857a08"><rect width="188" height="29" x="0" y="0"/></clipPath></defs><g class="layer-above"><g class="imagelayer"/><g class="shapelayer"/></g><g class="infolayer"><g class="legend" pointer-events="all" transform="translate(232,50.59999999999998)"><rect class="bg" shape-rendering="crispEdges" style="stroke: rgb(68, 68, 68); stroke-opacity: 1; fill: rgb(255, 255, 255); fill-opacity: 1; stroke-width: 0px;" width="188" height="29" x="0" y="0"/><g class="scrollbox" transform="" clip-path="url(#legend857a08)"><g class="groups"><g class="traces" transform="translate(0,14.5)" style="opacity: 1;"><text class="legendtext" text-anchor="start" x="40" y="4.680000000000001" style="font-family: 'Open Sans', verdana, arial, sans-serif; font-size: 12px; fill: rgb(42, 63, 95); fill-opacity: 1; white-space: pre;">Population Log-likelihood</text><g class="layers" style="opacity: 1;"><g class="legendfill"/><g class="legendlines"><path class="js-line" d="M5,0h30" style="fill: none; stroke: rgb(169, 169, 169); stroke-opacity: 1; stroke-width: 2px;"/></g><g class="legendsymbols"><g class="legendpoints"/></g></g><rect class="legendtoggle" x="0" y="-9.5" width="184.703125" height="19" style="fill: rgb(0, 0, 0); fill-opacity: 0;"/></g></g></g><rect class="scrollbar" rx="20" ry="3" width="0" height="0" style="fill: rgb(128, 139, 164); fill-opacity: 1;" x="0" y="0"/></g><g class="g-gtitle"/><g class="g-xtitle"/><g class="g-x2title"/><g class="g-x3title"/><g class="g-ytitle"/><g class="g-y2title"/><g class="g-y3title"/></g></svg>