<svg class="main-svg" xmlns="http://www.w3.org/2000/svg" xmlns:xlink="http://www.w3.org/1999/xlink" width="500" height="1200" style="" viewBox="0 0 500 1200"><rect x="0" y="0" width="500" height="1200" style="fill: rgb(255, 255, 255); fill-opacity: 1;"/><defs id="defs-8c76d8"><g class="clips"><clipPath id="clip8c76d8xyplot" class="plotclip"><rect width="340" height="272.00000000000006"/></clipPath><clipPath id="clip8c76d8x2y2plot" class="plotclip"><rect width="340" height="272"/></clipPath><clipPath id="clip8c76d8x3y3plot" class="plotclip"><rect width="340" height="272"/></clipPath><clipPath class="axesclip" id="clip8c76d8x"><rect x="80" y="0" width="340" height="1200"/></clipPath><clipPath class="axesclip" id="clip8c76d8y"><rect x="0" y="100" width="500" height="272.00000000000006"/></clipPath><clipPath class="axesclip" id="clip8c76d8xy"><rect x="80" y="100" width="340" height="272.00000000000006"/></clipPath><clipPath class="axesclip" id="clip8c76d8y2"><rect x="0" y="474.00000000000006" width="500" height="272"/></clipPath><clipPath class="axesclip" id="clip8c76d8xy2"><rect x="80" y="474.00000000000006" width="340" height="272"/></clipPath><clipPath class="axesclip" id="clip8c76d8y3"><rect x="0" y="848.0000000000001" width="500" height="272"/></clipPath><clipPath class="axesclip" id="clip8c76d8xy3"><rect x="80" y="848.0000000000001" width="340" height="272"/></clipPath><clipPath class="axesclip" id="clip8c76d8x2"><rect x="80" y="0" width="340" height="1200"/></clipPath><clipPath class="axesclip" id="clip8c76d8x2y"><rect x="80" y="100" width="340" height="272.00000000000006"/></clipPath><clipPath class="axesclip" id="clip8c76d8x2y2"><rect x="80" y="474.00000000000006" width="340" height="272"/></clipPath><clipPath class="axesclip" id="clip8c76d8x2y3"><rect x="80" y="848.0000000000001" width="340" height="272"/></clipPath><clipPath class="axesclip" id="clip8c76d8x3"><rect x="80" y="0" width="340" height="1200"/></clipPath><clipPath class="axesclip" id="clip8c76d8x3y"><rect x="80" y="100" width="340" height="272.00000000000006"/></clipPath><clipPath class="axesclip" id="clip8c76d8x3y2"><rect x="80" y="474.00000000000006" width="340" height="272"/></clipPath><clipPath class="axesclip" id="clip8c76d8x3y3"><rect x="80" y="848.0000000000001" width="340" height="272"/></clipPath></g><g class="gradients"/><g class="patterns"/></defs><g class="bglayer"/><g class="layer-below"><g class="imagelayer"/><g class="shapelayer"/></g><g class="cartesianlayer"><g class="subplot xy"><g class="layer-subplot"><g class="shapelayer"/><g class="imagelayer"/></g><g class="minor-gridlayer"><g class="x"/><g class="y"/></g><g class="gridlayer"><g class="x"><path class="xgrid crisp" transform="translate(220.15,0)" d="M0,100v272.00000000000006" style="stroke: rgb(235, 240, 248); stroke-opacity: 1; stroke-width: 1px;"/><path class="xgrid crisp" transform="translate(369.4,0)" d="M0,100v272.00000000000006" style="stroke: rgb(235, 240, 248); stroke-opacity: 1; stroke-width: 1px;"/></g><g class="y"><path class="ygrid crisp" transform="translate(0,328.62)" d="M80,0h340" style="stroke: rgb(235, 240, 248); stroke-opacity: 1; stroke-width: 1px;"/><path class="ygrid crisp" transform="translate(0,285.68)" d="M80,0h340" style="stroke: rgb(235, 240, 248); stroke-opacity: 1; stroke-width: 1px;"/><path class="ygrid crisp" transform="translate(0,242.74)" d="M80,0h340" style="stroke: rgb(235, 240, 248); stroke-opacity: 1; stroke-width: 1px;"/><path class="ygrid crisp" transform="translate(0,156.86)" d="M80,0h340" style="stroke: rgb(235, 240, 248); stroke-opacity: 1; stroke-width: 1px;"/><path class="ygrid crisp" transform="translate(0,113.91)" d="M80,0h340" style="stroke: rgb(235, 240, 248); stroke-opacity: 1; stroke-width: 1px;"/></g></g><g class="zerolinelayer"><path class="yzl zl crisp" transform="translate(0,199.8)" d="M80,0h340" style="stroke: rgb(235, 240, 248); stroke-opacity: 1; stroke-width: 2px;"/></g><path class="xlines-below"/><path class="ylines-below"/><g class="overlines-below"/><g class="xaxislayer-below"/><g class="yaxislayer-below"/><g class="overaxes-below"/><g class="plot" transform="translate(80,100)" clip-path="url(#clip8c76d8xyplot)"><g class="scatterlayer mlayer"><g class="trace scatter traceffd786" style="stroke-miterlimit: 2; opacity: 1;"><g class="fills"/><g class="errorbars"/><g class="lines"><path class="js-line" d="M20.75,254.91L35.83,210.8L38.84,202.53L53.92,163.93L56.93,156.76L72.01,123.64L75.02,117.57L87.08,95.06L90.1,89.89L102.16,70.99L105.17,66.72L117.23,51.4L120.25,48.02L132.31,36.27L135.33,33.78L144.37,27.36L147.39,25.57L156.43,21.27L159.45,20.18L168.49,17.98L171.51,17.6L180.55,17.5L183.57,17.81L192.61,19.79L195.63,20.8L204.67,24.85L207.69,26.55L216.73,32.66L219.75,35.05L228.8,43.22L231.81,46.28L243.87,60.25L246.89,64.16L258.95,81.51L261.96,86.27L274.02,106.98L277.04,112.58L289.1,136.63L292.11,143.06L307.19,177.69L310.2,185.12L319.25,208.37" style="vector-effect: non-scaling-stroke; fill: none; stroke: rgb(51, 34, 136); stroke-opacity: 1; stroke-width: 2px; opacity: 1;"/></g><g class="points"/><g class="text"/></g><g class="trace scatter traced481be" style="stroke-miterlimit: 2; opacity: 1;"><g class="fills"/><g class="errorbars"/><g class="lines"/><g class="points"><path class="point" transform="translate(20.75,254.65)" d="M-4.2,0A 5.7,5.7 0 0 1 0,4.2A 5.7,5.7 0 0 1 4.2,0A 5.7,5.7 0 0 1 0,-4.2A 5.7,5.7 0 0 1 -4.2,0Z" style="opacity: 0.5; stroke-width: 0px; fill: rgb(51, 34, 136); fill-opacity: 1;"/><path class="point" transform="translate(53.92,163.82)" d="M-4.2,0A 5.7,5.7 0 0 1 0,4.2A 5.7,5.7 0 0 1 4.2,0A 5.7,5.7 0 0 1 0,-4.2A 5.7,5.7 0 0 1 -4.2,0Z" style="opacity: 0.5; stroke-width: 0px; fill: rgb(51, 34, 136); fill-opacity: 1;"/><path class="point" transform="translate(84.07,100.42)" d="M-4.2,0A 5.7,5.7 0 0 1 0,4.2A 5.7,5.7 0 0 1 4.2,0A 5.7,5.7 0 0 1 0,-4.2A 5.7,5.7 0 0 1 -4.2,0Z" style="opacity: 0.5; stroke-width: 0px; fill: rgb(51, 34, 136); fill-opacity: 1;"/><path class="point" transform="translate(84.42,99.79)" d="M-4.2,0A 5.7,5.7 0 0 1 0,4.2A 5.7,5.7 0 0 1 4.2,0A 5.7,5.7 0 0 1 0,-4.2A 5.7,5.7 0 0 1 -4.2,0Z" style="opacity: 0.5; stroke-width: 0px; fill: rgb(51, 34, 136); fill-opacity: 1;"/><path class="point" transform="translate(87.08,95.07)" d="M-4.2,0A 5.7,5.7 0 0 1 0,4.2A 5.7,5.7 0 0 1 4.2,0A 5.7,5.7 0 0 1 0,-4.2A 5.7,5.7 0 0 1 -4.2,0Z" style="opacity: 0.5; stroke-width: 0px; fill: rgb(51, 34, 136); fill-opacity: 1;"/><path class="point" transform="translate(120.25,48.05)" d="M-4.2,0A 5.7,5.7 0 0 1 0,4.2A 5.7,5.7 0 0 1 4.2,0A 5.7,5.7 0 0 1 0,-4.2A 5.7,5.7 0 0 1 -4.2,0Z" style="opacity: 0.5; stroke-width: 0px; fill: rgb(51, 34, 136); fill-opacity: 1;"/><path class="point" transform="translate(136.89,32.58)" d="M-4.2,0A 5.7,5.7 0 0 1 0,4.2A 5.7,5.7 0 0 1 4.2,0A 5.7,5.7 0 0 1 0,-4.2A 5.7,5.7 0 0 1 -4.2,0Z" style="opacity: 0.5; stroke-width: 0px; fill: rgb(51, 34, 136); fill-opacity: 1;"/><path class="point" transform="translate(153.42,22.56)" d="M-4.2,0A 5.7,5.7 0 0 1 0,4.2A 5.7,5.7 0 0 1 4.2,0A 5.7,5.7 0 0 1 0,-4.2A 5.7,5.7 0 0 1 -4.2,0Z" style="opacity: 0.5; stroke-width: 0px; fill: rgb(51, 34, 136); fill-opacity: 1;"/><path class="point" transform="translate(176.3,17.35)" d="M-4.2,0A 5.7,5.7 0 0 1 0,4.2A 5.7,5.7 0 0 1 4.2,0A 5.7,5.7 0 0 1 0,-4.2A 5.7,5.7 0 0 1 -4.2,0Z" style="opacity: 0.5; stroke-width: 0px; fill: rgb(51, 34, 136); fill-opacity: 1;"/><path class="point" transform="translate(186.58,18.36)" d="M-4.2,0A 5.7,5.7 0 0 1 0,4.2A 5.7,5.7 0 0 1 4.2,0A 5.7,5.7 0 0 1 0,-4.2A 5.7,5.7 0 0 1 -4.2,0Z" style="opacity: 0.5; stroke-width: 0px; fill: rgb(51, 34, 136); fill-opacity: 1;"/><path class="point" transform="translate(215.58,31.87)" d="M-4.2,0A 5.7,5.7 0 0 1 0,4.2A 5.7,5.7 0 0 1 4.2,0A 5.7,5.7 0 0 1 0,-4.2A 5.7,5.7 0 0 1 -4.2,0Z" style="opacity: 0.5; stroke-width: 0px; fill: rgb(51, 34, 136); fill-opacity: 1;"/><path class="point" transform="translate(219.75,35.12)" d="M-4.2,0A 5.7,5.7 0 0 1 0,4.2A 5.7,5.7 0 0 1 4.2,0A 5.7,5.7 0 0 1 0,-4.2A 5.7,5.7 0 0 1 -4.2,0Z" style="opacity: 0.5; stroke-width: 0px; fill: rgb(51, 34, 136); fill-opacity: 1;"/><path class="point" transform="translate(252.92,72.55)" d="M-4.2,0A 5.7,5.7 0 0 1 0,4.2A 5.7,5.7 0 0 1 4.2,0A 5.7,5.7 0 0 1 0,-4.2A 5.7,5.7 0 0 1 -4.2,0Z" style="opacity: 0.5; stroke-width: 0px; fill: rgb(51, 34, 136); fill-opacity: 1;"/><path class="point" transform="translate(269.33,98.61)" d="M-4.2,0A 5.7,5.7 0 0 1 0,4.2A 5.7,5.7 0 0 1 4.2,0A 5.7,5.7 0 0 1 0,-4.2A 5.7,5.7 0 0 1 -4.2,0Z" style="opacity: 0.5; stroke-width: 0px; fill: rgb(51, 34, 136); fill-opacity: 1;"/><path class="point" transform="translate(270,99.78)" d="M-4.2,0A 5.7,5.7 0 0 1 0,4.2A 5.7,5.7 0 0 1 4.2,0A 5.7,5.7 0 0 1 0,-4.2A 5.7,5.7 0 0 1 -4.2,0Z" style="opacity: 0.5; stroke-width: 0px; fill: rgb(51, 34, 136); fill-opacity: 1;"/><path class="point" transform="translate(286.08,130.29)" d="M-4.2,0A 5.7,5.7 0 0 1 0,4.2A 5.7,5.7 0 0 1 4.2,0A 5.7,5.7 0 0 1 0,-4.2A 5.7,5.7 0 0 1 -4.2,0Z" style="opacity: 0.5; stroke-width: 0px; fill: rgb(51, 34, 136); fill-opacity: 1;"/><path class="point" transform="translate(319.25,207.97)" d="M-4.2,0A 5.7,5.7 0 0 1 0,4.2A 5.7,5.7 0 0 1 4.2,0A 5.7,5.7 0 0 1 0,-4.2A 5.7,5.7 0 0 1 -4.2,0Z" style="opacity: 0.5; stroke-width: 0px; fill: rgb(51, 34, 136); fill-opacity: 1;"/></g><g class="text"/></g></g></g><g class="overplot"/><path class="xlines-above crisp" d="M0,0" style="fill: none;"/><path class="ylines-above crisp" d="M0,0" style="fill: none;"/><g class="overlines-above"/><g class="xaxislayer-above"/><g class="yaxislayer-above"><g class="ytick"><text text-anchor="end" x="79" y="4.199999999999999" transform="translate(0,371.56)" style="font-family: 'Open Sans', verdana, arial, sans-serif; font-size: 12px; fill: rgb(42, 63, 95); fill-opacity: 1; white-space: pre; opacity: 1;">−4</text></g><g class="ytick"><text text-anchor="end" x="79" y="4.199999999999999" style="font-family: 'Open Sans', verdana, arial, sans-serif; font-size: 12px; fill: rgb(42, 63, 95); fill-opacity: 1; white-space: pre; opacity: 1;" transform="translate(0,328.62)">−3</text></g><g class="ytick"><text text-anchor="end" x="79" y="4.199999999999999" style="font-family: 'Open Sans', verdana, arial, sans-serif; font-size: 12px; fill: rgb(42, 63, 95); fill-opacity: 1; white-space: pre; opacity: 1;" transform="translate(0,285.68)">−2</text></g><g class="ytick"><text text-anchor="end" x="79" y="4.199999999999999" style="font-family: 'Open Sans', verdana, arial, sans-serif; font-size: 12px; fill: rgb(42, 63, 95); fill-opacity: 1; white-space: pre; opacity: 1;" transform="translate(0,242.74)">−1</text></g><g class="ytick"><text text-anchor="end" x="79" y="4.199999999999999" style="font-family: 'Open Sans', verdana, arial, sans-serif; font-size: 12px; fill: rgb(42, 63, 95); fill-opacity: 1; white-space: pre; opacity: 1;" transform="translate(0,199.8)">0</text></g><g class="ytick"><text text-anchor="end" x="79" y="4.199999999999999" style="font-family: 'Open Sans', verdana, arial, sans-serif; font-size: 12px; fill: rgb(42, 63, 95); fill-opacity: 1; white-space: pre; opacity: 1;" transform="translate(0,156.86)">1</text></g><g class="ytick"><text text-anchor="end" x="79" y="4.199999999999999" style="font-family: 'Open Sans', verdana, arial, sans-serif; font-size: 12px; fill: rgb(42, 63, 95); fill-opacity: 1; white-space: pre; opacity: 1;" transform="translate(0,113.91)">2</text></g></g><g class="overaxes-above"/></g><g class="subplot x2y2"><g class="layer-subplot"><g class="shapelayer"/><g class="imagelayer"/></g><g class="minor-gridlayer"><g class="x2"/><g class="y2"/></g><g class="gridlayer"><g class="x2"><path class="x2grid crisp" transform="translate(220.15,0)" d="M0,474.00000000000006v272" style="stroke: rgb(235, 240, 248); stroke-opacity: 1; stroke-width: 1px;"/><path class="x2grid crisp" transform="translate(369.4,0)" d="M0,474.00000000000006v272" style="stroke: rgb(235, 240, 248); stroke-opacity: 1; stroke-width: 1px;"/></g><g class="y2"><path class="y2grid crisp" transform="translate(0,722.5200000000001)" d="M80,0h340" style="stroke: rgb(235, 240, 248); stroke-opacity: 1; stroke-width: 1px;"/><path class="y2grid crisp" transform="translate(0,670.32)" d="M80,0h340" style="stroke: rgb(235, 240, 248); stroke-opacity: 1; stroke-width: 1px;"/><path class="y2grid crisp" transform="translate(0,618.1200000000001)" d="M80,0h340" style="stroke: rgb(235, 240, 248); stroke-opacity: 1; stroke-width: 1px;"/><path class="y2grid crisp" transform="translate(0,565.9200000000001)" d="M80,0h340" style="stroke: rgb(235, 240, 248); stroke-opacity: 1; stroke-width: 1px;"/><path class="y2grid crisp" transform="translate(0,513.72)" d="M80,0h340" style="stroke: rgb(235, 240, 248); stroke-opacity: 1; stroke-width: 1px;"/></g></g><g class="zerolinelayer"/><path class="xlines-below"/><path class="ylines-below"/><g class="overlines-below"/><g class="xaxislayer-below"/><g class="yaxislayer-below"/><g class="overaxes-below"/><g class="plot" transform="translate(80,474.00000000000006)" clip-path="url(#clip8c76d8x2y2plot)"><g class="scatterlayer mlayer"><g class="trace scatter trace6cea6c" style="stroke-miterlimit: 2; opacity: 1;"><g class="fills"/><g class="errorbars"/><g class="lines"><path class="js-line" d="M23.77,258.4L316.23,13.6" style="vector-effect: non-scaling-stroke; fill: none; stroke: rgb(51, 34, 136); stroke-opacity: 1; stroke-width: 2px; opacity: 1;"/></g><g class="points"/><g class="text"/></g></g></g><g class="overplot"/><path class="xlines-above crisp" d="M0,0" style="fill: none;"/><path class="ylines-above crisp" d="M0,0" style="fill: none;"/><g class="overlines-above"/><g class="xaxislayer-above"/><g class="yaxislayer-above"><g class="y2tick"><text text-anchor="end" x="79" y="4.199999999999999" transform="translate(0,722.5200000000001)" style="font-family: 'Open Sans', verdana, arial, sans-serif; font-size: 12px; fill: rgb(42, 63, 95); fill-opacity: 1; white-space: pre; opacity: 1;">−4200</text></g><g class="y2tick"><text text-anchor="end" x="79" y="4.199999999999999" style="font-family: 'Open Sans', verdana, arial, sans-serif; font-size: 12px; fill: rgb(42, 63, 95); fill-opacity: 1; white-space: pre; opacity: 1;" transform="translate(0,670.32)">−4100</text></g><g class="y2tick"><text text-anchor="end" x="79" y="4.199999999999999" style="font-family: 'Open Sans', verdana, arial, sans-serif; font-size: 12px; fill: rgb(42, 63, 95); fill-opacity: 1; white-space: pre; opacity: 1;" transform="translate(0,618.1200000000001)">−4000</text></g><g class="y2tick"><text text-anchor="end" x="79" y="4.199999999999999" style="font-family: 'Open Sans', verdana, arial, sans-serif; font-size: 12px; fill: rgb(42, 63, 95); fill-opacity: 1; white-space: pre; opacity: 1;" transform="translate(0,565.9200000000001)">−3900</text></g><g class="y2tick"><text text-anchor="end" x="79" y="4.199999999999999" style="font-family: 'Open Sans', verdana, arial, sans-serif; font-size: 12px; fill: rgb(42, 63, 95); fill-opacity: 1; white-space: pre; opacity: 1;" transform="translate(0,513.72)">−3800</text></g></g><g class="overaxes-above"/></g><g class="subplot x3y3"><g class="layer-subplot"><g class="shapelayer"/><g class="imagelayer"/></g><g class="minor-gridlayer"><g class="x3"/><g class="y3"/></g><g class="gridlayer"><g class="x3"><path class="x3grid crisp" transform="translate(220.15,0)" d="M0,848.0000000000001v272" style="stroke: rgb(235, 240, 248); stroke-opacity: 1; stroke-width: 1px;"/><path class="x3grid crisp" transform="translate(369.4,0)" d="M0,848.0000000000001v272" style="stroke: rgb(235, 240, 248); stroke-opacity: 1; stroke-width: 1px;"/></g><g class="y3"><path class="y3grid crisp" transform="translate(0,1097.5900000000001)" d="M80,0h340" style="stroke: rgb(235, 240, 248); stroke-opacity: 1; stroke-width: 1px;"/><path class="y3grid crisp" transform="translate(0,1036.39)" d="M80,0h340" style="stroke: rgb(235, 240, 248); stroke-opacity: 1; stroke-width: 1px;"/><path class="y3grid crisp" transform="translate(0,913.9900000000001)" d="M80,0h340" style="stroke: rgb(235, 240, 248); stroke-opacity: 1; stroke-width: 1px;"/><path class="y3grid crisp" transform="translate(0,852.7900000000001)" d="M80,0h340" style="stroke: rgb(235, 240, 248); stroke-opacity: 1; stroke-width: 1px;"/></g></g><g class="zerolinelayer"><path class="y3zl zl crisp" transform="translate(0,975.19)" d="M80,0h340" style="stroke: rgb(235, 240, 248); stroke-opacity: 1; stroke-width: 2px;"/></g><path class="xlines-below"/><path class="ylines-below"/><g class="overlines-below"/><g class="xaxislayer-below"/><g class="yaxislayer-below"/><g class="overaxes-below"/><g class="plot" transform="translate(80,848.0000000000001)" clip-path="url(#clip8c76d8x3y3plot)"><g class="scatterlayer mlayer"><g class="trace scatter trace8835e5" style="stroke-miterlimit: 2; opacity: 1;"><g class="fills"/><g class="errorbars"/><g class="lines"><path class="js-line" d="M20.75,212.66L59.95,190.01L62.96,187.78L75.02,179.53L78.04,178.12L87.08,175.31L90.1,173.62L162.46,134.05L165.48,132.68L177.54,126.43L180.55,124.32L189.6,118.16L192.61,116.39L237.84,91.76L240.86,90.1L319.25,47.26" style="vector-effect: non-scaling-stroke; fill: none; stroke: rgb(68, 1, 84); stroke-opacity: 1; stroke-width: 1px; opacity: 1;"/></g><g class="points"/><g class="text"/></g><g class="trace scatter trace92f40f" style="stroke-miterlimit: 2; opacity: 1;"><g class="fills"/><g class="errorbars"/><g class="lines"><path class="js-line" d="M20.75,209.87L65.98,185.27L68.99,183.48L81.05,177.31L84.07,176.2L114.22,160.32L117.23,158.72L319.25,50.94" style="vector-effect: non-scaling-stroke; fill: none; stroke: rgb(69, 7, 90); stroke-opacity: 1; stroke-width: 1px; opacity: 1;"/></g><g class="points"/><g class="text"/></g><g class="trace scatter trace5eed27" style="stroke-miterlimit: 2; opacity: 1;"><g class="fills"/><g class="errorbars"/><g class="lines"><path class="js-line" d="M20.75,223L141.36,148.55L144.37,146.7L267.99,71.41L271.01,69.6L319.25,40.66" style="vector-effect: non-scaling-stroke; fill: none; stroke: rgb(69, 14, 96); stroke-opacity: 1; stroke-width: 1px; opacity: 1;"/></g><g class="points"/><g class="text"/></g><g class="trace scatter trace541c35" style="stroke-miterlimit: 2; opacity: 1;"><g class="fills"/><g class="errorbars"/><g class="lines"><path class="js-line" d="M20.75,248.92L59.95,216.33L62.96,213.35L75.02,202.12L78.04,200L87.08,195.13L90.1,192.76L156.43,140.78L159.45,138.77L174.52,128.6L177.54,126.14L192.61,112.46L195.63,110.12L271.01,54.17L274.02,51.95L313.22,23.43L316.23,21.32L319.25,19.21" style="vector-effect: non-scaling-stroke; fill: none; stroke: rgb(70, 20, 101); stroke-opacity: 1; stroke-width: 1px; opacity: 1;"/></g><g class="points"/><g class="text"/></g><g class="trace scatter traceef38c1" style="stroke-miterlimit: 2; opacity: 1;"><g class="fills"/><g class="errorbars"/><g class="lines"><path class="js-line" d="M20.75,182.89L319.25,76.23" style="vector-effect: non-scaling-stroke; fill: none; stroke: rgb(71, 26, 107); stroke-opacity: 1; stroke-width: 1px; opacity: 1;"/></g><g class="points"/><g class="text"/></g><g class="trace scatter traceeb1d1d" style="stroke-miterlimit: 2; opacity: 1;"><g class="fills"/><g class="errorbars"/><g class="lines"><path class="js-line" d="M20.75,207.06L319.25,54.22" style="vector-effect: non-scaling-stroke; fill: none; stroke: rgb(71, 32, 113); stroke-opacity: 1; stroke-width: 1px; opacity: 1;"/></g><g class="points"/><g class="text"/></g><g class="trace scatter trace153c42" style="stroke-miterlimit: 2; opacity: 1;"><g class="fills"/><g class="errorbars"/><g class="lines"><path class="js-line" d="M20.75,188.77L277.04,87L280.05,85.77L319.25,70.26" style="vector-effect: non-scaling-stroke; fill: none; stroke: rgb(72, 39, 119); stroke-opacity: 1; stroke-width: 1px; opacity: 1;"/></g><g class="points"/><g class="text"/></g><g class="trace scatter trace4ee3a0" style="stroke-miterlimit: 2; opacity: 1;"><g class="fills"/><g class="errorbars"/><g class="lines"><path class="js-line" d="M20.75,220.64L65.98,192.76L68.99,190.73L81.05,183.77L84.07,182.53L114.22,164.69L117.23,162.91L183.57,123.56L186.58,122.02L207.69,109.79L210.7,107.99L301.16,55.49L304.17,53.77L319.25,45.24" style="vector-effect: non-scaling-stroke; fill: none; stroke: rgb(71, 44, 122); stroke-opacity: 1; stroke-width: 1px; opacity: 1;"/></g><g class="points"/><g class="text"/></g><g class="trace scatter traceb88494" style="stroke-miterlimit: 2; opacity: 1;"><g class="fills"/><g class="errorbars"/><g class="lines"><path class="js-line" d="M20.75,190.76L319.25,68.58" style="vector-effect: non-scaling-stroke; fill: none; stroke: rgb(69, 49, 125); stroke-opacity: 1; stroke-width: 1px; opacity: 1;"/></g><g class="points"/><g class="text"/></g><g class="trace scatter tracebcdd4d" style="stroke-miterlimit: 2; opacity: 1;"><g class="fills"/><g class="errorbars"/><g class="lines"><path class="js-line" d="M20.75,186.33L319.25,72.48" style="vector-effect: non-scaling-stroke; fill: none; stroke: rgb(68, 55, 128); stroke-opacity: 1; stroke-width: 1px; opacity: 1;"/></g><g class="points"/><g class="text"/></g><g class="trace scatter trace340342" style="stroke-miterlimit: 2; opacity: 1;"><g class="fills"/><g class="errorbars"/><g class="lines"><path class="js-line" d="M20.75,175.26L319.25,82.79" style="vector-effect: non-scaling-stroke; fill: none; stroke: rgb(66, 60, 130); stroke-opacity: 1; stroke-width: 1px; opacity: 1;"/></g><g class="points"/><g class="text"/></g><g class="trace scatter trace5f8918" style="stroke-miterlimit: 2; opacity: 1;"><g class="fills"/><g class="errorbars"/><g class="lines"><path class="js-line" d="M20.75,189.12L228.8,106.34L231.81,105.14L319.25,70.19" style="vector-effect: non-scaling-stroke; fill: none; stroke: rgb(64, 65, 133); stroke-opacity: 1; stroke-width: 1px; opacity: 1;"/></g><g class="points"/><g class="text"/></g><g class="trace scatter trace31ec62" style="stroke-miterlimit: 2; opacity: 1;"><g class="fills"/><g class="errorbars"/><g class="lines"><path class="js-line" d="M20.75,208.93L225.78,101.6L228.8,100.04L319.25,53.23" style="vector-effect: non-scaling-stroke; fill: none; stroke: rgb(63, 71, 136); stroke-opacity: 1; stroke-width: 1px; opacity: 1;"/></g><g class="points"/><g class="text"/></g><g class="trace scatter trace34fd9c" style="stroke-miterlimit: 2; opacity: 1;"><g class="fills"/><g class="errorbars"/><g class="lines"><path class="js-line" d="M20.75,209.98L319.25,51.42" style="vector-effect: non-scaling-stroke; fill: none; stroke: rgb(61, 76, 137); stroke-opacity: 1; stroke-width: 1px; opacity: 1;"/></g><g class="points"/><g class="text"/></g><g class="trace scatter trace8d0174" style="stroke-miterlimit: 2; opacity: 1;"><g class="fills"/><g class="errorbars"/><g class="lines"><path class="js-line" d="M20.75,207.99L264.98,81.54L267.99,79.99L319.25,53.79" style="vector-effect: non-scaling-stroke; fill: none; stroke: rgb(59, 81, 138); stroke-opacity: 1; stroke-width: 1px; opacity: 1;"/></g><g class="points"/><g class="text"/></g><g class="trace scatter tracec869f7" style="stroke-miterlimit: 2; opacity: 1;"><g class="fills"/><g class="errorbars"/><g class="lines"><path class="js-line" d="M20.75,209.95L68.99,183.91L72.01,182.22L84.07,176.55L87.08,175.05L162.46,134.87L165.48,133.11L180.55,125.23L183.57,123.91L198.64,116.32L201.66,114.69L267.99,79.39L271.01,77.81L319.25,52.22" style="vector-effect: non-scaling-stroke; fill: none; stroke: rgb(45, 114, 142); stroke-opacity: 1; stroke-width: 1px; opacity: 1;"/></g><g class="points"/><g class="text"/></g><g class="trace scatter tracec9dc8d" style="stroke-miterlimit: 2; opacity: 1;"><g class="fills"/><g class="errorbars"/><g class="lines"><path class="js-line" d="M20.75,224.45L123.27,160.15L126.28,158.28L307.19,47.01L310.2,45.2L319.25,39.83" style="vector-effect: non-scaling-stroke; fill: none; stroke: rgb(43, 118, 142); stroke-opacity: 1; stroke-width: 1px; opacity: 1;"/></g><g class="points"/><g class="text"/></g><g class="trace scatter trace277030" style="stroke-miterlimit: 2; opacity: 1;"><g class="fills"/><g class="errorbars"/><g class="lines"><path class="js-line" d="M20.75,255.4L59.95,222.2L62.96,219.13L75.02,207.57L78.04,205.41L87.08,200.48L90.1,198.01L180.55,124.26L183.57,122.29L195.63,113.37L198.64,110.98L252.92,68.32L255.93,65.97L310.2,24.3L313.22,22.06L319.25,17.61" style="vector-effect: non-scaling-stroke; fill: none; stroke: rgb(41, 122, 142); stroke-opacity: 1; stroke-width: 1px; opacity: 1;"/></g><g class="points"/><g class="text"/></g><g class="trace scatter trace68bf84" style="stroke-miterlimit: 2; opacity: 1;"><g class="fills"/><g class="errorbars"/><g class="lines"><path class="js-line" d="M20.75,184.04L216.73,112.51L219.75,111.41L319.25,74.98" style="vector-effect: non-scaling-stroke; fill: none; stroke: rgb(40, 126, 142); stroke-opacity: 1; stroke-width: 1px; opacity: 1;"/></g><g class="points"/><g class="text"/></g><g class="trace scatter tracebb499e" style="stroke-miterlimit: 2; opacity: 1;"><g class="fills"/><g class="errorbars"/><g class="lines"><path class="js-line" d="M20.75,207.37L319.25,53.65" style="vector-effect: non-scaling-stroke; fill: none; stroke: rgb(38, 130, 142); stroke-opacity: 1; stroke-width: 1px; opacity: 1;"/></g><g class="points"/><g class="text"/></g><g class="trace scatter trace193e0a" style="stroke-miterlimit: 2; opacity: 1;"><g class="fills"/><g class="errorbars"/><g class="lines"><path class="js-line" d="M20.75,188.04L319.25,71.3" style="vector-effect: non-scaling-stroke; fill: none; stroke: rgb(37, 135, 141); stroke-opacity: 1; stroke-width: 1px; opacity: 1;"/></g><g class="points"/><g class="text"/></g><g class="trace scatter traceb784dc" style="stroke-miterlimit: 2; opacity: 1;"><g class="fills"/><g class="errorbars"/><g class="lines"><path class="js-line" d="M20.75,217.96L65.98,190.41L68.99,188.4L78.04,183.01L81.05,181.59L87.08,178.77L90.1,177L171.51,129.97L174.52,128.24L240.86,89.74L243.87,88.02L319.25,45.2" style="vector-effect: non-scaling-stroke; fill: none; stroke: rgb(36, 140, 140); stroke-opacity: 1; stroke-width: 1px; opacity: 1;"/></g><g class="points"/><g class="text"/></g><g class="trace scatter trace77a695" style="stroke-miterlimit: 2; opacity: 1;"><g class="fills"/><g class="errorbars"/><g class="lines"><path class="js-line" d="M20.75,189.32L261.96,92.67L264.98,91.45L319.25,69.65" style="vector-effect: non-scaling-stroke; fill: none; stroke: rgb(34, 144, 140); stroke-opacity: 1; stroke-width: 1px; opacity: 1;"/></g><g class="points"/><g class="text"/></g><g class="trace scatter trace5f5f8d" style="stroke-miterlimit: 2; opacity: 1;"><g class="fills"/><g class="errorbars"/><g class="lines"><path class="js-line" d="M20.75,188.35L319.25,70.65" style="vector-effect: non-scaling-stroke; fill: none; stroke: rgb(33, 148, 139); stroke-opacity: 1; stroke-width: 1px; opacity: 1;"/></g><g class="points"/><g class="text"/></g><g class="trace scatter trace98db55" style="stroke-miterlimit: 2; opacity: 1;"><g class="fills"/><g class="errorbars"/><g class="lines"><path class="js-line" d="M20.75,175.74L319.25,82.53" style="vector-effect: non-scaling-stroke; fill: none; stroke: rgb(32, 153, 138); stroke-opacity: 1; stroke-width: 1px; opacity: 1;"/></g><g class="points"/><g class="text"/></g><g class="trace scatter traced360da" style="stroke-miterlimit: 2; opacity: 1;"><g class="fills"/><g class="errorbars"/><g class="lines"><path class="js-line" d="M20.75,190.78L274.02,87.68L277.04,86.42L319.25,69.25" style="vector-effect: non-scaling-stroke; fill: none; stroke: rgb(31, 158, 137); stroke-opacity: 1; stroke-width: 1px; opacity: 1;"/></g><g class="points"/><g class="text"/></g><g class="trace scatter trace764af1" style="stroke-miterlimit: 2; opacity: 1;"><g class="fills"/><g class="errorbars"/><g class="lines"><path class="js-line" d="M20.75,207.03L319.25,54.25" style="vector-effect: non-scaling-stroke; fill: none; stroke: rgb(34, 162, 135); stroke-opacity: 1; stroke-width: 1px; opacity: 1;"/></g><g class="points"/><g class="text"/></g><g class="trace scatter trace7d1f0c" style="stroke-miterlimit: 2; opacity: 1;"><g class="fills"/><g class="errorbars"/><g class="lines"><path class="js-line" d="M20.75,207.54L319.25,53.61" style="vector-effect: non-scaling-stroke; fill: none; stroke: rgb(38, 166, 132); stroke-opacity: 1; stroke-width: 1px; opacity: 1;"/></g><g class="points"/><g class="text"/></g><g class="trace scatter tracebd697d" style="stroke-miterlimit: 2; opacity: 1;"><g class="fills"/><g class="errorbars"/><g class="lines"><path class="js-line" d="M20.75,207.55L201.66,114.23L204.67,112.69L319.25,54.26" style="vector-effect: non-scaling-stroke; fill: none; stroke: rgb(41, 170, 130); stroke-opacity: 1; stroke-width: 1px; opacity: 1;"/></g><g class="points"/><g class="text"/></g><g class="trace scatter traced7a6ac" style="stroke-miterlimit: 2; opacity: 1;"><g class="fills"/><g class="errorbars"/><g class="lines"><path class="js-line" d="M20.75,88.27L53.92,99.02L56.93,99.8L78.04,104.09L81.05,105.49L87.08,109.26L90.1,110.2L123.27,119.6L126.28,120.4L144.37,125.76L147.39,126.75L153.42,127.75L156.43,127.72L177.54,127.52L180.55,130.29L183.57,134.08L186.58,136.63L195.63,139.33L198.64,139.96L228.8,145.96L231.81,146.62L301.16,161.15L304.17,161.65L319.25,163.83" style="vector-effect: non-scaling-stroke; fill: none; stroke: rgb(45, 174, 127); stroke-opacity: 1; stroke-width: 1px; opacity: 1;"/></g><g class="points"/><g class="text"/></g><g class="trace scatter trace3471e5" style="stroke-miterlimit: 2; opacity: 1;"><g class="fills"/><g class="errorbars"/><g class="lines"><path class="js-line" d="M20.75,222.98L84.07,183.4L87.08,181.6L249.9,81.63L252.92,79.79L319.25,39.76" style="vector-effect: non-scaling-stroke; fill: none; stroke: rgb(96, 200, 96); stroke-opacity: 1; stroke-width: 1px; opacity: 1;"/></g><g class="points"/><g class="text"/></g><g class="trace scatter trace960a6c" style="stroke-miterlimit: 2; opacity: 1;"><g class="fills"/><g class="errorbars"/><g class="lines"><path class="js-line" d="M20.75,258.4L56.93,226.97L59.95,223.76L75.02,207.66L78.04,205.53L81.05,204.14L84.07,203.64L93.11,196.28L96.13,193.72L162.46,138.42L165.48,136L289.1,36.57L292.11,34.23L319.25,13.6" style="vector-effect: non-scaling-stroke; fill: none; stroke: rgb(105, 204, 91); stroke-opacity: 1; stroke-width: 1px; opacity: 1;"/></g><g class="points"/><g class="text"/></g><g class="trace scatter trace995065" style="stroke-miterlimit: 2; opacity: 1;"><g class="fills"/><g class="errorbars"/><g class="lines"><path class="js-line" d="M20.75,181.96L319.25,76.67" style="vector-effect: non-scaling-stroke; fill: none; stroke: rgb(115, 207, 85); stroke-opacity: 1; stroke-width: 1px; opacity: 1;"/></g><g class="points"/><g class="text"/></g><g class="trace scatter trace871479" style="stroke-miterlimit: 2; opacity: 1;"><g class="fills"/><g class="errorbars"/><g class="lines"><path class="js-line" d="M20.75,207.63L316.23,56.19L319.25,54.65" style="vector-effect: non-scaling-stroke; fill: none; stroke: rgb(126, 210, 78); stroke-opacity: 1; stroke-width: 1px; opacity: 1;"/></g><g class="points"/><g class="text"/></g><g class="trace scatter tracedae57d" style="stroke-miterlimit: 2; opacity: 1;"><g class="fills"/><g class="errorbars"/><g class="lines"><path class="js-line" d="M20.75,187.75L174.52,127.89L177.54,126.72L319.25,71.54" style="vector-effect: non-scaling-stroke; fill: none; stroke: rgb(138, 212, 70); stroke-opacity: 1; stroke-width: 1px; opacity: 1;"/></g><g class="points"/><g class="text"/></g><g class="trace scatter trace256b46" style="stroke-miterlimit: 2; opacity: 1;"><g class="fills"/><g class="errorbars"/><g class="lines"><path class="js-line" d="M20.75,216.71L99.14,171.11L102.16,169.38L234.83,93.55L237.84,91.85L319.25,46.07" style="vector-effect: non-scaling-stroke; fill: none; stroke: rgb(149, 215, 63); stroke-opacity: 1; stroke-width: 1px; opacity: 1;"/></g><g class="points"/><g class="text"/></g><g class="trace scatter tracec5ea7a" style="stroke-miterlimit: 2; opacity: 1;"><g class="fills"/><g class="errorbars"/><g class="lines"><path class="js-line" d="M20.75,189.56L261.96,92.91L264.98,91.69L319.25,69.89" style="vector-effect: non-scaling-stroke; fill: none; stroke: rgb(161, 217, 56); stroke-opacity: 1; stroke-width: 1px; opacity: 1;"/></g><g class="points"/><g class="text"/></g><g class="trace scatter trace6b0465" style="stroke-miterlimit: 2; opacity: 1;"><g class="fills"/><g class="errorbars"/><g class="lines"><path class="js-line" d="M20.75,187.93L162.46,132.72L165.48,131.49L204.67,116.41L207.69,115.23L319.25,71.68" style="vector-effect: non-scaling-stroke; fill: none; stroke: rgb(172, 220, 49); stroke-opacity: 1; stroke-width: 1px; opacity: 1;"/></g><g class="points"/><g class="text"/></g><g class="trace scatter trace3418e5" style="stroke-miterlimit: 2; opacity: 1;"><g class="fills"/><g class="errorbars"/><g class="lines"><path class="js-line" d="M20.75,175.48L319.25,82.57" style="vector-effect: non-scaling-stroke; fill: none; stroke: rgb(184, 222, 43); stroke-opacity: 1; stroke-width: 1px; opacity: 1;"/></g><g class="points"/><g class="text"/></g><g class="trace scatter trace494d76" style="stroke-miterlimit: 2; opacity: 1;"><g class="fills"/><g class="errorbars"/><g class="lines"><path class="js-line" d="M20.75,190.09L102.16,157.23L105.17,156.02L280.05,85.16L283.07,83.91L319.25,69.35" style="vector-effect: non-scaling-stroke; fill: none; stroke: rgb(195, 224, 42); stroke-opacity: 1; stroke-width: 1px; opacity: 1;"/></g><g class="points"/><g class="text"/></g><g class="trace scatter tracedb7acc" style="stroke-miterlimit: 2; opacity: 1;"><g class="fills"/><g class="errorbars"/><g class="lines"><path class="js-line" d="M20.75,208.67L234.83,97.32L237.84,95.77L319.25,53.89" style="vector-effect: non-scaling-stroke; fill: none; stroke: rgb(207, 225, 41); stroke-opacity: 1; stroke-width: 1px; opacity: 1;"/></g><g class="points"/><g class="text"/></g><g class="trace scatter tracec50d14" style="stroke-miterlimit: 2; opacity: 1;"><g class="fills"/><g class="errorbars"/><g class="lines"><path class="js-line" d="M20.75,210.33L319.25,51.06" style="vector-effect: non-scaling-stroke; fill: none; stroke: rgb(218, 227, 40); stroke-opacity: 1; stroke-width: 1px; opacity: 1;"/></g><g class="points"/><g class="text"/></g><g class="trace scatter tracee713ff" style="stroke-miterlimit: 2; opacity: 1;"><g class="fills"/><g class="errorbars"/><g class="lines"><path class="js-line" d="M20.75,208.97L201.66,113.77L204.67,112.22L319.25,52.71" style="vector-effect: non-scaling-stroke; fill: none; stroke: rgb(230, 228, 39); stroke-opacity: 1; stroke-width: 1px; opacity: 1;"/></g><g class="points"/><g class="text"/></g><g class="trace scatter tracec6ecaa" style="stroke-miterlimit: 2; opacity: 1;"><g class="fills"/><g class="errorbars"/><g class="lines"><path class="js-line" d="M20.75,68.83L53.92,80.55L56.93,81.39L78.04,86.05L81.05,87.59L87.08,91.77L90.1,92.81L123.27,103.18L126.28,104.08L153.42,112.26L156.43,113.9L165.48,121.43L168.49,123.88L174.52,126.99L177.54,127L186.58,122.24L189.6,122.39L198.64,124.2L201.66,125.1L222.77,131.31L225.78,132.07L295.13,149.08L298.14,149.71L319.25,153.57" style="vector-effect: non-scaling-stroke; fill: none; stroke: rgb(241, 230, 38); stroke-opacity: 1; stroke-width: 1px; opacity: 1;"/></g><g class="points"/><g class="text"/></g><g class="trace scatter trace05bbc6" style="stroke-miterlimit: 2; opacity: 1;"><g class="fills"/><g class="errorbars"/><g class="lines"><path class="js-line" d="M20.75,190.01L286.08,82.91L289.1,81.68L319.25,69.62" style="vector-effect: non-scaling-stroke; fill: none; stroke: rgb(253, 231, 37); stroke-opacity: 1; stroke-width: 1px; opacity: 1;"/></g><g class="points"/><g class="text"/></g><g class="trace scatter trace2dd2b8" style="stroke-miterlimit: 2; opacity: 1;"><g class="fills"/><g class="errorbars"/><g class="lines"><path class="js-line" d="M20.75,201.05L307.19,65.57L310.2,64.18L319.25,60.01" style="vector-effect: non-scaling-stroke; fill: none; stroke: rgb(169, 169, 169); stroke-opacity: 1; stroke-width: 2px; opacity: 1;"/></g><g class="points"/><g class="text"/></g></g></g><g class="overplot"/><path class="xlines-above crisp" d="M0,0" style="fill: none;"/><path class="ylines-above crisp" d="M0,0" style="fill: none;"/><g class="overlines-above"/><g class="xaxislayer-above"><g class="x3tick"><text text-anchor="middle" x="0" y="1133" transform="translate(220.15,0)" style="font-family: 'Open Sans', verdana, arial, sans-serif; font-size: 12px; fill: rgb(42, 63, 95); fill-opacity: 1; white-space: pre; opacity: 1;">2.7</text></g><g class="x3tick"><text text-anchor="middle" x="0" y="1133" style="font-family: 'Open Sans', verdana, arial, sans-serif; font-size: 12px; fill: rgb(42, 63, 95); fill-opacity: 1; white-space: pre; opacity: 1;" transform="translate(369.4,0)">2.75</text></g></g><g class="yaxislayer-above"><g class="y3tick"><text text-anchor="end" x="79" y="4.199999999999999" transform="translate(0,1097.5900000000001)" style="font-family: 'Open Sans', verdana, arial, sans-serif; font-size: 12px; fill: rgb(42, 63, 95); fill-opacity: 1; white-space: pre; opacity: 1;">−0.2</text></g><g class="y3tick"><text text-anchor="end" x="79" y="4.199999999999999" style="font-family: 'Open Sans', verdana, arial, sans-serif; font-size: 12px; fill: rgb(42, 63, 95); fill-opacity: 1; white-space: pre; opacity: 1;" transform="translate(0,1036.39)">−0.1</text></g><g class="y3tick"><text text-anchor="end" x="79" y="4.199999999999999" style="font-family: 'Open Sans', verdana, arial, sans-serif; font-size: 12px; fill: rgb(42, 63, 95); fill-opacity: 1; white-space: pre; opacity: 1;" transform="translate(0,975.19)">0</text></g><g class="y3tick"><text text-anchor="end" x="79" y="4.199999999999999" style="font-family: 'Open Sans', verdana, arial, sans-serif; font-size: 12px; fill: rgb(42, 63, 95); fill-opacity: 1; white-space: pre; opacity: 1;" transform="translate(0,913.9900000000001)">0.1</text></g><g class="y3tick"><text text-anchor="end" x="79" y="4.199999999999999" style="font-family: 'Open Sans', verdana, arial, sans-serif; font-size: 12px; fill: rgb(42, 63, 95); fill-opacity: 1; white-space: pre; opacity: 1;" transform="translate(0,852.7900000000001)">0.2</text></g></g><g class="overaxes-above"/></g></g><g class="polarlayer"/><g class="smithlayer"/><g class="ternarylayer"/><g class="geolayer"/><g class="funnelarealayer"/><g class="pielayer"/><g class="iciclelayer"/><g class="treemaplayer"/><g class="sunburstlayer"/><g class="glimages"/><defs id="topdefs-8c76d8"><g class="clips"/><clipPath id="legend8c76d8"><rect width="331" height="29" x="0" y="0"/></clipPath></defs><g class="layer-above"><g class="imagelayer"/><g class="shapelayer"/></g><g class="infolayer"><g class="legend" pointer-events="all" transform="translate(89,50.59999999999998)"><rect class="bg" shape-rendering="crispEdges" width="331" height="29" x="0" y="0" style="stroke: rgb(68, 68, 68); stroke-opacity: 1; fill: rgb(255, 255, 255); fill-opacity: 1; stroke-width: 0px;"/><g class="scrollbox" transform="" clip-path="url(#legend8c76d8)"><g class="groups"><g class="traces" transform="translate(0,14.5)" style="opacity: 1;"><text class="legendtext" text-anchor="start" x="40" y="4.680000000000001" style="font-family: 'Open Sans', verdana, arial, sans-serif; font-size: 12px; fill: rgb(42, 63, 95); fill-opacity: 1; white-space: pre;">Profile Log-likelihood</text><g class="layers" style="opacity: 1;"><g class="legendfill"/><g class="legendlines"><path class="js-line" d="M5,0h30" style="fill: none; stroke: rgb(51, 34, 136); stroke-opacity: 1; stroke-width: 2px;"/></g><g class="legendsymbols"><g class="legendpoints"/></g></g><rect class="legendtoggle" x="0" y="-9.5" width="160.15625" height="19" style="fill: rgb(0, 0, 0); fill-opacity: 0;"/></g><g class="traces" transform="translate(162.65625,14.5)" style="opacity: 1;"><text class="legendtext" text-anchor="start" x="40" y="4.680000000000001" style="font-family: 'Open Sans', verdana, arial, sans-serif; font-size: 12px; fill: rgb(42, 63, 95); fill-opacity: 1; white-space: pre;">Optimiser Evaluations</text><g class="layers" style="opacity: 1;"><g class="legendfill"/><g class="legendlines"/><g class="legendsymbols"><g class="legendpoints"><path class="scatterpts" transform="translate(20,0)" d="M-4.2,0A 5.7,5.7 0 0 1 0,4.2A 5.7,5.7 0 0 1 4.2,0A 5.7,5.7 0 0 1 0,-4.2A 5.7,5.7 0 0 1 -4.2,0Z" style="opacity: 0.5; stroke-width: 0px; fill: rgb(51, 34, 136); fill-opacity: 1;"/></g></g></g><rect class="legendtoggle" x="0" y="-9.5" width="165.46875" height="19" style="fill: rgb(0, 0, 0); fill-opacity: 0;"/></g></g></g><rect class="scrollbar" rx="20" ry="3" width="0" height="0" x="0" y="0" style="fill: rgb(128, 139, 164); fill-opacity: 1;"/></g><g class="g-gtitle"/><g class="g-xtitle"/><g class="g-x2title"/><g class="g-x3title"/><g class="g-ytitle"/><g class="g-y2title"/><g class="g-y3title"/></g></svg>