<svg class="main-svg" xmlns="http://www.w3.org/2000/svg" xmlns:xlink="http://www.w3.org/1999/xlink" width="500" height="1200" style="" viewBox="0 0 500 1200"><rect x="0" y="0" width="500" height="1200" style="fill: rgb(255, 255, 255); fill-opacity: 1;"/><defs id="defs-0636b1"><g class="clips"><clipPath id="clip0636b1xyplot" class="plotclip"><rect width="340" height="272.00000000000006"/></clipPath><clipPath id="clip0636b1x2y2plot" class="plotclip"><rect width="340" height="272"/></clipPath><clipPath id="clip0636b1x3y3plot" class="plotclip"><rect width="340" height="272"/></clipPath><clipPath class="axesclip" id="clip0636b1x"><rect x="80" y="0" width="340" height="1200"/></clipPath><clipPath class="axesclip" id="clip0636b1y"><rect x="0" y="100" width="500" height="272.00000000000006"/></clipPath><clipPath class="axesclip" id="clip0636b1xy"><rect x="80" y="100" width="340" height="272.00000000000006"/></clipPath><clipPath class="axesclip" id="clip0636b1y2"><rect x="0" y="474.00000000000006" width="500" height="272"/></clipPath><clipPath class="axesclip" id="clip0636b1xy2"><rect x="80" y="474.00000000000006" width="340" height="272"/></clipPath><clipPath class="axesclip" id="clip0636b1y3"><rect x="0" y="848.0000000000001" width="500" height="272"/></clipPath><clipPath class="axesclip" id="clip0636b1xy3"><rect x="80" y="848.0000000000001" width="340" height="272"/></clipPath><clipPath class="axesclip" id="clip0636b1x2"><rect x="80" y="0" width="340" height="1200"/></clipPath><clipPath class="axesclip" id="clip0636b1x2y"><rect x="80" y="100" width="340" height="272.00000000000006"/></clipPath><clipPath class="axesclip" id="clip0636b1x2y2"><rect x="80" y="474.00000000000006" width="340" height="272"/></clipPath><clipPath class="axesclip" id="clip0636b1x2y3"><rect x="80" y="848.0000000000001" width="340" height="272"/></clipPath><clipPath class="axesclip" id="clip0636b1x3"><rect x="80" y="0" width="340" height="1200"/></clipPath><clipPath class="axesclip" id="clip0636b1x3y"><rect x="80" y="100" width="340" height="272.00000000000006"/></clipPath><clipPath class="axesclip" id="clip0636b1x3y2"><rect x="80" y="474.00000000000006" width="340" height="272"/></clipPath><clipPath class="axesclip" id="clip0636b1x3y3"><rect x="80" y="848.0000000000001" width="340" height="272"/></clipPath></g><g class="gradients"/><g class="patterns"/></defs><g class="bglayer"/><g class="layer-below"><g class="imagelayer"/><g class="shapelayer"/></g><g class="cartesianlayer"><g class="subplot xy"><g class="layer-subplot"><g class="shapelayer"/><g class="imagelayer"/></g><g class="minor-gridlayer"><g class="x"/><g class="y"/></g><g class="gridlayer"><g class="x"><path class="xgrid crisp" transform="translate(148,0)" d="M0,100v272.00000000000006" style="stroke: rgb(235, 240, 248); stroke-opacity: 1; stroke-width: 1px;"/><path class="xgrid crisp" transform="translate(216,0)" d="M0,100v272.00000000000006" style="stroke: rgb(235, 240, 248); stroke-opacity: 1; stroke-width: 1px;"/><path class="xgrid crisp" transform="translate(284,0)" d="M0,100v272.00000000000006" style="stroke: rgb(235, 240, 248); stroke-opacity: 1; stroke-width: 1px;"/><path class="xgrid crisp" transform="translate(352,0)" d="M0,100v272.00000000000006" style="stroke: rgb(235, 240, 248); stroke-opacity: 1; stroke-width: 1px;"/></g><g class="y"><path class="ygrid crisp" transform="translate(0,335.14)" d="M80,0h340" style="stroke: rgb(235, 240, 248); stroke-opacity: 1; stroke-width: 1px;"/><path class="ygrid crisp" transform="translate(0,290.83000000000004)" d="M80,0h340" style="stroke: rgb(235, 240, 248); stroke-opacity: 1; stroke-width: 1px;"/><path class="ygrid crisp" transform="translate(0,246.52)" d="M80,0h340" style="stroke: rgb(235, 240, 248); stroke-opacity: 1; stroke-width: 1px;"/><path class="ygrid crisp" transform="translate(0,202.20999999999998)" d="M80,0h340" style="stroke: rgb(235, 240, 248); stroke-opacity: 1; stroke-width: 1px;"/><path class="ygrid crisp" transform="translate(0,157.91)" d="M80,0h340" style="stroke: rgb(235, 240, 248); stroke-opacity: 1; stroke-width: 1px;"/></g></g><g class="zerolinelayer"><path class="yzl zl crisp" transform="translate(0,113.6)" d="M80,0h340" style="stroke: rgb(235, 240, 248); stroke-opacity: 1; stroke-width: 2px;"/></g><path class="xlines-below"/><path class="ylines-below"/><g class="overlines-below"/><g class="xaxislayer-below"/><g class="yaxislayer-below"/><g class="overaxes-below"/><g class="plot" transform="translate(80,100)" clip-path="url(#clip0636b1xyplot)"><g class="scatterlayer mlayer"><g class="trace scatter trace50a808" style="stroke-miterlimit: 2; opacity: 1;"><g class="fills"/><g class="errorbars"/><g class="lines"><path class="js-line" d="M0,258.4L17.17,212.99L20.61,204.48L37.78,164.72L41.21,157.32L58.38,123.16L61.82,116.92L75.56,93.72L78.99,88.4L92.73,68.87L96.16,64.5L109.9,48.71L113.33,45.2L127.07,33.11L130.51,30.52L140.81,23.9L144.24,22.07L154.55,17.65L157.98,16.5L168.28,14.27L171.72,13.85L182.02,13.75L185.45,14.08L195.76,16.2L199.19,17.21L209.49,21.4L212.93,23.13L223.23,29.45L226.67,31.88L236.97,40.31L240.4,43.49L250.71,54.02L254.14,57.88L267.88,75.05L271.31,79.77L285.05,100.43L288.48,106.02L302.22,130.08L305.66,136.51L319.39,163.98L322.83,171.26L340,210.24" style="vector-effect: non-scaling-stroke; fill: none; stroke: rgb(51, 34, 136); stroke-opacity: 1; stroke-width: 2px; opacity: 1;"/></g><g class="points"/><g class="text"/></g></g></g><g class="overplot"/><path class="xlines-above crisp" d="M0,0" style="fill: none;"/><path class="ylines-above crisp" d="M0,0" style="fill: none;"/><g class="overlines-above"/><g class="xaxislayer-above"/><g class="yaxislayer-above"><g class="ytick"><text text-anchor="end" x="79" y="4.199999999999999" transform="translate(0,335.14)" style="font-family: 'Open Sans', verdana, arial, sans-serif; font-size: 12px; fill: rgb(42, 63, 95); fill-opacity: 1; white-space: pre; opacity: 1;">−5</text></g><g class="ytick"><text text-anchor="end" x="79" y="4.199999999999999" style="font-family: 'Open Sans', verdana, arial, sans-serif; font-size: 12px; fill: rgb(42, 63, 95); fill-opacity: 1; white-space: pre; opacity: 1;" transform="translate(0,290.83000000000004)">−4</text></g><g class="ytick"><text text-anchor="end" x="79" y="4.199999999999999" style="font-family: 'Open Sans', verdana, arial, sans-serif; font-size: 12px; fill: rgb(42, 63, 95); fill-opacity: 1; white-space: pre; opacity: 1;" transform="translate(0,246.52)">−3</text></g><g class="ytick"><text text-anchor="end" x="79" y="4.199999999999999" style="font-family: 'Open Sans', verdana, arial, sans-serif; font-size: 12px; fill: rgb(42, 63, 95); fill-opacity: 1; white-space: pre; opacity: 1;" transform="translate(0,202.20999999999998)">−2</text></g><g class="ytick"><text text-anchor="end" x="79" y="4.199999999999999" style="font-family: 'Open Sans', verdana, arial, sans-serif; font-size: 12px; fill: rgb(42, 63, 95); fill-opacity: 1; white-space: pre; opacity: 1;" transform="translate(0,157.91)">−1</text></g><g class="ytick"><text text-anchor="end" x="79" y="4.199999999999999" style="font-family: 'Open Sans', verdana, arial, sans-serif; font-size: 12px; fill: rgb(42, 63, 95); fill-opacity: 1; white-space: pre; opacity: 1;" transform="translate(0,113.6)">0</text></g></g><g class="overaxes-above"/></g><g class="subplot x2y2"><g class="layer-subplot"><g class="shapelayer"/><g class="imagelayer"/></g><g class="minor-gridlayer"><g class="x2"/><g class="y2"/></g><g class="gridlayer"><g class="x2"><path class="x2grid crisp" transform="translate(148,0)" d="M0,474.00000000000006v272" style="stroke: rgb(235, 240, 248); stroke-opacity: 1; stroke-width: 1px;"/><path class="x2grid crisp" transform="translate(216,0)" d="M0,474.00000000000006v272" style="stroke: rgb(235, 240, 248); stroke-opacity: 1; stroke-width: 1px;"/><path class="x2grid crisp" transform="translate(284,0)" d="M0,474.00000000000006v272" style="stroke: rgb(235, 240, 248); stroke-opacity: 1; stroke-width: 1px;"/><path class="x2grid crisp" transform="translate(352,0)" d="M0,474.00000000000006v272" style="stroke: rgb(235, 240, 248); stroke-opacity: 1; stroke-width: 1px;"/></g><g class="y2"><path class="y2grid crisp" transform="translate(0,715.01)" d="M80,0h340" style="stroke: rgb(235, 240, 248); stroke-opacity: 1; stroke-width: 1px;"/><path class="y2grid crisp" transform="translate(0,664.48)" d="M80,0h340" style="stroke: rgb(235, 240, 248); stroke-opacity: 1; stroke-width: 1px;"/><path class="y2grid crisp" transform="translate(0,613.94)" d="M80,0h340" style="stroke: rgb(235, 240, 248); stroke-opacity: 1; stroke-width: 1px;"/><path class="y2grid crisp" transform="translate(0,563.4000000000001)" d="M80,0h340" style="stroke: rgb(235, 240, 248); stroke-opacity: 1; stroke-width: 1px;"/><path class="y2grid crisp" transform="translate(0,512.86)" d="M80,0h340" style="stroke: rgb(235, 240, 248); stroke-opacity: 1; stroke-width: 1px;"/></g></g><g class="zerolinelayer"/><path class="xlines-below"/><path class="ylines-below"/><g class="overlines-below"/><g class="xaxislayer-below"/><g class="yaxislayer-below"/><g class="overaxes-below"/><g class="plot" transform="translate(80,474.00000000000006)" clip-path="url(#clip0636b1x2y2plot)"><g class="scatterlayer mlayer"><g class="trace scatter tracede7c98" style="stroke-miterlimit: 2; opacity: 1;"><g class="fills"/><g class="errorbars"/><g class="lines"><path class="js-line" d="M3.43,171.36L6.87,66.06L10.3,227.21L13.74,143.05L17.17,140.42L20.61,180.09L24.04,131.91L27.47,76.76L30.91,202.74L34.34,124.99L37.78,160.69L41.21,160.79L44.65,123.75L48.08,184.83L51.52,148.5L54.95,43.15L58.38,258.4L61.82,110.45L65.25,166.39L68.69,128.9L72.12,130.99L75.56,172.59L78.99,129.84L82.42,117.87L85.86,195.59L89.29,82.73L92.73,227.57L96.16,73.67L99.6,136.57L103.03,193.08L106.46,185.36L109.9,65.18L113.33,187.47L116.77,103.26L120.2,161.36L123.64,157.22L127.07,108.84L130.51,157.57L133.94,105.68L137.37,218.23L140.81,112.86L144.24,152.56L147.68,96.21L151.11,189.55L154.55,76.31L157.98,120.68L161.41,258.37L164.85,108.32L168.28,76.16L171.72,175.58L175.15,132.74L178.59,142.36L182.02,145.17L185.45,123.61L188.89,146.85L192.32,221.61L195.76,13.6L199.19,143.93L202.63,153.5L206.06,191.84L209.49,67.25L212.93,163.83L216.36,130.91L219.8,149.49L223.23,94.82L226.67,173.08L230.1,107.22L233.54,154.51L236.97,154.57L240.4,100.44L243.84,150.56L247.27,120.37L250.71,135.88L257.58,148.49L261.01,74.77L264.44,160.49L267.88,116.01L271.31,174.76L274.75,120.13L278.18,91.64L281.62,165.47L285.05,117.29L288.48,119.76L291.92,142.36L295.35,87.18L298.79,205.7L302.22,78.01L305.66,137.19L309.09,120.02L312.53,153.65L315.96,111.56L319.39,114.39L322.83,141.19L326.26,115.68L329.7,116.3L333.13,99.87L336.57,224.45" style="vector-effect: non-scaling-stroke; fill: none; stroke: rgb(51, 34, 136); stroke-opacity: 1; stroke-width: 2px; opacity: 1;"/></g><g class="points"/><g class="text"/></g></g></g><g class="overplot"/><path class="xlines-above crisp" d="M0,0" style="fill: none;"/><path class="ylines-above crisp" d="M0,0" style="fill: none;"/><g class="overlines-above"/><g class="xaxislayer-above"/><g class="yaxislayer-above"><g class="y2tick"><text text-anchor="end" x="79" y="4.199999999999999" transform="translate(0,715.01)" style="font-family: 'Open Sans', verdana, arial, sans-serif; font-size: 12px; fill: rgb(42, 63, 95); fill-opacity: 1; white-space: pre; opacity: 1;">−6000</text></g><g class="y2tick"><text text-anchor="end" x="79" y="4.199999999999999" style="font-family: 'Open Sans', verdana, arial, sans-serif; font-size: 12px; fill: rgb(42, 63, 95); fill-opacity: 1; white-space: pre; opacity: 1;" transform="translate(0,664.48)">−5000</text></g><g class="y2tick"><text text-anchor="end" x="79" y="4.199999999999999" style="font-family: 'Open Sans', verdana, arial, sans-serif; font-size: 12px; fill: rgb(42, 63, 95); fill-opacity: 1; white-space: pre; opacity: 1;" transform="translate(0,613.94)">−4000</text></g><g class="y2tick"><text text-anchor="end" x="79" y="4.199999999999999" style="font-family: 'Open Sans', verdana, arial, sans-serif; font-size: 12px; fill: rgb(42, 63, 95); fill-opacity: 1; white-space: pre; opacity: 1;" transform="translate(0,563.4000000000001)">−3000</text></g><g class="y2tick"><text text-anchor="end" x="79" y="4.199999999999999" style="font-family: 'Open Sans', verdana, arial, sans-serif; font-size: 12px; fill: rgb(42, 63, 95); fill-opacity: 1; white-space: pre; opacity: 1;" transform="translate(0,512.86)">−2000</text></g></g><g class="overaxes-above"/></g><g class="subplot x3y3"><g class="layer-subplot"><g class="shapelayer"/><g class="imagelayer"/></g><g class="minor-gridlayer"><g class="x3"/><g class="y3"/></g><g class="gridlayer"><g class="x3"><path class="x3grid crisp" transform="translate(148,0)" d="M0,848.0000000000001v272" style="stroke: rgb(235, 240, 248); stroke-opacity: 1; stroke-width: 1px;"/><path class="x3grid crisp" transform="translate(216,0)" d="M0,848.0000000000001v272" style="stroke: rgb(235, 240, 248); stroke-opacity: 1; stroke-width: 1px;"/><path class="x3grid crisp" transform="translate(284,0)" d="M0,848.0000000000001v272" style="stroke: rgb(235, 240, 248); stroke-opacity: 1; stroke-width: 1px;"/><path class="x3grid crisp" transform="translate(352,0)" d="M0,848.0000000000001v272" style="stroke: rgb(235, 240, 248); stroke-opacity: 1; stroke-width: 1px;"/></g><g class="y3"><path class="y3grid crisp" transform="translate(0,1063.5600000000002)" d="M80,0h340" style="stroke: rgb(235, 240, 248); stroke-opacity: 1; stroke-width: 1px;"/><path class="y3grid crisp" transform="translate(0,1003.2700000000001)" d="M80,0h340" style="stroke: rgb(235, 240, 248); stroke-opacity: 1; stroke-width: 1px;"/><path class="y3grid crisp" transform="translate(0,882.69)" d="M80,0h340" style="stroke: rgb(235, 240, 248); stroke-opacity: 1; stroke-width: 1px;"/></g></g><g class="zerolinelayer"><path class="y3zl zl crisp" transform="translate(0,942.9800000000001)" d="M80,0h340" style="stroke: rgb(235, 240, 248); stroke-opacity: 1; stroke-width: 2px;"/></g><path class="xlines-below"/><path class="ylines-below"/><g class="overlines-below"/><g class="xaxislayer-below"/><g class="yaxislayer-below"/><g class="overaxes-below"/><g class="plot" transform="translate(80,848.0000000000001)" clip-path="url(#clip0636b1x3y3plot)"><g class="scatterlayer mlayer"><g class="trace scatter trace3d2b0e" style="stroke-miterlimit: 2; opacity: 1;"><g class="fills"/><g class="errorbars"/><g class="lines"><path class="js-line" d="M0,199.03L13.74,191.44L17.17,189.88L20.61,188.04L24.04,187.76L27.47,184.06L30.91,182.86L34.34,178.7L37.78,179.41L44.65,176.14L48.08,174.85L51.52,172.77L54.95,172.14L58.38,169.69L61.82,168.33L68.69,164.42L72.12,163.26L78.99,159.93L82.42,159.15L85.86,155.06L89.29,154.18L92.73,153.22L96.16,149.89L99.6,150.04L103.03,147.72L106.46,147.3L109.9,145.23L113.33,142.61L116.77,141.94L133.94,132.91L137.37,131.45L144.24,127.19L147.68,126.78L171.72,115.22L175.15,113.73L178.59,112.1L182.02,109.59L185.45,107.56L188.89,106.55L192.32,105.63L195.76,103.33L199.19,98.44L202.63,99.41L206.06,98.21L209.49,96.07L212.93,95.2L216.36,93.31L226.67,87.79L230.1,86.53L236.97,83.42L240.4,82.58L250.71,76.97L254.14,75.83L257.58,73.2L261.01,72.49L271.31,66.56L274.75,65.23L285.05,60.78L288.48,59.75L298.79,53.59L302.22,52.13L309.09,49.16L312.53,47.5L319.39,44.76L322.83,42.61L326.26,41.75L329.7,39.94L333.13,38.94L336.57,35.96L340,34.68" style="vector-effect: non-scaling-stroke; fill: none; stroke: rgb(68, 1, 84); stroke-opacity: 1; stroke-width: 1px; opacity: 1;"/></g><g class="points"/><g class="text"/></g><g class="trace scatter tracedbbd28" style="stroke-miterlimit: 2; opacity: 1;"><g class="fills"/><g class="errorbars"/><g class="lines"><path class="js-line" d="M0,188.13L3.43,187.79L6.87,184.56L13.74,182.72L17.17,179.31L20.61,178.49L24.04,176.67L37.78,170.74L41.21,169.45L44.65,168.16L48.08,165.42L51.52,164.89L54.95,162.35L58.38,161.39L61.82,159.21L72.12,155.49L75.56,153.23L78.99,151.28L82.42,150.42L85.86,149.05L89.29,146.69L99.6,142.13L103.03,140.04L106.46,139.85L109.9,137.55L144.24,122.14L147.68,119.55L154.55,117.51L157.98,115.23L164.85,111.72L168.28,110.82L171.72,107.59L175.15,107.45L185.45,103.4L188.89,101.45L192.32,101.14L195.76,97.61L199.19,97.19L202.63,95.79L206.06,93.76L209.49,93.11L212.93,89.89L216.36,89.02L223.23,85.97L226.67,85.19L230.1,82.64L233.54,81.47L243.84,76.4L247.27,75.27L257.58,70.19L261.01,70.83L267.88,65.38L271.31,63.47L281.62,58.53L285.05,57.57L288.48,56.28L291.92,53.42L305.66,48.52L309.09,46L315.96,42.64L319.39,41.27L336.57,32.99L340,31.69" style="vector-effect: non-scaling-stroke; fill: none; stroke: rgb(69, 7, 90); stroke-opacity: 1; stroke-width: 1px; opacity: 1;"/></g><g class="points"/><g class="text"/></g><g class="trace scatter trace0b054f" style="stroke-miterlimit: 2; opacity: 1;"><g class="fills"/><g class="errorbars"/><g class="lines"><path class="js-line" d="M0,205.86L6.87,203.02L10.3,199.59L13.74,198.15L17.17,195.79L24.04,194.89L27.47,191.22L34.34,187.44L37.78,186.32L44.65,181.44L48.08,180.24L51.52,179.09L54.95,174.72L58.38,174.41L61.82,172.63L82.42,161.02L85.86,160.61L89.29,157.31L92.73,155.53L96.16,154.98L99.6,152.53L109.9,147.9L113.33,144.51L116.77,143.99L120.2,141.01L127.07,138.89L130.51,136.33L144.24,127.97L147.68,126.84L151.11,126.46L154.55,123.44L157.98,122.2L161.41,120.07L171.72,114.32L175.15,112.41L182.02,108.62L185.45,107.12L188.89,104.79L192.32,103.77L195.76,100.87L199.19,100.73L202.63,97.91L206.06,96.34L209.49,94.83L212.93,91.67L216.36,91.57L219.8,87.95L226.67,85.85L230.1,82.92L236.97,80.3L240.4,77.69L243.84,76.71L247.27,74.85L254.14,71.5L257.58,67.67L264.44,66L267.88,64.2L271.31,60.71L274.75,60.11L278.18,58.58L281.62,56.06L285.05,55.37L288.48,52.44L291.92,51.54L295.35,48.86L305.66,44.72L309.09,42.06L319.39,37.59L322.83,34.47L329.7,32.04L333.13,30.34L336.57,27.49L340,26.57" style="vector-effect: non-scaling-stroke; fill: none; stroke: rgb(69, 14, 96); stroke-opacity: 1; stroke-width: 1px; opacity: 1;"/></g><g class="points"/><g class="text"/></g><g class="trace scatter tracee86d2a" style="stroke-miterlimit: 2; opacity: 1;"><g class="fills"/><g class="errorbars"/><g class="lines"><path class="js-line" d="M0,249.53L6.87,242.95L10.3,242.47L13.74,237.58L17.17,235.7L20.61,235.67L24.04,234.22L27.47,228.71L30.91,227.61L34.34,223.92L37.78,221.64L41.21,217.22L44.65,218.44L51.52,211.2L54.95,209.36L61.82,205.8L65.25,200.97L68.69,200.85L72.12,198.77L75.56,194.79L78.99,193.06L82.42,191.01L85.86,186.99L89.29,186.39L92.73,183.02L96.16,182.72L99.6,178.32L106.46,174.75L109.9,169.32L113.33,169.57L116.77,166.96L120.2,165.91L123.64,162.5L127.07,156.58L130.51,156.5L137.37,153.73L140.81,150.92L144.24,148.73L147.68,147.53L151.11,146.77L154.55,141.6L161.41,137.82L164.85,134.59L168.28,131.37L171.72,129.62L175.15,127.31L178.59,126.7L188.89,119.44L192.32,117.65L195.76,115.58L199.19,111.25L202.63,108.18L206.06,106.33L209.49,100.39L212.93,102.8L216.36,98.16L219.8,96.78L223.23,92.52L226.67,94.69L230.1,90.36L233.54,87.46L236.97,84.93L240.4,84.5L243.84,81.16L247.27,76.08L250.71,78.89L254.14,75.43L261.01,69.52L264.44,67.65L267.88,64.43L271.31,62.98L274.75,61.96L278.18,58.42L281.62,58.12L285.05,56.75L288.48,52.52L291.92,50.92L295.35,49.01L298.79,46.02L302.22,45.03L305.66,42.09L309.09,41.12L312.53,39.09L319.39,31.83L322.83,33.44L333.13,22.63L336.57,24.83L340,19.81" style="vector-effect: non-scaling-stroke; fill: none; stroke: rgb(70, 20, 101); stroke-opacity: 1; stroke-width: 1px; opacity: 1;"/></g><g class="points"/><g class="text"/></g><g class="trace scatter trace02c8e2" style="stroke-miterlimit: 2; opacity: 1;"><g class="fills"/><g class="errorbars"/><g class="lines"><path class="js-line" d="M0,156.86L44.65,142.9L48.08,142.23L68.69,135.56L72.12,134.63L92.73,128.23L96.16,127.14L106.46,123.64L109.9,122.71L113.33,122.02L116.77,120.34L123.64,118.75L127.07,117.44L144.24,112.59L147.68,110.96L182.02,100.59L185.45,99.5L195.76,96.95L199.19,95.11L216.36,90.48L219.8,89L230.1,86.15L233.54,84.8L240.4,82.74L243.84,81.87L254.14,78.34L257.58,77.69L264.44,75.42L267.88,74.09L271.31,73.41L274.75,71.9L285.05,69.3L288.48,67.65L295.35,65.78L298.79,64.77L315.96,59.52L319.39,58.1L329.7,55.27L333.13,53.84L340,52.27" style="vector-effect: non-scaling-stroke; fill: none; stroke: rgb(71, 26, 107); stroke-opacity: 1; stroke-width: 1px; opacity: 1;"/></g><g class="points"/><g class="text"/></g><g class="trace scatter traced3370c" style="stroke-miterlimit: 2; opacity: 1;"><g class="fills"/><g class="errorbars"/><g class="lines"><path class="js-line" d="M0,184.13L13.74,177.93L17.17,177.25L27.47,170.87L30.91,169.84L48.08,163.23L51.52,161.61L54.95,158.42L58.38,158.02L68.69,153.92L72.12,152.23L109.9,135.28L113.33,134.42L116.77,131.8L120.2,131.05L123.64,130.09L127.07,127.79L133.94,125.25L137.37,123.17L144.24,121.24L147.68,118.46L151.11,117.3L154.55,115.23L161.41,112.67L164.85,110.84L171.72,108.68L175.15,106.28L182.02,103.58L185.45,102L212.93,90.17L216.36,88.4L226.67,84.34L230.1,82.68L240.4,77.86L243.84,76.37L247.27,75.4L250.71,73.62L264.44,67.39L267.88,65.73L288.48,56.59L291.92,55.26L295.35,53.26L298.79,52.24L309.09,47.61L312.53,46.12L340,34" style="vector-effect: non-scaling-stroke; fill: none; stroke: rgb(71, 32, 113); stroke-opacity: 1; stroke-width: 1px; opacity: 1;"/></g><g class="points"/><g class="text"/></g><g class="trace scatter tracee8e4ab" style="stroke-miterlimit: 2; opacity: 1;"><g class="fills"/><g class="errorbars"/><g class="lines"><path class="js-line" d="M0,163.82L3.43,162.86L6.87,161.11L20.61,156.86L24.04,155.5L30.91,153.39L34.34,152.23L58.38,143.96L61.82,142.97L75.56,138.1L78.99,136.93L85.86,134.26L89.29,133.48L195.76,97.07L199.19,95.42L206.06,93.66L209.49,92.33L216.36,90.31L219.8,88.82L285.05,66.35L288.48,65.58L291.92,63.79L295.35,62.86L340,47.46" style="vector-effect: non-scaling-stroke; fill: none; stroke: rgb(72, 39, 119); stroke-opacity: 1; stroke-width: 1px; opacity: 1;"/></g><g class="points"/><g class="text"/></g><g class="trace scatter tracebd130f" style="stroke-miterlimit: 2; opacity: 1;"><g class="fills"/><g class="errorbars"/><g class="lines"><path class="js-line" d="M0,203.26L6.87,198.75L10.3,197.21L24.04,190.3L27.47,191.69L30.91,185.07L34.34,185.77L41.21,181.01L44.65,179.48L48.08,178.02L51.52,175.4L54.95,174.5L58.38,172.15L65.25,168.07L68.69,167.31L75.56,163.48L78.99,160.77L85.86,158.87L89.29,155.23L92.73,155.76L96.16,152.79L103.03,149.61L106.46,146.6L109.9,146.14L113.33,143.16L120.2,140.72L123.64,137.57L127.07,137.86L130.51,135.43L137.37,130.95L140.81,130.59L144.24,129.97L147.68,126.72L154.55,123.07L157.98,120.89L161.41,120.67L164.85,117.99L168.28,115.54L171.72,114.09L182.02,108.76L185.45,107.22L192.32,103.79L195.76,101.45L202.63,98.11L206.06,96.97L212.93,93.24L216.36,92.12L219.8,88.68L223.23,87.1L230.1,85.77L233.54,82.26L236.97,81.64L240.4,78.69L243.84,77.91L247.27,76.11L254.14,73.29L257.58,70.3L261.01,69.59L264.44,67.6L278.18,60.36L281.62,59.35L285.05,57.79L288.48,54.34L291.92,54.14L295.35,51.89L305.66,46.99L309.09,45.11L329.7,35.21L333.13,33.93L336.57,30.74L340,29.98" style="vector-effect: non-scaling-stroke; fill: none; stroke: rgb(71, 44, 122); stroke-opacity: 1; stroke-width: 1px; opacity: 1;"/></g><g class="points"/><g class="text"/></g><g class="trace scatter tracedb7024" style="stroke-miterlimit: 2; opacity: 1;"><g class="fills"/><g class="errorbars"/><g class="lines"><path class="js-line" d="M0,166.14L58.38,145.63L61.82,144.6L92.73,133.44L96.16,132.61L116.77,124.77L120.2,123.86L127.07,121.03L130.51,119.78L137.37,117.48L140.81,116.25L151.11,113.08L154.55,111.7L175.15,104.52L178.59,103.25L195.76,97.59L199.19,96.53L206.06,93.42L209.49,92.39L267.88,71.76L271.31,70.47L340,46.01" style="vector-effect: non-scaling-stroke; fill: none; stroke: rgb(69, 49, 125); stroke-opacity: 1; stroke-width: 1px; opacity: 1;"/></g><g class="points"/><g class="text"/></g><g class="trace scatter tracee5a6f1" style="stroke-miterlimit: 2; opacity: 1;"><g class="fills"/><g class="errorbars"/><g class="lines"><path class="js-line" d="M0,161.36L3.43,159.63L6.87,159.01L24.04,153.28L27.47,151.88L34.34,149.73L37.78,148.54L51.52,144.25L54.95,142.56L65.25,139.54L68.69,138.28L82.42,134.17L85.86,132.71L140.81,114.67L144.24,113.91L147.68,112.06L151.11,111.23L164.85,106.7L168.28,106L175.15,103.42L178.59,102.38L185.45,100.21L188.89,98.89L195.76,97.38L199.19,95.93L212.93,91.33L216.36,90.17L233.54,84.51L236.97,82.76L247.27,79.51L250.71,78.43L257.58,76.4L261.01,75.47L267.88,73.09L271.31,72.14L285.05,67.36L288.48,66.45L298.79,62.51L302.22,61.75L340,49.36" style="vector-effect: non-scaling-stroke; fill: none; stroke: rgb(68, 55, 128); stroke-opacity: 1; stroke-width: 1px; opacity: 1;"/></g><g class="points"/><g class="text"/></g><g class="trace scatter trace3de2bb" style="stroke-miterlimit: 2; opacity: 1;"><g class="fills"/><g class="errorbars"/><g class="lines"><path class="js-line" d="M0,148.95L6.87,146.5L10.3,145.66L89.29,124.58L92.73,123.54L106.46,119.84L109.9,119.01L140.81,110.9L144.24,109.82L178.59,100.57L182.02,99.73L267.88,76.8L271.31,75.65L274.75,75.29L278.18,73.72L285.05,72.13L288.48,71.19L309.09,65.71L312.53,64.86L340,57.61" style="vector-effect: non-scaling-stroke; fill: none; stroke: rgb(66, 60, 130); stroke-opacity: 1; stroke-width: 1px; opacity: 1;"/></g><g class="points"/><g class="text"/></g><g class="trace scatter trace9150f8" style="stroke-miterlimit: 2; opacity: 1;"><g class="fills"/><g class="errorbars"/><g class="lines"><path class="js-line" d="M0,164.2L58.38,144.39L61.82,143.26L68.69,140.71L72.12,139.62L85.86,134.7L89.29,133.58L140.81,115.76L144.24,114.54L164.85,107.49L168.28,105.93L178.59,102.89L182.02,101.73L202.63,94.57L206.06,93.63L291.92,63.88L295.35,63.2L298.79,61.15L302.22,60.36L309.09,57.98L312.53,56.73L340,47.19" style="vector-effect: non-scaling-stroke; fill: none; stroke: rgb(64, 65, 133); stroke-opacity: 1; stroke-width: 1px; opacity: 1;"/></g><g class="points"/><g class="text"/></g><g class="trace scatter traceeb7d53" style="stroke-miterlimit: 2; opacity: 1;"><g class="fills"/><g class="errorbars"/><g class="lines"><path class="js-line" d="M0,187.42L3.43,186.67L6.87,183.89L10.3,182.96L13.74,181.05L17.17,180.24L20.61,177.93L30.91,173.36L34.34,172.51L72.12,154.48L75.56,153.75L89.29,146.79L92.73,145.7L103.03,140.87L106.46,139.56L116.77,135.5L120.2,133.18L130.51,128.85L133.94,126.65L147.68,120.23L151.11,118.48L157.98,116.21L161.41,114.53L178.59,106.8L182.02,105.11L192.32,100.76L195.76,99.57L199.19,96.96L202.63,96.39L206.06,94.25L209.49,93.57L212.93,91.31L216.36,90.26L219.8,87.61L223.23,88.52L226.67,85.07L230.1,83.87L233.54,82.92L236.97,80.04L247.27,75.74L250.71,74.32L261.01,70.06L264.44,68.04L281.62,60.34L285.05,59.35L295.35,54.31L298.79,53.08L302.22,49.69L305.66,49.52L315.96,45.02L319.39,43.57L340,34.25" style="vector-effect: non-scaling-stroke; fill: none; stroke: rgb(63, 71, 136); stroke-opacity: 1; stroke-width: 1px; opacity: 1;"/></g><g class="points"/><g class="text"/></g><g class="trace scatter trace4c0358" style="stroke-miterlimit: 2; opacity: 1;"><g class="fills"/><g class="errorbars"/><g class="lines"><path class="js-line" d="M0,188.64L10.3,184.77L13.74,182.83L48.08,167.32L51.52,164.79L54.95,163.81L58.38,161.87L68.69,157.78L72.12,155.73L75.56,154.72L78.99,152.75L82.42,151.96L85.86,150.13L99.6,143.35L103.03,141.87L109.9,139.2L113.33,136.63L120.2,133.96L123.64,132.43L216.36,89.54L219.8,88.7L223.23,86.06L226.67,85.2L230.1,83.09L233.54,81.97L236.97,79.12L240.4,77.86L243.84,77.25L247.27,75.69L264.44,66.9L267.88,66.23L271.31,63.81L274.75,62.85L288.48,56.5L291.92,54.66L298.79,52.06L302.22,50.6L312.53,45.61L315.96,44.26L319.39,42.22L322.83,41.33L333.13,35.97L336.57,34.73L340,32.57" style="vector-effect: non-scaling-stroke; fill: none; stroke: rgb(61, 76, 137); stroke-opacity: 1; stroke-width: 1px; opacity: 1;"/></g><g class="points"/><g class="text"/></g><g class="trace scatter tracef862a4" style="stroke-miterlimit: 2; opacity: 1;"><g class="fills"/><g class="errorbars"/><g class="lines"><path class="js-line" d="M0,186.37L3.43,184.76L6.87,185.02L13.74,180.12L17.17,178.97L20.61,176.82L24.04,175.64L30.91,172.69L34.34,171.85L65.25,157.21L68.69,156.59L72.12,153.61L75.56,152.74L78.99,151.89L82.42,150L92.73,145.1L96.16,143.74L103.03,140.41L106.46,139.36L113.33,135.64L116.77,134.19L130.51,128.1L133.94,125.95L140.81,123.87L144.24,121.44L151.11,119.15L154.55,116.82L157.98,116.05L161.41,114.31L178.59,106.64L182.02,105.33L188.89,101.93L192.32,100.52L209.49,93.25L212.93,91.32L216.36,90.09L219.8,87.87L230.1,83.81L233.54,82.07L243.84,77.4L247.27,75.81L250.71,74.88L254.14,72.77L267.88,66.95L271.31,65.2L295.35,54.39L298.79,53.45L309.09,48.7L312.53,46.95L333.13,38.01L336.57,36.4L340,34.33" style="vector-effect: non-scaling-stroke; fill: none; stroke: rgb(59, 81, 138); stroke-opacity: 1; stroke-width: 1px; opacity: 1;"/></g><g class="points"/><g class="text"/></g><g class="trace scatter tracea977be" style="stroke-miterlimit: 2; opacity: 1;"><g class="fills"/><g class="errorbars"/><g class="lines"><path class="js-line" d="M0,188.02L3.43,185.43L6.87,185.16L10.3,182.4L13.74,181.28L17.17,179.09L20.61,178.57L24.04,175.21L27.47,174.75L34.34,172.91L37.78,170.12L44.65,167.72L48.08,165.42L51.52,164.04L54.95,161.84L61.82,159.42L65.25,157.75L68.69,156.95L72.12,154.58L75.56,152.76L78.99,151.9L99.6,142.22L103.03,140.89L109.9,138.01L113.33,136.16L120.2,132.41L123.64,130.8L127.07,129.15L130.51,128.39L137.37,124.18L140.81,123.71L151.11,118.46L154.55,116.69L157.98,116.17L161.41,113.54L171.72,110.01L175.15,107.73L185.45,102.69L188.89,100.98L195.76,98.59L199.19,96.94L202.63,96.6L206.06,94.15L209.49,90.04L212.93,91.49L223.23,84.9L226.67,84.04L240.4,78.16L243.84,76.03L250.71,73.83L254.14,72.06L257.58,70.68L261.01,67.9L267.88,66.2L271.31,63.55L278.18,60.51L281.62,58.45L291.92,55.2L295.35,52.86L302.22,48.95L305.66,47.78L312.53,44.7L315.96,42.82L322.83,39.92L326.26,38.52L340,32.05" style="vector-effect: non-scaling-stroke; fill: none; stroke: rgb(45, 114, 142); stroke-opacity: 1; stroke-width: 1px; opacity: 1;"/></g><g class="points"/><g class="text"/></g><g class="trace scatter tracec3f1f3" style="stroke-miterlimit: 2; opacity: 1;"><g class="fills"/><g class="errorbars"/><g class="lines"><path class="js-line" d="M0,207.76L6.87,205.25L10.3,202.77L13.74,199.8L17.17,198.49L20.61,196.14L24.04,194.85L27.47,192.22L30.91,191.38L37.78,186.68L41.21,185.11L54.95,176.82L58.38,175.75L65.25,171.93L68.69,169.06L72.12,168.38L75.56,165.95L78.99,165.35L82.42,162.97L89.29,159.77L92.73,156.92L96.16,156.04L99.6,152.32L106.46,148.98L109.9,147.34L113.33,146.23L116.77,143.15L120.2,142.68L123.64,140.51L130.51,136.05L133.94,134.79L137.37,132.53L140.81,131.96L151.11,125.24L154.55,124.27L161.41,119.5L164.85,118.85L178.59,110.98L182.02,109.2L185.45,109.08L188.89,105.44L195.76,100.72L199.19,101.58L202.63,98.48L206.06,96.75L212.93,93.22L216.36,91.36L223.23,87.02L226.67,85.71L236.97,80.61L240.4,76.94L243.84,76.63L247.27,74.65L257.58,69.08L261.01,68.27L264.44,64.65L267.88,63.72L281.62,56.68L285.05,55.08L288.48,53.43L291.92,50.28L295.35,49.77L298.79,47.46L315.96,38.59L319.39,36.54L322.83,35.82L326.26,32.39L329.7,31.94L333.13,28.33L340,25.95" style="vector-effect: non-scaling-stroke; fill: none; stroke: rgb(43, 118, 142); stroke-opacity: 1; stroke-width: 1px; opacity: 1;"/></g><g class="points"/><g class="text"/></g><g class="trace scatter trace8e7418" style="stroke-miterlimit: 2; opacity: 1;"><g class="fills"/><g class="errorbars"/><g class="lines"><path class="js-line" d="M0,252.81L3.43,247.88L6.87,246.63L10.3,243.54L13.74,241.84L24.04,234.08L27.47,228.76L30.91,229.93L34.34,228.04L44.65,217.09L48.08,214.73L51.52,215.76L54.95,212.13L58.38,210.27L61.82,206.59L65.25,203.14L68.69,201.4L75.56,197.58L78.99,193.72L85.86,187.86L89.29,187.51L109.9,173.02L113.33,168.62L120.2,165.59L123.64,162.28L130.51,158.17L133.94,155.14L137.37,153.5L140.81,149.75L154.55,140.5L157.98,137.79L161.41,136.27L164.85,132.3L168.28,132.16L171.72,128.4L175.15,126.59L178.59,122.67L182.02,122.05L185.45,118.84L188.89,117.53L192.32,114.71L195.76,109.2L199.19,111L206.06,103.34L209.49,100.19L212.93,98.75L216.36,95.31L219.8,95.92L223.23,90.9L226.67,89.92L230.1,86.96L233.54,85.17L236.97,82.09L240.4,81.87L243.84,78.36L247.27,73.62L250.71,76.05L254.14,70.91L257.58,68.68L261.01,65.26L264.44,65.93L267.88,61.28L271.31,59.11L274.75,57.59L278.18,54.85L281.62,54.87L285.05,50.87L288.48,49.25L291.92,46.62L298.79,40.5L302.22,40.05L312.53,33.45L315.96,30.59L319.39,27.16L322.83,26.97L333.13,17.84L336.57,18.26L340,13.6" style="vector-effect: non-scaling-stroke; fill: none; stroke: rgb(41, 122, 142); stroke-opacity: 1; stroke-width: 1px; opacity: 1;"/></g><g class="points"/><g class="text"/></g><g class="trace scatter trace26e178" style="stroke-miterlimit: 2; opacity: 1;"><g class="fills"/><g class="errorbars"/><g class="lines"><path class="js-line" d="M0,158.24L13.74,153.95L17.17,152.74L24.04,150.68L27.47,149.17L30.91,148.73L34.34,147L37.78,146.63L41.21,145.34L51.52,142.38L54.95,140.53L65.25,137.64L68.69,136.53L82.42,132.36L85.86,130.86L89.29,130.37L92.73,128.97L109.9,123.54L113.33,122.62L133.94,116.17L137.37,114.78L185.45,99.68L188.89,98.77L192.32,97.51L195.76,97.06L199.19,95.91L202.63,93.81L206.06,93.61L209.49,92.05L212.93,91.58L216.36,90.03L219.8,89.32L223.23,87.68L236.97,83.91L240.4,82.42L250.71,79.36L254.14,78.36L264.44,74.74L267.88,74.02L274.75,71.8L278.18,70.42L281.62,69.7L285.05,68.11L288.48,67.56L291.92,66.11L295.35,65.52L298.79,63.59L305.66,62.43L309.09,60.74L322.83,56.36L326.26,55.26L340,51.48" style="vector-effect: non-scaling-stroke; fill: none; stroke: rgb(40, 126, 142); stroke-opacity: 1; stroke-width: 1px; opacity: 1;"/></g><g class="points"/><g class="text"/></g><g class="trace scatter trace51f214" style="stroke-miterlimit: 2; opacity: 1;"><g class="fills"/><g class="errorbars"/><g class="lines"><path class="js-line" d="M0,185.19L3.43,182.5L6.87,181.72L17.17,177.03L20.61,175.32L27.47,172.62L30.91,170.74L41.21,166.82L44.65,164.63L48.08,162.88L51.52,162.27L54.95,159.24L58.38,159.16L61.82,156.98L65.25,155.86L72.12,152.22L75.56,151.08L78.99,150.69L82.42,148.17L89.29,145.36L92.73,143.15L99.6,140.61L103.03,138.88L137.37,123.89L140.81,122.29L144.24,119.76L147.68,118.94L154.55,115.91L157.98,114.71L161.41,112.59L164.85,111.43L168.28,109.63L171.72,108.95L175.15,106.41L178.59,105.26L185.45,102.64L188.89,100.76L192.32,99.2L195.76,99.32L199.19,96.57L202.63,95.24L209.49,90.78L212.93,89.73L219.8,87.36L223.23,85.59L236.97,79.66L240.4,77.72L250.71,73.57L254.14,71.84L274.75,62.52L278.18,61.4L285.05,58.09L288.48,56.73L298.79,52.03L302.22,50.74L315.96,44.4L319.39,43.21L329.7,38.11L333.13,36.82L340,33.73" style="vector-effect: non-scaling-stroke; fill: none; stroke: rgb(38, 130, 142); stroke-opacity: 1; stroke-width: 1px; opacity: 1;"/></g><g class="points"/><g class="text"/></g><g class="trace scatter trace4abc0f" style="stroke-miterlimit: 2; opacity: 1;"><g class="fills"/><g class="errorbars"/><g class="lines"><path class="js-line" d="M0,162.69L3.43,162.04L6.87,160.43L13.74,158.5L17.17,157.35L24.04,154.39L27.47,153.74L37.78,150.09L41.21,149.02L51.52,145.32L54.95,144.21L68.69,139.82L72.12,138.69L82.42,135.32L85.86,134.31L96.16,130.16L99.6,129.02L106.46,127.16L109.9,125.58L113.33,124.88L116.77,123.1L130.51,118.95L133.94,117.83L147.68,112.57L151.11,111.93L157.98,109.43L161.41,108.54L178.59,102.62L182.02,101.45L192.32,98.09L195.76,96.45L212.93,91.45L216.36,89.66L223.23,87.88L226.67,86.11L233.54,84.19L236.97,83.07L285.05,66.68L288.48,65.9L295.35,63.25L298.79,62.07L319.39,54.76L322.83,53.94L340,48.14" style="vector-effect: non-scaling-stroke; fill: none; stroke: rgb(37, 135, 141); stroke-opacity: 1; stroke-width: 1px; opacity: 1;"/></g><g class="points"/><g class="text"/></g><g class="trace scatter trace9d9466" style="stroke-miterlimit: 2; opacity: 1;"><g class="fills"/><g class="errorbars"/><g class="lines"><path class="js-line" d="M0,201.42L3.43,200.07L6.87,197.66L10.3,196.91L13.74,194.82L17.17,192.22L20.61,190.6L27.47,187.1L30.91,186.52L34.34,183.82L37.78,182.16L51.52,174.63L54.95,173.63L58.38,170.82L61.82,169.23L72.12,165.21L75.56,162.43L82.42,158.8L85.86,157.42L89.29,154.87L92.73,153.65L103.03,147.96L106.46,145.8L130.51,135.29L133.94,133.25L137.37,131.78L140.81,129.39L151.11,125.41L154.55,122.64L161.41,119.19L164.85,118.42L168.28,117.11L171.72,114.04L178.59,110.24L182.02,108.73L185.45,106.58L188.89,105.53L209.49,95.7L212.93,93.4L216.36,92.66L219.8,90.29L226.67,86.69L230.1,85.05L240.4,80.98L243.84,78.71L254.14,74.23L257.58,70.68L261.01,70.21L264.44,68.77L281.62,60.24L285.05,57.37L288.48,57.48L291.92,54.01L295.35,53.73L298.79,51.22L309.09,46.39L312.53,44.68L326.26,37.82L329.7,36.69L333.13,35.46L336.57,31.97L340,31.52" style="vector-effect: non-scaling-stroke; fill: none; stroke: rgb(36, 140, 140); stroke-opacity: 1; stroke-width: 1px; opacity: 1;"/></g><g class="points"/><g class="text"/></g><g class="trace scatter traceb13ba6" style="stroke-miterlimit: 2; opacity: 1;"><g class="fills"/><g class="errorbars"/><g class="lines"><path class="js-line" d="M0,164.57L34.34,152.63L37.78,151.73L68.69,141.17L72.12,139.66L82.42,136.25L85.86,135.14L147.68,113.49L151.11,112.08L154.55,110.46L157.98,110.25L175.15,104.21L178.59,103.26L188.89,99.32L192.32,97.93L209.49,92.44L212.93,91.36L226.67,86.18L230.1,85.13L267.88,72.07L271.31,71.04L288.48,65L291.92,63.76L326.26,52.35L329.7,50.52L340,46.99" style="vector-effect: non-scaling-stroke; fill: none; stroke: rgb(34, 144, 140); stroke-opacity: 1; stroke-width: 1px; opacity: 1;"/></g><g class="points"/><g class="text"/></g><g class="trace scatter traceb9982e" style="stroke-miterlimit: 2; opacity: 1;"><g class="fills"/><g class="errorbars"/><g class="lines"><path class="js-line" d="M0,163.54L13.74,158.82L17.17,157.85L27.47,154.01L30.91,153.18L54.95,144.26L58.38,143.72L85.86,134.48L89.29,133.05L109.9,126.43L113.33,125.03L144.24,114.64L147.68,113.08L226.67,86.65L230.1,85.26L319.39,54.94L322.83,53.3L340,47.81" style="vector-effect: non-scaling-stroke; fill: none; stroke: rgb(33, 148, 139); stroke-opacity: 1; stroke-width: 1px; opacity: 1;"/></g><g class="points"/><g class="text"/></g><g class="trace scatter trace5cad58" style="stroke-miterlimit: 2; opacity: 1;"><g class="fills"/><g class="errorbars"/><g class="lines"><path class="js-line" d="M0,148.87L30.91,140.46L34.34,139.58L75.56,128.55L78.99,127.54L130.51,113.72L133.94,112.85L154.55,107.08L157.98,106.31L195.76,96.1L199.19,95.36L219.8,89.93L223.23,88.65L233.54,86.21L236.97,84.89L240.4,84.51L243.84,83.06L250.71,81.3L254.14,80.37L340,57.09" style="vector-effect: non-scaling-stroke; fill: none; stroke: rgb(32, 153, 138); stroke-opacity: 1; stroke-width: 1px; opacity: 1;"/></g><g class="points"/><g class="text"/></g><g class="trace scatter tracecfeda1" style="stroke-miterlimit: 2; opacity: 1;"><g class="fills"/><g class="errorbars"/><g class="lines"><path class="js-line" d="M0,165.89L27.47,156L30.91,155.2L37.78,152.7L41.21,151.3L51.52,147.55L54.95,146.16L65.25,143.18L68.69,141.73L78.99,138.41L82.42,136.81L96.16,132.2L99.6,130.95L315.96,54.83L319.39,53.48L340,46.08" style="vector-effect: non-scaling-stroke; fill: none; stroke: rgb(31, 158, 137); stroke-opacity: 1; stroke-width: 1px; opacity: 1;"/></g><g class="points"/><g class="text"/></g><g class="trace scatter tracef9c1e7" style="stroke-miterlimit: 2; opacity: 1;"><g class="fills"/><g class="errorbars"/><g class="lines"><path class="js-line" d="M0,185.93L24.04,174.88L27.47,172.99L34.34,170.74L37.78,168.74L51.52,162.63L54.95,160.69L58.38,159.78L61.82,158.06L116.77,133.64L120.2,131.74L127.07,129.15L130.51,127.74L147.68,119.69L151.11,118.96L154.55,116.37L157.98,115.36L171.72,109.63L175.15,107.93L202.63,95.99L206.06,94.09L240.4,78.85L243.84,77.81L247.27,74.7L250.71,74.67L281.62,61.03L285.05,59.64L288.48,58.22L291.92,55.35L298.79,53.61L302.22,51.56L329.7,39.9L333.13,38.53L340,34.89" style="vector-effect: non-scaling-stroke; fill: none; stroke: rgb(34, 162, 135); stroke-opacity: 1; stroke-width: 1px; opacity: 1;"/></g><g class="points"/><g class="text"/></g><g class="trace scatter trace8498bb" style="stroke-miterlimit: 2; opacity: 1;"><g class="fills"/><g class="errorbars"/><g class="lines"><path class="js-line" d="M0,186.25L20.61,176.45L24.04,175.14L30.91,172.23L34.34,171.04L51.52,163.05L54.95,161.45L68.69,155.72L72.12,153.84L89.29,146.6L92.73,145.06L103.03,140.19L106.46,138.97L151.11,118.56L154.55,117.37L168.28,111.04L171.72,109.8L192.32,99.67L195.76,98.75L267.88,66.87L271.31,64.56L274.75,63.89L278.18,61.55L298.79,53.23L302.22,51.01L305.66,50.16L309.09,48.28L326.26,40.94L329.7,38.97L333.13,37.9L336.57,35.96L340,34.64" style="vector-effect: non-scaling-stroke; fill: none; stroke: rgb(38, 166, 132); stroke-opacity: 1; stroke-width: 1px; opacity: 1;"/></g><g class="points"/><g class="text"/></g><g class="trace scatter trace6e2584" style="stroke-miterlimit: 2; opacity: 1;"><g class="fills"/><g class="errorbars"/><g class="lines"><path class="js-line" d="M0,186.18L6.87,183.41L10.3,180.89L17.17,178.84L20.61,176.7L34.34,170.94L37.78,169.83L44.65,166.23L48.08,165.17L54.95,161.26L58.38,160.09L72.12,153.45L75.56,152.27L92.73,144.56L96.16,143.86L99.6,140.91L103.03,140.05L109.9,137.51L113.33,135.52L130.51,127.82L133.94,127.05L137.37,124.3L140.81,123.19L147.68,119.66L151.11,118.22L154.55,117.82L157.98,115.65L161.41,113.79L164.85,113.12L188.89,102.01L192.32,100.63L199.19,97.02L202.63,96.38L212.93,90.41L216.36,90.18L219.8,87.8L223.23,86.42L240.4,79.63L243.84,77.57L267.88,67.33L271.31,64.58L281.62,60.97L285.05,59.56L309.09,49.09L312.53,47.02L319.39,44.15L322.83,42.52L340,35.48" style="vector-effect: non-scaling-stroke; fill: none; stroke: rgb(41, 170, 130); stroke-opacity: 1; stroke-width: 1px; opacity: 1;"/></g><g class="points"/><g class="text"/></g><g class="trace scatter tracee06d82" style="stroke-miterlimit: 2; opacity: 1;"><g class="fills"/><g class="errorbars"/><g class="lines"><path class="js-line" d="M0,58.11L3.43,61.68L6.87,59L10.3,64.73L13.74,62.27L17.17,64.28L20.61,67.52L27.47,65.75L30.91,70.35L34.34,71.13L37.78,69.34L48.08,74.69L51.52,75.13L54.95,76.88L58.38,75.69L61.82,75.49L65.25,78.66L72.12,79.73L75.56,81.28L78.99,82.04L82.42,79.05L85.86,83.36L89.29,84.71L92.73,85.73L96.16,85.42L99.6,85.92L103.03,88.61L106.46,90.02L109.9,87.41L113.33,90.91L116.77,91.03L123.64,88.93L127.07,91.8L130.51,92.97L133.94,95.59L137.37,96.66L140.81,96.92L147.68,99.84L151.11,98.97L157.98,101.63L161.41,101.49L168.28,98.86L171.72,104L175.15,103.3L178.59,107.11L182.02,104.66L185.45,105.07L188.89,107.27L192.32,107.29L195.76,103.81L199.19,105.52L202.63,106.05L206.06,108.07L212.93,107.14L216.36,110.94L219.8,114.89L223.23,111.85L230.1,113.39L233.54,113.25L240.4,112.5L243.84,116.07L247.27,114.25L250.71,114.63L261.01,118.38L264.44,119.02L267.88,120.24L271.31,118.03L274.75,121.14L278.18,120.7L281.62,121.2L285.05,123.4L295.35,124.08L298.79,125.29L302.22,126.78L305.66,127.39L309.09,128.43L312.53,128.24L322.83,129.72L326.26,130.04L333.13,130.8L336.57,130.01L340,131.77" style="vector-effect: non-scaling-stroke; fill: none; stroke: rgb(45, 174, 127); stroke-opacity: 1; stroke-width: 1px; opacity: 1;"/></g><g class="points"/><g class="text"/></g><g class="trace scatter trace49c1d3" style="stroke-miterlimit: 2; opacity: 1;"><g class="fills"/><g class="errorbars"/><g class="lines"><path class="js-line" d="M0,207.07L3.43,203.91L6.87,204.17L10.3,200.61L13.74,200.49L24.04,192.89L27.47,192.06L37.78,186.63L41.21,184.06L48.08,181.05L51.52,179.01L54.95,177.87L58.38,174.75L65.25,171.64L68.69,169.99L82.42,161.89L85.86,161.22L92.73,157.03L96.16,155.44L99.6,153.92L103.03,150.82L106.46,150.22L109.9,148.07L113.33,144.89L116.77,143.84L120.2,142.51L123.64,138.88L127.07,138.79L130.51,137.02L133.94,134.58L137.37,135.2L140.81,131.27L144.24,130.09L151.11,125.32L154.55,124.35L161.41,119.22L164.85,118.59L178.59,111.18L182.02,108.24L192.32,103.13L195.76,101.19L199.19,98.58L202.63,98.61L226.67,85.33L230.1,84.82L233.54,81.44L236.97,80.67L240.4,77.58L243.84,76.8L254.14,71.78L257.58,68.59L261.01,68.56L264.44,65.63L267.88,64.33L271.31,61.59L285.05,55.68L288.48,52.18L295.35,50.09L298.79,47.91L305.66,44.55L309.09,42.58L315.96,38.59L319.39,37.39L329.7,32.3L333.13,28.4L340,26.29" style="vector-effect: non-scaling-stroke; fill: none; stroke: rgb(96, 200, 96); stroke-opacity: 1; stroke-width: 1px; opacity: 1;"/></g><g class="points"/><g class="text"/></g><g class="trace scatter traceebced4" style="stroke-miterlimit: 2; opacity: 1;"><g class="fills"/><g class="errorbars"/><g class="lines"><path class="js-line" d="M0,258.4L6.87,252.32L10.3,250.61L13.74,247.58L17.17,245.68L20.61,242.83L24.04,238.85L27.47,238.78L30.91,235.3L34.34,233.14L37.78,228.78L41.21,227.17L44.65,224.47L48.08,223.08L51.52,219.78L54.95,219.4L58.38,215.73L61.82,211.25L65.25,208.74L68.69,206.98L72.12,203.06L75.56,202.4L78.99,199.25L89.29,193.26L92.73,188.01L103.03,180.06L106.46,178.74L109.9,175.92L113.33,175.1L116.77,171.78L120.2,170.44L123.64,165.91L127.07,164.52L133.94,160.6L137.37,156.25L147.68,149.78L151.11,147.12L154.55,143.63L157.98,142.45L161.41,140.65L164.85,136.22L168.28,133.17L171.72,131.71L178.59,127.2L182.02,123.88L188.89,121.12L192.32,117.61L195.76,117.02L199.19,113.81L202.63,109.21L206.06,106.46L209.49,102.36L212.93,101.16L219.8,95.5L223.23,95.49L230.1,89.76L233.54,87.69L236.97,83.76L240.4,83.24L247.27,75.36L250.71,76.94L257.58,69.44L261.01,67.09L264.44,68.27L267.88,62.05L271.31,63.63L274.75,59.55L278.18,55.47L281.62,55.2L285.05,51.39L288.48,49.77L291.92,47.82L295.35,44.71L298.79,41.04L302.22,43.76L305.66,38.49L309.09,36.83L322.83,26.29L326.26,24.35L329.7,22.39L333.13,18.62L336.57,19.93L340,14.66" style="vector-effect: non-scaling-stroke; fill: none; stroke: rgb(105, 204, 91); stroke-opacity: 1; stroke-width: 1px; opacity: 1;"/></g><g class="points"/><g class="text"/></g><g class="trace scatter trace86f8fc" style="stroke-miterlimit: 2; opacity: 1;"><g class="fills"/><g class="errorbars"/><g class="lines"><path class="js-line" d="M0,156.02L13.74,151.77L17.17,150.59L24.04,148.55L27.47,147.41L48.08,141.38L51.52,140.2L72.12,134.04L75.56,133.16L85.86,129.66L89.29,128.72L106.46,123.52L109.9,122.41L127.07,117.22L130.51,116.23L144.24,112.35L147.68,110.75L195.76,96.77L199.19,94.95L209.49,92.85L212.93,91.53L216.36,89.94L219.8,89.52L223.23,87.92L226.67,87.51L230.1,85.71L233.54,84.96L240.4,82.86L243.84,82.12L250.71,79.89L254.14,78.51L264.44,75.73L267.88,74.28L271.31,73.71L274.75,72.19L278.18,71.56L281.62,70.15L285.05,69.53L288.48,68.05L298.79,65.29L302.22,63.95L312.53,60.92L315.96,59.78L326.26,56.78L329.7,55.41L333.13,54.99L336.57,53.5L340,52.32" style="vector-effect: non-scaling-stroke; fill: none; stroke: rgb(115, 207, 85); stroke-opacity: 1; stroke-width: 1px; opacity: 1;"/></g><g class="points"/><g class="text"/></g><g class="trace scatter tracead42db" style="stroke-miterlimit: 2; opacity: 1;"><g class="fills"/><g class="errorbars"/><g class="lines"><path class="js-line" d="M0,184.57L6.87,181.15L10.3,180.31L20.61,175.2L24.04,174.07L27.47,171.43L30.91,170.31L48.08,163.36L51.52,161.68L54.95,159.43L58.38,158.93L61.82,156.95L65.25,155.85L82.42,147.82L85.86,146.43L113.33,134.44L116.77,132.36L120.2,131.73L123.64,130.26L127.07,127.92L130.51,126.6L147.68,119.36L151.11,116.6L157.98,114.71L161.41,113.04L178.59,105.52L182.02,104.01L188.89,100.9L192.32,99.24L195.76,97.79L199.19,97.33L212.93,90.25L216.36,89.58L226.67,84.21L230.1,83.47L233.54,81.15L236.97,80.17L240.4,77.68L243.84,76.51L247.27,76.24L250.71,73.02L261.01,69.14L264.44,67.58L267.88,66.18L271.31,63.72L274.75,63.73L278.18,61.54L281.62,59.41L285.05,58.49L288.48,56.77L291.92,55.89L298.79,52.19L302.22,51.17L309.09,48.11L312.53,46.25L329.7,38.6L333.13,38.33L336.57,35.74L340,34.15" style="vector-effect: non-scaling-stroke; fill: none; stroke: rgb(126, 210, 78); stroke-opacity: 1; stroke-width: 1px; opacity: 1;"/></g><g class="points"/><g class="text"/></g><g class="trace scatter trace6af327" style="stroke-miterlimit: 2; opacity: 1;"><g class="fills"/><g class="errorbars"/><g class="lines"><path class="js-line" d="M0,162.81L3.43,161.88L6.87,159.78L17.17,157.17L20.61,155.92L27.47,153.34L30.91,152.23L41.21,148.98L44.65,147.72L68.69,139.48L72.12,138.34L106.46,126.73L109.9,125.86L154.55,110.4L157.98,109.6L199.19,95.55L202.63,94.84L212.93,91.15L216.36,90L233.54,84.24L236.97,83.12L243.84,80.63L247.27,80.56L250.71,78.21L254.14,77.39L274.75,70.31L278.18,69.49L305.66,59.76L309.09,58.75L315.96,56.22L319.39,55.24L340,48.11" style="vector-effect: non-scaling-stroke; fill: none; stroke: rgb(138, 212, 70); stroke-opacity: 1; stroke-width: 1px; opacity: 1;"/></g><g class="points"/><g class="text"/></g><g class="trace scatter trace1de762" style="stroke-miterlimit: 2; opacity: 1;"><g class="fills"/><g class="errorbars"/><g class="lines"><path class="js-line" d="M0,199.25L6.87,194.78L10.3,193.45L13.74,192.66L17.17,189.94L20.61,188.12L24.04,187.72L27.47,184.15L30.91,183.53L41.21,178.39L44.65,177L51.52,172.25L54.95,173.63L58.38,170.13L61.82,167.85L65.25,165.81L68.69,165.01L82.42,158.11L85.86,156.54L89.29,153.64L92.73,152.54L106.46,145.24L109.9,144.65L116.77,140.11L120.2,138.89L127.07,135.5L130.51,134.04L137.37,130.16L140.81,129.26L144.24,126.32L147.68,124.71L151.11,123.64L154.55,121L157.98,120.42L161.41,118.46L164.85,116.12L168.28,116.32L171.72,112.72L175.15,111.8L182.02,107.99L185.45,106.7L188.89,104.59L192.32,104.12L195.76,98.46L199.19,97.97L206.06,96.42L209.49,95.34L212.93,91.54L216.36,90.02L219.8,90.03L223.23,86.36L233.54,82.62L236.97,81.71L240.4,78.95L243.84,78.21L247.27,74.69L250.71,74.03L254.14,73.32L257.58,70.16L261.01,70.89L264.44,66.63L267.88,66.04L271.31,64.37L278.18,61.3L281.62,57.86L288.48,56.62L291.92,53.57L295.35,52.05L298.79,51.45L302.22,48.52L305.66,47.67L309.09,46.69L312.53,44.58L315.96,41.65L319.39,41.08L322.83,39.73L326.26,37.07L329.7,36.17L333.13,33.03L336.57,30.91L340,31.23" style="vector-effect: non-scaling-stroke; fill: none; stroke: rgb(149, 215, 63); stroke-opacity: 1; stroke-width: 1px; opacity: 1;"/></g><g class="points"/><g class="text"/></g><g class="trace scatter trace834d57" style="stroke-miterlimit: 2; opacity: 1;"><g class="fills"/><g class="errorbars"/><g class="lines"><path class="js-line" d="M0,164.67L27.47,154.83L30.91,154.12L48.08,148.11L51.52,146.95L68.69,140.86L72.12,140.06L82.42,136.02L85.86,134.92L92.73,132.69L96.16,131.51L99.6,130.87L103.03,128.65L109.9,126.78L113.33,125.63L130.51,119.61L133.94,118.41L188.89,99.31L192.32,98.26L243.84,80.91L247.27,79.14L257.58,75.95L261.01,74.46L295.35,62.62L298.79,61.59L315.96,55.31L319.39,54.13L340,46.98" style="vector-effect: non-scaling-stroke; fill: none; stroke: rgb(161, 217, 56); stroke-opacity: 1; stroke-width: 1px; opacity: 1;"/></g><g class="points"/><g class="text"/></g><g class="trace scatter trace038856" style="stroke-miterlimit: 2; opacity: 1;"><g class="fills"/><g class="errorbars"/><g class="lines"><path class="js-line" d="M0,162.89L10.3,159.27L13.74,158.26L89.29,132.67L92.73,131.81L109.9,125.81L113.33,124.66L120.2,122.31L123.64,121.3L133.94,117.72L137.37,116.35L144.24,114.22L147.68,112.66L161.41,108.53L164.85,106.63L178.59,102.51L182.02,101.37L195.76,97.11L199.19,95.21L206.06,93.68L209.49,92.17L212.93,91.42L216.36,89.84L223.23,87.56L226.67,86.5L247.27,79.64L250.71,78.35L261.01,75.05L264.44,73.75L288.48,65.9L291.92,64.4L305.66,59.77L309.09,58.73L322.83,53.99L326.26,53.18L333.13,50.76L336.57,49.53L340,48.31" style="vector-effect: non-scaling-stroke; fill: none; stroke: rgb(172, 220, 49); stroke-opacity: 1; stroke-width: 1px; opacity: 1;"/></g><g class="points"/><g class="text"/></g><g class="trace scatter trace9a6b14" style="stroke-miterlimit: 2; opacity: 1;"><g class="fills"/><g class="errorbars"/><g class="lines"><path class="js-line" d="M0,148.77L10.3,145.83L13.74,145.08L75.56,128.3L78.99,127.36L113.33,118.27L116.77,117.02L123.64,115.56L127.07,114.6L199.19,95.46L202.63,94.1L209.49,92.36L212.93,91.62L226.67,87.71L230.1,87.13L240.4,84.05L243.84,83.38L254.14,80.37L257.58,79.75L264.44,77.79L267.88,76.69L285.05,72.02L288.48,71.1L295.35,69.34L298.79,68.19L312.53,64.64L315.96,63.75L340,57.21" style="vector-effect: non-scaling-stroke; fill: none; stroke: rgb(184, 222, 43); stroke-opacity: 1; stroke-width: 1px; opacity: 1;"/></g><g class="points"/><g class="text"/></g><g class="trace scatter trace7da454" style="stroke-miterlimit: 2; opacity: 1;"><g class="fills"/><g class="errorbars"/><g class="lines"><path class="js-line" d="M0,165.42L6.87,163.14L10.3,161.9L48.08,148.65L51.52,147.24L96.16,131.81L99.6,129.66L103.03,129.64L106.46,128.3L109.9,127.56L113.33,125.96L127.07,121.1L130.51,119.88L154.55,111.38L157.98,110.38L178.59,103.06L182.02,102.01L192.32,98.12L195.76,97.33L199.19,94.92L202.63,95L233.54,83.79L236.97,82.76L340,46.53" style="vector-effect: non-scaling-stroke; fill: none; stroke: rgb(195, 224, 42); stroke-opacity: 1; stroke-width: 1px; opacity: 1;"/></g><g class="points"/><g class="text"/></g><g class="trace scatter trace3239f1" style="stroke-miterlimit: 2; opacity: 1;"><g class="fills"/><g class="errorbars"/><g class="lines"><path class="js-line" d="M0,187.11L6.87,182.83L10.3,182.63L27.47,174.25L30.91,172.95L37.78,170.28L41.21,168.28L78.99,151.7L82.42,149.24L85.86,148.69L89.29,146.72L96.16,143.6L99.6,142.23L113.33,135.78L116.77,133.66L120.2,133.14L123.64,131.33L127.07,130.28L130.51,128.23L140.81,123.28L144.24,122.1L154.55,116.83L157.98,116.01L164.85,112.77L168.28,112.9L171.72,109.77L175.15,108.35L199.19,97.28L202.63,96.21L206.06,94.19L209.49,93.38L212.93,91.24L216.36,90.06L219.8,87.79L223.23,86.68L230.1,83.91L233.54,82.03L240.4,79.31L243.84,77.19L250.71,74.56L254.14,73L264.44,67.78L267.88,67.12L271.31,64.06L274.75,63.15L278.18,62.69L281.62,60.75L288.48,57.62L291.92,56.29L322.83,42.42L326.26,41.41L336.57,35.85L340,35.04" style="vector-effect: non-scaling-stroke; fill: none; stroke: rgb(207, 225, 41); stroke-opacity: 1; stroke-width: 1px; opacity: 1;"/></g><g class="points"/><g class="text"/></g><g class="trace scatter trace1d0d1d" style="stroke-miterlimit: 2; opacity: 1;"><g class="fills"/><g class="errorbars"/><g class="lines"><path class="js-line" d="M0,189.49L27.47,176.39L30.91,175.51L54.95,164.24L58.38,162.53L82.42,151.61L85.86,150.33L96.16,145.12L99.6,142.85L106.46,141.06L109.9,138.69L130.51,129.52L133.94,127.61L144.24,123.05L147.68,121.42L151.11,119.39L154.55,118.23L157.98,116.23L161.41,115.16L171.72,110.39L175.15,108.74L188.89,102.38L192.32,100.7L195.76,99.65L199.19,97.33L202.63,96.4L206.06,94.15L209.49,93.26L212.93,91.03L216.36,90.14L219.8,88.13L230.1,83.13L233.54,81.88L243.84,76.43L247.27,75.78L250.71,73.16L254.14,72.44L257.58,71.28L261.01,68.74L264.44,67.77L267.88,65.49L271.31,64.67L274.75,62.4L278.18,61.84L281.62,59.43L288.48,56.26L291.92,54.85L298.79,52.04L302.22,49.66L305.66,48.89L309.09,46.91L312.53,45.59L315.96,43.35L322.83,40.93L326.26,38.88L329.7,37.72L333.13,35.61L336.57,34.65L340,32.32" style="vector-effect: non-scaling-stroke; fill: none; stroke: rgb(218, 227, 40); stroke-opacity: 1; stroke-width: 1px; opacity: 1;"/></g><g class="points"/><g class="text"/></g><g class="trace scatter trace6ba479" style="stroke-miterlimit: 2; opacity: 1;"><g class="fills"/><g class="errorbars"/><g class="lines"><path class="js-line" d="M0,187.93L3.43,186.57L6.87,184.27L10.3,183.5L13.74,181.52L20.61,178.56L24.04,176.49L30.91,173.69L34.34,172.52L48.08,166.14L51.52,163.63L54.95,162.83L58.38,161.25L92.73,145.8L96.16,144.08L99.6,141.92L103.03,141.19L106.46,140.18L109.9,138.17L147.68,120.48L151.11,119.25L175.15,108.67L178.59,106.75L202.63,96.36L206.06,94.19L209.49,93.43L212.93,91.3L216.36,90.28L219.8,87.67L226.67,85.42L230.1,83.49L236.97,80.75L240.4,79.22L254.14,72.86L257.58,71.5L267.88,66.31L271.31,65.25L281.62,60.38L285.05,59.15L295.35,54.46L298.79,53.02L302.22,51.83L305.66,49.68L322.83,42.02L326.26,40.63L329.7,38.67L333.13,37.69L336.57,35.48L340,34.4" style="vector-effect: non-scaling-stroke; fill: none; stroke: rgb(230, 228, 39); stroke-opacity: 1; stroke-width: 1px; opacity: 1;"/></g><g class="points"/><g class="text"/></g><g class="trace scatter tracead5694" style="stroke-miterlimit: 2; opacity: 1;"><g class="fills"/><g class="errorbars"/><g class="lines"><path class="js-line" d="M0,54.53L3.43,56.58L6.87,54.11L10.3,59.62L13.74,56.76L20.61,63.7L24.04,60.66L27.47,62.57L30.91,65.53L34.34,67.05L37.78,65.78L44.65,68.34L48.08,69.18L54.95,72.61L58.38,73L61.82,73.83L65.25,72.98L68.69,76.5L72.12,77.37L78.99,78.94L82.42,79.18L89.29,81.15L92.73,80.98L96.16,83.03L99.6,83.8L103.03,85.82L106.46,85.08L109.9,85.29L113.33,88.11L120.2,89.09L123.64,88.39L127.07,90.4L130.51,95.1L133.94,94.33L137.37,95.49L140.81,94.68L144.24,95.91L147.68,100.27L151.11,97L157.98,100.15L161.41,99.3L168.28,102.5L171.72,101.73L175.15,103.4L178.59,106.08L182.02,104.13L185.45,105.98L188.89,107.81L192.32,107.34L195.76,103.89L199.19,110.56L202.63,107.58L206.06,107.82L212.93,111.58L216.36,110.41L219.8,110.96L223.23,112.5L233.54,114.43L236.97,114.16L240.4,117.46L243.84,116.07L247.27,115.74L250.71,118.64L254.14,118.66L257.58,119.46L261.01,123.07L264.44,123.56L271.31,120.26L274.75,123.65L278.18,121.61L281.62,127.02L285.05,126.96L288.48,127.93L295.35,128.34L298.79,126.98L305.66,129.76L309.09,130.87L315.96,130.03L319.39,132.01L326.26,133.16L329.7,133.46L333.13,132.93L336.57,134.3L340,135.15" style="vector-effect: non-scaling-stroke; fill: none; stroke: rgb(241, 230, 38); stroke-opacity: 1; stroke-width: 1px; opacity: 1;"/></g><g class="points"/><g class="text"/></g><g class="trace scatter trace08505a" style="stroke-miterlimit: 2; opacity: 1;"><g class="fills"/><g class="errorbars"/><g class="lines"><path class="js-line" d="M0,165.06L24.04,156.66L27.47,155.01L34.34,153.66L37.78,151.99L51.52,147.08L54.95,146.93L61.82,143.5L65.25,142.56L85.86,135.21L89.29,134.42L99.6,130.37L103.03,129.32L182.02,101.62L185.45,100.42L195.76,97.65L199.19,95.51L206.06,93.67L209.49,92.33L219.8,88.77L223.23,87.31L230.1,85.72L233.54,83.99L250.71,78.09L254.14,76.9L267.88,72.03L271.31,70.8L340,46.64" style="vector-effect: non-scaling-stroke; fill: none; stroke: rgb(253, 231, 37); stroke-opacity: 1; stroke-width: 1px; opacity: 1;"/></g><g class="points"/><g class="text"/></g><g class="trace scatter trace1ca4fb" style="stroke-miterlimit: 2; opacity: 1;"><g class="fills"/><g class="errorbars"/><g class="lines"><path class="js-line" d="M0,190.41L13.74,184.45L17.17,184.18L20.61,182.69L24.04,180.07L27.47,177.8L30.91,177.76L34.34,177.26L37.78,174.77L48.08,171.92L51.52,170.18L54.95,167.44L58.38,167.24L61.82,166.01L65.25,163.97L72.12,161.14L75.56,160.22L82.42,156.67L85.86,155.86L99.6,149.58L103.03,148.91L116.77,142.02L120.2,141.87L147.68,130.5L151.11,130.09L154.55,126.48L157.98,126.18L164.85,123.41L168.28,123.63L175.15,118.46L178.59,117.64L182.02,116.73L185.45,114.87L199.19,109.73L202.63,107.73L209.49,103.16L212.93,102.48L223.23,97.4L226.67,96.83L243.84,90.86L247.27,87.86L254.14,86.74L257.58,84.75L264.44,82.57L267.88,80.22L278.18,76.54L281.62,75.17L288.48,72.54L291.92,71.11L295.35,69.81L298.79,69.38L302.22,66.69L305.66,66.01L312.53,62.75L315.96,61.3L322.83,58.06L326.26,57.83L333.13,54.06L336.57,53.45L340,51.55" style="vector-effect: non-scaling-stroke; fill: none; stroke: rgb(169, 169, 169); stroke-opacity: 1; stroke-width: 2px; opacity: 1;"/></g><g class="points"/><g class="text"/></g></g></g><g class="overplot"/><path class="xlines-above crisp" d="M0,0" style="fill: none;"/><path class="ylines-above crisp" d="M0,0" style="fill: none;"/><g class="overlines-above"/><g class="xaxislayer-above"><g class="x3tick"><text text-anchor="middle" x="0" y="1133" transform="translate(80,0)" style="font-family: 'Open Sans', verdana, arial, sans-serif; font-size: 12px; fill: rgb(42, 63, 95); fill-opacity: 1; white-space: pre; opacity: 1;">2.66</text></g><g class="x3tick"><text text-anchor="middle" x="0" y="1133" style="font-family: 'Open Sans', verdana, arial, sans-serif; font-size: 12px; fill: rgb(42, 63, 95); fill-opacity: 1; white-space: pre; opacity: 1;" transform="translate(148,0)">2.68</text></g><g class="x3tick"><text text-anchor="middle" x="0" y="1133" style="font-family: 'Open Sans', verdana, arial, sans-serif; font-size: 12px; fill: rgb(42, 63, 95); fill-opacity: 1; white-space: pre; opacity: 1;" transform="translate(216,0)">2.7</text></g><g class="x3tick"><text text-anchor="middle" x="0" y="1133" style="font-family: 'Open Sans', verdana, arial, sans-serif; font-size: 12px; fill: rgb(42, 63, 95); fill-opacity: 1; white-space: pre; opacity: 1;" transform="translate(284,0)">2.72</text></g><g class="x3tick"><text text-anchor="middle" x="0" y="1133" style="font-family: 'Open Sans', verdana, arial, sans-serif; font-size: 12px; fill: rgb(42, 63, 95); fill-opacity: 1; white-space: pre; opacity: 1;" transform="translate(352,0)">2.74</text></g><g class="x3tick"><text text-anchor="middle" x="0" y="1133" style="font-family: 'Open Sans', verdana, arial, sans-serif; font-size: 12px; fill: rgb(42, 63, 95); fill-opacity: 1; white-space: pre; opacity: 1;" transform="translate(420,0)">2.76</text></g></g><g class="yaxislayer-above"><g class="y3tick"><text text-anchor="end" x="79" y="4.199999999999999" transform="translate(0,1063.5600000000002)" style="font-family: 'Open Sans', verdana, arial, sans-serif; font-size: 12px; fill: rgb(42, 63, 95); fill-opacity: 1; white-space: pre; opacity: 1;">−0.2</text></g><g class="y3tick"><text text-anchor="end" x="79" y="4.199999999999999" style="font-family: 'Open Sans', verdana, arial, sans-serif; font-size: 12px; fill: rgb(42, 63, 95); fill-opacity: 1; white-space: pre; opacity: 1;" transform="translate(0,1003.2700000000001)">−0.1</text></g><g class="y3tick"><text text-anchor="end" x="79" y="4.199999999999999" style="font-family: 'Open Sans', verdana, arial, sans-serif; font-size: 12px; fill: rgb(42, 63, 95); fill-opacity: 1; white-space: pre; opacity: 1;" transform="translate(0,942.9800000000001)">0</text></g><g class="y3tick"><text text-anchor="end" x="79" y="4.199999999999999" style="font-family: 'Open Sans', verdana, arial, sans-serif; font-size: 12px; fill: rgb(42, 63, 95); fill-opacity: 1; white-space: pre; opacity: 1;" transform="translate(0,882.69)">0.1</text></g></g><g class="overaxes-above"/></g></g><g class="polarlayer"/><g class="smithlayer"/><g class="ternarylayer"/><g class="geolayer"/><g class="funnelarealayer"/><g class="pielayer"/><g class="iciclelayer"/><g class="treemaplayer"/><g class="sunburstlayer"/><g class="glimages"/><defs id="topdefs-0636b1"><g class="clips"/><clipPath id="legend0636b1"><rect width="188" height="29" x="0" y="0"/></clipPath></defs><g class="layer-above"><g class="imagelayer"/><g class="shapelayer"/></g><g class="infolayer"><g class="legend" pointer-events="all" transform="translate(232,50.59999999999998)"><rect class="bg" shape-rendering="crispEdges" width="188" height="29" x="0" y="0" style="stroke: rgb(68, 68, 68); stroke-opacity: 1; fill: rgb(255, 255, 255); fill-opacity: 1; stroke-width: 0px;"/><g class="scrollbox" transform="" clip-path="url(#legend0636b1)"><g class="groups"><g class="traces" transform="translate(0,14.5)" style="opacity: 1;"><text class="legendtext" text-anchor="start" x="40" y="4.680000000000001" style="font-family: 'Open Sans', verdana, arial, sans-serif; font-size: 12px; fill: rgb(42, 63, 95); fill-opacity: 1; white-space: pre;">Population Log-likelihood</text><g class="layers" style="opacity: 1;"><g class="legendfill"/><g class="legendlines"><path class="js-line" d="M5,0h30" style="fill: none; stroke: rgb(51, 34, 136); stroke-opacity: 1; stroke-width: 2px;"/></g><g class="legendsymbols"><g class="legendpoints"/></g></g><rect class="legendtoggle" x="0" y="-9.5" width="184.703125" height="19" style="fill: rgb(0, 0, 0); fill-opacity: 0;"/></g></g></g><rect class="scrollbar" rx="20" ry="3" width="0" height="0" x="0" y="0" style="fill: rgb(128, 139, 164); fill-opacity: 1;"/></g><g class="g-gtitle"/><g class="g-xtitle"/><g class="g-x2title"/><g class="g-x3title"/><g class="g-ytitle"/><g class="g-y2title"/><g class="g-y3title"/></g></svg>