<svg class="main-svg" xmlns="http://www.w3.org/2000/svg" xmlns:xlink="http://www.w3.org/1999/xlink" width="500" height="1200" style="" viewBox="0 0 500 1200"><rect x="0" y="0" width="500" height="1200" style="fill: rgb(255, 255, 255); fill-opacity: 1;"/><defs id="defs-19b307"><g class="clips"><clipPath id="clip19b307xyplot" class="plotclip"><rect width="340" height="272.00000000000006"/></clipPath><clipPath id="clip19b307x2y2plot" class="plotclip"><rect width="340" height="272"/></clipPath><clipPath id="clip19b307x3y3plot" class="plotclip"><rect width="340" height="272"/></clipPath><clipPath class="axesclip" id="clip19b307x"><rect x="80" y="0" width="340" height="1200"/></clipPath><clipPath class="axesclip" id="clip19b307y"><rect x="0" y="100" width="500" height="272.00000000000006"/></clipPath><clipPath class="axesclip" id="clip19b307xy"><rect x="80" y="100" width="340" height="272.00000000000006"/></clipPath><clipPath class="axesclip" id="clip19b307y2"><rect x="0" y="474.00000000000006" width="500" height="272"/></clipPath><clipPath class="axesclip" id="clip19b307xy2"><rect x="80" y="474.00000000000006" width="340" height="272"/></clipPath><clipPath class="axesclip" id="clip19b307y3"><rect x="0" y="848.0000000000001" width="500" height="272"/></clipPath><clipPath class="axesclip" id="clip19b307xy3"><rect x="80" y="848.0000000000001" width="340" height="272"/></clipPath><clipPath class="axesclip" id="clip19b307x2"><rect x="80" y="0" width="340" height="1200"/></clipPath><clipPath class="axesclip" id="clip19b307x2y"><rect x="80" y="100" width="340" height="272.00000000000006"/></clipPath><clipPath class="axesclip" id="clip19b307x2y2"><rect x="80" y="474.00000000000006" width="340" height="272"/></clipPath><clipPath class="axesclip" id="clip19b307x2y3"><rect x="80" y="848.0000000000001" width="340" height="272"/></clipPath><clipPath class="axesclip" id="clip19b307x3"><rect x="80" y="0" width="340" height="1200"/></clipPath><clipPath class="axesclip" id="clip19b307x3y"><rect x="80" y="100" width="340" height="272.00000000000006"/></clipPath><clipPath class="axesclip" id="clip19b307x3y2"><rect x="80" y="474.00000000000006" width="340" height="272"/></clipPath><clipPath class="axesclip" id="clip19b307x3y3"><rect x="80" y="848.0000000000001" width="340" height="272"/></clipPath></g><g class="gradients"/><g class="patterns"/></defs><g class="bglayer"/><g class="layer-below"><g class="imagelayer"/><g class="shapelayer"/></g><g class="cartesianlayer"><g class="subplot xy"><g class="layer-subplot"><g class="shapelayer"/><g class="imagelayer"/></g><g class="minor-gridlayer"><g class="x"/><g class="y"/></g><g class="gridlayer"><g class="x"><path class="xgrid crisp" transform="translate(108.81,0)" d="M0,100v272.00000000000006" style="stroke: rgb(235, 240, 248); stroke-opacity: 1; stroke-width: 1px;"/><path class="xgrid crisp" transform="translate(211.35,0)" d="M0,100v272.00000000000006" style="stroke: rgb(235, 240, 248); stroke-opacity: 1; stroke-width: 1px;"/><path class="xgrid crisp" transform="translate(313.89,0)" d="M0,100v272.00000000000006" style="stroke: rgb(235, 240, 248); stroke-opacity: 1; stroke-width: 1px;"/><path class="xgrid crisp" transform="translate(416.43,0)" d="M0,100v272.00000000000006" style="stroke: rgb(235, 240, 248); stroke-opacity: 1; stroke-width: 1px;"/></g><g class="y"><path class="ygrid crisp" transform="translate(0,356.22)" d="M80,0h340" style="stroke: rgb(235, 240, 248); stroke-opacity: 1; stroke-width: 1px;"/><path class="ygrid crisp" transform="translate(0,307.69)" d="M80,0h340" style="stroke: rgb(235, 240, 248); stroke-opacity: 1; stroke-width: 1px;"/><path class="ygrid crisp" transform="translate(0,259.16999999999996)" d="M80,0h340" style="stroke: rgb(235, 240, 248); stroke-opacity: 1; stroke-width: 1px;"/><path class="ygrid crisp" transform="translate(0,210.65)" d="M80,0h340" style="stroke: rgb(235, 240, 248); stroke-opacity: 1; stroke-width: 1px;"/><path class="ygrid crisp" transform="translate(0,162.12)" d="M80,0h340" style="stroke: rgb(235, 240, 248); stroke-opacity: 1; stroke-width: 1px;"/></g></g><g class="zerolinelayer"><path class="yzl zl crisp" transform="translate(0,113.6)" d="M80,0h340" style="stroke: rgb(235, 240, 248); stroke-opacity: 1; stroke-width: 2px;"/></g><path class="xlines-below"/><path class="ylines-below"/><g class="overlines-below"/><g class="xaxislayer-below"/><g class="yaxislayer-below"/><g class="overaxes-below"/><g class="plot" transform="translate(80,100)" clip-path="url(#clip19b307xyplot)"><g class="scatterlayer mlayer"><g class="trace scatter traceb0b8e7" style="stroke-miterlimit: 2; opacity: 1;"><g class="fills"/><g class="errorbars"/><g class="lines"><path class="js-line" d="M0,258.17L24.04,198.61L27.47,190.54L44.65,152.42L48.08,145.24L61.82,118.3L65.25,112L78.99,88.72L82.42,83.44L103.03,54.53L106.46,50.37L120.2,35.77L123.64,32.65L133.94,24.68L137.37,22.53L147.68,17.33L151.11,16.06L161.41,13.79L164.85,13.6L171.72,14.26L175.15,15.48L188.89,16.4L192.32,17.53L202.63,22.64L206.06,24.85L216.36,32.81L219.8,35.9L230.1,46.45L233.54,50.36L243.84,63.39L247.27,68.13L261.01,89.03L264.44,94.71L278.18,118.82L281.62,125.31L298.79,160.16L302.22,167.57L319.39,206.97L322.83,215.25L340,258.4" style="vector-effect: non-scaling-stroke; fill: none; stroke: rgb(51, 34, 136); stroke-opacity: 1; stroke-width: 2px; opacity: 1;"/></g><g class="points"/><g class="text"/></g></g></g><g class="overplot"/><path class="xlines-above crisp" d="M0,0" style="fill: none;"/><path class="ylines-above crisp" d="M0,0" style="fill: none;"/><g class="overlines-above"/><g class="xaxislayer-above"/><g class="yaxislayer-above"><g class="ytick"><text text-anchor="end" x="79" y="4.199999999999999" transform="translate(0,356.22)" style="font-family: 'Open Sans', verdana, arial, sans-serif; font-size: 12px; fill: rgb(42, 63, 95); fill-opacity: 1; white-space: pre; opacity: 1;">−5</text></g><g class="ytick"><text text-anchor="end" x="79" y="4.199999999999999" style="font-family: 'Open Sans', verdana, arial, sans-serif; font-size: 12px; fill: rgb(42, 63, 95); fill-opacity: 1; white-space: pre; opacity: 1;" transform="translate(0,307.69)">−4</text></g><g class="ytick"><text text-anchor="end" x="79" y="4.199999999999999" style="font-family: 'Open Sans', verdana, arial, sans-serif; font-size: 12px; fill: rgb(42, 63, 95); fill-opacity: 1; white-space: pre; opacity: 1;" transform="translate(0,259.16999999999996)">−3</text></g><g class="ytick"><text text-anchor="end" x="79" y="4.199999999999999" style="font-family: 'Open Sans', verdana, arial, sans-serif; font-size: 12px; fill: rgb(42, 63, 95); fill-opacity: 1; white-space: pre; opacity: 1;" transform="translate(0,210.65)">−2</text></g><g class="ytick"><text text-anchor="end" x="79" y="4.199999999999999" style="font-family: 'Open Sans', verdana, arial, sans-serif; font-size: 12px; fill: rgb(42, 63, 95); fill-opacity: 1; white-space: pre; opacity: 1;" transform="translate(0,162.12)">−1</text></g><g class="ytick"><text text-anchor="end" x="79" y="4.199999999999999" style="font-family: 'Open Sans', verdana, arial, sans-serif; font-size: 12px; fill: rgb(42, 63, 95); fill-opacity: 1; white-space: pre; opacity: 1;" transform="translate(0,113.6)">0</text></g></g><g class="overaxes-above"/></g><g class="subplot x2y2"><g class="layer-subplot"><g class="shapelayer"/><g class="imagelayer"/></g><g class="minor-gridlayer"><g class="x2"/><g class="y2"/></g><g class="gridlayer"><g class="x2"><path class="x2grid crisp" transform="translate(108.81,0)" d="M0,474.00000000000006v272" style="stroke: rgb(235, 240, 248); stroke-opacity: 1; stroke-width: 1px;"/><path class="x2grid crisp" transform="translate(211.35,0)" d="M0,474.00000000000006v272" style="stroke: rgb(235, 240, 248); stroke-opacity: 1; stroke-width: 1px;"/><path class="x2grid crisp" transform="translate(313.89,0)" d="M0,474.00000000000006v272" style="stroke: rgb(235, 240, 248); stroke-opacity: 1; stroke-width: 1px;"/><path class="x2grid crisp" transform="translate(416.43,0)" d="M0,474.00000000000006v272" style="stroke: rgb(235, 240, 248); stroke-opacity: 1; stroke-width: 1px;"/></g><g class="y2"><path class="y2grid crisp" transform="translate(0,709.1600000000001)" d="M80,0h340" style="stroke: rgb(235, 240, 248); stroke-opacity: 1; stroke-width: 1px;"/><path class="y2grid crisp" transform="translate(0,669.51)" d="M80,0h340" style="stroke: rgb(235, 240, 248); stroke-opacity: 1; stroke-width: 1px;"/><path class="y2grid crisp" transform="translate(0,590.22)" d="M80,0h340" style="stroke: rgb(235, 240, 248); stroke-opacity: 1; stroke-width: 1px;"/><path class="y2grid crisp" transform="translate(0,550.58)" d="M80,0h340" style="stroke: rgb(235, 240, 248); stroke-opacity: 1; stroke-width: 1px;"/><path class="y2grid crisp" transform="translate(0,510.93000000000006)" d="M80,0h340" style="stroke: rgb(235, 240, 248); stroke-opacity: 1; stroke-width: 1px;"/></g></g><g class="zerolinelayer"><path class="y2zl zl crisp" transform="translate(0,629.8700000000001)" d="M80,0h340" style="stroke: rgb(235, 240, 248); stroke-opacity: 1; stroke-width: 2px;"/></g><path class="xlines-below"/><path class="ylines-below"/><g class="overlines-below"/><g class="xaxislayer-below"/><g class="yaxislayer-below"/><g class="overaxes-below"/><g class="plot" transform="translate(80,474.00000000000006)" clip-path="url(#clip19b307x2y2plot)"><g class="scatterlayer mlayer"><g class="trace scatter trace5cbf2c" style="stroke-miterlimit: 2; opacity: 1;"><g class="fills"/><g class="errorbars"/><g class="lines"><path class="js-line" d="M3.43,179.73L6.87,142.58L10.3,169.61L13.74,173.94L17.17,174.44L27.47,175.76L30.91,177.31L34.34,182.74L37.78,170.85L41.21,177.97L44.65,178.47L48.08,178.97L51.52,182.57L54.95,190.72L58.38,173.7L61.82,181.63L65.25,182.58L72.12,185.27L75.56,187.34L78.99,190.18L82.42,194.18L85.86,138.43L89.29,175.97L92.73,184.73L96.16,185.06L99.6,185.47L103.03,188.63L106.46,189.55L109.9,180.32L113.33,186.83L116.77,187.14L123.64,187.69L127.07,195.67L130.51,184.26L133.94,196.64L137.37,184.13L140.81,189.04L151.11,191.66L154.55,193.33L157.98,195.52L161.41,198.91L164.85,203.85L168.28,212.29L171.72,258.4L175.15,13.6L178.59,62.26L182.02,255.92L185.45,224.19L188.89,209.04L192.32,200.89L195.76,195.82L199.19,192.35L202.63,192.34L206.06,188.16L209.49,187.93L226.67,186.57L230.1,183.33L233.54,188.66L236.97,185.26L243.84,184.76L247.27,184.36L257.58,183.09L261.01,180.3L264.44,161.82L267.88,189.23L271.31,183.09L274.75,182.05L288.48,179.16L291.92,172.54L295.35,187.09L298.79,170.95L302.22,182.05L305.66,178.24L309.09,176.09L312.53,175.59L326.26,173.63L329.7,164.5L333.13,181.3L336.57,172.17" style="vector-effect: non-scaling-stroke; fill: none; stroke: rgb(51, 34, 136); stroke-opacity: 1; stroke-width: 2px; opacity: 1;"/></g><g class="points"/><g class="text"/></g></g></g><g class="overplot"/><path class="xlines-above crisp" d="M0,0" style="fill: none;"/><path class="ylines-above crisp" d="M0,0" style="fill: none;"/><g class="overlines-above"/><g class="xaxislayer-above"/><g class="yaxislayer-above"><g class="y2tick"><text text-anchor="end" x="79" y="4.199999999999999" transform="translate(0,709.1600000000001)" style="font-family: 'Open Sans', verdana, arial, sans-serif; font-size: 12px; fill: rgb(42, 63, 95); fill-opacity: 1; white-space: pre; opacity: 1;">−1000</text></g><g class="y2tick"><text text-anchor="end" x="79" y="4.199999999999999" style="font-family: 'Open Sans', verdana, arial, sans-serif; font-size: 12px; fill: rgb(42, 63, 95); fill-opacity: 1; white-space: pre; opacity: 1;" transform="translate(0,669.51)">−500</text></g><g class="y2tick"><text text-anchor="end" x="79" y="4.199999999999999" style="font-family: 'Open Sans', verdana, arial, sans-serif; font-size: 12px; fill: rgb(42, 63, 95); fill-opacity: 1; white-space: pre; opacity: 1;" transform="translate(0,629.8700000000001)">0</text></g><g class="y2tick"><text text-anchor="end" x="79" y="4.199999999999999" style="font-family: 'Open Sans', verdana, arial, sans-serif; font-size: 12px; fill: rgb(42, 63, 95); fill-opacity: 1; white-space: pre; opacity: 1;" transform="translate(0,590.22)">500</text></g><g class="y2tick"><text text-anchor="end" x="79" y="4.199999999999999" style="font-family: 'Open Sans', verdana, arial, sans-serif; font-size: 12px; fill: rgb(42, 63, 95); fill-opacity: 1; white-space: pre; opacity: 1;" transform="translate(0,550.58)">1000</text></g><g class="y2tick"><text text-anchor="end" x="79" y="4.199999999999999" style="font-family: 'Open Sans', verdana, arial, sans-serif; font-size: 12px; fill: rgb(42, 63, 95); fill-opacity: 1; white-space: pre; opacity: 1;" transform="translate(0,510.93000000000006)">1500</text></g></g><g class="overaxes-above"/></g><g class="subplot x3y3"><g class="layer-subplot"><g class="shapelayer"/><g class="imagelayer"/></g><g class="minor-gridlayer"><g class="x3"/><g class="y3"/></g><g class="gridlayer"><g class="x3"><path class="x3grid crisp" transform="translate(108.81,0)" d="M0,848.0000000000001v272" style="stroke: rgb(235, 240, 248); stroke-opacity: 1; stroke-width: 1px;"/><path class="x3grid crisp" transform="translate(211.35,0)" d="M0,848.0000000000001v272" style="stroke: rgb(235, 240, 248); stroke-opacity: 1; stroke-width: 1px;"/><path class="x3grid crisp" transform="translate(313.89,0)" d="M0,848.0000000000001v272" style="stroke: rgb(235, 240, 248); stroke-opacity: 1; stroke-width: 1px;"/><path class="x3grid crisp" transform="translate(416.43,0)" d="M0,848.0000000000001v272" style="stroke: rgb(235, 240, 248); stroke-opacity: 1; stroke-width: 1px;"/></g><g class="y3"><path class="y3grid crisp" transform="translate(0,1067.2600000000002)" d="M80,0h340" style="stroke: rgb(235, 240, 248); stroke-opacity: 1; stroke-width: 1px;"/><path class="y3grid crisp" transform="translate(0,909.3400000000001)" d="M80,0h340" style="stroke: rgb(235, 240, 248); stroke-opacity: 1; stroke-width: 1px;"/></g></g><g class="zerolinelayer"><path class="y3zl zl crisp" transform="translate(0,988.3000000000002)" d="M80,0h340" style="stroke: rgb(235, 240, 248); stroke-opacity: 1; stroke-width: 2px;"/></g><path class="xlines-below"/><path class="ylines-below"/><g class="overlines-below"/><g class="xaxislayer-below"/><g class="yaxislayer-below"/><g class="overaxes-below"/><g class="plot" transform="translate(80,848.0000000000001)" clip-path="url(#clip19b307x3y3plot)"><g class="scatterlayer mlayer"><g class="trace scatter tracea0b827" style="stroke-miterlimit: 2; opacity: 1;"><g class="fills"/><g class="errorbars"/><g class="lines"><path class="js-line" d="M0,148.47L20.61,148.12L24.04,148.12L68.69,147.41L72.12,147.24L99.6,146.14L103.03,146.1L147.68,144.86L151.11,144.64L182.02,142.48L185.45,142.72L206.06,143.05L209.49,142.97L281.62,140.57L285.05,140.39L326.26,139.18L329.7,139.1L340,138.87" style="vector-effect: non-scaling-stroke; fill: none; stroke: rgb(68, 1, 84); stroke-opacity: 1; stroke-width: 1px; opacity: 1;"/></g><g class="points"/><g class="text"/></g><g class="trace scatter tracebe49d5" style="stroke-miterlimit: 2; opacity: 1;"><g class="fills"/><g class="errorbars"/><g class="lines"><path class="js-line" d="M0,145.93L20.61,145.64L24.04,145.65L68.69,145.16L72.12,145L99.6,144.12L103.03,144.11L147.68,143.31L151.11,143.13L182.02,141.35L185.45,141.63L202.63,142.22L206.06,142.18L274.75,140.93L278.18,140.78L309.09,140.16L312.53,140.16L340,140.16" style="vector-effect: non-scaling-stroke; fill: none; stroke: rgb(69, 7, 90); stroke-opacity: 1; stroke-width: 1px; opacity: 1;"/></g><g class="points"/><g class="text"/></g><g class="trace scatter trace9ed09b" style="stroke-miterlimit: 2; opacity: 1;"><g class="fills"/><g class="errorbars"/><g class="lines"><path class="js-line" d="M0,148.61L17.17,148.11L20.61,148.09L65.25,147.31L68.69,147.13L99.6,145.72L103.03,145.68L144.24,144.7L147.68,144.5L171.72,142.26L175.15,141.75L182.02,142.11L185.45,142.43L202.63,143.08L206.06,143.04L285.05,141.24L288.48,141.11L322.83,140.59L326.26,140.55L340,140.42" style="vector-effect: non-scaling-stroke; fill: none; stroke: rgb(69, 14, 96); stroke-opacity: 1; stroke-width: 1px; opacity: 1;"/></g><g class="points"/><g class="text"/></g><g class="trace scatter traceade127" style="stroke-miterlimit: 2; opacity: 1;"><g class="fills"/><g class="errorbars"/><g class="lines"><path class="js-line" d="M0,155.51L13.74,154.97L17.17,154.97L61.82,154.13L65.25,153.9L99.6,151.57L103.03,151.48L140.81,149.76L144.24,149.44L164.85,146.95L168.28,146.37L175.15,145.41L178.59,145.25L216.36,144.95L219.8,144.76L274.75,141.06L278.18,140.72L309.09,138.41L312.53,138.22L340,136.75" style="vector-effect: non-scaling-stroke; fill: none; stroke: rgb(70, 20, 101); stroke-opacity: 1; stroke-width: 1px; opacity: 1;"/></g><g class="points"/><g class="text"/></g><g class="trace scatter traced666cf" style="stroke-miterlimit: 2; opacity: 1;"><g class="fills"/><g class="errorbars"/><g class="lines"><path class="js-line" d="M0,144.09L27.47,143.78L30.91,143.77L78.99,142.92L82.42,142.76L99.6,142.56L103.03,142.55L157.98,141.67L161.41,141.51L182.02,140.83L185.45,141.04L209.49,141.52L212.93,141.52L340,140.85" style="vector-effect: non-scaling-stroke; fill: none; stroke: rgb(71, 26, 107); stroke-opacity: 1; stroke-width: 1px; opacity: 1;"/></g><g class="points"/><g class="text"/></g><g class="trace scatter trace6cae4a" style="stroke-miterlimit: 2; opacity: 1;"><g class="fills"/><g class="errorbars"/><g class="lines"><path class="js-line" d="M0,145.67L20.61,145.32L24.04,145.32L68.69,144.76L72.12,144.61L99.6,143.74L103.03,143.73L147.68,142.99L151.11,142.83L182.02,141.18L185.45,141.46L206.06,142.06L209.49,142.04L281.62,140.94L285.05,140.83L326.26,140.33L329.7,140.31L340,140.24" style="vector-effect: non-scaling-stroke; fill: none; stroke: rgb(71, 32, 113); stroke-opacity: 1; stroke-width: 1px; opacity: 1;"/></g><g class="points"/><g class="text"/></g><g class="trace scatter tracefc00a4" style="stroke-miterlimit: 2; opacity: 1;"><g class="fills"/><g class="errorbars"/><g class="lines"><path class="js-line" d="M0,144.65L24.04,144.3L27.47,144.29L75.56,143.48L78.99,143.32L99.6,142.91L103.03,142.9L154.55,142.06L157.98,141.9L182.02,140.95L185.45,141.18L209.49,141.7L212.93,141.69L291.92,140.95L295.35,140.9L340,140.89" style="vector-effect: non-scaling-stroke; fill: none; stroke: rgb(72, 39, 119); stroke-opacity: 1; stroke-width: 1px; opacity: 1;"/></g><g class="points"/><g class="text"/></g><g class="trace scatter tracecf828c" style="stroke-miterlimit: 2; opacity: 1;"><g class="fills"/><g class="errorbars"/><g class="lines"><path class="js-line" d="M0,148.41L17.17,147.96L20.61,147.95L68.69,147.09L72.12,146.9L99.6,145.74L103.03,145.71L147.68,144.53L151.11,144.31L171.72,142.34L175.15,141.93L185.45,142.46L188.89,142.69L209.49,142.93L212.93,142.87L285.05,140.94L288.48,140.81L326.26,140.1L329.7,140.05L340,139.91" style="vector-effect: non-scaling-stroke; fill: none; stroke: rgb(71, 44, 122); stroke-opacity: 1; stroke-width: 1px; opacity: 1;"/></g><g class="points"/><g class="text"/></g><g class="trace scatter tracea4925a" style="stroke-miterlimit: 2; opacity: 1;"><g class="fills"/><g class="errorbars"/><g class="lines"><path class="js-line" d="M0,144.82L24.04,144.47L27.47,144.45L75.56,143.61L78.99,143.45L99.6,143.02L103.03,143.01L154.55,142.13L157.98,141.97L182.02,140.98L185.45,141.22L206.06,141.77L209.49,141.76L340,140.91" style="vector-effect: non-scaling-stroke; fill: none; stroke: rgb(69, 49, 125); stroke-opacity: 1; stroke-width: 1px; opacity: 1;"/></g><g class="points"/><g class="text"/></g><g class="trace scatter trace9f2273" style="stroke-miterlimit: 2; opacity: 1;"><g class="fills"/><g class="errorbars"/><g class="lines"><path class="js-line" d="M0,144.43L24.04,144.1L27.47,144.09L75.56,143.32L78.99,143.17L99.6,142.77L103.03,142.76L154.55,141.96L157.98,141.81L182.02,140.9L185.45,141.12L209.49,141.63L212.93,141.62L340,140.88" style="vector-effect: non-scaling-stroke; fill: none; stroke: rgb(68, 55, 128); stroke-opacity: 1; stroke-width: 1px; opacity: 1;"/></g><g class="points"/><g class="text"/></g><g class="trace scatter tracea8378d" style="stroke-miterlimit: 2; opacity: 1;"><g class="fills"/><g class="errorbars"/><g class="lines"><path class="js-line" d="M0,143.48L27.47,143.21L30.91,143.2L78.99,142.49L82.42,142.35L103.03,142.17L106.46,142.16L157.98,141.43L161.41,141.3L182.02,140.71L185.45,140.89L209.49,141.32L212.93,141.32L340,140.77" style="vector-effect: non-scaling-stroke; fill: none; stroke: rgb(66, 60, 130); stroke-opacity: 1; stroke-width: 1px; opacity: 1;"/></g><g class="points"/><g class="text"/></g><g class="trace scatter tracea065e3" style="stroke-miterlimit: 2; opacity: 1;"><g class="fills"/><g class="errorbars"/><g class="lines"><path class="js-line" d="M0,144.66L24.04,144.32L27.47,144.31L75.56,143.49L78.99,143.33L99.6,142.92L103.03,142.91L154.55,142.06L157.98,141.9L182.02,140.95L185.45,141.18L209.49,141.71L212.93,141.7L340,140.9" style="vector-effect: non-scaling-stroke; fill: none; stroke: rgb(64, 65, 133); stroke-opacity: 1; stroke-width: 1px; opacity: 1;"/></g><g class="points"/><g class="text"/></g><g class="trace scatter trace6ebde5" style="stroke-miterlimit: 2; opacity: 1;"><g class="fills"/><g class="errorbars"/><g class="lines"><path class="js-line" d="M0,146.65L20.61,146.21L24.04,146.19L68.69,145.42L72.12,145.25L99.6,144.27L103.03,144.25L147.68,143.37L151.11,143.2L171.72,141.55L175.15,141.08L182.02,141.47L185.45,141.75L202.63,142.39L206.06,142.37L285.05,141.22L288.48,141.13L326.26,140.83L329.7,140.82L340,140.78" style="vector-effect: non-scaling-stroke; fill: none; stroke: rgb(63, 71, 136); stroke-opacity: 1; stroke-width: 1px; opacity: 1;"/></g><g class="points"/><g class="text"/></g><g class="trace scatter traceda9b01" style="stroke-miterlimit: 2; opacity: 1;"><g class="fills"/><g class="errorbars"/><g class="lines"><path class="js-line" d="M0,146.81L20.61,146.35L24.04,146.34L72.12,145.37L75.56,145.18L96.16,144.39L99.6,144.36L147.68,143.44L151.11,143.27L171.72,141.58L175.15,141.08L182.02,141.5L185.45,141.79L206.06,142.43L209.49,142.4L285.05,141.28L288.48,141.19L333.13,140.88L336.57,140.87L340,140.86" style="vector-effect: non-scaling-stroke; fill: none; stroke: rgb(61, 76, 137); stroke-opacity: 1; stroke-width: 1px; opacity: 1;"/></g><g class="points"/><g class="text"/></g><g class="trace scatter trace8bd40d" style="stroke-miterlimit: 2; opacity: 1;"><g class="fills"/><g class="errorbars"/><g class="lines"><path class="js-line" d="M0,146.56L20.61,146.12L24.04,146.11L68.69,145.36L72.12,145.19L99.6,144.22L103.03,144.2L151.11,143.17L154.55,142.97L178.59,141.04L182.02,141.45L199.19,142.32L202.63,142.36L285.05,141.2L288.48,141.1L333.13,140.78L336.57,140.77L340,140.75" style="vector-effect: non-scaling-stroke; fill: none; stroke: rgb(59, 81, 138); stroke-opacity: 1; stroke-width: 1px; opacity: 1;"/></g><g class="points"/><g class="text"/></g><g class="trace scatter trace285dac" style="stroke-miterlimit: 2; opacity: 1;"><g class="fills"/><g class="errorbars"/><g class="lines"><path class="js-line" d="M0,145.95L20.61,145.65L24.04,145.66L68.69,145.16L72.12,145.01L99.6,144.13L103.03,144.12L147.68,143.31L151.11,143.14L182.02,141.37L185.45,141.64L206.06,142.19L209.49,142.15L285.05,140.55L288.48,140.43L326.26,139.81L329.7,139.77L340,139.64" style="vector-effect: non-scaling-stroke; fill: none; stroke: rgb(45, 114, 142); stroke-opacity: 1; stroke-width: 1px; opacity: 1;"/></g><g class="points"/><g class="text"/></g><g class="trace scatter trace50c2e5" style="stroke-miterlimit: 2; opacity: 1;"><g class="fills"/><g class="errorbars"/><g class="lines"><path class="js-line" d="M0,148.79L17.17,148.29L20.61,148.27L65.25,147.48L68.69,147.29L99.6,145.86L103.03,145.83L147.68,144.61L151.11,144.39L171.72,142.34L175.15,141.83L182.02,142.19L185.45,142.5L202.63,143.12L206.06,143.12L261.01,143.02L264.44,142.28L295.35,140.84L298.79,140.8L340,140.35" style="vector-effect: non-scaling-stroke; fill: none; stroke: rgb(43, 118, 142); stroke-opacity: 1; stroke-width: 1px; opacity: 1;"/></g><g class="points"/><g class="text"/></g><g class="trace scatter trace944a50" style="stroke-miterlimit: 2; opacity: 1;"><g class="fills"/><g class="errorbars"/><g class="lines"><path class="js-line" d="M0,155.01L13.74,154.43L17.17,154.41L58.38,153.72L61.82,153.5L103.03,150.83L106.46,150.75L140.81,149.21L144.24,148.91L168.28,145.86L171.72,145.21L178.59,144.65L182.02,144.77L195.76,145.5L199.19,145.5L223.23,144.51L226.67,144.33L247.27,144L250.71,144L264.44,144L267.88,142.14L298.79,139.6L302.22,139.44L340,137.76" style="vector-effect: non-scaling-stroke; fill: none; stroke: rgb(41, 122, 142); stroke-opacity: 1; stroke-width: 1px; opacity: 1;"/></g><g class="points"/><g class="text"/></g><g class="trace scatter trace08e740" style="stroke-miterlimit: 2; opacity: 1;"><g class="fills"/><g class="errorbars"/><g class="lines"><path class="js-line" d="M0,144.21L24.04,143.89L27.47,143.89L78.99,143.01L82.42,142.84L99.6,142.63L103.03,142.62L157.98,141.72L161.41,141.56L182.02,140.85L185.45,141.07L209.49,141.56L212.93,141.55L340,140.86" style="vector-effect: non-scaling-stroke; fill: none; stroke: rgb(40, 126, 142); stroke-opacity: 1; stroke-width: 1px; opacity: 1;"/></g><g class="points"/><g class="text"/></g><g class="trace scatter traceae7576" style="stroke-miterlimit: 2; opacity: 1;"><g class="fills"/><g class="errorbars"/><g class="lines"><path class="js-line" d="M0,145.75L20.61,145.4L24.04,145.4L68.69,144.84L72.12,144.69L99.6,143.81L103.03,143.8L147.68,143.05L151.11,142.88L182.02,141.21L185.45,141.49L206.06,142.09L209.49,142.06L281.62,140.92L285.05,140.81L326.26,140.29L329.7,140.26L340,140.18" style="vector-effect: non-scaling-stroke; fill: none; stroke: rgb(38, 130, 142); stroke-opacity: 1; stroke-width: 1px; opacity: 1;"/></g><g class="points"/><g class="text"/></g><g class="trace scatter trace13ab04" style="stroke-miterlimit: 2; opacity: 1;"><g class="fills"/><g class="errorbars"/><g class="lines"><path class="js-line" d="M0,144.56L24.04,144.22L27.47,144.21L75.56,143.41L78.99,143.26L99.6,142.86L103.03,142.84L154.55,142.02L157.98,141.86L182.02,140.93L185.45,141.16L209.49,141.67L212.93,141.67L340,140.89" style="vector-effect: non-scaling-stroke; fill: none; stroke: rgb(37, 135, 141); stroke-opacity: 1; stroke-width: 1px; opacity: 1;"/></g><g class="points"/><g class="text"/></g><g class="trace scatter trace0bfaa4" style="stroke-miterlimit: 2; opacity: 1;"><g class="fills"/><g class="errorbars"/><g class="lines"><path class="js-line" d="M0,148.41L17.17,147.99L20.61,147.99L68.69,147.17L72.12,146.98L96.16,145.87L99.6,145.84L144.24,144.81L147.68,144.61L171.72,142.43L175.15,142.07L185.45,142.53L188.89,142.74L209.49,142.93L212.93,142.87L281.62,140.95L285.05,140.79L326.26,139.85L329.7,139.8L340,139.63" style="vector-effect: non-scaling-stroke; fill: none; stroke: rgb(36, 140, 140); stroke-opacity: 1; stroke-width: 1px; opacity: 1;"/></g><g class="points"/><g class="text"/></g><g class="trace scatter trace2026f7" style="stroke-miterlimit: 2; opacity: 1;"><g class="fills"/><g class="errorbars"/><g class="lines"><path class="js-line" d="M0,144.7L24.04,144.35L27.47,144.34L75.56,143.52L78.99,143.36L99.6,142.94L103.03,142.93L154.55,142.08L157.98,141.92L182.02,140.96L185.45,141.19L209.49,141.72L212.93,141.71L340,140.9" style="vector-effect: non-scaling-stroke; fill: none; stroke: rgb(34, 144, 140); stroke-opacity: 1; stroke-width: 1px; opacity: 1;"/></g><g class="points"/><g class="text"/></g><g class="trace scatter traceca43f5" style="stroke-miterlimit: 2; opacity: 1;"><g class="fills"/><g class="errorbars"/><g class="lines"><path class="js-line" d="M0,144.61L24.04,144.26L27.47,144.25L75.56,143.45L78.99,143.29L99.6,142.88L103.03,142.87L154.55,142.04L157.98,141.88L182.02,140.94L185.45,141.17L209.49,141.69L212.93,141.68L340,140.89" style="vector-effect: non-scaling-stroke; fill: none; stroke: rgb(33, 148, 139); stroke-opacity: 1; stroke-width: 1px; opacity: 1;"/></g><g class="points"/><g class="text"/></g><g class="trace scatter trace6d36c0" style="stroke-miterlimit: 2; opacity: 1;"><g class="fills"/><g class="errorbars"/><g class="lines"><path class="js-line" d="M0,143.51L30.91,143.24L34.34,143.23L82.42,142.37L85.86,142.22L154.55,141.57L157.98,141.45L182.02,140.72L185.45,140.9L209.49,141.33L212.93,141.33L340,140.78" style="vector-effect: non-scaling-stroke; fill: none; stroke: rgb(32, 153, 138); stroke-opacity: 1; stroke-width: 1px; opacity: 1;"/></g><g class="points"/><g class="text"/></g><g class="trace scatter trace9aacca" style="stroke-miterlimit: 2; opacity: 1;"><g class="fills"/><g class="errorbars"/><g class="lines"><path class="js-line" d="M0,144.79L24.04,144.44L27.47,144.43L75.56,143.59L78.99,143.43L99.6,143L103.03,142.99L154.55,142.12L157.98,141.95L182.02,140.98L185.45,141.21L206.06,141.76L209.49,141.75L340,140.91" style="vector-effect: non-scaling-stroke; fill: none; stroke: rgb(31, 158, 137); stroke-opacity: 1; stroke-width: 1px; opacity: 1;"/></g><g class="points"/><g class="text"/></g><g class="trace scatter trace70b9bf" style="stroke-miterlimit: 2; opacity: 1;"><g class="fills"/><g class="errorbars"/><g class="lines"><path class="js-line" d="M0,146.45L20.61,146.02L24.04,146.01L72.12,145.1L75.56,144.91L96.16,144.16L99.6,144.14L151.11,143.1L154.55,142.91L178.59,141L182.02,141.41L199.19,142.28L202.63,142.32L288.48,141.11L291.92,141.03L333.13,140.8L336.57,140.79L340,140.78" style="vector-effect: non-scaling-stroke; fill: none; stroke: rgb(34, 162, 135); stroke-opacity: 1; stroke-width: 1px; opacity: 1;"/></g><g class="points"/><g class="text"/></g><g class="trace scatter trace1ef02b" style="stroke-miterlimit: 2; opacity: 1;"><g class="fills"/><g class="errorbars"/><g class="lines"><path class="js-line" d="M0,146.53L17.17,146.04L20.61,146.04L68.69,145.3L72.12,145.14L99.6,144.17L103.03,144.15L151.11,143.12L154.55,142.93L178.59,140.98L182.02,141.42L202.63,142.35L206.06,142.33L291.92,141.1L295.35,141.02L340,140.89" style="vector-effect: non-scaling-stroke; fill: none; stroke: rgb(38, 166, 132); stroke-opacity: 1; stroke-width: 1px; opacity: 1;"/></g><g class="points"/><g class="text"/></g><g class="trace scatter tracef410b7" style="stroke-miterlimit: 2; opacity: 1;"><g class="fills"/><g class="errorbars"/><g class="lines"><path class="js-line" d="M0,146.49L20.61,146.05L24.04,146.04L68.69,145.29L72.12,145.12L99.6,144.16L103.03,144.14L120.2,143.96L123.64,143.96L147.68,143.29L151.11,143.12L171.72,141.5L175.15,141.03L185.45,141.7L188.89,141.93L209.49,142.3L212.93,142.27L288.48,141.12L291.92,141.03L340,140.79" style="vector-effect: non-scaling-stroke; fill: none; stroke: rgb(41, 170, 130); stroke-opacity: 1; stroke-width: 1px; opacity: 1;"/></g><g class="points"/><g class="text"/></g><g class="trace scatter trace24316a" style="stroke-miterlimit: 2; opacity: 1;"><g class="fills"/><g class="errorbars"/><g class="lines"><path class="js-line" d="M0,139.41L30.91,141.55L34.34,141.74L99.6,144.52L103.03,144.53L154.55,143.95L157.98,143.89L171.72,143.92L175.15,146.4L178.59,146.2L182.02,143.33L199.19,141.41L202.63,141.1L254.14,136.08L257.58,135.69L340,126.31" style="vector-effect: non-scaling-stroke; fill: none; stroke: rgb(45, 174, 127); stroke-opacity: 1; stroke-width: 1px; opacity: 1;"/></g><g class="points"/><g class="text"/></g><g class="trace scatter trace43d925" style="stroke-miterlimit: 2; opacity: 1;"><g class="fills"/><g class="errorbars"/><g class="lines"><path class="js-line" d="M0,148.74L17.17,148.25L20.61,148.23L68.69,147.27L72.12,147.06L96.16,145.81L99.6,145.81L137.37,145.17L140.81,145L168.28,142.81L171.72,142.34L178.59,141.78L182.02,142.18L199.19,143.1L202.63,143.13L281.62,141.32L285.05,141.18L322.83,140.47L326.26,140.44L340,140.29" style="vector-effect: non-scaling-stroke; fill: none; stroke: rgb(96, 200, 96); stroke-opacity: 1; stroke-width: 1px; opacity: 1;"/></g><g class="points"/><g class="text"/></g><g class="trace scatter tracee64ea0" style="stroke-miterlimit: 2; opacity: 1;"><g class="fills"/><g class="errorbars"/><g class="lines"><path class="js-line" d="M0,156.64L13.74,156.06L17.17,156.05L58.38,155.35L61.82,155.12L82.42,153.17L85.86,151.07L140.81,150.44L144.24,150.1L164.85,147.46L168.28,146.84L175.15,145.83L178.59,145.71L188.89,146.09L192.32,146.2L209.49,145.74L212.93,145.55L274.75,141.22L278.18,140.85L309.09,138.44L312.53,138.24L340,136.69" style="vector-effect: non-scaling-stroke; fill: none; stroke: rgb(105, 204, 91); stroke-opacity: 1; stroke-width: 1px; opacity: 1;"/></g><g class="points"/><g class="text"/></g><g class="trace scatter trace0774cd" style="stroke-miterlimit: 2; opacity: 1;"><g class="fills"/><g class="errorbars"/><g class="lines"><path class="js-line" d="M0,144.03L27.47,143.72L30.91,143.71L78.99,142.88L82.42,142.72L96.16,142.48L99.6,142.48L154.55,141.79L157.98,141.65L178.59,140.3L182.02,140.82L206.06,141.51L209.49,141.5L340,140.84" style="vector-effect: non-scaling-stroke; fill: none; stroke: rgb(115, 207, 85); stroke-opacity: 1; stroke-width: 1px; opacity: 1;"/></g><g class="points"/><g class="text"/></g><g class="trace scatter traceff5f19" style="stroke-miterlimit: 2; opacity: 1;"><g class="fills"/><g class="errorbars"/><g class="lines"><path class="js-line" d="M0,145.78L20.61,145.43L24.04,145.44L72.12,144.72L75.56,144.55L96.16,143.85L99.6,143.84L147.68,143.07L151.11,142.91L182.02,141.23L185.45,141.51L206.06,142.1L209.49,142.07L281.62,140.92L285.05,140.81L326.26,140.28L329.7,140.26L340,140.18" style="vector-effect: non-scaling-stroke; fill: none; stroke: rgb(126, 210, 78); stroke-opacity: 1; stroke-width: 1px; opacity: 1;"/></g><g class="points"/><g class="text"/></g><g class="trace scatter trace86fee6" style="stroke-miterlimit: 2; opacity: 1;"><g class="fills"/><g class="errorbars"/><g class="lines"><path class="js-line" d="M0,144.53L24.04,144.2L27.47,144.19L75.56,143.4L78.99,143.24L99.6,142.84L103.03,142.83L157.98,141.85L161.41,141.67L182.02,140.92L185.45,141.15L209.49,141.66L212.93,141.66L340,140.89" style="vector-effect: non-scaling-stroke; fill: none; stroke: rgb(138, 212, 70); stroke-opacity: 1; stroke-width: 1px; opacity: 1;"/></g><g class="points"/><g class="text"/></g><g class="trace scatter tracec93357" style="stroke-miterlimit: 2; opacity: 1;"><g class="fills"/><g class="errorbars"/><g class="lines"><path class="js-line" d="M0,147.91L17.17,147.47L20.61,147.46L68.69,146.62L72.12,146.44L99.6,145.33L103.03,145.3L147.68,144.2L151.11,144L171.72,142.11L175.15,141.69L185.45,142.26L188.89,142.49L209.49,142.76L212.93,142.72L285.05,141.01L288.48,140.88L329.7,140.25L333.13,140.21L340,140.14" style="vector-effect: non-scaling-stroke; fill: none; stroke: rgb(149, 215, 63); stroke-opacity: 1; stroke-width: 1px; opacity: 1;"/></g><g class="points"/><g class="text"/></g><g class="trace scatter trace81477f" style="stroke-miterlimit: 2; opacity: 1;"><g class="fills"/><g class="errorbars"/><g class="lines"><path class="js-line" d="M0,144.71L24.04,144.36L27.47,144.35L75.56,143.53L78.99,143.37L99.6,142.95L103.03,142.94L154.55,142.08L157.98,141.92L178.59,140.3L182.02,140.96L202.63,141.74L206.06,141.73L340,140.9" style="vector-effect: non-scaling-stroke; fill: none; stroke: rgb(161, 217, 56); stroke-opacity: 1; stroke-width: 1px; opacity: 1;"/></g><g class="points"/><g class="text"/></g><g class="trace scatter trace95bad5" style="stroke-miterlimit: 2; opacity: 1;"><g class="fills"/><g class="errorbars"/><g class="lines"><path class="js-line" d="M0,144.54L24.04,144.04L27.47,144.04L75.56,143.4L78.99,143.25L99.6,142.84L103.03,142.83L154.55,142.01L157.98,141.85L182.02,140.92L185.45,141.15L209.49,141.67L212.93,141.66L340,140.89" style="vector-effect: non-scaling-stroke; fill: none; stroke: rgb(172, 220, 49); stroke-opacity: 1; stroke-width: 1px; opacity: 1;"/></g><g class="points"/><g class="text"/></g><g class="trace scatter trace4b710c" style="stroke-miterlimit: 2; opacity: 1;"><g class="fills"/><g class="errorbars"/><g class="lines"><path class="js-line" d="M0,143.49L27.47,143.21L30.91,143.21L78.99,142.5L82.42,142.36L103.03,142.18L106.46,142.18L161.41,141.3L164.85,141.14L182.02,140.71L185.45,140.9L212.93,141.33L216.36,141.32L340,140.77" style="vector-effect: non-scaling-stroke; fill: none; stroke: rgb(184, 222, 43); stroke-opacity: 1; stroke-width: 1px; opacity: 1;"/></g><g class="points"/><g class="text"/></g><g class="trace scatter trace392596" style="stroke-miterlimit: 2; opacity: 1;"><g class="fills"/><g class="errorbars"/><g class="lines"><path class="js-line" d="M0,144.75L24.04,144.4L27.47,144.39L75.56,143.56L78.99,143.4L99.6,142.87L103.03,142.87L151.11,142.24L154.55,142.1L182.02,140.61L185.45,141.2L199.19,141.71L202.63,141.21L340,140.92" style="vector-effect: non-scaling-stroke; fill: none; stroke: rgb(195, 224, 42); stroke-opacity: 1; stroke-width: 1px; opacity: 1;"/></g><g class="points"/><g class="text"/></g><g class="trace scatter trace6ac00a" style="stroke-miterlimit: 2; opacity: 1;"><g class="fills"/><g class="errorbars"/><g class="lines"><path class="js-line" d="M0,146.6L20.61,146.16L24.04,146.14L68.69,145.38L72.12,145.21L99.6,144.24L103.03,144.22L147.68,143.35L151.11,143.18L171.72,141.54L175.15,141.07L182.02,141.45L185.45,141.74L206.06,142.35L209.49,142.33L285.05,141.21L288.48,141.12L333.13,140.8L336.57,140.79L340,140.78" style="vector-effect: non-scaling-stroke; fill: none; stroke: rgb(207, 225, 41); stroke-opacity: 1; stroke-width: 1px; opacity: 1;"/></g><g class="points"/><g class="text"/></g><g class="trace scatter trace6a0709" style="stroke-miterlimit: 2; opacity: 1;"><g class="fills"/><g class="errorbars"/><g class="lines"><path class="js-line" d="M0,146.85L20.61,146.39L24.04,146.37L68.69,145.57L72.12,145.39L99.6,144.38L103.03,144.36L147.68,143.46L151.11,143.28L171.72,141.59L175.15,141.09L182.02,141.5L185.45,141.8L206.06,142.44L209.49,142.41L285.05,141.29L288.48,141.2L326.26,140.91L329.7,140.9L340,140.87" style="vector-effect: non-scaling-stroke; fill: none; stroke: rgb(218, 227, 40); stroke-opacity: 1; stroke-width: 1px; opacity: 1;"/></g><g class="points"/><g class="text"/></g><g class="trace scatter tracecb85e1" style="stroke-miterlimit: 2; opacity: 1;"><g class="fills"/><g class="errorbars"/><g class="lines"><path class="js-line" d="M0,146.69L17.17,146.26L20.61,146.24L68.69,145.45L72.12,145.29L99.6,144.3L103.03,144.28L147.68,143.4L151.11,143.22L171.72,141.57L175.15,141.09L185.45,141.77L188.89,141.99L209.49,142.36L212.93,142.34L291.92,141.03L295.35,140.95L340,140.76" style="vector-effect: non-scaling-stroke; fill: none; stroke: rgb(230, 228, 39); stroke-opacity: 1; stroke-width: 1px; opacity: 1;"/></g><g class="points"/><g class="text"/></g><g class="trace scatter trace67dd49" style="stroke-miterlimit: 2; opacity: 1;"><g class="fills"/><g class="errorbars"/><g class="lines"><path class="js-line" d="M0,139.1L27.47,141.12L30.91,141.32L96.16,144.44L99.6,144.47L147.68,144.03L151.11,143.98L171.72,143.97L175.15,146.51L178.59,146.31L182.02,143.38L199.19,141.35L202.63,141.02L257.58,135.48L261.01,135.09L340,125.9" style="vector-effect: non-scaling-stroke; fill: none; stroke: rgb(241, 230, 38); stroke-opacity: 1; stroke-width: 1px; opacity: 1;"/></g><g class="points"/><g class="text"/></g><g class="trace scatter trace7679f6" style="stroke-miterlimit: 2; opacity: 1;"><g class="fills"/><g class="errorbars"/><g class="lines"><path class="js-line" d="M0,144.73L24.04,144.38L27.47,144.37L75.56,143.55L78.99,143.39L99.6,142.96L103.03,142.95L154.55,142.09L157.98,141.93L178.59,140.3L182.02,140.97L202.63,141.74L206.06,141.74L340,140.9" style="vector-effect: non-scaling-stroke; fill: none; stroke: rgb(253, 231, 37); stroke-opacity: 1; stroke-width: 1px; opacity: 1;"/></g><g class="points"/><g class="text"/></g><g class="trace scatter trace646dc9" style="stroke-miterlimit: 2; opacity: 1;"><g class="fills"/><g class="errorbars"/><g class="lines"><path class="js-line" d="M0,258.4L54.95,224.12L58.38,221.92L109.9,187.96L113.33,185.64L164.85,149.81L168.28,147.35L216.36,112.13L219.8,109.55L271.31,69.8L274.75,67.08L326.26,25.14L329.7,22.27L340,13.6" style="vector-effect: non-scaling-stroke; fill: none; stroke: rgb(169, 169, 169); stroke-opacity: 1; stroke-width: 2px; opacity: 1;"/></g><g class="points"/><g class="text"/></g></g></g><g class="overplot"/><path class="xlines-above crisp" d="M0,0" style="fill: none;"/><path class="ylines-above crisp" d="M0,0" style="fill: none;"/><g class="overlines-above"/><g class="xaxislayer-above"><g class="x3tick"><text text-anchor="middle" x="0" y="1133" transform="translate(108.81,0)" style="font-family: 'Open Sans', verdana, arial, sans-serif; font-size: 12px; fill: rgb(42, 63, 95); fill-opacity: 1; white-space: pre; opacity: 1;">1.4</text></g><g class="x3tick"><text text-anchor="middle" x="0" y="1133" style="font-family: 'Open Sans', verdana, arial, sans-serif; font-size: 12px; fill: rgb(42, 63, 95); fill-opacity: 1; white-space: pre; opacity: 1;" transform="translate(211.35,0)">1.5</text></g><g class="x3tick"><text text-anchor="middle" x="0" y="1133" style="font-family: 'Open Sans', verdana, arial, sans-serif; font-size: 12px; fill: rgb(42, 63, 95); fill-opacity: 1; white-space: pre; opacity: 1;" transform="translate(313.89,0)">1.6</text></g><g class="x3tick"><text text-anchor="middle" x="0" y="1133" style="font-family: 'Open Sans', verdana, arial, sans-serif; font-size: 12px; fill: rgb(42, 63, 95); fill-opacity: 1; white-space: pre; opacity: 1;" transform="translate(416.43,0)">1.7</text></g></g><g class="yaxislayer-above"><g class="y3tick"><text text-anchor="end" x="79" y="4.199999999999999" transform="translate(0,1067.2600000000002)" style="font-family: 'Open Sans', verdana, arial, sans-serif; font-size: 12px; fill: rgb(42, 63, 95); fill-opacity: 1; white-space: pre; opacity: 1;">−0.5</text></g><g class="y3tick"><text text-anchor="end" x="79" y="4.199999999999999" style="font-family: 'Open Sans', verdana, arial, sans-serif; font-size: 12px; fill: rgb(42, 63, 95); fill-opacity: 1; white-space: pre; opacity: 1;" transform="translate(0,988.3000000000002)">0</text></g><g class="y3tick"><text text-anchor="end" x="79" y="4.199999999999999" style="font-family: 'Open Sans', verdana, arial, sans-serif; font-size: 12px; fill: rgb(42, 63, 95); fill-opacity: 1; white-space: pre; opacity: 1;" transform="translate(0,909.3400000000001)">0.5</text></g></g><g class="overaxes-above"/></g></g><g class="polarlayer"/><g class="smithlayer"/><g class="ternarylayer"/><g class="geolayer"/><g class="funnelarealayer"/><g class="pielayer"/><g class="iciclelayer"/><g class="treemaplayer"/><g class="sunburstlayer"/><g class="glimages"/><defs id="topdefs-19b307"><g class="clips"/><clipPath id="legend19b307"><rect width="188" height="29" x="0" y="0"/></clipPath></defs><g class="layer-above"><g class="imagelayer"/><g class="shapelayer"/></g><g class="infolayer"><g class="legend" pointer-events="all" transform="translate(232,50.59999999999998)"><rect class="bg" shape-rendering="crispEdges" width="188" height="29" x="0" y="0" style="stroke: rgb(68, 68, 68); stroke-opacity: 1; fill: rgb(255, 255, 255); fill-opacity: 1; stroke-width: 0px;"/><g class="scrollbox" transform="" clip-path="url(#legend19b307)"><g class="groups"><g class="traces" transform="translate(0,14.5)" style="opacity: 1;"><text class="legendtext" text-anchor="start" x="40" y="4.680000000000001" style="font-family: 'Open Sans', verdana, arial, sans-serif; font-size: 12px; fill: rgb(42, 63, 95); fill-opacity: 1; white-space: pre;">Population Log-likelihood</text><g class="layers" style="opacity: 1;"><g class="legendfill"/><g class="legendlines"><path class="js-line" d="M5,0h30" style="fill: none; stroke: rgb(51, 34, 136); stroke-opacity: 1; stroke-width: 2px;"/></g><g class="legendsymbols"><g class="legendpoints"/></g></g><rect class="legendtoggle" x="0" y="-9.5" width="184.703125" height="19" style="fill: rgb(0, 0, 0); fill-opacity: 0;"/></g></g></g><rect class="scrollbar" rx="20" ry="3" width="0" height="0" x="0" y="0" style="fill: rgb(128, 139, 164); fill-opacity: 1;"/></g><g class="g-gtitle"/><g class="g-xtitle"/><g class="g-x2title"/><g class="g-x3title"/><g class="g-ytitle"/><g class="g-y2title"/><g class="g-y3title"/></g></svg>