<svg class="main-svg" xmlns="http://www.w3.org/2000/svg" xmlns:xlink="http://www.w3.org/1999/xlink" width="500" height="1200" style="" viewBox="0 0 500 1200"><rect x="0" y="0" width="500" height="1200" style="fill: rgb(255, 255, 255); fill-opacity: 1;"/><defs id="defs-fac771"><g class="clips"><clipPath id="clipfac771xyplot" class="plotclip"><rect width="340" height="272.00000000000006"/></clipPath><clipPath id="clipfac771x2y2plot" class="plotclip"><rect width="340" height="272"/></clipPath><clipPath id="clipfac771x3y3plot" class="plotclip"><rect width="340" height="272"/></clipPath><clipPath class="axesclip" id="clipfac771x"><rect x="80" y="0" width="340" height="1200"/></clipPath><clipPath class="axesclip" id="clipfac771y"><rect x="0" y="100" width="500" height="272.00000000000006"/></clipPath><clipPath class="axesclip" id="clipfac771xy"><rect x="80" y="100" width="340" height="272.00000000000006"/></clipPath><clipPath class="axesclip" id="clipfac771y2"><rect x="0" y="474.00000000000006" width="500" height="272"/></clipPath><clipPath class="axesclip" id="clipfac771xy2"><rect x="80" y="474.00000000000006" width="340" height="272"/></clipPath><clipPath class="axesclip" id="clipfac771y3"><rect x="0" y="848.0000000000001" width="500" height="272"/></clipPath><clipPath class="axesclip" id="clipfac771xy3"><rect x="80" y="848.0000000000001" width="340" height="272"/></clipPath><clipPath class="axesclip" id="clipfac771x2"><rect x="80" y="0" width="340" height="1200"/></clipPath><clipPath class="axesclip" id="clipfac771x2y"><rect x="80" y="100" width="340" height="272.00000000000006"/></clipPath><clipPath class="axesclip" id="clipfac771x2y2"><rect x="80" y="474.00000000000006" width="340" height="272"/></clipPath><clipPath class="axesclip" id="clipfac771x2y3"><rect x="80" y="848.0000000000001" width="340" height="272"/></clipPath><clipPath class="axesclip" id="clipfac771x3"><rect x="80" y="0" width="340" height="1200"/></clipPath><clipPath class="axesclip" id="clipfac771x3y"><rect x="80" y="100" width="340" height="272.00000000000006"/></clipPath><clipPath class="axesclip" id="clipfac771x3y2"><rect x="80" y="474.00000000000006" width="340" height="272"/></clipPath><clipPath class="axesclip" id="clipfac771x3y3"><rect x="80" y="848.0000000000001" width="340" height="272"/></clipPath></g><g class="gradients"/><g class="patterns"/></defs><g class="bglayer"/><g class="layer-below"><g class="imagelayer"/><g class="shapelayer"/></g><g class="cartesianlayer"><g class="subplot xy"><g class="layer-subplot"><g class="shapelayer"/><g class="imagelayer"/></g><g class="minor-gridlayer"><g class="x"/><g class="y"/></g><g class="gridlayer"><g class="x"><path class="xgrid crisp" transform="translate(108.81,0)" d="M0,100v272.00000000000006" style="stroke: rgb(235, 240, 248); stroke-opacity: 1; stroke-width: 1px;"/><path class="xgrid crisp" transform="translate(211.35,0)" d="M0,100v272.00000000000006" style="stroke: rgb(235, 240, 248); stroke-opacity: 1; stroke-width: 1px;"/><path class="xgrid crisp" transform="translate(313.89,0)" d="M0,100v272.00000000000006" style="stroke: rgb(235, 240, 248); stroke-opacity: 1; stroke-width: 1px;"/><path class="xgrid crisp" transform="translate(416.43,0)" d="M0,100v272.00000000000006" style="stroke: rgb(235, 240, 248); stroke-opacity: 1; stroke-width: 1px;"/></g><g class="y"><path class="ygrid crisp" transform="translate(0,356.43)" d="M80,0h340" style="stroke: rgb(235, 240, 248); stroke-opacity: 1; stroke-width: 1px;"/><path class="ygrid crisp" transform="translate(0,307.86)" d="M80,0h340" style="stroke: rgb(235, 240, 248); stroke-opacity: 1; stroke-width: 1px;"/><path class="ygrid crisp" transform="translate(0,259.3)" d="M80,0h340" style="stroke: rgb(235, 240, 248); stroke-opacity: 1; stroke-width: 1px;"/><path class="ygrid crisp" transform="translate(0,210.73000000000002)" d="M80,0h340" style="stroke: rgb(235, 240, 248); stroke-opacity: 1; stroke-width: 1px;"/><path class="ygrid crisp" transform="translate(0,162.17000000000002)" d="M80,0h340" style="stroke: rgb(235, 240, 248); stroke-opacity: 1; stroke-width: 1px;"/></g></g><g class="zerolinelayer"><path class="yzl zl crisp" transform="translate(0,113.6)" d="M80,0h340" style="stroke: rgb(235, 240, 248); stroke-opacity: 1; stroke-width: 2px;"/></g><path class="xlines-below"/><path class="ylines-below"/><g class="overlines-below"/><g class="xaxislayer-below"/><g class="yaxislayer-below"/><g class="overaxes-below"/><g class="plot" transform="translate(80,100)" clip-path="url(#clipfac771xyplot)"><g class="scatterlayer mlayer"><g class="trace scatter trace0e4d96" style="stroke-miterlimit: 2; opacity: 1;"><g class="fills"/><g class="errorbars"/><g class="lines"><path class="js-line" d="M0,257.98L22.26,202.64L25.04,196.07L41.74,158.75L44.52,153.04L58.44,124.85L61.22,119.63L75.13,95.01L77.92,90.84L86.26,77.83L89.05,74.74L94.61,65.9L97.4,61.84L116.88,39.46L119.66,36.64L130.79,27.86L133.57,27.02L136.35,24.07L139.14,22.43L141.92,20.54L144.7,19.67L147.49,17.86L150.27,17.01L153.05,16.05L155.83,16.32L158.62,14.6L161.4,14.3L164.18,13.6L166.96,14.51L169.75,13.6L172.53,14.45L175.31,14.65L178.1,18.68L180.62,15.39L183.15,15.96L185.68,16L188.21,17.47L190.74,17.48L193.27,18.73L195.8,19.75L198.33,21.91L200.86,22.4L203.39,23.95L208.45,27.54L210.98,29.02L226.16,42.68L228.69,45.62L233.75,51.09L236.28,54.05L256.52,82.17L259.05,86.68L266.64,98.42L269.17,102.91L279.29,121.19L281.82,125.84L296.99,156.53L299.52,161.99L314.7,195.99L317.23,201.93L334.94,245.46L340,258.4" style="vector-effect: non-scaling-stroke; fill: none; stroke: rgb(51, 34, 136); stroke-opacity: 1; stroke-width: 2px; opacity: 1;"/></g><g class="points"/><g class="text"/></g></g></g><g class="overplot"/><path class="xlines-above crisp" d="M0,0" style="fill: none;"/><path class="ylines-above crisp" d="M0,0" style="fill: none;"/><g class="overlines-above"/><g class="xaxislayer-above"/><g class="yaxislayer-above"><g class="ytick"><text text-anchor="end" x="79" y="4.199999999999999" transform="translate(0,356.43)" style="font-family: 'Open Sans', verdana, arial, sans-serif; font-size: 12px; fill: rgb(42, 63, 95); fill-opacity: 1; white-space: pre; opacity: 1;">−5</text></g><g class="ytick"><text text-anchor="end" x="79" y="4.199999999999999" style="font-family: 'Open Sans', verdana, arial, sans-serif; font-size: 12px; fill: rgb(42, 63, 95); fill-opacity: 1; white-space: pre; opacity: 1;" transform="translate(0,307.86)">−4</text></g><g class="ytick"><text text-anchor="end" x="79" y="4.199999999999999" style="font-family: 'Open Sans', verdana, arial, sans-serif; font-size: 12px; fill: rgb(42, 63, 95); fill-opacity: 1; white-space: pre; opacity: 1;" transform="translate(0,259.3)">−3</text></g><g class="ytick"><text text-anchor="end" x="79" y="4.199999999999999" style="font-family: 'Open Sans', verdana, arial, sans-serif; font-size: 12px; fill: rgb(42, 63, 95); fill-opacity: 1; white-space: pre; opacity: 1;" transform="translate(0,210.73000000000002)">−2</text></g><g class="ytick"><text text-anchor="end" x="79" y="4.199999999999999" style="font-family: 'Open Sans', verdana, arial, sans-serif; font-size: 12px; fill: rgb(42, 63, 95); fill-opacity: 1; white-space: pre; opacity: 1;" transform="translate(0,162.17000000000002)">−1</text></g><g class="ytick"><text text-anchor="end" x="79" y="4.199999999999999" style="font-family: 'Open Sans', verdana, arial, sans-serif; font-size: 12px; fill: rgb(42, 63, 95); fill-opacity: 1; white-space: pre; opacity: 1;" transform="translate(0,113.6)">0</text></g></g><g class="overaxes-above"/></g><g class="subplot x2y2"><g class="layer-subplot"><g class="shapelayer"/><g class="imagelayer"/></g><g class="minor-gridlayer"><g class="x2"/><g class="y2"/></g><g class="gridlayer"><g class="x2"><path class="x2grid crisp" transform="translate(108.81,0)" d="M0,474.00000000000006v272" style="stroke: rgb(235, 240, 248); stroke-opacity: 1; stroke-width: 1px;"/><path class="x2grid crisp" transform="translate(211.35,0)" d="M0,474.00000000000006v272" style="stroke: rgb(235, 240, 248); stroke-opacity: 1; stroke-width: 1px;"/><path class="x2grid crisp" transform="translate(313.89,0)" d="M0,474.00000000000006v272" style="stroke: rgb(235, 240, 248); stroke-opacity: 1; stroke-width: 1px;"/><path class="x2grid crisp" transform="translate(416.43,0)" d="M0,474.00000000000006v272" style="stroke: rgb(235, 240, 248); stroke-opacity: 1; stroke-width: 1px;"/></g><g class="y2"><path class="y2grid crisp" transform="translate(0,711.19)" d="M80,0h340" style="stroke: rgb(235, 240, 248); stroke-opacity: 1; stroke-width: 1px;"/><path class="y2grid crisp" transform="translate(0,573.09)" d="M80,0h340" style="stroke: rgb(235, 240, 248); stroke-opacity: 1; stroke-width: 1px;"/><path class="y2grid crisp" transform="translate(0,504.0400000000001)" d="M80,0h340" style="stroke: rgb(235, 240, 248); stroke-opacity: 1; stroke-width: 1px;"/></g></g><g class="zerolinelayer"><path class="y2zl zl crisp" transform="translate(0,642.1400000000001)" d="M80,0h340" style="stroke: rgb(235, 240, 248); stroke-opacity: 1; stroke-width: 2px;"/></g><path class="xlines-below"/><path class="ylines-below"/><g class="overlines-below"/><g class="xaxislayer-below"/><g class="yaxislayer-below"/><g class="overaxes-below"/><g class="plot" transform="translate(80,474.00000000000006)" clip-path="url(#clipfac771x2y2plot)"><g class="scatterlayer mlayer"><g class="trace scatter trace886b59" style="stroke-miterlimit: 2; opacity: 1;"><g class="fills"/><g class="errorbars"/><g class="lines"><path class="js-line" d="M2.78,167.41L5.57,171.65L8.35,168.64L13.91,169.86L16.7,169.7L19.48,170.09L22.26,169.09L25.04,170.42L27.83,168.64L30.61,173.06L33.39,167.01L36.18,172.1L38.96,168.85L41.74,173.5L44.52,162.85L47.31,174.14L50.09,168.37L52.87,174.34L55.65,164.72L58.44,173.92L61.22,170.37L64,176L66.79,155.98L69.57,180.44L72.35,166.23L75.13,180.07L77.92,156.36L80.7,183L83.48,164.12L86.26,190.08L89.05,131.09L91.83,190.66L94.61,163.68L97.4,183.89L100.18,155.48L102.96,182.46L105.74,165.88L108.53,183.99L111.31,146.88L114.09,183.85L116.88,166.58L119.66,183.74L122.44,153.11L125.22,185.95L128.01,164.14L130.79,192.13L133.57,127.43L136.35,193.29L139.14,163.44L141.92,187.79L144.7,150.14L147.49,186.51L150.27,166.06L153.05,191.86L155.83,129.66L158.62,195.67L161.4,160.33L164.18,199.3L166.96,132.95L169.75,202.12L172.53,155.6L175.31,241.93L178.03,13.6L180.62,258.4L183.15,155.54L185.68,201.77L188.21,133.77L190.74,197.27L193.27,162.81L195.8,194.84L198.33,128.81L200.86,193.18L203.39,164.32L205.92,187.05L208.45,151.11L210.98,186.53L213.51,164.09L216.04,190.66L218.57,132.03L221.1,189.25L223.63,167.05L226.16,181.53L228.69,157.12L231.22,180.87L233.75,167.18L236.28,180.48L238.81,153.31L241.34,180.3L243.87,167.26L246.4,179.07L248.93,159.44L251.46,179.62L253.99,166.24L256.52,183.58L259.05,144.71L261.58,183.12L264.11,166.57L266.64,177.81L269.17,162.22L271.7,175.85L274.23,169.14L276.76,173.46L279.29,163.75L281.82,173.81L284.35,169.13L286.88,172.65L289.4,167.89L291.93,170.65L294.46,171.22L296.99,170.27L299.52,167.35L302.05,171.73L304.58,169.31L307.11,170.75L309.64,167.81L312.17,173L314.7,168.4L317.23,170.02L319.76,166.82L322.29,175.18L324.82,167.04L327.35,169.71L330.51,169.63L334.94,169.15" style="vector-effect: non-scaling-stroke; fill: none; stroke: rgb(51, 34, 136); stroke-opacity: 1; stroke-width: 2px; opacity: 1;"/></g><g class="points"/><g class="text"/></g></g></g><g class="overplot"/><path class="xlines-above crisp" d="M0,0" style="fill: none;"/><path class="ylines-above crisp" d="M0,0" style="fill: none;"/><g class="overlines-above"/><g class="xaxislayer-above"/><g class="yaxislayer-above"><g class="y2tick"><text text-anchor="end" x="79" y="4.199999999999999" transform="translate(0,711.19)" style="font-family: 'Open Sans', verdana, arial, sans-serif; font-size: 12px; fill: rgb(42, 63, 95); fill-opacity: 1; white-space: pre; opacity: 1;">−10k</text></g><g class="y2tick"><text text-anchor="end" x="79" y="4.199999999999999" style="font-family: 'Open Sans', verdana, arial, sans-serif; font-size: 12px; fill: rgb(42, 63, 95); fill-opacity: 1; white-space: pre; opacity: 1;" transform="translate(0,642.1400000000001)">0</text></g><g class="y2tick"><text text-anchor="end" x="79" y="4.199999999999999" style="font-family: 'Open Sans', verdana, arial, sans-serif; font-size: 12px; fill: rgb(42, 63, 95); fill-opacity: 1; white-space: pre; opacity: 1;" transform="translate(0,573.09)">10k</text></g><g class="y2tick"><text text-anchor="end" x="79" y="4.199999999999999" style="font-family: 'Open Sans', verdana, arial, sans-serif; font-size: 12px; fill: rgb(42, 63, 95); fill-opacity: 1; white-space: pre; opacity: 1;" transform="translate(0,504.0400000000001)">20k</text></g></g><g class="overaxes-above"/></g><g class="subplot x3y3"><g class="layer-subplot"><g class="shapelayer"/><g class="imagelayer"/></g><g class="minor-gridlayer"><g class="x3"/><g class="y3"/></g><g class="gridlayer"><g class="x3"><path class="x3grid crisp" transform="translate(108.81,0)" d="M0,848.0000000000001v272" style="stroke: rgb(235, 240, 248); stroke-opacity: 1; stroke-width: 1px;"/><path class="x3grid crisp" transform="translate(211.35,0)" d="M0,848.0000000000001v272" style="stroke: rgb(235, 240, 248); stroke-opacity: 1; stroke-width: 1px;"/><path class="x3grid crisp" transform="translate(313.89,0)" d="M0,848.0000000000001v272" style="stroke: rgb(235, 240, 248); stroke-opacity: 1; stroke-width: 1px;"/><path class="x3grid crisp" transform="translate(416.43,0)" d="M0,848.0000000000001v272" style="stroke: rgb(235, 240, 248); stroke-opacity: 1; stroke-width: 1px;"/></g><g class="y3"><path class="y3grid crisp" transform="translate(0,1067.2600000000002)" d="M80,0h340" style="stroke: rgb(235, 240, 248); stroke-opacity: 1; stroke-width: 1px;"/><path class="y3grid crisp" transform="translate(0,909.3400000000001)" d="M80,0h340" style="stroke: rgb(235, 240, 248); stroke-opacity: 1; stroke-width: 1px;"/></g></g><g class="zerolinelayer"><path class="y3zl zl crisp" transform="translate(0,988.3000000000002)" d="M80,0h340" style="stroke: rgb(235, 240, 248); stroke-opacity: 1; stroke-width: 2px;"/></g><path class="xlines-below"/><path class="ylines-below"/><g class="overlines-below"/><g class="xaxislayer-below"/><g class="yaxislayer-below"/><g class="overaxes-below"/><g class="plot" transform="translate(80,848.0000000000001)" clip-path="url(#clipfac771x3y3plot)"><g class="scatterlayer mlayer"><g class="trace scatter trace1344cd" style="stroke-miterlimit: 2; opacity: 1;"><g class="fills"/><g class="errorbars"/><g class="lines"><path class="js-line" d="M0,149.3L41.74,148.03L44.52,147.65L52.87,147.82L55.65,147.53L64,147.33L66.79,146.9L75.13,146.98L77.92,146.5L83.48,146.32L86.26,146.23L91.83,146.05L94.61,145.95L102.96,146.05L105.74,145.79L125.22,145.22L128.01,144.82L175.31,142.67L178.1,140.3L180.62,142.49L183.15,142.37L190.74,142.49L193.27,142.21L205.92,142.1L208.45,141.62L213.51,141.56L216.04,141.49L218.57,141.01L221.1,141.31L284.35,139.46L286.88,139.49L299.52,138.88L302.05,138.99L340,138.09" style="vector-effect: non-scaling-stroke; fill: none; stroke: rgb(68, 1, 84); stroke-opacity: 1; stroke-width: 1px; opacity: 1;"/></g><g class="points"/><g class="text"/></g><g class="trace scatter tracebce76f" style="stroke-miterlimit: 2; opacity: 1;"><g class="fills"/><g class="errorbars"/><g class="lines"><path class="js-line" d="M0,146.74L41.74,145.64L44.52,145.3L52.87,145.49L55.65,145.22L64,145.07L66.79,144.66L75.13,144.79L77.92,144.35L83.48,144.2L86.26,144.13L89.05,143.67L91.83,144L130.79,143.02L133.57,142.46L141.92,142.95L144.7,142.48L150.27,142.53L153.05,142.48L155.83,141.93L158.62,142.27L175.31,141.44L178.1,140.3L180.62,141.32L183.15,141.25L190.74,141.47L193.27,141.23L205.92,141.27L208.45,140.83L213.51,140.83L216.04,140.79L218.57,140.33L221.1,140.67L284.35,139.6L286.88,139.66L299.52,139.2L302.05,139.34L340,138.87" style="vector-effect: non-scaling-stroke; fill: none; stroke: rgb(69, 7, 90); stroke-opacity: 1; stroke-width: 1px; opacity: 1;"/></g><g class="points"/><g class="text"/></g><g class="trace scatter traceb466d3" style="stroke-miterlimit: 2; opacity: 1;"><g class="fills"/><g class="errorbars"/><g class="lines"><path class="js-line" d="M0,149.55L36.18,148.28L38.96,148.04L86.26,145.83L89.05,145.1L94.61,145.53L97.4,145.74L100.18,145.29L102.96,145.65L114.09,145.16L116.88,145L125.22,144.78L128.01,144.35L139.14,143.9L141.92,144.11L144.7,143.58L147.49,143.94L155.83,142.73L158.62,143.26L175.31,142.08L178.1,140.3L180.62,141.94L183.15,141.86L185.68,142.23L188.21,141.68L190.74,142.23L193.27,141.98L210.98,141.81L213.51,141.47L223.63,141.22L226.16,141.44L231.22,141.38L233.75,141.18L256.52,140.43L259.05,139.87L266.64,140.42L269.17,140.16L276.76,140.31L279.29,140.01L286.88,140.27L289.4,140.08L317.23,139.88L319.76,139.8L340,139.63" style="vector-effect: non-scaling-stroke; fill: none; stroke: rgb(69, 14, 96); stroke-opacity: 1; stroke-width: 1px; opacity: 1;"/></g><g class="points"/><g class="text"/></g><g class="trace scatter traced0c045" style="stroke-miterlimit: 2; opacity: 1;"><g class="fills"/><g class="errorbars"/><g class="lines"><path class="js-line" d="M0,156.64L38.96,154.81L41.74,154.68L44.52,154.12L47.31,154.44L86.26,151.82L89.05,151.31L97.4,151.57L100.18,150.98L102.96,151.38L105.74,151L119.66,150.43L122.44,149.69L125.22,149.95L128.01,149.37L139.14,148.58L141.92,148.76L144.7,148L147.49,148.42L155.83,147.04L158.62,147.3L172.53,145.88L175.31,145.68L178.1,140.3L180.62,145.32L203.39,144.1L205.92,144.21L208.45,143.49L210.98,143.8L218.57,142.47L221.1,142.79L274.23,139.36L276.76,139.28L281.82,138.97L284.35,138.79L294.46,138.2L296.99,137.99L304.58,137.59L307.11,137.54L324.82,136.57L327.35,136.46L340,135.56" style="vector-effect: non-scaling-stroke; fill: none; stroke: rgb(70, 20, 101); stroke-opacity: 1; stroke-width: 1px; opacity: 1;"/></g><g class="points"/><g class="text"/></g><g class="trace scatter tracea73f02" style="stroke-miterlimit: 2; opacity: 1;"><g class="fills"/><g class="errorbars"/><g class="lines"><path class="js-line" d="M0,144.66L75.13,143.06L77.92,142.75L86.26,142.59L89.05,142.1L97.4,142.57L100.18,142.31L108.53,142.38L111.31,142.03L119.66,142.27L122.44,141.94L130.79,141.82L133.57,141.33L141.92,141.79L144.7,141.5L153.05,141.5L155.83,141.01L161.4,141.26L164.18,141.32L169.75,141.14L172.53,140.78L188.21,140.59L190.74,140.95L203.39,140.79L205.92,140.9L213.51,140.65L216.04,140.64L218.57,140.23L221.1,140.59L304.58,140.34L307.11,140.39L340,140.37" style="vector-effect: non-scaling-stroke; fill: none; stroke: rgb(71, 26, 107); stroke-opacity: 1; stroke-width: 1px; opacity: 1;"/></g><g class="points"/><g class="text"/></g><g class="trace scatter tracef5887d" style="stroke-miterlimit: 2; opacity: 1;"><g class="fills"/><g class="errorbars"/><g class="lines"><path class="js-line" d="M0,146.46L41.74,145.29L44.52,144.97L52.87,145.12L55.65,144.86L64,144.7L66.79,144.3L75.13,144.42L77.92,143.98L83.48,143.84L86.26,143.77L89.05,143.22L91.83,143.64L130.79,142.69L133.57,142.09L139.14,142.45L141.92,142.64L144.7,142.2L147.49,142.53L158.62,142.01L161.4,141.83L169.75,141.64L172.53,141.24L175.31,141.18L178.1,140.3L180.62,141.08L183.15,141.02L190.74,141.32L193.27,141.11L210.98,141.05L213.51,140.78L256.52,140.08L259.05,139.69L266.64,140.1L269.17,139.88L276.76,140.03L279.29,139.79L289.4,139.86L291.93,139.91L340,139.54" style="vector-effect: non-scaling-stroke; fill: none; stroke: rgb(71, 32, 113); stroke-opacity: 1; stroke-width: 1px; opacity: 1;"/></g><g class="points"/><g class="text"/></g><g class="trace scatter trace6e5af2" style="stroke-miterlimit: 2; opacity: 1;"><g class="fills"/><g class="errorbars"/><g class="lines"><path class="js-line" d="M0,145.27L41.74,144.24L44.52,144L58.44,143.95L61.22,143.78L86.26,142.95L89.05,142.41L94.61,142.78L97.4,142.93L105.74,142.71L108.53,142.71L114.09,142.61L116.88,142.51L128.01,142.13L130.79,142.08L133.57,141.52L136.35,141.96L175.31,140.85L178.1,140.3L185.68,141.06L188.21,140.67L193.27,140.93L195.8,140.98L198.33,140.51L200.86,140.94L228.69,140.57L231.22,140.79L253.99,140.37L256.52,140.35L261.58,140.3L264.11,140.28L276.76,140.41L279.29,140.23L291.93,140.4L294.46,140.37L340,140.36" style="vector-effect: non-scaling-stroke; fill: none; stroke: rgb(72, 39, 119); stroke-opacity: 1; stroke-width: 1px; opacity: 1;"/></g><g class="points"/><g class="text"/></g><g class="trace scatter trace1f3f4c" style="stroke-miterlimit: 2; opacity: 1;"><g class="fills"/><g class="errorbars"/><g class="lines"><path class="js-line" d="M0,149.31L41.74,147.82L44.52,147.44L52.87,147.57L55.65,147.26L64,147.03L66.79,146.56L75.13,146.65L77.92,146.14L83.48,145.94L86.26,145.84L89.05,145.21L91.83,145.66L130.79,144.31L133.57,143.6L139.14,143.97L141.92,144.16L144.7,143.64L147.49,144L155.83,142.88L158.62,143.32L175.31,142.22L178.1,140.3L180.62,142.07L183.15,141.97L185.68,142.27L188.21,141.79L193.27,142L195.8,142.05L198.33,141.44L200.86,141.92L223.63,141.18L226.16,141.38L231.22,141.3L233.75,141.1L256.52,140.3L259.05,139.81L266.64,140.25L269.17,139.98L276.76,140.09L279.29,139.8L286.88,140.01L289.4,139.81L317.23,139.5L319.76,139.4L340,139.11" style="vector-effect: non-scaling-stroke; fill: none; stroke: rgb(71, 44, 122); stroke-opacity: 1; stroke-width: 1px; opacity: 1;"/></g><g class="points"/><g class="text"/></g><g class="trace scatter trace00b0dc" style="stroke-miterlimit: 2; opacity: 1;"><g class="fills"/><g class="errorbars"/><g class="lines"><path class="js-line" d="M0,145.46L41.74,144.4L44.52,144.15L58.44,144.1L61.22,143.93L86.26,143.06L89.05,142.5L94.61,142.89L97.4,143.04L105.74,142.82L108.53,142.81L114.09,142.71L116.88,142.61L128.01,142.22L130.79,142.16L133.57,141.59L136.35,142.04L175.31,140.89L178.1,140.3L183.15,140.79L185.68,141.09L188.21,140.7L190.74,141.12L203.39,140.92L205.92,141.05L213.51,140.76L216.04,140.74L218.57,140.27L221.1,140.69L279.29,140.23L281.82,140.4L340,140.36" style="vector-effect: non-scaling-stroke; fill: none; stroke: rgb(69, 49, 125); stroke-opacity: 1; stroke-width: 1px; opacity: 1;"/></g><g class="points"/><g class="text"/></g><g class="trace scatter trace303cf3" style="stroke-miterlimit: 2; opacity: 1;"><g class="fills"/><g class="errorbars"/><g class="lines"><path class="js-line" d="M0,145.03L64,143.54L66.79,143.24L75.13,143.31L77.92,142.98L86.26,142.81L89.05,142.28L97.4,142.79L100.18,142.51L108.53,142.58L111.31,142.2L119.66,142.45L122.44,142.11L130.79,141.97L133.57,141.44L139.14,141.8L141.92,141.94L150.27,141.65L153.05,141.62L155.83,141.1L158.62,141.49L183.15,140.71L185.68,141.01L188.21,140.64L190.74,141.03L203.39,140.85L205.92,140.97L213.51,140.7L216.04,140.69L218.57,140.25L221.1,140.63L304.58,140.35L307.11,140.39L340,140.38" style="vector-effect: non-scaling-stroke; fill: none; stroke: rgb(68, 55, 128); stroke-opacity: 1; stroke-width: 1px; opacity: 1;"/></g><g class="points"/><g class="text"/></g><g class="trace scatter tracee3c42f" style="stroke-miterlimit: 2; opacity: 1;"><g class="fills"/><g class="errorbars"/><g class="lines"><path class="js-line" d="M0,143.97L75.13,142.6L77.92,142.34L86.26,142.2L89.05,141.78L97.4,142.19L100.18,141.97L108.53,142.02L111.31,141.72L119.66,141.93L122.44,141.65L130.79,141.55L133.57,141.12L141.92,141.53L144.7,141.27L153.05,141.28L155.83,140.86L164.18,141.13L166.96,140.74L172.53,140.67L175.31,140.64L180.62,140.59L183.15,140.56L190.74,140.82L193.27,140.71L216.04,140.56L218.57,140.21L226.16,140.63L228.69,140.45L236.28,140.55L238.81,140.32L248.93,140.33L251.46,140.45L269.17,140.24L271.7,140.39L309.64,140.33L312.17,140.38L340,140.36" style="vector-effect: non-scaling-stroke; fill: none; stroke: rgb(66, 60, 130); stroke-opacity: 1; stroke-width: 1px; opacity: 1;"/></g><g class="points"/><g class="text"/></g><g class="trace scatter tracec36da0" style="stroke-miterlimit: 2; opacity: 1;"><g class="fills"/><g class="errorbars"/><g class="lines"><path class="js-line" d="M0,145.29L64,143.73L66.79,143.41L75.13,143.49L77.92,143.14L86.26,142.96L89.05,142.41L94.61,142.79L97.4,142.94L105.74,142.72L108.53,142.71L114.09,142.61L116.88,142.52L130.79,142.08L133.57,141.53L139.14,141.89L141.92,142.05L150.27,141.74L153.05,141.71L155.83,141.17L158.62,141.57L183.15,140.75L185.68,141.06L188.21,140.67L190.74,141.08L203.39,140.89L205.92,141.02L213.51,140.73L216.04,140.72L218.57,140.26L221.1,140.66L284.35,140.39L286.88,140.46L304.58,140.35L307.11,140.4L340,140.37" style="vector-effect: non-scaling-stroke; fill: none; stroke: rgb(64, 65, 133); stroke-opacity: 1; stroke-width: 1px; opacity: 1;"/></g><g class="points"/><g class="text"/></g><g class="trace scatter trace71f17e" style="stroke-miterlimit: 2; opacity: 1;"><g class="fills"/><g class="errorbars"/><g class="lines"><path class="js-line" d="M0,147.47L64,145.39L66.79,144.97L75.13,145.05L77.92,144.6L83.48,144.43L86.26,144.35L89.05,143.67L91.83,144.19L130.79,143.11L133.57,142.4L139.14,142.84L141.92,143.03L144.7,142.58L147.49,142.9L155.83,141.87L158.62,142.36L175.31,141.39L178.1,140.3L180.62,141.3L183.15,141.23L185.68,141.59L188.21,141.1L193.27,141.41L195.8,141.46L198.33,140.86L200.86,141.38L223.63,140.9L226.16,141.1L233.75,140.91L236.28,140.92L241.34,140.82L243.87,140.73L256.52,140.39L259.05,139.89L266.64,140.44L269.17,140.22L276.76,140.39L279.29,140.15L289.4,140.25L291.93,140.31L340,140.09" style="vector-effect: non-scaling-stroke; fill: none; stroke: rgb(63, 71, 136); stroke-opacity: 1; stroke-width: 1px; opacity: 1;"/></g><g class="points"/><g class="text"/></g><g class="trace scatter trace79568b" style="stroke-miterlimit: 2; opacity: 1;"><g class="fills"/><g class="errorbars"/><g class="lines"><path class="js-line" d="M0,147.64L41.74,146.22L44.52,145.9L52.87,146L55.65,145.71L64,145.5L66.79,145.08L75.13,145.16L77.92,144.7L83.48,144.52L86.26,144.44L89.05,143.74L91.83,144.28L130.79,143.17L133.57,142.44L139.14,142.9L141.92,143.09L144.7,142.63L147.49,142.96L155.83,141.89L158.62,142.4L175.31,141.41L178.1,140.3L180.62,141.31L183.15,141.25L185.68,141.63L188.21,141.12L193.27,141.44L195.8,141.49L198.33,140.88L200.86,141.42L223.63,140.92L226.16,141.13L233.75,140.94L236.28,140.95L241.34,140.85L243.87,140.76L256.52,140.42L259.05,139.91L266.64,140.47L269.17,140.25L276.76,140.43L279.29,140.18L289.4,140.3L291.93,140.35L340,140.17" style="vector-effect: non-scaling-stroke; fill: none; stroke: rgb(61, 76, 137); stroke-opacity: 1; stroke-width: 1px; opacity: 1;"/></g><g class="points"/><g class="text"/></g><g class="trace scatter trace7f469f" style="stroke-miterlimit: 2; opacity: 1;"><g class="fills"/><g class="errorbars"/><g class="lines"><path class="js-line" d="M0,147.37L41.74,146.01L44.52,145.69L52.87,145.79L55.65,145.51L64,145.32L66.79,144.91L75.13,144.99L77.92,144.54L83.48,144.37L86.26,144.29L89.05,143.63L91.83,144.14L130.79,143.07L133.57,142.37L139.14,142.8L141.92,142.99L144.7,142.55L147.49,142.87L155.83,141.84L158.62,142.33L175.31,141.38L178.1,140.3L180.62,141.28L183.15,141.22L185.68,141.57L188.21,141.09L193.27,141.39L195.8,141.43L198.33,140.85L200.86,141.36L223.63,140.88L226.16,141.08L233.75,140.89L236.28,140.9L241.34,140.8L243.87,140.71L256.52,140.38L259.05,139.89L266.64,140.42L269.17,140.2L276.76,140.37L279.29,140.13L289.4,140.24L291.93,140.29L340,140.08" style="vector-effect: non-scaling-stroke; fill: none; stroke: rgb(59, 81, 138); stroke-opacity: 1; stroke-width: 1px; opacity: 1;"/></g><g class="points"/><g class="text"/></g><g class="trace scatter tracef39631" style="stroke-miterlimit: 2; opacity: 1;"><g class="fills"/><g class="errorbars"/><g class="lines"><path class="js-line" d="M0,146.74L38.96,145.73L41.74,145.65L47.31,145.53L50.09,145.45L64,145.08L66.79,144.68L75.13,144.8L77.92,144.36L83.48,144.21L86.26,144.14L89.05,143.67L91.83,144.17L100.18,143.76L102.96,144.08L116.88,143.6L119.66,143.69L125.22,143.46L128.01,143.1L144.7,142.49L147.49,142.83L161.4,142.07L164.18,142.18L169.75,141.86L172.53,141.52L175.31,141.44L178.1,140.3L180.62,141.33L183.15,141.26L190.74,141.48L193.27,141.25L210.98,141.12L213.51,140.84L340,138.91" style="vector-effect: non-scaling-stroke; fill: none; stroke: rgb(45, 114, 142); stroke-opacity: 1; stroke-width: 1px; opacity: 1;"/></g><g class="points"/><g class="text"/></g><g class="trace scatter trace0e0d32" style="stroke-miterlimit: 2; opacity: 1;"><g class="fills"/><g class="errorbars"/><g class="lines"><path class="js-line" d="M0,149.74L36.18,148.47L38.96,148.22L86.26,145.98L89.05,145.24L94.61,145.67L97.4,145.89L100.18,145.43L102.96,145.79L114.09,145.3L116.88,145.13L125.22,144.91L128.01,144.47L139.14,144.01L141.92,144.22L144.7,143.68L147.49,144.05L155.83,142.84L158.62,143.36L175.31,142.18L178.1,140.3L180.62,142.03L183.15,141.94L185.68,142.31L188.21,141.76L190.74,142.3L193.27,142.04L205.92,142.04L208.45,141.54L213.51,141.51L216.04,141.46L218.57,140.78L221.1,141.32L256.52,140.42L259.05,139.85L266.64,140.41L269.17,140.14L276.76,140.29L279.29,139.98L286.88,140.24L289.4,140.04L314.7,139.83L317.23,139.82L340,139.53" style="vector-effect: non-scaling-stroke; fill: none; stroke: rgb(43, 118, 142); stroke-opacity: 1; stroke-width: 1px; opacity: 1;"/></g><g class="points"/><g class="text"/></g><g class="trace scatter trace0155d7" style="stroke-miterlimit: 2; opacity: 1;"><g class="fills"/><g class="errorbars"/><g class="lines"><path class="js-line" d="M0,156.18L30.61,154.9L33.39,154.55L41.74,154.1L44.52,153.54L52.87,153.72L55.65,153.28L61.22,153.08L64,152.93L69.57,152.31L72.35,152.34L80.7,151.87L83.48,151.31L94.61,150.69L97.4,150.94L100.18,150.32L102.96,150.75L111.31,149.44L114.09,149.98L130.79,148.57L133.57,147.7L139.14,147.98L141.92,148.19L144.7,147.43L147.49,147.87L155.83,146.35L158.62,146.77L175.31,145.1L178.1,140.3L180.62,144.78L183.15,144.6L190.74,144.69L193.27,144.27L205.92,143.95L208.45,143.22L210.98,143.56L213.51,143.06L223.63,142.44L226.16,142.64L228.69,142.1L231.22,142.41L241.34,141.64L243.87,141.41L251.46,141.02L253.99,140.58L269.17,139.67L271.7,139.9L284.35,139.21L286.88,139.23L299.52,138.22L302.05,138.33L340,136.49" style="vector-effect: non-scaling-stroke; fill: none; stroke: rgb(41, 122, 142); stroke-opacity: 1; stroke-width: 1px; opacity: 1;"/></g><g class="points"/><g class="text"/></g><g class="trace scatter tracecd74c9" style="stroke-miterlimit: 2; opacity: 1;"><g class="fills"/><g class="errorbars"/><g class="lines"><path class="js-line" d="M0,144.79L75.13,143.15L77.92,142.83L86.26,142.66L89.05,142.16L97.4,142.65L100.18,142.38L108.53,142.45L111.31,142.09L119.66,142.33L122.44,142L130.79,141.87L133.57,141.37L141.92,141.84L144.7,141.54L153.05,141.54L155.83,141.05L161.4,141.29L164.18,141.36L169.75,141.17L172.53,140.81L183.15,140.68L185.68,140.96L190.74,140.98L193.27,140.85L216.04,140.62L218.57,140.24L226.16,140.73L228.69,140.52L236.28,140.64L238.81,140.36L246.4,140.59L248.93,140.37L256.52,140.33L259.05,139.98L266.64,140.4L269.17,140.25L281.82,140.39L284.35,140.38L314.7,140.39L317.23,140.4L340,140.37" style="vector-effect: non-scaling-stroke; fill: none; stroke: rgb(40, 126, 142); stroke-opacity: 1; stroke-width: 1px; opacity: 1;"/></g><g class="points"/><g class="text"/></g><g class="trace scatter traceb9117f" style="stroke-miterlimit: 2; opacity: 1;"><g class="fills"/><g class="errorbars"/><g class="lines"><path class="js-line" d="M0,146.54L41.74,145.37L44.52,145.05L52.87,145.2L55.65,144.93L64,144.77L66.79,144.38L75.13,144.49L77.92,144.06L83.48,143.91L86.26,143.84L89.05,143.29L91.83,143.71L130.79,142.75L133.57,142.15L139.14,142.5L141.92,142.69L144.7,142.25L147.49,142.58L158.62,142.06L161.4,141.87L169.75,141.67L172.53,141.28L175.31,141.21L178.1,140.3L180.62,141.12L183.15,141.05L190.74,141.34L193.27,141.13L210.98,141.07L213.51,140.8L256.52,140.07L259.05,139.68L266.64,140.08L269.17,139.87L276.76,140.01L279.29,139.77L289.4,139.84L291.93,139.88L340,139.48" style="vector-effect: non-scaling-stroke; fill: none; stroke: rgb(38, 130, 142); stroke-opacity: 1; stroke-width: 1px; opacity: 1;"/></g><g class="points"/><g class="text"/></g><g class="trace scatter trace5c5271" style="stroke-miterlimit: 2; opacity: 1;"><g class="fills"/><g class="errorbars"/><g class="lines"><path class="js-line" d="M0,145.18L64,143.65L66.79,143.34L75.13,143.41L77.92,143.07L86.26,142.89L89.05,142.36L94.61,142.72L97.4,142.87L105.74,142.66L108.53,142.66L114.09,142.56L116.88,142.46L128.01,142.09L130.79,142.04L133.57,141.49L136.35,141.93L175.31,140.84L178.1,140.3L185.68,141.04L188.21,140.66L193.27,140.92L195.8,140.96L198.33,140.51L200.86,140.92L228.69,140.56L231.22,140.78L259.05,139.97L261.58,140.3L340,140.37" style="vector-effect: non-scaling-stroke; fill: none; stroke: rgb(37, 135, 141); stroke-opacity: 1; stroke-width: 1px; opacity: 1;"/></g><g class="points"/><g class="text"/></g><g class="trace scatter trace607106" style="stroke-miterlimit: 2; opacity: 1;"><g class="fills"/><g class="errorbars"/><g class="lines"><path class="js-line" d="M0,149.29L41.74,147.86L44.52,147.48L52.87,147.63L55.65,147.32L64,147.1L66.79,146.64L75.13,146.73L77.92,146.23L83.48,146.03L86.26,145.93L89.05,145.37L91.83,145.75L130.79,144.41L133.57,143.75L139.14,144.07L141.92,144.26L144.7,143.74L147.49,144.09L158.62,143.41L161.4,143.17L169.75,142.88L172.53,142.44L175.31,142.34L178.1,140.3L180.62,142.18L183.15,142.08L190.74,142.32L193.27,142.05L205.92,142L208.45,141.52L213.51,141.48L216.04,141.42L218.57,140.85L221.1,141.27L269.17,139.89L271.7,140.11L299.52,139.34L302.05,139.46L340,138.88" style="vector-effect: non-scaling-stroke; fill: none; stroke: rgb(36, 140, 140); stroke-opacity: 1; stroke-width: 1px; opacity: 1;"/></g><g class="points"/><g class="text"/></g><g class="trace scatter tracea12b6d" style="stroke-miterlimit: 2; opacity: 1;"><g class="fills"/><g class="errorbars"/><g class="lines"><path class="js-line" d="M0,145.34L75.13,143.52L77.92,143.17L86.26,142.98L89.05,142.44L94.61,142.81L97.4,142.96L105.74,142.74L108.53,142.74L114.09,142.64L116.88,142.54L130.79,142.1L133.57,141.54L139.14,141.91L141.92,142.06L150.27,141.75L153.05,141.72L155.83,141.18L158.62,141.59L183.15,140.76L185.68,141.07L188.21,140.68L190.74,141.09L203.39,140.9L205.92,141.03L213.51,140.74L216.04,140.72L218.57,140.26L221.1,140.67L284.35,140.39L286.88,140.46L304.58,140.34L307.11,140.39L340,140.37" style="vector-effect: non-scaling-stroke; fill: none; stroke: rgb(34, 144, 140); stroke-opacity: 1; stroke-width: 1px; opacity: 1;"/></g><g class="points"/><g class="text"/></g><g class="trace scatter tracecede38" style="stroke-miterlimit: 2; opacity: 1;"><g class="fills"/><g class="errorbars"/><g class="lines"><path class="js-line" d="M0,145.23L64,143.69L66.79,143.37L75.13,143.45L77.92,143.11L86.26,142.92L89.05,142.38L94.61,142.75L97.4,142.9L105.74,142.69L108.53,142.68L114.09,142.58L116.88,142.49L130.79,142.06L133.57,141.51L139.14,141.87L141.92,142.02L150.27,141.72L153.05,141.69L155.83,141.16L158.62,141.55L183.15,140.75L185.68,141.05L188.21,140.66L190.74,141.07L203.39,140.88L205.92,141.01L213.51,140.72L216.04,140.71L218.57,140.26L221.1,140.65L304.58,140.34L307.11,140.39L340,140.37" style="vector-effect: non-scaling-stroke; fill: none; stroke: rgb(33, 148, 139); stroke-opacity: 1; stroke-width: 1px; opacity: 1;"/></g><g class="points"/><g class="text"/></g><g class="trace scatter trace52aa3f" style="stroke-miterlimit: 2; opacity: 1;"><g class="fills"/><g class="errorbars"/><g class="lines"><path class="js-line" d="M0,144L64,142.81L66.79,142.56L75.13,142.63L77.92,142.36L86.26,142.22L89.05,141.79L97.4,142.21L100.18,141.98L108.53,142.04L111.31,141.74L119.66,141.95L122.44,141.67L130.79,141.56L133.57,141.13L141.92,141.54L144.7,141.29L153.05,141.29L155.83,140.87L164.18,141.14L166.96,140.74L172.53,140.67L175.31,140.64L180.62,140.6L183.15,140.57L190.74,140.83L193.27,140.72L216.04,140.56L218.57,140.21L226.16,140.63L228.69,140.46L236.28,140.56L238.81,140.33L246.4,140.52L248.93,140.33L256.52,140.31L259.05,140.01L266.64,140.37L269.17,140.24L281.82,140.36L284.35,140.36L322.29,140.38L324.82,140.38L340,140.37" style="vector-effect: non-scaling-stroke; fill: none; stroke: rgb(32, 153, 138); stroke-opacity: 1; stroke-width: 1px; opacity: 1;"/></g><g class="points"/><g class="text"/></g><g class="trace scatter tracef25d5c" style="stroke-miterlimit: 2; opacity: 1;"><g class="fills"/><g class="errorbars"/><g class="lines"><path class="js-line" d="M0,145.43L64,143.83L66.79,143.51L75.13,143.58L77.92,143.23L86.26,143.04L89.05,142.48L94.61,142.86L97.4,143.02L105.74,142.79L108.53,142.79L114.09,142.69L116.88,142.58L128.01,142.2L130.79,142.14L133.57,141.58L136.35,142.03L175.31,140.88L178.1,140.3L183.15,140.78L185.68,141.09L188.21,140.69L190.74,141.11L203.39,140.91L205.92,141.05L213.51,140.75L216.04,140.74L218.57,140.27L221.1,140.68L284.35,140.39L286.88,140.46L304.58,140.35L307.11,140.4L340,140.36" style="vector-effect: non-scaling-stroke; fill: none; stroke: rgb(31, 158, 137); stroke-opacity: 1; stroke-width: 1px; opacity: 1;"/></g><g class="points"/><g class="text"/></g><g class="trace scatter trace93caa3" style="stroke-miterlimit: 2; opacity: 1;"><g class="fills"/><g class="errorbars"/><g class="lines"><path class="js-line" d="M0,147.24L41.74,145.91L44.52,145.6L52.87,145.69L55.65,145.42L64,145.22L66.79,144.81L75.13,144.9L77.92,144.46L83.48,144.29L86.26,144.21L89.05,143.55L91.83,144.06L130.79,143L133.57,142.31L139.14,142.74L141.92,142.93L144.7,142.49L147.49,142.81L155.83,141.79L158.62,142.28L175.31,141.34L178.1,140.3L180.62,141.24L183.15,141.18L185.68,141.53L188.21,141.06L193.27,141.35L195.8,141.4L198.33,140.82L200.86,141.33L223.63,140.86L226.16,141.06L233.75,140.88L236.28,140.89L241.34,140.79L243.87,140.71L256.52,140.37L259.05,139.89L266.64,140.42L269.17,140.21L276.76,140.38L279.29,140.14L289.4,140.25L291.93,140.3L340,140.11" style="vector-effect: non-scaling-stroke; fill: none; stroke: rgb(34, 162, 135); stroke-opacity: 1; stroke-width: 1px; opacity: 1;"/></g><g class="points"/><g class="text"/></g><g class="trace scatter trace13f8e5" style="stroke-miterlimit: 2; opacity: 1;"><g class="fills"/><g class="errorbars"/><g class="lines"><path class="js-line" d="M0,147.34L41.74,145.97L44.52,145.66L52.87,145.75L55.65,145.47L64,145.27L66.79,144.69L72.35,144.93L75.13,144.94L83.48,144.32L86.26,144.24L89.05,143.55L91.83,144.09L130.79,142.65L133.57,142.3L139.14,142.76L141.92,142.94L144.7,142.5L147.49,142.82L155.83,141.78L158.62,142.28L175.31,141.33L178.1,140.3L180.62,141.23L183.15,141.17L185.68,141.55L188.21,141.05L193.27,141.37L195.8,141.41L198.33,140.82L200.86,141.35L223.63,140.88L226.16,141.09L233.75,140.91L236.28,140.92L241.34,140.82L243.87,140.74L256.52,140.41L259.05,139.91L266.64,140.47L269.17,140.26L276.76,140.44L279.29,140.2L289.4,140.31L291.93,140.37L340,140.21" style="vector-effect: non-scaling-stroke; fill: none; stroke: rgb(38, 166, 132); stroke-opacity: 1; stroke-width: 1px; opacity: 1;"/></g><g class="points"/><g class="text"/></g><g class="trace scatter tracea4d537" style="stroke-miterlimit: 2; opacity: 1;"><g class="fills"/><g class="errorbars"/><g class="lines"><path class="js-line" d="M0,147.29L41.74,145.94L44.52,145.63L52.87,145.72L55.65,145.45L64,145.25L66.79,144.84L75.13,144.93L77.92,144.48L83.48,144.31L86.26,144.23L89.05,143.57L91.83,144.08L130.79,143.02L133.57,142.33L139.14,142.76L141.92,142.94L147.49,142.82L150.27,142.53L175.31,141.34L178.1,140.3L180.62,141.25L183.15,141.19L185.68,141.54L188.21,141.06L193.27,141.36L195.8,141.41L198.33,140.83L200.86,141.34L223.63,140.87L226.16,141.07L233.75,140.89L236.28,140.89L241.34,140.8L243.87,140.71L256.52,140.38L259.05,139.9L266.64,140.43L269.17,140.22L276.76,140.39L279.29,140.15L289.4,140.25L291.93,140.31L340,140.12" style="vector-effect: non-scaling-stroke; fill: none; stroke: rgb(41, 170, 130); stroke-opacity: 1; stroke-width: 1px; opacity: 1;"/></g><g class="points"/><g class="text"/></g><g class="trace scatter trace8b620e" style="stroke-miterlimit: 2; opacity: 1;"><g class="fills"/><g class="errorbars"/><g class="lines"><path class="js-line" d="M0,138.77L22.26,140.38L25.04,140.57L66.79,143.41L69.57,143.31L86.26,144.18L89.05,146.76L91.83,144.34L94.61,144.41L108.53,144.48L111.31,144.57L130.79,144.72L133.57,146.58L136.35,144.66L139.14,144.61L150.27,144.39L153.05,144.28L155.83,146.05L158.62,144.1L164.18,143.92L166.96,145.61L169.75,143.53L172.53,145.35L175.31,145.21L178.1,140.3L180.62,144.81L183.15,144.67L185.68,142.69L188.21,144.36L190.74,142.52L193.27,142.23L195.8,142.17L198.33,143.68L200.86,141.81L203.39,141.66L213.51,140.84L216.04,140.63L218.57,142.06L221.1,140.19L256.52,136.66L259.05,138.16L261.58,136.12L264.11,135.84L276.76,134.19L279.29,134.09L291.93,132.34L294.46,132.06L340,126.57" style="vector-effect: non-scaling-stroke; fill: none; stroke: rgb(45, 174, 127); stroke-opacity: 1; stroke-width: 1px; opacity: 1;"/></g><g class="points"/><g class="text"/></g><g class="trace scatter trace31e8bd" style="stroke-miterlimit: 2; opacity: 1;"><g class="fills"/><g class="errorbars"/><g class="lines"><path class="js-line" d="M0,149.69L41.74,148.07L44.52,147.68L52.87,147.8L55.65,147.46L64,147.22L66.79,146.73L75.13,146.81L77.92,146.28L83.48,146.06L86.26,145.96L89.05,145.23L91.83,145.77L130.79,144.37L133.57,143.58L139.14,144.02L141.92,144.22L144.7,143.68L147.49,144.05L155.83,142.84L158.62,143.35L175.31,142.17L178.1,140.3L180.62,142.03L183.15,141.93L185.68,142.3L188.21,141.75L190.74,142.29L193.27,142.03L205.92,142.03L208.45,141.53L213.51,141.5L216.04,141.45L218.57,140.78L221.1,141.31L256.52,140.41L259.05,139.85L266.64,140.39L269.17,140.11L276.76,140.26L279.29,139.96L286.88,140.21L289.4,140.01L314.7,139.79L317.23,139.78L340,139.52" style="vector-effect: non-scaling-stroke; fill: none; stroke: rgb(96, 200, 96); stroke-opacity: 1; stroke-width: 1px; opacity: 1;"/></g><g class="points"/><g class="text"/></g><g class="trace scatter tracecd0359" style="stroke-miterlimit: 2; opacity: 1;"><g class="fills"/><g class="errorbars"/><g class="lines"><path class="js-line" d="M0,157.85L36.18,156.21L38.96,155.87L64,154.51L66.79,153.85L72.35,153.9L75.13,153.88L77.92,153.15L80.7,153.4L89.05,152.11L91.83,152.33L108.53,151.7L111.31,150.8L114.09,151.36L116.88,151.09L119.66,151.15L122.44,150.37L125.22,150.65L128.01,150.02L139.14,149.18L141.92,149.38L144.7,148.57L147.49,149.02L155.83,147.51L158.62,147.83L172.53,146.28L175.31,146.06L178.1,140.3L180.62,145.68L203.39,144.43L205.92,144.55L208.45,143.79L210.98,144.12L218.57,142.67L221.1,143.05L256.52,140.37L259.05,139.79L266.64,139.91L269.17,139.45L274.23,139.41L276.76,139.32L281.82,138.99L284.35,138.82L294.46,138.19L296.99,137.97L304.58,137.54L307.11,137.5L324.82,136.48L327.35,136.36L340,135.84" style="vector-effect: non-scaling-stroke; fill: none; stroke: rgb(105, 204, 91); stroke-opacity: 1; stroke-width: 1px; opacity: 1;"/></g><g class="points"/><g class="text"/></g><g class="trace scatter trace54be84" style="stroke-miterlimit: 2; opacity: 1;"><g class="fills"/><g class="errorbars"/><g class="lines"><path class="js-line" d="M0,144.59L75.13,143.01L77.92,142.71L86.26,142.55L89.05,142.07L97.4,142.54L100.18,142.28L108.53,142.34L111.31,142L119.66,142.23L122.44,141.92L130.79,141.79L133.57,141.31L141.92,141.77L144.7,141.47L153.05,141.47L155.83,141L161.4,141.24L164.18,141.3L169.75,141.12L172.53,140.77L188.21,140.58L190.74,140.94L203.39,140.78L205.92,140.89L213.51,140.64L216.04,140.63L221.1,140.58L223.63,140.56L236.28,140.62L238.81,140.35L246.4,140.57L248.93,140.36L256.52,140.32L259.05,139.99L266.64,140.39L269.17,140.25L281.82,140.38L284.35,140.37L317.23,140.4L319.76,140.36L340,140.37" style="vector-effect: non-scaling-stroke; fill: none; stroke: rgb(115, 207, 85); stroke-opacity: 1; stroke-width: 1px; opacity: 1;"/></g><g class="points"/><g class="text"/></g><g class="trace scatter trace88ed77" style="stroke-miterlimit: 2; opacity: 1;"><g class="fills"/><g class="errorbars"/><g class="lines"><path class="js-line" d="M0,146.57L41.74,145.4L44.52,145.08L52.87,145.23L55.65,144.96L64,144.81L66.79,144.41L75.13,144.52L77.92,144.09L83.48,143.94L86.26,143.87L89.05,143.33L91.83,143.74L130.79,142.78L133.57,142.18L139.14,142.53L141.92,142.72L144.7,142.28L147.49,142.61L158.62,142.08L161.4,141.89L169.75,141.69L172.53,141.3L175.31,141.23L178.1,140.3L180.62,141.13L183.15,141.07L190.74,141.36L193.27,141.15L210.98,141.08L213.51,140.81L256.52,140.08L259.05,139.69L266.64,140.09L269.17,139.87L276.76,140.02L279.29,139.77L289.4,139.84L291.93,139.88L340,139.52" style="vector-effect: non-scaling-stroke; fill: none; stroke: rgb(126, 210, 78); stroke-opacity: 1; stroke-width: 1px; opacity: 1;"/></g><g class="points"/><g class="text"/></g><g class="trace scatter trace2222b7" style="stroke-miterlimit: 2; opacity: 1;"><g class="fills"/><g class="errorbars"/><g class="lines"><path class="js-line" d="M0,145.14L41.74,144.13L44.52,143.9L75.13,143.39L77.92,143.05L86.26,142.87L89.05,142.34L94.61,142.71L97.4,142.85L105.74,142.64L108.53,142.64L114.09,142.54L116.88,142.45L130.79,142.02L133.57,141.48L139.14,141.84L141.92,141.99L150.27,141.69L153.05,141.66L155.83,141.13L158.62,141.53L183.15,140.73L185.68,141.03L188.21,140.65L190.74,141.05L203.39,140.86L205.92,140.99L213.51,140.71L216.04,140.7L218.57,140.25L221.1,140.65L284.35,140.39L286.88,140.45L307.11,140.39L309.64,140.35L340,140.35" style="vector-effect: non-scaling-stroke; fill: none; stroke: rgb(138, 212, 70); stroke-opacity: 1; stroke-width: 1px; opacity: 1;"/></g><g class="points"/><g class="text"/></g><g class="trace scatter tracee3c54b" style="stroke-miterlimit: 2; opacity: 1;"><g class="fills"/><g class="errorbars"/><g class="lines"><path class="js-line" d="M0,148.79L41.74,147.34L44.52,146.97L52.87,147.1L55.65,146.79L64,146.57L66.79,146.12L75.13,146.2L77.92,145.71L83.48,145.51L86.26,145.42L89.05,144.78L91.83,145.25L130.79,143.97L133.57,143.27L139.14,143.65L141.92,143.84L144.7,143.34L147.49,143.69L155.83,142.59L158.62,143.05L175.31,141.99L178.1,140.3L180.62,141.85L183.15,141.77L185.68,142.07L188.21,141.6L193.27,141.83L195.8,141.87L198.33,141.28L200.86,141.76L223.63,141.09L226.16,141.29L231.22,141.23L233.75,141.04L256.52,140.31L259.05,139.82L266.64,140.28L269.17,140.03L276.76,140.16L279.29,139.88L286.88,140.1L289.4,139.92L317.23,139.68L319.76,139.59L340,139.41" style="vector-effect: non-scaling-stroke; fill: none; stroke: rgb(149, 215, 63); stroke-opacity: 1; stroke-width: 1px; opacity: 1;"/></g><g class="points"/><g class="text"/></g><g class="trace scatter trace20d193" style="stroke-miterlimit: 2; opacity: 1;"><g class="fills"/><g class="errorbars"/><g class="lines"><path class="js-line" d="M0,145.33L64,143.77L66.79,143.45L75.13,143.52L77.92,143.18L86.26,142.99L89.05,142.44L94.61,142.81L97.4,142.97L105.74,142.75L108.53,142.74L114.09,142.64L116.88,142.54L128.01,142.16L130.79,142.1L133.57,141.55L136.35,141.99L175.31,140.87L178.1,140.3L183.15,140.77L185.68,140.49L195.8,140.99L198.33,140.53L205.92,141.03L208.45,140.73L216.04,140.73L218.57,140.26L226.16,140.81L228.69,140.58L236.28,140.7L238.81,140.4L246.4,140.64L248.93,140.39L256.52,140.35L259.05,139.96L266.64,140.42L269.17,140.26L274.23,140.38L276.76,139.85L284.35,140.39L286.88,140.46L304.58,140.34L307.11,140.39L340,140.36" style="vector-effect: non-scaling-stroke; fill: none; stroke: rgb(161, 217, 56); stroke-opacity: 1; stroke-width: 1px; opacity: 1;"/></g><g class="points"/><g class="text"/></g><g class="trace scatter trace445036" style="stroke-miterlimit: 2; opacity: 1;"><g class="fills"/><g class="errorbars"/><g class="lines"><path class="js-line" d="M0,145.16L64,143.63L66.79,143.32L75.13,143.4L77.92,143.06L86.26,142.88L89.05,142.35L97.4,142.86L100.18,142.58L108.53,142.64L111.31,142.26L119.66,142.52L122.44,142.16L130.79,142.03L133.57,141.48L139.14,141.85L141.92,141.99L150.27,141.69L153.05,141.66L155.83,141.14L158.62,141.53L183.15,140.73L185.68,141.03L188.21,140.65L190.74,141.06L203.39,140.87L205.92,141L213.51,140.72L216.04,140.7L218.57,140.26L221.1,140.65L284.35,140.39L286.88,140.46L304.58,140.35L307.11,140.4L340,140.38" style="vector-effect: non-scaling-stroke; fill: none; stroke: rgb(172, 220, 49); stroke-opacity: 1; stroke-width: 1px; opacity: 1;"/></g><g class="points"/><g class="text"/></g><g class="trace scatter trace1852b6" style="stroke-miterlimit: 2; opacity: 1;"><g class="fills"/><g class="errorbars"/><g class="lines"><path class="js-line" d="M0,143.99L75.13,142.62L77.92,142.35L86.26,142.21L89.05,141.79L97.4,142.2L100.18,141.98L108.53,142.04L111.31,141.73L119.66,141.94L122.44,141.66L130.79,141.56L133.57,141.13L141.92,141.54L144.7,141.28L153.05,141.28L155.83,140.87L164.18,141.13L166.96,140.74L172.53,140.67L175.31,140.64L180.62,140.6L183.15,140.57L190.74,140.83L193.27,140.71L216.04,140.56L218.57,140.21L226.16,140.5L228.69,140.46L236.28,140.56L238.81,140.33L248.93,140.33L251.46,140.45L269.17,140.24L271.7,140.39L309.64,140.34L312.17,140.38L340,140.37" style="vector-effect: non-scaling-stroke; fill: none; stroke: rgb(184, 222, 43); stroke-opacity: 1; stroke-width: 1px; opacity: 1;"/></g><g class="points"/><g class="text"/></g><g class="trace scatter trace902250" style="stroke-miterlimit: 2; opacity: 1;"><g class="fills"/><g class="errorbars"/><g class="lines"><path class="js-line" d="M0,145.39L64,143.8L66.79,143.48L75.13,143.56L77.92,143.21L86.26,143.02L89.05,142.47L94.61,142.84L97.4,143L105.74,142.77L108.53,142.77L114.09,142.67L116.88,142.57L128.01,142.18L130.79,142.13L133.57,141.56L136.35,142.01L164.18,141.54L166.96,140.7L169.75,141.33L172.53,140.92L183.15,140.77L185.68,141.08L188.21,140.69L190.74,141.1L203.39,140.91L205.92,141.04L213.51,140.75L216.04,140.73L218.57,140.27L221.1,140.68L284.35,140.39L286.88,140.46L304.58,140.35L307.11,140.4L340,140.35" style="vector-effect: non-scaling-stroke; fill: none; stroke: rgb(195, 224, 42); stroke-opacity: 1; stroke-width: 1px; opacity: 1;"/></g><g class="points"/><g class="text"/></g><g class="trace scatter tracee5b313" style="stroke-miterlimit: 2; opacity: 1;"><g class="fills"/><g class="errorbars"/><g class="lines"><path class="js-line" d="M0,147.41L41.74,146.04L44.52,145.72L52.87,145.82L55.65,145.54L64,145.34L66.79,144.93L75.13,145.01L77.92,144.56L83.48,144.39L86.26,144.31L89.05,143.64L91.83,144.16L130.79,143.08L133.57,142.38L139.14,142.82L141.92,143L144.7,142.56L147.49,142.88L155.83,141.85L158.62,142.34L175.31,141.38L178.1,140.3L180.62,141.29L183.15,141.22L185.68,141.58L188.21,141.09L193.27,141.39L195.8,141.44L198.33,140.86L200.86,141.37L223.63,140.89L226.16,141.09L233.75,140.9L236.28,140.91L241.34,140.81L243.87,140.72L256.52,140.39L259.05,139.9L266.64,140.43L269.17,140.22L276.76,140.39L279.29,140.14L289.4,140.25L291.93,140.3L340,140.1" style="vector-effect: non-scaling-stroke; fill: none; stroke: rgb(207, 225, 41); stroke-opacity: 1; stroke-width: 1px; opacity: 1;"/></g><g class="points"/><g class="text"/></g><g class="trace scatter traceafe656" style="stroke-miterlimit: 2; opacity: 1;"><g class="fills"/><g class="errorbars"/><g class="lines"><path class="js-line" d="M0,147.68L41.74,146.26L44.52,145.93L52.87,146.03L55.65,145.74L64,145.53L66.79,145.11L75.13,145.19L77.92,144.72L83.48,144.55L86.26,144.46L89.05,143.76L91.83,144.3L130.79,143.18L133.57,142.45L139.14,142.91L141.92,143.1L144.7,142.65L147.49,142.98L155.83,141.9L158.62,142.42L175.31,141.42L178.1,140.3L180.62,141.32L183.15,141.25L185.68,141.64L188.21,141.12L193.27,141.45L195.8,141.5L198.33,140.88L200.86,141.42L223.63,140.93L226.16,141.14L233.75,140.95L236.28,140.96L241.34,140.86L243.87,140.77L256.52,140.42L259.05,139.91L266.64,140.48L269.17,140.25L276.76,140.44L279.29,140.18L286.88,140.46L289.4,140.3L317.23,140.28L319.76,140.22L340,140.18" style="vector-effect: non-scaling-stroke; fill: none; stroke: rgb(218, 227, 40); stroke-opacity: 1; stroke-width: 1px; opacity: 1;"/></g><g class="points"/><g class="text"/></g><g class="trace scatter trace13853a" style="stroke-miterlimit: 2; opacity: 1;"><g class="fills"/><g class="errorbars"/><g class="lines"><path class="js-line" d="M0,147.5L41.74,146.13L44.52,145.81L52.87,145.9L55.65,145.62L64,145.42L66.79,145L75.13,145.09L77.92,144.63L83.48,144.46L86.26,144.38L89.05,143.7L91.83,144.22L130.79,143.13L133.57,142.43L139.14,142.86L141.92,143.05L144.7,142.6L147.49,142.93L155.83,141.89L158.62,142.38L175.31,141.41L178.1,140.3L180.62,141.31L183.15,141.25L185.68,141.61L188.21,141.12L193.27,141.42L195.8,141.47L198.33,140.88L200.86,141.39L223.63,140.9L226.16,141.1L233.75,140.91L236.28,140.92L241.34,140.82L243.87,140.73L256.52,140.39L259.05,139.89L266.64,140.43L269.17,140.21L276.76,140.38L279.29,140.14L289.4,140.24L291.93,140.3L334.94,140.12L340,140.07" style="vector-effect: non-scaling-stroke; fill: none; stroke: rgb(230, 228, 39); stroke-opacity: 1; stroke-width: 1px; opacity: 1;"/></g><g class="points"/><g class="text"/></g><g class="trace scatter trace4c7b27" style="stroke-miterlimit: 2; opacity: 1;"><g class="fills"/><g class="errorbars"/><g class="lines"><path class="js-line" d="M0,138.31L77.92,143.78L80.7,143.7L86.26,144.1L89.05,146.8L91.83,144.29L94.61,144.37L105.74,144.44L108.53,144.45L130.79,144.72L133.57,146.67L136.35,144.67L139.14,144.63L150.27,144.41L153.05,144.3L155.83,146.15L158.62,144.13L164.18,143.94L166.96,145.7L169.75,143.55L172.53,145.45L175.31,145.3L178.1,140.3L180.62,144.9L183.15,144.76L185.68,142.71L188.21,144.45L190.74,142.54L193.27,142.24L195.8,142.18L198.33,143.75L200.86,141.81L203.39,141.66L210.98,140.86L213.51,140.83L216.04,140.62L218.57,142.1L221.1,140.15L223.63,139.93L233.75,138.79L236.28,138.51L253.99,136.83L256.52,136.55L259.05,138.11L261.58,136L319.76,128.61L322.29,128.27L340,126.02" style="vector-effect: non-scaling-stroke; fill: none; stroke: rgb(241, 230, 38); stroke-opacity: 1; stroke-width: 1px; opacity: 1;"/></g><g class="points"/><g class="text"/></g><g class="trace scatter trace2d66aa" style="stroke-miterlimit: 2; opacity: 1;"><g class="fills"/><g class="errorbars"/><g class="lines"><path class="js-line" d="M0,145.37L64,143.79L66.79,143.47L75.13,143.54L77.92,143.19L86.26,143.01L89.05,142.45L94.61,142.83L97.4,142.98L105.74,142.76L108.53,142.76L114.09,142.66L116.88,142.56L130.79,142.12L133.57,141.55L139.14,141.93L141.92,142.08L150.27,141.77L153.05,141.74L155.83,141.19L158.62,141.6L183.15,140.77L185.68,141.08L188.21,140.68L190.74,141.1L203.39,140.9L205.92,141.04L213.51,140.74L216.04,140.73L218.57,140.27L221.1,140.67L284.35,140.39L286.88,140.46L304.58,140.34L307.11,140.39L340,140.36" style="vector-effect: non-scaling-stroke; fill: none; stroke: rgb(253, 231, 37); stroke-opacity: 1; stroke-width: 1px; opacity: 1;"/></g><g class="points"/><g class="text"/></g><g class="trace scatter traceb3d5ad" style="stroke-miterlimit: 2; opacity: 1;"><g class="fills"/><g class="errorbars"/><g class="lines"><path class="js-line" d="M0,258.4L52.87,225.45L55.65,223.67L102.96,192.63L105.74,190.76L153.05,158.17L155.83,156.21L203.39,121.8L205.92,119.92L256.52,81.42L259.05,79.45L307.11,40.98L309.64,38.9L340,13.6" style="vector-effect: non-scaling-stroke; fill: none; stroke: rgb(169, 169, 169); stroke-opacity: 1; stroke-width: 2px; opacity: 1;"/></g><g class="points"/><g class="text"/></g></g></g><g class="overplot"/><path class="xlines-above crisp" d="M0,0" style="fill: none;"/><path class="ylines-above crisp" d="M0,0" style="fill: none;"/><g class="overlines-above"/><g class="xaxislayer-above"><g class="x3tick"><text text-anchor="middle" x="0" y="1133" transform="translate(108.81,0)" style="font-family: 'Open Sans', verdana, arial, sans-serif; font-size: 12px; fill: rgb(42, 63, 95); fill-opacity: 1; white-space: pre; opacity: 1;">1.4</text></g><g class="x3tick"><text text-anchor="middle" x="0" y="1133" style="font-family: 'Open Sans', verdana, arial, sans-serif; font-size: 12px; fill: rgb(42, 63, 95); fill-opacity: 1; white-space: pre; opacity: 1;" transform="translate(211.35,0)">1.5</text></g><g class="x3tick"><text text-anchor="middle" x="0" y="1133" style="font-family: 'Open Sans', verdana, arial, sans-serif; font-size: 12px; fill: rgb(42, 63, 95); fill-opacity: 1; white-space: pre; opacity: 1;" transform="translate(313.89,0)">1.6</text></g><g class="x3tick"><text text-anchor="middle" x="0" y="1133" style="font-family: 'Open Sans', verdana, arial, sans-serif; font-size: 12px; fill: rgb(42, 63, 95); fill-opacity: 1; white-space: pre; opacity: 1;" transform="translate(416.43,0)">1.7</text></g></g><g class="yaxislayer-above"><g class="y3tick"><text text-anchor="end" x="79" y="4.199999999999999" transform="translate(0,1067.2600000000002)" style="font-family: 'Open Sans', verdana, arial, sans-serif; font-size: 12px; fill: rgb(42, 63, 95); fill-opacity: 1; white-space: pre; opacity: 1;">−0.5</text></g><g class="y3tick"><text text-anchor="end" x="79" y="4.199999999999999" style="font-family: 'Open Sans', verdana, arial, sans-serif; font-size: 12px; fill: rgb(42, 63, 95); fill-opacity: 1; white-space: pre; opacity: 1;" transform="translate(0,988.3000000000002)">0</text></g><g class="y3tick"><text text-anchor="end" x="79" y="4.199999999999999" style="font-family: 'Open Sans', verdana, arial, sans-serif; font-size: 12px; fill: rgb(42, 63, 95); fill-opacity: 1; white-space: pre; opacity: 1;" transform="translate(0,909.3400000000001)">0.5</text></g></g><g class="overaxes-above"/></g></g><g class="polarlayer"/><g class="smithlayer"/><g class="ternarylayer"/><g class="geolayer"/><g class="funnelarealayer"/><g class="pielayer"/><g class="iciclelayer"/><g class="treemaplayer"/><g class="sunburstlayer"/><g class="glimages"/><defs id="topdefs-fac771"><g class="clips"/><clipPath id="legendfac771"><rect width="188" height="29" x="0" y="0"/></clipPath></defs><g class="layer-above"><g class="imagelayer"/><g class="shapelayer"/></g><g class="infolayer"><g class="legend" pointer-events="all" transform="translate(232,50.59999999999998)"><rect class="bg" shape-rendering="crispEdges" width="188" height="29" x="0" y="0" style="stroke: rgb(68, 68, 68); stroke-opacity: 1; fill: rgb(255, 255, 255); fill-opacity: 1; stroke-width: 0px;"/><g class="scrollbox" transform="" clip-path="url(#legendfac771)"><g class="groups"><g class="traces" transform="translate(0,14.5)" style="opacity: 1;"><text class="legendtext" text-anchor="start" x="40" y="4.680000000000001" style="font-family: 'Open Sans', verdana, arial, sans-serif; font-size: 12px; fill: rgb(42, 63, 95); fill-opacity: 1; white-space: pre;">Population Log-likelihood</text><g class="layers" style="opacity: 1;"><g class="legendfill"/><g class="legendlines"><path class="js-line" d="M5,0h30" style="fill: none; stroke: rgb(51, 34, 136); stroke-opacity: 1; stroke-width: 2px;"/></g><g class="legendsymbols"><g class="legendpoints"/></g></g><rect class="legendtoggle" x="0" y="-9.5" width="184.703125" height="19" style="fill: rgb(0, 0, 0); fill-opacity: 0;"/></g></g></g><rect class="scrollbar" rx="20" ry="3" width="0" height="0" x="0" y="0" style="fill: rgb(128, 139, 164); fill-opacity: 1;"/></g><g class="g-gtitle"/><g class="g-xtitle"/><g class="g-x2title"/><g class="g-x3title"/><g class="g-ytitle"/><g class="g-y2title"/><g class="g-y3title"/></g></svg>