<svg class="main-svg" xmlns="http://www.w3.org/2000/svg" xmlns:xlink="http://www.w3.org/1999/xlink" width="500" height="1200" style="" viewBox="0 0 500 1200"><rect x="0" y="0" width="500" height="1200" style="fill: rgb(255, 255, 255); fill-opacity: 1;"/><defs id="defs-9569f2"><g class="clips"><clipPath id="clip9569f2xyplot" class="plotclip"><rect width="340" height="272.00000000000006"/></clipPath><clipPath id="clip9569f2x2y2plot" class="plotclip"><rect width="340" height="272"/></clipPath><clipPath id="clip9569f2x3y3plot" class="plotclip"><rect width="340" height="272"/></clipPath><clipPath class="axesclip" id="clip9569f2x"><rect x="80" y="0" width="340" height="1200"/></clipPath><clipPath class="axesclip" id="clip9569f2y"><rect x="0" y="100" width="500" height="272.00000000000006"/></clipPath><clipPath class="axesclip" id="clip9569f2xy"><rect x="80" y="100" width="340" height="272.00000000000006"/></clipPath><clipPath class="axesclip" id="clip9569f2y2"><rect x="0" y="474.00000000000006" width="500" height="272"/></clipPath><clipPath class="axesclip" id="clip9569f2xy2"><rect x="80" y="474.00000000000006" width="340" height="272"/></clipPath><clipPath class="axesclip" id="clip9569f2y3"><rect x="0" y="848.0000000000001" width="500" height="272"/></clipPath><clipPath class="axesclip" id="clip9569f2xy3"><rect x="80" y="848.0000000000001" width="340" height="272"/></clipPath><clipPath class="axesclip" id="clip9569f2x2"><rect x="80" y="0" width="340" height="1200"/></clipPath><clipPath class="axesclip" id="clip9569f2x2y"><rect x="80" y="100" width="340" height="272.00000000000006"/></clipPath><clipPath class="axesclip" id="clip9569f2x2y2"><rect x="80" y="474.00000000000006" width="340" height="272"/></clipPath><clipPath class="axesclip" id="clip9569f2x2y3"><rect x="80" y="848.0000000000001" width="340" height="272"/></clipPath><clipPath class="axesclip" id="clip9569f2x3"><rect x="80" y="0" width="340" height="1200"/></clipPath><clipPath class="axesclip" id="clip9569f2x3y"><rect x="80" y="100" width="340" height="272.00000000000006"/></clipPath><clipPath class="axesclip" id="clip9569f2x3y2"><rect x="80" y="474.00000000000006" width="340" height="272"/></clipPath><clipPath class="axesclip" id="clip9569f2x3y3"><rect x="80" y="848.0000000000001" width="340" height="272"/></clipPath></g><g class="gradients"/><g class="patterns"/></defs><g class="bglayer"/><g class="layer-below"><g class="imagelayer"/><g class="shapelayer"/></g><g class="cartesianlayer"><g class="subplot xy"><g class="layer-subplot"><g class="shapelayer"/><g class="imagelayer"/></g><g class="minor-gridlayer"><g class="x"/><g class="y"/></g><g class="gridlayer"><g class="x"><path class="xgrid crisp" transform="translate(127.88,0)" d="M0,100v272.00000000000006" style="stroke: rgb(235, 240, 248); stroke-opacity: 1; stroke-width: 1px;"/><path class="xgrid crisp" transform="translate(213.81,0)" d="M0,100v272.00000000000006" style="stroke: rgb(235, 240, 248); stroke-opacity: 1; stroke-width: 1px;"/><path class="xgrid crisp" transform="translate(299.74,0)" d="M0,100v272.00000000000006" style="stroke: rgb(235, 240, 248); stroke-opacity: 1; stroke-width: 1px;"/><path class="xgrid crisp" transform="translate(385.67,0)" d="M0,100v272.00000000000006" style="stroke: rgb(235, 240, 248); stroke-opacity: 1; stroke-width: 1px;"/></g><g class="y"><path class="ygrid crisp" transform="translate(0,361.36)" d="M80,0h340" style="stroke: rgb(235, 240, 248); stroke-opacity: 1; stroke-width: 1px;"/><path class="ygrid crisp" transform="translate(0,320.14)" d="M80,0h340" style="stroke: rgb(235, 240, 248); stroke-opacity: 1; stroke-width: 1px;"/><path class="ygrid crisp" transform="translate(0,278.91999999999996)" d="M80,0h340" style="stroke: rgb(235, 240, 248); stroke-opacity: 1; stroke-width: 1px;"/><path class="ygrid crisp" transform="translate(0,237.7)" d="M80,0h340" style="stroke: rgb(235, 240, 248); stroke-opacity: 1; stroke-width: 1px;"/><path class="ygrid crisp" transform="translate(0,155.27)" d="M80,0h340" style="stroke: rgb(235, 240, 248); stroke-opacity: 1; stroke-width: 1px;"/><path class="ygrid crisp" transform="translate(0,114.05)" d="M80,0h340" style="stroke: rgb(235, 240, 248); stroke-opacity: 1; stroke-width: 1px;"/></g></g><g class="zerolinelayer"><path class="yzl zl crisp" transform="translate(0,196.49)" d="M80,0h340" style="stroke: rgb(235, 240, 248); stroke-opacity: 1; stroke-width: 2px;"/></g><path class="xlines-below"/><path class="ylines-below"/><g class="overlines-below"/><g class="xaxislayer-below"/><g class="yaxislayer-below"/><g class="overaxes-below"/><g class="plot" transform="translate(80,100)" clip-path="url(#clip9569f2xyplot)"><g class="scatterlayer mlayer"><g class="trace scatter trace08ad75" style="stroke-miterlimit: 2; opacity: 1;"><g class="fills"/><g class="errorbars"/><g class="lines"><path class="js-line" d="M20.75,233.77L59.95,138.2L62.96,131.57L75.02,107.4L78.04,102.06L99.14,67.83L102.16,63.49L114.22,47.99L117.23,44.59L126.28,35.54L129.3,32.92L138.34,26.24L141.36,24.42L150.4,20.19L153.42,19.2L162.46,17.49L165.48,17.35L174.52,18.23L177.54,18.95L186.58,22.36L189.6,23.9L198.64,29.76L201.66,32.11L210.7,40.32L213.72,43.44L222.77,53.92L225.78,57.78L237.84,75.01L240.86,79.75L252.92,100.43L255.93,106.01L271.01,136.21L274.02,142.69L289.1,177.09L292.11,184.35L310.2,230.29L313.22,238.32L319.25,254.65" style="vector-effect: non-scaling-stroke; fill: none; stroke: rgb(51, 34, 136); stroke-opacity: 1; stroke-width: 2px; opacity: 1;"/></g><g class="points"/><g class="text"/></g><g class="trace scatter tracef8cff7" style="stroke-miterlimit: 2; opacity: 1;"><g class="fills"/><g class="errorbars"/><g class="lines"/><g class="points"><path class="point" transform="translate(20.75,233.77)" d="M-4.2,0A 5.7,5.7 0 0 1 0,4.2A 5.7,5.7 0 0 1 4.2,0A 5.7,5.7 0 0 1 0,-4.2A 5.7,5.7 0 0 1 -4.2,0Z" style="opacity: 0.5; stroke-width: 0px; fill: rgb(51, 34, 136); fill-opacity: 1;"/><path class="point" transform="translate(53.92,152.04)" d="M-4.2,0A 5.7,5.7 0 0 1 0,4.2A 5.7,5.7 0 0 1 4.2,0A 5.7,5.7 0 0 1 0,-4.2A 5.7,5.7 0 0 1 -4.2,0Z" style="opacity: 0.5; stroke-width: 0px; fill: rgb(51, 34, 136); fill-opacity: 1;"/><path class="point" transform="translate(81.4,96.45)" d="M-4.2,0A 5.7,5.7 0 0 1 0,4.2A 5.7,5.7 0 0 1 4.2,0A 5.7,5.7 0 0 1 0,-4.2A 5.7,5.7 0 0 1 -4.2,0Z" style="opacity: 0.5; stroke-width: 0px; fill: rgb(51, 34, 136); fill-opacity: 1;"/><path class="point" transform="translate(81.42,96.44)" d="M-4.2,0A 5.7,5.7 0 0 1 0,4.2A 5.7,5.7 0 0 1 4.2,0A 5.7,5.7 0 0 1 0,-4.2A 5.7,5.7 0 0 1 -4.2,0Z" style="opacity: 0.5; stroke-width: 0px; fill: rgb(51, 34, 136); fill-opacity: 1;"/><path class="point" transform="translate(81.46,96.41)" d="M-4.2,0A 5.7,5.7 0 0 1 0,4.2A 5.7,5.7 0 0 1 4.2,0A 5.7,5.7 0 0 1 0,-4.2A 5.7,5.7 0 0 1 -4.2,0Z" style="opacity: 0.5; stroke-width: 0px; fill: rgb(51, 34, 136); fill-opacity: 1;"/><path class="point" transform="translate(81.52,96.37)" d="M-4.2,0A 5.7,5.7 0 0 1 0,4.2A 5.7,5.7 0 0 1 4.2,0A 5.7,5.7 0 0 1 0,-4.2A 5.7,5.7 0 0 1 -4.2,0Z" style="opacity: 0.5; stroke-width: 0px; fill: rgb(51, 34, 136); fill-opacity: 1;"/><path class="point" transform="translate(81.61,96.32)" d="M-4.2,0A 5.7,5.7 0 0 1 0,4.2A 5.7,5.7 0 0 1 4.2,0A 5.7,5.7 0 0 1 0,-4.2A 5.7,5.7 0 0 1 -4.2,0Z" style="opacity: 0.5; stroke-width: 0px; fill: rgb(51, 34, 136); fill-opacity: 1;"/><path class="point" transform="translate(81.75,96.23)" d="M-4.2,0A 5.7,5.7 0 0 1 0,4.2A 5.7,5.7 0 0 1 4.2,0A 5.7,5.7 0 0 1 0,-4.2A 5.7,5.7 0 0 1 -4.2,0Z" style="opacity: 0.5; stroke-width: 0px; fill: rgb(51, 34, 136); fill-opacity: 1;"/><path class="point" transform="translate(81.97,96.08)" d="M-4.2,0A 5.7,5.7 0 0 1 0,4.2A 5.7,5.7 0 0 1 4.2,0A 5.7,5.7 0 0 1 0,-4.2A 5.7,5.7 0 0 1 -4.2,0Z" style="opacity: 0.5; stroke-width: 0px; fill: rgb(51, 34, 136); fill-opacity: 1;"/><path class="point" transform="translate(82.41,95.65)" d="M-4.2,0A 5.7,5.7 0 0 1 0,4.2A 5.7,5.7 0 0 1 4.2,0A 5.7,5.7 0 0 1 0,-4.2A 5.7,5.7 0 0 1 -4.2,0Z" style="opacity: 0.5; stroke-width: 0px; fill: rgb(51, 34, 136); fill-opacity: 1;"/><path class="point" transform="translate(84.54,92.52)" d="M-4.2,0A 5.7,5.7 0 0 1 0,4.2A 5.7,5.7 0 0 1 4.2,0A 5.7,5.7 0 0 1 0,-4.2A 5.7,5.7 0 0 1 -4.2,0Z" style="opacity: 0.5; stroke-width: 0px; fill: rgb(51, 34, 136); fill-opacity: 1;"/><path class="point" transform="translate(87.08,86.53)" d="M-4.2,0A 5.7,5.7 0 0 1 0,4.2A 5.7,5.7 0 0 1 4.2,0A 5.7,5.7 0 0 1 0,-4.2A 5.7,5.7 0 0 1 -4.2,0Z" style="opacity: 0.5; stroke-width: 0px; fill: rgb(51, 34, 136); fill-opacity: 1;"/><path class="point" transform="translate(120.25,41.2)" d="M-4.2,0A 5.7,5.7 0 0 1 0,4.2A 5.7,5.7 0 0 1 4.2,0A 5.7,5.7 0 0 1 0,-4.2A 5.7,5.7 0 0 1 -4.2,0Z" style="opacity: 0.5; stroke-width: 0px; fill: rgb(51, 34, 136); fill-opacity: 1;"/><path class="point" transform="translate(153.42,19.23)" d="M-4.2,0A 5.7,5.7 0 0 1 0,4.2A 5.7,5.7 0 0 1 4.2,0A 5.7,5.7 0 0 1 0,-4.2A 5.7,5.7 0 0 1 -4.2,0Z" style="opacity: 0.5; stroke-width: 0px; fill: rgb(51, 34, 136); fill-opacity: 1;"/><path class="point" transform="translate(165.89,17.35)" d="M-4.2,0A 5.7,5.7 0 0 1 0,4.2A 5.7,5.7 0 0 1 4.2,0A 5.7,5.7 0 0 1 0,-4.2A 5.7,5.7 0 0 1 -4.2,0Z" style="opacity: 0.5; stroke-width: 0px; fill: rgb(51, 34, 136); fill-opacity: 1;"/><path class="point" transform="translate(186.58,22.19)" d="M-4.2,0A 5.7,5.7 0 0 1 0,4.2A 5.7,5.7 0 0 1 4.2,0A 5.7,5.7 0 0 1 0,-4.2A 5.7,5.7 0 0 1 -4.2,0Z" style="opacity: 0.5; stroke-width: 0px; fill: rgb(51, 34, 136); fill-opacity: 1;"/><path class="point" transform="translate(219.75,50)" d="M-4.2,0A 5.7,5.7 0 0 1 0,4.2A 5.7,5.7 0 0 1 4.2,0A 5.7,5.7 0 0 1 0,-4.2A 5.7,5.7 0 0 1 -4.2,0Z" style="opacity: 0.5; stroke-width: 0px; fill: rgb(51, 34, 136); fill-opacity: 1;"/><path class="point" transform="translate(247.5,91.91)" d="M-4.2,0A 5.7,5.7 0 0 1 0,4.2A 5.7,5.7 0 0 1 4.2,0A 5.7,5.7 0 0 1 0,-4.2A 5.7,5.7 0 0 1 -4.2,0Z" style="opacity: 0.5; stroke-width: 0px; fill: rgb(51, 34, 136); fill-opacity: 1;"/><path class="point" transform="translate(249.96,95.79)" d="M-4.2,0A 5.7,5.7 0 0 1 0,4.2A 5.7,5.7 0 0 1 4.2,0A 5.7,5.7 0 0 1 0,-4.2A 5.7,5.7 0 0 1 -4.2,0Z" style="opacity: 0.5; stroke-width: 0px; fill: rgb(51, 34, 136); fill-opacity: 1;"/><path class="point" transform="translate(250.33,96.19)" d="M-4.2,0A 5.7,5.7 0 0 1 0,4.2A 5.7,5.7 0 0 1 4.2,0A 5.7,5.7 0 0 1 0,-4.2A 5.7,5.7 0 0 1 -4.2,0Z" style="opacity: 0.5; stroke-width: 0px; fill: rgb(51, 34, 136); fill-opacity: 1;"/><path class="point" transform="translate(250.49,96.3)" d="M-4.2,0A 5.7,5.7 0 0 1 0,4.2A 5.7,5.7 0 0 1 4.2,0A 5.7,5.7 0 0 1 0,-4.2A 5.7,5.7 0 0 1 -4.2,0Z" style="opacity: 0.5; stroke-width: 0px; fill: rgb(51, 34, 136); fill-opacity: 1;"/><path class="point" transform="translate(250.59,96.36)" d="M-4.2,0A 5.7,5.7 0 0 1 0,4.2A 5.7,5.7 0 0 1 4.2,0A 5.7,5.7 0 0 1 0,-4.2A 5.7,5.7 0 0 1 -4.2,0Z" style="opacity: 0.5; stroke-width: 0px; fill: rgb(51, 34, 136); fill-opacity: 1;"/><path class="point" transform="translate(250.66,96.4)" d="M-4.2,0A 5.7,5.7 0 0 1 0,4.2A 5.7,5.7 0 0 1 4.2,0A 5.7,5.7 0 0 1 0,-4.2A 5.7,5.7 0 0 1 -4.2,0Z" style="opacity: 0.5; stroke-width: 0px; fill: rgb(51, 34, 136); fill-opacity: 1;"/><path class="point" transform="translate(250.7,96.43)" d="M-4.2,0A 5.7,5.7 0 0 1 0,4.2A 5.7,5.7 0 0 1 4.2,0A 5.7,5.7 0 0 1 0,-4.2A 5.7,5.7 0 0 1 -4.2,0Z" style="opacity: 0.5; stroke-width: 0px; fill: rgb(51, 34, 136); fill-opacity: 1;"/><path class="point" transform="translate(250.73,96.45)" d="M-4.2,0A 5.7,5.7 0 0 1 0,4.2A 5.7,5.7 0 0 1 4.2,0A 5.7,5.7 0 0 1 0,-4.2A 5.7,5.7 0 0 1 -4.2,0Z" style="opacity: 0.5; stroke-width: 0px; fill: rgb(51, 34, 136); fill-opacity: 1;"/><path class="point" transform="translate(252.92,100.38)" d="M-4.2,0A 5.7,5.7 0 0 1 0,4.2A 5.7,5.7 0 0 1 4.2,0A 5.7,5.7 0 0 1 0,-4.2A 5.7,5.7 0 0 1 -4.2,0Z" style="opacity: 0.5; stroke-width: 0px; fill: rgb(51, 34, 136); fill-opacity: 1;"/><path class="point" transform="translate(286.08,169.95)" d="M-4.2,0A 5.7,5.7 0 0 1 0,4.2A 5.7,5.7 0 0 1 4.2,0A 5.7,5.7 0 0 1 0,-4.2A 5.7,5.7 0 0 1 -4.2,0Z" style="opacity: 0.5; stroke-width: 0px; fill: rgb(51, 34, 136); fill-opacity: 1;"/><path class="point" transform="translate(319.25,254.65)" d="M-4.2,0A 5.7,5.7 0 0 1 0,4.2A 5.7,5.7 0 0 1 4.2,0A 5.7,5.7 0 0 1 0,-4.2A 5.7,5.7 0 0 1 -4.2,0Z" style="opacity: 0.5; stroke-width: 0px; fill: rgb(51, 34, 136); fill-opacity: 1;"/></g><g class="text"/></g></g></g><g class="overplot"/><path class="xlines-above crisp" d="M0,0" style="fill: none;"/><path class="ylines-above crisp" d="M0,0" style="fill: none;"/><g class="overlines-above"/><g class="xaxislayer-above"/><g class="yaxislayer-above"><g class="ytick"><text text-anchor="end" x="79" y="4.199999999999999" transform="translate(0,361.36)" style="font-family: 'Open Sans', verdana, arial, sans-serif; font-size: 12px; fill: rgb(42, 63, 95); fill-opacity: 1; white-space: pre; opacity: 1;">−4</text></g><g class="ytick"><text text-anchor="end" x="79" y="4.199999999999999" style="font-family: 'Open Sans', verdana, arial, sans-serif; font-size: 12px; fill: rgb(42, 63, 95); fill-opacity: 1; white-space: pre; opacity: 1;" transform="translate(0,320.14)">−3</text></g><g class="ytick"><text text-anchor="end" x="79" y="4.199999999999999" style="font-family: 'Open Sans', verdana, arial, sans-serif; font-size: 12px; fill: rgb(42, 63, 95); fill-opacity: 1; white-space: pre; opacity: 1;" transform="translate(0,278.91999999999996)">−2</text></g><g class="ytick"><text text-anchor="end" x="79" y="4.199999999999999" style="font-family: 'Open Sans', verdana, arial, sans-serif; font-size: 12px; fill: rgb(42, 63, 95); fill-opacity: 1; white-space: pre; opacity: 1;" transform="translate(0,237.7)">−1</text></g><g class="ytick"><text text-anchor="end" x="79" y="4.199999999999999" style="font-family: 'Open Sans', verdana, arial, sans-serif; font-size: 12px; fill: rgb(42, 63, 95); fill-opacity: 1; white-space: pre; opacity: 1;" transform="translate(0,196.49)">0</text></g><g class="ytick"><text text-anchor="end" x="79" y="4.199999999999999" style="font-family: 'Open Sans', verdana, arial, sans-serif; font-size: 12px; fill: rgb(42, 63, 95); fill-opacity: 1; white-space: pre; opacity: 1;" transform="translate(0,155.27)">1</text></g><g class="ytick"><text text-anchor="end" x="79" y="4.199999999999999" style="font-family: 'Open Sans', verdana, arial, sans-serif; font-size: 12px; fill: rgb(42, 63, 95); fill-opacity: 1; white-space: pre; opacity: 1;" transform="translate(0,114.05)">2</text></g></g><g class="overaxes-above"/></g><g class="subplot x2y2"><g class="layer-subplot"><g class="shapelayer"/><g class="imagelayer"/></g><g class="minor-gridlayer"><g class="x2"/><g class="y2"/></g><g class="gridlayer"><g class="x2"><path class="x2grid crisp" transform="translate(127.88,0)" d="M0,474.00000000000006v272" style="stroke: rgb(235, 240, 248); stroke-opacity: 1; stroke-width: 1px;"/><path class="x2grid crisp" transform="translate(213.81,0)" d="M0,474.00000000000006v272" style="stroke: rgb(235, 240, 248); stroke-opacity: 1; stroke-width: 1px;"/><path class="x2grid crisp" transform="translate(299.74,0)" d="M0,474.00000000000006v272" style="stroke: rgb(235, 240, 248); stroke-opacity: 1; stroke-width: 1px;"/><path class="x2grid crisp" transform="translate(385.67,0)" d="M0,474.00000000000006v272" style="stroke: rgb(235, 240, 248); stroke-opacity: 1; stroke-width: 1px;"/></g><g class="y2"><path class="y2grid crisp" transform="translate(0,724.1800000000001)" d="M80,0h340" style="stroke: rgb(235, 240, 248); stroke-opacity: 1; stroke-width: 1px;"/><path class="y2grid crisp" transform="translate(0,683.09)" d="M80,0h340" style="stroke: rgb(235, 240, 248); stroke-opacity: 1; stroke-width: 1px;"/><path class="y2grid crisp" transform="translate(0,641.99)" d="M80,0h340" style="stroke: rgb(235, 240, 248); stroke-opacity: 1; stroke-width: 1px;"/><path class="y2grid crisp" transform="translate(0,559.7900000000001)" d="M80,0h340" style="stroke: rgb(235, 240, 248); stroke-opacity: 1; stroke-width: 1px;"/><path class="y2grid crisp" transform="translate(0,518.69)" d="M80,0h340" style="stroke: rgb(235, 240, 248); stroke-opacity: 1; stroke-width: 1px;"/><path class="y2grid crisp" transform="translate(0,477.59000000000003)" d="M80,0h340" style="stroke: rgb(235, 240, 248); stroke-opacity: 1; stroke-width: 1px;"/></g></g><g class="zerolinelayer"><path class="y2zl zl crisp" transform="translate(0,600.8900000000001)" d="M80,0h340" style="stroke: rgb(235, 240, 248); stroke-opacity: 1; stroke-width: 2px;"/></g><path class="xlines-below"/><path class="ylines-below"/><g class="overlines-below"/><g class="xaxislayer-below"/><g class="yaxislayer-below"/><g class="overaxes-below"/><g class="plot" transform="translate(80,474.00000000000006)" clip-path="url(#clip9569f2x2y2plot)"><g class="scatterlayer mlayer"><g class="trace scatter trace932aaa" style="stroke-miterlimit: 2; opacity: 1;"><g class="fills"/><g class="errorbars"/><g class="lines"><path class="js-line" d="M23.77,96.5L78.04,258.4L81.05,185.07L84.07,13.6L87.08,163.22L90.1,199.11L93.11,199.74L165.48,214.66L168.49,214.25L249.9,193.72L252.92,192.07L316.23,164.58" style="vector-effect: non-scaling-stroke; fill: none; stroke: rgb(51, 34, 136); stroke-opacity: 1; stroke-width: 2px; opacity: 1;"/></g><g class="points"/><g class="text"/></g></g></g><g class="overplot"/><path class="xlines-above crisp" d="M0,0" style="fill: none;"/><path class="ylines-above crisp" d="M0,0" style="fill: none;"/><g class="overlines-above"/><g class="xaxislayer-above"/><g class="yaxislayer-above"><g class="y2tick"><text text-anchor="end" x="79" y="4.199999999999999" transform="translate(0,724.1800000000001)" style="font-family: 'Open Sans', verdana, arial, sans-serif; font-size: 12px; fill: rgb(42, 63, 95); fill-opacity: 1; white-space: pre; opacity: 1;">−600</text></g><g class="y2tick"><text text-anchor="end" x="79" y="4.199999999999999" style="font-family: 'Open Sans', verdana, arial, sans-serif; font-size: 12px; fill: rgb(42, 63, 95); fill-opacity: 1; white-space: pre; opacity: 1;" transform="translate(0,683.09)">−400</text></g><g class="y2tick"><text text-anchor="end" x="79" y="4.199999999999999" style="font-family: 'Open Sans', verdana, arial, sans-serif; font-size: 12px; fill: rgb(42, 63, 95); fill-opacity: 1; white-space: pre; opacity: 1;" transform="translate(0,641.99)">−200</text></g><g class="y2tick"><text text-anchor="end" x="79" y="4.199999999999999" style="font-family: 'Open Sans', verdana, arial, sans-serif; font-size: 12px; fill: rgb(42, 63, 95); fill-opacity: 1; white-space: pre; opacity: 1;" transform="translate(0,600.8900000000001)">0</text></g><g class="y2tick"><text text-anchor="end" x="79" y="4.199999999999999" style="font-family: 'Open Sans', verdana, arial, sans-serif; font-size: 12px; fill: rgb(42, 63, 95); fill-opacity: 1; white-space: pre; opacity: 1;" transform="translate(0,559.7900000000001)">200</text></g><g class="y2tick"><text text-anchor="end" x="79" y="4.199999999999999" style="font-family: 'Open Sans', verdana, arial, sans-serif; font-size: 12px; fill: rgb(42, 63, 95); fill-opacity: 1; white-space: pre; opacity: 1;" transform="translate(0,518.69)">400</text></g><g class="y2tick"><text text-anchor="end" x="79" y="4.199999999999999" style="font-family: 'Open Sans', verdana, arial, sans-serif; font-size: 12px; fill: rgb(42, 63, 95); fill-opacity: 1; white-space: pre; opacity: 1;" transform="translate(0,477.59000000000003)">600</text></g></g><g class="overaxes-above"/></g><g class="subplot x3y3"><g class="layer-subplot"><g class="shapelayer"/><g class="imagelayer"/></g><g class="minor-gridlayer"><g class="x3"/><g class="y3"/></g><g class="gridlayer"><g class="x3"><path class="x3grid crisp" transform="translate(127.88,0)" d="M0,848.0000000000001v272" style="stroke: rgb(235, 240, 248); stroke-opacity: 1; stroke-width: 1px;"/><path class="x3grid crisp" transform="translate(213.81,0)" d="M0,848.0000000000001v272" style="stroke: rgb(235, 240, 248); stroke-opacity: 1; stroke-width: 1px;"/><path class="x3grid crisp" transform="translate(299.74,0)" d="M0,848.0000000000001v272" style="stroke: rgb(235, 240, 248); stroke-opacity: 1; stroke-width: 1px;"/><path class="x3grid crisp" transform="translate(385.67,0)" d="M0,848.0000000000001v272" style="stroke: rgb(235, 240, 248); stroke-opacity: 1; stroke-width: 1px;"/></g><g class="y3"><path class="y3grid crisp" transform="translate(0,1072.95)" d="M80,0h340" style="stroke: rgb(235, 240, 248); stroke-opacity: 1; stroke-width: 1px;"/><path class="y3grid crisp" transform="translate(0,922.94)" d="M80,0h340" style="stroke: rgb(235, 240, 248); stroke-opacity: 1; stroke-width: 1px;"/></g></g><g class="zerolinelayer"><path class="y3zl zl crisp" transform="translate(0,997.95)" d="M80,0h340" style="stroke: rgb(235, 240, 248); stroke-opacity: 1; stroke-width: 2px;"/></g><path class="xlines-below"/><path class="ylines-below"/><g class="overlines-below"/><g class="xaxislayer-below"/><g class="yaxislayer-below"/><g class="overaxes-below"/><g class="plot" transform="translate(80,848.0000000000001)" clip-path="url(#clip9569f2x3y3plot)"><g class="scatterlayer mlayer"><g class="trace scatter traceac65cb" style="stroke-miterlimit: 2; opacity: 1;"><g class="fills"/><g class="errorbars"/><g class="lines"><path class="js-line" d="M20.75,154.09L26.78,150.43L29.8,149.19L35.83,147.89L38.84,147.83L44.87,148.9L47.89,150.02L53.92,153.45L56.93,155.76L62.96,161.56L65.98,165.05L68.99,168.59L72.01,169.57L75.02,167.44L78.04,162.19L81.05,153.84L84.07,151.52L93.11,154.17L96.13,154.49L102.16,154.24L105.17,153.71L123.27,151.29L126.28,151.07L147.39,150.5L150.4,150.43L189.6,148.82L192.61,148.63L216.73,147.47L219.75,147.55L243.87,148.7L246.89,148.18L252.92,146.08L255.93,148.35L261.96,150.8L264.98,150.97L271.01,149.31L274.02,148.18L286.08,144.66L289.1,144.04L301.16,142.55L304.17,142.43L316.23,142.96L319.25,143.34" style="vector-effect: non-scaling-stroke; fill: none; stroke: rgb(68, 1, 84); stroke-opacity: 1; stroke-width: 1px; opacity: 1;"/></g><g class="points"/><g class="text"/></g><g class="trace scatter trace2a0658" style="stroke-miterlimit: 2; opacity: 1;"><g class="fills"/><g class="errorbars"/><g class="lines"><path class="js-line" d="M20.75,153.07L26.78,149.64L29.8,148.48L35.83,147.27L38.84,147.22L44.87,148.22L47.89,149.28L53.92,152.49L56.93,154.65L62.96,160.08L65.98,163.35L68.99,166.67L72.01,167.59L75.02,165.62L78.04,160.74L81.05,152.96L84.07,150.6L93.11,153.89L96.13,154.35L102.16,154.13L105.17,153.51L120.25,151.11L123.27,150.83L138.34,150.35L141.36,150.37L171.51,149.8L174.52,149.72L222.77,148.55L225.78,148.76L240.86,149.87L243.87,149.68L249.9,148.53L252.92,147.41L258.95,151.23L261.96,152.12L267.99,151.84L271.01,150.78L283.07,147.11L286.08,146.44L298.14,144.73L301.16,144.55L313.22,144.8L316.23,145.11L319.25,145.52" style="vector-effect: non-scaling-stroke; fill: none; stroke: rgb(69, 7, 90); stroke-opacity: 1; stroke-width: 1px; opacity: 1;"/></g><g class="points"/><g class="text"/></g><g class="trace scatter tracef75c5f" style="stroke-miterlimit: 2; opacity: 1;"><g class="fills"/><g class="errorbars"/><g class="lines"><path class="js-line" d="M20.75,154.7L26.78,150.6L29.8,149.21L35.83,147.72L38.84,147.63L44.87,148.75L47.89,149.96L53.92,153.7L56.93,156.21L62.96,162.56L65.98,166.38L68.99,170.26L72.01,171.32L75.02,168.96L78.04,163.19L81.05,154L84.07,151.03L93.11,155.5L96.13,156.14L102.16,155.82L105.17,154.94L117.23,152.02L120.25,151.52L132.31,150.44L135.33,150.4L162.46,150.07L165.48,149.96L225.78,148.22L228.8,148.34L246.89,148.76L249.9,148.32L252.92,147.03L255.93,149.7L261.96,152.64L264.98,152.89L271.01,151.1L274.02,149.86L286.08,146.07L289.1,145.41L301.16,143.94L304.17,143.86L316.23,144.72L319.25,145.22" style="vector-effect: non-scaling-stroke; fill: none; stroke: rgb(69, 14, 96); stroke-opacity: 1; stroke-width: 1px; opacity: 1;"/></g><g class="points"/><g class="text"/></g><g class="trace scatter trace35dd63" style="stroke-miterlimit: 2; opacity: 1;"><g class="fills"/><g class="errorbars"/><g class="lines"><path class="js-line" d="M20.75,157.87L26.78,152.77L29.8,151.04L35.83,149.21L38.84,149.11L44.87,150.55L47.89,152.09L53.92,156.8L56.93,159.97L62.96,167.95L65.98,172.76L68.99,177.63L72.01,178.96L75.02,175.98L78.04,168.7L81.05,157.12L84.07,154.14L90.1,156.18L93.11,156.72L99.14,156.91L102.16,156.56L120.25,153.48L123.27,153.14L141.36,152.07L144.37,151.92L192.61,148.09L195.63,147.75L216.73,145.78L219.75,145.85L231.81,147.16L234.83,147.7L240.86,147.77L243.87,147.21L249.9,144.7L252.92,142.97L258.95,148.24L261.96,149.39L264.98,149.55L267.99,148.73L280.05,142.49L283.07,141.25L292.11,138.4L295.13,137.73L304.17,136.59L307.19,136.5L316.23,137.08L319.25,137.56" style="vector-effect: non-scaling-stroke; fill: none; stroke: rgb(70, 20, 101); stroke-opacity: 1; stroke-width: 1px; opacity: 1;"/></g><g class="points"/><g class="text"/></g><g class="trace scatter trace318aa1" style="stroke-miterlimit: 2; opacity: 1;"><g class="fills"/><g class="errorbars"/><g class="lines"><path class="js-line" d="M20.75,152.31L26.78,148.47L29.8,147.17L35.83,145.82L38.84,145.77L44.87,146.91L47.89,148.1L53.92,151.73L56.93,154.16L62.96,160.28L65.98,163.97L68.99,167.7L72.01,168.76L75.02,166.56L78.04,161.11L81.05,152.41L84.07,150.09L93.11,153.21L96.13,153.67L102.16,153.49L105.17,152.9L120.25,150.63L123.27,150.37L138.34,150.04L141.36,150.09L180.55,149.75L183.57,149.71L237.84,149.6L240.86,149.66L249.9,149.61L252.92,148.88L258.95,151.68L261.96,152.35L267.99,152.22L271.01,151.49L286.08,148.55L289.1,148.17L304.17,147.34L307.19,147.39L319.25,148.27" style="vector-effect: non-scaling-stroke; fill: none; stroke: rgb(71, 26, 107); stroke-opacity: 1; stroke-width: 1px; opacity: 1;"/></g><g class="points"/><g class="text"/></g><g class="trace scatter trace02d977" style="stroke-miterlimit: 2; opacity: 1;"><g class="fills"/><g class="errorbars"/><g class="lines"><path class="js-line" d="M20.75,153.1L26.78,149.66L29.8,148.49L35.83,147.26L38.84,147.2L44.87,148.19L47.89,149.23L53.92,152.43L56.93,154.59L62.96,160L65.98,163.26L68.99,166.57L72.01,167.49L75.02,165.51L78.04,160.63L81.05,152.86L84.07,150.4L93.11,154.11L96.13,154.64L102.16,154.41L105.17,153.71L120.25,151.01L123.27,150.7L138.34,150.24L141.36,150.29L171.51,149.81L174.52,149.75L225.78,148.93L228.8,149.1L243.87,149.68L246.89,149.5L252.92,147.93L255.93,150.17L261.96,152.64L264.98,152.86L271.01,151.38L274.02,150.35L286.08,147.19L289.1,146.65L301.16,145.43L304.17,145.37L316.23,146.09L319.25,146.52" style="vector-effect: non-scaling-stroke; fill: none; stroke: rgb(71, 32, 113); stroke-opacity: 1; stroke-width: 1px; opacity: 1;"/></g><g class="points"/><g class="text"/></g><g class="trace scatter trace88d2ad" style="stroke-miterlimit: 2; opacity: 1;"><g class="fills"/><g class="errorbars"/><g class="lines"><path class="js-line" d="M20.75,152.61L26.78,149.95L29.8,149.04L35.83,148.07L38.84,148.01L44.87,148.74L47.89,149.53L53.92,151.96L56.93,153.6L65.98,160.21L68.99,162.73L72.01,163.43L75.02,161.9L78.04,158.16L81.05,152.2L84.07,150.14L87.08,151.32L93.11,153.57L96.13,154.08L102.16,153.87L105.17,153.22L120.25,150.71L123.27,150.43L138.34,150.04L141.36,150.09L174.52,149.8L177.54,149.76L234.83,149.4L237.84,149.48L249.9,149.5L252.92,148.68L258.95,151.72L261.96,152.44L267.99,152.3L271.01,151.51L283.07,148.79L286.08,148.31L298.14,147.12L301.16,147.02L313.22,147.36L316.23,147.63L319.25,147.99" style="vector-effect: non-scaling-stroke; fill: none; stroke: rgb(72, 39, 119); stroke-opacity: 1; stroke-width: 1px; opacity: 1;"/></g><g class="points"/><g class="text"/></g><g class="trace scatter trace3dc086" style="stroke-miterlimit: 2; opacity: 1;"><g class="fills"/><g class="errorbars"/><g class="lines"><path class="js-line" d="M20.75,154.47L26.78,150.54L29.8,149.2L35.83,147.79L38.84,147.71L44.87,148.8L47.89,149.98L53.92,153.58L56.93,156.01L62.96,162.13L65.98,165.82L68.99,169.56L72.01,170.58L75.02,168.32L78.04,162.76L81.05,153.92L84.07,151.17L93.11,155.04L96.13,155.58L102.16,155.28L105.17,154.52L117.23,151.98L120.25,151.54L132.31,150.56L135.33,150.51L162.46,150.07L165.48,149.96L222.77,148.05L225.78,148.18L243.87,148.87L246.89,148.64L252.92,146.8L255.93,149.3L261.96,152.02L264.98,152.25L271.01,150.53L274.02,149.35L286.08,145.71L289.1,145.07L301.16,143.62L304.17,143.53L316.23,144.27L319.25,144.73" style="vector-effect: non-scaling-stroke; fill: none; stroke: rgb(71, 44, 122); stroke-opacity: 1; stroke-width: 1px; opacity: 1;"/></g><g class="points"/><g class="text"/></g><g class="trace scatter tracefb1d04" style="stroke-miterlimit: 2; opacity: 1;"><g class="fills"/><g class="errorbars"/><g class="lines"><path class="js-line" d="M20.75,152.73L26.78,149.99L29.8,149.05L35.83,148.05L38.84,147.99L44.87,148.74L47.89,149.56L53.92,152.06L56.93,153.75L65.98,160.56L68.99,163.16L72.01,163.88L75.02,162.31L78.04,158.45L81.05,152.3L84.07,150.18L87.08,151.4L93.11,153.71L96.13,154.23L102.16,154.02L105.17,153.35L120.25,150.77L123.27,150.47L138.34,150.08L141.36,150.13L171.51,149.85L174.52,149.8L237.84,149.47L240.86,149.55L249.9,149.5L252.92,148.65L258.95,151.73L261.96,152.47L267.99,152.32L271.01,151.51L286.08,148.26L289.1,147.84L301.16,146.95L304.17,146.91L316.23,147.57L319.25,147.93" style="vector-effect: non-scaling-stroke; fill: none; stroke: rgb(69, 49, 125); stroke-opacity: 1; stroke-width: 1px; opacity: 1;"/></g><g class="points"/><g class="text"/></g><g class="trace scatter traceec6fff" style="stroke-miterlimit: 2; opacity: 1;"><g class="fills"/><g class="errorbars"/><g class="lines"><path class="js-line" d="M20.75,152.49L29.8,149.06L32.81,148.46L38.84,148.07L41.86,148.29L47.89,149.53L50.9,150.56L56.93,153.44L59.95,155.28L68.99,162.22L72.01,162.88L75.02,161.42L78.04,157.82L81.05,152.1L84.07,150.11L93.11,153.43L96.13,153.92L102.16,153.72L105.17,153.09L120.25,150.68L123.27,150.4L138.34,150.04L141.36,150.09L177.54,149.77L180.55,149.72L234.83,149.44L237.84,149.52L249.9,149.54L252.92,148.76L258.95,151.64L261.96,152.33L267.99,152.19L271.01,151.44L286.08,148.4L289.1,148.02L304.17,147.15L307.19,147.2L319.25,148.1" style="vector-effect: non-scaling-stroke; fill: none; stroke: rgb(68, 55, 128); stroke-opacity: 1; stroke-width: 1px; opacity: 1;"/></g><g class="points"/><g class="text"/></g><g class="trace scatter tracedd84a4" style="stroke-miterlimit: 2; opacity: 1;"><g class="fills"/><g class="errorbars"/><g class="lines"><path class="js-line" d="M20.75,151.92L29.8,149.14L32.81,148.65L41.86,148.51L44.87,148.91L53.92,151.43L56.93,152.71L65.98,157.88L68.99,159.85L72.01,160.4L75.02,159.21L78.04,156.29L81.05,151.63L84.07,150.02L87.08,150.96L93.11,152.73L96.13,153.13L102.16,152.98L105.17,152.46L120.25,150.51L123.27,150.28L141.36,150.04L144.37,150.07L189.6,149.66L192.61,149.61L237.84,149.67L240.86,149.73L249.9,149.68L252.92,149.04L258.95,151.37L261.96,151.93L267.99,151.82L271.01,151.21L286.08,148.77L289.1,148.46L304.17,147.76L307.19,147.8L319.25,148.53" style="vector-effect: non-scaling-stroke; fill: none; stroke: rgb(66, 60, 130); stroke-opacity: 1; stroke-width: 1px; opacity: 1;"/></g><g class="points"/><g class="text"/></g><g class="trace scatter trace404cde" style="stroke-miterlimit: 2; opacity: 1;"><g class="fills"/><g class="errorbars"/><g class="lines"><path class="js-line" d="M20.75,152.61L26.78,149.94L29.8,149.03L35.83,148.06L38.84,148L44.87,148.73L47.89,149.52L53.92,151.96L56.93,153.6L65.98,160.23L68.99,162.77L72.01,163.46L75.02,161.93L78.04,158.18L81.05,152.2L84.07,150.13L87.08,151.32L93.11,153.58L96.13,154.09L102.16,153.88L105.17,153.23L120.25,150.71L123.27,150.42L138.34,150.03L141.36,150.08L174.52,149.8L177.54,149.75L234.83,149.39L237.84,149.47L249.9,149.49L252.92,148.67L258.95,151.67L261.96,152.39L267.99,152.24L271.01,151.46L286.08,148.3L289.1,147.89L304.17,146.99L307.19,147.04L319.25,147.97" style="vector-effect: non-scaling-stroke; fill: none; stroke: rgb(64, 65, 133); stroke-opacity: 1; stroke-width: 1px; opacity: 1;"/></g><g class="points"/><g class="text"/></g><g class="trace scatter tracea31614" style="stroke-miterlimit: 2; opacity: 1;"><g class="fills"/><g class="errorbars"/><g class="lines"><path class="js-line" d="M20.75,153.72L26.78,150.22L29.8,149.03L35.83,147.76L38.84,147.68L44.87,148.64L47.89,149.67L53.92,152.86L56.93,155.01L62.96,160.42L65.98,163.68L68.99,166.99L72.01,167.89L75.02,165.89L78.04,160.97L81.05,153.14L84.07,150.51L93.11,154.71L96.13,155.33L102.16,155.05L105.17,154.24L117.23,151.57L120.25,151.11L132.31,150.18L135.33,150.16L165.48,149.96L168.49,149.88L228.8,148.82L231.81,148.93L249.9,149.01L252.92,147.92L258.95,151.81L261.96,152.73L267.99,152.51L271.01,151.47L283.07,147.92L286.08,147.28L298.14,145.7L301.16,145.56L313.22,145.95L316.23,146.29L319.25,146.73" style="vector-effect: non-scaling-stroke; fill: none; stroke: rgb(63, 71, 136); stroke-opacity: 1; stroke-width: 1px; opacity: 1;"/></g><g class="points"/><g class="text"/></g><g class="trace scatter trace83eae3" style="stroke-miterlimit: 2; opacity: 1;"><g class="fills"/><g class="errorbars"/><g class="lines"><path class="js-line" d="M20.75,153.75L26.78,150.18L29.8,148.97L35.83,147.67L38.84,147.59L44.87,148.56L47.89,149.61L53.92,152.86L56.93,155.04L62.96,160.55L65.98,163.88L68.99,167.25L72.01,168.17L75.02,166.13L78.04,161.12L81.05,153.14L84.07,150.44L93.11,154.78L96.13,155.42L102.16,155.14L105.17,154.3L117.23,151.53L120.25,151.06L132.31,150.08L135.33,150.06L168.49,149.88L171.51,149.8L228.8,148.71L231.81,148.81L249.9,148.94L252.92,147.84L258.95,151.77L261.96,152.7L267.99,152.48L271.01,151.44L283.07,147.85L286.08,147.2L298.14,145.61L301.16,145.46L313.22,145.86L316.23,146.21L319.25,146.66" style="vector-effect: non-scaling-stroke; fill: none; stroke: rgb(61, 76, 137); stroke-opacity: 1; stroke-width: 1px; opacity: 1;"/></g><g class="points"/><g class="text"/></g><g class="trace scatter trace3e3617" style="stroke-miterlimit: 2; opacity: 1;"><g class="fills"/><g class="errorbars"/><g class="lines"><path class="js-line" d="M20.75,153.7L26.78,150.2L29.8,149.01L35.83,147.74L38.84,147.66L44.87,148.63L47.89,149.67L53.92,152.86L56.93,155.01L62.96,160.44L65.98,163.71L68.99,167.03L72.01,167.94L75.02,165.93L78.04,161L81.05,153.16L84.07,150.54L93.11,154.69L96.13,155.29L102.16,155.02L105.17,154.22L117.23,151.59L120.25,151.14L132.31,150.23L135.33,150.21L162.46,150.05L165.48,149.96L228.8,148.88L231.81,148.99L246.89,149.35L249.9,149.05L252.92,147.98L255.93,150.24L261.96,152.73L264.98,152.96L271.01,151.49L274.02,150.47L286.08,147.34L289.1,146.8L301.16,145.63L304.17,145.58L316.23,146.35L319.25,146.79" style="vector-effect: non-scaling-stroke; fill: none; stroke: rgb(59, 81, 138); stroke-opacity: 1; stroke-width: 1px; opacity: 1;"/></g><g class="points"/><g class="text"/></g><g class="trace scatter trace696ddf" style="stroke-miterlimit: 2; opacity: 1;"><g class="fills"/><g class="errorbars"/><g class="lines"><path class="js-line" d="M20.75,153.11L26.78,149.58L29.8,148.38L35.83,147.14L38.84,147.08L44.87,148.12L47.89,149.21L53.92,152.53L56.93,154.76L62.96,160.36L65.98,163.73L68.99,167.15L72.01,168.11L75.02,166.07L78.04,161.04L81.05,153.03L84.07,150.64L93.11,153.91L96.13,154.37L102.16,154.15L105.17,153.53L120.25,151.14L123.27,150.85L138.34,150.39L141.36,150.41L177.54,149.66L180.55,149.59L222.77,148.57L225.78,148.76L243.87,149.65L246.89,149.3L252.92,147.46L255.93,149.74L261.96,152.22L264.98,152.43L271.01,150.87L274.02,149.8L286.08,146.5L289.1,145.92L301.16,144.6L304.17,144.52L316.23,145.18L319.25,145.59" style="vector-effect: non-scaling-stroke; fill: none; stroke: rgb(45, 114, 142); stroke-opacity: 1; stroke-width: 1px; opacity: 1;"/></g><g class="points"/><g class="text"/></g><g class="trace scatter trace2e3ed3" style="stroke-miterlimit: 2; opacity: 1;"><g class="fills"/><g class="errorbars"/><g class="lines"><path class="js-line" d="M20.75,154.8L26.78,150.69L29.8,149.29L35.83,147.79L38.84,147.7L44.87,148.83L47.89,150.04L53.92,153.79L56.93,156.31L62.96,162.67L65.98,166.51L68.99,170.4L72.01,171.46L75.02,169.09L78.04,163.3L81.05,154.08L84.07,151.09L93.11,155.58L96.13,156.22L102.16,155.89L105.17,155.01L117.23,152.08L120.25,151.57L132.31,150.49L135.33,150.45L162.46,150.08L165.48,149.96L225.78,148.19L228.8,148.32L246.89,148.72L249.9,148.24L252.92,146.93L255.93,149.56L261.96,152.43L264.98,152.68L271.01,150.91L274.02,149.68L286.08,145.93L289.1,145.28L301.16,143.81L304.17,143.73L316.23,144.55L319.25,145.04" style="vector-effect: non-scaling-stroke; fill: none; stroke: rgb(43, 118, 142); stroke-opacity: 1; stroke-width: 1px; opacity: 1;"/></g><g class="points"/><g class="text"/></g><g class="trace scatter tracea1ec4c" style="stroke-miterlimit: 2; opacity: 1;"><g class="fills"/><g class="errorbars"/><g class="lines"><path class="js-line" d="M20.75,157.2L26.78,151.9L29.8,150.09L35.83,148.18L38.84,148.07L44.87,149.55L47.89,151.13L53.92,156L56.93,159.28L62.96,167.53L65.98,172.5L68.99,177.55L72.01,178.92L75.02,175.83L78.04,168.3L81.05,156.3L84.07,153L90.1,155.73L93.11,156.56L99.14,156.98L102.16,156.56L120.25,152.65L123.27,152.22L138.34,151.05L141.36,150.95L177.54,149.02L180.55,148.73L216.73,145.52L219.75,145.58L231.81,146.68L234.83,147.13L240.86,147.24L243.87,146.81L249.9,144.79L252.92,143.05L258.95,148.52L261.96,149.74L264.98,149.95L267.99,149.14L280.05,142.9L283.07,141.66L292.11,138.85L295.13,138.2L304.17,137.14L307.19,137.08L316.23,137.78L319.25,138.31" style="vector-effect: non-scaling-stroke; fill: none; stroke: rgb(41, 122, 142); stroke-opacity: 1; stroke-width: 1px; opacity: 1;"/></g><g class="points"/><g class="text"/></g><g class="trace scatter tracea8d120" style="stroke-miterlimit: 2; opacity: 1;"><g class="fills"/><g class="errorbars"/><g class="lines"><path class="js-line" d="M20.75,152.36L29.8,149.07L32.81,148.49L38.84,148.12L41.86,148.33L47.89,149.53L50.9,150.52L59.95,155.05L62.96,157.09L68.99,161.71L72.01,162.35L75.02,160.95L78.04,157.49L81.05,152L84.07,150.09L93.11,153.27L96.13,153.75L102.16,153.56L105.17,152.96L120.25,150.64L123.27,150.38L138.34,150.03L141.36,150.08L180.55,149.74L183.57,149.69L237.84,149.56L240.86,149.63L249.9,149.58L252.92,148.83L258.95,151.58L261.96,152.24L267.99,152.11L271.01,151.39L286.08,148.49L289.1,148.12L304.17,147.3L307.19,147.34L319.25,148.21" style="vector-effect: non-scaling-stroke; fill: none; stroke: rgb(40, 126, 142); stroke-opacity: 1; stroke-width: 1px; opacity: 1;"/></g><g class="points"/><g class="text"/></g><g class="trace scatter tracede6a26" style="stroke-miterlimit: 2; opacity: 1;"><g class="fills"/><g class="errorbars"/><g class="lines"><path class="js-line" d="M20.75,153.03L26.78,149.57L29.8,148.4L35.83,147.16L38.84,147.1L44.87,148.09L47.89,149.15L53.92,152.37L56.93,154.53L62.96,159.98L65.98,163.26L68.99,166.59L72.01,167.52L75.02,165.53L78.04,160.62L81.05,152.8L84.07,150.33L93.11,154.01L96.13,154.54L102.16,154.31L105.17,153.62L120.25,150.94L123.27,150.62L138.34,150.13L141.36,150.16L174.52,149.73L177.54,149.65L222.77,148.66L225.78,148.8L246.89,149.36L249.9,148.85L252.92,147.77L255.93,149.99L261.96,152.43L264.98,152.65L271.01,151.17L274.02,150.15L286.08,147.01L289.1,146.47L301.16,145.25L304.17,145.19L316.23,145.89L319.25,146.31" style="vector-effect: non-scaling-stroke; fill: none; stroke: rgb(38, 130, 142); stroke-opacity: 1; stroke-width: 1px; opacity: 1;"/></g><g class="points"/><g class="text"/></g><g class="trace scatter trace844ceb" style="stroke-miterlimit: 2; opacity: 1;"><g class="fills"/><g class="errorbars"/><g class="lines"><path class="js-line" d="M20.75,152.57L29.8,149.05L32.81,148.44L38.84,148.04L41.86,148.26L47.89,149.54L50.9,150.6L56.93,153.55L59.95,155.44L68.99,162.56L72.01,163.24L75.02,161.74L78.04,158.05L81.05,152.17L84.07,150.14L93.11,153.52L96.13,154.02L102.16,153.82L105.17,153.17L120.25,150.71L123.27,150.43L138.34,150.06L141.36,150.11L174.52,149.81L177.54,149.77L234.83,149.43L237.84,149.51L249.9,149.53L252.92,148.73L258.95,151.67L261.96,152.38L267.99,152.23L271.01,151.46L286.08,148.36L289.1,147.96L304.17,147.08L307.19,147.12L319.25,148.05" style="vector-effect: non-scaling-stroke; fill: none; stroke: rgb(37, 135, 141); stroke-opacity: 1; stroke-width: 1px; opacity: 1;"/></g><g class="points"/><g class="text"/></g><g class="trace scatter traced342b5" style="stroke-miterlimit: 2; opacity: 1;"><g class="fills"/><g class="errorbars"/><g class="lines"><path class="js-line" d="M20.75,154.39L26.78,150.48L29.8,149.15L35.83,147.75L38.84,147.68L44.87,148.78L47.89,149.96L53.92,153.56L56.93,155.99L62.96,162.1L65.98,165.78L68.99,169.51L72.01,170.54L75.02,168.28L78.04,162.74L81.05,153.93L84.07,151.28L93.11,154.82L96.13,155.3L102.16,155.02L105.17,154.32L120.25,151.56L123.27,151.23L138.34,150.59L141.36,150.58L174.52,149.63L177.54,149.53L222.77,147.98L225.78,148.12L243.87,148.84L246.89,148.54L252.92,146.63L255.93,149.07L261.96,151.71L264.98,151.92L271.01,150.22L274.02,149.05L286.08,145.45L289.1,144.82L301.16,143.36L304.17,143.26L316.23,143.94L319.25,144.38" style="vector-effect: non-scaling-stroke; fill: none; stroke: rgb(36, 140, 140); stroke-opacity: 1; stroke-width: 1px; opacity: 1;"/></g><g class="points"/><g class="text"/></g><g class="trace scatter tracea6c70b" style="stroke-miterlimit: 2; opacity: 1;"><g class="fills"/><g class="errorbars"/><g class="lines"><path class="js-line" d="M20.75,152.62L26.78,149.93L29.8,149.01L35.83,148.03L38.84,147.97L44.87,148.71L47.89,149.51L53.92,151.96L56.93,153.61L65.98,160.28L68.99,162.83L72.01,163.53L75.02,161.99L78.04,158.21L81.05,152.2L84.07,150.12L87.08,151.32L93.11,153.58L96.13,154.1L102.16,153.89L105.17,153.23L120.25,150.7L123.27,150.41L138.34,150.01L141.36,150.06L174.52,149.8L177.54,149.74L234.83,149.36L237.84,149.45L249.9,149.47L252.92,148.64L258.95,151.65L261.96,152.37L267.99,152.22L271.01,151.44L286.08,148.26L289.1,147.86L301.16,146.98L304.17,146.95L319.25,147.94" style="vector-effect: non-scaling-stroke; fill: none; stroke: rgb(34, 144, 140); stroke-opacity: 1; stroke-width: 1px; opacity: 1;"/></g><g class="points"/><g class="text"/></g><g class="trace scatter traceef1e32" style="stroke-miterlimit: 2; opacity: 1;"><g class="fills"/><g class="errorbars"/><g class="lines"><path class="js-line" d="M20.75,152.61L26.78,149.99L29.8,149.1L35.83,148.15L38.84,148.09L44.87,148.8L47.89,149.58L53.92,151.96L56.93,153.57L65.98,160.06L68.99,162.54L72.01,163.22L75.02,161.72L78.04,158.05L81.05,152.19L84.07,150.15L87.08,151.33L93.11,153.56L96.13,154.07L102.16,153.87L105.17,153.21L120.25,150.73L123.27,150.44L138.34,150.07L141.36,150.12L171.51,149.85L174.52,149.81L237.84,149.51L240.86,149.58L249.9,149.53L252.92,148.72L258.95,151.69L261.96,152.39L267.99,152.25L271.01,151.47L286.08,148.34L289.1,147.94L301.16,147.08L304.17,147.05L319.25,148.03" style="vector-effect: non-scaling-stroke; fill: none; stroke: rgb(33, 148, 139); stroke-opacity: 1; stroke-width: 1px; opacity: 1;"/></g><g class="points"/><g class="text"/></g><g class="trace scatter trace0d4cd3" style="stroke-miterlimit: 2; opacity: 1;"><g class="fills"/><g class="errorbars"/><g class="lines"><path class="js-line" d="M20.75,151.95L29.8,149.14L32.81,148.65L41.86,148.51L44.87,148.91L53.92,151.45L56.93,152.74L65.98,157.95L68.99,159.94L72.01,160.49L75.02,159.29L78.04,156.35L81.05,151.65L84.07,150.03L87.08,150.97L93.11,152.76L96.13,153.16L102.16,153.01L105.17,152.49L120.25,150.52L123.27,150.29L138.34,150.01L141.36,150.05L183.57,149.74L186.58,149.7L237.84,149.67L240.86,149.73L249.9,149.68L252.92,149.04L258.95,151.39L261.96,151.95L267.99,151.84L271.01,151.23L286.08,148.76L289.1,148.45L304.17,147.75L307.19,147.79L319.25,148.53" style="vector-effect: non-scaling-stroke; fill: none; stroke: rgb(32, 153, 138); stroke-opacity: 1; stroke-width: 1px; opacity: 1;"/></g><g class="points"/><g class="text"/></g><g class="trace scatter tracec7e3d2" style="stroke-miterlimit: 2; opacity: 1;"><g class="fills"/><g class="errorbars"/><g class="lines"><path class="js-line" d="M20.75,152.71L26.78,150.01L29.8,149.09L35.83,148.11L38.84,148.05L44.87,148.79L47.89,149.59L53.92,152.04L56.93,153.7L65.98,160.39L68.99,162.94L72.01,163.64L75.02,162.1L78.04,158.31L81.05,152.27L84.07,150.17L87.08,151.39L93.11,153.69L96.13,154.21L102.16,154L105.17,153.33L120.25,150.76L123.27,150.46L138.34,150.07L141.36,150.12L171.51,149.85L174.52,149.8L237.84,149.47L240.86,149.55L249.9,149.5L252.92,148.66L258.95,151.73L261.96,152.46L267.99,152.31L271.01,151.51L283.07,148.76L286.08,148.27L301.16,146.96L304.17,146.93L316.23,147.58L319.25,147.94" style="vector-effect: non-scaling-stroke; fill: none; stroke: rgb(31, 158, 137); stroke-opacity: 1; stroke-width: 1px; opacity: 1;"/></g><g class="points"/><g class="text"/></g><g class="trace scatter traced958cc" style="stroke-miterlimit: 2; opacity: 1;"><g class="fills"/><g class="errorbars"/><g class="lines"><path class="js-line" d="M20.75,153.61L26.78,150.18L29.8,149.01L35.83,147.76L38.84,147.69L44.87,148.63L47.89,149.65L53.92,152.78L56.93,154.89L62.96,160.21L65.98,163.41L68.99,166.67L72.01,167.56L75.02,165.59L78.04,160.76L81.05,153.06L84.07,150.47L93.11,154.62L96.13,155.22L102.16,154.96L105.17,154.16L117.23,151.53L120.25,151.08L132.31,150.17L135.33,150.15L162.46,150.04L165.48,149.96L228.8,148.87L231.81,148.98L249.9,149.06L252.92,147.99L258.95,151.81L261.96,152.71L267.99,152.5L271.01,151.49L283.07,148.01L286.08,147.38L298.14,145.83L301.16,145.68L313.22,146.07L316.23,146.41L319.25,146.84" style="vector-effect: non-scaling-stroke; fill: none; stroke: rgb(34, 162, 135); stroke-opacity: 1; stroke-width: 1px; opacity: 1;"/></g><g class="points"/><g class="text"/></g><g class="trace scatter trace572355" style="stroke-miterlimit: 2; opacity: 1;"><g class="fills"/><g class="errorbars"/><g class="lines"><path class="js-line" d="M20.75,153.66L26.78,150.17L29.8,148.97L35.83,147.7L38.84,147.62L44.87,148.58L47.89,149.61L53.92,152.8L56.93,154.95L62.96,160.35L65.98,163.62L68.99,166.93L72.01,167.83L75.02,165.83L78.04,160.91L81.05,153.09L84.07,150.44L93.11,154.71L96.13,155.33L102.16,155.06L105.17,154.24L117.23,151.53L120.25,151.07L132.31,150.13L135.33,150.11L162.46,150.03L165.48,149.96L228.8,148.83L231.81,148.93L249.9,149.08L252.92,148.01L258.95,151.89L261.96,152.81L267.99,152.61L271.01,151.58L283.07,148.06L286.08,147.42L298.14,145.86L301.16,145.72L313.22,146.12L316.23,146.47L319.25,146.91" style="vector-effect: non-scaling-stroke; fill: none; stroke: rgb(38, 166, 132); stroke-opacity: 1; stroke-width: 1px; opacity: 1;"/></g><g class="points"/><g class="text"/></g><g class="trace scatter trace8b8a4d" style="stroke-miterlimit: 2; opacity: 1;"><g class="fills"/><g class="errorbars"/><g class="lines"><path class="js-line" d="M20.75,153.7L26.78,150.25L29.8,149.08L35.83,147.83L38.84,147.75L44.87,148.7L47.89,149.72L53.92,152.85L56.93,154.97L62.96,160.3L65.98,163.51L68.99,166.77L72.01,167.67L75.02,165.69L78.04,160.85L81.05,153.14L84.07,150.54L93.11,154.7L96.13,155.31L102.16,155.04L105.17,154.23L117.23,151.59L120.25,151.15L132.31,150.24L135.33,150.23L162.46,150.05L165.48,149.96L228.8,148.92L231.81,149.03L249.9,149.11L252.92,148.05L258.95,151.87L261.96,152.78L267.99,152.57L271.01,151.55L283.07,148.06L286.08,147.43L298.14,145.88L301.16,145.73L313.22,146.12L316.23,146.46L319.25,146.89" style="vector-effect: non-scaling-stroke; fill: none; stroke: rgb(41, 170, 130); stroke-opacity: 1; stroke-width: 1px; opacity: 1;"/></g><g class="points"/><g class="text"/></g><g class="trace scatter traceb8168c" style="stroke-miterlimit: 2; opacity: 1;"><g class="fills"/><g class="errorbars"/><g class="lines"><path class="js-line" d="M20.75,145.19L29.8,148.09L32.81,148.71L41.86,149.53L44.87,149.45L53.92,148.18L56.93,147.41L65.98,144.05L68.99,142.73L72.01,142.47L75.02,143.51L78.04,145.83L81.05,149.45L84.07,154.27L87.08,150.17L90.1,143.86L93.11,139.45L96.13,136.92L99.14,136.28L102.16,137.53L105.17,140.38L114.22,147.73L117.23,149.49L123.27,151.98L126.28,152.71L132.31,153.15L135.33,152.85L150.4,150.51L153.42,150.28L186.58,148.33L189.6,147.88L210.7,144.13L213.72,144.22L219.75,145.23L222.77,146.16L228.8,148.85L231.81,150.62L234.83,152.51L237.84,153.16L240.86,152.23L243.87,149.73L249.9,141.09L252.92,141.3L258.95,137.87L261.96,136.83L267.99,136.09L271.01,136.34L286.08,136.89L289.1,136.8L304.17,135.39L307.19,134.91L319.25,132.34" style="vector-effect: non-scaling-stroke; fill: none; stroke: rgb(45, 174, 127); stroke-opacity: 1; stroke-width: 1px; opacity: 1;"/></g><g class="points"/><g class="text"/></g><g class="trace scatter trace1e3cc8" style="stroke-miterlimit: 2; opacity: 1;"><g class="fills"/><g class="errorbars"/><g class="lines"><path class="js-line" d="M20.75,154.68L26.78,150.56L29.8,149.16L35.83,147.67L38.84,147.58L44.87,148.71L47.89,149.93L53.92,153.68L56.93,156.22L62.96,162.59L65.98,166.43L68.99,170.33L72.01,171.4L75.02,169.03L78.04,163.23L81.05,154L84.07,151.03L93.11,155.44L96.13,156.06L102.16,155.74L105.17,154.87L117.23,151.99L120.25,151.5L132.31,150.41L135.33,150.37L165.48,149.96L168.49,149.85L225.78,148.11L228.8,148.24L246.89,148.63L249.9,148.14L252.92,146.84L255.93,149.49L261.96,152.38L264.98,152.63L271.01,150.84L274.02,149.61L286.08,145.83L289.1,145.17L301.16,143.69L304.17,143.61L316.23,144.44L319.25,144.93" style="vector-effect: non-scaling-stroke; fill: none; stroke: rgb(96, 200, 96); stroke-opacity: 1; stroke-width: 1px; opacity: 1;"/></g><g class="points"/><g class="text"/></g><g class="trace scatter trace705d1d" style="stroke-miterlimit: 2; opacity: 1;"><g class="fills"/><g class="errorbars"/><g class="lines"><path class="js-line" d="M20.75,158.4L26.78,152.93L29.8,151.07L35.83,149.11L38.84,149L44.87,150.54L47.89,152.18L53.92,157.22L56.93,160.61L62.96,169.15L65.98,174.29L68.99,179.51L72.01,180.93L75.02,177.74L78.04,169.94L81.05,157.54L84.07,154.34L90.1,156.57L93.11,157.17L99.14,157.39L102.16,157.01L120.25,153.65L123.27,153.27L141.36,152.1L144.37,151.94L189.6,148.23L192.61,147.92L216.73,145.51L219.75,145.55L231.81,146.75L234.83,147.26L240.86,147.34L243.87,146.82L249.9,144.37L252.92,142.48L258.95,147.98L261.96,149.18L264.98,149.35L267.99,148.49L280.05,141.97L283.07,140.67L292.11,137.68L295.13,136.98L304.17,135.78L307.19,135.68L316.23,136.27L319.25,136.76" style="vector-effect: non-scaling-stroke; fill: none; stroke: rgb(105, 204, 91); stroke-opacity: 1; stroke-width: 1px; opacity: 1;"/></g><g class="points"/><g class="text"/></g><g class="trace scatter traced9db82" style="stroke-miterlimit: 2; opacity: 1;"><g class="fills"/><g class="errorbars"/><g class="lines"><path class="js-line" d="M20.75,152.25L29.8,149.07L32.81,148.52L41.86,148.36L44.87,148.81L53.92,151.68L56.93,153.13L65.98,159.01L68.99,161.25L72.01,161.87L75.02,160.52L78.04,157.19L81.05,151.9L84.07,150.06L87.08,151.13L93.11,153.14L96.13,153.59L102.16,153.41L105.17,152.83L120.25,150.6L123.27,150.34L138.34,150.01L141.36,150.06L180.55,149.74L183.57,149.7L234.83,149.5L237.84,149.58L249.9,149.6L252.92,148.87L258.95,151.49L261.96,152.12L267.99,151.99L271.01,151.31L286.08,148.55L289.1,148.2L304.17,147.41L307.19,147.45L319.25,148.28" style="vector-effect: non-scaling-stroke; fill: none; stroke: rgb(115, 207, 85); stroke-opacity: 1; stroke-width: 1px; opacity: 1;"/></g><g class="points"/><g class="text"/></g><g class="trace scatter traceae598b" style="stroke-miterlimit: 2; opacity: 1;"><g class="fills"/><g class="errorbars"/><g class="lines"><path class="js-line" d="M20.75,153.18L26.78,149.73L29.8,148.56L35.83,147.33L38.84,147.27L44.87,148.26L47.89,149.31L53.92,152.52L56.93,154.68L62.96,160.11L65.98,163.38L68.99,166.7L72.01,167.62L75.02,165.63L78.04,160.74L81.05,152.94L84.07,150.49L93.11,154.15L96.13,154.67L102.16,154.44L105.17,153.75L120.25,151.08L123.27,150.77L138.34,150.32L141.36,150.36L174.52,149.75L177.54,149.7L225.78,148.92L228.8,149.1L243.87,149.68L246.89,149.48L252.92,147.89L255.93,150.1L261.96,152.52L264.98,152.73L271.01,151.27L274.02,150.25L286.08,147.14L289.1,146.6L301.16,145.39L304.17,145.32L316.23,146.02L319.25,146.43" style="vector-effect: non-scaling-stroke; fill: none; stroke: rgb(126, 210, 78); stroke-opacity: 1; stroke-width: 1px; opacity: 1;"/></g><g class="points"/><g class="text"/></g><g class="trace scatter traceebb43c" style="stroke-miterlimit: 2; opacity: 1;"><g class="fills"/><g class="errorbars"/><g class="lines"><path class="js-line" d="M20.75,152.55L29.8,149.05L32.81,148.44L38.84,148.05L41.86,148.27L47.89,149.54L50.9,150.59L56.93,153.52L59.95,155.41L68.99,162.48L72.01,163.16L75.02,161.67L78.04,158L81.05,152.15L84.07,150.13L93.11,153.5L96.13,154.01L102.16,153.81L105.17,153.16L120.25,150.7L123.27,150.42L138.34,150.05L141.36,150.1L174.52,149.81L177.54,149.76L237.84,149.51L240.86,149.58L249.9,149.53L252.92,148.73L258.95,151.66L261.96,152.36L267.99,152.22L271.01,151.46L286.08,148.37L289.1,147.97L304.17,147.09L307.19,147.14L319.25,148.06" style="vector-effect: non-scaling-stroke; fill: none; stroke: rgb(138, 212, 70); stroke-opacity: 1; stroke-width: 1px; opacity: 1;"/></g><g class="points"/><g class="text"/></g><g class="trace scatter trace42b835" style="stroke-miterlimit: 2; opacity: 1;"><g class="fills"/><g class="errorbars"/><g class="lines"><path class="js-line" d="M20.75,154.19L26.78,150.37L29.8,149.07L35.83,147.69L38.84,147.61L44.87,148.67L47.89,149.81L53.92,153.32L56.93,155.68L62.96,161.64L65.98,165.22L68.99,168.86L72.01,169.86L75.02,167.66L78.04,162.25L81.05,153.65L84.07,150.92L93.11,154.9L96.13,155.46L102.16,155.18L105.17,154.4L117.23,151.81L120.25,151.36L132.31,150.38L135.33,150.34L168.49,149.86L171.51,149.76L225.78,148.28L228.8,148.42L243.87,148.93L246.89,148.77L252.92,147.04L255.93,149.49L261.96,152.16L264.98,152.39L271.01,150.73L274.02,149.59L286.08,146.07L289.1,145.46L301.16,144.08L304.17,144L316.23,144.75L319.25,145.2" style="vector-effect: non-scaling-stroke; fill: none; stroke: rgb(149, 215, 63); stroke-opacity: 1; stroke-width: 1px; opacity: 1;"/></g><g class="points"/><g class="text"/></g><g class="trace scatter trace3869f0" style="stroke-miterlimit: 2; opacity: 1;"><g class="fills"/><g class="errorbars"/><g class="lines"><path class="js-line" d="M20.75,152.64L26.78,149.9L29.8,148.96L35.83,147.97L38.84,147.91L44.87,148.67L47.89,149.48L53.92,151.99L56.93,153.68L65.98,160.51L68.99,163.12L72.01,163.84L75.02,162.26L78.04,158.4L81.05,152.25L84.07,149.94L87.08,151.35L93.11,154.21L96.13,154.87L102.16,154.64L105.17,153.82L117.23,151.17L120.25,150.73L132.31,149.87L135.33,149.88L162.46,150.01L165.48,149.95L225.78,149.41L228.8,149.62L243.87,150.25L246.89,150.01L252.92,148.67L255.93,150.42L261.96,152.35L264.98,152.54L271.01,151.43L274.02,150.65L289.1,147.88L292.11,147.55L307.19,147.03L310.2,147.15L319.25,147.96" style="vector-effect: non-scaling-stroke; fill: none; stroke: rgb(161, 217, 56); stroke-opacity: 1; stroke-width: 1px; opacity: 1;"/></g><g class="points"/><g class="text"/></g><g class="trace scatter trace63d167" style="stroke-miterlimit: 2; opacity: 1;"><g class="fills"/><g class="errorbars"/><g class="lines"><path class="js-line" d="M20.75,152.56L26.78,149.95L29.8,149.06L35.83,148.11L38.84,148.05L44.87,148.77L47.89,149.54L53.92,151.92L56.93,153.53L65.98,160.01L68.99,162.49L72.01,163.17L75.02,161.67L78.04,158L81.05,152.16L84.07,150.13L87.08,151.3L93.11,153.51L96.13,154.01L102.16,153.81L105.17,153.17L120.25,150.7L123.27,150.42L138.34,150.05L141.36,150.1L174.52,149.81L177.54,149.76L237.84,149.51L240.86,149.58L249.9,149.53L252.92,148.73L258.95,151.66L261.96,152.36L267.99,152.22L271.01,151.46L286.08,148.37L289.1,147.97L304.17,147.09L307.19,147.14L319.25,148.05" style="vector-effect: non-scaling-stroke; fill: none; stroke: rgb(172, 220, 49); stroke-opacity: 1; stroke-width: 1px; opacity: 1;"/></g><g class="points"/><g class="text"/></g><g class="trace scatter trace370b0d" style="stroke-miterlimit: 2; opacity: 1;"><g class="fills"/><g class="errorbars"/><g class="lines"><path class="js-line" d="M20.75,151.95L29.8,149.16L32.81,148.67L41.86,148.53L44.87,148.93L53.92,151.45L56.93,152.74L65.98,157.92L68.99,159.89L72.01,160.44L75.02,159.25L78.04,156.32L81.05,151.66L84.07,150.04L87.08,150.98L93.11,152.76L96.13,153.16L102.16,153.01L105.17,152.49L120.25,150.53L123.27,150.3L138.34,150.02L141.36,150.06L177.54,149.82L180.55,149.78L243.87,149.79L246.89,149.83L252.92,149.05L255.93,150.43L261.96,151.95L264.98,152.1L274.02,150.63L277.04,150.08L292.11,148.21L295.13,148.01L310.2,147.9L313.22,148.06L319.25,148.54" style="vector-effect: non-scaling-stroke; fill: none; stroke: rgb(184, 222, 43); stroke-opacity: 1; stroke-width: 1px; opacity: 1;"/></g><g class="points"/><g class="text"/></g><g class="trace scatter tracee95d97" style="stroke-miterlimit: 2; opacity: 1;"><g class="fills"/><g class="errorbars"/><g class="lines"><path class="js-line" d="M20.75,152.67L26.78,149.92L29.8,148.98L35.83,147.99L38.84,147.93L44.87,148.68L47.89,149.5L53.92,152.01L56.93,153.7L65.98,160.54L68.99,163.15L72.01,163.87L75.02,162.29L78.04,158.42L81.05,152.26L84.07,150.15L87.08,151.36L93.11,153.65L96.13,154.16L102.16,153.96L105.17,153.29L120.25,150.74L123.27,150.44L138.34,150.05L141.36,150.1L174.52,149.8L177.54,149.75L234.83,149.38L237.84,149.47L249.9,149.49L252.92,148.66L258.95,151.71L261.96,152.44L267.99,152.29L271.01,151.5L286.08,148.27L289.1,147.86L301.16,146.97L304.17,146.94L316.23,147.59L319.25,147.94" style="vector-effect: non-scaling-stroke; fill: none; stroke: rgb(195, 224, 42); stroke-opacity: 1; stroke-width: 1px; opacity: 1;"/></g><g class="points"/><g class="text"/></g><g class="trace scatter trace25f80f" style="stroke-miterlimit: 2; opacity: 1;"><g class="fills"/><g class="errorbars"/><g class="lines"><path class="js-line" d="M20.75,153.72L26.78,150.23L29.8,149.05L35.83,147.78L38.84,147.7L44.87,148.66L47.89,149.69L53.92,152.86L56.93,155L62.96,160.4L65.98,163.65L68.99,166.95L72.01,167.85L75.02,165.85L78.04,160.95L81.05,153.15L84.07,150.53L93.11,154.71L96.13,155.32L102.16,155.05L105.17,154.24L117.23,151.58L120.25,151.13L132.31,150.21L135.33,150.19L162.46,150.04L165.48,149.96L228.8,148.86L231.81,148.97L249.9,149.04L252.92,147.97L258.95,151.83L261.96,152.74L267.99,152.53L271.01,151.5L283.07,147.97L286.08,147.33L298.14,145.76L301.16,145.61L313.22,146L316.23,146.34L319.25,146.78" style="vector-effect: non-scaling-stroke; fill: none; stroke: rgb(207, 225, 41); stroke-opacity: 1; stroke-width: 1px; opacity: 1;"/></g><g class="points"/><g class="text"/></g><g class="trace scatter tracef990fc" style="stroke-miterlimit: 2; opacity: 1;"><g class="fills"/><g class="errorbars"/><g class="lines"><path class="js-line" d="M20.75,153.83L26.78,150.25L29.8,149.03L35.83,147.73L38.84,147.65L44.87,148.62L47.89,149.68L53.92,152.93L56.93,155.13L62.96,160.66L65.98,163.99L68.99,167.38L72.01,168.3L75.02,166.25L78.04,161.22L81.05,153.21L84.07,150.5L93.11,154.87L96.13,155.51L102.16,155.22L105.17,154.38L117.23,151.6L120.25,151.13L132.31,150.15L135.33,150.13L162.46,150.04L165.48,149.96L228.8,148.76L231.81,148.86L249.9,149L252.92,147.89L258.95,151.95L261.96,152.91L267.99,152.69L271.01,151.62L283.07,147.92L286.08,147.25L298.14,145.62L301.16,145.46L313.22,145.88L316.23,146.25L319.25,146.71" style="vector-effect: non-scaling-stroke; fill: none; stroke: rgb(218, 227, 40); stroke-opacity: 1; stroke-width: 1px; opacity: 1;"/></g><g class="points"/><g class="text"/></g><g class="trace scatter trace6dbc49" style="stroke-miterlimit: 2; opacity: 1;"><g class="fills"/><g class="errorbars"/><g class="lines"><path class="js-line" d="M20.75,153.7L26.78,150.22L29.8,149.03L35.83,147.76L38.84,147.68L44.87,148.64L47.89,149.67L53.92,152.84L56.93,154.99L62.96,160.38L65.98,163.64L68.99,166.94L72.01,167.84L75.02,165.84L78.04,160.94L81.05,153.13L84.07,150.49L93.11,154.7L96.13,155.31L102.16,155.04L105.17,154.23L117.23,151.55L120.25,151.09L132.31,150.15L135.33,150.13L165.48,149.96L168.49,149.88L228.8,148.78L231.81,148.89L249.9,148.96L252.92,147.87L258.95,151.76L261.96,152.68L267.99,152.46L271.01,151.42L283.07,147.86L286.08,147.22L298.14,145.63L301.16,145.48L313.22,145.87L316.23,146.21L319.25,146.66" style="vector-effect: non-scaling-stroke; fill: none; stroke: rgb(230, 228, 39); stroke-opacity: 1; stroke-width: 1px; opacity: 1;"/></g><g class="points"/><g class="text"/></g><g class="trace scatter tracef52c8c" style="stroke-miterlimit: 2; opacity: 1;"><g class="fills"/><g class="errorbars"/><g class="lines"><path class="js-line" d="M20.75,145.51L29.8,148.76L32.81,149.44L41.86,150.29L44.87,150.17L53.92,148.62L56.93,147.71L65.98,143.77L68.99,142.22L72.01,141.9L75.02,143.08L78.04,145.74L81.05,149.9L84.07,155L87.08,150.7L90.1,144.15L93.11,139.55L96.13,136.92L99.14,136.25L102.16,137.54L105.17,140.5L111.2,145.95L114.22,148.15L120.25,151.5L123.27,152.65L129.3,153.89L132.31,153.98L141.36,152.61L144.37,152.1L162.46,150.14L165.48,149.97L192.61,148.08L195.63,147.53L210.7,144.69L213.72,144.76L219.75,145.78L222.77,146.72L228.8,149.48L231.81,151.3L234.83,153.25L237.84,153.93L240.86,152.98L243.87,150.39L249.9,141.5L252.92,141.77L258.95,138.1L261.96,137L267.99,136.26L271.01,136.54L286.08,137.26L289.1,137.19L304.17,135.78L307.19,135.29L319.25,132.61" style="vector-effect: non-scaling-stroke; fill: none; stroke: rgb(241, 230, 38); stroke-opacity: 1; stroke-width: 1px; opacity: 1;"/></g><g class="points"/><g class="text"/></g><g class="trace scatter trace3c5bc3" style="stroke-miterlimit: 2; opacity: 1;"><g class="fills"/><g class="errorbars"/><g class="lines"><path class="js-line" d="M20.75,152.68L26.78,149.98L29.8,149.06L35.83,148.08L38.84,148.02L44.87,148.76L47.89,149.56L53.92,152.02L56.93,153.68L65.98,160.38L68.99,162.94L72.01,163.64L75.02,162.09L78.04,158.3L81.05,152.26L84.07,150.17L87.08,151.38L93.11,153.66L96.13,154.17L102.16,153.96L105.17,153.3L120.25,150.75L123.27,150.46L138.34,150.08L141.36,150.13L177.54,149.76L180.55,149.72L234.83,149.4L237.84,149.49L249.9,149.51L252.92,148.68L258.95,151.72L261.96,152.44L267.99,152.29L271.01,151.5L283.07,148.78L286.08,148.29L298.14,147.11L301.16,147L313.22,147.34L316.23,147.61L319.25,147.97" style="vector-effect: non-scaling-stroke; fill: none; stroke: rgb(253, 231, 37); stroke-opacity: 1; stroke-width: 1px; opacity: 1;"/></g><g class="points"/><g class="text"/></g><g class="trace scatter traceb0a33c" style="stroke-miterlimit: 2; opacity: 1;"><g class="fills"/><g class="errorbars"/><g class="lines"><path class="js-line" d="M20.75,258.4L65.98,226.55L68.99,224.36L114.22,190.67L117.23,188.36L159.45,155.16L162.46,152.73L207.69,115.16L210.7,112.59L255.93,72.86L258.95,70.13L304.17,28.11L307.19,25.23L319.25,13.6" style="vector-effect: non-scaling-stroke; fill: none; stroke: rgb(169, 169, 169); stroke-opacity: 1; stroke-width: 2px; opacity: 1;"/></g><g class="points"/><g class="text"/></g></g></g><g class="overplot"/><path class="xlines-above crisp" d="M0,0" style="fill: none;"/><path class="ylines-above crisp" d="M0,0" style="fill: none;"/><g class="overlines-above"/><g class="xaxislayer-above"><g class="x3tick"><text text-anchor="middle" x="0" y="1133" transform="translate(127.88,0)" style="font-family: 'Open Sans', verdana, arial, sans-serif; font-size: 12px; fill: rgb(42, 63, 95); fill-opacity: 1; white-space: pre; opacity: 1;">1.4</text></g><g class="x3tick"><text text-anchor="middle" x="0" y="1133" style="font-family: 'Open Sans', verdana, arial, sans-serif; font-size: 12px; fill: rgb(42, 63, 95); fill-opacity: 1; white-space: pre; opacity: 1;" transform="translate(213.81,0)">1.5</text></g><g class="x3tick"><text text-anchor="middle" x="0" y="1133" style="font-family: 'Open Sans', verdana, arial, sans-serif; font-size: 12px; fill: rgb(42, 63, 95); fill-opacity: 1; white-space: pre; opacity: 1;" transform="translate(299.74,0)">1.6</text></g><g class="x3tick"><text text-anchor="middle" x="0" y="1133" style="font-family: 'Open Sans', verdana, arial, sans-serif; font-size: 12px; fill: rgb(42, 63, 95); fill-opacity: 1; white-space: pre; opacity: 1;" transform="translate(385.67,0)">1.7</text></g></g><g class="yaxislayer-above"><g class="y3tick"><text text-anchor="end" x="79" y="4.199999999999999" transform="translate(0,1072.95)" style="font-family: 'Open Sans', verdana, arial, sans-serif; font-size: 12px; fill: rgb(42, 63, 95); fill-opacity: 1; white-space: pre; opacity: 1;">−0.5</text></g><g class="y3tick"><text text-anchor="end" x="79" y="4.199999999999999" style="font-family: 'Open Sans', verdana, arial, sans-serif; font-size: 12px; fill: rgb(42, 63, 95); fill-opacity: 1; white-space: pre; opacity: 1;" transform="translate(0,997.95)">0</text></g><g class="y3tick"><text text-anchor="end" x="79" y="4.199999999999999" style="font-family: 'Open Sans', verdana, arial, sans-serif; font-size: 12px; fill: rgb(42, 63, 95); fill-opacity: 1; white-space: pre; opacity: 1;" transform="translate(0,922.94)">0.5</text></g></g><g class="overaxes-above"/></g></g><g class="polarlayer"/><g class="smithlayer"/><g class="ternarylayer"/><g class="geolayer"/><g class="funnelarealayer"/><g class="pielayer"/><g class="iciclelayer"/><g class="treemaplayer"/><g class="sunburstlayer"/><g class="glimages"/><defs id="topdefs-9569f2"><g class="clips"/><clipPath id="legend9569f2"><rect width="315" height="29" x="0" y="0"/></clipPath></defs><g class="layer-above"><g class="imagelayer"/><g class="shapelayer"/></g><g class="infolayer"><g class="legend" pointer-events="all" transform="translate(105,50.59999999999998)"><rect class="bg" shape-rendering="crispEdges" width="315" height="29" x="0" y="0" style="stroke: rgb(68, 68, 68); stroke-opacity: 1; fill: rgb(255, 255, 255); fill-opacity: 1; stroke-width: 0px;"/><g class="scrollbox" transform="" clip-path="url(#legend9569f2)"><g class="groups"><g class="traces" transform="translate(0,14.5)" style="opacity: 1;"><text class="legendtext" text-anchor="start" x="40" y="4.680000000000001" style="font-family: 'Open Sans', verdana, arial, sans-serif; font-size: 12px; fill: rgb(42, 63, 95); fill-opacity: 1; white-space: pre;">Population Log-likelihood</text><g class="layers" style="opacity: 1;"><g class="legendfill"/><g class="legendlines"><path class="js-line" d="M5,0h30" style="fill: none; stroke: rgb(51, 34, 136); stroke-opacity: 1; stroke-width: 2px;"/></g><g class="legendsymbols"><g class="legendpoints"/></g></g><rect class="legendtoggle" x="0" y="-9.5" width="184.703125" height="19" style="fill: rgb(0, 0, 0); fill-opacity: 0;"/></g><g class="traces" transform="translate(187.203125,14.5)" style="opacity: 1;"><text class="legendtext" text-anchor="start" x="40" y="4.680000000000001" style="font-family: 'Open Sans', verdana, arial, sans-serif; font-size: 12px; fill: rgb(42, 63, 95); fill-opacity: 1; white-space: pre;">Estimates of CI</text><g class="layers" style="opacity: 1;"><g class="legendfill"/><g class="legendlines"/><g class="legendsymbols"><g class="legendpoints"><path class="scatterpts" transform="translate(20,0)" d="M-4.2,0A 5.7,5.7 0 0 1 0,4.2A 5.7,5.7 0 0 1 4.2,0A 5.7,5.7 0 0 1 0,-4.2A 5.7,5.7 0 0 1 -4.2,0Z" style="opacity: 0.5; stroke-width: 0px; fill: rgb(51, 34, 136); fill-opacity: 1;"/></g></g></g><rect class="legendtoggle" x="0" y="-9.5" width="125.171875" height="19" style="fill: rgb(0, 0, 0); fill-opacity: 0;"/></g></g></g><rect class="scrollbar" rx="20" ry="3" width="0" height="0" x="0" y="0" style="fill: rgb(128, 139, 164); fill-opacity: 1;"/></g><g class="g-gtitle"/><g class="g-xtitle"/><g class="g-x2title"/><g class="g-x3title"/><g class="g-ytitle"/><g class="g-y2title"/><g class="g-y3title"/></g></svg>