<svg class="main-svg" xmlns="http://www.w3.org/2000/svg" xmlns:xlink="http://www.w3.org/1999/xlink" width="500" height="1200" style="" viewBox="0 0 500 1200"><rect x="0" y="0" width="500" height="1200" style="fill: rgb(255, 255, 255); fill-opacity: 1;"/><defs id="defs-fbb6c6"><g class="clips"><clipPath id="clipfbb6c6xyplot" class="plotclip"><rect width="340" height="272.00000000000006"/></clipPath><clipPath id="clipfbb6c6x2y2plot" class="plotclip"><rect width="340" height="272"/></clipPath><clipPath id="clipfbb6c6x3y3plot" class="plotclip"><rect width="340" height="272"/></clipPath><clipPath class="axesclip" id="clipfbb6c6x"><rect x="80" y="0" width="340" height="1200"/></clipPath><clipPath class="axesclip" id="clipfbb6c6y"><rect x="0" y="100" width="500" height="272.00000000000006"/></clipPath><clipPath class="axesclip" id="clipfbb6c6xy"><rect x="80" y="100" width="340" height="272.00000000000006"/></clipPath><clipPath class="axesclip" id="clipfbb6c6y2"><rect x="0" y="474.00000000000006" width="500" height="272"/></clipPath><clipPath class="axesclip" id="clipfbb6c6xy2"><rect x="80" y="474.00000000000006" width="340" height="272"/></clipPath><clipPath class="axesclip" id="clipfbb6c6y3"><rect x="0" y="848.0000000000001" width="500" height="272"/></clipPath><clipPath class="axesclip" id="clipfbb6c6xy3"><rect x="80" y="848.0000000000001" width="340" height="272"/></clipPath><clipPath class="axesclip" id="clipfbb6c6x2"><rect x="80" y="0" width="340" height="1200"/></clipPath><clipPath class="axesclip" id="clipfbb6c6x2y"><rect x="80" y="100" width="340" height="272.00000000000006"/></clipPath><clipPath class="axesclip" id="clipfbb6c6x2y2"><rect x="80" y="474.00000000000006" width="340" height="272"/></clipPath><clipPath class="axesclip" id="clipfbb6c6x2y3"><rect x="80" y="848.0000000000001" width="340" height="272"/></clipPath><clipPath class="axesclip" id="clipfbb6c6x3"><rect x="80" y="0" width="340" height="1200"/></clipPath><clipPath class="axesclip" id="clipfbb6c6x3y"><rect x="80" y="100" width="340" height="272.00000000000006"/></clipPath><clipPath class="axesclip" id="clipfbb6c6x3y2"><rect x="80" y="474.00000000000006" width="340" height="272"/></clipPath><clipPath class="axesclip" id="clipfbb6c6x3y3"><rect x="80" y="848.0000000000001" width="340" height="272"/></clipPath></g><g class="gradients"/><g class="patterns"/></defs><g class="bglayer"/><g class="layer-below"><g class="imagelayer"/><g class="shapelayer"/></g><g class="cartesianlayer"><g class="subplot xy"><g class="layer-subplot"><g class="shapelayer"/><g class="imagelayer"/></g><g class="minor-gridlayer"><g class="x"/><g class="y"/></g><g class="gridlayer"><g class="x"><path class="xgrid crisp" transform="translate(148,0)" d="M0,100v272.00000000000006" style="stroke: rgb(235, 240, 248); stroke-opacity: 1; stroke-width: 1px;"/><path class="xgrid crisp" transform="translate(216,0)" d="M0,100v272.00000000000006" style="stroke: rgb(235, 240, 248); stroke-opacity: 1; stroke-width: 1px;"/><path class="xgrid crisp" transform="translate(284,0)" d="M0,100v272.00000000000006" style="stroke: rgb(235, 240, 248); stroke-opacity: 1; stroke-width: 1px;"/><path class="xgrid crisp" transform="translate(352,0)" d="M0,100v272.00000000000006" style="stroke: rgb(235, 240, 248); stroke-opacity: 1; stroke-width: 1px;"/></g><g class="y"><path class="ygrid crisp" transform="translate(0,333.22)" d="M80,0h340" style="stroke: rgb(235, 240, 248); stroke-opacity: 1; stroke-width: 1px;"/><path class="ygrid crisp" transform="translate(0,289.3)" d="M80,0h340" style="stroke: rgb(235, 240, 248); stroke-opacity: 1; stroke-width: 1px;"/><path class="ygrid crisp" transform="translate(0,245.37)" d="M80,0h340" style="stroke: rgb(235, 240, 248); stroke-opacity: 1; stroke-width: 1px;"/><path class="ygrid crisp" transform="translate(0,201.45)" d="M80,0h340" style="stroke: rgb(235, 240, 248); stroke-opacity: 1; stroke-width: 1px;"/><path class="ygrid crisp" transform="translate(0,157.52)" d="M80,0h340" style="stroke: rgb(235, 240, 248); stroke-opacity: 1; stroke-width: 1px;"/></g></g><g class="zerolinelayer"><path class="yzl zl crisp" transform="translate(0,113.6)" d="M80,0h340" style="stroke: rgb(235, 240, 248); stroke-opacity: 1; stroke-width: 2px;"/></g><path class="xlines-below"/><path class="ylines-below"/><g class="overlines-below"/><g class="xaxislayer-below"/><g class="yaxislayer-below"/><g class="overaxes-below"/><g class="plot" transform="translate(80,100)" clip-path="url(#clipfbb6c6xyplot)"><g class="scatterlayer mlayer"><g class="trace scatter tracee8e7c9" style="stroke-miterlimit: 2; opacity: 1;"><g class="fills"/><g class="errorbars"/><g class="lines"><path class="js-line" d="M0,256.15L3.43,246.28L6.87,258.4L17.17,217.76L20.61,206.26L27.47,186.39L30.91,177.95L34.34,190.38L37.78,177.5L44.65,154.78L48.08,144.95L54.95,128.34L58.38,121.57L61.82,135.96L65.25,124.52L72.12,104.66L75.56,96.25L82.42,82.47L85.86,77.03L89.29,92.62L92.73,82.72L99.6,65.92L103.03,59.01L109.9,48.22L113.33,44.29L116.77,60.38L120.2,52.1L127.07,38.49L130.51,33.17L137.37,25.52L140.81,23.15L144.24,40.7L147.68,33.89L154.55,23.21L157.98,19.34L161.41,16.45L164.85,14.56L168.28,13.6L171.72,45.3L178.59,32.83L182.02,28.04L188.89,21.37L192.32,19.49L195.76,18.59L199.19,18.67L202.63,19.73L206.06,21.77L209.49,20.69L212.93,22.67L216.36,25.59L219.8,26.29L240.4,42.49L243.84,46.24L250.71,53.32L254.14,56.76L264.44,69.72L267.88,75.4L271.31,78.46L274.75,83.85L281.62,93.99L285.05,100.52L288.48,104.5L291.92,110.69L298.79,122.61L302.22,128.3L329.7,184.12L333.13,192.25L340,208.19" style="vector-effect: non-scaling-stroke; fill: none; stroke: rgb(169, 169, 169); stroke-opacity: 1; stroke-width: 2px; opacity: 1;"/></g><g class="points"/><g class="text"/></g></g></g><g class="overplot"/><path class="xlines-above crisp" d="M0,0" style="fill: none;"/><path class="ylines-above crisp" d="M0,0" style="fill: none;"/><g class="overlines-above"/><g class="xaxislayer-above"/><g class="yaxislayer-above"><g class="ytick"><text text-anchor="end" x="79" y="4.199999999999999" transform="translate(0,333.22)" style="font-family: 'Open Sans', verdana, arial, sans-serif; font-size: 12px; fill: rgb(42, 63, 95); fill-opacity: 1; white-space: pre; opacity: 1;">−5</text></g><g class="ytick"><text text-anchor="end" x="79" y="4.199999999999999" style="font-family: 'Open Sans', verdana, arial, sans-serif; font-size: 12px; fill: rgb(42, 63, 95); fill-opacity: 1; white-space: pre; opacity: 1;" transform="translate(0,289.3)">−4</text></g><g class="ytick"><text text-anchor="end" x="79" y="4.199999999999999" style="font-family: 'Open Sans', verdana, arial, sans-serif; font-size: 12px; fill: rgb(42, 63, 95); fill-opacity: 1; white-space: pre; opacity: 1;" transform="translate(0,245.37)">−3</text></g><g class="ytick"><text text-anchor="end" x="79" y="4.199999999999999" style="font-family: 'Open Sans', verdana, arial, sans-serif; font-size: 12px; fill: rgb(42, 63, 95); fill-opacity: 1; white-space: pre; opacity: 1;" transform="translate(0,201.45)">−2</text></g><g class="ytick"><text text-anchor="end" x="79" y="4.199999999999999" style="font-family: 'Open Sans', verdana, arial, sans-serif; font-size: 12px; fill: rgb(42, 63, 95); fill-opacity: 1; white-space: pre; opacity: 1;" transform="translate(0,157.52)">−1</text></g><g class="ytick"><text text-anchor="end" x="79" y="4.199999999999999" style="font-family: 'Open Sans', verdana, arial, sans-serif; font-size: 12px; fill: rgb(42, 63, 95); fill-opacity: 1; white-space: pre; opacity: 1;" transform="translate(0,113.6)">0</text></g></g><g class="overaxes-above"/></g><g class="subplot x2y2"><g class="layer-subplot"><g class="shapelayer"/><g class="imagelayer"/></g><g class="minor-gridlayer"><g class="x2"/><g class="y2"/></g><g class="gridlayer"><g class="x2"><path class="x2grid crisp" transform="translate(148,0)" d="M0,474.00000000000006v272" style="stroke: rgb(235, 240, 248); stroke-opacity: 1; stroke-width: 1px;"/><path class="x2grid crisp" transform="translate(216,0)" d="M0,474.00000000000006v272" style="stroke: rgb(235, 240, 248); stroke-opacity: 1; stroke-width: 1px;"/><path class="x2grid crisp" transform="translate(284,0)" d="M0,474.00000000000006v272" style="stroke: rgb(235, 240, 248); stroke-opacity: 1; stroke-width: 1px;"/><path class="x2grid crisp" transform="translate(352,0)" d="M0,474.00000000000006v272" style="stroke: rgb(235, 240, 248); stroke-opacity: 1; stroke-width: 1px;"/></g><g class="y2"><path class="y2grid crisp" transform="translate(0,700.2)" d="M80,0h340" style="stroke: rgb(235, 240, 248); stroke-opacity: 1; stroke-width: 1px;"/><path class="y2grid crisp" transform="translate(0,576.7)" d="M80,0h340" style="stroke: rgb(235, 240, 248); stroke-opacity: 1; stroke-width: 1px;"/><path class="y2grid crisp" transform="translate(0,514.95)" d="M80,0h340" style="stroke: rgb(235, 240, 248); stroke-opacity: 1; stroke-width: 1px;"/></g></g><g class="zerolinelayer"><path class="y2zl zl crisp" transform="translate(0,638.45)" d="M80,0h340" style="stroke: rgb(235, 240, 248); stroke-opacity: 1; stroke-width: 2px;"/></g><path class="xlines-below"/><path class="ylines-below"/><g class="overlines-below"/><g class="xaxislayer-below"/><g class="yaxislayer-below"/><g class="overaxes-below"/><g class="plot" transform="translate(80,474.00000000000006)" clip-path="url(#clipfbb6c6x2y2plot)"><g class="scatterlayer mlayer"><g class="trace scatter trace54a78b" style="stroke-miterlimit: 2; opacity: 1;"><g class="fills"/><g class="errorbars"/><g class="lines"><path class="js-line" d="M0,157.35L30.91,158.01L34.34,158.66L58.38,158.84L61.82,159.53L85.86,159.82L89.29,160.67L123.64,161.89L127.07,161.96L140.81,162.25L144.24,163.07L206.06,164.74L209.49,166.1L230.1,167.39L233.54,167.73L257.58,169.32L261.01,169.69L285.05,171.34L288.48,171.85L312.53,173.62L315.96,174.03L336.57,175.8L340,175.98" style="vector-effect: non-scaling-stroke; fill: none; stroke: rgb(68, 1, 84); stroke-opacity: 1; stroke-width: 1px; opacity: 1;"/></g><g class="points"/><g class="text"/></g><g class="trace scatter tracedd838d" style="stroke-miterlimit: 2; opacity: 1;"><g class="fills"/><g class="errorbars"/><g class="lines"><path class="js-line" d="M0,17.68L3.43,20.64L6.87,20.23L30.91,40.97L34.34,40.19L58.38,61.07L61.82,60.08L85.86,81.08L89.29,79.3L113.33,100.44L116.77,99.29L140.81,120.55L144.24,118.6L168.28,139.98L171.72,140.64L206.06,171.46L209.49,168.32L216.36,174.51L219.8,175.17L223.23,178.27L226.67,180.09L230.1,183.19L233.54,184.89L236.97,188L240.4,189.95L243.84,193.06L247.27,194.14L250.71,197.26L254.14,198.77L257.58,201.88L261.01,203.27L267.88,209.52L271.31,210.02L274.75,213.14L278.18,214.43L285.05,220.69L288.48,221.36L291.92,224.5L295.35,225.97L298.79,229.11L302.22,230.37L305.66,233.51L309.09,234.96L312.53,238.1L315.96,239.34L319.39,242.48L322.83,243.91L326.26,247.06L329.7,248.21L333.13,251.37L336.57,252.47L340,255.62" style="vector-effect: non-scaling-stroke; fill: none; stroke: rgb(69, 7, 90); stroke-opacity: 1; stroke-width: 1px; opacity: 1;"/></g><g class="points"/><g class="text"/></g><g class="trace scatter tracedd8d70" style="stroke-miterlimit: 2; opacity: 1;"><g class="fills"/><g class="errorbars"/><g class="lines"><path class="js-line" d="M0,180.63L30.91,177.72L34.34,178.1L58.38,175.37L61.82,175.82L85.86,173.16L89.29,173.77L113.33,171.19L116.77,171.65L140.81,169.14L144.24,169.75L206.06,164.17L209.49,164.95L230.1,163.74L233.54,163.69L250.71,162.72L254.14,162.71L267.88,161.82L271.31,162L285.05,161.14L288.48,161.29L305.66,160.49L309.09,160.5L326.26,159.74L329.7,159.82L340,159.36" style="vector-effect: non-scaling-stroke; fill: none; stroke: rgb(69, 14, 96); stroke-opacity: 1; stroke-width: 1px; opacity: 1;"/></g><g class="points"/><g class="text"/></g><g class="trace scatter trace4cb68b" style="stroke-miterlimit: 2; opacity: 1;"><g class="fills"/><g class="errorbars"/><g class="lines"><path class="js-line" d="M0,196.66L30.91,191.24L34.34,191.05L85.86,182.12L89.29,182.11L140.81,173.55L144.24,173.59L206.06,163.17L209.49,163.63L236.97,159.87L240.4,159.45L267.88,155.8L271.31,155.65L291.92,153L295.35,152.68L315.96,150.26L319.39,149.74L340,147.42" style="vector-effect: non-scaling-stroke; fill: none; stroke: rgb(70, 20, 101); stroke-opacity: 1; stroke-width: 1px; opacity: 1;"/></g><g class="points"/><g class="text"/></g><g class="trace scatter trace5647ad" style="stroke-miterlimit: 2; opacity: 1;"><g class="fills"/><g class="errorbars"/><g class="lines"><path class="js-line" d="M0,188.21L3.43,187.68L6.87,187.95L30.91,184.15L34.34,184.46L58.38,180.72L61.82,181.13L85.86,177.36L89.29,177.85L113.33,174.16L116.77,174.56L140.81,170.93L144.24,171.44L168.28,167.89L171.72,168.27L206.06,163.19L209.49,163.56L230.1,161.3L233.54,161.04L250.71,159.21L254.14,159L274.75,156.89L278.18,156.74L298.79,154.65L302.22,154.47L319.39,152.8L322.83,152.62L340,151.01" style="vector-effect: non-scaling-stroke; fill: none; stroke: rgb(71, 26, 107); stroke-opacity: 1; stroke-width: 1px; opacity: 1;"/></g><g class="points"/><g class="text"/></g><g class="trace scatter trace852611" style="stroke-miterlimit: 2; opacity: 1;"><g class="fills"/><g class="errorbars"/><g class="lines"><path class="js-line" d="M0,13.6L3.43,16.65L6.87,16.28L30.91,37.6L34.34,36.83L58.38,58.31L61.82,57.3L85.86,78.92L89.29,77.13L113.33,98.86L116.77,97.66L140.81,119.53L144.24,117.55L168.28,139.54L171.72,140.77L206.06,172.49L209.49,168.73L216.36,175.11L219.8,175.71L223.23,178.91L226.67,180.78L230.1,183.98L233.54,185.72L236.97,188.92L240.4,190.93L243.84,194.14L247.27,195.22L250.71,198.43L254.14,199.98L257.58,203.2L261.01,204.62L267.88,211.06L271.31,211.49L274.75,214.72L278.18,216.04L285.05,222.5L288.48,223.15L291.92,226.38L295.35,227.91L298.79,231.14L302.22,232.42L305.66,235.66L309.09,237.16L312.53,240.39L315.96,241.66L319.39,244.9L322.83,246.36L326.26,249.61L329.7,250.79L333.13,254.03L336.57,255.15L340,258.4" style="vector-effect: non-scaling-stroke; fill: none; stroke: rgb(71, 32, 113); stroke-opacity: 1; stroke-width: 1px; opacity: 1;"/></g><g class="points"/><g class="text"/></g><g class="trace scatter trace587e3c" style="stroke-miterlimit: 2; opacity: 1;"><g class="fills"/><g class="errorbars"/><g class="lines"><path class="js-line" d="M0,199.93L85.86,184.08L89.29,183.82L137.37,174.92L140.81,174.28L147.68,173.39L151.11,172.72L206.06,163.08L209.49,162.52L267.88,152.74L271.31,152.23L319.39,144.56L322.83,144.08L340,141.38" style="vector-effect: non-scaling-stroke; fill: none; stroke: rgb(72, 39, 119); stroke-opacity: 1; stroke-width: 1px; opacity: 1;"/></g><g class="points"/><g class="text"/></g><g class="trace scatter traced7bba2" style="stroke-miterlimit: 2; opacity: 1;"><g class="fills"/><g class="errorbars"/><g class="lines"><path class="js-line" d="M0,162.92L30.91,162.73L34.34,163.39L58.38,162.82L61.82,163.56L85.86,163.06L89.29,163.96L113.33,163.55L116.77,164.29L140.81,163.99L144.24,164.89L199.19,164.83L202.63,164.82L206.06,164.82L209.49,166.01L230.1,166.7L233.54,166.96L250.71,167.57L254.14,167.86L267.88,168.24L271.31,168.73L291.92,169.62L295.35,169.92L312.53,170.7L315.96,171.06L333.13,171.91L336.57,172.29L340,172.35" style="vector-effect: non-scaling-stroke; fill: none; stroke: rgb(71, 44, 122); stroke-opacity: 1; stroke-width: 1px; opacity: 1;"/></g><g class="points"/><g class="text"/></g><g class="trace scatter trace771fdf" style="stroke-miterlimit: 2; opacity: 1;"><g class="fills"/><g class="errorbars"/><g class="lines"><path class="js-line" d="M0,207.38L65.25,192.73L68.69,191.98L188.89,166.43L192.32,165.72L206.06,162.96L209.49,161.42L257.58,151.17L261.01,150.38L312.53,139.61L315.96,138.83L340,133.92" style="vector-effect: non-scaling-stroke; fill: none; stroke: rgb(69, 49, 125); stroke-opacity: 1; stroke-width: 1px; opacity: 1;"/></g><g class="points"/><g class="text"/></g><g class="trace scatter tracef634ef" style="stroke-miterlimit: 2; opacity: 1;"><g class="fills"/><g class="errorbars"/><g class="lines"><path class="js-line" d="M0,192.67L30.91,187.97L34.34,188.06L58.38,183.92L61.82,184.03L85.86,179.94L89.29,180.14L113.33,176.09L116.77,176.23L140.81,172.24L144.24,172.51L168.28,168.53L171.72,168.79L206.06,163.21L209.49,163.19L243.84,158.67L247.27,158.37L274.75,154.92L278.18,154.64L305.66,151.27L309.09,150.97L333.13,148.13L336.57,147.87L340,147.37" style="vector-effect: non-scaling-stroke; fill: none; stroke: rgb(68, 55, 128); stroke-opacity: 1; stroke-width: 1px; opacity: 1;"/></g><g class="points"/><g class="text"/></g><g class="trace scatter trace278281" style="stroke-miterlimit: 2; opacity: 1;"><g class="fills"/><g class="errorbars"/><g class="lines"><path class="js-line" d="M0,186.49L3.43,185.98L6.87,186.42L30.91,182.65L34.34,183.12L58.38,179.42L61.82,179.88L85.86,176.26L89.29,176.88L113.33,173.24L116.77,173.77L140.81,170.23L144.24,170.91L168.28,167.37L171.72,167.76L206.06,162.81L209.49,163.34L230.1,161.23L233.54,160.98L257.58,158.64L261.01,158.48L285.05,156.15L288.48,156.07L305.66,154.46L309.09,154.3L326.26,152.74L329.7,152.61L340,151.66" style="vector-effect: non-scaling-stroke; fill: none; stroke: rgb(66, 60, 130); stroke-opacity: 1; stroke-width: 1px; opacity: 1;"/></g><g class="points"/><g class="text"/></g><g class="trace scatter trace2472f6" style="stroke-miterlimit: 2; opacity: 1;"><g class="fills"/><g class="errorbars"/><g class="lines"><path class="js-line" d="M0,198.4L58.38,188.01L61.82,187.75L106.46,179.77L109.9,179.14L140.81,173.85L144.24,173.71L168.28,169.29L171.72,169.38L216.36,161.43L219.8,160.92L274.75,152.21L278.18,151.76L319.39,145.46L322.83,145L340,142.42" style="vector-effect: non-scaling-stroke; fill: none; stroke: rgb(64, 65, 133); stroke-opacity: 1; stroke-width: 1px; opacity: 1;"/></g><g class="points"/><g class="text"/></g><g class="trace scatter traceb53c8d" style="stroke-miterlimit: 2; opacity: 1;"><g class="fills"/><g class="errorbars"/><g class="lines"><path class="js-line" d="M0,166.25L3.43,166.09L6.87,166.76L30.91,165.59L34.34,166.34L58.38,165.26L61.82,166.07L85.86,165.05L89.29,166.04L113.33,165.09L116.77,165.91L140.81,165.03L144.24,166.07L168.28,165.23L171.72,165.9L206.06,164.83L209.49,165.84L230.1,166.09L233.54,166.3L250.71,166.55L254.14,166.79L267.88,166.87L271.31,167.29L285.05,167.41L288.48,167.81L305.66,168.22L309.09,168.48L326.26,168.93L329.7,169.26L340,169.52" style="vector-effect: non-scaling-stroke; fill: none; stroke: rgb(63, 71, 136); stroke-opacity: 1; stroke-width: 1px; opacity: 1;"/></g><g class="points"/><g class="text"/></g><g class="trace scatter trace057156" style="stroke-miterlimit: 2; opacity: 1;"><g class="fills"/><g class="errorbars"/><g class="lines"><path class="js-line" d="M0,187.88L30.91,183.89L34.34,184.13L58.38,180.55L61.82,180.84L85.86,177.32L89.29,177.78L113.33,174.3L116.77,174.62L140.81,171.2L144.24,171.65L168.28,168.33L171.72,168.62L206.06,163.88L209.49,164.31L230.1,162.25L233.54,162.05L250.71,160.38L254.14,160.21L274.75,158.33L278.18,158.21L298.79,156.35L302.22,156.24L319.39,154.75L322.83,154.62L340,153.24" style="vector-effect: non-scaling-stroke; fill: none; stroke: rgb(61, 76, 137); stroke-opacity: 1; stroke-width: 1px; opacity: 1;"/></g><g class="points"/><g class="text"/></g><g class="trace scatter trace965756" style="stroke-miterlimit: 2; opacity: 1;"><g class="fills"/><g class="errorbars"/><g class="lines"><path class="js-line" d="M0,165.58L3.43,165.43L6.87,166.05L30.91,165.02L34.34,165.73L58.38,164.78L61.82,165.52L85.86,164.66L89.29,165.57L113.33,164.77L116.77,165.53L140.81,164.8L144.24,165.74L168.28,165.08L171.72,165.72L206.06,164.89L209.49,165.81L230.1,166.12L233.54,166.32L250.71,166.63L254.14,166.87L274.75,167.38L278.18,167.64L298.79,168.16L302.22,168.46L319.39,168.94L322.83,169.21L340,169.81" style="vector-effect: non-scaling-stroke; fill: none; stroke: rgb(59, 81, 138); stroke-opacity: 1; stroke-width: 1px; opacity: 1;"/></g><g class="points"/><g class="text"/></g><g class="trace scatter tracef6a521" style="stroke-miterlimit: 2; opacity: 1;"><g class="fills"/><g class="errorbars"/><g class="lines"><path class="js-line" d="M0,27.85L3.43,30.58L6.87,30.35L30.91,49.48L34.34,48.9L58.38,68.18L61.82,67.42L85.86,86.82L89.29,85.36L113.33,104.88L116.77,103.97L140.81,123.63L144.24,122.01L168.28,141.78L171.72,142.46L206.06,170.98L209.49,168.32L216.36,174.05L219.8,174.76L223.23,177.63L226.67,179.35L230.1,182.23L233.54,183.85L236.97,186.73L240.4,188.58L243.84,191.46L247.27,192.53L250.71,195.42L254.14,196.87L257.58,199.76L261.01,201.11L267.88,206.9L271.31,207.46L274.75,210.35L278.18,211.6L285.05,217.41L288.48,218.12L291.92,221.02L295.35,222.45L298.79,225.35L302.22,226.59L305.66,229.5L309.09,230.9L312.53,233.81L315.96,235.03L319.39,237.94L322.83,239.32L326.26,242.24L329.7,243.38L333.13,246.31L336.57,247.4L340,250.32" style="vector-effect: non-scaling-stroke; fill: none; stroke: rgb(45, 114, 142); stroke-opacity: 1; stroke-width: 1px; opacity: 1;"/></g><g class="points"/><g class="text"/></g><g class="trace scatter trace57f09e" style="stroke-miterlimit: 2; opacity: 1;"><g class="fills"/><g class="errorbars"/><g class="lines"><path class="js-line" d="M0,177.17L30.91,174.81L34.34,175.23L58.38,172.94L61.82,173.42L85.86,171.21L89.29,171.84L113.33,169.71L116.77,170.21L140.81,168.14L144.24,168.8L206.06,164.32L209.49,165.14L230.1,164.29L233.54,164.29L250.71,163.62L254.14,163.67L267.88,163.02L271.31,163.25L291.92,162.61L295.35,162.66L312.53,162.17L315.96,162.28L333.13,161.85L336.57,161.99L340,161.78" style="vector-effect: non-scaling-stroke; fill: none; stroke: rgb(43, 118, 142); stroke-opacity: 1; stroke-width: 1px; opacity: 1;"/></g><g class="points"/><g class="text"/></g><g class="trace scatter trace9d2113" style="stroke-miterlimit: 2; opacity: 1;"><g class="fills"/><g class="errorbars"/><g class="lines"><path class="js-line" d="M0,200.54L54.95,190.08L58.38,189.4L65.25,188.45L68.69,187.76L113.33,179.53L116.77,179.3L164.85,170.66L168.28,170.01L182.02,167.61L185.45,166.96L206.06,163.12L209.49,163.3L236.97,158.94L240.4,158.44L267.88,154.19L271.31,153.92L298.79,149.81L302.22,149.45L326.26,145.95L329.7,145.61L340,144.13" style="vector-effect: non-scaling-stroke; fill: none; stroke: rgb(41, 122, 142); stroke-opacity: 1; stroke-width: 1px; opacity: 1;"/></g><g class="points"/><g class="text"/></g><g class="trace scatter trace62339d" style="stroke-miterlimit: 2; opacity: 1;"><g class="fills"/><g class="errorbars"/><g class="lines"><path class="js-line" d="M0,190.23L30.91,185.88L34.34,186.09L58.38,182.17L61.82,182.43L85.86,178.52L89.29,178.84L113.33,175.02L116.77,175.28L140.81,171.51L144.24,171.88L168.28,168.15L171.72,168.48L206.06,163.21L209.49,163.36L236.97,160.08L240.4,159.75L267.88,156.6L271.31,156.42L291.92,154.13L295.35,153.88L319.39,151.32L322.83,151.07L340,149.28" style="vector-effect: non-scaling-stroke; fill: none; stroke: rgb(40, 126, 142); stroke-opacity: 1; stroke-width: 1px; opacity: 1;"/></g><g class="points"/><g class="text"/></g><g class="trace scatter trace7e5892" style="stroke-miterlimit: 2; opacity: 1;"><g class="fills"/><g class="errorbars"/><g class="lines"><path class="js-line" d="M0,22.75L3.43,25.61L6.87,25.28L30.91,45.26L34.34,44.56L58.38,64.7L61.82,63.81L85.86,84.07L89.29,82.43L113.33,102.81L116.77,101.72L140.81,122.24L144.24,120.42L168.28,141.06L171.72,142.2L206.06,171.97L209.49,168.54L216.36,174.53L219.8,175.13L223.23,178.13L226.67,179.89L230.1,182.9L233.54,184.55L236.97,187.56L240.4,189.46L243.84,192.47L247.27,193.5L250.71,196.52L254.14,197.99L257.58,201.01L261.01,202.36L267.88,208.41L271.31,208.86L274.75,211.88L278.18,213.14L285.05,219.21L288.48,219.85L291.92,222.88L295.35,224.34L298.79,227.37L302.22,228.6L305.66,231.64L309.09,233.06L312.53,236.1L315.96,237.31L319.39,240.35L322.83,241.75L326.26,244.8L329.7,245.93L333.13,248.98L336.57,250.05L340,253.1" style="vector-effect: non-scaling-stroke; fill: none; stroke: rgb(38, 130, 142); stroke-opacity: 1; stroke-width: 1px; opacity: 1;"/></g><g class="points"/><g class="text"/></g><g class="trace scatter trace53ea67" style="stroke-miterlimit: 2; opacity: 1;"><g class="fills"/><g class="errorbars"/><g class="lines"><path class="js-line" d="M0,199.77L58.38,188.96L61.82,188.68L103.03,181.01L106.46,180.36L164.85,170.07L168.28,169.45L175.15,168.83L178.59,168.16L223.23,160.1L226.67,159.56L281.62,150.53L285.05,149.94L340,141.35" style="vector-effect: non-scaling-stroke; fill: none; stroke: rgb(37, 135, 141); stroke-opacity: 1; stroke-width: 1px; opacity: 1;"/></g><g class="points"/><g class="text"/></g><g class="trace scatter trace3163e1" style="stroke-miterlimit: 2; opacity: 1;"><g class="fills"/><g class="errorbars"/><g class="lines"><path class="js-line" d="M0,160.08L30.91,160.32L34.34,161.02L58.38,160.79L61.82,161.57L85.86,161.42L89.29,162.36L113.33,162.31L116.77,163.11L140.81,163.15L144.24,164.09L206.06,164.84L209.49,166.17L230.1,167.17L233.54,167.48L250.71,168.35L254.14,168.69L267.88,169.28L271.31,169.83L291.92,171.03L295.35,171.38L312.53,172.42L315.96,172.82L333.13,173.93L336.57,174.37L340,174.48" style="vector-effect: non-scaling-stroke; fill: none; stroke: rgb(36, 140, 140); stroke-opacity: 1; stroke-width: 1px; opacity: 1;"/></g><g class="points"/><g class="text"/></g><g class="trace scatter tracebf1f29" style="stroke-miterlimit: 2; opacity: 1;"><g class="fills"/><g class="errorbars"/><g class="lines"><path class="js-line" d="M0,208.16L44.65,197.91L48.08,197.16L113.33,182.55L116.77,181.53L188.89,166.41L192.32,165.69L206.06,162.91L209.49,161.25L243.84,153.79L247.27,152.91L285.05,144.81L288.48,143.9L326.26,135.93L329.7,135.11L340,132.98" style="vector-effect: non-scaling-stroke; fill: none; stroke: rgb(34, 144, 140); stroke-opacity: 1; stroke-width: 1px; opacity: 1;"/></g><g class="points"/><g class="text"/></g><g class="trace scatter tracea4b444" style="stroke-miterlimit: 2; opacity: 1;"><g class="fills"/><g class="errorbars"/><g class="lines"><path class="js-line" d="M0,194.79L30.91,189.75L34.34,189.77L58.38,185.42L61.82,185.47L85.86,181.15L89.29,181.23L113.33,177.02L116.77,177.03L140.81,172.88L144.24,173.05L168.28,168.89L171.72,169.11L206.06,163.23L209.49,163.14L243.84,158.29L247.27,157.95L274.75,154.23L278.18,153.92L305.66,150.29L309.09,149.96L333.13,146.89L336.57,146.6L340,146.07" style="vector-effect: non-scaling-stroke; fill: none; stroke: rgb(33, 148, 139); stroke-opacity: 1; stroke-width: 1px; opacity: 1;"/></g><g class="points"/><g class="text"/></g><g class="trace scatter trace23bd47" style="stroke-miterlimit: 2; opacity: 1;"><g class="fills"/><g class="errorbars"/><g class="lines"><path class="js-line" d="M0,185.42L3.43,184.94L6.87,185.36L30.91,181.76L34.34,182.21L58.38,178.69L61.82,179.22L85.86,175.67L89.29,176.31L113.33,172.8L116.77,173.38L140.81,169.93L144.24,170.63L168.28,167.22L171.72,167.61L206.06,162.85L209.49,163.39L230.1,161.37L233.54,161.15L250.71,159.53L254.14,159.35L274.75,157.48L278.18,157.38L298.79,155.51L302.22,155.37L319.39,153.88L322.83,153.74L340,152.32" style="vector-effect: non-scaling-stroke; fill: none; stroke: rgb(32, 153, 138); stroke-opacity: 1; stroke-width: 1px; opacity: 1;"/></g><g class="points"/><g class="text"/></g><g class="trace scatter trace699b4e" style="stroke-miterlimit: 2; opacity: 1;"><g class="fills"/><g class="errorbars"/><g class="lines"><path class="js-line" d="M0,200.03L113.33,179.21L116.77,178.85L168.28,169.49L171.72,169.53L223.23,160.02L226.67,159.46L305.66,146.38L309.09,145.87L340,140.94" style="vector-effect: non-scaling-stroke; fill: none; stroke: rgb(31, 158, 137); stroke-opacity: 1; stroke-width: 1px; opacity: 1;"/></g><g class="points"/><g class="text"/></g><g class="trace scatter trace0c197b" style="stroke-miterlimit: 2; opacity: 1;"><g class="fills"/><g class="errorbars"/><g class="lines"><path class="js-line" d="M0,160.95L3.43,160.88L6.87,161.6L30.91,161.12L34.34,161.93L58.38,161.52L61.82,162.38L85.86,162.04L89.29,163.08L113.33,162.81L116.77,163.67L140.81,163.49L144.24,164.53L168.28,164.41L171.72,165.16L206.06,165.09L209.49,166.1L230.1,166.89L233.54,167.17L250.71,167.88L254.14,168.19L271.31,169.13L274.75,169.18L288.48,170.08L291.92,170.13L309.09,171.28L312.53,171.33L329.7,172.57L333.13,172.63L340,173.1" style="vector-effect: non-scaling-stroke; fill: none; stroke: rgb(34, 162, 135); stroke-opacity: 1; stroke-width: 1px; opacity: 1;"/></g><g class="points"/><g class="text"/></g><g class="trace scatter traceac7dea" style="stroke-miterlimit: 2; opacity: 1;"><g class="fills"/><g class="errorbars"/><g class="lines"><path class="js-line" d="M0,185.06L30.91,181.5L34.34,181.82L58.38,178.56L61.82,178.93L85.86,175.72L89.29,176.25L113.33,173.09L116.77,173.48L140.81,170.39L144.24,170.96L168.28,167.9L171.72,168.28L206.06,163.98L209.49,164.48L230.1,162.7L233.54,162.55L250.71,161.11L254.14,161L274.75,159.41L278.18,159.33L298.79,157.76L302.22,157.7L319.39,156.44L322.83,156.36L340,155.21" style="vector-effect: non-scaling-stroke; fill: none; stroke: rgb(38, 166, 132); stroke-opacity: 1; stroke-width: 1px; opacity: 1;"/></g><g class="points"/><g class="text"/></g><g class="trace scatter tracedc36d4" style="stroke-miterlimit: 2; opacity: 1;"><g class="fills"/><g class="errorbars"/><g class="lines"><path class="js-line" d="M0,162.25L3.43,162.15L6.87,162.89L30.91,162.21L34.34,163.04L58.38,162.43L61.82,163.31L85.86,162.78L89.29,163.86L113.33,163.38L116.77,164.28L140.81,163.88L144.24,164.95L168.28,164.63L171.72,165.37L206.06,165.01L209.49,166.07L230.1,166.74L233.54,167L250.71,167.6L254.14,167.91L267.88,168.27L271.31,168.75L285.05,169.15L288.48,169.61L305.66,170.36L309.09,170.69L326.26,171.48L329.7,171.87L340,172.34" style="vector-effect: non-scaling-stroke; fill: none; stroke: rgb(41, 170, 130); stroke-opacity: 1; stroke-width: 1px; opacity: 1;"/></g><g class="points"/><g class="text"/></g><g class="trace scatter tracec11742" style="stroke-miterlimit: 2; opacity: 1;"><g class="fills"/><g class="errorbars"/><g class="lines"><path class="js-line" d="M0,154.97L30.91,156L34.34,156.55L85.86,158.1L89.29,158.76L113.33,159.3L116.77,160.16L168.28,162.04L171.72,159.86L206.06,160.86L209.49,164.23L223.23,165.3L226.67,165.53L250.71,166.97L254.14,167.25L267.88,167.93L271.31,168.67L298.79,170.32L302.22,170.71L326.26,172.15L329.7,172.54L340,173.19" style="vector-effect: non-scaling-stroke; fill: none; stroke: rgb(45, 174, 127); stroke-opacity: 1; stroke-width: 1px; opacity: 1;"/></g><g class="points"/><g class="text"/></g><g class="trace scatter tracedbef5a" style="stroke-miterlimit: 2; opacity: 1;"><g class="fills"/><g class="errorbars"/><g class="lines"><path class="js-line" d="M0,180.41L30.91,177.53L34.34,177.89L58.38,175.2L61.82,175.65L85.86,173.01L89.29,173.63L113.33,171.08L116.77,171.54L140.81,169.06L144.24,169.7L188.89,165.78L192.32,165.45L206.06,164.15L209.49,164.97L230.1,163.8L233.54,163.76L250.71,162.82L254.14,162.81L267.88,161.95L271.31,162.14L285.05,161.3L288.48,161.46L305.66,160.7L309.09,160.71L326.26,159.99L329.7,160.07L340,159.64" style="vector-effect: non-scaling-stroke; fill: none; stroke: rgb(96, 200, 96); stroke-opacity: 1; stroke-width: 1px; opacity: 1;"/></g><g class="points"/><g class="text"/></g><g class="trace scatter trace4648da" style="stroke-miterlimit: 2; opacity: 1;"><g class="fills"/><g class="errorbars"/><g class="lines"><path class="js-line" d="M0,200.36L58.38,189.26L61.82,188.94L113.33,179.42L116.77,179.14L168.28,169.94L171.72,169.43L206.06,163.08L209.49,163.24L243.84,157.79L247.27,157.41L274.75,153.29L278.18,152.86L305.66,148.84L309.09,148.43L333.13,145.02L336.57,144.68L340,144.11" style="vector-effect: non-scaling-stroke; fill: none; stroke: rgb(105, 204, 91); stroke-opacity: 1; stroke-width: 1px; opacity: 1;"/></g><g class="points"/><g class="text"/></g><g class="trace scatter trace8dd071" style="stroke-miterlimit: 2; opacity: 1;"><g class="fills"/><g class="errorbars"/><g class="lines"><path class="js-line" d="M0,186.61L3.43,186.1L6.87,186.47L30.91,182.78L34.34,183.23L58.38,179.58L61.82,180.01L85.86,176.44L89.29,177.04L113.33,173.48L116.77,173.99L140.81,170.49L144.24,171.13L168.28,167.68L171.72,168.11L206.06,163.24L209.49,163.73L230.1,161.65L233.54,161.43L250.71,159.76L254.14,159.59L274.75,157.67L278.18,157.56L298.79,155.66L302.22,155.53L319.39,154.01L322.83,153.87L340,152.43" style="vector-effect: non-scaling-stroke; fill: none; stroke: rgb(115, 207, 85); stroke-opacity: 1; stroke-width: 1px; opacity: 1;"/></g><g class="points"/><g class="text"/></g><g class="trace scatter trace6b1c18" style="stroke-miterlimit: 2; opacity: 1;"><g class="fills"/><g class="errorbars"/><g class="lines"><path class="js-line" d="M0,26.22L3.43,28.97L6.87,28.88L30.91,48.12L34.34,47.69L58.38,67.09L61.82,66.49L85.86,86L89.29,84.73L113.33,104.38L116.77,103.61L140.81,123.37L144.24,121.94L168.28,141.83L171.72,143.03L206.06,171.73L209.49,168.84L216.36,174.62L219.8,175.35L223.23,178.24L226.67,180.02L230.1,182.92L233.54,184.6L236.97,187.5L240.4,189.4L243.84,192.3L247.27,193.43L250.71,196.33L254.14,197.85L257.58,200.76L261.01,202.17L267.88,208L271.31,208.59L274.75,211.51L278.18,212.84L285.05,218.69L288.48,219.45L291.92,222.38L295.35,223.88L298.79,226.81L302.22,228.1L305.66,231.03L309.09,232.5L312.53,235.43L315.96,236.71L319.39,239.65L322.83,241.09L326.26,244.03L329.7,245.24L333.13,248.18L336.57,249.34L340,252.28" style="vector-effect: non-scaling-stroke; fill: none; stroke: rgb(126, 210, 78); stroke-opacity: 1; stroke-width: 1px; opacity: 1;"/></g><g class="points"/><g class="text"/></g><g class="trace scatter trace9c32f8" style="stroke-miterlimit: 2; opacity: 1;"><g class="fills"/><g class="errorbars"/><g class="lines"><path class="js-line" d="M0,198.01L30.91,192.51L34.34,192.3L75.56,184.88L78.99,184.24L113.33,178.34L116.77,178.17L151.11,172.32L154.55,171.69L168.28,169.21L171.72,169.32L216.36,161.45L219.8,160.96L267.88,153.39L271.31,152.93L319.39,145.71L322.83,145.26L340,142.72" style="vector-effect: non-scaling-stroke; fill: none; stroke: rgb(138, 212, 70); stroke-opacity: 1; stroke-width: 1px; opacity: 1;"/></g><g class="points"/><g class="text"/></g><g class="trace scatter trace3aa749" style="stroke-miterlimit: 2; opacity: 1;"><g class="fills"/><g class="errorbars"/><g class="lines"><path class="js-line" d="M0,162.24L30.91,162.18L34.34,162.81L58.38,162.36L61.82,163.06L85.86,162.69L89.29,163.54L113.33,163.27L116.77,163.96L140.81,163.79L144.24,164.62L206.06,164.92L209.49,165.98L230.1,166.72L233.54,166.98L250.71,167.63L254.14,167.92L271.31,168.81L274.75,168.85L295.35,170.04L298.79,170.09L315.96,171.21L319.39,171.27L340,172.54" style="vector-effect: non-scaling-stroke; fill: none; stroke: rgb(149, 215, 63); stroke-opacity: 1; stroke-width: 1px; opacity: 1;"/></g><g class="points"/><g class="text"/></g><g class="trace scatter tracef278c0" style="stroke-miterlimit: 2; opacity: 1;"><g class="fills"/><g class="errorbars"/><g class="lines"><path class="js-line" d="M0,207.01L89.29,187.24L92.73,186.48L168.28,170.31L171.72,170.13L281.62,146.5L285.05,145.84L309.09,140.85L312.53,140.2L340,134.65" style="vector-effect: non-scaling-stroke; fill: none; stroke: rgb(161, 217, 56); stroke-opacity: 1; stroke-width: 1px; opacity: 1;"/></g><g class="points"/><g class="text"/></g><g class="trace scatter trace29aed0" style="stroke-miterlimit: 2; opacity: 1;"><g class="fills"/><g class="errorbars"/><g class="lines"><path class="js-line" d="M0,194.44L30.91,189.49L34.34,189.41L65.25,184.5L68.69,183.89L113.33,176.84L116.77,176.83L140.81,172.72L144.24,172.77L168.28,168.74L171.72,168.93L209.49,162.95L212.93,162.41L267.88,154.82L271.31,154.46L312.53,149.05L315.96,148.7L340,145.61" style="vector-effect: non-scaling-stroke; fill: none; stroke: rgb(172, 220, 49); stroke-opacity: 1; stroke-width: 1px; opacity: 1;"/></g><g class="points"/><g class="text"/></g><g class="trace scatter trace1f1dda" style="stroke-miterlimit: 2; opacity: 1;"><g class="fills"/><g class="errorbars"/><g class="lines"><path class="js-line" d="M0,185.83L3.43,185.32L6.87,185.81L30.91,182.09L34.34,182.64L58.38,178.96L61.82,179.5L85.86,175.89L89.29,176.56L113.33,172.98L116.77,173.57L140.81,170.06L144.24,170.86L168.28,167.31L171.72,167.72L206.06,162.8L209.49,163.43L230.1,161.39L233.54,161.17L250.71,159.53L254.14,159.36L274.75,157.47L278.18,157.38L298.79,155.48L302.22,155.35L319.39,153.85L322.83,153.71L340,152.28" style="vector-effect: non-scaling-stroke; fill: none; stroke: rgb(184, 222, 43); stroke-opacity: 1; stroke-width: 1px; opacity: 1;"/></g><g class="points"/><g class="text"/></g><g class="trace scatter trace878e4c" style="stroke-miterlimit: 2; opacity: 1;"><g class="fills"/><g class="errorbars"/><g class="lines"><path class="js-line" d="M0,199L85.86,183.57L89.29,183.34L140.81,174.02L144.24,173.78L168.28,169.36L171.72,169.44L223.23,160.24L226.67,159.71L288.48,149.83L291.92,149.26L340,141.93" style="vector-effect: non-scaling-stroke; fill: none; stroke: rgb(195, 224, 42); stroke-opacity: 1; stroke-width: 1px; opacity: 1;"/></g><g class="points"/><g class="text"/></g><g class="trace scatter trace68932a" style="stroke-miterlimit: 2; opacity: 1;"><g class="fills"/><g class="errorbars"/><g class="lines"><path class="js-line" d="M0,163.4L3.43,163.29L6.87,163.96L30.91,163.19L34.34,163.96L58.38,163.25L61.82,164.08L85.86,163.44L89.29,164.4L113.33,163.86L116.77,164.68L140.81,164.19L144.24,165.16L168.28,164.76L171.72,165.46L206.06,164.98L209.49,165.93L230.1,166.47L233.54,166.71L250.71,167.2L254.14,167.47L267.88,167.76L271.31,168.19L291.92,168.93L295.35,169.22L312.53,169.88L315.96,170.21L333.13,170.92L336.57,171.28L340,171.3" style="vector-effect: non-scaling-stroke; fill: none; stroke: rgb(207, 225, 41); stroke-opacity: 1; stroke-width: 1px; opacity: 1;"/></g><g class="points"/><g class="text"/></g><g class="trace scatter trace8f75ff" style="stroke-miterlimit: 2; opacity: 1;"><g class="fills"/><g class="errorbars"/><g class="lines"><path class="js-line" d="M0,185.08L30.91,181.53L34.34,181.86L58.38,178.58L61.82,178.97L85.86,175.74L89.29,176.26L113.33,173.12L116.77,173.53L140.81,170.41L144.24,170.97L168.28,167.94L171.72,168.29L206.06,163.99L209.49,164.52L230.1,162.75L233.54,162.61L250.71,161.18L254.14,161.07L274.75,159.49L278.18,159.42L298.79,157.85L302.22,157.81L319.39,156.56L322.83,156.48L340,155.34" style="vector-effect: non-scaling-stroke; fill: none; stroke: rgb(218, 227, 40); stroke-opacity: 1; stroke-width: 1px; opacity: 1;"/></g><g class="points"/><g class="text"/></g><g class="trace scatter trace8b6534" style="stroke-miterlimit: 2; opacity: 1;"><g class="fills"/><g class="errorbars"/><g class="lines"><path class="js-line" d="M0,165.67L3.43,165.52L6.87,166.18L30.91,165.1L34.34,165.87L58.38,164.84L61.82,165.68L85.86,164.71L89.29,165.72L113.33,164.84L116.77,165.66L140.81,164.86L144.24,165.9L168.28,165.14L171.72,165.81L206.06,164.86L209.49,165.89L230.1,166.2L233.54,166.42L250.71,166.73L254.14,166.98L267.88,167.11L271.31,167.54L285.05,167.7L288.48,168.11L305.66,168.58L309.09,168.85L326.26,169.36L329.7,169.7L340,170" style="vector-effect: non-scaling-stroke; fill: none; stroke: rgb(230, 228, 39); stroke-opacity: 1; stroke-width: 1px; opacity: 1;"/></g><g class="points"/><g class="text"/></g><g class="trace scatter tracec28407" style="stroke-miterlimit: 2; opacity: 1;"><g class="fills"/><g class="errorbars"/><g class="lines"><path class="js-line" d="M0,155.94L30.91,156.81L34.34,157.38L85.86,158.65L89.29,159.33L113.33,159.72L116.77,160.59L168.28,162.19L171.72,159.98L206.06,160.76L209.49,164.18L223.23,165.19L226.67,165.4L250.71,166.72L254.14,166.99L267.88,167.59L271.31,168.33L298.79,169.84L302.22,170.22L326.26,171.55L329.7,171.93L340,172.52" style="vector-effect: non-scaling-stroke; fill: none; stroke: rgb(241, 230, 38); stroke-opacity: 1; stroke-width: 1px; opacity: 1;"/></g><g class="points"/><g class="text"/></g><g class="trace scatter tracebf34c7" style="stroke-miterlimit: 2; opacity: 1;"><g class="fills"/><g class="errorbars"/><g class="lines"><path class="js-line" d="M0,205.3L168.28,170.13L171.72,170L264.44,150.86L267.88,150.22L295.35,144.78L298.79,144.14L340,136.27" style="vector-effect: non-scaling-stroke; fill: none; stroke: rgb(253, 231, 37); stroke-opacity: 1; stroke-width: 1px; opacity: 1;"/></g><g class="points"/><g class="text"/></g></g></g><g class="overplot"/><path class="xlines-above crisp" d="M0,0" style="fill: none;"/><path class="ylines-above crisp" d="M0,0" style="fill: none;"/><g class="overlines-above"/><g class="xaxislayer-above"/><g class="yaxislayer-above"><g class="y2tick"><text text-anchor="end" x="79" y="4.199999999999999" transform="translate(0,700.2)" style="font-family: 'Open Sans', verdana, arial, sans-serif; font-size: 12px; fill: rgb(42, 63, 95); fill-opacity: 1; white-space: pre; opacity: 1;">−5</text></g><g class="y2tick"><text text-anchor="end" x="79" y="4.199999999999999" style="font-family: 'Open Sans', verdana, arial, sans-serif; font-size: 12px; fill: rgb(42, 63, 95); fill-opacity: 1; white-space: pre; opacity: 1;" transform="translate(0,638.45)">0</text></g><g class="y2tick"><text text-anchor="end" x="79" y="4.199999999999999" style="font-family: 'Open Sans', verdana, arial, sans-serif; font-size: 12px; fill: rgb(42, 63, 95); fill-opacity: 1; white-space: pre; opacity: 1;" transform="translate(0,576.7)">5</text></g><g class="y2tick"><text text-anchor="end" x="79" y="4.199999999999999" style="font-family: 'Open Sans', verdana, arial, sans-serif; font-size: 12px; fill: rgb(42, 63, 95); fill-opacity: 1; white-space: pre; opacity: 1;" transform="translate(0,514.95)">10</text></g></g><g class="overaxes-above"/></g><g class="subplot x3y3"><g class="layer-subplot"><g class="shapelayer"/><g class="imagelayer"/></g><g class="minor-gridlayer"><g class="x3"/><g class="y3"/></g><g class="gridlayer"><g class="x3"><path class="x3grid crisp" transform="translate(148,0)" d="M0,848.0000000000001v272" style="stroke: rgb(235, 240, 248); stroke-opacity: 1; stroke-width: 1px;"/><path class="x3grid crisp" transform="translate(216,0)" d="M0,848.0000000000001v272" style="stroke: rgb(235, 240, 248); stroke-opacity: 1; stroke-width: 1px;"/><path class="x3grid crisp" transform="translate(284,0)" d="M0,848.0000000000001v272" style="stroke: rgb(235, 240, 248); stroke-opacity: 1; stroke-width: 1px;"/><path class="x3grid crisp" transform="translate(352,0)" d="M0,848.0000000000001v272" style="stroke: rgb(235, 240, 248); stroke-opacity: 1; stroke-width: 1px;"/></g><g class="y3"><path class="y3grid crisp" transform="translate(0,1064.68)" d="M80,0h340" style="stroke: rgb(235, 240, 248); stroke-opacity: 1; stroke-width: 1px;"/><path class="y3grid crisp" transform="translate(0,1003.0700000000002)" d="M80,0h340" style="stroke: rgb(235, 240, 248); stroke-opacity: 1; stroke-width: 1px;"/><path class="y3grid crisp" transform="translate(0,879.8400000000001)" d="M80,0h340" style="stroke: rgb(235, 240, 248); stroke-opacity: 1; stroke-width: 1px;"/></g></g><g class="zerolinelayer"><path class="y3zl zl crisp" transform="translate(0,941.4500000000002)" d="M80,0h340" style="stroke: rgb(235, 240, 248); stroke-opacity: 1; stroke-width: 2px;"/></g><path class="xlines-below"/><path class="ylines-below"/><g class="overlines-below"/><g class="xaxislayer-below"/><g class="yaxislayer-below"/><g class="overaxes-below"/><g class="plot" transform="translate(80,848.0000000000001)" clip-path="url(#clipfbb6c6x3y3plot)"><g class="scatterlayer mlayer"><g class="trace scatter trace888a76" style="stroke-miterlimit: 2; opacity: 1;"><g class="fills"/><g class="errorbars"/><g class="lines"><path class="js-line" d="M0,199.78L3.43,199.78L6.87,185.47L30.91,185.47L34.34,166.17L58.38,166.17L61.82,155.63L85.86,155.63L89.29,137.32L113.33,137.32L116.77,127.45L140.81,127.45L144.24,117.04L168.28,117.04L171.72,93.45L206.06,93.45L209.49,95.47L216.36,95.47L219.8,90.06L223.23,90.06L226.67,86.97L230.1,86.97L233.54,83.46L236.97,83.46L240.4,79.38L243.84,79.38L247.27,76.33L250.71,76.33L254.14,73.49L257.58,73.49L261.01,69.23L267.88,69.23L271.31,66.11L274.75,66.11L278.18,62.05L285.05,62.05L288.48,59.42L291.92,59.42L295.35,53.71L298.79,53.71L302.22,50.51L305.66,50.51L309.09,46.77L312.53,46.77L315.96,43.18L319.39,43.18L322.83,39.8L326.26,39.8L329.7,36.31L333.13,36.31L336.57,33.23L340,33.23" style="vector-effect: non-scaling-stroke; fill: none; stroke: rgb(68, 1, 84); stroke-opacity: 1; stroke-width: 1px; opacity: 1;"/></g><g class="points"/><g class="text"/></g><g class="trace scatter trace84d87f" style="stroke-miterlimit: 2; opacity: 1;"><g class="fills"/><g class="errorbars"/><g class="lines"><path class="js-line" d="M0,190.19L3.43,190.19L6.87,174.59L30.91,174.59L34.34,162.92L58.38,162.92L61.82,148.14L85.86,148.14L89.29,137.06L113.33,137.06L116.77,122.8L140.81,122.8L144.24,110.14L168.28,110.14L171.72,93.45L206.06,93.45L209.49,88.13L216.36,88.13L219.8,85.6L223.23,85.6L226.67,82.09L230.1,82.09L233.54,79.07L236.97,79.07L240.4,75.86L243.84,75.86L247.27,72.36L250.71,72.36L254.14,67.94L257.58,67.94L261.01,65.69L267.88,65.69L271.31,61.44L274.75,61.44L278.18,57.8L285.05,57.8L288.48,53.38L291.92,53.38L295.35,50.03L298.79,50.03L302.22,47.12L305.66,47.12L309.09,43.65L312.53,43.65L315.96,40.14L319.39,40.14L322.83,36.72L326.26,36.72L329.7,33.35L333.13,33.35L336.57,30.68L340,30.68" style="vector-effect: non-scaling-stroke; fill: none; stroke: rgb(69, 7, 90); stroke-opacity: 1; stroke-width: 1px; opacity: 1;"/></g><g class="points"/><g class="text"/></g><g class="trace scatter trace52416d" style="stroke-miterlimit: 2; opacity: 1;"><g class="fills"/><g class="errorbars"/><g class="lines"><path class="js-line" d="M0,203.86L3.43,203.86L6.87,188.16L30.91,188.16L34.34,174.12L58.38,174.12L61.82,159.07L85.86,159.07L89.29,144.78L113.33,144.78L116.77,129.32L140.81,129.32L144.24,116.78L168.28,116.78L171.72,93.45L206.06,93.45L209.49,91.61L216.36,91.61L219.8,87.28L223.23,87.28L226.67,83.8L230.1,83.8L233.54,79.52L236.97,79.52L240.4,76.09L243.84,76.09L247.27,72.39L250.71,72.39L254.14,68.88L257.58,68.88L261.01,64.57L267.88,64.57L271.31,60.12L274.75,60.12L278.18,56.02L285.05,56.02L288.48,51.37L291.92,51.37L295.35,46.93L298.79,46.93L302.22,43.46L305.66,43.46L309.09,39.72L312.53,39.72L315.96,35.87L319.39,35.87L322.83,31.96L326.26,31.96L329.7,28.38L333.13,28.38L336.57,24.76L340,24.76" style="vector-effect: non-scaling-stroke; fill: none; stroke: rgb(69, 14, 96); stroke-opacity: 1; stroke-width: 1px; opacity: 1;"/></g><g class="points"/><g class="text"/></g><g class="trace scatter tracea10794" style="stroke-miterlimit: 2; opacity: 1;"><g class="fills"/><g class="errorbars"/><g class="lines"><path class="js-line" d="M0,244.12L3.43,244.12L6.87,223.95L30.91,223.95L34.34,207.75L58.38,207.75L61.82,189.36L85.86,189.36L89.29,173.89L113.33,173.89L116.77,148.64L140.81,148.64L144.24,131.18L168.28,131.18L171.72,93.45L206.06,93.45L209.49,97.51L216.36,97.51L219.8,96.56L223.23,96.56L226.67,92.6L230.1,92.6L233.54,87.77L236.97,87.77L240.4,81.3L243.84,81.3L247.27,77.35L250.71,77.35L254.14,73.64L257.58,73.64L261.01,68.38L267.88,68.38L271.31,65.66L274.75,65.66L278.18,59.38L285.05,59.38L288.48,53.15L291.92,53.15L295.35,48.28L298.79,48.28L302.22,43.37L305.66,43.37L309.09,38.18L312.53,38.18L315.96,33.91L319.39,33.91L322.83,28.46L326.26,28.46L329.7,25.01L333.13,25.01L336.57,19.73L340,19.73" style="vector-effect: non-scaling-stroke; fill: none; stroke: rgb(70, 20, 101); stroke-opacity: 1; stroke-width: 1px; opacity: 1;"/></g><g class="points"/><g class="text"/></g><g class="trace scatter trace9f6649" style="stroke-miterlimit: 2; opacity: 1;"><g class="fills"/><g class="errorbars"/><g class="lines"><path class="js-line" d="M0,155.51L3.43,155.51L6.87,147.49L30.91,147.49L34.34,139.15L58.38,139.15L61.82,129.23L85.86,129.23L89.29,121.23L113.33,121.23L116.77,112.93L140.81,112.93L144.24,104.74L168.28,104.74L171.72,93.45L206.06,93.45L209.49,90.7L216.36,90.7L219.8,87.37L223.23,87.37L226.67,85.22L230.1,85.22L233.54,83.21L236.97,83.21L240.4,81.05L243.84,81.05L247.27,78.68L250.71,78.68L254.14,76.56L257.58,76.56L261.01,74.46L267.88,74.46L271.31,70.82L274.75,70.82L278.18,69.04L285.05,69.04L288.48,65.6L291.92,65.6L295.35,63.74L298.79,63.74L302.22,61.69L305.66,61.69L309.09,59.39L312.53,59.39L315.96,57.36L319.39,57.36L322.83,54.97L326.26,54.97L329.7,52.74L333.13,52.74L336.57,50.46L340,50.46" style="vector-effect: non-scaling-stroke; fill: none; stroke: rgb(71, 26, 107); stroke-opacity: 1; stroke-width: 1px; opacity: 1;"/></g><g class="points"/><g class="text"/></g><g class="trace scatter trace9c438f" style="stroke-miterlimit: 2; opacity: 1;"><g class="fills"/><g class="errorbars"/><g class="lines"><path class="js-line" d="M0,184.59L3.43,184.59L6.87,169.39L30.91,169.39L34.34,158.19L58.38,158.19L61.82,145.99L85.86,145.99L89.29,132.94L113.33,132.94L116.77,121.39L140.81,121.39L144.24,109.11L168.28,109.11L171.72,93.45L206.06,93.45L209.49,89.23L216.36,89.23L219.8,85.47L223.23,85.47L226.67,82.27L230.1,82.27L233.54,79.11L236.97,79.11L240.4,75.89L243.84,75.89L247.27,72.62L250.71,72.62L254.14,69.92L257.58,69.92L261.01,66.66L267.88,66.66L271.31,63L274.75,63L278.18,58.86L285.05,58.86L288.48,54.58L291.92,54.58L295.35,51.49L298.79,51.49L302.22,48.71L305.66,48.71L309.09,45.08L312.53,45.08L315.96,41.81L319.39,41.81L322.83,38.89L326.26,38.89L329.7,35.67L333.13,35.67L336.57,32.54L340,32.54" style="vector-effect: non-scaling-stroke; fill: none; stroke: rgb(71, 32, 113); stroke-opacity: 1; stroke-width: 1px; opacity: 1;"/></g><g class="points"/><g class="text"/></g><g class="trace scatter trace639e9b" style="stroke-miterlimit: 2; opacity: 1;"><g class="fills"/><g class="errorbars"/><g class="lines"><path class="js-line" d="M0,162.94L3.43,162.94L6.87,152.73L30.91,152.73L34.34,143.66L58.38,143.66L61.82,134.4L85.86,134.4L89.29,124.6L113.33,124.6L116.77,114.4L140.81,114.4L144.24,105.64L168.28,105.64L171.72,93.45L206.06,93.45L209.49,90.18L216.36,90.18L219.8,87.17L223.23,87.17L226.67,84.62L230.1,84.62L233.54,82.24L236.97,82.24L240.4,79.79L243.84,79.79L247.27,77.33L250.71,77.33L254.14,74.95L257.58,74.95L261.01,72.62L267.88,72.62L271.31,68.98L274.75,68.98L278.18,66.47L285.05,66.47L288.48,62.96L291.92,62.96L295.35,60.53L298.79,60.53L302.22,58.13L305.66,58.13L309.09,55.65L312.53,55.65L315.96,53.15L319.39,53.15L322.83,50.86L326.26,50.86L329.7,48.42L333.13,48.42L336.57,45.85L340,45.85" style="vector-effect: non-scaling-stroke; fill: none; stroke: rgb(72, 39, 119); stroke-opacity: 1; stroke-width: 1px; opacity: 1;"/></g><g class="points"/><g class="text"/></g><g class="trace scatter trace93c7d9" style="stroke-miterlimit: 2; opacity: 1;"><g class="fills"/><g class="errorbars"/><g class="lines"><path class="js-line" d="M0,200.64L3.43,200.64L6.87,185.35L30.91,185.35L34.34,172.75L58.38,172.75L61.82,156.09L85.86,156.09L89.29,142.9L113.33,142.9L116.77,129.91L140.81,129.91L144.24,114.15L168.28,114.15L171.72,93.45L216.36,92.77L219.8,88.01L223.23,88.01L226.67,84.75L230.1,84.75L233.54,81.01L236.97,81.01L240.4,77.33L243.84,77.33L247.27,73.64L250.71,73.64L254.14,70L257.58,70L261.01,66.51L267.88,66.51L271.31,62.45L274.75,62.45L278.18,58.77L285.05,58.77L288.48,53.72L291.92,53.72L295.35,49.39L298.79,49.39L302.22,46L305.66,46L309.09,42.73L312.53,42.73L315.96,38.75L319.39,38.75L322.83,36.17L326.26,36.17L329.7,31.74L333.13,31.74L336.57,28.18L340,28.18" style="vector-effect: non-scaling-stroke; fill: none; stroke: rgb(71, 44, 122); stroke-opacity: 1; stroke-width: 1px; opacity: 1;"/></g><g class="points"/><g class="text"/></g><g class="trace scatter traceca29c9" style="stroke-miterlimit: 2; opacity: 1;"><g class="fills"/><g class="errorbars"/><g class="lines"><path class="js-line" d="M0,164.89L3.43,164.89L6.87,154.37L30.91,154.37L34.34,145.43L58.38,145.43L61.82,135.31L85.86,135.31L89.29,125.61L113.33,125.61L116.77,115.94L140.81,115.94L144.24,105.88L168.28,105.88L171.72,93.45L206.06,93.45L209.49,90.7L216.36,90.7L219.8,86.97L223.23,86.97L226.67,84.35L230.1,84.35L233.54,82.17L236.97,82.17L240.4,79.39L243.84,79.39L247.27,76.89L250.71,76.89L254.14,74.58L257.58,74.58L261.01,72.12L267.88,72.12L271.31,68.22L274.75,68.22L278.18,65.67L285.05,65.67L288.48,61.94L291.92,61.94L295.35,59.65L298.79,59.65L302.22,57.16L305.66,57.16L309.09,54.59L312.53,54.59L315.96,52.06L319.39,52.06L322.83,49.54L326.26,49.54L329.7,47.11L333.13,47.11L336.57,44.35L340,44.35" style="vector-effect: non-scaling-stroke; fill: none; stroke: rgb(69, 49, 125); stroke-opacity: 1; stroke-width: 1px; opacity: 1;"/></g><g class="points"/><g class="text"/></g><g class="trace scatter trace9864cd" style="stroke-miterlimit: 2; opacity: 1;"><g class="fills"/><g class="errorbars"/><g class="lines"><path class="js-line" d="M0,160.09L3.43,160.09L6.87,150.44L30.91,150.44L34.34,141.41L58.38,141.41L61.82,132.34L85.86,132.34L89.29,122.92L113.33,122.92L116.77,113.84L140.81,113.84L144.24,104.14L168.28,104.14L171.72,93.45L206.06,93.45L209.49,90.21L216.36,90.21L219.8,87.24L223.23,87.24L226.67,84.81L230.1,84.81L233.54,82.59L236.97,82.59L240.4,80.31L243.84,80.31L247.27,77.85L250.71,77.85L254.14,75.54L257.58,75.54L261.01,73.32L267.88,73.32L271.31,69.75L274.75,69.75L278.18,67.45L285.05,67.45L288.48,64.28L291.92,64.28L295.35,61.78L298.79,61.78L302.22,59.58L305.66,59.58L309.09,57.03L312.53,57.03L315.96,54.67L319.39,54.67L322.83,52.42L326.26,52.42L329.7,49.92L333.13,49.92L336.57,47.7L340,47.7" style="vector-effect: non-scaling-stroke; fill: none; stroke: rgb(68, 55, 128); stroke-opacity: 1; stroke-width: 1px; opacity: 1;"/></g><g class="points"/><g class="text"/></g><g class="trace scatter traceb68c2c" style="stroke-miterlimit: 2; opacity: 1;"><g class="fills"/><g class="errorbars"/><g class="lines"><path class="js-line" d="M0,146.98L3.43,146.98L6.87,139.71L30.91,139.71L34.34,132.5L58.38,132.5L61.82,125.32L85.86,125.32L89.29,117.1L113.33,117.1L116.77,110.18L140.81,110.18L144.24,102.21L168.28,102.21L171.72,93.45L206.06,93.45L209.49,90.9L216.36,90.9L219.8,88.14L223.23,88.14L226.67,86.2L230.1,86.2L233.54,84.28L236.97,84.28L240.4,82.58L243.84,82.58L247.27,80.57L250.71,80.57L254.14,78.55L257.58,78.55L261.01,76.91L267.88,76.91L271.31,74.01L274.75,74.01L278.18,72.26L285.05,72.26L288.48,69.15L291.92,69.15L295.35,67.39L298.79,67.39L302.22,65.8L305.66,65.8L309.09,63.76L312.53,63.76L315.96,61.67L319.39,61.67L322.83,59.9L326.26,59.9L329.7,57.96L333.13,57.96L336.57,56.04L340,56.04" style="vector-effect: non-scaling-stroke; fill: none; stroke: rgb(66, 60, 130); stroke-opacity: 1; stroke-width: 1px; opacity: 1;"/></g><g class="points"/><g class="text"/></g><g class="trace scatter trace6a5c9f" style="stroke-miterlimit: 2; opacity: 1;"><g class="fills"/><g class="errorbars"/><g class="lines"><path class="js-line" d="M0,163.18L3.43,163.18L6.87,153.41L30.91,153.41L34.34,144.13L58.38,144.13L61.82,134.47L85.86,134.47L89.29,124.46L113.33,124.46L116.77,114.78L140.81,114.78L144.24,104.96L168.28,104.96L171.72,93.45L206.06,93.45L209.49,90.35L216.36,90.35L219.8,87.1L223.23,87.1L226.67,84.62L230.1,84.62L233.54,82.24L236.97,82.24L240.4,79.73L243.84,79.73L247.27,77.28L250.71,77.28L254.14,74.91L257.58,74.91L261.01,72.66L267.88,72.66L271.31,68.9L274.75,68.9L278.18,66.38L285.05,66.38L288.48,63.55L291.92,63.55L295.35,60.47L298.79,60.47L302.22,58.19L305.66,58.19L309.09,55.53L312.53,55.53L315.96,52.9L319.39,52.9L322.83,50.74L326.26,50.74L329.7,48.23L333.13,48.23L336.57,45.55L340,45.55" style="vector-effect: non-scaling-stroke; fill: none; stroke: rgb(64, 65, 133); stroke-opacity: 1; stroke-width: 1px; opacity: 1;"/></g><g class="points"/><g class="text"/></g><g class="trace scatter trace7a7c27" style="stroke-miterlimit: 2; opacity: 1;"><g class="fills"/><g class="errorbars"/><g class="lines"><path class="js-line" d="M0,186.62L3.43,186.62L6.87,173.6L30.91,173.6L34.34,161.59L58.38,161.59L61.82,148.31L85.86,148.31L89.29,135.46L113.33,135.46L116.77,122.75L140.81,122.75L144.24,108.4L168.28,108.4L171.72,93.45L206.06,93.45L209.49,90.57L216.36,90.57L219.8,86.48L223.23,86.48L226.67,83.15L230.1,83.15L233.54,80.14L236.97,80.14L240.4,76.76L243.84,76.76L247.27,73.73L250.71,73.73L254.14,70.71L257.58,70.71L261.01,67.67L267.88,67.67L271.31,63.22L274.75,63.22L278.18,59.74L285.05,59.74L288.48,54.92L291.92,54.92L295.35,52.05L298.79,52.05L302.22,49.21L305.66,49.21L309.09,45.55L312.53,45.55L315.96,42.47L319.39,42.47L322.83,39.28L326.26,39.28L329.7,36.06L333.13,36.06L336.57,32.97L340,32.97" style="vector-effect: non-scaling-stroke; fill: none; stroke: rgb(63, 71, 136); stroke-opacity: 1; stroke-width: 1px; opacity: 1;"/></g><g class="points"/><g class="text"/></g><g class="trace scatter tracef70a6f" style="stroke-miterlimit: 2; opacity: 1;"><g class="fills"/><g class="errorbars"/><g class="lines"><path class="js-line" d="M0,190.11L3.43,190.11L6.87,175.51L30.91,175.51L34.34,162.45L58.38,162.45L61.82,150.01L85.86,150.01L89.29,135.78L113.33,135.78L116.77,122.95L140.81,122.95L144.24,112.2L168.28,112.2L171.72,93.45L206.06,93.45L209.49,90.87L216.36,90.87L219.8,86.09L223.23,86.09L226.67,82.92L230.1,82.92L233.54,79.86L236.97,79.86L240.4,76.34L243.84,76.34L247.27,73.29L250.71,73.29L254.14,70.21L257.58,70.21L261.01,67.13L267.88,67.13L271.31,61.91L274.75,61.91L278.18,59L285.05,59L288.48,54.09L291.92,54.09L295.35,51.16L298.79,51.16L302.22,48.13L305.66,48.13L309.09,44.59L312.53,44.59L315.96,41.26L319.39,41.26L322.83,38.02L326.26,38.02L329.7,34.71L333.13,34.71L336.57,31.41L340,31.41" style="vector-effect: non-scaling-stroke; fill: none; stroke: rgb(61, 76, 137); stroke-opacity: 1; stroke-width: 1px; opacity: 1;"/></g><g class="points"/><g class="text"/></g><g class="trace scatter tracedea4c3" style="stroke-miterlimit: 2; opacity: 1;"><g class="fills"/><g class="errorbars"/><g class="lines"><path class="js-line" d="M0,184.67L3.43,184.67L6.87,173.07L30.91,173.07L34.34,160.18L58.38,160.18L61.82,148.49L85.86,148.49L89.29,135.46L113.33,135.46L116.77,122.25L140.81,122.25L144.24,109.21L168.28,109.21L171.72,93.45L206.06,93.45L209.49,90.8L216.36,90.8L219.8,86.29L223.23,86.29L226.67,83.28L230.1,83.28L233.54,80.26L236.97,80.26L240.4,77.02L243.84,77.02L247.27,73.84L250.71,73.84L254.14,70.92L257.58,70.92L261.01,67.36L267.88,67.36L271.31,63.59L274.75,63.59L278.18,59.75L285.05,59.75L288.48,55.07L291.92,55.07L295.35,52.58L298.79,52.58L302.22,49.59L305.66,49.59L309.09,45.99L312.53,45.99L315.96,42.71L319.39,42.71L322.83,39.74L326.26,39.74L329.7,36.45L333.13,36.45L336.57,33.39L340,33.39" style="vector-effect: non-scaling-stroke; fill: none; stroke: rgb(59, 81, 138); stroke-opacity: 1; stroke-width: 1px; opacity: 1;"/></g><g class="points"/><g class="text"/></g><g class="trace scatter trace458b88" style="stroke-miterlimit: 2; opacity: 1;"><g class="fills"/><g class="errorbars"/><g class="lines"><path class="js-line" d="M0,185.06L3.43,185.06L6.87,172.4L30.91,172.4L34.34,161.55L58.38,161.55L61.82,146.66L85.86,146.66L89.29,135.3L113.33,135.3L116.77,123.78L140.81,123.78L144.24,111.2L168.28,111.2L171.72,93.45L206.06,93.45L209.49,88.33L216.36,88.33L219.8,85.6L223.23,85.6L226.67,80.31L230.1,80.31L233.54,79.32L236.97,79.32L240.4,75.97L243.84,75.97L247.27,72.69L250.71,72.69L254.14,69.9L257.58,69.9L261.01,66.17L267.88,66.17L271.31,61.84L274.75,61.84L278.18,58.15L285.05,58.15L288.48,53.92L291.92,53.92L295.35,50.6L298.79,50.6L302.22,47.69L305.66,47.69L309.09,44.04L312.53,44.04L315.96,40.81L319.39,40.81L322.83,37.21L326.26,37.21L329.7,34.22L333.13,34.22L336.57,30.63L340,30.63" style="vector-effect: non-scaling-stroke; fill: none; stroke: rgb(45, 114, 142); stroke-opacity: 1; stroke-width: 1px; opacity: 1;"/></g><g class="points"/><g class="text"/></g><g class="trace scatter trace92b22a" style="stroke-miterlimit: 2; opacity: 1;"><g class="fills"/><g class="errorbars"/><g class="lines"><path class="js-line" d="M0,206.36L3.43,206.36L6.87,189.55L30.91,189.55L34.34,176.32L58.38,176.32L61.82,160.82L85.86,160.82L89.29,146.74L113.33,146.74L116.77,130.46L140.81,130.46L144.24,115.66L168.28,115.66L171.72,93.45L206.06,93.45L209.49,91.74L216.36,91.74L219.8,87.55L223.23,87.55L226.67,83.78L230.1,83.78L233.54,79.88L236.97,79.88L240.4,76.06L243.84,76.06L247.27,72.36L250.71,72.36L254.14,68.73L257.58,68.73L261.01,64.66L267.88,64.66L271.31,60.01L274.75,60.01L278.18,55.79L285.05,55.79L288.48,50.81L291.92,50.81L295.35,46.9L298.79,46.9L302.22,43.24L305.66,43.24L309.09,39.39L312.53,39.39L315.96,35.46L319.39,35.46L322.83,32.29L326.26,32.29L329.7,27.79L333.13,27.79L336.57,24.15L340,24.15" style="vector-effect: non-scaling-stroke; fill: none; stroke: rgb(43, 118, 142); stroke-opacity: 1; stroke-width: 1px; opacity: 1;"/></g><g class="points"/><g class="text"/></g><g class="trace scatter trace34a0f4" style="stroke-miterlimit: 2; opacity: 1;"><g class="fills"/><g class="errorbars"/><g class="lines"><path class="js-line" d="M0,251.71L3.43,251.71L6.87,230.14L30.91,230.14L34.34,210.32L58.38,210.32L61.82,186.29L85.86,186.29L89.29,171.04L113.33,171.04L116.77,149.04L140.81,149.04L144.24,131.95L168.28,131.95L171.72,93.45L206.06,93.45L209.49,96.35L216.36,96.35L219.8,93.82L223.23,93.82L226.67,89.05L230.1,89.05L233.54,84.16L236.97,84.16L240.4,78.48L243.84,78.48L247.27,74.37L250.71,74.37L254.14,70.92L257.58,70.92L261.01,65.4L267.88,65.4L271.31,59.69L274.75,59.69L278.18,54.46L285.05,54.46L288.48,49.02L291.92,49.02L295.35,43.57L298.79,43.57L302.22,38.98L305.66,38.98L309.09,33.13L312.53,33.13L315.96,28.48L319.39,28.48L322.83,23.26L326.26,23.26L329.7,18.25L333.13,18.25L336.57,13.6L340,13.6" style="vector-effect: non-scaling-stroke; fill: none; stroke: rgb(41, 122, 142); stroke-opacity: 1; stroke-width: 1px; opacity: 1;"/></g><g class="points"/><g class="text"/></g><g class="trace scatter trace01fa26" style="stroke-miterlimit: 2; opacity: 1;"><g class="fills"/><g class="errorbars"/><g class="lines"><path class="js-line" d="M0,156.87L3.43,156.87L6.87,148.39L30.91,148.39L34.34,139.48L58.38,139.48L61.82,130.1L85.86,130.1L89.29,121.88L113.33,121.88L116.77,113.09L140.81,113.09L144.24,104.4L168.28,104.4L171.72,93.45L206.06,93.45L209.49,90.41L216.36,90.41L219.8,87.52L223.23,87.52L226.67,85.29L230.1,85.29L233.54,83.1L236.97,83.1L240.4,80.75L243.84,80.75L247.27,78.46L250.71,78.46L254.14,76.25L257.58,76.25L261.01,74.18L267.88,74.18L271.31,70.61L274.75,70.61L278.18,68.48L285.05,68.48L288.48,65.24L291.92,65.24L295.35,62.98L298.79,62.98L302.22,60.92L305.66,60.92L309.09,58.1L312.53,58.1L315.96,56.2L319.39,56.2L322.83,53.93L326.26,53.93L329.7,51.87L333.13,51.87L336.57,49.57L340,49.57" style="vector-effect: non-scaling-stroke; fill: none; stroke: rgb(40, 126, 142); stroke-opacity: 1; stroke-width: 1px; opacity: 1;"/></g><g class="points"/><g class="text"/></g><g class="trace scatter trace37a492" style="stroke-miterlimit: 2; opacity: 1;"><g class="fills"/><g class="errorbars"/><g class="lines"><path class="js-line" d="M0,184.58L3.43,184.58L6.87,170.38L30.91,170.38L34.34,159.38L58.38,159.38L61.82,145.18L85.86,145.18L89.29,133.69L113.33,133.69L116.77,121.59L140.81,121.59L144.24,109.49L168.28,109.49L171.72,93.45L206.06,93.45L209.49,89.75L216.36,89.75L219.8,85.54L223.23,85.54L226.67,82.33L230.1,82.33L233.54,79.1L236.97,79.1L240.4,75.74L243.84,75.74L247.27,72.81L250.71,72.81L254.14,69.88L257.58,69.88L261.01,66.94L267.88,66.94L271.31,61.48L274.75,61.48L278.18,58.55L285.05,58.55L288.48,54.59L291.92,54.59L295.35,51.31L298.79,51.31L302.22,48.55L305.66,48.55L309.09,44.91L312.53,44.91L315.96,41.56L319.39,41.56L322.83,38.48L326.26,38.48L329.7,35.2L333.13,35.2L336.57,32.29L340,32.29" style="vector-effect: non-scaling-stroke; fill: none; stroke: rgb(38, 130, 142); stroke-opacity: 1; stroke-width: 1px; opacity: 1;"/></g><g class="points"/><g class="text"/></g><g class="trace scatter trace7f4dce" style="stroke-miterlimit: 2; opacity: 1;"><g class="fills"/><g class="errorbars"/><g class="lines"><path class="js-line" d="M0,161.68L3.43,161.68L6.87,151.75L30.91,151.75L34.34,142.99L58.38,142.99L61.82,133.07L85.86,133.07L89.29,124.29L113.33,124.29L116.77,114.51L140.81,114.51L144.24,105.47L168.28,105.47L171.72,93.45L206.06,93.45L209.49,90.47L216.36,90.47L219.8,87.21L223.23,87.21L226.67,84.74L230.1,84.74L233.54,82.51L236.97,82.51L240.4,80.03L243.84,80.03L247.27,77.57L250.71,77.57L254.14,75.1L257.58,75.1L261.01,72.9L267.88,72.9L271.31,69.34L274.75,69.34L278.18,66.8L285.05,66.8L288.48,63.27L291.92,63.27L295.35,60.98L298.79,60.98L302.22,58.51L305.66,58.51L309.09,56.14L312.53,56.14L315.96,53.76L319.39,53.76L322.83,51.51L326.26,51.51L329.7,49.03L333.13,49.03L336.57,46.55L340,46.55" style="vector-effect: non-scaling-stroke; fill: none; stroke: rgb(37, 135, 141); stroke-opacity: 1; stroke-width: 1px; opacity: 1;"/></g><g class="points"/><g class="text"/></g><g class="trace scatter trace2af5b4" style="stroke-miterlimit: 2; opacity: 1;"><g class="fills"/><g class="errorbars"/><g class="lines"><path class="js-line" d="M0,200.98L3.43,200.98L6.87,184.09L30.91,184.09L34.34,172.82L58.38,172.82L61.82,156.36L85.86,156.36L89.29,142.76L113.33,142.76L116.77,127.55L140.81,127.55L144.24,113.13L168.28,113.13L171.72,93.45L216.36,93.09L219.8,88.69L223.23,88.69L226.67,85.24L230.1,85.24L233.54,81.42L236.97,81.42L240.4,77.65L243.84,77.65L247.27,74.26L250.71,74.26L254.14,71.32L257.58,71.32L261.01,67.13L267.88,67.13L271.31,62.92L274.75,62.92L278.18,58.84L285.05,58.84L288.48,54.43L291.92,54.43L295.35,50.65L298.79,50.65L302.22,47.94L305.66,47.94L309.09,43.64L312.53,43.64L315.96,39.99L319.39,39.99L322.83,36.15L326.26,36.15L329.7,32.82L333.13,32.82L336.57,29.49L340,29.49" style="vector-effect: non-scaling-stroke; fill: none; stroke: rgb(36, 140, 140); stroke-opacity: 1; stroke-width: 1px; opacity: 1;"/></g><g class="points"/><g class="text"/></g><g class="trace scatter trace843b2c" style="stroke-miterlimit: 2; opacity: 1;"><g class="fills"/><g class="errorbars"/><g class="lines"><path class="js-line" d="M0,163.19L3.43,163.19L6.87,153.83L30.91,153.83L34.34,144.22L58.38,144.22L61.82,134.49L85.86,134.49L89.29,124.63L113.33,124.63L116.77,115.36L140.81,115.36L144.24,105.47L168.28,105.47L171.72,93.45L206.06,93.45L209.49,90.5L216.36,90.5L219.8,87.1L223.23,87.1L226.67,84.54L230.1,84.54L233.54,82.17L236.97,82.17L240.4,79.64L243.84,79.64L247.27,77.23L250.71,77.23L254.14,74.84L257.58,74.84L261.01,72.55L267.88,72.55L271.31,68.65L274.75,68.65L278.18,66.2L285.05,66.2L288.48,62.82L291.92,62.82L295.35,60.25L298.79,60.25L302.22,57.9L305.66,57.9L309.09,55.31L312.53,55.31L315.96,52.7L319.39,52.7L322.83,50.44L326.26,50.44L329.7,47.81L333.13,47.81L336.57,45.31L340,45.31" style="vector-effect: non-scaling-stroke; fill: none; stroke: rgb(34, 144, 140); stroke-opacity: 1; stroke-width: 1px; opacity: 1;"/></g><g class="points"/><g class="text"/></g><g class="trace scatter tracea58b79" style="stroke-miterlimit: 2; opacity: 1;"><g class="fills"/><g class="errorbars"/><g class="lines"><path class="js-line" d="M0,162.44L3.43,162.44L6.87,152.55L30.91,152.55L34.34,143.19L58.38,143.19L61.82,133.33L85.86,133.33L89.29,125.23L113.33,125.23L116.77,115.95L140.81,115.95L144.24,105.24L168.28,105.24L171.72,93.45L206.06,93.45L209.49,90.25L216.36,90.25L219.8,87.17L223.23,87.17L226.67,84.57L230.1,84.57L233.54,82.21L236.97,82.21L240.4,79.84L243.84,79.84L247.27,77.3L250.71,77.3L254.14,75.03L257.58,75.03L261.01,72.73L267.88,72.73L271.31,69.09L274.75,69.09L278.18,66.68L285.05,66.68L288.48,62.93L291.92,62.93L295.35,60.72L298.79,60.72L302.22,58.38L305.66,58.38L309.09,55.94L312.53,55.94L315.96,53.48L319.39,53.48L322.83,51.21L326.26,51.21L329.7,48.77L333.13,48.77L336.57,46.1L340,46.1" style="vector-effect: non-scaling-stroke; fill: none; stroke: rgb(33, 148, 139); stroke-opacity: 1; stroke-width: 1px; opacity: 1;"/></g><g class="points"/><g class="text"/></g><g class="trace scatter trace0530ed" style="stroke-miterlimit: 2; opacity: 1;"><g class="fills"/><g class="errorbars"/><g class="lines"><path class="js-line" d="M0,148.23L3.43,148.23L6.87,140.41L30.91,140.41L34.34,133.2L58.38,133.2L61.82,124.77L85.86,124.77L89.29,117.11L113.33,117.11L116.77,109.82L140.81,109.82L144.24,102.13L168.28,102.13L171.72,93.45L206.06,93.45L209.49,90.91L216.36,90.91L219.8,88.03L223.23,88.03L226.67,86.18L230.1,86.18L233.54,84.3L236.97,84.3L240.4,82.49L243.84,82.49L247.27,80.46L250.71,80.46L254.14,78.49L257.58,78.49L261.01,76.76L267.88,76.76L271.31,73.85L274.75,73.85L278.18,72.03L285.05,72.03L288.48,68.99L291.92,68.99L295.35,67.17L298.79,67.17L302.22,65.5L305.66,65.5L309.09,63.42L312.53,63.42L315.96,61.44L319.39,61.44L322.83,59.69L326.26,59.69L329.7,57.72L333.13,57.72L336.57,55.82L340,55.82" style="vector-effect: non-scaling-stroke; fill: none; stroke: rgb(32, 153, 138); stroke-opacity: 1; stroke-width: 1px; opacity: 1;"/></g><g class="points"/><g class="text"/></g><g class="trace scatter trace62b8c6" style="stroke-miterlimit: 2; opacity: 1;"><g class="fills"/><g class="errorbars"/><g class="lines"><path class="js-line" d="M0,165.26L3.43,165.26L6.87,155.3L30.91,155.3L34.34,144.98L58.38,144.98L61.82,135.4L85.86,135.4L89.29,125.37L113.33,125.37L116.77,115.5L140.81,115.5L144.24,105.67L168.28,105.67L171.72,93.45L206.06,93.45L209.49,90.57L216.36,90.57L219.8,87L223.23,87L226.67,84.37L230.1,84.37L233.54,82.06L236.97,82.06L240.4,79.42L243.84,79.42L247.27,76.97L250.71,76.97L254.14,74.63L257.58,74.63L261.01,72.23L267.88,72.23L271.31,68.26L274.75,68.26L278.18,65.83L285.05,65.83L288.48,62.07L291.92,62.07L295.35,59.74L298.79,59.74L302.22,57.34L305.66,57.34L309.09,54.81L312.53,54.81L315.96,52.33L319.39,52.33L322.83,49.93L326.26,49.93L329.7,47.39L333.13,47.39L336.57,44.66L340,44.66" style="vector-effect: non-scaling-stroke; fill: none; stroke: rgb(31, 158, 137); stroke-opacity: 1; stroke-width: 1px; opacity: 1;"/></g><g class="points"/><g class="text"/></g><g class="trace scatter traceba9760" style="stroke-miterlimit: 2; opacity: 1;"><g class="fills"/><g class="errorbars"/><g class="lines"><path class="js-line" d="M0,182.91L3.43,182.91L6.87,172.69L30.91,172.69L34.34,160.02L58.38,160.02L61.82,147.22L85.86,147.22L89.29,134.66L113.33,134.66L116.77,122.67L140.81,122.67L144.24,109.37L168.28,109.37L171.72,93.45L206.06,93.45L209.49,89.18L216.36,89.18L219.8,86.47L223.23,86.47L226.67,83.61L230.1,83.61L233.54,80.29L236.97,80.29L240.4,77.09L243.84,77.09L247.27,74L250.71,74L254.14,71.07L257.58,71.07L261.01,67.53L267.88,67.53L271.31,63.82L274.75,63.82L278.18,60.46L285.05,60.46L288.48,55.75L291.92,55.75L295.35,52.52L298.79,52.52L302.22,49.8L305.66,49.8L309.09,46.27L312.53,46.27L315.96,43.08L319.39,43.08L322.83,40.09L326.26,40.09L329.7,36.88L333.13,36.88L336.57,33.96L340,33.96" style="vector-effect: non-scaling-stroke; fill: none; stroke: rgb(34, 162, 135); stroke-opacity: 1; stroke-width: 1px; opacity: 1;"/></g><g class="points"/><g class="text"/></g><g class="trace scatter traceb7b868" style="stroke-miterlimit: 2; opacity: 1;"><g class="fills"/><g class="errorbars"/><g class="lines"><path class="js-line" d="M0,183.45L3.43,183.45L6.87,172.99L30.91,172.99L34.34,160.62L58.38,160.62L61.82,147.93L85.86,147.93L89.29,134.94L113.33,134.94L116.77,122.8L140.81,122.8L144.24,109.51L168.28,109.51L171.72,93.45L206.06,93.45L209.49,90.24L216.36,90.24L219.8,86.35L223.23,86.35L226.67,83.51L230.1,83.51L233.54,80.16L236.97,80.16L240.4,76.91L243.84,76.91L247.27,73.68L250.71,73.68L254.14,70.74L257.58,70.74L261.01,67.24L267.88,67.24L271.31,63.37L274.75,63.37L278.18,60.37L285.05,60.37L288.48,55.38L291.92,55.38L295.35,52.5L298.79,52.5L302.22,49.55L305.66,49.55L309.09,45.77L312.53,45.77L315.96,42.66L319.39,42.66L322.83,39.45L326.26,39.45L329.7,36.18L333.13,36.18L336.57,33.21L340,33.21" style="vector-effect: non-scaling-stroke; fill: none; stroke: rgb(38, 166, 132); stroke-opacity: 1; stroke-width: 1px; opacity: 1;"/></g><g class="points"/><g class="text"/></g><g class="trace scatter trace6b1d8e" style="stroke-miterlimit: 2; opacity: 1;"><g class="fills"/><g class="errorbars"/><g class="lines"><path class="js-line" d="M0,183L3.43,183L6.87,172.4L30.91,172.4L34.34,159.68L58.38,159.68L61.82,147.5L85.86,147.5L89.29,133.65L113.33,133.65L116.77,121.57L140.81,121.57L144.24,109.24L168.28,109.24L171.72,93.45L206.06,93.45L209.49,90.29L216.36,90.29L219.8,86.37L223.23,86.37L226.67,83.67L230.1,83.67L233.54,80.34L236.97,80.34L240.4,76.99L243.84,76.99L247.27,73.9L250.71,73.9L254.14,70.92L257.58,70.92L261.01,67.41L267.88,67.41L271.31,62.95L274.75,62.95L278.18,59.86L285.05,59.86L288.48,56.04L291.92,56.04L295.35,52.51L298.79,52.51L302.22,49.7L305.66,49.7L309.09,46.3L312.53,46.3L315.96,42.95L319.39,42.95L322.83,39.79L326.26,39.79L329.7,36.73L333.13,36.73L336.57,33.73L340,33.73" style="vector-effect: non-scaling-stroke; fill: none; stroke: rgb(41, 170, 130); stroke-opacity: 1; stroke-width: 1px; opacity: 1;"/></g><g class="points"/><g class="text"/></g><g class="trace scatter trace422d5f" style="stroke-miterlimit: 2; opacity: 1;"><g class="fills"/><g class="errorbars"/><g class="lines"><path class="js-line" d="M0,57.09L3.43,57.09L6.87,65.93L30.91,65.93L34.34,70.33L58.38,70.33L61.82,79.49L85.86,79.49L89.29,82.05L113.33,82.05L116.77,93.67L140.81,93.67L144.24,102.53L168.28,102.53L171.72,93.45L206.06,93.45L209.49,98.2L216.36,98.2L219.8,111.95L230.1,112.38L233.54,113.25L236.97,113.25L240.4,114.57L243.84,114.57L247.27,113.69L250.71,113.69L254.14,117.68L267.88,117.01L271.31,124.35L285.05,123.71L288.48,130.56L291.92,130.56L295.35,126.66L298.79,126.66L302.22,127.49L305.66,127.49L309.09,128.83L319.39,129.25L322.83,127.49L326.26,127.49L329.7,130.87L340,130.24" style="vector-effect: non-scaling-stroke; fill: none; stroke: rgb(45, 174, 127); stroke-opacity: 1; stroke-width: 1px; opacity: 1;"/></g><g class="points"/><g class="text"/></g><g class="trace scatter traceb24be7" style="stroke-miterlimit: 2; opacity: 1;"><g class="fills"/><g class="errorbars"/><g class="lines"><path class="js-line" d="M0,206.7L3.43,206.7L6.87,188.86L30.91,188.86L34.34,176.25L58.38,176.25L61.82,159.85L85.86,159.85L89.29,144.87L113.33,144.87L116.77,130.22L140.81,130.22L144.24,114.47L168.28,114.47L171.72,93.45L206.06,93.45L209.49,92.13L216.36,92.13L219.8,87.55L223.23,87.55L226.67,83.9L230.1,83.9L233.54,80.09L236.97,80.09L240.4,76.29L243.84,76.29L247.27,72.44L250.71,72.44L254.14,69.08L257.58,69.08L261.01,64.95L267.88,64.95L271.31,60.57L274.75,60.57L278.18,55.92L285.05,55.92L288.48,51.23L291.92,51.23L295.35,47.18L298.79,47.18L302.22,43.68L305.66,43.68L309.09,39.97L312.53,39.97L315.96,35.93L319.39,35.93L322.83,32.04L326.26,32.04L329.7,28.52L333.13,28.52L336.57,24.78L340,24.78" style="vector-effect: non-scaling-stroke; fill: none; stroke: rgb(96, 200, 96); stroke-opacity: 1; stroke-width: 1px; opacity: 1;"/></g><g class="points"/><g class="text"/></g><g class="trace scatter traceb6da50" style="stroke-miterlimit: 2; opacity: 1;"><g class="fills"/><g class="errorbars"/><g class="lines"><path class="js-line" d="M0,258.4L3.43,258.4L6.87,238.67L30.91,238.67L34.34,218.41L58.38,218.41L61.82,195.91L85.86,195.91L89.29,172.13L113.33,172.13L116.77,156.32L140.81,156.32L144.24,136.68L168.28,136.68L171.72,93.45L206.06,93.45L209.49,99.38L216.36,99.38L219.8,97.76L223.23,97.76L226.67,91.55L230.1,91.55L233.54,86.9L236.97,86.9L240.4,82.13L243.84,82.13L247.27,76.75L250.71,76.75L254.14,70.94L257.58,70.94L261.01,66.47L267.88,66.47L271.31,63.42L274.75,63.42L278.18,56.49L285.05,56.49L288.48,52.56L291.92,52.56L295.35,45.39L298.79,45.39L302.22,39.42L305.66,39.42L309.09,34.69L312.53,34.69L315.96,29.9L319.39,29.9L322.83,24.4L326.26,24.4L329.7,19.87L333.13,19.87L336.57,14.77L340,14.77" style="vector-effect: non-scaling-stroke; fill: none; stroke: rgb(105, 204, 91); stroke-opacity: 1; stroke-width: 1px; opacity: 1;"/></g><g class="points"/><g class="text"/></g><g class="trace scatter trace41809e" style="stroke-miterlimit: 2; opacity: 1;"><g class="fills"/><g class="errorbars"/><g class="lines"><path class="js-line" d="M0,155.01L3.43,155.01L6.87,146.63L30.91,146.63L34.34,137.86L58.38,137.86L61.82,129.94L85.86,129.94L89.29,120.67L113.33,120.67L116.77,112.3L140.81,112.3L144.24,103.79L168.28,103.79L171.72,93.45L206.06,93.45L209.49,90.56L216.36,90.56L219.8,87.43L223.23,87.43L226.67,85.34L230.1,85.34L233.54,83.07L236.97,83.07L240.4,81.1L243.84,81.1L247.27,78.91L250.71,78.91L254.14,76.71L257.58,76.71L261.01,74.7L267.88,74.7L271.31,71.32L274.75,71.32L278.18,69.34L285.05,69.34L288.48,65.86L291.92,65.86L295.35,64L298.79,64L302.22,62.04L305.66,62.04L309.09,59.81L312.53,59.81L315.96,57.41L319.39,57.41L322.83,55.45L326.26,55.45L329.7,53.24L333.13,53.24L336.57,51.01L340,51.01" style="vector-effect: non-scaling-stroke; fill: none; stroke: rgb(115, 207, 85); stroke-opacity: 1; stroke-width: 1px; opacity: 1;"/></g><g class="points"/><g class="text"/></g><g class="trace scatter trace29a31c" style="stroke-miterlimit: 2; opacity: 1;"><g class="fills"/><g class="errorbars"/><g class="lines"><path class="js-line" d="M0,184.37L3.43,184.37L6.87,169.99L30.91,169.99L34.34,159.19L58.38,159.19L61.82,145.49L85.86,145.49L89.29,134.53L113.33,134.53L116.77,120.49L140.81,120.49L144.24,108.98L168.28,108.98L171.72,93.45L206.06,93.45L209.49,89.42L216.36,89.42L219.8,85.65L223.23,85.65L226.67,82.59L230.1,82.59L233.54,79.75L236.97,79.75L240.4,75.96L243.84,75.96L247.27,73.06L250.71,73.06L254.14,69.91L257.58,69.91L261.01,66.67L267.88,66.67L271.31,61.96L274.75,61.96L278.18,59.16L285.05,59.16L288.48,54.8L291.92,54.8L295.35,51.78L298.79,51.78L302.22,48.75L305.66,48.75L309.09,45.18L312.53,45.18L315.96,42.11L319.39,42.11L322.83,38.82L326.26,38.82L329.7,35.68L333.13,35.68L336.57,32.57L340,32.57" style="vector-effect: non-scaling-stroke; fill: none; stroke: rgb(126, 210, 78); stroke-opacity: 1; stroke-width: 1px; opacity: 1;"/></g><g class="points"/><g class="text"/></g><g class="trace scatter trace4db66f" style="stroke-miterlimit: 2; opacity: 1;"><g class="fills"/><g class="errorbars"/><g class="lines"><path class="js-line" d="M0,161.42L3.43,161.42L6.87,151.87L30.91,151.87L34.34,142.55L58.38,142.55L61.82,133.15L85.86,133.15L89.29,123.8L113.33,123.8L116.77,114.26L140.81,114.26L144.24,104.77L168.28,104.77L171.72,93.45L206.06,93.45L209.49,90.36L216.36,90.36L219.8,87.19L223.23,87.19L226.67,84.67L230.1,84.67L233.54,82.44L236.97,82.44L240.4,80.13L243.84,80.13L247.27,77.53L250.71,77.53L254.14,75.1L257.58,75.1L261.01,72.9L267.88,72.9L271.31,69.43L274.75,69.43L278.18,66.94L285.05,66.94L288.48,63.37L291.92,63.37L295.35,61.15L298.79,61.15L302.22,58.82L305.66,58.82L309.09,56.36L312.53,56.36L315.96,53.84L319.39,53.84L322.83,50.9L326.26,50.9L329.7,49.2L333.13,49.2L336.57,46.78L340,46.78" style="vector-effect: non-scaling-stroke; fill: none; stroke: rgb(138, 212, 70); stroke-opacity: 1; stroke-width: 1px; opacity: 1;"/></g><g class="points"/><g class="text"/></g><g class="trace scatter tracec43f65" style="stroke-miterlimit: 2; opacity: 1;"><g class="fills"/><g class="errorbars"/><g class="lines"><path class="js-line" d="M0,196.18L3.43,196.18L6.87,183.7L30.91,183.7L34.34,169.78L58.38,169.78L61.82,154.58L85.86,154.58L89.29,141.28L113.33,141.28L116.77,128.64L140.81,128.64L144.24,115.18L168.28,115.18L171.72,93.45L206.06,93.45L209.49,90.78L216.36,90.78L219.8,87.24L223.23,87.24L226.67,84.43L230.1,84.43L233.54,79.36L236.97,79.36L240.4,76.84L243.84,76.84L247.27,73.4L250.71,73.4L254.14,70.27L257.58,70.27L261.01,66.49L267.88,66.49L271.31,63.28L274.75,63.28L278.18,58.28L285.05,58.28L288.48,53.82L291.92,53.82L295.35,50.25L298.79,50.25L302.22,46.75L305.66,46.75L309.09,43.07L312.53,43.07L315.96,39.45L319.39,39.45L322.83,35.83L326.26,35.83L329.7,32.18L333.13,32.18L336.57,29.36L340,29.36" style="vector-effect: non-scaling-stroke; fill: none; stroke: rgb(149, 215, 63); stroke-opacity: 1; stroke-width: 1px; opacity: 1;"/></g><g class="points"/><g class="text"/></g><g class="trace scatter trace36cddf" style="stroke-miterlimit: 2; opacity: 1;"><g class="fills"/><g class="errorbars"/><g class="lines"><path class="js-line" d="M0,163.74L3.43,163.74L6.87,153.37L30.91,153.37L34.34,143.81L58.38,143.81L61.82,134.28L85.86,134.28L89.29,124.92L113.33,124.92L116.77,115.25L140.81,115.25L144.24,105.23L168.28,105.23L171.72,93.45L206.06,93.45L209.49,90.8L216.36,90.8L219.8,87.09L223.23,87.09L226.67,84.34L230.1,84.34L233.54,82.18L236.97,82.18L240.4,79.66L243.84,79.66L247.27,77.26L250.71,77.26L254.14,74.84L257.58,74.84L261.01,70.89L267.88,70.89L271.31,68.99L274.75,68.99L278.18,66.2L285.05,66.2L288.48,62.79L291.92,62.79L295.35,60.22L298.79,60.22L302.22,57.89L305.66,57.89L309.09,55.27L312.53,55.27L315.96,52.77L319.39,52.77L322.83,50.46L326.26,50.46L329.7,47.96L333.13,47.96L336.57,45.35L340,45.35" style="vector-effect: non-scaling-stroke; fill: none; stroke: rgb(161, 217, 56); stroke-opacity: 1; stroke-width: 1px; opacity: 1;"/></g><g class="points"/><g class="text"/></g><g class="trace scatter traceaa46a0" style="stroke-miterlimit: 2; opacity: 1;"><g class="fills"/><g class="errorbars"/><g class="lines"><path class="js-line" d="M0,162.31L3.43,162.31L6.87,151.8L30.91,151.8L34.34,142.71L58.38,142.71L61.82,133.63L85.86,133.63L89.29,124.02L113.33,124.02L116.77,113.89L140.81,113.89L144.24,105.01L168.28,105.01L171.72,93.45L206.06,93.45L209.49,90.97L216.36,90.97L219.8,87.22L223.23,87.22L226.67,84.62L230.1,84.62L233.54,82.34L236.97,82.34L240.4,80.02L243.84,80.02L247.27,77.58L250.71,77.58L254.14,75.17L257.58,75.17L261.01,72.9L267.88,72.9L271.31,69.45L274.75,69.45L278.18,66.75L285.05,66.75L288.48,63.39L291.92,63.39L295.35,61.14L298.79,61.14L302.22,58.81L305.66,58.81L309.09,56.37L312.53,56.37L315.96,53.92L319.39,53.92L322.83,51.51L326.26,51.51L329.7,49.19L333.13,49.19L336.57,46.74L340,46.74" style="vector-effect: non-scaling-stroke; fill: none; stroke: rgb(172, 220, 49); stroke-opacity: 1; stroke-width: 1px; opacity: 1;"/></g><g class="points"/><g class="text"/></g><g class="trace scatter tracef76d17" style="stroke-miterlimit: 2; opacity: 1;"><g class="fills"/><g class="errorbars"/><g class="lines"><path class="js-line" d="M0,147.4L3.43,147.4L6.87,140.06L30.91,140.06L34.34,132.47L58.38,132.47L61.82,125.26L85.86,125.26L89.29,117.5L113.33,117.5L116.77,110.42L140.81,110.42L144.24,101.77L168.28,101.77L171.72,93.45L206.06,93.45L209.49,90.99L216.36,90.99L219.8,88.13L223.23,88.13L226.67,86.15L230.1,86.15L233.54,84.3L236.97,84.3L240.4,82.18L243.84,82.18L247.27,80.47L250.71,80.47L254.14,78.54L257.58,78.54L261.01,76.86L267.88,76.86L271.31,73.92L274.75,73.92L278.18,72.12L285.05,72.12L288.48,69.08L291.92,69.08L295.35,67.29L298.79,67.29L302.22,65.65L305.66,65.65L309.09,63.58L312.53,63.58L315.96,61.57L319.39,61.57L322.83,59.74L326.26,59.74L329.7,57.57L333.13,57.57L336.57,55.83L340,55.83" style="vector-effect: non-scaling-stroke; fill: none; stroke: rgb(184, 222, 43); stroke-opacity: 1; stroke-width: 1px; opacity: 1;"/></g><g class="points"/><g class="text"/></g><g class="trace scatter trace5d1c45" style="stroke-miterlimit: 2; opacity: 1;"><g class="fills"/><g class="errorbars"/><g class="lines"><path class="js-line" d="M0,164.65L3.43,164.65L6.87,154.3L30.91,154.3L34.34,145.33L58.38,145.33L61.82,135.06L85.86,135.06L89.29,124.38L113.33,124.38L116.77,115.67L140.81,115.67L144.24,106.55L168.28,106.55L171.72,93.45L206.06,93.45L209.49,90.55L216.36,90.55L219.8,87.03L223.23,87.03L226.67,84.28L230.1,84.28L233.54,82.1L236.97,82.1L240.4,79.52L243.84,79.52L247.27,77.11L250.71,77.11L254.14,74.71L257.58,74.71L261.01,72.43L267.88,72.43L271.31,68.58L274.75,68.58L278.18,65.98L285.05,65.98L288.48,62.42L291.92,62.42L295.35,59.97L298.79,59.97L302.22,57.62L305.66,57.62L309.09,55.04L312.53,55.04L315.96,52.43L319.39,52.43L322.83,50.08L326.26,50.08L329.7,47.56L333.13,47.56L336.57,44.95L340,44.95" style="vector-effect: non-scaling-stroke; fill: none; stroke: rgb(195, 224, 42); stroke-opacity: 1; stroke-width: 1px; opacity: 1;"/></g><g class="points"/><g class="text"/></g><g class="trace scatter trace45fd73" style="stroke-miterlimit: 2; opacity: 1;"><g class="fills"/><g class="errorbars"/><g class="lines"><path class="js-line" d="M0,185.71L3.43,185.71L6.87,173.65L30.91,173.65L34.34,159.85L58.38,159.85L61.82,146.98L85.86,146.98L89.29,135.37L113.33,135.37L116.77,121.72L140.81,121.72L144.24,110.07L168.28,110.07L171.72,93.45L206.06,93.45L209.49,90.48L216.36,90.48L219.8,86.52L223.23,86.52L226.67,83.2L230.1,83.2L233.54,80.19L236.97,80.19L240.4,76.93L243.84,76.93L247.27,73.91L250.71,73.91L254.14,70.84L257.58,70.84L261.01,67.9L267.88,67.9L271.31,63.46L274.75,63.46L278.18,59.91L285.05,59.91L288.48,55.08L291.92,55.08L295.35,52.27L298.79,52.27L302.22,49.38L305.66,49.38L309.09,45.8L312.53,45.8L315.96,42.7L319.39,42.7L322.83,39.56L326.26,39.56L329.7,36.41L333.13,36.41L336.57,32.67L340,32.67" style="vector-effect: non-scaling-stroke; fill: none; stroke: rgb(207, 225, 41); stroke-opacity: 1; stroke-width: 1px; opacity: 1;"/></g><g class="points"/><g class="text"/></g><g class="trace scatter traceaadb82" style="stroke-miterlimit: 2; opacity: 1;"><g class="fills"/><g class="errorbars"/><g class="lines"><path class="js-line" d="M0,188.28L3.43,188.28L6.87,176.34L30.91,176.34L34.34,162.2L58.38,162.2L61.82,149.13L85.86,149.13L89.29,137.7L113.33,137.7L116.77,122.73L140.81,122.73L144.24,111.38L168.28,111.38L171.72,93.45L206.06,93.45L209.49,90.65L216.36,90.65L219.8,86.48L223.23,86.48L226.67,82.93L230.1,82.93L233.54,80.13L236.97,80.13L240.4,76.39L243.84,76.39L247.27,73.23L250.71,73.23L254.14,70.48L257.58,70.48L261.01,66.73L267.88,66.73L271.31,61.81L274.75,61.81L278.18,58.86L285.05,58.86L288.48,53.88L291.92,53.88L295.35,51.07L298.79,51.07L302.22,47.93L305.66,47.93L309.09,44.81L312.53,44.81L315.96,40.88L319.39,40.88L322.83,37.77L326.26,37.77L329.7,34.43L333.13,34.43L336.57,31.11L340,31.11" style="vector-effect: non-scaling-stroke; fill: none; stroke: rgb(218, 227, 40); stroke-opacity: 1; stroke-width: 1px; opacity: 1;"/></g><g class="points"/><g class="text"/></g><g class="trace scatter tracea88455" style="stroke-miterlimit: 2; opacity: 1;"><g class="fills"/><g class="errorbars"/><g class="lines"><path class="js-line" d="M0,187.6L3.43,187.6L6.87,174.85L30.91,174.85L34.34,160.59L58.38,160.59L61.82,147.52L85.86,147.52L89.29,135.38L113.33,135.38L116.77,123.17L140.81,123.17L144.24,108.57L168.28,108.57L171.72,93.45L206.06,93.45L209.49,90.87L216.36,90.87L219.8,86.27L223.23,86.27L226.67,83.18L230.1,83.18L233.54,80.1L236.97,80.1L240.4,76.67L243.84,76.67L247.27,73.73L250.71,73.73L254.14,70.82L257.58,70.82L261.01,67.64L267.88,67.64L271.31,64.59L274.75,64.59L278.18,59.63L285.05,59.63L288.48,55.61L291.92,55.61L295.35,51.85L298.79,51.85L302.22,49.03L305.66,49.03L309.09,45.5L312.53,45.5L315.96,42.3L319.39,42.3L322.83,39.15L326.26,39.15L329.7,35.85L333.13,35.85L336.57,32.67L340,32.67" style="vector-effect: non-scaling-stroke; fill: none; stroke: rgb(230, 228, 39); stroke-opacity: 1; stroke-width: 1px; opacity: 1;"/></g><g class="points"/><g class="text"/></g><g class="trace scatter trace565f72" style="stroke-miterlimit: 2; opacity: 1;"><g class="fills"/><g class="errorbars"/><g class="lines"><path class="js-line" d="M0,50.2L3.43,50.2L6.87,61.47L30.91,61.47L34.34,69.69L58.38,69.69L61.82,78.18L85.86,78.18L89.29,83.92L113.33,83.92L116.77,98.1L140.81,98.1L144.24,101.11L168.28,101.11L171.72,93.45L206.06,93.45L209.49,102L216.36,102L219.8,113.15L243.84,113.64L247.27,117.21L250.71,117.21L254.14,118.8L257.58,118.8L261.01,121.33L267.88,121.33L271.31,125.49L285.05,125.32L288.48,132.23L291.92,132.23L295.35,129.92L305.66,130.54L309.09,131.34L319.39,132.04L322.83,132.29L326.26,132.29L329.7,133.68L333.13,133.68L336.57,135.42L340,135.42" style="vector-effect: non-scaling-stroke; fill: none; stroke: rgb(241, 230, 38); stroke-opacity: 1; stroke-width: 1px; opacity: 1;"/></g><g class="points"/><g class="text"/></g><g class="trace scatter trace666b5c" style="stroke-miterlimit: 2; opacity: 1;"><g class="fills"/><g class="errorbars"/><g class="lines"><path class="js-line" d="M0,163.17L3.43,163.17L6.87,154.44L30.91,154.44L34.34,143.68L58.38,143.68L61.82,134.4L85.86,134.4L89.29,124.86L113.33,124.86L116.77,115.52L140.81,115.52L144.24,105.17L168.28,105.17L171.72,93.45L206.06,93.45L209.49,90.72L216.36,90.72L219.8,87.04L223.23,87.04L226.67,84.46L230.1,84.46L233.54,82.13L236.97,82.13L240.4,79.55L243.84,79.55L247.27,77.07L250.71,77.07L254.14,74.76L257.58,74.76L261.01,72.47L267.88,72.47L271.31,68.54L274.75,68.54L278.18,66.05L285.05,66.05L288.48,62.56L291.92,62.56L295.35,60.06L298.79,60.06L302.22,57.7L305.66,57.7L309.09,55.16L312.53,55.16L315.96,52.49L319.39,52.49L322.83,50.05L326.26,50.05L329.7,47.66L333.13,47.66L336.57,46.48L340,46.48" style="vector-effect: non-scaling-stroke; fill: none; stroke: rgb(253, 231, 37); stroke-opacity: 1; stroke-width: 1px; opacity: 1;"/></g><g class="points"/><g class="text"/></g><g class="trace scatter traceca40f1" style="stroke-miterlimit: 2; opacity: 1;"><g class="fills"/><g class="errorbars"/><g class="lines"><path class="js-line" d="M0,189.65L3.43,189.65L6.87,178.34L30.91,178.34L34.34,166.39L58.38,166.39L61.82,155.56L85.86,155.56L89.29,144.25L113.33,144.25L116.77,133.33L140.81,133.33L144.24,120.15L168.28,120.15L171.72,93.45L206.06,93.45L209.49,99.26L216.36,99.26L219.8,98.49L223.23,98.49L226.67,95.07L230.1,95.07L233.54,93.18L236.97,93.18L240.4,89.87L243.84,89.87L247.27,87.5L250.71,87.5L254.14,84.61L257.58,84.61L261.01,81.34L267.88,81.34L271.31,79.91L274.75,79.91L278.18,74.65L285.05,74.65L288.48,72.03L291.92,72.03L295.35,68.13L298.79,68.13L302.22,66.08L305.66,66.08L309.09,61.99L312.53,61.99L315.96,58.93L319.39,58.93L322.83,55.81L326.26,55.81L329.7,53.06L333.13,53.06L336.57,49.94L340,49.94" style="vector-effect: non-scaling-stroke; fill: none; stroke: rgb(169, 169, 169); stroke-opacity: 1; stroke-width: 2px; opacity: 1;"/></g><g class="points"/><g class="text"/></g></g></g><g class="overplot"/><path class="xlines-above crisp" d="M0,0" style="fill: none;"/><path class="ylines-above crisp" d="M0,0" style="fill: none;"/><g class="overlines-above"/><g class="xaxislayer-above"><g class="x3tick"><text text-anchor="middle" x="0" y="1133" transform="translate(80,0)" style="font-family: 'Open Sans', verdana, arial, sans-serif; font-size: 12px; fill: rgb(42, 63, 95); fill-opacity: 1; white-space: pre; opacity: 1;">2.66</text></g><g class="x3tick"><text text-anchor="middle" x="0" y="1133" style="font-family: 'Open Sans', verdana, arial, sans-serif; font-size: 12px; fill: rgb(42, 63, 95); fill-opacity: 1; white-space: pre; opacity: 1;" transform="translate(148,0)">2.68</text></g><g class="x3tick"><text text-anchor="middle" x="0" y="1133" style="font-family: 'Open Sans', verdana, arial, sans-serif; font-size: 12px; fill: rgb(42, 63, 95); fill-opacity: 1; white-space: pre; opacity: 1;" transform="translate(216,0)">2.7</text></g><g class="x3tick"><text text-anchor="middle" x="0" y="1133" style="font-family: 'Open Sans', verdana, arial, sans-serif; font-size: 12px; fill: rgb(42, 63, 95); fill-opacity: 1; white-space: pre; opacity: 1;" transform="translate(284,0)">2.72</text></g><g class="x3tick"><text text-anchor="middle" x="0" y="1133" style="font-family: 'Open Sans', verdana, arial, sans-serif; font-size: 12px; fill: rgb(42, 63, 95); fill-opacity: 1; white-space: pre; opacity: 1;" transform="translate(352,0)">2.74</text></g><g class="x3tick"><text text-anchor="middle" x="0" y="1133" style="font-family: 'Open Sans', verdana, arial, sans-serif; font-size: 12px; fill: rgb(42, 63, 95); fill-opacity: 1; white-space: pre; opacity: 1;" transform="translate(420,0)">2.76</text></g></g><g class="yaxislayer-above"><g class="y3tick"><text text-anchor="end" x="79" y="4.199999999999999" transform="translate(0,1064.68)" style="font-family: 'Open Sans', verdana, arial, sans-serif; font-size: 12px; fill: rgb(42, 63, 95); fill-opacity: 1; white-space: pre; opacity: 1;">−0.2</text></g><g class="y3tick"><text text-anchor="end" x="79" y="4.199999999999999" style="font-family: 'Open Sans', verdana, arial, sans-serif; font-size: 12px; fill: rgb(42, 63, 95); fill-opacity: 1; white-space: pre; opacity: 1;" transform="translate(0,1003.0700000000002)">−0.1</text></g><g class="y3tick"><text text-anchor="end" x="79" y="4.199999999999999" style="font-family: 'Open Sans', verdana, arial, sans-serif; font-size: 12px; fill: rgb(42, 63, 95); fill-opacity: 1; white-space: pre; opacity: 1;" transform="translate(0,941.4500000000002)">0</text></g><g class="y3tick"><text text-anchor="end" x="79" y="4.199999999999999" style="font-family: 'Open Sans', verdana, arial, sans-serif; font-size: 12px; fill: rgb(42, 63, 95); fill-opacity: 1; white-space: pre; opacity: 1;" transform="translate(0,879.8400000000001)">0.1</text></g></g><g class="overaxes-above"/></g></g><g class="polarlayer"/><g class="smithlayer"/><g class="ternarylayer"/><g class="geolayer"/><g class="funnelarealayer"/><g class="pielayer"/><g class="iciclelayer"/><g class="treemaplayer"/><g class="sunburstlayer"/><g class="glimages"/><defs id="topdefs-fbb6c6"><g class="clips"/><clipPath id="legendfbb6c6"><rect width="188" height="29" x="0" y="0"/></clipPath></defs><g class="layer-above"><g class="imagelayer"/><g class="shapelayer"/></g><g class="infolayer"><g class="legend" pointer-events="all" transform="translate(232,50.59999999999998)"><rect class="bg" shape-rendering="crispEdges" width="188" height="29" x="0" y="0" style="stroke: rgb(68, 68, 68); stroke-opacity: 1; fill: rgb(255, 255, 255); fill-opacity: 1; stroke-width: 0px;"/><g class="scrollbox" transform="" clip-path="url(#legendfbb6c6)"><g class="groups"><g class="traces" transform="translate(0,14.5)" style="opacity: 1;"><text class="legendtext" text-anchor="start" x="40" y="4.680000000000001" style="font-family: 'Open Sans', verdana, arial, sans-serif; font-size: 12px; fill: rgb(42, 63, 95); fill-opacity: 1; white-space: pre;">Population Log-likelihood</text><g class="layers" style="opacity: 1;"><g class="legendfill"/><g class="legendlines"><path class="js-line" d="M5,0h30" style="fill: none; stroke: rgb(169, 169, 169); stroke-opacity: 1; stroke-width: 2px;"/></g><g class="legendsymbols"><g class="legendpoints"/></g></g><rect class="legendtoggle" x="0" y="-9.5" width="184.703125" height="19" style="fill: rgb(0, 0, 0); fill-opacity: 0;"/></g></g></g><rect class="scrollbar" rx="20" ry="3" width="0" height="0" x="0" y="0" style="fill: rgb(128, 139, 164); fill-opacity: 1;"/></g><g class="g-gtitle"/><g class="g-xtitle"/><g class="g-x2title"/><g class="g-x3title"/><g class="g-ytitle"/><g class="g-y2title"/><g class="g-y3title"/></g></svg>