<svg class="main-svg" xmlns="http://www.w3.org/2000/svg" xmlns:xlink="http://www.w3.org/1999/xlink" width="500" height="1200" style="" viewBox="0 0 500 1200"><rect x="0" y="0" width="500" height="1200" style="fill: rgb(255, 255, 255); fill-opacity: 1;"/><defs id="defs-568315"><g class="clips"><clipPath id="clip568315xyplot" class="plotclip"><rect width="340" height="272.00000000000006"/></clipPath><clipPath id="clip568315x2y2plot" class="plotclip"><rect width="340" height="272"/></clipPath><clipPath id="clip568315x3y3plot" class="plotclip"><rect width="340" height="272"/></clipPath><clipPath class="axesclip" id="clip568315x"><rect x="80" y="0" width="340" height="1200"/></clipPath><clipPath class="axesclip" id="clip568315y"><rect x="0" y="100" width="500" height="272.00000000000006"/></clipPath><clipPath class="axesclip" id="clip568315xy"><rect x="80" y="100" width="340" height="272.00000000000006"/></clipPath><clipPath class="axesclip" id="clip568315y2"><rect x="0" y="474.00000000000006" width="500" height="272"/></clipPath><clipPath class="axesclip" id="clip568315xy2"><rect x="80" y="474.00000000000006" width="340" height="272"/></clipPath><clipPath class="axesclip" id="clip568315y3"><rect x="0" y="848.0000000000001" width="500" height="272"/></clipPath><clipPath class="axesclip" id="clip568315xy3"><rect x="80" y="848.0000000000001" width="340" height="272"/></clipPath><clipPath class="axesclip" id="clip568315x2"><rect x="80" y="0" width="340" height="1200"/></clipPath><clipPath class="axesclip" id="clip568315x2y"><rect x="80" y="100" width="340" height="272.00000000000006"/></clipPath><clipPath class="axesclip" id="clip568315x2y2"><rect x="80" y="474.00000000000006" width="340" height="272"/></clipPath><clipPath class="axesclip" id="clip568315x2y3"><rect x="80" y="848.0000000000001" width="340" height="272"/></clipPath><clipPath class="axesclip" id="clip568315x3"><rect x="80" y="0" width="340" height="1200"/></clipPath><clipPath class="axesclip" id="clip568315x3y"><rect x="80" y="100" width="340" height="272.00000000000006"/></clipPath><clipPath class="axesclip" id="clip568315x3y2"><rect x="80" y="474.00000000000006" width="340" height="272"/></clipPath><clipPath class="axesclip" id="clip568315x3y3"><rect x="80" y="848.0000000000001" width="340" height="272"/></clipPath></g><g class="gradients"/><g class="patterns"/></defs><g class="bglayer"/><g class="layer-below"><g class="imagelayer"/><g class="shapelayer"/></g><g class="cartesianlayer"><g class="subplot xy"><g class="layer-subplot"><g class="shapelayer"/><g class="imagelayer"/></g><g class="minor-gridlayer"><g class="x"/><g class="y"/></g><g class="gridlayer"><g class="x"><path class="xgrid crisp" transform="translate(148,0)" d="M0,100v272.00000000000006" style="stroke: rgb(235, 240, 248); stroke-opacity: 1; stroke-width: 1px;"/><path class="xgrid crisp" transform="translate(216,0)" d="M0,100v272.00000000000006" style="stroke: rgb(235, 240, 248); stroke-opacity: 1; stroke-width: 1px;"/><path class="xgrid crisp" transform="translate(284,0)" d="M0,100v272.00000000000006" style="stroke: rgb(235, 240, 248); stroke-opacity: 1; stroke-width: 1px;"/><path class="xgrid crisp" transform="translate(352,0)" d="M0,100v272.00000000000006" style="stroke: rgb(235, 240, 248); stroke-opacity: 1; stroke-width: 1px;"/></g><g class="y"><path class="ygrid crisp" transform="translate(0,331.51)" d="M80,0h340" style="stroke: rgb(235, 240, 248); stroke-opacity: 1; stroke-width: 1px;"/><path class="ygrid crisp" transform="translate(0,287.98)" d="M80,0h340" style="stroke: rgb(235, 240, 248); stroke-opacity: 1; stroke-width: 1px;"/><path class="ygrid crisp" transform="translate(0,244.45)" d="M80,0h340" style="stroke: rgb(235, 240, 248); stroke-opacity: 1; stroke-width: 1px;"/><path class="ygrid crisp" transform="translate(0,157.4)" d="M80,0h340" style="stroke: rgb(235, 240, 248); stroke-opacity: 1; stroke-width: 1px;"/><path class="ygrid crisp" transform="translate(0,113.87)" d="M80,0h340" style="stroke: rgb(235, 240, 248); stroke-opacity: 1; stroke-width: 1px;"/></g></g><g class="zerolinelayer"><path class="yzl zl crisp" transform="translate(0,200.92000000000002)" d="M80,0h340" style="stroke: rgb(235, 240, 248); stroke-opacity: 1; stroke-width: 2px;"/></g><path class="xlines-below"/><path class="ylines-below"/><g class="overlines-below"/><g class="xaxislayer-below"/><g class="yaxislayer-below"/><g class="overaxes-below"/><g class="plot" transform="translate(80,100)" clip-path="url(#clip568315xyplot)"><g class="scatterlayer mlayer"><g class="trace scatter trace16543a" style="stroke-miterlimit: 2; opacity: 1;"><g class="fills"/><g class="errorbars"/><g class="lines"><path class="js-line" d="M0,258.4L17.17,213.6L20.61,205.21L37.78,166.02L41.21,158.74L54.95,131.48L58.38,125.13L72.12,101.56L75.56,96.13L89.29,76.23L92.73,71.71L106.46,55.46L109.9,51.85L120.2,42.1L123.64,39.22L133.94,31.63L137.37,29.47L147.68,24.04L151.11,22.58L161.41,19.29L164.85,18.55L175.15,17.39L178.59,17.36L188.89,18.32L192.32,18.99L202.63,22.05L206.06,23.43L216.36,28.59L219.8,30.66L230.1,37.91L233.54,40.67L243.84,49.99L247.27,53.44L261.01,68.97L264.44,73.28L278.18,92.22L281.62,97.38L295.35,119.71L298.79,125.72L312.53,151.42L315.96,158.27L333.13,195L336.57,202.84L340,210.86" style="vector-effect: non-scaling-stroke; fill: none; stroke: rgb(51, 34, 136); stroke-opacity: 1; stroke-width: 2px; opacity: 1;"/></g><g class="points"/><g class="text"/></g><g class="trace scatter tracefee398" style="stroke-miterlimit: 2; opacity: 1;"><g class="fills"/><g class="errorbars"/><g class="lines"/><g class="points"><path class="point" transform="translate(72.16,101.49)" d="M-4.2,0A 5.7,5.7 0 0 1 0,4.2A 5.7,5.7 0 0 1 4.2,0A 5.7,5.7 0 0 1 0,-4.2A 5.7,5.7 0 0 1 -4.2,0Z" style="opacity: 0.5; stroke-width: 0px; fill: rgb(51, 34, 136); fill-opacity: 1;"/><path class="point" transform="translate(72.52,100.92)" d="M-4.2,0A 5.7,5.7 0 0 1 0,4.2A 5.7,5.7 0 0 1 4.2,0A 5.7,5.7 0 0 1 0,-4.2A 5.7,5.7 0 0 1 -4.2,0Z" style="opacity: 0.5; stroke-width: 0px; fill: rgb(51, 34, 136); fill-opacity: 1;"/><path class="point" transform="translate(132.34,32.76)" d="M-4.2,0A 5.7,5.7 0 0 1 0,4.2A 5.7,5.7 0 0 1 4.2,0A 5.7,5.7 0 0 1 0,-4.2A 5.7,5.7 0 0 1 -4.2,0Z" style="opacity: 0.5; stroke-width: 0px; fill: rgb(51, 34, 136); fill-opacity: 1;"/><path class="point" transform="translate(177.51,17.35)" d="M-4.2,0A 5.7,5.7 0 0 1 0,4.2A 5.7,5.7 0 0 1 4.2,0A 5.7,5.7 0 0 1 0,-4.2A 5.7,5.7 0 0 1 -4.2,0Z" style="opacity: 0.5; stroke-width: 0px; fill: rgb(51, 34, 136); fill-opacity: 1;"/><path class="point" transform="translate(221.98,32.12)" d="M-4.2,0A 5.7,5.7 0 0 1 0,4.2A 5.7,5.7 0 0 1 4.2,0A 5.7,5.7 0 0 1 0,-4.2A 5.7,5.7 0 0 1 -4.2,0Z" style="opacity: 0.5; stroke-width: 0px; fill: rgb(51, 34, 136); fill-opacity: 1;"/><path class="point" transform="translate(283.11,99.67)" d="M-4.2,0A 5.7,5.7 0 0 1 0,4.2A 5.7,5.7 0 0 1 4.2,0A 5.7,5.7 0 0 1 0,-4.2A 5.7,5.7 0 0 1 -4.2,0Z" style="opacity: 0.5; stroke-width: 0px; fill: rgb(51, 34, 136); fill-opacity: 1;"/><path class="point" transform="translate(283.91,100.92)" d="M-4.2,0A 5.7,5.7 0 0 1 0,4.2A 5.7,5.7 0 0 1 4.2,0A 5.7,5.7 0 0 1 0,-4.2A 5.7,5.7 0 0 1 -4.2,0Z" style="opacity: 0.5; stroke-width: 0px; fill: rgb(51, 34, 136); fill-opacity: 1;"/></g><g class="text"/></g></g></g><g class="overplot"/><path class="xlines-above crisp" d="M0,0" style="fill: none;"/><path class="ylines-above crisp" d="M0,0" style="fill: none;"/><g class="overlines-above"/><g class="xaxislayer-above"/><g class="yaxislayer-above"><g class="ytick"><text text-anchor="end" x="79" y="4.199999999999999" transform="translate(0,331.51)" style="font-family: 'Open Sans', verdana, arial, sans-serif; font-size: 12px; fill: rgb(42, 63, 95); fill-opacity: 1; white-space: pre; opacity: 1;">−3</text></g><g class="ytick"><text text-anchor="end" x="79" y="4.199999999999999" style="font-family: 'Open Sans', verdana, arial, sans-serif; font-size: 12px; fill: rgb(42, 63, 95); fill-opacity: 1; white-space: pre; opacity: 1;" transform="translate(0,287.98)">−2</text></g><g class="ytick"><text text-anchor="end" x="79" y="4.199999999999999" style="font-family: 'Open Sans', verdana, arial, sans-serif; font-size: 12px; fill: rgb(42, 63, 95); fill-opacity: 1; white-space: pre; opacity: 1;" transform="translate(0,244.45)">−1</text></g><g class="ytick"><text text-anchor="end" x="79" y="4.199999999999999" style="font-family: 'Open Sans', verdana, arial, sans-serif; font-size: 12px; fill: rgb(42, 63, 95); fill-opacity: 1; white-space: pre; opacity: 1;" transform="translate(0,200.92000000000002)">0</text></g><g class="ytick"><text text-anchor="end" x="79" y="4.199999999999999" style="font-family: 'Open Sans', verdana, arial, sans-serif; font-size: 12px; fill: rgb(42, 63, 95); fill-opacity: 1; white-space: pre; opacity: 1;" transform="translate(0,157.4)">1</text></g><g class="ytick"><text text-anchor="end" x="79" y="4.199999999999999" style="font-family: 'Open Sans', verdana, arial, sans-serif; font-size: 12px; fill: rgb(42, 63, 95); fill-opacity: 1; white-space: pre; opacity: 1;" transform="translate(0,113.87)">2</text></g></g><g class="overaxes-above"/></g><g class="subplot x2y2"><g class="layer-subplot"><g class="shapelayer"/><g class="imagelayer"/></g><g class="minor-gridlayer"><g class="x2"/><g class="y2"/></g><g class="gridlayer"><g class="x2"><path class="x2grid crisp" transform="translate(148,0)" d="M0,474.00000000000006v272" style="stroke: rgb(235, 240, 248); stroke-opacity: 1; stroke-width: 1px;"/><path class="x2grid crisp" transform="translate(216,0)" d="M0,474.00000000000006v272" style="stroke: rgb(235, 240, 248); stroke-opacity: 1; stroke-width: 1px;"/><path class="x2grid crisp" transform="translate(284,0)" d="M0,474.00000000000006v272" style="stroke: rgb(235, 240, 248); stroke-opacity: 1; stroke-width: 1px;"/><path class="x2grid crisp" transform="translate(352,0)" d="M0,474.00000000000006v272" style="stroke: rgb(235, 240, 248); stroke-opacity: 1; stroke-width: 1px;"/></g><g class="y2"><path class="y2grid crisp" transform="translate(0,714.85)" d="M80,0h340" style="stroke: rgb(235, 240, 248); stroke-opacity: 1; stroke-width: 1px;"/><path class="y2grid crisp" transform="translate(0,665.95)" d="M80,0h340" style="stroke: rgb(235, 240, 248); stroke-opacity: 1; stroke-width: 1px;"/><path class="y2grid crisp" transform="translate(0,617.0600000000001)" d="M80,0h340" style="stroke: rgb(235, 240, 248); stroke-opacity: 1; stroke-width: 1px;"/><path class="y2grid crisp" transform="translate(0,568.1600000000001)" d="M80,0h340" style="stroke: rgb(235, 240, 248); stroke-opacity: 1; stroke-width: 1px;"/><path class="y2grid crisp" transform="translate(0,519.2600000000001)" d="M80,0h340" style="stroke: rgb(235, 240, 248); stroke-opacity: 1; stroke-width: 1px;"/></g></g><g class="zerolinelayer"/><path class="xlines-below"/><path class="ylines-below"/><g class="overlines-below"/><g class="xaxislayer-below"/><g class="yaxislayer-below"/><g class="overaxes-below"/><g class="plot" transform="translate(80,474.00000000000006)" clip-path="url(#clip568315x2y2plot)"><g class="scatterlayer mlayer"><g class="trace scatter trace9f54ee" style="stroke-miterlimit: 2; opacity: 1;"><g class="fills"/><g class="errorbars"/><g class="lines"><path class="js-line" d="M3.43,258.4L336.57,13.6" style="vector-effect: non-scaling-stroke; fill: none; stroke: rgb(51, 34, 136); stroke-opacity: 1; stroke-width: 2px; opacity: 1;"/></g><g class="points"/><g class="text"/></g></g></g><g class="overplot"/><path class="xlines-above crisp" d="M0,0" style="fill: none;"/><path class="ylines-above crisp" d="M0,0" style="fill: none;"/><g class="overlines-above"/><g class="xaxislayer-above"/><g class="yaxislayer-above"><g class="y2tick"><text text-anchor="end" x="79" y="4.199999999999999" transform="translate(0,714.85)" style="font-family: 'Open Sans', verdana, arial, sans-serif; font-size: 12px; fill: rgb(42, 63, 95); fill-opacity: 1; white-space: pre; opacity: 1;">−4200</text></g><g class="y2tick"><text text-anchor="end" x="79" y="4.199999999999999" style="font-family: 'Open Sans', verdana, arial, sans-serif; font-size: 12px; fill: rgb(42, 63, 95); fill-opacity: 1; white-space: pre; opacity: 1;" transform="translate(0,665.95)">−4100</text></g><g class="y2tick"><text text-anchor="end" x="79" y="4.199999999999999" style="font-family: 'Open Sans', verdana, arial, sans-serif; font-size: 12px; fill: rgb(42, 63, 95); fill-opacity: 1; white-space: pre; opacity: 1;" transform="translate(0,617.0600000000001)">−4000</text></g><g class="y2tick"><text text-anchor="end" x="79" y="4.199999999999999" style="font-family: 'Open Sans', verdana, arial, sans-serif; font-size: 12px; fill: rgb(42, 63, 95); fill-opacity: 1; white-space: pre; opacity: 1;" transform="translate(0,568.1600000000001)">−3900</text></g><g class="y2tick"><text text-anchor="end" x="79" y="4.199999999999999" style="font-family: 'Open Sans', verdana, arial, sans-serif; font-size: 12px; fill: rgb(42, 63, 95); fill-opacity: 1; white-space: pre; opacity: 1;" transform="translate(0,519.2600000000001)">−3800</text></g></g><g class="overaxes-above"/></g><g class="subplot x3y3"><g class="layer-subplot"><g class="shapelayer"/><g class="imagelayer"/></g><g class="minor-gridlayer"><g class="x3"/><g class="y3"/></g><g class="gridlayer"><g class="x3"><path class="x3grid crisp" transform="translate(148,0)" d="M0,848.0000000000001v272" style="stroke: rgb(235, 240, 248); stroke-opacity: 1; stroke-width: 1px;"/><path class="x3grid crisp" transform="translate(216,0)" d="M0,848.0000000000001v272" style="stroke: rgb(235, 240, 248); stroke-opacity: 1; stroke-width: 1px;"/><path class="x3grid crisp" transform="translate(284,0)" d="M0,848.0000000000001v272" style="stroke: rgb(235, 240, 248); stroke-opacity: 1; stroke-width: 1px;"/><path class="x3grid crisp" transform="translate(352,0)" d="M0,848.0000000000001v272" style="stroke: rgb(235, 240, 248); stroke-opacity: 1; stroke-width: 1px;"/></g><g class="y3"><path class="y3grid crisp" transform="translate(0,1029.46)" d="M80,0h340" style="stroke: rgb(235, 240, 248); stroke-opacity: 1; stroke-width: 1px;"/><path class="y3grid crisp" transform="translate(0,972.4600000000002)" d="M80,0h340" style="stroke: rgb(235, 240, 248); stroke-opacity: 1; stroke-width: 1px;"/><path class="y3grid crisp" transform="translate(0,915.4600000000002)" d="M80,0h340" style="stroke: rgb(235, 240, 248); stroke-opacity: 1; stroke-width: 1px;"/><path class="y3grid crisp" transform="translate(0,858.4600000000002)" d="M80,0h340" style="stroke: rgb(235, 240, 248); stroke-opacity: 1; stroke-width: 1px;"/></g></g><g class="zerolinelayer"><path class="y3zl zl crisp" transform="translate(0,1086.46)" d="M80,0h340" style="stroke: rgb(235, 240, 248); stroke-opacity: 1; stroke-width: 2px;"/></g><path class="xlines-below"/><path class="ylines-below"/><g class="overlines-below"/><g class="xaxislayer-below"/><g class="yaxislayer-below"/><g class="overaxes-below"/><g class="plot" transform="translate(80,848.0000000000001)" clip-path="url(#clip568315x3y3plot)"><g class="scatterlayer mlayer"><g class="trace scatter tracef8f4eb" style="stroke-miterlimit: 2; opacity: 1;"><g class="fills"/><g class="errorbars"/><g class="lines"><path class="js-line" d="M0,254.31L154.55,240.51L157.98,240.2L340,224.44" style="vector-effect: non-scaling-stroke; fill: none; stroke: rgb(68, 1, 84); stroke-opacity: 1; stroke-width: 1px; opacity: 1;"/></g><g class="points"/><g class="text"/></g><g class="trace scatter trace81801a" style="stroke-miterlimit: 2; opacity: 1;"><g class="fills"/><g class="errorbars"/><g class="lines"><path class="js-line" d="M0,254.02L305.66,226.75L309.09,226.34L340,222.23" style="vector-effect: non-scaling-stroke; fill: none; stroke: rgb(69, 7, 90); stroke-opacity: 1; stroke-width: 1px; opacity: 1;"/></g><g class="points"/><g class="text"/></g><g class="trace scatter tracecc6fb9" style="stroke-miterlimit: 2; opacity: 1;"><g class="fills"/><g class="errorbars"/><g class="lines"><path class="js-line" d="M0,252.81L41.21,251.18L44.65,250.98L89.29,247.47L92.73,247.13L302.22,226.34L305.66,226.06L340,223.63" style="vector-effect: non-scaling-stroke; fill: none; stroke: rgb(69, 14, 96); stroke-opacity: 1; stroke-width: 1px; opacity: 1;"/></g><g class="points"/><g class="text"/></g><g class="trace scatter trace9b8f9f" style="stroke-miterlimit: 2; opacity: 1;"><g class="fills"/><g class="errorbars"/><g class="lines"><path class="js-line" d="M0,255.25L30.91,254.89L34.34,254.76L65.25,252.82L68.69,252.51L99.6,248.99L103.03,248.51L195.76,236.27L199.19,235.87L315.96,222.69L319.39,222.41L340,220.97" style="vector-effect: non-scaling-stroke; fill: none; stroke: rgb(70, 20, 101); stroke-opacity: 1; stroke-width: 1px; opacity: 1;"/></g><g class="points"/><g class="text"/></g><g class="trace scatter trace99fabc" style="stroke-miterlimit: 2; opacity: 1;"><g class="fills"/><g class="errorbars"/><g class="lines"><path class="js-line" d="M0,247.54L75.56,244.43L78.99,244.25L340,229.44" style="vector-effect: non-scaling-stroke; fill: none; stroke: rgb(71, 26, 107); stroke-opacity: 1; stroke-width: 1px; opacity: 1;"/></g><g class="points"/><g class="text"/></g><g class="trace scatter traceea7c5a" style="stroke-miterlimit: 2; opacity: 1;"><g class="fills"/><g class="errorbars"/><g class="lines"><path class="js-line" d="M0,252.39L85.86,246.2L89.29,245.91L340,224.92" style="vector-effect: non-scaling-stroke; fill: none; stroke: rgb(71, 32, 113); stroke-opacity: 1; stroke-width: 1px; opacity: 1;"/></g><g class="points"/><g class="text"/></g><g class="trace scatter tracef38cab" style="stroke-miterlimit: 2; opacity: 1;"><g class="fills"/><g class="errorbars"/><g class="lines"><path class="js-line" d="M0,248.39L61.82,245.84L65.25,245.66L147.68,240.38L151.11,240.16L340,228.48" style="vector-effect: non-scaling-stroke; fill: none; stroke: rgb(72, 39, 119); stroke-opacity: 1; stroke-width: 1px; opacity: 1;"/></g><g class="points"/><g class="text"/></g><g class="trace scatter trace70dda8" style="stroke-miterlimit: 2; opacity: 1;"><g class="fills"/><g class="errorbars"/><g class="lines"><path class="js-line" d="M0,252.66L44.65,250.61L48.08,250.39L92.73,246.8L96.16,246.46L298.79,227.08L302.22,226.8L340,224.05" style="vector-effect: non-scaling-stroke; fill: none; stroke: rgb(71, 44, 122); stroke-opacity: 1; stroke-width: 1px; opacity: 1;"/></g><g class="points"/><g class="text"/></g><g class="trace scatter tracee5ae51" style="stroke-miterlimit: 2; opacity: 1;"><g class="fills"/><g class="errorbars"/><g class="lines"><path class="js-line" d="M0,248.78L68.69,245.7L72.12,245.5L157.98,239.76L161.41,239.53L340,228.26" style="vector-effect: non-scaling-stroke; fill: none; stroke: rgb(69, 49, 125); stroke-opacity: 1; stroke-width: 1px; opacity: 1;"/></g><g class="points"/><g class="text"/></g><g class="trace scatter tracefded4c" style="stroke-miterlimit: 2; opacity: 1;"><g class="fills"/><g class="errorbars"/><g class="lines"><path class="js-line" d="M0,248.04L61.82,245.56L65.25,245.38L144.24,240.52L147.68,240.3L340,228.85" style="vector-effect: non-scaling-stroke; fill: none; stroke: rgb(68, 55, 128); stroke-opacity: 1; stroke-width: 1px; opacity: 1;"/></g><g class="points"/><g class="text"/></g><g class="trace scatter traced7882f" style="stroke-miterlimit: 2; opacity: 1;"><g class="fills"/><g class="errorbars"/><g class="lines"><path class="js-line" d="M0,246.46L78.99,243.46L82.42,243.3L340,230.58" style="vector-effect: non-scaling-stroke; fill: none; stroke: rgb(66, 60, 130); stroke-opacity: 1; stroke-width: 1px; opacity: 1;"/></g><g class="points"/><g class="text"/></g><g class="trace scatter trace76b2e4" style="stroke-miterlimit: 2; opacity: 1;"><g class="fills"/><g class="errorbars"/><g class="lines"><path class="js-line" d="M0,248.52L72.12,245.29L75.56,245.09L185.45,237.94L188.89,237.72L333.13,228.77L336.57,228.6L340,228.43" style="vector-effect: non-scaling-stroke; fill: none; stroke: rgb(64, 65, 133); stroke-opacity: 1; stroke-width: 1px; opacity: 1;"/></g><g class="points"/><g class="text"/></g><g class="trace scatter traceb39560" style="stroke-miterlimit: 2; opacity: 1;"><g class="fills"/><g class="errorbars"/><g class="lines"><path class="js-line" d="M0,251.21L51.52,248.84L54.95,248.63L106.46,244.61L109.9,244.3L274.75,230.13L278.18,229.86L340,225.62" style="vector-effect: non-scaling-stroke; fill: none; stroke: rgb(63, 71, 136); stroke-opacity: 1; stroke-width: 1px; opacity: 1;"/></g><g class="points"/><g class="text"/></g><g class="trace scatter trace7051fa" style="stroke-miterlimit: 2; opacity: 1;"><g class="fills"/><g class="errorbars"/><g class="lines"><path class="js-line" d="M0,246.39L27.47,247.93L30.91,248.03L61.82,247.95L65.25,247.83L96.16,245.84L99.6,245.52L168.28,239.24L171.72,238.95L329.7,225.92L333.13,225.7L340,225.29" style="vector-effect: non-scaling-stroke; fill: none; stroke: rgb(61, 76, 137); stroke-opacity: 1; stroke-width: 1px; opacity: 1;"/></g><g class="points"/><g class="text"/></g><g class="trace scatter traceb330f3" style="stroke-miterlimit: 2; opacity: 1;"><g class="fills"/><g class="errorbars"/><g class="lines"><path class="js-line" d="M0,251.32L51.52,248.8L54.95,248.58L106.46,244.58L109.9,244.27L302.22,228.16L305.66,227.92L340,225.68" style="vector-effect: non-scaling-stroke; fill: none; stroke: rgb(59, 81, 138); stroke-opacity: 1; stroke-width: 1px; opacity: 1;"/></g><g class="points"/><g class="text"/></g><g class="trace scatter trace76f5e0" style="stroke-miterlimit: 2; opacity: 1;"><g class="fills"/><g class="errorbars"/><g class="lines"><path class="js-line" d="M0,253.98L226.67,234.23L230.1,233.94L340,224.12" style="vector-effect: non-scaling-stroke; fill: none; stroke: rgb(45, 114, 142); stroke-opacity: 1; stroke-width: 1px; opacity: 1;"/></g><g class="points"/><g class="text"/></g><g class="trace scatter traceba526f" style="stroke-miterlimit: 2; opacity: 1;"><g class="fills"/><g class="errorbars"/><g class="lines"><path class="js-line" d="M0,252.94L41.21,251.33L44.65,251.13L85.86,247.93L89.29,247.6L319.39,224.89L322.83,224.65L340,223.49" style="vector-effect: non-scaling-stroke; fill: none; stroke: rgb(43, 118, 142); stroke-opacity: 1; stroke-width: 1px; opacity: 1;"/></g><g class="points"/><g class="text"/></g><g class="trace scatter trace8534b8" style="stroke-miterlimit: 2; opacity: 1;"><g class="fills"/><g class="errorbars"/><g class="lines"><path class="js-line" d="M0,257.64L37.78,255.41L41.21,255.14L78.99,251.33L82.42,250.91L199.19,235.57L202.63,235.1L285.05,224.5L288.48,224.15L326.26,221.15L329.7,220.95L340,220.41" style="vector-effect: non-scaling-stroke; fill: none; stroke: rgb(41, 122, 142); stroke-opacity: 1; stroke-width: 1px; opacity: 1;"/></g><g class="points"/><g class="text"/></g><g class="trace scatter trace9b4e99" style="stroke-miterlimit: 2; opacity: 1;"><g class="fills"/><g class="errorbars"/><g class="lines"><path class="js-line" d="M0,247.68L65.25,245.09L68.69,244.92L175.15,238.6L178.59,238.39L340,229.24" style="vector-effect: non-scaling-stroke; fill: none; stroke: rgb(40, 126, 142); stroke-opacity: 1; stroke-width: 1px; opacity: 1;"/></g><g class="points"/><g class="text"/></g><g class="trace scatter trace47e2ef" style="stroke-miterlimit: 2; opacity: 1;"><g class="fills"/><g class="errorbars"/><g class="lines"><path class="js-line" d="M0,253.3L340,224.68" style="vector-effect: non-scaling-stroke; fill: none; stroke: rgb(38, 130, 142); stroke-opacity: 1; stroke-width: 1px; opacity: 1;"/></g><g class="points"/><g class="text"/></g><g class="trace scatter trace2d7b18" style="stroke-miterlimit: 2; opacity: 1;"><g class="fills"/><g class="errorbars"/><g class="lines"><path class="js-line" d="M0,248.28L68.69,245.37L72.12,245.18L157.98,239.7L161.41,239.48L340,228.61" style="vector-effect: non-scaling-stroke; fill: none; stroke: rgb(37, 135, 141); stroke-opacity: 1; stroke-width: 1px; opacity: 1;"/></g><g class="points"/><g class="text"/></g><g class="trace scatter traceea7956" style="stroke-miterlimit: 2; opacity: 1;"><g class="fills"/><g class="errorbars"/><g class="lines"><path class="js-line" d="M0,252.72L51.52,250.03L54.95,249.79L106.46,245.29L109.9,244.95L219.8,234.47L223.23,234.14L319.39,225.62L322.83,225.37L340,224.15" style="vector-effect: non-scaling-stroke; fill: none; stroke: rgb(36, 140, 140); stroke-opacity: 1; stroke-width: 1px; opacity: 1;"/></g><g class="points"/><g class="text"/></g><g class="trace scatter traced3a8a8" style="stroke-miterlimit: 2; opacity: 1;"><g class="fills"/><g class="errorbars"/><g class="lines"><path class="js-line" d="M0,248.62L68.69,245.52L72.12,245.32L178.59,238.39L182.02,238.16L340,228.3" style="vector-effect: non-scaling-stroke; fill: none; stroke: rgb(34, 144, 140); stroke-opacity: 1; stroke-width: 1px; opacity: 1;"/></g><g class="points"/><g class="text"/></g><g class="trace scatter traceb7d40e" style="stroke-miterlimit: 2; opacity: 1;"><g class="fills"/><g class="errorbars"/><g class="lines"><path class="js-line" d="M0,248.38L68.69,245.44L72.12,245.25L188.89,237.73L192.32,237.51L326.26,229.27L329.7,229.1L340,228.6" style="vector-effect: non-scaling-stroke; fill: none; stroke: rgb(33, 148, 139); stroke-opacity: 1; stroke-width: 1px; opacity: 1;"/></g><g class="points"/><g class="text"/></g><g class="trace scatter trace417715" style="stroke-miterlimit: 2; opacity: 1;"><g class="fills"/><g class="errorbars"/><g class="lines"><path class="js-line" d="M0,246.53L78.99,243.51L82.42,243.34L233.54,235.58L236.97,235.4L340,230.54" style="vector-effect: non-scaling-stroke; fill: none; stroke: rgb(32, 153, 138); stroke-opacity: 1; stroke-width: 1px; opacity: 1;"/></g><g class="points"/><g class="text"/></g><g class="trace scatter trace04bbaa" style="stroke-miterlimit: 2; opacity: 1;"><g class="fills"/><g class="errorbars"/><g class="lines"><path class="js-line" d="M0,248.59L61.82,246.04L65.25,245.85L137.37,241.12L140.81,240.89L340,228.23" style="vector-effect: non-scaling-stroke; fill: none; stroke: rgb(31, 158, 137); stroke-opacity: 1; stroke-width: 1px; opacity: 1;"/></g><g class="points"/><g class="text"/></g><g class="trace scatter trace354af6" style="stroke-miterlimit: 2; opacity: 1;"><g class="fills"/><g class="errorbars"/><g class="lines"><path class="js-line" d="M0,250.96L51.52,248.64L54.95,248.44L109.9,244.19L113.33,243.89L243.84,232.87L247.27,232.58L315.96,227.31L319.39,227.08L340,225.82" style="vector-effect: non-scaling-stroke; fill: none; stroke: rgb(34, 162, 135); stroke-opacity: 1; stroke-width: 1px; opacity: 1;"/></g><g class="points"/><g class="text"/></g><g class="trace scatter traceaf2a77" style="stroke-miterlimit: 2; opacity: 1;"><g class="fills"/><g class="errorbars"/><g class="lines"><path class="js-line" d="M0,250.95L48.08,248.88L51.52,248.68L103.03,244.83L106.46,244.52L264.44,231.01L267.88,230.73L326.26,226.66L329.7,226.46L340,225.9" style="vector-effect: non-scaling-stroke; fill: none; stroke: rgb(38, 166, 132); stroke-opacity: 1; stroke-width: 1px; opacity: 1;"/></g><g class="points"/><g class="text"/></g><g class="trace scatter tracec21a99" style="stroke-miterlimit: 2; opacity: 1;"><g class="fills"/><g class="errorbars"/><g class="lines"><path class="js-line" d="M0,251.6L58.38,248.35L61.82,248.11L123.64,243.05L127.07,242.76L302.22,228.23L305.66,227.98L340,225.7" style="vector-effect: non-scaling-stroke; fill: none; stroke: rgb(41, 170, 130); stroke-opacity: 1; stroke-width: 1px; opacity: 1;"/></g><g class="points"/><g class="text"/></g><g class="trace scatter traceaba764" style="stroke-miterlimit: 2; opacity: 1;"><g class="fills"/><g class="errorbars"/><g class="lines"><path class="js-line" d="M0,246.83L20.61,240.94L24.04,240.12L44.65,236.21L48.08,235.72L68.69,233.77L72.12,233.61L92.73,233.64L96.16,233.81L175.15,238.37L178.59,238.5L285.05,242.17L288.48,242.08L312.53,240.65L315.96,240.33L340,237.29" style="vector-effect: non-scaling-stroke; fill: none; stroke: rgb(45, 174, 127); stroke-opacity: 1; stroke-width: 1px; opacity: 1;"/></g><g class="points"/><g class="text"/></g><g class="trace scatter trace6842b5" style="stroke-miterlimit: 2; opacity: 1;"><g class="fills"/><g class="errorbars"/><g class="lines"><path class="js-line" d="M0,253.44L48.08,250.91L51.52,250.67L103.03,246.02L106.46,245.65L285.05,227.7L288.48,227.4L340,223.65" style="vector-effect: non-scaling-stroke; fill: none; stroke: rgb(96, 200, 96); stroke-opacity: 1; stroke-width: 1px; opacity: 1;"/></g><g class="points"/><g class="text"/></g><g class="trace scatter trace6e5fc6" style="stroke-miterlimit: 2; opacity: 1;"><g class="fills"/><g class="errorbars"/><g class="lines"><path class="js-line" d="M0,258.4L37.78,256.31L41.21,256.04L78.99,252.26L82.42,251.84L137.37,244.07L140.81,243.57L216.36,233.51L219.8,233.07L305.66,222.43L309.09,222.1L340,219.55" style="vector-effect: non-scaling-stroke; fill: none; stroke: rgb(105, 204, 91); stroke-opacity: 1; stroke-width: 1px; opacity: 1;"/></g><g class="points"/><g class="text"/></g><g class="trace scatter trace55ea91" style="stroke-miterlimit: 2; opacity: 1;"><g class="fills"/><g class="errorbars"/><g class="lines"><path class="js-line" d="M0,247.28L65.25,244.86L68.69,244.69L164.85,239.18L168.28,238.99L340,229.5" style="vector-effect: non-scaling-stroke; fill: none; stroke: rgb(115, 207, 85); stroke-opacity: 1; stroke-width: 1px; opacity: 1;"/></g><g class="points"/><g class="text"/></g><g class="trace scatter trace093600" style="stroke-miterlimit: 2; opacity: 1;"><g class="fills"/><g class="errorbars"/><g class="lines"><path class="js-line" d="M0,253.63L264.44,231.21L267.88,230.93L340,225.04" style="vector-effect: non-scaling-stroke; fill: none; stroke: rgb(126, 210, 78); stroke-opacity: 1; stroke-width: 1px; opacity: 1;"/></g><g class="points"/><g class="text"/></g><g class="trace scatter trace349283" style="stroke-miterlimit: 2; opacity: 1;"><g class="fills"/><g class="errorbars"/><g class="lines"><path class="js-line" d="M0,248.27L58.38,245.89L61.82,245.71L137.37,241L140.81,240.78L340,228.65" style="vector-effect: non-scaling-stroke; fill: none; stroke: rgb(138, 212, 70); stroke-opacity: 1; stroke-width: 1px; opacity: 1;"/></g><g class="points"/><g class="text"/></g><g class="trace scatter traceac5d0f" style="stroke-miterlimit: 2; opacity: 1;"><g class="fills"/><g class="errorbars"/><g class="lines"><path class="js-line" d="M0,252.2L44.65,250.22L48.08,250.01L96.16,246.19L99.6,245.85L264.44,230.24L267.88,229.93L336.57,224.65L340,224.43" style="vector-effect: non-scaling-stroke; fill: none; stroke: rgb(149, 215, 63); stroke-opacity: 1; stroke-width: 1px; opacity: 1;"/></g><g class="points"/><g class="text"/></g><g class="trace scatter trace8921a6" style="stroke-miterlimit: 2; opacity: 1;"><g class="fills"/><g class="errorbars"/><g class="lines"><path class="js-line" d="M0,248.47L58.38,246.09L61.82,245.91L144.24,240.62L147.68,240.4L329.7,228.94L333.13,228.77L340,228.45" style="vector-effect: non-scaling-stroke; fill: none; stroke: rgb(161, 217, 56); stroke-opacity: 1; stroke-width: 1px; opacity: 1;"/></g><g class="points"/><g class="text"/></g><g class="trace scatter trace825e75" style="stroke-miterlimit: 2; opacity: 1;"><g class="fills"/><g class="errorbars"/><g class="lines"><path class="js-line" d="M0,248.23L61.82,245.71L65.25,245.53L161.41,239.48L164.85,239.26L340,228.72" style="vector-effect: non-scaling-stroke; fill: none; stroke: rgb(172, 220, 49); stroke-opacity: 1; stroke-width: 1px; opacity: 1;"/></g><g class="points"/><g class="text"/></g><g class="trace scatter tracec13fd4" style="stroke-miterlimit: 2; opacity: 1;"><g class="fills"/><g class="errorbars"/><g class="lines"><path class="js-line" d="M0,246.49L82.42,243.34L85.86,243.17L340,230.57" style="vector-effect: non-scaling-stroke; fill: none; stroke: rgb(184, 222, 43); stroke-opacity: 1; stroke-width: 1px; opacity: 1;"/></g><g class="points"/><g class="text"/></g><g class="trace scatter traceb2279d" style="stroke-miterlimit: 2; opacity: 1;"><g class="fills"/><g class="errorbars"/><g class="lines"><path class="js-line" d="M0,13.6L10.3,64.8L13.74,80.52L24.04,123.65L27.47,136.68L37.78,171.74L41.21,182.08L51.52,209.08L54.95,216.74L61.82,230.03L65.25,235.67L72.12,244.92L75.56,248.55L82.42,253.77L85.86,255.38L92.73,256.57L96.16,256.16L103.03,253.33L106.46,251.44L120.2,245.2L123.64,243.97L137.37,240.35L140.81,239.77L151.11,238.83L154.55,238.77L182.02,238.28L185.45,238.11L223.23,235.41L226.67,235.16L322.83,229.13L326.26,228.94L340,228.2" style="vector-effect: non-scaling-stroke; fill: none; stroke: rgb(195, 224, 42); stroke-opacity: 1; stroke-width: 1px; opacity: 1;"/></g><g class="points"/><g class="text"/></g><g class="trace scatter traceabcb56" style="stroke-miterlimit: 2; opacity: 1;"><g class="fills"/><g class="errorbars"/><g class="lines"><path class="js-line" d="M0,251.1L51.52,248.79L54.95,248.58L106.46,244.6L109.9,244.29L267.88,230.76L271.31,230.48L336.57,225.91L340,225.71" style="vector-effect: non-scaling-stroke; fill: none; stroke: rgb(207, 225, 41); stroke-opacity: 1; stroke-width: 1px; opacity: 1;"/></g><g class="points"/><g class="text"/></g><g class="trace scatter trace8869ce" style="stroke-miterlimit: 2; opacity: 1;"><g class="fills"/><g class="errorbars"/><g class="lines"><path class="js-line" d="M0,251.26L51.52,249.01L54.95,248.8L99.6,245.37L103.03,245.05L257.58,231.38L261.01,231.08L340,225.1" style="vector-effect: non-scaling-stroke; fill: none; stroke: rgb(218, 227, 40); stroke-opacity: 1; stroke-width: 1px; opacity: 1;"/></g><g class="points"/><g class="text"/></g><g class="trace scatter trace394830" style="stroke-miterlimit: 2; opacity: 1;"><g class="fills"/><g class="errorbars"/><g class="lines"><path class="js-line" d="M0,251.4L51.52,248.88L54.95,248.66L103.03,244.91L106.46,244.6L281.62,229.54L285.05,229.27L340,225.46" style="vector-effect: non-scaling-stroke; fill: none; stroke: rgb(230, 228, 39); stroke-opacity: 1; stroke-width: 1px; opacity: 1;"/></g><g class="points"/><g class="text"/></g><g class="trace scatter trace97590e" style="stroke-miterlimit: 2; opacity: 1;"><g class="fills"/><g class="errorbars"/><g class="lines"><path class="js-line" d="M0,249.39L17.17,243.38L20.61,242.35L37.78,238.02L41.21,237.32L58.38,234.67L61.82,234.31L78.99,233.34L82.42,233.31L99.6,234.02L103.03,234.33L137.37,236.87L140.81,237.04L281.62,243.21L285.05,243.19L312.53,242.17L315.96,241.94L340,239.62" style="vector-effect: non-scaling-stroke; fill: none; stroke: rgb(241, 230, 38); stroke-opacity: 1; stroke-width: 1px; opacity: 1;"/></g><g class="points"/><g class="text"/></g><g class="trace scatter traced1f2e6" style="stroke-miterlimit: 2; opacity: 1;"><g class="fills"/><g class="errorbars"/><g class="lines"><path class="js-line" d="M0,248.51L61.82,245.97L65.25,245.78L140.81,240.87L144.24,240.64L340,228.38" style="vector-effect: non-scaling-stroke; fill: none; stroke: rgb(253, 231, 37); stroke-opacity: 1; stroke-width: 1px; opacity: 1;"/></g><g class="points"/><g class="text"/></g><g class="trace scatter trace22d5bf" style="stroke-miterlimit: 2; opacity: 1;"><g class="fills"/><g class="errorbars"/><g class="lines"><path class="js-line" d="M0,243.67L27.47,246.01L30.91,246.19L58.38,246.8L61.82,246.76L89.29,245.63L92.73,245.38L326.26,227.31L329.7,227.1L340,226.46" style="vector-effect: non-scaling-stroke; fill: none; stroke: rgb(169, 169, 169); stroke-opacity: 1; stroke-width: 2px; opacity: 1;"/></g><g class="points"/><g class="text"/></g></g></g><g class="overplot"/><path class="xlines-above crisp" d="M0,0" style="fill: none;"/><path class="ylines-above crisp" d="M0,0" style="fill: none;"/><g class="overlines-above"/><g class="xaxislayer-above"><g class="x3tick"><text text-anchor="middle" x="0" y="1133" transform="translate(80,0)" style="font-family: 'Open Sans', verdana, arial, sans-serif; font-size: 12px; fill: rgb(42, 63, 95); fill-opacity: 1; white-space: pre; opacity: 1;">2.66</text></g><g class="x3tick"><text text-anchor="middle" x="0" y="1133" style="font-family: 'Open Sans', verdana, arial, sans-serif; font-size: 12px; fill: rgb(42, 63, 95); fill-opacity: 1; white-space: pre; opacity: 1;" transform="translate(148,0)">2.68</text></g><g class="x3tick"><text text-anchor="middle" x="0" y="1133" style="font-family: 'Open Sans', verdana, arial, sans-serif; font-size: 12px; fill: rgb(42, 63, 95); fill-opacity: 1; white-space: pre; opacity: 1;" transform="translate(216,0)">2.7</text></g><g class="x3tick"><text text-anchor="middle" x="0" y="1133" style="font-family: 'Open Sans', verdana, arial, sans-serif; font-size: 12px; fill: rgb(42, 63, 95); fill-opacity: 1; white-space: pre; opacity: 1;" transform="translate(284,0)">2.72</text></g><g class="x3tick"><text text-anchor="middle" x="0" y="1133" style="font-family: 'Open Sans', verdana, arial, sans-serif; font-size: 12px; fill: rgb(42, 63, 95); fill-opacity: 1; white-space: pre; opacity: 1;" transform="translate(352,0)">2.74</text></g><g class="x3tick"><text text-anchor="middle" x="0" y="1133" style="font-family: 'Open Sans', verdana, arial, sans-serif; font-size: 12px; fill: rgb(42, 63, 95); fill-opacity: 1; white-space: pre; opacity: 1;" transform="translate(420,0)">2.76</text></g></g><g class="yaxislayer-above"><g class="y3tick"><text text-anchor="end" x="79" y="4.199999999999999" transform="translate(0,1086.46)" style="font-family: 'Open Sans', verdana, arial, sans-serif; font-size: 12px; fill: rgb(42, 63, 95); fill-opacity: 1; white-space: pre; opacity: 1;">0</text></g><g class="y3tick"><text text-anchor="end" x="79" y="4.199999999999999" style="font-family: 'Open Sans', verdana, arial, sans-serif; font-size: 12px; fill: rgb(42, 63, 95); fill-opacity: 1; white-space: pre; opacity: 1;" transform="translate(0,1029.46)">0.5</text></g><g class="y3tick"><text text-anchor="end" x="79" y="4.199999999999999" style="font-family: 'Open Sans', verdana, arial, sans-serif; font-size: 12px; fill: rgb(42, 63, 95); fill-opacity: 1; white-space: pre; opacity: 1;" transform="translate(0,972.4600000000002)">1</text></g><g class="y3tick"><text text-anchor="end" x="79" y="4.199999999999999" style="font-family: 'Open Sans', verdana, arial, sans-serif; font-size: 12px; fill: rgb(42, 63, 95); fill-opacity: 1; white-space: pre; opacity: 1;" transform="translate(0,915.4600000000002)">1.5</text></g><g class="y3tick"><text text-anchor="end" x="79" y="4.199999999999999" style="font-family: 'Open Sans', verdana, arial, sans-serif; font-size: 12px; fill: rgb(42, 63, 95); fill-opacity: 1; white-space: pre; opacity: 1;" transform="translate(0,858.4600000000002)">2</text></g></g><g class="overaxes-above"/></g></g><g class="polarlayer"/><g class="smithlayer"/><g class="ternarylayer"/><g class="geolayer"/><g class="funnelarealayer"/><g class="pielayer"/><g class="iciclelayer"/><g class="treemaplayer"/><g class="sunburstlayer"/><g class="glimages"/><defs id="topdefs-568315"><g class="clips"/><clipPath id="legend568315"><rect width="315" height="29" x="0" y="0"/></clipPath></defs><g class="layer-above"><g class="imagelayer"/><g class="shapelayer"/></g><g class="infolayer"><g class="legend" pointer-events="all" transform="translate(105,50.59999999999998)"><rect class="bg" shape-rendering="crispEdges" width="315" height="29" x="0" y="0" style="stroke: rgb(68, 68, 68); stroke-opacity: 1; fill: rgb(255, 255, 255); fill-opacity: 1; stroke-width: 0px;"/><g class="scrollbox" transform="" clip-path="url(#legend568315)"><g class="groups"><g class="traces" transform="translate(0,14.5)" style="opacity: 1;"><text class="legendtext" text-anchor="start" x="40" y="4.680000000000001" style="font-family: 'Open Sans', verdana, arial, sans-serif; font-size: 12px; fill: rgb(42, 63, 95); fill-opacity: 1; white-space: pre;">Population Log-likelihood</text><g class="layers" style="opacity: 1;"><g class="legendfill"/><g class="legendlines"><path class="js-line" d="M5,0h30" style="fill: none; stroke: rgb(51, 34, 136); stroke-opacity: 1; stroke-width: 2px;"/></g><g class="legendsymbols"><g class="legendpoints"/></g></g><rect class="legendtoggle" x="0" y="-9.5" width="184.703125" height="19" style="fill: rgb(0, 0, 0); fill-opacity: 0;"/></g><g class="traces" transform="translate(187.203125,14.5)" style="opacity: 1;"><text class="legendtext" text-anchor="start" x="40" y="4.680000000000001" style="font-family: 'Open Sans', verdana, arial, sans-serif; font-size: 12px; fill: rgb(42, 63, 95); fill-opacity: 1; white-space: pre;">Estimates of CI</text><g class="layers" style="opacity: 1;"><g class="legendfill"/><g class="legendlines"/><g class="legendsymbols"><g class="legendpoints"><path class="scatterpts" transform="translate(20,0)" d="M-4.2,0A 5.7,5.7 0 0 1 0,4.2A 5.7,5.7 0 0 1 4.2,0A 5.7,5.7 0 0 1 0,-4.2A 5.7,5.7 0 0 1 -4.2,0Z" style="opacity: 0.5; stroke-width: 0px; fill: rgb(51, 34, 136); fill-opacity: 1;"/></g></g></g><rect class="legendtoggle" x="0" y="-9.5" width="125.171875" height="19" style="fill: rgb(0, 0, 0); fill-opacity: 0;"/></g></g></g><rect class="scrollbar" rx="20" ry="3" width="0" height="0" x="0" y="0" style="fill: rgb(128, 139, 164); fill-opacity: 1;"/></g><g class="g-gtitle"/><g class="g-xtitle"/><g class="g-x2title"/><g class="g-x3title"/><g class="g-ytitle"/><g class="g-y2title"/><g class="g-y3title"/></g></svg>