<svg class="main-svg" xmlns="http://www.w3.org/2000/svg" xmlns:xlink="http://www.w3.org/1999/xlink" width="500" height="1200" style="" viewBox="0 0 500 1200"><rect x="0" y="0" width="500" height="1200" style="fill: rgb(255, 255, 255); fill-opacity: 1;"/><defs id="defs-42e191"><g class="clips"><clipPath id="clip42e191xyplot" class="plotclip"><rect width="340" height="272.00000000000006"/></clipPath><clipPath id="clip42e191x2y2plot" class="plotclip"><rect width="340" height="272"/></clipPath><clipPath id="clip42e191x3y3plot" class="plotclip"><rect width="340" height="272"/></clipPath><clipPath class="axesclip" id="clip42e191x"><rect x="80" y="0" width="340" height="1200"/></clipPath><clipPath class="axesclip" id="clip42e191y"><rect x="0" y="100" width="500" height="272.00000000000006"/></clipPath><clipPath class="axesclip" id="clip42e191xy"><rect x="80" y="100" width="340" height="272.00000000000006"/></clipPath><clipPath class="axesclip" id="clip42e191y2"><rect x="0" y="474.00000000000006" width="500" height="272"/></clipPath><clipPath class="axesclip" id="clip42e191xy2"><rect x="80" y="474.00000000000006" width="340" height="272"/></clipPath><clipPath class="axesclip" id="clip42e191y3"><rect x="0" y="848.0000000000001" width="500" height="272"/></clipPath><clipPath class="axesclip" id="clip42e191xy3"><rect x="80" y="848.0000000000001" width="340" height="272"/></clipPath><clipPath class="axesclip" id="clip42e191x2"><rect x="80" y="0" width="340" height="1200"/></clipPath><clipPath class="axesclip" id="clip42e191x2y"><rect x="80" y="100" width="340" height="272.00000000000006"/></clipPath><clipPath class="axesclip" id="clip42e191x2y2"><rect x="80" y="474.00000000000006" width="340" height="272"/></clipPath><clipPath class="axesclip" id="clip42e191x2y3"><rect x="80" y="848.0000000000001" width="340" height="272"/></clipPath><clipPath class="axesclip" id="clip42e191x3"><rect x="80" y="0" width="340" height="1200"/></clipPath><clipPath class="axesclip" id="clip42e191x3y"><rect x="80" y="100" width="340" height="272.00000000000006"/></clipPath><clipPath class="axesclip" id="clip42e191x3y2"><rect x="80" y="474.00000000000006" width="340" height="272"/></clipPath><clipPath class="axesclip" id="clip42e191x3y3"><rect x="80" y="848.0000000000001" width="340" height="272"/></clipPath></g><g class="gradients"/><g class="patterns"/></defs><g class="bglayer"/><g class="layer-below"><g class="imagelayer"/><g class="shapelayer"/></g><g class="cartesianlayer"><g class="subplot xy"><g class="layer-subplot"><g class="shapelayer"/><g class="imagelayer"/></g><g class="minor-gridlayer"><g class="x"/><g class="y"/></g><g class="gridlayer"><g class="x"><path class="xgrid crisp" transform="translate(148,0)" d="M0,100v272.00000000000006" style="stroke: rgb(235, 240, 248); stroke-opacity: 1; stroke-width: 1px;"/><path class="xgrid crisp" transform="translate(216,0)" d="M0,100v272.00000000000006" style="stroke: rgb(235, 240, 248); stroke-opacity: 1; stroke-width: 1px;"/><path class="xgrid crisp" transform="translate(284,0)" d="M0,100v272.00000000000006" style="stroke: rgb(235, 240, 248); stroke-opacity: 1; stroke-width: 1px;"/><path class="xgrid crisp" transform="translate(352,0)" d="M0,100v272.00000000000006" style="stroke: rgb(235, 240, 248); stroke-opacity: 1; stroke-width: 1px;"/></g><g class="y"><path class="ygrid crisp" transform="translate(0,368.07)" d="M80,0h340" style="stroke: rgb(235, 240, 248); stroke-opacity: 1; stroke-width: 1px;"/><path class="ygrid crisp" transform="translate(0,325.65999999999997)" d="M80,0h340" style="stroke: rgb(235, 240, 248); stroke-opacity: 1; stroke-width: 1px;"/><path class="ygrid crisp" transform="translate(0,283.25)" d="M80,0h340" style="stroke: rgb(235, 240, 248); stroke-opacity: 1; stroke-width: 1px;"/><path class="ygrid crisp" transform="translate(0,240.84)" d="M80,0h340" style="stroke: rgb(235, 240, 248); stroke-opacity: 1; stroke-width: 1px;"/><path class="ygrid crisp" transform="translate(0,198.42000000000002)" d="M80,0h340" style="stroke: rgb(235, 240, 248); stroke-opacity: 1; stroke-width: 1px;"/><path class="ygrid crisp" transform="translate(0,156.01)" d="M80,0h340" style="stroke: rgb(235, 240, 248); stroke-opacity: 1; stroke-width: 1px;"/></g></g><g class="zerolinelayer"><path class="yzl zl crisp" transform="translate(0,113.6)" d="M80,0h340" style="stroke: rgb(235, 240, 248); stroke-opacity: 1; stroke-width: 2px;"/></g><path class="xlines-below"/><path class="ylines-below"/><g class="overlines-below"/><g class="xaxislayer-below"/><g class="yaxislayer-below"/><g class="overaxes-below"/><g class="plot" transform="translate(80,100)" clip-path="url(#clip42e191xyplot)"><g class="scatterlayer mlayer"><g class="trace scatter trace9bc2b0" style="stroke-miterlimit: 2; opacity: 1;"><g class="fills"/><g class="errorbars"/><g class="lines"><path class="js-line" d="M0,247.27L3.43,258.4L6.87,244.2L13.74,218.78L17.17,207.56L24.04,188.13L27.47,179.88L30.91,192.8L34.34,180.03L41.21,157.44L44.65,147.62L51.52,130.96L54.95,124.06L58.38,143.94L61.82,131.92L68.69,110.78L72.12,101.67L78.99,86.39L82.42,80.22L85.86,74.98L89.29,89.92L96.16,71.75L99.6,64.11L106.46,51.73L109.9,47L113.33,43.2L116.77,60.1L123.64,44.7L127.07,38.43L133.94,28.76L137.37,25.37L140.81,22.89L144.24,39.74L151.11,27.54L154.55,22.86L161.41,16.35L164.85,14.52L168.28,13.6L171.72,44.2L178.59,32.16L182.02,27.54L188.89,21.1L192.32,19.28L195.76,18.41L199.19,18.49L202.63,19.51L206.06,21.48L209.49,20.44L212.93,22.35L216.36,25.17L219.8,25.84L230.1,33.3L233.54,37.11L236.97,38.46L240.4,41.94L243.84,44.68L247.27,48.45L254.14,55.72L257.58,59.16L267.88,72.1L271.31,77.72L274.75,80.93L278.18,86.24L285.05,96.41L288.48,102.86L291.92,106.85L295.35,112.97L305.66,130.55L309.09,137.28L315.96,150.42L319.39,158.34L322.83,165.75L326.26,170.98L340,201.13" style="vector-effect: non-scaling-stroke; fill: none; stroke: rgb(169, 169, 169); stroke-opacity: 1; stroke-width: 2px; opacity: 1;"/></g><g class="points"/><g class="text"/></g></g></g><g class="overplot"/><path class="xlines-above crisp" d="M0,0" style="fill: none;"/><path class="ylines-above crisp" d="M0,0" style="fill: none;"/><g class="overlines-above"/><g class="xaxislayer-above"/><g class="yaxislayer-above"><g class="ytick"><text text-anchor="end" x="79" y="4.199999999999999" transform="translate(0,368.07)" style="font-family: 'Open Sans', verdana, arial, sans-serif; font-size: 12px; fill: rgb(42, 63, 95); fill-opacity: 1; white-space: pre; opacity: 1;">−6</text></g><g class="ytick"><text text-anchor="end" x="79" y="4.199999999999999" style="font-family: 'Open Sans', verdana, arial, sans-serif; font-size: 12px; fill: rgb(42, 63, 95); fill-opacity: 1; white-space: pre; opacity: 1;" transform="translate(0,325.65999999999997)">−5</text></g><g class="ytick"><text text-anchor="end" x="79" y="4.199999999999999" style="font-family: 'Open Sans', verdana, arial, sans-serif; font-size: 12px; fill: rgb(42, 63, 95); fill-opacity: 1; white-space: pre; opacity: 1;" transform="translate(0,283.25)">−4</text></g><g class="ytick"><text text-anchor="end" x="79" y="4.199999999999999" style="font-family: 'Open Sans', verdana, arial, sans-serif; font-size: 12px; fill: rgb(42, 63, 95); fill-opacity: 1; white-space: pre; opacity: 1;" transform="translate(0,240.84)">−3</text></g><g class="ytick"><text text-anchor="end" x="79" y="4.199999999999999" style="font-family: 'Open Sans', verdana, arial, sans-serif; font-size: 12px; fill: rgb(42, 63, 95); fill-opacity: 1; white-space: pre; opacity: 1;" transform="translate(0,198.42000000000002)">−2</text></g><g class="ytick"><text text-anchor="end" x="79" y="4.199999999999999" style="font-family: 'Open Sans', verdana, arial, sans-serif; font-size: 12px; fill: rgb(42, 63, 95); fill-opacity: 1; white-space: pre; opacity: 1;" transform="translate(0,156.01)">−1</text></g><g class="ytick"><text text-anchor="end" x="79" y="4.199999999999999" style="font-family: 'Open Sans', verdana, arial, sans-serif; font-size: 12px; fill: rgb(42, 63, 95); fill-opacity: 1; white-space: pre; opacity: 1;" transform="translate(0,113.6)">0</text></g></g><g class="overaxes-above"/></g><g class="subplot x2y2"><g class="layer-subplot"><g class="shapelayer"/><g class="imagelayer"/></g><g class="minor-gridlayer"><g class="x2"/><g class="y2"/></g><g class="gridlayer"><g class="x2"><path class="x2grid crisp" transform="translate(148,0)" d="M0,474.00000000000006v272" style="stroke: rgb(235, 240, 248); stroke-opacity: 1; stroke-width: 1px;"/><path class="x2grid crisp" transform="translate(216,0)" d="M0,474.00000000000006v272" style="stroke: rgb(235, 240, 248); stroke-opacity: 1; stroke-width: 1px;"/><path class="x2grid crisp" transform="translate(284,0)" d="M0,474.00000000000006v272" style="stroke: rgb(235, 240, 248); stroke-opacity: 1; stroke-width: 1px;"/><path class="x2grid crisp" transform="translate(352,0)" d="M0,474.00000000000006v272" style="stroke: rgb(235, 240, 248); stroke-opacity: 1; stroke-width: 1px;"/></g><g class="y2"><path class="y2grid crisp" transform="translate(0,700.9200000000001)" d="M80,0h340" style="stroke: rgb(235, 240, 248); stroke-opacity: 1; stroke-width: 1px;"/><path class="y2grid crisp" transform="translate(0,576.9200000000001)" d="M80,0h340" style="stroke: rgb(235, 240, 248); stroke-opacity: 1; stroke-width: 1px;"/><path class="y2grid crisp" transform="translate(0,514.9200000000001)" d="M80,0h340" style="stroke: rgb(235, 240, 248); stroke-opacity: 1; stroke-width: 1px;"/></g></g><g class="zerolinelayer"><path class="y2zl zl crisp" transform="translate(0,638.9200000000001)" d="M80,0h340" style="stroke: rgb(235, 240, 248); stroke-opacity: 1; stroke-width: 2px;"/></g><path class="xlines-below"/><path class="ylines-below"/><g class="overlines-below"/><g class="xaxislayer-below"/><g class="yaxislayer-below"/><g class="overaxes-below"/><g class="plot" transform="translate(80,474.00000000000006)" clip-path="url(#clip42e191x2y2plot)"><g class="scatterlayer mlayer"><g class="trace scatter traceccf377" style="stroke-miterlimit: 2; opacity: 1;"><g class="fills"/><g class="errorbars"/><g class="lines"><path class="js-line" d="M0,157.7L6.87,158.26L10.3,158.27L27.47,158.34L30.91,159.03L85.86,160.08L89.29,161.07L127.07,162.36L130.51,162.43L140.81,162.66L144.24,163.53L206.06,165.22L209.49,166.58L233.54,168.01L236.97,168.45L261.01,170.06L264.44,170.45L288.48,172.07L291.92,172.56L315.96,174.4L319.39,174.73L336.57,176.2L340,176.61" style="vector-effect: non-scaling-stroke; fill: none; stroke: rgb(68, 1, 84); stroke-opacity: 1; stroke-width: 1px; opacity: 1;"/></g><g class="points"/><g class="text"/></g><g class="trace scatter traced1d4bf" style="stroke-miterlimit: 2; opacity: 1;"><g class="fills"/><g class="errorbars"/><g class="lines"><path class="js-line" d="M0,18.05L3.43,17.66L6.87,20.62L27.47,38.46L30.91,37.63L54.95,58.56L58.38,57.71L85.86,81.82L89.29,79.52L113.33,100.73L116.77,99.64L140.81,120.97L144.24,118.9L168.28,140.36L171.72,141.02L206.06,171.96L209.49,168.81L216.36,175.02L219.8,175.69L223.23,178.8L226.67,180.59L233.54,186.83L236.97,187.84L240.4,190.96L243.84,192.38L247.27,195.51L250.71,197.03L254.14,200.16L257.58,201.64L261.01,204.77L264.44,206.04L271.31,212.32L274.75,212.87L278.18,216.01L281.62,217.54L288.48,223.83L291.92,224.54L295.35,227.69L298.79,228.97L302.22,232.12L305.66,233.59L309.09,236.74L312.53,237.96L315.96,241.12L319.39,242.95L322.83,246.11L326.26,246.82L329.7,249.98L333.13,251.1L336.57,254.26L340,255.63" style="vector-effect: non-scaling-stroke; fill: none; stroke: rgb(69, 7, 90); stroke-opacity: 1; stroke-width: 1px; opacity: 1;"/></g><g class="points"/><g class="text"/></g><g class="trace scatter trace7f5230" style="stroke-miterlimit: 2; opacity: 1;"><g class="fills"/><g class="errorbars"/><g class="lines"><path class="js-line" d="M0,181.06L6.87,180.95L10.3,180.54L27.47,178.54L30.91,178.96L54.95,176.22L58.38,176.58L85.86,173.52L89.29,174.24L113.33,171.64L116.77,172.14L140.81,169.61L144.24,170.24L188.89,166.31L192.32,165.97L206.06,164.64L209.49,165.43L226.67,164.53L230.1,164.21L247.27,163.35L250.71,163.34L271.31,162.16L274.75,162.32L295.35,161.28L298.79,161.33L315.96,160.55L319.39,160.51L329.7,160.1L333.13,160.2L340,159.96" style="vector-effect: non-scaling-stroke; fill: none; stroke: rgb(69, 14, 96); stroke-opacity: 1; stroke-width: 1px; opacity: 1;"/></g><g class="points"/><g class="text"/></g><g class="trace scatter trace69c306" style="stroke-miterlimit: 2; opacity: 1;"><g class="fills"/><g class="errorbars"/><g class="lines"><path class="js-line" d="M0,197.19L6.87,196.28L10.3,195.63L54.95,187.78L58.38,187.53L85.86,182.51L89.29,182.63L140.81,174.02L144.24,174.1L206.06,163.64L209.49,164.1L233.54,160.69L236.97,160.43L261.01,157.21L264.44,156.9L288.48,153.7L291.92,153.5L309.09,151.32L312.53,151.06L329.7,148.95L333.13,148.74L340,147.95" style="vector-effect: non-scaling-stroke; fill: none; stroke: rgb(70, 20, 101); stroke-opacity: 1; stroke-width: 1px; opacity: 1;"/></g><g class="points"/><g class="text"/></g><g class="trace scatter trace6395d7" style="stroke-miterlimit: 2; opacity: 1;"><g class="fills"/><g class="errorbars"/><g class="lines"><path class="js-line" d="M0,188.69L3.43,188.98L6.87,188.4L27.47,185.14L30.91,185.53L54.95,181.66L58.38,182.15L85.86,177.84L89.29,178.37L113.33,174.68L116.77,175.1L140.81,171.42L144.24,171.94L168.28,168.37L171.72,168.75L206.06,163.66L209.49,164.03L233.54,161.3L236.97,161.14L261.01,158.66L264.44,158.49L288.48,155.93L291.92,155.84L309.09,154.12L312.53,153.96L329.7,152.31L333.13,152.16L340,151.55" style="vector-effect: non-scaling-stroke; fill: none; stroke: rgb(71, 26, 107); stroke-opacity: 1; stroke-width: 1px; opacity: 1;"/></g><g class="points"/><g class="text"/></g><g class="trace scatter trace29cde3" style="stroke-miterlimit: 2; opacity: 1;"><g class="fills"/><g class="errorbars"/><g class="lines"><path class="js-line" d="M0,13.98L3.43,13.6L6.87,16.64L27.47,35.01L30.91,34.17L54.95,55.73L58.38,54.91L85.86,79.72L89.29,77.31L113.33,99.12L116.77,98.04L140.81,119.99L144.24,117.84L168.28,139.93L171.72,141.15L206.06,172.99L209.49,169.22L216.36,175.63L219.8,176.23L223.23,179.44L226.67,181.28L233.54,187.71L236.97,188.71L240.4,191.93L243.84,193.39L247.27,196.61L250.71,198.18L254.14,201.41L257.58,202.94L261.01,206.17L264.44,207.46L271.31,213.93L274.75,214.42L278.18,217.65L281.62,219.25L288.48,225.74L291.92,226.43L295.35,229.67L298.79,231L302.22,234.25L305.66,235.74L309.09,238.99L312.53,240.25L315.96,243.5L319.39,245.4L322.83,248.66L326.26,249.35L329.7,252.61L333.13,253.74L336.57,257L340,258.4" style="vector-effect: non-scaling-stroke; fill: none; stroke: rgb(71, 32, 113); stroke-opacity: 1; stroke-width: 1px; opacity: 1;"/></g><g class="points"/><g class="text"/></g><g class="trace scatter traceae7049" style="stroke-miterlimit: 2; opacity: 1;"><g class="fills"/><g class="errorbars"/><g class="lines"><path class="js-line" d="M0,200.54L10.3,198.78L13.74,198.08L54.95,190.28L58.38,190.12L103.03,181.66L106.46,181L140.81,174.81L144.24,174.58L168.28,170L171.72,170.06L223.23,160.59L226.67,160.05L285.05,150.42L288.48,149.82L326.26,143.95L329.7,143.36L340,141.81" style="vector-effect: non-scaling-stroke; fill: none; stroke: rgb(72, 39, 119); stroke-opacity: 1; stroke-width: 1px; opacity: 1;"/></g><g class="points"/><g class="text"/></g><g class="trace scatter tracebd84f8" style="stroke-miterlimit: 2; opacity: 1;"><g class="fills"/><g class="errorbars"/><g class="lines"><path class="js-line" d="M0,163.28L6.87,163.76L10.3,163.65L27.47,163.18L30.91,163.91L54.95,163.31L58.38,163.93L85.86,163.35L89.29,164.37L113.33,163.98L116.77,164.79L140.81,164.43L144.24,165.36L199.19,165.3L202.63,165.3L206.06,165.29L209.49,166.49L233.54,167.2L236.97,167.58L254.14,168.21L257.58,168.51L271.31,168.91L274.75,169.39L295.35,170.24L298.79,170.59L315.96,171.39L319.39,171.65L333.13,172.59L336.57,172.65L340,172.99" style="vector-effect: non-scaling-stroke; fill: none; stroke: rgb(71, 44, 122); stroke-opacity: 1; stroke-width: 1px; opacity: 1;"/></g><g class="points"/><g class="text"/></g><g class="trace scatter trace485096" style="stroke-miterlimit: 2; opacity: 1;"><g class="fills"/><g class="errorbars"/><g class="lines"><path class="js-line" d="M0,208.09L17.17,204.13L20.61,203.39L85.86,189.05L89.29,187.92L168.28,170.81L171.72,170.59L206.06,163.42L209.49,161.88L254.14,152.32L257.58,151.54L322.83,137.89L326.26,137.08L340,134.22" style="vector-effect: non-scaling-stroke; fill: none; stroke: rgb(69, 49, 125); stroke-opacity: 1; stroke-width: 1px; opacity: 1;"/></g><g class="points"/><g class="text"/></g><g class="trace scatter trace9df074" style="stroke-miterlimit: 2; opacity: 1;"><g class="fills"/><g class="errorbars"/><g class="lines"><path class="js-line" d="M0,193.21L6.87,192.61L10.3,192L27.47,189.05L30.91,189.13L54.95,184.96L58.38,185.19L85.86,180.46L89.29,180.67L113.33,176.62L116.77,176.78L140.81,172.74L144.24,173.01L168.28,169.02L171.72,169.28L206.06,163.68L209.49,163.66L240.4,159.57L243.84,159.25L271.31,155.73L274.75,155.47L302.22,152.09L305.66,151.78L329.7,148.93L333.13,148.65L340,147.87" style="vector-effect: non-scaling-stroke; fill: none; stroke: rgb(68, 55, 128); stroke-opacity: 1; stroke-width: 1px; opacity: 1;"/></g><g class="points"/><g class="text"/></g><g class="trace scatter trace794e38" style="stroke-miterlimit: 2; opacity: 1;"><g class="fills"/><g class="errorbars"/><g class="lines"><path class="js-line" d="M0,186.96L3.43,187.36L6.87,186.79L27.47,183.61L30.91,184.05L54.95,180.31L58.38,180.98L85.86,176.75L89.29,177.45L113.33,173.79L116.77,174.28L140.81,170.71L144.24,171.41L168.28,167.86L171.72,168.24L206.06,163.27L209.49,163.81L233.54,161.25L236.97,161.12L261.01,158.78L264.44,158.65L288.48,156.25L291.92,156.19L309.09,154.58L312.53,154.44L329.7,152.91L333.13,152.76L340,152.2" style="vector-effect: non-scaling-stroke; fill: none; stroke: rgb(66, 60, 130); stroke-opacity: 1; stroke-width: 1px; opacity: 1;"/></g><g class="points"/><g class="text"/></g><g class="trace scatter trace6c5e29" style="stroke-miterlimit: 2; opacity: 1;"><g class="fills"/><g class="errorbars"/><g class="lines"><path class="js-line" d="M0,199L6.87,198.03L10.3,197.34L54.95,189.18L58.38,189.04L92.73,182.89L96.16,182.23L140.81,174.38L144.24,174.23L168.28,169.78L171.72,169.87L219.8,161.38L223.23,160.79L340,142.86" style="vector-effect: non-scaling-stroke; fill: none; stroke: rgb(64, 65, 133); stroke-opacity: 1; stroke-width: 1px; opacity: 1;"/></g><g class="points"/><g class="text"/></g><g class="trace scatter trace1f1430" style="stroke-miterlimit: 2; opacity: 1;"><g class="fills"/><g class="errorbars"/><g class="lines"><path class="js-line" d="M0,166.62L3.43,167.31L6.87,167.13L27.47,166.11L30.91,166.91L54.95,165.81L58.38,166.61L85.86,165.38L89.29,166.46L113.33,165.52L116.77,166.39L140.81,165.49L144.24,166.54L168.28,165.7L171.72,166.37L206.06,165.3L209.49,166.32L233.54,166.51L236.97,166.83L254.14,167.12L257.58,167.38L271.31,167.48L274.75,167.89L288.48,167.98L291.92,168.37L309.09,168.78L312.53,169.1L329.7,169.57L333.13,169.92L340,170.17" style="vector-effect: non-scaling-stroke; fill: none; stroke: rgb(63, 71, 136); stroke-opacity: 1; stroke-width: 1px; opacity: 1;"/></g><g class="points"/><g class="text"/></g><g class="trace scatter trace4b5914" style="stroke-miterlimit: 2; opacity: 1;"><g class="fills"/><g class="errorbars"/><g class="lines"><path class="js-line" d="M0,188.37L6.87,188L10.3,187.47L27.47,184.87L30.91,185.15L54.95,181.54L58.38,181.82L85.86,177.74L89.29,178.27L113.33,174.77L116.77,175.12L140.81,171.69L144.24,172.15L168.28,168.81L171.72,169.11L206.06,164.35L209.49,164.78L233.54,162.28L236.97,162.17L254.14,160.54L257.58,160.38L278.18,158.51L281.62,158.35L302.22,156.51L305.66,156.37L322.83,154.83L326.26,154.81L340,153.8" style="vector-effect: non-scaling-stroke; fill: none; stroke: rgb(61, 76, 137); stroke-opacity: 1; stroke-width: 1px; opacity: 1;"/></g><g class="points"/><g class="text"/></g><g class="trace scatter trace40f5af" style="stroke-miterlimit: 2; opacity: 1;"><g class="fills"/><g class="errorbars"/><g class="lines"><path class="js-line" d="M0,165.95L3.43,166.57L6.87,166.41L27.47,165.53L30.91,166.25L54.95,165.32L58.38,166.07L85.86,165L89.29,166.02L113.33,165.2L116.77,165.99L140.81,165.26L144.24,166.22L168.28,165.55L171.72,166.2L206.06,165.36L209.49,166.28L233.54,166.56L236.97,166.86L254.14,167.22L257.58,167.46L271.31,167.62L274.75,168.01L295.35,168.51L298.79,168.8L315.96,169.29L319.39,169.5L329.7,169.84L333.13,170.18L340,170.44" style="vector-effect: non-scaling-stroke; fill: none; stroke: rgb(59, 81, 138); stroke-opacity: 1; stroke-width: 1px; opacity: 1;"/></g><g class="points"/><g class="text"/></g><g class="trace scatter tracea144d6" style="stroke-miterlimit: 2; opacity: 1;"><g class="fills"/><g class="errorbars"/><g class="lines"><path class="js-line" d="M0,28.21L3.43,27.96L6.87,30.69L27.47,47.17L30.91,46.55L54.95,65.88L58.38,65.25L85.86,87.5L89.29,85.58L113.33,105.18L116.77,104.32L140.81,124.05L144.24,122.32L168.28,142.18L171.72,142.85L206.06,171.48L209.49,168.81L216.36,174.57L219.8,175.27L223.23,178.15L226.67,179.86L233.54,185.63L236.97,186.65L240.4,189.54L243.84,190.92L247.27,193.81L250.71,195.27L254.14,198.17L257.58,199.6L261.01,202.51L264.44,203.75L271.31,209.56L274.75,210.16L278.18,213.07L281.62,214.55L288.48,220.38L291.92,221.12L295.35,224.04L298.79,225.3L302.22,228.22L305.66,229.63L309.09,232.55L312.53,233.76L315.96,236.68L319.39,238.42L322.83,241.35L326.26,242.09L329.7,245.02L333.13,246.13L336.57,249.07L340,250.4" style="vector-effect: non-scaling-stroke; fill: none; stroke: rgb(45, 114, 142); stroke-opacity: 1; stroke-width: 1px; opacity: 1;"/></g><g class="points"/><g class="text"/></g><g class="trace scatter trace6e3d80" style="stroke-miterlimit: 2; opacity: 1;"><g class="fills"/><g class="errorbars"/><g class="lines"><path class="js-line" d="M0,177.6L6.87,177.58L10.3,177.23L27.47,175.56L30.91,176.03L54.95,173.72L58.38,174.11L85.86,171.56L89.29,172.31L113.33,170.16L116.77,170.66L140.81,168.61L144.24,169.29L188.89,166.14L192.32,165.86L206.06,164.79L209.49,165.61L233.54,164.52L236.97,164.64L254.14,164L257.58,164.05L271.31,163.42L274.75,163.63L295.35,162.95L298.79,163.06L315.96,162.57L319.39,162.58L329.7,162.35L333.13,162.5L340,162.38" style="vector-effect: non-scaling-stroke; fill: none; stroke: rgb(43, 118, 142); stroke-opacity: 1; stroke-width: 1px; opacity: 1;"/></g><g class="points"/><g class="text"/></g><g class="trace scatter trace865724" style="stroke-miterlimit: 2; opacity: 1;"><g class="fills"/><g class="errorbars"/><g class="lines"><path class="js-line" d="M0,201.11L10.3,199.29L13.74,198.59L54.95,190.65L58.38,190.26L106.46,181.36L109.9,180.69L140.81,175.17L144.24,175.06L206.06,163.59L209.49,163.77L240.4,158.86L243.84,158.43L271.31,154.12L274.75,153.83L302.22,149.73L305.66,149.33L329.7,145.88L333.13,145.57L340,144.62" style="vector-effect: non-scaling-stroke; fill: none; stroke: rgb(41, 122, 142); stroke-opacity: 1; stroke-width: 1px; opacity: 1;"/></g><g class="points"/><g class="text"/></g><g class="trace scatter traceac38fc" style="stroke-miterlimit: 2; opacity: 1;"><g class="fills"/><g class="errorbars"/><g class="lines"><path class="js-line" d="M0,190.74L6.87,190.29L10.3,189.7L27.47,186.91L30.91,187.12L54.95,183.15L58.38,183.57L85.86,179.03L89.29,179.41L113.33,175.54L116.77,175.84L140.81,172.01L144.24,172.38L168.28,168.64L171.72,168.96L206.06,163.67L209.49,163.82L240.4,160.14L243.84,159.87L271.31,156.69L274.75,156.51L302.22,153.48L305.66,153.23L329.7,150.7L333.13,150.48L340,149.79" style="vector-effect: non-scaling-stroke; fill: none; stroke: rgb(40, 126, 142); stroke-opacity: 1; stroke-width: 1px; opacity: 1;"/></g><g class="points"/><g class="text"/></g><g class="trace scatter tracef040ac" style="stroke-miterlimit: 2; opacity: 1;"><g class="fills"/><g class="errorbars"/><g class="lines"><path class="js-line" d="M0,23.13L3.43,22.8L6.87,25.65L27.47,42.86L30.91,42.13L54.95,62.32L58.38,61.57L85.86,84.83L89.29,82.62L113.33,103.08L116.77,102.08L140.81,122.7L144.24,120.73L168.28,141.46L171.72,142.58L206.06,172.47L209.49,169.03L216.36,175.05L219.8,175.64L223.23,178.65L226.67,180.4L233.54,186.44L236.97,187.4L240.4,190.42L243.84,191.81L247.27,194.84L250.71,196.32L254.14,199.35L257.58,200.81L261.01,203.84L264.44,205.07L271.31,211.15L274.75,211.64L278.18,214.68L281.62,216.2L288.48,222.29L291.92,222.96L295.35,226.01L298.79,227.28L302.22,230.33L305.66,231.75L309.09,234.8L312.53,236L315.96,239.06L319.39,240.86L322.83,243.92L326.26,244.59L329.7,247.66L333.13,248.75L336.57,251.81L340,253.14" style="vector-effect: non-scaling-stroke; fill: none; stroke: rgb(38, 130, 142); stroke-opacity: 1; stroke-width: 1px; opacity: 1;"/></g><g class="points"/><g class="text"/></g><g class="trace scatter trace520ed7" style="stroke-miterlimit: 2; opacity: 1;"><g class="fills"/><g class="errorbars"/><g class="lines"><path class="js-line" d="M0,200.37L10.3,198.61L13.74,197.92L54.95,190.15L58.38,189.97L96.16,182.9L99.6,182.23L140.81,174.74L144.24,174.49L168.28,169.94L171.72,170L223.23,160.55L226.67,160.01L281.62,150.98L285.05,150.39L336.57,142.25L340,141.77" style="vector-effect: non-scaling-stroke; fill: none; stroke: rgb(37, 135, 141); stroke-opacity: 1; stroke-width: 1px; opacity: 1;"/></g><g class="points"/><g class="text"/></g><g class="trace scatter trace1a588c" style="stroke-miterlimit: 2; opacity: 1;"><g class="fills"/><g class="errorbars"/><g class="lines"><path class="js-line" d="M0,160.43L6.87,161L10.3,160.94L27.47,160.71L30.91,161.47L54.95,161.22L58.38,161.88L85.86,161.69L89.29,162.77L113.33,162.73L116.77,163.54L140.81,163.57L144.24,164.56L206.06,165.32L209.49,166.65L233.54,167.73L236.97,168.16L254.14,169.05L257.58,169.4L271.31,170L274.75,170.54L295.35,171.71L298.79,172.11L315.96,173.16L319.39,173.47L329.7,174.17L333.13,174.63L340,175.12" style="vector-effect: non-scaling-stroke; fill: none; stroke: rgb(36, 140, 140); stroke-opacity: 1; stroke-width: 1px; opacity: 1;"/></g><g class="points"/><g class="text"/></g><g class="trace scatter trace6c3930" style="stroke-miterlimit: 2; opacity: 1;"><g class="fills"/><g class="errorbars"/><g class="lines"><path class="js-line" d="M0,208.88L13.74,205.59L17.17,204.84L85.86,189.5L89.29,188.25L182.02,168.35L185.45,167.62L206.06,163.37L209.49,161.71L247.27,153.4L250.71,152.58L288.48,144.48L291.92,143.59L329.7,135.55L333.13,134.72L340,133.27" style="vector-effect: non-scaling-stroke; fill: none; stroke: rgb(34, 144, 140); stroke-opacity: 1; stroke-width: 1px; opacity: 1;"/></g><g class="points"/><g class="text"/></g><g class="trace scatter trace2a85c6" style="stroke-miterlimit: 2; opacity: 1;"><g class="fills"/><g class="errorbars"/><g class="lines"><path class="js-line" d="M0,195.34L6.87,194.65L10.3,194L48.08,187.72L51.52,187.11L85.86,181.68L89.29,181.82L113.33,177.54L116.77,177.63L140.81,173.39L144.24,173.55L168.28,169.38L171.72,169.6L206.06,163.7L209.49,163.6L247.27,158.31L250.71,157.94L278.18,154.24L281.62,153.89L309.09,150.26L312.53,149.94L336.57,146.89L340,146.56" style="vector-effect: non-scaling-stroke; fill: none; stroke: rgb(33, 148, 139); stroke-opacity: 1; stroke-width: 1px; opacity: 1;"/></g><g class="points"/><g class="text"/></g><g class="trace scatter tracec8333a" style="stroke-miterlimit: 2; opacity: 1;"><g class="fills"/><g class="errorbars"/><g class="lines"><path class="js-line" d="M0,185.89L3.43,186.34L6.87,185.78L27.47,182.69L30.91,183.18L54.95,179.55L58.38,180.25L85.86,176.16L89.29,176.86L113.33,173.34L116.77,173.86L140.81,170.41L144.24,171.13L168.28,167.7L171.72,168.1L206.06,163.32L209.49,163.86L233.54,161.42L236.97,161.3L261.01,159.08L264.44,158.96L288.48,156.68L291.92,156.63L309.09,155.1L312.53,154.97L329.7,153.52L333.13,153.39L340,152.86" style="vector-effect: non-scaling-stroke; fill: none; stroke: rgb(32, 153, 138); stroke-opacity: 1; stroke-width: 1px; opacity: 1;"/></g><g class="points"/><g class="text"/></g><g class="trace scatter trace6b175f" style="stroke-miterlimit: 2; opacity: 1;"><g class="fills"/><g class="errorbars"/><g class="lines"><path class="js-line" d="M0,200.65L10.3,198.85L13.74,198.16L54.95,190.38L58.38,190.14L109.9,180.38L113.33,179.74L123.64,178.06L127.07,177.4L168.28,169.99L171.72,170.02L223.23,160.48L226.67,159.92L295.35,148.45L298.79,147.93L340,141.35" style="vector-effect: non-scaling-stroke; fill: none; stroke: rgb(31, 158, 137); stroke-opacity: 1; stroke-width: 1px; opacity: 1;"/></g><g class="points"/><g class="text"/></g><g class="trace scatter traceac508a" style="stroke-miterlimit: 2; opacity: 1;"><g class="fills"/><g class="errorbars"/><g class="lines"><path class="js-line" d="M0,161.29L3.43,162.02L6.87,161.94L27.47,161.53L30.91,162.41L54.95,161.96L58.38,162.82L85.86,162.38L89.29,163.51L113.33,163.23L116.77,164.13L140.81,163.94L144.24,165L168.28,164.88L171.72,165.63L206.06,165.56L209.49,166.58L230.1,167.38L233.54,167.41L243.84,168.16L247.27,168.19L264.44,169.27L267.88,169.3L288.48,170.29L291.92,170.74L309.09,171.6L312.53,171.99L329.7,172.92L333.13,173.33L340,173.75" style="vector-effect: non-scaling-stroke; fill: none; stroke: rgb(34, 162, 135); stroke-opacity: 1; stroke-width: 1px; opacity: 1;"/></g><g class="points"/><g class="text"/></g><g class="trace scatter trace0d7105" style="stroke-miterlimit: 2; opacity: 1;"><g class="fills"/><g class="errorbars"/><g class="lines"><path class="js-line" d="M0,185.52L3.43,185.78L6.87,185.28L27.47,182.42L30.91,182.79L54.95,179.48L58.38,179.9L85.86,176.14L89.29,176.74L113.33,173.56L116.77,173.98L140.81,170.87L144.24,171.45L168.28,168.39L171.72,168.76L206.06,164.45L209.49,164.95L233.54,162.78L236.97,162.72L254.14,161.33L257.58,161.22L278.18,159.63L281.62,159.53L302.22,157.98L305.66,157.88L322.83,156.58L326.26,156.61L340,155.79" style="vector-effect: non-scaling-stroke; fill: none; stroke: rgb(38, 166, 132); stroke-opacity: 1; stroke-width: 1px; opacity: 1;"/></g><g class="points"/><g class="text"/></g><g class="trace scatter trace123bc9" style="stroke-miterlimit: 2; opacity: 1;"><g class="fills"/><g class="errorbars"/><g class="lines"><path class="js-line" d="M0,162.59L3.43,163.37L6.87,163.25L27.47,162.65L30.91,163.51L54.95,162.9L58.38,163.77L85.86,163.11L89.29,164.26L113.33,163.8L116.77,164.72L140.81,164.33L144.24,165.42L168.28,165.1L171.72,165.84L206.06,165.49L209.49,166.55L233.54,167.23L236.97,167.61L254.14,168.25L257.58,168.57L271.31,168.95L274.75,169.42L295.35,170.26L298.79,170.63L315.96,171.41L319.39,171.68L329.7,172.2L333.13,172.61L340,172.99" style="vector-effect: non-scaling-stroke; fill: none; stroke: rgb(41, 170, 130); stroke-opacity: 1; stroke-width: 1px; opacity: 1;"/></g><g class="points"/><g class="text"/></g><g class="trace scatter trace3d41f7" style="stroke-miterlimit: 2; opacity: 1;"><g class="fills"/><g class="errorbars"/><g class="lines"><path class="js-line" d="M0,155.29L6.87,155.85L10.3,155.9L54.95,157.19L58.38,157.6L85.86,158.17L89.29,159.37L140.81,160.95L144.24,161.86L168.28,162.49L171.72,160.32L206.06,161.32L209.49,164.71L223.23,165.78L226.67,166.01L254.14,167.63L257.58,167.89L271.31,168.62L274.75,169.35L302.22,170.97L305.66,171.31L329.7,172.86L333.13,173.27L340,173.78" style="vector-effect: non-scaling-stroke; fill: none; stroke: rgb(45, 174, 127); stroke-opacity: 1; stroke-width: 1px; opacity: 1;"/></g><g class="points"/><g class="text"/></g><g class="trace scatter trace274e36" style="stroke-miterlimit: 2; opacity: 1;"><g class="fills"/><g class="errorbars"/><g class="lines"><path class="js-line" d="M0,180.85L6.87,180.72L10.3,180.32L27.47,178.34L30.91,178.77L54.95,176.05L58.38,176.39L85.86,173.37L89.29,174.08L113.33,171.53L116.77,172.01L140.81,169.53L144.24,170.19L188.89,166.26L192.32,165.93L206.06,164.62L209.49,165.45L230.1,164.28L233.54,163.97L243.84,163.75L247.27,163.45L264.44,162.87L267.88,162.58L281.62,162.17L285.05,161.89L298.79,161.52L302.22,161.25L319.39,160.74L322.83,160.47L333.13,160.46L336.57,160.2L340,160.24" style="vector-effect: non-scaling-stroke; fill: none; stroke: rgb(96, 200, 96); stroke-opacity: 1; stroke-width: 1px; opacity: 1;"/></g><g class="points"/><g class="text"/></g><g class="trace scatter trace07395d" style="stroke-miterlimit: 2; opacity: 1;"><g class="fills"/><g class="errorbars"/><g class="lines"><path class="js-line" d="M0,200.94L10.3,199.1L13.74,198.4L78.99,186.02L82.42,185.35L113.33,179.91L116.77,179.65L168.28,170.43L171.72,169.93L206.06,163.55L209.49,163.7L240.4,158.82L243.84,158.38L271.31,154.09L274.75,153.8L302.22,149.71L305.66,149.3L329.7,145.87L333.13,145.54L340,144.6" style="vector-effect: non-scaling-stroke; fill: none; stroke: rgb(105, 204, 91); stroke-opacity: 1; stroke-width: 1px; opacity: 1;"/></g><g class="points"/><g class="text"/></g><g class="trace scatter traceb9cd52" style="stroke-miterlimit: 2; opacity: 1;"><g class="fills"/><g class="errorbars"/><g class="lines"><path class="js-line" d="M0,187.08L3.43,187.44L6.87,186.88L27.47,183.74L30.91,184.18L54.95,180.49L58.38,181.1L85.86,176.91L89.29,177.56L113.33,174L116.77,174.5L140.81,170.97L144.24,171.63L168.28,168.16L171.72,168.59L206.06,163.71L209.49,164.2L233.54,161.68L236.97,161.57L254.14,159.91L257.58,159.74L278.18,157.85L281.62,157.69L302.22,155.81L305.66,155.66L322.83,154.08L326.26,154.05L340,152.98" style="vector-effect: non-scaling-stroke; fill: none; stroke: rgb(115, 207, 85); stroke-opacity: 1; stroke-width: 1px; opacity: 1;"/></g><g class="points"/><g class="text"/></g><g class="trace scatter trace73be70" style="stroke-miterlimit: 2; opacity: 1;"><g class="fills"/><g class="errorbars"/><g class="lines"><path class="js-line" d="M0,26.56L3.43,26.47L6.87,29.21L27.47,45.78L30.91,45.32L54.95,64.77L58.38,64.34L85.86,86.71L89.29,84.92L113.33,104.64L116.77,103.97L140.81,123.81L144.24,122.25L168.28,142.22L171.72,143.42L206.06,172.23L209.49,169.33L216.36,175.13L219.8,175.87L223.23,178.77L226.67,180.53L233.54,186.36L236.97,187.41L240.4,190.32L243.84,191.77L247.27,194.69L250.71,196.22L254.14,199.14L257.58,200.64L261.01,203.57L264.44,204.86L271.31,210.72L274.75,211.35L278.18,214.29L281.62,215.84L288.48,221.72L291.92,222.51L295.35,225.45L298.79,226.79L302.22,229.73L305.66,231.2L309.09,234.14L312.53,235.42L315.96,238.37L319.39,240.18L322.83,243.13L326.26,243.92L329.7,246.88L333.13,248.05L336.57,251.01L340,252.39" style="vector-effect: non-scaling-stroke; fill: none; stroke: rgb(126, 210, 78); stroke-opacity: 1; stroke-width: 1px; opacity: 1;"/></g><g class="points"/><g class="text"/></g><g class="trace scatter trace260707" style="stroke-miterlimit: 2; opacity: 1;"><g class="fills"/><g class="errorbars"/><g class="lines"><path class="js-line" d="M0,198.6L6.87,197.65L10.3,196.97L54.95,188.88L58.38,188.76L92.73,182.72L96.16,182.06L140.81,174.25L144.24,174.14L168.28,169.71L171.72,169.81L216.36,161.91L219.8,161.42L271.31,153.31L274.75,152.85L322.83,145.58L326.26,145.17L340,143.16" style="vector-effect: non-scaling-stroke; fill: none; stroke: rgb(138, 212, 70); stroke-opacity: 1; stroke-width: 1px; opacity: 1;"/></g><g class="points"/><g class="text"/></g><g class="trace scatter tracedff8e3" style="stroke-miterlimit: 2; opacity: 1;"><g class="fills"/><g class="errorbars"/><g class="lines"><path class="js-line" d="M0,162.61L6.87,163.08L10.3,162.99L27.47,162.61L30.91,163.3L54.95,162.84L58.38,163.42L85.86,163L89.29,163.98L113.33,163.69L116.77,164.4L140.81,164.23L144.24,165.09L206.06,165.39L209.49,166.46L233.54,167.24L236.97,167.6L254.14,168.28L257.58,168.57L278.18,169.52L281.62,169.8L302.22,170.78L305.66,171.08L322.83,171.88L326.26,172.3L340,173.17" style="vector-effect: non-scaling-stroke; fill: none; stroke: rgb(149, 215, 63); stroke-opacity: 1; stroke-width: 1px; opacity: 1;"/></g><g class="points"/><g class="text"/></g><g class="trace scatter trace35d7a6" style="stroke-miterlimit: 2; opacity: 1;"><g class="fills"/><g class="errorbars"/><g class="lines"><path class="js-line" d="M0,207.69L120.2,181.1L123.64,180.35L333.13,136.36L336.57,135.7L340,134.98" style="vector-effect: non-scaling-stroke; fill: none; stroke: rgb(161, 217, 56); stroke-opacity: 1; stroke-width: 1px; opacity: 1;"/></g><g class="points"/><g class="text"/></g><g class="trace scatter trace2f4c03" style="stroke-miterlimit: 2; opacity: 1;"><g class="fills"/><g class="errorbars"/><g class="lines"><path class="js-line" d="M0,195.01L6.87,194.26L10.3,193.63L54.95,186.28L58.38,186.28L85.86,181.52L89.29,181.5L130.51,174.95L133.94,174.37L168.28,169.23L171.72,169.42L209.49,163.41L212.93,162.88L254.14,157.16L257.58,156.76L295.35,151.68L298.79,151.31L329.7,147.3L333.13,146.94L340,146.08" style="vector-effect: non-scaling-stroke; fill: none; stroke: rgb(172, 220, 49); stroke-opacity: 1; stroke-width: 1px; opacity: 1;"/></g><g class="points"/><g class="text"/></g><g class="trace scatter trace8d4a1b" style="stroke-miterlimit: 2; opacity: 1;"><g class="fills"/><g class="errorbars"/><g class="lines"><path class="js-line" d="M0,186.29L3.43,186.79L6.87,186.21L27.47,183.03L30.91,183.56L54.95,179.83L58.38,180.58L85.86,176.37L89.29,177.1L113.33,173.53L116.77,174.14L140.81,170.54L144.24,171.36L168.28,167.79L171.72,168.2L206.06,163.27L209.49,163.9L233.54,161.43L236.97,161.33L254.14,159.68L257.58,159.51L271.31,158.11L274.75,158.09L295.35,156.19L298.79,156.05L315.96,154.53L319.39,154.32L336.57,152.95L340,152.83" style="vector-effect: non-scaling-stroke; fill: none; stroke: rgb(184, 222, 43); stroke-opacity: 1; stroke-width: 1px; opacity: 1;"/></g><g class="points"/><g class="text"/></g><g class="trace scatter trace1b0407" style="stroke-miterlimit: 2; opacity: 1;"><g class="fills"/><g class="errorbars"/><g class="lines"><path class="js-line" d="M0,199.61L10.3,197.9L13.74,197.22L54.95,189.61L58.38,189.45L106.46,180.57L109.9,179.94L168.28,169.86L171.72,169.94L219.8,161.29L223.23,160.7L340,142.36" style="vector-effect: non-scaling-stroke; fill: none; stroke: rgb(195, 224, 42); stroke-opacity: 1; stroke-width: 1px; opacity: 1;"/></g><g class="points"/><g class="text"/></g><g class="trace scatter trace25ca72" style="stroke-miterlimit: 2; opacity: 1;"><g class="fills"/><g class="errorbars"/><g class="lines"><path class="js-line" d="M0,163.76L3.43,164.44L6.87,164.31L27.47,163.66L30.91,164.44L54.95,163.75L58.38,164.56L85.86,163.78L89.29,164.84L113.33,164.28L116.77,165.11L140.81,164.65L144.24,165.64L168.28,165.23L171.72,165.94L206.06,165.46L209.49,166.41L233.54,166.94L236.97,167.28L254.14,167.82L257.58,168.1L278.18,168.84L281.62,169.12L298.79,169.87L302.22,169.88L319.39,170.78L322.83,170.8L333.13,171.6L336.57,171.62L340,171.94" style="vector-effect: non-scaling-stroke; fill: none; stroke: rgb(207, 225, 41); stroke-opacity: 1; stroke-width: 1px; opacity: 1;"/></g><g class="points"/><g class="text"/></g><g class="trace scatter trace9d70ba" style="stroke-miterlimit: 2; opacity: 1;"><g class="fills"/><g class="errorbars"/><g class="lines"><path class="js-line" d="M0,185.54L3.43,185.8L6.87,185.3L27.47,182.44L30.91,182.79L54.95,179.5L58.38,179.89L85.86,176.15L89.29,176.77L113.33,173.59L116.77,174.02L140.81,170.9L144.24,171.47L168.28,168.42L171.72,168.78L206.06,164.46L209.49,165L233.54,162.83L236.97,162.79L254.14,161.4L257.58,161.3L271.31,160.06L274.75,160.11L295.35,158.51L298.79,158.46L315.96,157.2L319.39,157.07L329.7,156.37L333.13,156.36L340,155.92" style="vector-effect: non-scaling-stroke; fill: none; stroke: rgb(218, 227, 40); stroke-opacity: 1; stroke-width: 1px; opacity: 1;"/></g><g class="points"/><g class="text"/></g><g class="trace scatter traceeeaf1e" style="stroke-miterlimit: 2; opacity: 1;"><g class="fills"/><g class="errorbars"/><g class="lines"><path class="js-line" d="M0,166.03L3.43,166.69L6.87,166.52L27.47,165.61L30.91,166.41L54.95,165.38L58.38,166.13L85.86,165.04L89.29,166.14L113.33,165.27L116.77,166.13L140.81,165.32L144.24,166.37L168.28,165.62L171.72,166.29L206.06,165.34L209.49,166.37L233.54,166.63L236.97,166.96L254.14,167.32L257.58,167.58L271.31,167.73L274.75,168.15L295.35,168.64L298.79,168.96L315.96,169.45L319.39,169.67L329.7,170.02L333.13,170.38L340,170.64" style="vector-effect: non-scaling-stroke; fill: none; stroke: rgb(230, 228, 39); stroke-opacity: 1; stroke-width: 1px; opacity: 1;"/></g><g class="points"/><g class="text"/></g><g class="trace scatter trace97b291" style="stroke-miterlimit: 2; opacity: 1;"><g class="fills"/><g class="errorbars"/><g class="lines"><path class="js-line" d="M0,156.27L6.87,156.8L10.3,156.84L54.95,157.89L58.38,158.31L85.86,158.71L89.29,159.94L140.81,161.23L144.24,162.16L168.28,162.64L171.72,160.44L206.06,161.22L209.49,164.65L223.23,165.66L226.67,165.89L247.27,167.03L250.71,167.27L271.31,168.26L274.75,168.99L302.22,170.47L305.66,170.8L329.7,172.23L333.13,172.64L340,173.12" style="vector-effect: non-scaling-stroke; fill: none; stroke: rgb(241, 230, 38); stroke-opacity: 1; stroke-width: 1px; opacity: 1;"/></g><g class="points"/><g class="text"/></g><g class="trace scatter trace3847e1" style="stroke-miterlimit: 2; opacity: 1;"><g class="fills"/><g class="errorbars"/><g class="lines"><path class="js-line" d="M0,205.96L278.18,148.55L281.62,147.88L340,136.6" style="vector-effect: non-scaling-stroke; fill: none; stroke: rgb(253, 231, 37); stroke-opacity: 1; stroke-width: 1px; opacity: 1;"/></g><g class="points"/><g class="text"/></g></g></g><g class="overplot"/><path class="xlines-above crisp" d="M0,0" style="fill: none;"/><path class="ylines-above crisp" d="M0,0" style="fill: none;"/><g class="overlines-above"/><g class="xaxislayer-above"/><g class="yaxislayer-above"><g class="y2tick"><text text-anchor="end" x="79" y="4.199999999999999" transform="translate(0,700.9200000000001)" style="font-family: 'Open Sans', verdana, arial, sans-serif; font-size: 12px; fill: rgb(42, 63, 95); fill-opacity: 1; white-space: pre; opacity: 1;">−5</text></g><g class="y2tick"><text text-anchor="end" x="79" y="4.199999999999999" style="font-family: 'Open Sans', verdana, arial, sans-serif; font-size: 12px; fill: rgb(42, 63, 95); fill-opacity: 1; white-space: pre; opacity: 1;" transform="translate(0,638.9200000000001)">0</text></g><g class="y2tick"><text text-anchor="end" x="79" y="4.199999999999999" style="font-family: 'Open Sans', verdana, arial, sans-serif; font-size: 12px; fill: rgb(42, 63, 95); fill-opacity: 1; white-space: pre; opacity: 1;" transform="translate(0,576.9200000000001)">5</text></g><g class="y2tick"><text text-anchor="end" x="79" y="4.199999999999999" style="font-family: 'Open Sans', verdana, arial, sans-serif; font-size: 12px; fill: rgb(42, 63, 95); fill-opacity: 1; white-space: pre; opacity: 1;" transform="translate(0,514.9200000000001)">10</text></g></g><g class="overaxes-above"/></g><g class="subplot x3y3"><g class="layer-subplot"><g class="shapelayer"/><g class="imagelayer"/></g><g class="minor-gridlayer"><g class="x3"/><g class="y3"/></g><g class="gridlayer"><g class="x3"><path class="x3grid crisp" transform="translate(148,0)" d="M0,848.0000000000001v272" style="stroke: rgb(235, 240, 248); stroke-opacity: 1; stroke-width: 1px;"/><path class="x3grid crisp" transform="translate(216,0)" d="M0,848.0000000000001v272" style="stroke: rgb(235, 240, 248); stroke-opacity: 1; stroke-width: 1px;"/><path class="x3grid crisp" transform="translate(284,0)" d="M0,848.0000000000001v272" style="stroke: rgb(235, 240, 248); stroke-opacity: 1; stroke-width: 1px;"/><path class="x3grid crisp" transform="translate(352,0)" d="M0,848.0000000000001v272" style="stroke: rgb(235, 240, 248); stroke-opacity: 1; stroke-width: 1px;"/></g><g class="y3"><path class="y3grid crisp" transform="translate(0,1068.25)" d="M80,0h340" style="stroke: rgb(235, 240, 248); stroke-opacity: 1; stroke-width: 1px;"/><path class="y3grid crisp" transform="translate(0,1006.3800000000001)" d="M80,0h340" style="stroke: rgb(235, 240, 248); stroke-opacity: 1; stroke-width: 1px;"/><path class="y3grid crisp" transform="translate(0,882.6500000000001)" d="M80,0h340" style="stroke: rgb(235, 240, 248); stroke-opacity: 1; stroke-width: 1px;"/></g></g><g class="zerolinelayer"><path class="y3zl zl crisp" transform="translate(0,944.5100000000001)" d="M80,0h340" style="stroke: rgb(235, 240, 248); stroke-opacity: 1; stroke-width: 2px;"/></g><path class="xlines-below"/><path class="ylines-below"/><g class="overlines-below"/><g class="xaxislayer-below"/><g class="yaxislayer-below"/><g class="overaxes-below"/><g class="plot" transform="translate(80,848.0000000000001)" clip-path="url(#clip42e191x3y3plot)"><g class="scatterlayer mlayer"><g class="trace scatter trace270526" style="stroke-miterlimit: 2; opacity: 1;"><g class="fills"/><g class="errorbars"/><g class="lines"><path class="js-line" d="M0,201.27L3.43,188.3L6.87,188.3L27.47,188.3L30.91,172.96L54.95,172.96L58.38,160.02L85.86,160.02L89.29,146.02L113.33,146.02L116.77,130.6L140.81,130.6L144.24,120.39L168.28,120.39L171.72,96.51L206.06,96.51L209.49,98.54L216.36,98.54L219.8,93.1L223.23,93.1L226.67,89.99L233.54,89.99L236.97,84.64L240.4,84.64L243.84,81.22L247.27,81.22L250.71,77.72L254.14,77.72L257.58,74.66L261.01,74.66L264.44,70.99L271.31,70.99L274.75,67.02L278.18,67.02L281.62,63.31L288.48,63.31L291.92,58.41L295.35,58.41L298.79,54.79L302.22,54.79L305.66,51.08L309.09,51.08L312.53,48.07L315.96,48.07L319.39,43.66L322.83,43.66L326.26,40.81L329.7,40.81L333.13,36.41L336.57,36.41L340,34.69" style="vector-effect: non-scaling-stroke; fill: none; stroke: rgb(68, 1, 84); stroke-opacity: 1; stroke-width: 1px; opacity: 1;"/></g><g class="points"/><g class="text"/></g><g class="trace scatter tracef04c25" style="stroke-miterlimit: 2; opacity: 1;"><g class="fills"/><g class="errorbars"/><g class="lines"><path class="js-line" d="M0,191.58L3.43,178.34L6.87,178.34L27.47,178.34L30.91,164.85L54.95,164.85L58.38,152.34L85.86,152.34L89.29,138.78L113.33,138.78L116.77,123.95L140.81,123.95L144.24,113.15L168.28,113.15L171.72,96.51L206.06,96.51L209.49,91.17L216.36,91.17L219.8,88.63L223.23,88.63L226.67,85.15L233.54,85.15L236.97,80.98L240.4,80.98L243.84,77.33L247.27,77.33L250.71,74.15L254.14,74.15L257.58,70.53L261.01,70.53L264.44,67.31L271.31,67.31L274.75,62.62L278.18,62.62L281.62,59.08L288.48,59.08L291.92,54.76L295.35,54.76L298.79,51.13L302.22,51.13L305.66,47.51L309.09,47.51L312.53,44.59L315.96,44.59L319.39,40.17L322.83,40.17L326.26,37.48L329.7,37.48L333.13,34.3L336.57,34.3L340,30.96" style="vector-effect: non-scaling-stroke; fill: none; stroke: rgb(69, 7, 90); stroke-opacity: 1; stroke-width: 1px; opacity: 1;"/></g><g class="points"/><g class="text"/></g><g class="trace scatter traced5c23e" style="stroke-miterlimit: 2; opacity: 1;"><g class="fills"/><g class="errorbars"/><g class="lines"><path class="js-line" d="M0,211L3.43,194.41L6.87,194.41L27.47,194.41L30.91,180.54L54.95,180.54L58.38,163.29L85.86,163.29L89.29,147.7L113.33,147.7L116.77,131.72L140.81,131.72L144.24,120.02L168.28,120.02L171.72,96.51L206.06,96.51L209.49,94.66L216.36,94.66L219.8,90.31L223.23,90.31L226.67,86.78L233.54,86.78L236.97,81.25L240.4,81.25L243.84,77.6L247.27,77.6L250.71,73.66L254.14,73.66L257.58,69.87L261.01,69.87L264.44,65.93L271.31,65.93L274.75,60.99L278.18,60.99L281.62,56.86L288.48,56.86L291.92,52.13L295.35,52.13L298.79,47.95L302.22,47.95L305.66,43.96L309.09,43.96L312.53,40.34L315.96,40.34L319.39,36.88L322.83,36.88L326.26,33.45L329.7,33.45L333.13,29.32L336.57,29.32L340,25.3" style="vector-effect: non-scaling-stroke; fill: none; stroke: rgb(69, 14, 96); stroke-opacity: 1; stroke-width: 1px; opacity: 1;"/></g><g class="points"/><g class="text"/></g><g class="trace scatter tracef5b241" style="stroke-miterlimit: 2; opacity: 1;"><g class="fills"/><g class="errorbars"/><g class="lines"><path class="js-line" d="M0,256.3L3.43,232.07L6.87,232.07L27.47,232.07L30.91,212.08L54.95,212.08L58.38,193.57L85.86,193.57L89.29,173.33L113.33,173.33L116.77,147.55L140.81,147.55L144.24,134.43L168.28,134.43L171.72,96.51L206.06,96.51L209.49,100.59L216.36,100.59L219.8,99.63L223.23,99.63L226.67,95.64L233.54,95.64L236.97,89.55L240.4,89.55L243.84,84.9L247.27,84.9L250.71,79.1L254.14,79.1L257.58,74.02L261.01,74.02L264.44,69.1L271.31,69.1L274.75,65.63L278.18,65.63L281.62,60.01L288.48,60.01L291.92,53.12L295.35,53.12L298.79,47.92L302.22,47.92L305.66,42.82L309.09,42.82L312.53,38.63L315.96,38.63L319.39,32.78L322.83,32.78L326.26,28.48L329.7,28.48L333.13,24.23L336.57,24.23L340,19.75" style="vector-effect: non-scaling-stroke; fill: none; stroke: rgb(70, 20, 101); stroke-opacity: 1; stroke-width: 1px; opacity: 1;"/></g><g class="points"/><g class="text"/></g><g class="trace scatter trace678449" style="stroke-miterlimit: 2; opacity: 1;"><g class="fills"/><g class="errorbars"/><g class="lines"><path class="js-line" d="M0,159.89L3.43,151.64L6.87,151.64L27.47,151.64L30.91,141.83L54.95,141.83L58.38,133.37L85.86,133.37L89.29,124.64L113.33,124.64L116.77,115.43L140.81,115.43L144.24,107.87L168.28,107.87L171.72,96.51L206.06,96.51L209.49,93.75L216.36,93.75L219.8,90.4L223.23,90.4L226.67,88.23L233.54,88.23L236.97,85.01L240.4,85.01L243.84,82.79L247.27,82.79L250.71,80.87L254.14,80.87L257.58,78.71L261.01,78.71L264.44,76.27L271.31,76.27L274.75,72.98L278.18,72.98L281.62,70.84L288.48,70.84L291.92,67.54L295.35,67.54L298.79,65.48L302.22,65.48L305.66,63.29L309.09,63.29L312.53,61L315.96,61L319.39,59.84L322.83,59.84L326.26,56.44L329.7,56.44L333.13,54.36L336.57,54.36L340,52.45" style="vector-effect: non-scaling-stroke; fill: none; stroke: rgb(71, 26, 107); stroke-opacity: 1; stroke-width: 1px; opacity: 1;"/></g><g class="points"/><g class="text"/></g><g class="trace scatter tracea16ba7" style="stroke-miterlimit: 2; opacity: 1;"><g class="fills"/><g class="errorbars"/><g class="lines"><path class="js-line" d="M0,188.06L3.43,175.96L6.87,175.96L27.47,175.96L30.91,164L54.95,164L58.38,150.31L85.86,150.31L89.29,135.45L113.33,135.45L116.77,123.59L140.81,123.59L144.24,112.51L168.28,112.51L171.72,96.51L206.06,96.51L209.49,92.27L216.36,92.27L219.8,88.5L223.23,88.5L226.67,85.27L233.54,85.27L236.97,80.75L240.4,80.75L243.84,77.27L247.27,77.27L250.71,74.12L254.14,74.12L257.58,71.6L261.01,71.6L264.44,68.04L271.31,68.04L274.75,63.63L278.18,63.63L281.62,59.9L288.48,59.9L291.92,56.09L295.35,56.09L298.79,52.64L302.22,52.64L305.66,49.37L309.09,49.37L312.53,46.04L315.96,46.04L319.39,43.06L322.83,43.06L326.26,40.01L329.7,40.01L333.13,36.82L336.57,36.82L340,33.73" style="vector-effect: non-scaling-stroke; fill: none; stroke: rgb(71, 32, 113); stroke-opacity: 1; stroke-width: 1px; opacity: 1;"/></g><g class="points"/><g class="text"/></g><g class="trace scatter trace36537d" style="stroke-miterlimit: 2; opacity: 1;"><g class="fills"/><g class="errorbars"/><g class="lines"><path class="js-line" d="M0,167.13L3.43,157.94L6.87,157.94L27.47,157.94L30.91,147.91L54.95,147.91L58.38,136.96L85.86,136.96L89.29,127.25L113.33,127.25L116.77,117.92L140.81,117.92L144.24,108.79L168.28,108.79L171.72,96.51L206.06,96.51L209.49,93.23L216.36,93.23L219.8,90.2L223.23,90.2L226.67,87.63L233.54,87.63L236.97,84.14L240.4,84.14L243.84,81.62L247.27,81.62L250.71,79.21L254.14,79.21L257.58,76.83L261.01,76.83L264.44,74.32L271.31,74.32L274.75,71.04L278.18,71.04L281.62,68.1L288.48,68.1L291.92,64.5L295.35,64.5L298.79,62.24L302.22,62.24L305.66,59.8L309.09,59.8L312.53,56.81L315.96,56.81L319.39,54.93L322.83,54.93L326.26,52.46L329.7,52.46L333.13,49.9L336.57,49.9L340,47.78" style="vector-effect: non-scaling-stroke; fill: none; stroke: rgb(72, 39, 119); stroke-opacity: 1; stroke-width: 1px; opacity: 1;"/></g><g class="points"/><g class="text"/></g><g class="trace scatter trace69d5b5" style="stroke-miterlimit: 2; opacity: 1;"><g class="fills"/><g class="errorbars"/><g class="lines"><path class="js-line" d="M0,208.48L3.43,191.42L6.87,191.42L27.47,191.42L30.91,177.02L54.95,177.02L58.38,159.89L85.86,159.89L89.29,147.87L113.33,147.87L116.77,126.15L140.81,126.15L144.24,117.44L168.28,117.44L171.72,96.51L216.36,95.83L219.8,91.05L223.23,91.05L226.67,87.72L233.54,87.72L236.97,82.8L240.4,82.8L243.84,79.55L247.27,79.55L250.71,75.16L254.14,75.16L257.58,71.27L261.01,71.27L264.44,67.34L271.31,67.34L274.75,63.33L278.18,63.33L281.62,58.84L288.48,58.84L291.92,54.66L295.35,54.66L298.79,50.54L302.22,50.54L305.66,46.85L309.09,46.85L312.53,43.33L315.96,43.33L319.39,39.58L322.83,39.58L326.26,36.72L329.7,36.72L333.13,32.61L336.57,32.61L340,28.88" style="vector-effect: non-scaling-stroke; fill: none; stroke: rgb(71, 44, 122); stroke-opacity: 1; stroke-width: 1px; opacity: 1;"/></g><g class="points"/><g class="text"/></g><g class="trace scatter trace5214be" style="stroke-miterlimit: 2; opacity: 1;"><g class="fills"/><g class="errorbars"/><g class="lines"><path class="js-line" d="M0,170.56L3.43,159.74L6.87,159.74L27.47,159.74L30.91,149.93L54.95,149.93L58.38,139.43L85.86,139.43L89.29,128.66L113.33,128.66L116.77,118.2L140.81,118.2L144.24,108.89L168.28,108.89L171.72,96.51L206.06,96.51L209.49,93.75L216.36,93.75L219.8,90.01L223.23,90.01L226.67,87.37L233.54,87.37L236.97,83.79L240.4,83.79L243.84,81.25L247.27,81.25L250.71,78.6L254.14,78.6L257.58,76.21L261.01,76.21L264.44,73.62L271.31,73.62L274.75,70.07L278.18,70.07L281.62,67.24L288.48,67.24L291.92,63.58L295.35,63.58L298.79,61.21L302.22,61.21L305.66,58.63L309.09,58.63L312.53,56.05L315.96,56.05L319.39,53.98L322.83,53.98L326.26,51.2L329.7,51.2L333.13,48.24L336.57,48.24L340,46.07" style="vector-effect: non-scaling-stroke; fill: none; stroke: rgb(69, 49, 125); stroke-opacity: 1; stroke-width: 1px; opacity: 1;"/></g><g class="points"/><g class="text"/></g><g class="trace scatter trace0ef429" style="stroke-miterlimit: 2; opacity: 1;"><g class="fills"/><g class="errorbars"/><g class="lines"><path class="js-line" d="M0,165.1L3.43,155.36L6.87,155.36L27.47,155.36L30.91,145.58L54.95,145.58L58.38,135.48L85.86,135.48L89.29,126.43L113.33,126.43L116.77,116.56L140.81,116.56L144.24,107.25L168.28,107.25L171.72,96.51L206.06,96.51L209.49,93.26L216.36,93.26L219.8,90.27L223.23,90.27L226.67,87.83L233.54,87.83L236.97,84.27L240.4,84.27L243.84,82.21L247.27,82.21L250.71,79.87L254.14,79.87L257.58,77.44L261.01,77.44L264.44,75L271.31,75L274.75,71.76L278.18,71.76L281.62,69.37L288.48,69.37L291.92,65.63L295.35,65.63L298.79,63.47L302.22,63.47L305.66,61.1L309.09,61.1L312.53,58.84L315.96,58.84L319.39,44.24L322.83,44.24L326.26,53.95L329.7,53.95L333.13,51.61L336.57,51.61L340,49.54" style="vector-effect: non-scaling-stroke; fill: none; stroke: rgb(68, 55, 128); stroke-opacity: 1; stroke-width: 1px; opacity: 1;"/></g><g class="points"/><g class="text"/></g><g class="trace scatter trace47f755" style="stroke-miterlimit: 2; opacity: 1;"><g class="fills"/><g class="errorbars"/><g class="lines"><path class="js-line" d="M0,151.36L3.43,144.28L6.87,144.28L27.47,144.28L30.91,136.4L54.95,136.4L58.38,128.22L85.86,128.22L89.29,120.22L113.33,120.22L116.77,113.19L140.81,113.19L144.24,105.33L168.28,105.33L171.72,96.51L206.06,96.51L209.49,93.95L216.36,93.95L219.8,91.18L223.23,91.18L226.67,89.21L233.54,89.21L236.97,86.44L240.4,86.44L243.84,84.63L247.27,84.63L250.71,82.76L254.14,82.76L257.58,80.94L261.01,80.94L264.44,78.91L271.31,78.91L274.75,76.02L278.18,76.02L281.62,74.31L288.48,74.31L291.92,71.13L295.35,71.13L298.79,69.42L302.22,69.42L305.66,67.5L309.09,67.5L312.53,65.63L315.96,65.63L319.39,64.66L322.83,64.66L326.26,61.92L329.7,61.92L333.13,60.28L336.57,60.28L340,58.24" style="vector-effect: non-scaling-stroke; fill: none; stroke: rgb(66, 60, 130); stroke-opacity: 1; stroke-width: 1px; opacity: 1;"/></g><g class="points"/><g class="text"/></g><g class="trace scatter tracec1f86a" style="stroke-miterlimit: 2; opacity: 1;"><g class="fills"/><g class="errorbars"/><g class="lines"><path class="js-line" d="M0,167.47L3.43,157.77L6.87,157.77L27.47,157.77L30.91,148.7L54.95,148.7L58.38,137.64L85.86,137.64L89.29,127.93L113.33,127.93L116.77,117.04L140.81,117.04L144.24,108.04L168.28,108.04L171.72,96.51L206.06,96.51L209.49,93.4L216.36,93.4L219.8,90.13L223.23,90.13L226.67,87.62L233.54,87.62L236.97,83.91L240.4,83.91L243.84,81.58L247.27,81.58L250.71,77.56L254.14,77.56L257.58,76.73L261.01,76.73L264.44,74.22L271.31,74.22L274.75,70.69L278.18,70.69L281.62,68.02L288.48,68.02L291.92,64.46L295.35,64.46L298.79,62.11L302.22,62.11L305.66,59.67L309.09,59.67L312.53,57.16L315.96,57.16L319.39,55.25L322.83,55.25L326.26,52.16L329.7,52.16L333.13,49.49L336.57,49.49L340,47.43" style="vector-effect: non-scaling-stroke; fill: none; stroke: rgb(64, 65, 133); stroke-opacity: 1; stroke-width: 1px; opacity: 1;"/></g><g class="points"/><g class="text"/></g><g class="trace scatter traceda559d" style="stroke-miterlimit: 2; opacity: 1;"><g class="fills"/><g class="errorbars"/><g class="lines"><path class="js-line" d="M0,191.49L3.43,177.82L6.87,177.82L27.47,177.82L30.91,166.34L54.95,166.34L58.38,150.03L85.86,150.03L89.29,139.85L113.33,139.85L116.77,125.23L140.81,125.23L144.24,111.5L168.28,111.5L171.72,96.51L206.06,96.51L209.49,93.62L216.36,93.62L219.8,89.52L223.23,89.52L226.67,86.16L233.54,86.16L236.97,81.68L240.4,81.68L243.84,78.42L247.27,78.42L250.71,75.2L254.14,75.2L257.58,71.81L261.01,71.81L264.44,68.8L271.31,68.8L274.75,64.58L278.18,64.58L281.62,61.05L288.48,61.05L291.92,56.27L295.35,56.27L298.79,53.27L302.22,53.27L305.66,50.01L309.09,50.01L312.53,46.97L315.96,46.97L319.39,44.12L322.83,44.12L326.26,40.74L329.7,40.74L333.13,37L336.57,37L340,33.98" style="vector-effect: non-scaling-stroke; fill: none; stroke: rgb(63, 71, 136); stroke-opacity: 1; stroke-width: 1px; opacity: 1;"/></g><g class="points"/><g class="text"/></g><g class="trace scatter trace859839" style="stroke-miterlimit: 2; opacity: 1;"><g class="fills"/><g class="errorbars"/><g class="lines"><path class="js-line" d="M0,193.19L3.43,179.63L6.87,179.63L27.47,179.63L30.91,166.73L54.95,166.73L58.38,152.37L85.86,152.37L89.29,138.82L113.33,138.82L116.77,126.31L140.81,126.31L144.24,115.31L168.28,115.31L171.72,96.51L206.06,96.51L209.49,93.92L216.36,93.92L219.8,89.12L223.23,89.12L226.67,85.93L233.54,85.93L236.97,81.38L240.4,81.38L243.84,78.07L247.27,78.07L250.71,74.71L254.14,74.71L257.58,71.92L261.01,71.92L264.44,68.31L271.31,68.31L274.75,63.59L278.18,63.59L281.62,60.18L288.48,60.18L291.92,55.61L295.35,55.61L298.79,52.02L302.22,52.02L305.66,48.87L309.09,48.87L312.53,45.83L315.96,45.83L319.39,43.01L322.83,43.01L326.26,39.44L329.7,39.44L333.13,35.55L336.57,35.55L340,33.26" style="vector-effect: non-scaling-stroke; fill: none; stroke: rgb(61, 76, 137); stroke-opacity: 1; stroke-width: 1px; opacity: 1;"/></g><g class="points"/><g class="text"/></g><g class="trace scatter trace271f38" style="stroke-miterlimit: 2; opacity: 1;"><g class="fills"/><g class="errorbars"/><g class="lines"><path class="js-line" d="M0,188.49L3.43,178.08L6.87,178.08L27.47,178.08L30.91,166.72L54.95,166.72L58.38,148.84L85.86,148.84L89.29,137.27L113.33,137.27L116.77,125.85L140.81,125.85L144.24,112.33L168.28,112.33L171.72,96.51L206.06,96.51L209.49,93.85L216.36,93.85L219.8,89.32L223.23,89.32L226.67,86.29L233.54,86.29L236.97,81.75L240.4,81.75L243.84,78.56L247.27,78.56L250.71,75.31L254.14,75.31L257.58,71.95L261.01,71.95L264.44,69.33L271.31,69.33L274.75,64.56L278.18,64.56L281.62,61.31L288.48,61.31L291.92,56.6L295.35,56.6L298.79,54.06L302.22,54.06L305.66,50.34L309.09,50.34L312.53,47.51L315.96,47.51L319.39,44.67L322.83,44.67L326.26,41.57L329.7,41.57L333.13,37.38L336.57,37.38L340,34.54" style="vector-effect: non-scaling-stroke; fill: none; stroke: rgb(59, 81, 138); stroke-opacity: 1; stroke-width: 1px; opacity: 1;"/></g><g class="points"/><g class="text"/></g><g class="trace scatter trace32ecfa" style="stroke-miterlimit: 2; opacity: 1;"><g class="fills"/><g class="errorbars"/><g class="lines"><path class="js-line" d="M0,191.32L3.43,180.09L6.87,180.09L27.47,180.09L30.91,165.75L54.95,165.75L58.38,150.68L85.86,150.68L89.29,138.57L113.33,138.57L116.77,125.24L140.81,125.24L144.24,114.48L168.28,114.48L171.72,96.51L206.06,96.51L209.49,91.37L216.36,91.37L219.8,88.63L223.23,88.63L226.67,83.25L233.54,83.25L236.97,80.86L240.4,80.86L243.84,77.11L247.27,77.11L250.71,74.59L254.14,74.59L257.58,70.94L261.01,70.94L264.44,67.61L271.31,67.61L274.75,62.88L278.18,62.88L281.62,59.4L288.48,59.4L291.92,55.27L295.35,55.27L298.79,51.71L302.22,51.71L305.66,48.58L309.09,48.58L312.53,45.16L315.96,45.16L319.39,40.75L322.83,40.75L326.26,38.94L329.7,38.94L333.13,35.32L336.57,35.32L340,31.84" style="vector-effect: non-scaling-stroke; fill: none; stroke: rgb(45, 114, 142); stroke-opacity: 1; stroke-width: 1px; opacity: 1;"/></g><g class="points"/><g class="text"/></g><g class="trace scatter traceb6b8c1" style="stroke-miterlimit: 2; opacity: 1;"><g class="fills"/><g class="errorbars"/><g class="lines"><path class="js-line" d="M0,212.05L3.43,198.15L6.87,198.15L27.47,198.15L30.91,181.26L54.95,181.26L58.38,164.18L85.86,164.18L89.29,148.63L113.33,148.63L116.77,135.74L140.81,135.74L144.24,118.77L168.28,118.77L171.72,96.51L206.06,96.51L209.49,94.79L216.36,94.79L219.8,90.59L223.23,90.59L226.67,86.77L233.54,86.77L236.97,81.3L240.4,81.3L243.84,77.83L247.27,77.83L250.71,73.58L254.14,73.58L257.58,69.76L261.01,69.76L264.44,66.07L271.31,66.07L274.75,61.3L278.18,61.3L281.62,56.84L288.48,56.84L291.92,51.4L295.35,51.4L298.79,47.21L302.22,47.21L305.66,43.74L309.09,43.74L312.53,40.26L315.96,40.26L319.39,36.69L322.83,36.69L326.26,32.75L329.7,32.75L333.13,28.56L336.57,28.56L340,24.77" style="vector-effect: non-scaling-stroke; fill: none; stroke: rgb(43, 118, 142); stroke-opacity: 1; stroke-width: 1px; opacity: 1;"/></g><g class="points"/><g class="text"/></g><g class="trace scatter trace22e8f8" style="stroke-miterlimit: 2; opacity: 1;"><g class="fills"/><g class="errorbars"/><g class="lines"><path class="js-line" d="M0,253.3L3.43,237.31L6.87,237.31L27.47,237.31L30.91,216.35L54.95,216.35L58.38,195.44L85.86,195.44L89.29,169.74L113.33,169.74L116.77,152.48L140.81,152.48L144.24,135.03L168.28,135.03L171.72,96.51L206.06,96.51L209.49,99.43L216.36,99.43L219.8,96.88L223.23,96.88L226.67,92.06L233.54,92.06L236.97,86.19L240.4,86.19L243.84,80.65L247.27,80.65L250.71,75.32L254.14,75.32L257.58,70.82L261.01,70.82L264.44,65.85L271.31,65.85L274.75,60.48L278.18,60.48L281.62,54.52L288.48,54.52L291.92,49.67L295.35,49.67L298.79,40.67L302.22,40.67L305.66,38.12L309.09,38.12L312.53,32.77L315.96,32.77L319.39,27.15L322.83,27.15L326.26,23.57L329.7,23.57L333.13,16.97L336.57,16.97L340,13.6" style="vector-effect: non-scaling-stroke; fill: none; stroke: rgb(41, 122, 142); stroke-opacity: 1; stroke-width: 1px; opacity: 1;"/></g><g class="points"/><g class="text"/></g><g class="trace scatter tracea5832c" style="stroke-miterlimit: 2; opacity: 1;"><g class="fills"/><g class="errorbars"/><g class="lines"><path class="js-line" d="M0,161.85L3.43,152.97L6.87,152.97L27.47,152.97L30.91,143.39L54.95,143.39L58.38,132.95L85.86,132.95L89.29,124.56L113.33,124.56L116.77,115.49L140.81,115.49L144.24,107.53L168.28,107.53L171.72,96.51L206.06,96.51L209.49,93.46L216.36,93.46L219.8,90.55L223.23,90.55L226.67,88.31L233.54,88.31L236.97,84.81L240.4,84.81L243.84,82.75L247.27,82.75L250.71,80.63L254.14,80.63L257.58,78.32L261.01,78.32L264.44,75.91L271.31,75.91L274.75,72.44L278.18,72.44L281.62,70.33L288.48,70.33L291.92,67L295.35,67L298.79,64.82L302.22,64.82L305.66,62.54L309.09,62.54L312.53,60.41L315.96,60.41L319.39,59.19L322.83,59.19L326.26,55.63L329.7,55.63L333.13,53.44L336.57,53.44L340,51.5" style="vector-effect: non-scaling-stroke; fill: none; stroke: rgb(40, 126, 142); stroke-opacity: 1; stroke-width: 1px; opacity: 1;"/></g><g class="points"/><g class="text"/></g><g class="trace scatter tracebd484a" style="stroke-miterlimit: 2; opacity: 1;"><g class="fills"/><g class="errorbars"/><g class="lines"><path class="js-line" d="M0,188.73L3.43,176.49L6.87,176.49L27.47,176.49L30.91,163.32L54.95,163.32L58.38,150.43L85.86,150.43L89.29,136.29L113.33,136.29L116.77,125.94L140.81,125.94L144.24,112.56L168.28,112.56L171.72,96.51L206.06,96.51L209.49,92.8L216.36,92.8L219.8,88.57L223.23,88.57L226.67,85.35L233.54,85.35L236.97,80.91L240.4,80.91L243.84,77.32L247.27,77.32L250.71,74.55L254.14,74.55L257.58,71.06L261.01,71.06L264.44,67.77L271.31,67.77L274.75,63.56L278.18,63.56L281.62,59.66L288.48,59.66L291.92,55.89L295.35,55.89L298.79,52.44L302.22,52.44L305.66,49.42L309.09,49.42L312.53,46.21L315.96,46.21L319.39,42.77L322.83,42.77L326.26,40.16L329.7,40.16L333.13,36.46L336.57,36.46L340,33.52" style="vector-effect: non-scaling-stroke; fill: none; stroke: rgb(38, 130, 142); stroke-opacity: 1; stroke-width: 1px; opacity: 1;"/></g><g class="points"/><g class="text"/></g><g class="trace scatter trace358782" style="stroke-miterlimit: 2; opacity: 1;"><g class="fills"/><g class="errorbars"/><g class="lines"><path class="js-line" d="M0,165.95L3.43,157.07L6.87,157.07L27.47,157.07L30.91,146.92L54.95,146.92L58.38,136.85L85.86,136.85L89.29,126.9L113.33,126.9L116.77,117.78L140.81,117.78L144.24,108.64L168.28,108.64L171.72,96.51L206.06,96.51L209.49,93.52L216.36,93.52L219.8,90.24L223.23,90.24L226.67,87.75L233.54,87.75L236.97,83.98L240.4,83.98L243.84,81.73L247.27,81.73L250.71,79.52L254.14,79.52L257.58,77.14L261.01,77.14L264.44,74.45L271.31,74.45L274.75,70.99L278.18,70.99L281.62,68.79L288.48,68.79L291.92,65.06L295.35,65.06L298.79,62.52L302.22,62.52L305.66,60.33L309.09,60.33L312.53,57.94L315.96,57.94L319.39,56.11L322.83,56.11L326.26,52.96L329.7,52.96L333.13,50.6L336.57,50.6L340,48.42" style="vector-effect: non-scaling-stroke; fill: none; stroke: rgb(37, 135, 141); stroke-opacity: 1; stroke-width: 1px; opacity: 1;"/></g><g class="points"/><g class="text"/></g><g class="trace scatter trace9e7b1b" style="stroke-miterlimit: 2; opacity: 1;"><g class="fills"/><g class="errorbars"/><g class="lines"><path class="js-line" d="M0,207.81L3.43,190.71L6.87,190.71L27.47,190.71L30.91,177.91L54.95,177.91L58.38,158.8L85.86,158.8L89.29,147.48L113.33,147.48L116.77,129.49L140.81,129.49L144.24,116.32L168.28,116.32L171.72,96.51L216.36,96.15L219.8,91.73L223.23,91.73L226.67,88.24L233.54,88.24L236.97,83.02L240.4,83.02L243.84,80.16L247.27,80.16L250.71,76.29L254.14,76.29L257.58,72.25L261.01,72.25L264.44,68.85L271.31,68.85L274.75,64.65L278.18,64.65L281.62,60.04L288.48,60.04L291.92,55.44L295.35,55.44L298.79,51.38L302.22,51.38L305.66,47.99L309.09,47.99L312.53,44.53L315.96,44.53L319.39,40.6L322.83,40.6L326.26,34.36L329.7,34.36L333.13,33.1L336.57,33.1L340,31.32" style="vector-effect: non-scaling-stroke; fill: none; stroke: rgb(36, 140, 140); stroke-opacity: 1; stroke-width: 1px; opacity: 1;"/></g><g class="points"/><g class="text"/></g><g class="trace scatter trace880187" style="stroke-miterlimit: 2; opacity: 1;"><g class="fills"/><g class="errorbars"/><g class="lines"><path class="js-line" d="M0,168.26L3.43,158.07L6.87,158.07L27.47,158.07L30.91,148.72L54.95,148.72L58.38,137.25L85.86,137.25L89.29,128.15L113.33,128.15L116.77,117.23L140.81,117.23L144.24,108.61L168.28,108.61L171.72,96.51L206.06,96.51L209.49,93.54L216.36,93.54L219.8,90.13L223.23,90.13L226.67,87.55L233.54,87.55L236.97,83.96L240.4,83.96L243.84,81.54L247.27,81.54L250.71,79.21L254.14,79.21L257.58,75.08L261.01,75.08L264.44,74L271.31,74L274.75,70.63L278.18,70.63L281.62,68.22L288.48,68.22L291.92,64.31L295.35,64.31L298.79,61.97L302.22,61.97L305.66,59.43L309.09,59.43L312.53,56.91L315.96,56.91L319.39,54.97L322.83,54.97L326.26,52.06L329.7,52.06L333.13,49.36L336.57,49.36L340,45.59" style="vector-effect: non-scaling-stroke; fill: none; stroke: rgb(34, 144, 140); stroke-opacity: 1; stroke-width: 1px; opacity: 1;"/></g><g class="points"/><g class="text"/></g><g class="trace scatter trace598b94" style="stroke-miterlimit: 2; opacity: 1;"><g class="fills"/><g class="errorbars"/><g class="lines"><path class="js-line" d="M0,166.51L3.43,157.14L6.87,157.14L27.47,157.14L30.91,147.59L54.95,147.59L58.38,136.63L85.86,136.63L89.29,127.11L113.33,127.11L116.77,117.49L140.81,117.49L144.24,108.32L168.28,108.32L171.72,96.51L206.06,96.51L209.49,93.3L216.36,93.3L219.8,90.21L223.23,90.21L226.67,87.6L233.54,87.6L236.97,84.17L240.4,84.17L243.84,81.74L247.27,81.74L250.71,79.53L254.14,79.53L257.58,77.13L261.01,77.13L264.44,74.41L271.31,74.41L274.75,70.75L278.18,70.75L281.62,66.94L288.48,66.94L291.92,64.93L295.35,64.93L298.79,62.4L302.22,62.4L305.66,60.09L309.09,60.09L312.53,57.61L315.96,57.61L319.39,55.74L322.83,55.74L326.26,53.09L329.7,53.09L333.13,50.36L336.57,50.36L340,48.12" style="vector-effect: non-scaling-stroke; fill: none; stroke: rgb(33, 148, 139); stroke-opacity: 1; stroke-width: 1px; opacity: 1;"/></g><g class="points"/><g class="text"/></g><g class="trace scatter trace3451ae" style="stroke-miterlimit: 2; opacity: 1;"><g class="fills"/><g class="errorbars"/><g class="lines"><path class="js-line" d="M0,151.84L3.43,144.28L6.87,144.28L27.47,144.28L30.91,136.35L54.95,136.35L58.38,128.3L85.86,128.3L89.29,120.45L113.33,120.45L116.77,113.04L140.81,113.04L144.24,105.23L168.28,105.23L171.72,96.51L206.06,96.51L209.49,93.96L216.36,93.96L219.8,91.07L223.23,91.07L226.67,89.2L233.54,89.2L236.97,86.33L240.4,86.33L243.84,84.44L247.27,84.44L250.71,82.62L254.14,82.62L257.58,80.73L261.01,80.73L264.44,78.68L271.31,78.68L274.75,75.84L278.18,75.84L281.62,74.05L288.48,74.05L291.92,71.08L295.35,71.08L298.79,69.24L302.22,69.24L305.66,67.29L309.09,67.29L312.53,65.41L315.96,65.41L319.39,64.42L322.83,64.42L326.26,61.9L329.7,61.9L333.13,60.17L336.57,60.17L340,57.96" style="vector-effect: non-scaling-stroke; fill: none; stroke: rgb(32, 153, 138); stroke-opacity: 1; stroke-width: 1px; opacity: 1;"/></g><g class="points"/><g class="text"/></g><g class="trace scatter tracede91bb" style="stroke-miterlimit: 2; opacity: 1;"><g class="fills"/><g class="errorbars"/><g class="lines"><path class="js-line" d="M0,169.28L3.43,159.09L6.87,159.09L27.47,159.09L30.91,148.71L54.95,148.71L58.38,137.82L85.86,137.82L89.29,128.62L113.33,128.62L116.77,118.51L140.81,118.51L144.24,108.86L168.28,108.86L171.72,96.51L206.06,96.51L209.49,93.62L216.36,93.62L219.8,90.03L223.23,90.03L226.67,87.38L233.54,87.38L236.97,83.83L240.4,83.83L243.84,80.7L247.27,80.7L250.71,78.73L254.14,78.73L257.58,76.36L261.01,76.36L264.44,73.74L271.31,73.74L274.75,70.22L278.18,70.22L281.62,67.77L288.48,67.77L291.92,63.83L295.35,63.83L298.79,61.42L302.22,61.42L305.66,58.85L309.09,58.85L312.53,56.36L315.96,56.36L319.39,54.32L322.83,54.32L326.26,51.38L329.7,51.38L333.13,48.49L336.57,48.49L340,46.35" style="vector-effect: non-scaling-stroke; fill: none; stroke: rgb(31, 158, 137); stroke-opacity: 1; stroke-width: 1px; opacity: 1;"/></g><g class="points"/><g class="text"/></g><g class="trace scatter traceb0a0b1" style="stroke-miterlimit: 2; opacity: 1;"><g class="fills"/><g class="errorbars"/><g class="lines"><path class="js-line" d="M0,188.94L3.43,177.49L6.87,177.49L27.47,177.49L30.91,163.19L54.95,163.19L58.38,148.9L85.86,148.9L89.29,137.45L113.33,137.45L116.77,125.44L140.81,125.44L144.24,112.45L168.28,112.45L171.72,96.51L206.06,96.51L209.49,92.22L216.36,92.22L219.8,89.5L223.23,89.5L226.67,86.6L233.54,86.6L236.97,81.94L240.4,81.94L243.84,78.63L247.27,78.63L250.71,75.49L254.14,75.49L257.58,72.16L261.01,72.16L264.44,69.25L271.31,69.25L274.75,64.42L278.18,64.42L281.62,61.36L288.48,61.36L291.92,56.89L295.35,56.89L298.79,53.93L302.22,53.93L305.66,50.58L309.09,50.58L312.53,47.39L315.96,47.39L319.39,44.64L322.83,44.64L326.26,42.02L329.7,42.02L333.13,37.63L336.57,37.63L340,34.98" style="vector-effect: non-scaling-stroke; fill: none; stroke: rgb(34, 162, 135); stroke-opacity: 1; stroke-width: 1px; opacity: 1;"/></g><g class="points"/><g class="text"/></g><g class="trace scatter traceb0fbb1" style="stroke-miterlimit: 2; opacity: 1;"><g class="fills"/><g class="errorbars"/><g class="lines"><path class="js-line" d="M0,190.34L3.43,177.16L6.87,177.16L27.47,177.16L30.91,164.18L54.95,164.18L58.38,148.76L85.86,148.76L89.29,138.14L113.33,138.14L116.77,125.88L140.81,125.88L144.24,112.64L168.28,112.64L171.72,96.51L206.06,96.51L209.49,93.29L216.36,93.29L219.8,89.38L223.23,89.38L226.67,86.51L233.54,86.51L236.97,81.54L240.4,81.54L243.84,78.44L247.27,78.44L250.71,75.3L254.14,75.3L257.58,71.93L261.01,71.93L264.44,68.83L271.31,68.83L274.75,64.37L278.18,64.37L281.62,61.14L288.48,61.14L291.92,56.47L295.35,56.47L298.79,53.25L302.22,53.25L305.66,49.07L309.09,49.07L312.53,46.93L315.96,46.93L319.39,44.22L322.83,44.22L326.26,40.92L329.7,40.92L333.13,37.36L336.57,37.36L340,34.34" style="vector-effect: non-scaling-stroke; fill: none; stroke: rgb(38, 166, 132); stroke-opacity: 1; stroke-width: 1px; opacity: 1;"/></g><g class="points"/><g class="text"/></g><g class="trace scatter trace278cf2" style="stroke-miterlimit: 2; opacity: 1;"><g class="fills"/><g class="errorbars"/><g class="lines"><path class="js-line" d="M0,189.69L3.43,175.81L6.87,175.81L27.47,175.81L30.91,165.16L54.95,165.16L58.38,149.17L85.86,149.17L89.29,138.48L113.33,138.48L116.77,125.54L140.81,125.54L144.24,112.37L168.28,112.37L171.72,96.51L206.06,96.51L209.49,93.34L216.36,93.34L219.8,89.4L223.23,89.4L226.67,86.66L233.54,86.66L236.97,81.92L240.4,81.92L243.84,78.64L247.27,78.64L250.71,75.41L254.14,75.41L257.58,72.09L261.01,72.09L264.44,69.21L271.31,69.21L274.75,64.83L278.18,64.83L281.62,61.53L288.48,61.53L291.92,56.99L295.35,56.99L298.79,53.59L302.22,53.59L305.66,50.41L309.09,50.41L312.53,47.21L315.96,47.21L319.39,44.45L322.83,44.45L326.26,41.7L329.7,41.7L333.13,38.09L336.57,38.09L340,34.86" style="vector-effect: non-scaling-stroke; fill: none; stroke: rgb(41, 170, 130); stroke-opacity: 1; stroke-width: 1px; opacity: 1;"/></g><g class="points"/><g class="text"/></g><g class="trace scatter trace3eae21" style="stroke-miterlimit: 2; opacity: 1;"><g class="fills"/><g class="errorbars"/><g class="lines"><path class="js-line" d="M0,56.28L3.43,68.26L6.87,68.26L27.47,68.26L30.91,80.23L54.95,80.23L58.38,72.35L85.86,72.35L89.29,86.31L113.33,86.31L116.77,94.43L140.81,94.43L144.24,106.13L168.28,106.13L171.72,96.51L206.06,96.51L209.49,101.28L216.36,101.28L219.8,115.09L233.54,115.51L236.97,120.3L240.4,120.3L243.84,118.77L261.01,119.23L264.44,120.81L271.31,120.81L274.75,127.18L288.48,126.62L291.92,130.9L295.35,130.9L298.79,129.91L315.96,129.92L319.39,125.34L322.83,125.34L326.26,132.23L329.7,132.23L333.13,133.03L336.57,133.03L340,134.52" style="vector-effect: non-scaling-stroke; fill: none; stroke: rgb(45, 174, 127); stroke-opacity: 1; stroke-width: 1px; opacity: 1;"/></g><g class="points"/><g class="text"/></g><g class="trace scatter trace35d1ea" style="stroke-miterlimit: 2; opacity: 1;"><g class="fills"/><g class="errorbars"/><g class="lines"><path class="js-line" d="M0,211.58L3.43,196.64L6.87,196.64L27.47,196.64L30.91,180.5L54.95,180.5L58.38,164.07L85.86,164.07L89.29,149.27L113.33,149.27L116.77,133.92L140.81,133.92L144.24,117.46L168.28,117.46L171.72,96.51L206.06,96.51L209.49,95.18L216.36,95.18L219.8,90.59L223.23,90.59L226.67,86.89L233.54,86.89L236.97,81.39L240.4,81.39L243.84,78.33L247.27,78.33L250.71,73.84L254.14,73.84L257.58,69.13L261.01,69.13L264.44,65.97L271.31,65.97L274.75,61.2L278.18,61.2L281.62,56.66L288.48,56.66L291.92,52.86L295.35,52.86L298.79,48.29L302.22,48.29L305.66,44.19L309.09,44.19L312.53,40.5L315.96,40.5L319.39,36.93L322.83,36.93L326.26,32.93L329.7,32.93L333.13,29.53L336.57,29.53L340,25.34" style="vector-effect: non-scaling-stroke; fill: none; stroke: rgb(96, 200, 96); stroke-opacity: 1; stroke-width: 1px; opacity: 1;"/></g><g class="points"/><g class="text"/></g><g class="trace scatter traceb5e98f" style="stroke-miterlimit: 2; opacity: 1;"><g class="fills"/><g class="errorbars"/><g class="lines"><path class="js-line" d="M0,258.4L3.43,244.57L6.87,244.57L27.47,244.57L30.91,221.71L54.95,221.71L58.38,194.7L85.86,194.7L89.29,177.51L113.33,177.51L116.77,156.48L140.81,156.48L144.24,140.11L168.28,140.11L171.72,96.51L206.06,96.51L209.49,102.46L216.36,102.46L219.8,100.84L223.23,100.84L226.67,94.62L233.54,94.62L236.97,88.95L240.4,88.95L243.84,84.15L247.27,84.15L250.71,77.8L254.14,77.8L257.58,72.63L261.01,72.63L264.44,67.53L271.31,67.53L274.75,63.52L278.18,63.52L281.62,57.08L288.48,57.08L291.92,50.94L295.35,50.94L298.79,45L302.22,45L305.66,39.38L309.09,39.38L312.53,34.88L315.96,34.88L319.39,29.06L322.83,29.06L326.26,24.55L329.7,24.55L333.13,20.4L336.57,20.4L340,16.09" style="vector-effect: non-scaling-stroke; fill: none; stroke: rgb(105, 204, 91); stroke-opacity: 1; stroke-width: 1px; opacity: 1;"/></g><g class="points"/><g class="text"/></g><g class="trace scatter trace1a15fb" style="stroke-miterlimit: 2; opacity: 1;"><g class="fills"/><g class="errorbars"/><g class="lines"><path class="js-line" d="M0,159.35L3.43,150.92L6.87,150.92L27.47,150.92L30.91,141.81L54.95,141.81L58.38,132.4L85.86,132.4L89.29,124.2L113.33,124.2L116.77,115.24L140.81,115.24L144.24,106.91L168.28,106.91L171.72,96.51L206.06,96.51L209.49,93.61L216.36,93.61L219.8,90.46L223.23,90.46L226.67,88.35L233.54,88.35L236.97,85.11L240.4,85.11L243.84,82.96L247.27,82.96L250.71,81.05L254.14,81.05L257.58,78.95L261.01,78.95L264.44,76.57L271.31,76.57L274.75,73.32L278.18,73.32L281.62,71.23L288.48,71.23L291.92,67.96L295.35,67.96L298.79,65.92L302.22,65.92L305.66,63.62L309.09,63.62L312.53,61.44L315.96,61.44L319.39,60.31L322.83,60.31L326.26,56.88L329.7,56.88L333.13,55.04L336.57,55.04L340,52.78" style="vector-effect: non-scaling-stroke; fill: none; stroke: rgb(115, 207, 85); stroke-opacity: 1; stroke-width: 1px; opacity: 1;"/></g><g class="points"/><g class="text"/></g><g class="trace scatter tracede6eab" style="stroke-miterlimit: 2; opacity: 1;"><g class="fills"/><g class="errorbars"/><g class="lines"><path class="js-line" d="M0,188.84L3.43,176.16L6.87,176.16L27.47,176.16L30.91,164.41L54.95,164.41L58.38,147.85L85.86,147.85L89.29,136.78L113.33,136.78L116.77,123.91L140.81,123.91L144.24,112.14L168.28,112.14L171.72,96.51L206.06,96.51L209.49,92.46L216.36,92.46L219.8,88.68L223.23,88.68L226.67,85.6L233.54,85.6L236.97,80.87L240.4,80.87L243.84,77.9L247.27,77.9L250.71,74.71L254.14,74.71L257.58,71.65L261.01,71.65L264.44,68.21L271.31,68.21L274.75,63.81L278.18,63.81L281.62,60.9L288.48,60.9L291.92,55.8L295.35,55.8L298.79,53.09L302.22,53.09L305.66,49.82L309.09,49.82L312.53,46.47L315.96,46.47L319.39,42.93L322.83,42.93L326.26,40.5L329.7,40.5L333.13,36.5L336.57,36.5L340,33.92" style="vector-effect: non-scaling-stroke; fill: none; stroke: rgb(126, 210, 78); stroke-opacity: 1; stroke-width: 1px; opacity: 1;"/></g><g class="points"/><g class="text"/></g><g class="trace scatter tracef4c049" style="stroke-miterlimit: 2; opacity: 1;"><g class="fills"/><g class="errorbars"/><g class="lines"><path class="js-line" d="M0,165.92L3.43,156.72L6.87,156.72L27.47,156.72L30.91,147.76L54.95,147.76L58.38,137.19L85.86,137.19L89.29,126.66L113.33,126.66L116.77,118.78L140.81,118.78L144.24,107.89L168.28,107.89L171.72,96.51L206.06,96.51L209.49,93.4L216.36,93.4L219.8,90.23L223.23,90.23L226.67,87.69L233.54,87.69L236.97,84.05L240.4,84.05L243.84,81.8L247.27,81.8L250.71,79.4L254.14,79.4L257.58,77.17L261.01,77.17L264.44,74.62L271.31,74.62L274.75,71.1L278.18,71.1L281.62,68.75L288.48,68.75L291.92,65.13L295.35,65.13L298.79,62.81L302.22,62.81L305.66,60.46L309.09,60.46L312.53,58.08L315.96,58.08L319.39,56.32L322.83,56.32L326.26,53.14L329.7,53.14L333.13,50.73L336.57,50.73L340,48.58" style="vector-effect: non-scaling-stroke; fill: none; stroke: rgb(138, 212, 70); stroke-opacity: 1; stroke-width: 1px; opacity: 1;"/></g><g class="points"/><g class="text"/></g><g class="trace scatter trace5bc6f7" style="stroke-miterlimit: 2; opacity: 1;"><g class="fills"/><g class="errorbars"/><g class="lines"><path class="js-line" d="M0,203.41L3.43,188.39L6.87,188.39L27.47,188.39L30.91,175.26L54.95,175.26L58.38,159.79L85.86,159.79L89.29,142.98L113.33,142.98L116.77,131.66L140.81,131.66L144.24,118.33L168.28,118.33L171.72,96.51L206.06,96.51L209.49,93.83L216.36,93.83L219.8,90.27L223.23,90.27L226.67,87.45L233.54,87.45L236.97,82.05L240.4,82.05L243.84,76.05L247.27,76.05L250.71,74.41L254.14,74.41L257.58,71L261.01,71L264.44,67.59L271.31,67.59L274.75,63.75L278.18,63.75L281.62,59.58L288.48,59.58L291.92,54.53L295.35,54.53L298.79,50.53L302.22,50.53L305.66,47.6L309.09,47.6L312.53,44.23L315.96,44.23L319.39,40.61L322.83,40.61L326.26,39.02L329.7,39.02L333.13,33.42L336.57,33.42L340,30" style="vector-effect: non-scaling-stroke; fill: none; stroke: rgb(149, 215, 63); stroke-opacity: 1; stroke-width: 1px; opacity: 1;"/></g><g class="points"/><g class="text"/></g><g class="trace scatter trace664591" style="stroke-miterlimit: 2; opacity: 1;"><g class="fills"/><g class="errorbars"/><g class="lines"><path class="js-line" d="M0,168.22L3.43,157.72L6.87,157.72L27.47,157.72L30.91,149.13L54.95,149.13L58.38,137.94L85.86,137.94L89.29,128.53L113.33,128.53L116.77,118.71L140.81,118.71L144.24,108.38L168.28,108.38L171.72,96.51L206.06,96.51L209.49,93.85L216.36,93.85L219.8,90.12L223.23,90.12L226.67,87.36L233.54,87.36L236.97,84.36L240.4,84.36L243.84,81.61L247.27,81.61L250.71,79.18L254.14,79.18L257.58,76.71L261.01,76.71L264.44,74.05L271.31,74.05L274.75,69.8L278.18,69.8L281.62,67.69L288.48,67.69L291.92,64.28L295.35,64.28L298.79,61.99L302.22,61.99L305.66,59.44L309.09,59.44L312.53,56.98L315.96,56.98L319.39,55L322.83,55L326.26,52.08L329.7,52.08L333.13,49.34L336.57,49.34L340,47.11" style="vector-effect: non-scaling-stroke; fill: none; stroke: rgb(161, 217, 56); stroke-opacity: 1; stroke-width: 1px; opacity: 1;"/></g><g class="points"/><g class="text"/></g><g class="trace scatter trace4ade2c" style="stroke-miterlimit: 2; opacity: 1;"><g class="fills"/><g class="errorbars"/><g class="lines"><path class="js-line" d="M0,166.35L3.43,156.36L6.87,156.36L27.47,156.36L30.91,147.79L54.95,147.79L58.38,137.48L85.86,137.48L89.29,127.02L113.33,127.02L116.77,117.12L140.81,117.12L144.24,108.11L168.28,108.11L171.72,96.51L206.06,96.51L209.49,94.02L216.36,94.02L219.8,90.26L223.23,90.26L226.67,87.64L233.54,87.64L236.97,84.05L240.4,84.05L243.84,81.81L247.27,81.81L250.71,79.45L254.14,79.45L257.58,77.2L261.01,77.2L264.44,74.63L271.31,74.63L274.75,71.08L278.18,71.08L281.62,68.88L288.48,68.88L291.92,65.31L295.35,65.31L298.79,62.85L302.22,62.85L305.66,60.45L309.09,60.45L312.53,58.1L315.96,58.1L319.39,56.32L322.83,56.32L326.26,53.46L329.7,53.46L333.13,50.87L336.57,50.87L340,48.67" style="vector-effect: non-scaling-stroke; fill: none; stroke: rgb(172, 220, 49); stroke-opacity: 1; stroke-width: 1px; opacity: 1;"/></g><g class="points"/><g class="text"/></g><g class="trace scatter tracee247ee" style="stroke-miterlimit: 2; opacity: 1;"><g class="fills"/><g class="errorbars"/><g class="lines"><path class="js-line" d="M0,151.56L3.43,144.05L6.87,144.05L27.47,144.05L30.91,136.27L54.95,136.27L58.38,128.25L85.86,128.25L89.29,120.96L113.33,120.96L116.77,112.48L140.81,112.48L144.24,104.8L168.28,104.8L171.72,96.51L206.06,96.51L209.49,94.04L216.36,94.04L219.8,91.17L223.23,91.17L226.67,89.16L233.54,89.16L236.97,86.36L240.4,86.36L243.84,84.56L247.27,84.56L250.71,82.71L254.14,82.71L257.58,80.85L261.01,80.85L264.44,78.79L271.31,78.79L274.75,75.9L278.18,75.9L281.62,74.15L288.48,74.15L291.92,71.1L295.35,71.1L298.79,69.32L302.22,69.32L305.66,67.35L309.09,67.35L312.53,65.44L315.96,65.44L319.39,64.46L322.83,64.46L326.26,61.78L329.7,61.78L333.13,60.1L336.57,60.1L340,58.05" style="vector-effect: non-scaling-stroke; fill: none; stroke: rgb(184, 222, 43); stroke-opacity: 1; stroke-width: 1px; opacity: 1;"/></g><g class="points"/><g class="text"/></g><g class="trace scatter tracebf9a7a" style="stroke-miterlimit: 2; opacity: 1;"><g class="fills"/><g class="errorbars"/><g class="lines"><path class="js-line" d="M0,168.91L3.43,158.73L6.87,158.73L27.47,158.73L30.91,148.77L54.95,148.77L58.38,137.73L85.86,137.73L89.29,128.52L113.33,128.52L116.77,118.45L140.81,118.45L144.24,109.7L168.28,109.7L171.72,96.51L206.06,96.51L209.49,93.6L216.36,93.6L219.8,90.06L223.23,90.06L226.67,87.31L233.54,87.31L236.97,83.92L240.4,83.92L243.84,81.44L247.27,81.44L250.71,78.95L254.14,78.95L257.58,76.51L261.01,76.51L264.44,73.91L271.31,73.91L274.75,70.43L278.18,70.43L281.62,67.99L288.48,67.99L291.92,64.02L295.35,64.02L298.79,61.7L302.22,61.7L305.66,59.1L309.09,59.1L312.53,56.65L315.96,56.65L319.39,54.64L322.83,54.64L326.26,51.65L329.7,51.65L333.13,48.85L336.57,48.85L340,46.7" style="vector-effect: non-scaling-stroke; fill: none; stroke: rgb(195, 224, 42); stroke-opacity: 1; stroke-width: 1px; opacity: 1;"/></g><g class="points"/><g class="text"/></g><g class="trace scatter trace7af294" style="stroke-miterlimit: 2; opacity: 1;"><g class="fills"/><g class="errorbars"/><g class="lines"><path class="js-line" d="M0,190.14L3.43,178.43L6.87,178.43L27.47,178.43L30.91,166.39L54.95,166.39L58.38,148.91L85.86,148.91L89.29,138L113.33,138L116.77,126.49L140.81,126.49L144.24,113.2L168.28,113.2L171.72,96.51L206.06,96.51L209.49,93.53L216.36,93.53L219.8,89.55L223.23,89.55L226.67,86.19L233.54,86.19L236.97,81.63L240.4,81.63L243.84,78.49L247.27,78.49L250.71,75.26L254.14,75.26L257.58,71.9L261.01,71.9L264.44,69L271.31,69L274.75,64.48L278.18,64.48L281.62,61.22L288.48,61.22L291.92,56.78L295.35,56.78L298.79,53.43L302.22,53.43L305.66,50.09L309.09,50.09L312.53,47.24L315.96,47.24L319.39,44.41L322.83,44.41L326.26,40.74L329.7,40.74L333.13,37.25L336.57,37.25L340,34.31" style="vector-effect: non-scaling-stroke; fill: none; stroke: rgb(207, 225, 41); stroke-opacity: 1; stroke-width: 1px; opacity: 1;"/></g><g class="points"/><g class="text"/></g><g class="trace scatter tracecc6be1" style="stroke-miterlimit: 2; opacity: 1;"><g class="fills"/><g class="errorbars"/><g class="lines"><path class="js-line" d="M0,192.59L3.43,180.58L6.87,180.58L27.47,180.58L30.91,168.22L54.95,168.22L58.38,151.64L85.86,151.64L89.29,139.65L113.33,139.65L116.77,126.67L140.81,126.67L144.24,114.56L168.28,114.56L171.72,96.51L206.06,96.51L209.49,93.69L216.36,93.69L219.8,89.51L223.23,89.51L226.67,85.93L233.54,85.93L236.97,80.81L240.4,80.81L243.84,78.24L247.27,78.24L250.71,74.64L254.14,74.64L257.58,71.77L261.01,71.77L264.44,68.21L271.31,68.21L274.75,63.54L278.18,63.54L281.62,60.05L288.48,60.05L291.92,55.43L295.35,55.43L298.79,52.21L302.22,52.21L305.66,48.81L309.09,48.81L312.53,45.66L315.96,45.66L319.39,42.83L322.83,42.83L326.26,39.29L329.7,39.29L333.13,35.14L336.57,35.14L340,33.02" style="vector-effect: non-scaling-stroke; fill: none; stroke: rgb(218, 227, 40); stroke-opacity: 1; stroke-width: 1px; opacity: 1;"/></g><g class="points"/><g class="text"/></g><g class="trace scatter trace81bf97" style="stroke-miterlimit: 2; opacity: 1;"><g class="fills"/><g class="errorbars"/><g class="lines"><path class="js-line" d="M0,191.44L3.43,180.43L6.87,180.43L27.47,180.43L30.91,166.27L54.95,166.27L58.38,152.83L85.86,152.83L89.29,138.92L113.33,138.92L116.77,125.75L140.81,125.75L144.24,111.71L168.28,111.71L171.72,96.51L206.06,96.51L209.49,93.92L216.36,93.92L219.8,89.3L223.23,89.3L226.67,86.19L233.54,86.19L236.97,81.63L240.4,81.63L243.84,78.39L247.27,78.39L250.71,75.34L254.14,75.34L257.58,71.79L261.01,71.79L264.44,68.74L271.31,68.74L274.75,64.49L278.18,64.49L281.62,60.95L288.48,60.95L291.92,56.23L295.35,56.23L298.79,52.96L302.22,52.96L305.66,49.92L309.09,49.92L312.53,46.82L315.96,46.82L319.39,43.92L322.83,43.92L326.26,40.58L336.57,40.98L340,34.2" style="vector-effect: non-scaling-stroke; fill: none; stroke: rgb(230, 228, 39); stroke-opacity: 1; stroke-width: 1px; opacity: 1;"/></g><g class="points"/><g class="text"/></g><g class="trace scatter trace6e702a" style="stroke-miterlimit: 2; opacity: 1;"><g class="fills"/><g class="errorbars"/><g class="lines"><path class="js-line" d="M0,54.11L3.43,66.46L6.87,66.46L27.47,66.46L30.91,72.94L54.95,72.94L58.38,70.06L85.86,70.06L89.29,92.88L113.33,92.88L116.77,91.12L140.81,91.12L144.24,103.72L168.28,103.72L171.72,96.51L206.06,96.51L209.49,105.1L216.36,105.1L219.8,116.3L233.54,116.51L236.97,122.71L240.4,122.71L243.84,120.71L261.01,121L264.44,123.8L271.31,123.8L274.75,130.2L278.18,130.2L281.62,129.37L288.48,129.37L291.92,133.24L315.96,133.59L319.39,128.79L322.83,128.79L326.26,134.27L329.7,134.27L333.13,135.22L336.57,135.22L340,137.43" style="vector-effect: non-scaling-stroke; fill: none; stroke: rgb(241, 230, 38); stroke-opacity: 1; stroke-width: 1px; opacity: 1;"/></g><g class="points"/><g class="text"/></g><g class="trace scatter trace4c5b43" style="stroke-miterlimit: 2; opacity: 1;"><g class="fills"/><g class="errorbars"/><g class="lines"><path class="js-line" d="M0,168.92L3.43,159.08L6.87,159.08L27.47,159.08L30.91,149.04L54.95,149.04L58.38,138.05L85.86,138.05L89.29,128.68L113.33,128.68L116.77,118.23L140.81,118.23L144.24,108.2L168.28,108.2L171.72,96.51L206.06,96.51L209.49,93.77L216.36,93.77L219.8,90.08L223.23,90.08L226.67,87.47L233.54,87.47L236.97,83.93L240.4,83.93L243.84,81.48L247.27,81.48L250.71,79L254.14,79L257.58,76.57L261.01,76.57L264.44,74.18L271.31,74.18L274.75,70.39L278.18,70.39L281.62,67.99L288.48,67.99L291.92,64.09L295.35,64.09L298.79,61.62L302.22,61.62L305.66,59.21L309.09,59.21L312.53,56.62L315.96,56.62L319.39,54.63L322.83,54.63L326.26,51.6L329.7,51.6L333.13,48.88L336.57,48.88L340,46.76" style="vector-effect: non-scaling-stroke; fill: none; stroke: rgb(253, 231, 37); stroke-opacity: 1; stroke-width: 1px; opacity: 1;"/></g><g class="points"/><g class="text"/></g><g class="trace scatter trace909736" style="stroke-miterlimit: 2; opacity: 1;"><g class="fills"/><g class="errorbars"/><g class="lines"><path class="js-line" d="M0,193.86L3.43,182.36L6.87,182.36L27.47,182.36L30.91,173.19L54.95,173.19L58.38,154.87L85.86,154.87L89.29,146.14L113.33,146.14L116.77,135.03L140.81,135.03L144.24,123.13L168.28,123.13L171.72,96.51L206.06,96.51L209.49,102.34L216.36,102.34L219.8,101.57L223.23,101.57L226.67,98.17L233.54,98.17L236.97,95.38L240.4,95.38L243.84,92.16L247.27,92.16L250.71,88.91L254.14,88.91L257.58,85.9L261.01,85.9L264.44,81.97L271.31,81.97L274.75,79.99L278.18,79.99L281.62,76.09L288.48,76.09L291.92,72.37L295.35,72.37L298.79,69.53L302.22,69.53L305.66,66.23L309.09,66.23L312.53,63.13L315.96,63.13L319.39,60.5L322.83,60.5L326.26,56.33L329.7,56.33L333.13,54.86L336.57,54.86L340,51.86" style="vector-effect: non-scaling-stroke; fill: none; stroke: rgb(169, 169, 169); stroke-opacity: 1; stroke-width: 2px; opacity: 1;"/></g><g class="points"/><g class="text"/></g></g></g><g class="overplot"/><path class="xlines-above crisp" d="M0,0" style="fill: none;"/><path class="ylines-above crisp" d="M0,0" style="fill: none;"/><g class="overlines-above"/><g class="xaxislayer-above"><g class="x3tick"><text text-anchor="middle" x="0" y="1133" transform="translate(80,0)" style="font-family: 'Open Sans', verdana, arial, sans-serif; font-size: 12px; fill: rgb(42, 63, 95); fill-opacity: 1; white-space: pre; opacity: 1;">2.66</text></g><g class="x3tick"><text text-anchor="middle" x="0" y="1133" style="font-family: 'Open Sans', verdana, arial, sans-serif; font-size: 12px; fill: rgb(42, 63, 95); fill-opacity: 1; white-space: pre; opacity: 1;" transform="translate(148,0)">2.68</text></g><g class="x3tick"><text text-anchor="middle" x="0" y="1133" style="font-family: 'Open Sans', verdana, arial, sans-serif; font-size: 12px; fill: rgb(42, 63, 95); fill-opacity: 1; white-space: pre; opacity: 1;" transform="translate(216,0)">2.7</text></g><g class="x3tick"><text text-anchor="middle" x="0" y="1133" style="font-family: 'Open Sans', verdana, arial, sans-serif; font-size: 12px; fill: rgb(42, 63, 95); fill-opacity: 1; white-space: pre; opacity: 1;" transform="translate(284,0)">2.72</text></g><g class="x3tick"><text text-anchor="middle" x="0" y="1133" style="font-family: 'Open Sans', verdana, arial, sans-serif; font-size: 12px; fill: rgb(42, 63, 95); fill-opacity: 1; white-space: pre; opacity: 1;" transform="translate(352,0)">2.74</text></g><g class="x3tick"><text text-anchor="middle" x="0" y="1133" style="font-family: 'Open Sans', verdana, arial, sans-serif; font-size: 12px; fill: rgb(42, 63, 95); fill-opacity: 1; white-space: pre; opacity: 1;" transform="translate(420,0)">2.76</text></g></g><g class="yaxislayer-above"><g class="y3tick"><text text-anchor="end" x="79" y="4.199999999999999" transform="translate(0,1068.25)" style="font-family: 'Open Sans', verdana, arial, sans-serif; font-size: 12px; fill: rgb(42, 63, 95); fill-opacity: 1; white-space: pre; opacity: 1;">−0.2</text></g><g class="y3tick"><text text-anchor="end" x="79" y="4.199999999999999" style="font-family: 'Open Sans', verdana, arial, sans-serif; font-size: 12px; fill: rgb(42, 63, 95); fill-opacity: 1; white-space: pre; opacity: 1;" transform="translate(0,1006.3800000000001)">−0.1</text></g><g class="y3tick"><text text-anchor="end" x="79" y="4.199999999999999" style="font-family: 'Open Sans', verdana, arial, sans-serif; font-size: 12px; fill: rgb(42, 63, 95); fill-opacity: 1; white-space: pre; opacity: 1;" transform="translate(0,944.5100000000001)">0</text></g><g class="y3tick"><text text-anchor="end" x="79" y="4.199999999999999" style="font-family: 'Open Sans', verdana, arial, sans-serif; font-size: 12px; fill: rgb(42, 63, 95); fill-opacity: 1; white-space: pre; opacity: 1;" transform="translate(0,882.6500000000001)">0.1</text></g></g><g class="overaxes-above"/></g></g><g class="polarlayer"/><g class="smithlayer"/><g class="ternarylayer"/><g class="geolayer"/><g class="funnelarealayer"/><g class="pielayer"/><g class="iciclelayer"/><g class="treemaplayer"/><g class="sunburstlayer"/><g class="glimages"/><defs id="topdefs-42e191"><g class="clips"/><clipPath id="legend42e191"><rect width="188" height="29" x="0" y="0"/></clipPath></defs><g class="layer-above"><g class="imagelayer"/><g class="shapelayer"/></g><g class="infolayer"><g class="legend" pointer-events="all" transform="translate(232,50.59999999999998)"><rect class="bg" shape-rendering="crispEdges" style="stroke: rgb(68, 68, 68); stroke-opacity: 1; fill: rgb(255, 255, 255); fill-opacity: 1; stroke-width: 0px;" width="188" height="29" x="0" y="0"/><g class="scrollbox" transform="" clip-path="url(#legend42e191)"><g class="groups"><g class="traces" transform="translate(0,14.5)" style="opacity: 1;"><text class="legendtext" text-anchor="start" x="40" y="4.680000000000001" style="font-family: 'Open Sans', verdana, arial, sans-serif; font-size: 12px; fill: rgb(42, 63, 95); fill-opacity: 1; white-space: pre;">Population Log-likelihood</text><g class="layers" style="opacity: 1;"><g class="legendfill"/><g class="legendlines"><path class="js-line" d="M5,0h30" style="fill: none; stroke: rgb(169, 169, 169); stroke-opacity: 1; stroke-width: 2px;"/></g><g class="legendsymbols"><g class="legendpoints"/></g></g><rect class="legendtoggle" x="0" y="-9.5" width="184.703125" height="19" style="fill: rgb(0, 0, 0); fill-opacity: 0;"/></g></g></g><rect class="scrollbar" rx="20" ry="3" width="0" height="0" style="fill: rgb(128, 139, 164); fill-opacity: 1;" x="0" y="0"/></g><g class="g-gtitle"/><g class="g-xtitle"/><g class="g-x2title"/><g class="g-x3title"/><g class="g-ytitle"/><g class="g-y2title"/><g class="g-y3title"/></g></svg>