<svg class="main-svg" xmlns="http://www.w3.org/2000/svg" xmlns:xlink="http://www.w3.org/1999/xlink" width="500" height="1200" style="" viewBox="0 0 500 1200"><rect x="0" y="0" width="500" height="1200" style="fill: rgb(255, 255, 255); fill-opacity: 1;"/><defs id="defs-e2a7a9"><g class="clips"><clipPath id="clipe2a7a9xyplot" class="plotclip"><rect width="340" height="272.00000000000006"/></clipPath><clipPath id="clipe2a7a9x2y2plot" class="plotclip"><rect width="340" height="272"/></clipPath><clipPath id="clipe2a7a9x3y3plot" class="plotclip"><rect width="340" height="272"/></clipPath><clipPath class="axesclip" id="clipe2a7a9x"><rect x="80" y="0" width="340" height="1200"/></clipPath><clipPath class="axesclip" id="clipe2a7a9y"><rect x="0" y="100" width="500" height="272.00000000000006"/></clipPath><clipPath class="axesclip" id="clipe2a7a9xy"><rect x="80" y="100" width="340" height="272.00000000000006"/></clipPath><clipPath class="axesclip" id="clipe2a7a9y2"><rect x="0" y="474.00000000000006" width="500" height="272"/></clipPath><clipPath class="axesclip" id="clipe2a7a9xy2"><rect x="80" y="474.00000000000006" width="340" height="272"/></clipPath><clipPath class="axesclip" id="clipe2a7a9y3"><rect x="0" y="848.0000000000001" width="500" height="272"/></clipPath><clipPath class="axesclip" id="clipe2a7a9xy3"><rect x="80" y="848.0000000000001" width="340" height="272"/></clipPath><clipPath class="axesclip" id="clipe2a7a9x2"><rect x="80" y="0" width="340" height="1200"/></clipPath><clipPath class="axesclip" id="clipe2a7a9x2y"><rect x="80" y="100" width="340" height="272.00000000000006"/></clipPath><clipPath class="axesclip" id="clipe2a7a9x2y2"><rect x="80" y="474.00000000000006" width="340" height="272"/></clipPath><clipPath class="axesclip" id="clipe2a7a9x2y3"><rect x="80" y="848.0000000000001" width="340" height="272"/></clipPath><clipPath class="axesclip" id="clipe2a7a9x3"><rect x="80" y="0" width="340" height="1200"/></clipPath><clipPath class="axesclip" id="clipe2a7a9x3y"><rect x="80" y="100" width="340" height="272.00000000000006"/></clipPath><clipPath class="axesclip" id="clipe2a7a9x3y2"><rect x="80" y="474.00000000000006" width="340" height="272"/></clipPath><clipPath class="axesclip" id="clipe2a7a9x3y3"><rect x="80" y="848.0000000000001" width="340" height="272"/></clipPath></g><g class="gradients"/><g class="patterns"/></defs><g class="bglayer"/><g class="layer-below"><g class="imagelayer"/><g class="shapelayer"/></g><g class="cartesianlayer"><g class="subplot xy"><g class="layer-subplot"><g class="shapelayer"/><g class="imagelayer"/></g><g class="minor-gridlayer"><g class="x"/><g class="y"/></g><g class="gridlayer"><g class="x"><path class="xgrid crisp" transform="translate(114.97,0)" d="M0,100v272.00000000000006" style="stroke: rgb(235, 240, 248); stroke-opacity: 1; stroke-width: 1px;"/><path class="xgrid crisp" transform="translate(183.67000000000002,0)" d="M0,100v272.00000000000006" style="stroke: rgb(235, 240, 248); stroke-opacity: 1; stroke-width: 1px;"/><path class="xgrid crisp" transform="translate(252.37,0)" d="M0,100v272.00000000000006" style="stroke: rgb(235, 240, 248); stroke-opacity: 1; stroke-width: 1px;"/><path class="xgrid crisp" transform="translate(321.08000000000004,0)" d="M0,100v272.00000000000006" style="stroke: rgb(235, 240, 248); stroke-opacity: 1; stroke-width: 1px;"/><path class="xgrid crisp" transform="translate(389.78,0)" d="M0,100v272.00000000000006" style="stroke: rgb(235, 240, 248); stroke-opacity: 1; stroke-width: 1px;"/></g><g class="y"><path class="ygrid crisp" transform="translate(0,348.4)" d="M80,0h340" style="stroke: rgb(235, 240, 248); stroke-opacity: 1; stroke-width: 1px;"/><path class="ygrid crisp" transform="translate(0,309.37)" d="M80,0h340" style="stroke: rgb(235, 240, 248); stroke-opacity: 1; stroke-width: 1px;"/><path class="ygrid crisp" transform="translate(0,270.34000000000003)" d="M80,0h340" style="stroke: rgb(235, 240, 248); stroke-opacity: 1; stroke-width: 1px;"/><path class="ygrid crisp" transform="translate(0,231.31)" d="M80,0h340" style="stroke: rgb(235, 240, 248); stroke-opacity: 1; stroke-width: 1px;"/><path class="ygrid crisp" transform="translate(0,153.26)" d="M80,0h340" style="stroke: rgb(235, 240, 248); stroke-opacity: 1; stroke-width: 1px;"/><path class="ygrid crisp" transform="translate(0,114.23)" d="M80,0h340" style="stroke: rgb(235, 240, 248); stroke-opacity: 1; stroke-width: 1px;"/></g></g><g class="zerolinelayer"><path class="yzl zl crisp" transform="translate(0,192.28)" d="M80,0h340" style="stroke: rgb(235, 240, 248); stroke-opacity: 1; stroke-width: 2px;"/></g><path class="xlines-below"/><path class="ylines-below"/><g class="overlines-below"/><g class="xaxislayer-below"/><g class="yaxislayer-below"/><g class="overaxes-below"/><g class="plot" transform="translate(80,100)" clip-path="url(#clipe2a7a9xyplot)"><g class="scatterlayer mlayer"><g class="trace scatter trace998dd6" style="stroke-miterlimit: 2; opacity: 1;"><g class="fills"/><g class="errorbars"/><g class="lines"><path class="js-line" d="M0,258.4L13.74,208.43L17.17,197L30.91,155.37L34.34,145.96L44.65,120.01L48.08,112.1L58.38,90.54L61.82,84.05L72.12,66.61L75.56,61.45L85.86,47.85L89.29,43.93L99.6,33.9L103.03,31.12L113.33,24.39L116.77,22.66L127.07,18.95L130.51,18.19L140.81,17.23L144.24,17.34L154.55,18.86L157.98,19.75L168.28,23.47L171.72,25.05L182.02,30.7L185.45,32.87L199.19,42.87L202.63,45.66L219.8,61.12L223.23,64.47L243.84,85.88L247.27,89.62L309.09,156.98L312.53,160.37L329.7,176.05L333.13,178.9L340,184.26" style="vector-effect: non-scaling-stroke; fill: none; stroke: rgb(51, 34, 136); stroke-opacity: 1; stroke-width: 2px; opacity: 1;"/></g><g class="points"/><g class="text"/></g><g class="trace scatter trace86fedd" style="stroke-miterlimit: 2; opacity: 1;"><g class="fills"/><g class="errorbars"/><g class="lines"/><g class="points"><path class="point" transform="translate(57.02,93.49)" d="M-4.2,0A 5.7,5.7 0 0 1 0,4.2A 5.7,5.7 0 0 1 4.2,0A 5.7,5.7 0 0 1 0,-4.2A 5.7,5.7 0 0 1 -4.2,0Z" style="opacity: 0.5; stroke-width: 0px; fill: rgb(51, 34, 136); fill-opacity: 1;"/><path class="point" transform="translate(57.45,92.43)" d="M-4.2,0A 5.7,5.7 0 0 1 0,4.2A 5.7,5.7 0 0 1 4.2,0A 5.7,5.7 0 0 1 0,-4.2A 5.7,5.7 0 0 1 -4.2,0Z" style="opacity: 0.5; stroke-width: 0px; fill: rgb(51, 34, 136); fill-opacity: 1;"/><path class="point" transform="translate(57.49,92.29)" d="M-4.2,0A 5.7,5.7 0 0 1 0,4.2A 5.7,5.7 0 0 1 4.2,0A 5.7,5.7 0 0 1 0,-4.2A 5.7,5.7 0 0 1 -4.2,0Z" style="opacity: 0.5; stroke-width: 0px; fill: rgb(51, 34, 136); fill-opacity: 1;"/><path class="point" transform="translate(57.54,92.2)" d="M-4.2,0A 5.7,5.7 0 0 1 0,4.2A 5.7,5.7 0 0 1 4.2,0A 5.7,5.7 0 0 1 0,-4.2A 5.7,5.7 0 0 1 -4.2,0Z" style="opacity: 0.5; stroke-width: 0px; fill: rgb(51, 34, 136); fill-opacity: 1;"/><path class="point" transform="translate(57.76,91.78)" d="M-4.2,0A 5.7,5.7 0 0 1 0,4.2A 5.7,5.7 0 0 1 4.2,0A 5.7,5.7 0 0 1 0,-4.2A 5.7,5.7 0 0 1 -4.2,0Z" style="opacity: 0.5; stroke-width: 0px; fill: rgb(51, 34, 136); fill-opacity: 1;"/><path class="point" transform="translate(58.99,89.16)" d="M-4.2,0A 5.7,5.7 0 0 1 0,4.2A 5.7,5.7 0 0 1 4.2,0A 5.7,5.7 0 0 1 0,-4.2A 5.7,5.7 0 0 1 -4.2,0Z" style="opacity: 0.5; stroke-width: 0px; fill: rgb(51, 34, 136); fill-opacity: 1;"/><path class="point" transform="translate(137.11,17.35)" d="M-4.2,0A 5.7,5.7 0 0 1 0,4.2A 5.7,5.7 0 0 1 4.2,0A 5.7,5.7 0 0 1 0,-4.2A 5.7,5.7 0 0 1 -4.2,0Z" style="opacity: 0.5; stroke-width: 0px; fill: rgb(51, 34, 136); fill-opacity: 1;"/><path class="point" transform="translate(248.08,90.35)" d="M-4.2,0A 5.7,5.7 0 0 1 0,4.2A 5.7,5.7 0 0 1 4.2,0A 5.7,5.7 0 0 1 0,-4.2A 5.7,5.7 0 0 1 -4.2,0Z" style="opacity: 0.5; stroke-width: 0px; fill: rgb(51, 34, 136); fill-opacity: 1;"/><path class="point" transform="translate(249.3,91.73)" d="M-4.2,0A 5.7,5.7 0 0 1 0,4.2A 5.7,5.7 0 0 1 4.2,0A 5.7,5.7 0 0 1 0,-4.2A 5.7,5.7 0 0 1 -4.2,0Z" style="opacity: 0.5; stroke-width: 0px; fill: rgb(51, 34, 136); fill-opacity: 1;"/><path class="point" transform="translate(249.65,92.17)" d="M-4.2,0A 5.7,5.7 0 0 1 0,4.2A 5.7,5.7 0 0 1 4.2,0A 5.7,5.7 0 0 1 0,-4.2A 5.7,5.7 0 0 1 -4.2,0Z" style="opacity: 0.5; stroke-width: 0px; fill: rgb(51, 34, 136); fill-opacity: 1;"/><path class="point" transform="translate(249.72,92.3)" d="M-4.2,0A 5.7,5.7 0 0 1 0,4.2A 5.7,5.7 0 0 1 4.2,0A 5.7,5.7 0 0 1 0,-4.2A 5.7,5.7 0 0 1 -4.2,0Z" style="opacity: 0.5; stroke-width: 0px; fill: rgb(51, 34, 136); fill-opacity: 1;"/></g><g class="text"/></g></g></g><g class="overplot"/><path class="xlines-above crisp" d="M0,0" style="fill: none;"/><path class="ylines-above crisp" d="M0,0" style="fill: none;"/><g class="overlines-above"/><g class="xaxislayer-above"/><g class="yaxislayer-above"><g class="ytick"><text text-anchor="end" x="79" y="4.199999999999999" transform="translate(0,348.4)" style="font-family: 'Open Sans', verdana, arial, sans-serif; font-size: 12px; fill: rgb(42, 63, 95); fill-opacity: 1; white-space: pre; opacity: 1;">−4</text></g><g class="ytick"><text text-anchor="end" x="79" y="4.199999999999999" style="font-family: 'Open Sans', verdana, arial, sans-serif; font-size: 12px; fill: rgb(42, 63, 95); fill-opacity: 1; white-space: pre; opacity: 1;" transform="translate(0,309.37)">−3</text></g><g class="ytick"><text text-anchor="end" x="79" y="4.199999999999999" style="font-family: 'Open Sans', verdana, arial, sans-serif; font-size: 12px; fill: rgb(42, 63, 95); fill-opacity: 1; white-space: pre; opacity: 1;" transform="translate(0,270.34000000000003)">−2</text></g><g class="ytick"><text text-anchor="end" x="79" y="4.199999999999999" style="font-family: 'Open Sans', verdana, arial, sans-serif; font-size: 12px; fill: rgb(42, 63, 95); fill-opacity: 1; white-space: pre; opacity: 1;" transform="translate(0,231.31)">−1</text></g><g class="ytick"><text text-anchor="end" x="79" y="4.199999999999999" style="font-family: 'Open Sans', verdana, arial, sans-serif; font-size: 12px; fill: rgb(42, 63, 95); fill-opacity: 1; white-space: pre; opacity: 1;" transform="translate(0,192.28)">0</text></g><g class="ytick"><text text-anchor="end" x="79" y="4.199999999999999" style="font-family: 'Open Sans', verdana, arial, sans-serif; font-size: 12px; fill: rgb(42, 63, 95); fill-opacity: 1; white-space: pre; opacity: 1;" transform="translate(0,153.26)">1</text></g><g class="ytick"><text text-anchor="end" x="79" y="4.199999999999999" style="font-family: 'Open Sans', verdana, arial, sans-serif; font-size: 12px; fill: rgb(42, 63, 95); fill-opacity: 1; white-space: pre; opacity: 1;" transform="translate(0,114.23)">2</text></g></g><g class="overaxes-above"/></g><g class="subplot x2y2"><g class="layer-subplot"><g class="shapelayer"/><g class="imagelayer"/></g><g class="minor-gridlayer"><g class="x2"/><g class="y2"/></g><g class="gridlayer"><g class="x2"><path class="x2grid crisp" transform="translate(114.97,0)" d="M0,474.00000000000006v272" style="stroke: rgb(235, 240, 248); stroke-opacity: 1; stroke-width: 1px;"/><path class="x2grid crisp" transform="translate(183.67000000000002,0)" d="M0,474.00000000000006v272" style="stroke: rgb(235, 240, 248); stroke-opacity: 1; stroke-width: 1px;"/><path class="x2grid crisp" transform="translate(252.37,0)" d="M0,474.00000000000006v272" style="stroke: rgb(235, 240, 248); stroke-opacity: 1; stroke-width: 1px;"/><path class="x2grid crisp" transform="translate(321.08000000000004,0)" d="M0,474.00000000000006v272" style="stroke: rgb(235, 240, 248); stroke-opacity: 1; stroke-width: 1px;"/><path class="x2grid crisp" transform="translate(389.78,0)" d="M0,474.00000000000006v272" style="stroke: rgb(235, 240, 248); stroke-opacity: 1; stroke-width: 1px;"/></g><g class="y2"><path class="y2grid crisp" transform="translate(0,700.7800000000001)" d="M80,0h340" style="stroke: rgb(235, 240, 248); stroke-opacity: 1; stroke-width: 1px;"/><path class="y2grid crisp" transform="translate(0,646.76)" d="M80,0h340" style="stroke: rgb(235, 240, 248); stroke-opacity: 1; stroke-width: 1px;"/><path class="y2grid crisp" transform="translate(0,592.73)" d="M80,0h340" style="stroke: rgb(235, 240, 248); stroke-opacity: 1; stroke-width: 1px;"/><path class="y2grid crisp" transform="translate(0,484.6700000000001)" d="M80,0h340" style="stroke: rgb(235, 240, 248); stroke-opacity: 1; stroke-width: 1px;"/></g></g><g class="zerolinelayer"><path class="y2zl zl crisp" transform="translate(0,538.7)" d="M80,0h340" style="stroke: rgb(235, 240, 248); stroke-opacity: 1; stroke-width: 2px;"/></g><path class="xlines-below"/><path class="ylines-below"/><g class="overlines-below"/><g class="xaxislayer-below"/><g class="yaxislayer-below"/><g class="overaxes-below"/><g class="plot" transform="translate(80,474.00000000000006)" clip-path="url(#clipe2a7a9x2y2plot)"><g class="scatterlayer mlayer"><g class="trace scatter trace7cb9d8" style="stroke-miterlimit: 2; opacity: 1;"><g class="fills"/><g class="errorbars"/><g class="lines"><path class="js-line" d="M3.43,258.4L336.57,13.6" style="vector-effect: non-scaling-stroke; fill: none; stroke: rgb(51, 34, 136); stroke-opacity: 1; stroke-width: 2px; opacity: 1;"/></g><g class="points"/><g class="text"/></g></g></g><g class="overplot"/><path class="xlines-above crisp" d="M0,0" style="fill: none;"/><path class="ylines-above crisp" d="M0,0" style="fill: none;"/><g class="overlines-above"/><g class="xaxislayer-above"/><g class="yaxislayer-above"><g class="y2tick"><text text-anchor="end" x="79" y="4.199999999999999" transform="translate(0,700.7800000000001)" style="font-family: 'Open Sans', verdana, arial, sans-serif; font-size: 12px; fill: rgb(42, 63, 95); fill-opacity: 1; white-space: pre; opacity: 1;">−1500</text></g><g class="y2tick"><text text-anchor="end" x="79" y="4.199999999999999" style="font-family: 'Open Sans', verdana, arial, sans-serif; font-size: 12px; fill: rgb(42, 63, 95); fill-opacity: 1; white-space: pre; opacity: 1;" transform="translate(0,646.76)">−1000</text></g><g class="y2tick"><text text-anchor="end" x="79" y="4.199999999999999" style="font-family: 'Open Sans', verdana, arial, sans-serif; font-size: 12px; fill: rgb(42, 63, 95); fill-opacity: 1; white-space: pre; opacity: 1;" transform="translate(0,592.73)">−500</text></g><g class="y2tick"><text text-anchor="end" x="79" y="4.199999999999999" style="font-family: 'Open Sans', verdana, arial, sans-serif; font-size: 12px; fill: rgb(42, 63, 95); fill-opacity: 1; white-space: pre; opacity: 1;" transform="translate(0,538.7)">0</text></g><g class="y2tick"><text text-anchor="end" x="79" y="4.199999999999999" style="font-family: 'Open Sans', verdana, arial, sans-serif; font-size: 12px; fill: rgb(42, 63, 95); fill-opacity: 1; white-space: pre; opacity: 1;" transform="translate(0,484.6700000000001)">500</text></g></g><g class="overaxes-above"/></g><g class="subplot x3y3"><g class="layer-subplot"><g class="shapelayer"/><g class="imagelayer"/></g><g class="minor-gridlayer"><g class="x3"/><g class="y3"/></g><g class="gridlayer"><g class="x3"><path class="x3grid crisp" transform="translate(114.97,0)" d="M0,848.0000000000001v272" style="stroke: rgb(235, 240, 248); stroke-opacity: 1; stroke-width: 1px;"/><path class="x3grid crisp" transform="translate(183.67000000000002,0)" d="M0,848.0000000000001v272" style="stroke: rgb(235, 240, 248); stroke-opacity: 1; stroke-width: 1px;"/><path class="x3grid crisp" transform="translate(252.37,0)" d="M0,848.0000000000001v272" style="stroke: rgb(235, 240, 248); stroke-opacity: 1; stroke-width: 1px;"/><path class="x3grid crisp" transform="translate(321.08000000000004,0)" d="M0,848.0000000000001v272" style="stroke: rgb(235, 240, 248); stroke-opacity: 1; stroke-width: 1px;"/><path class="x3grid crisp" transform="translate(389.78,0)" d="M0,848.0000000000001v272" style="stroke: rgb(235, 240, 248); stroke-opacity: 1; stroke-width: 1px;"/></g><g class="y3"><path class="y3grid crisp" transform="translate(0,1086.8200000000002)" d="M80,0h340" style="stroke: rgb(235, 240, 248); stroke-opacity: 1; stroke-width: 1px;"/><path class="y3grid crisp" transform="translate(0,1006.7600000000001)" d="M80,0h340" style="stroke: rgb(235, 240, 248); stroke-opacity: 1; stroke-width: 1px;"/></g></g><g class="zerolinelayer"><path class="y3zl zl crisp" transform="translate(0,926.7100000000002)" d="M80,0h340" style="stroke: rgb(235, 240, 248); stroke-opacity: 1; stroke-width: 2px;"/></g><path class="xlines-below"/><path class="ylines-below"/><g class="overlines-below"/><g class="xaxislayer-below"/><g class="yaxislayer-below"/><g class="overaxes-below"/><g class="plot" transform="translate(80,848.0000000000001)" clip-path="url(#clipe2a7a9x3y3plot)"><g class="scatterlayer mlayer"><g class="trace scatter trace576b70" style="stroke-miterlimit: 2; opacity: 1;"><g class="fills"/><g class="errorbars"/><g class="lines"><path class="js-line" d="M0,78.83L147.68,78.71L151.11,78.71L267.88,79.45L271.31,79.95L281.62,82.72L285.05,84.16L291.92,88L295.35,90.45L302.22,96.6L305.66,100.34L312.53,109.32L315.96,114.62L322.83,126.99L326.26,134.12L333.13,150.41L336.57,159.63L340,169.62" style="vector-effect: non-scaling-stroke; fill: none; stroke: rgb(68, 1, 84); stroke-opacity: 1; stroke-width: 1px; opacity: 1;"/></g><g class="points"/><g class="text"/></g><g class="trace scatter trace1921b1" style="stroke-miterlimit: 2; opacity: 1;"><g class="fills"/><g class="errorbars"/><g class="lines"><path class="js-line" d="M0,78.83L147.68,78.71L151.11,78.71L267.88,79.43L271.31,79.92L281.62,82.62L285.05,84.02L291.92,87.76L295.35,90.15L302.22,96.13L305.66,99.78L312.53,108.53L315.96,113.69L322.83,125.73L326.26,132.68L333.13,148.54L336.57,157.53L340,167.25" style="vector-effect: non-scaling-stroke; fill: none; stroke: rgb(69, 7, 90); stroke-opacity: 1; stroke-width: 1px; opacity: 1;"/></g><g class="points"/><g class="text"/></g><g class="trace scatter trace6c3329" style="stroke-miterlimit: 2; opacity: 1;"><g class="fills"/><g class="errorbars"/><g class="lines"><path class="js-line" d="M0,78.85L151.11,78.71L154.55,78.71L264.44,79.18L267.88,79.6L278.18,82.12L281.62,83.51L288.48,87.33L291.92,89.83L298.79,96.2L302.22,100.13L309.09,109.69L312.53,115.38L319.39,128.77L322.83,136.54L329.7,154.41L333.13,164.59L340,187.59" style="vector-effect: non-scaling-stroke; fill: none; stroke: rgb(69, 14, 96); stroke-opacity: 1; stroke-width: 1px; opacity: 1;"/></g><g class="points"/><g class="text"/></g><g class="trace scatter tracebe0386" style="stroke-miterlimit: 2; opacity: 1;"><g class="fills"/><g class="errorbars"/><g class="lines"><path class="js-line" d="M0,78.88L103.03,78.71L106.46,78.71L264.44,79.32L267.88,79.85L274.75,81.69L278.18,83.1L285.05,87.1L288.48,89.79L295.35,96.79L298.79,101.18L305.66,112L309.09,118.52L315.96,133.99L319.39,143.04L326.26,163.99L329.7,175.99L336.57,203.27L340,218.63" style="vector-effect: non-scaling-stroke; fill: none; stroke: rgb(70, 20, 101); stroke-opacity: 1; stroke-width: 1px; opacity: 1;"/></g><g class="points"/><g class="text"/></g><g class="trace scatter trace0247e7" style="stroke-miterlimit: 2; opacity: 1;"><g class="fills"/><g class="errorbars"/><g class="lines"><path class="js-line" d="M0,78.79L257.58,78.75L261.01,78.83L274.75,80.04L278.18,80.66L288.48,83.64L291.92,85.07L298.79,88.71L302.22,90.96L309.09,96.42L312.53,99.67L319.39,107.33L322.83,111.77L329.7,121.99L333.13,127.81L340,140.96" style="vector-effect: non-scaling-stroke; fill: none; stroke: rgb(71, 26, 107); stroke-opacity: 1; stroke-width: 1px; opacity: 1;"/></g><g class="points"/><g class="text"/></g><g class="trace scatter trace3a0303" style="stroke-miterlimit: 2; opacity: 1;"><g class="fills"/><g class="errorbars"/><g class="lines"><path class="js-line" d="M0,78.82L144.24,78.71L147.68,78.71L267.88,79.42L271.31,79.91L281.62,82.58L285.05,83.97L291.92,87.67L295.35,90.04L302.22,95.97L305.66,99.58L312.53,108.25L315.96,113.37L322.83,125.3L326.26,132.18L333.13,147.9L336.57,156.8L340,166.43" style="vector-effect: non-scaling-stroke; fill: none; stroke: rgb(71, 32, 113); stroke-opacity: 1; stroke-width: 1px; opacity: 1;"/></g><g class="points"/><g class="text"/></g><g class="trace scatter tracebd22cb" style="stroke-miterlimit: 2; opacity: 1;"><g class="fills"/><g class="errorbars"/><g class="lines"><path class="js-line" d="M0,78.8L140.81,78.71L144.24,78.71L267.88,79.27L271.31,79.66L281.62,81.77L285.05,82.87L295.35,87.68L298.79,89.86L305.66,95.23L309.09,98.46L315.96,106.13L319.39,110.62L326.26,121.02L329.7,126.97L336.57,140.51L340,148.13" style="vector-effect: non-scaling-stroke; fill: none; stroke: rgb(72, 39, 119); stroke-opacity: 1; stroke-width: 1px; opacity: 1;"/></g><g class="points"/><g class="text"/></g><g class="trace scatter trace318646" style="stroke-miterlimit: 2; opacity: 1;"><g class="fills"/><g class="errorbars"/><g class="lines"><path class="js-line" d="M0,78.84L147.68,78.71L151.11,78.71L264.44,79.16L267.88,79.55L278.18,81.96L281.62,83.28L288.48,86.91L291.92,89.29L298.79,95.34L302.22,99.08L309.09,108.16L312.53,113.58L319.39,126.31L322.83,133.7L329.7,150.69L333.13,160.37L340,182.25" style="vector-effect: non-scaling-stroke; fill: none; stroke: rgb(71, 44, 122); stroke-opacity: 1; stroke-width: 1px; opacity: 1;"/></g><g class="points"/><g class="text"/></g><g class="trace scatter tracee21fdc" style="stroke-miterlimit: 2; opacity: 1;"><g class="fills"/><g class="errorbars"/><g class="lines"><path class="js-line" d="M0,78.81L144.24,78.71L147.68,78.71L267.88,79.29L271.31,79.69L281.62,81.87L285.05,83.01L291.92,86.03L295.35,87.97L302.22,92.8L305.66,95.75L312.53,102.83L315.96,107.01L322.83,116.76L326.26,122.37L333.13,135.21L336.57,142.48L340,150.35" style="vector-effect: non-scaling-stroke; fill: none; stroke: rgb(69, 49, 125); stroke-opacity: 1; stroke-width: 1px; opacity: 1;"/></g><g class="points"/><g class="text"/></g><g class="trace scatter trace7771b7" style="stroke-miterlimit: 2; opacity: 1;"><g class="fills"/><g class="errorbars"/><g class="lines"><path class="js-line" d="M0,78.8L140.81,78.71L144.24,78.71L267.88,79.25L271.31,79.62L281.62,81.65L285.05,82.7L295.35,87.31L298.79,89.4L305.66,94.55L309.09,97.65L315.96,105.02L319.39,109.32L326.26,119.3L329.7,125.01L336.57,137.99L340,145.3" style="vector-effect: non-scaling-stroke; fill: none; stroke: rgb(68, 55, 128); stroke-opacity: 1; stroke-width: 1px; opacity: 1;"/></g><g class="points"/><g class="text"/></g><g class="trace scatter trace2a32ec" style="stroke-miterlimit: 2; opacity: 1;"><g class="fills"/><g class="errorbars"/><g class="lines"><path class="js-line" d="M0,78.78L257.58,78.74L261.01,78.81L274.75,79.86L278.18,80.41L288.48,83L291.92,84.25L302.22,89.38L305.66,91.61L312.53,96.97L315.96,100.13L322.83,107.5L326.26,111.75L333.13,121.47L336.57,126.97L340,132.92" style="vector-effect: non-scaling-stroke; fill: none; stroke: rgb(66, 60, 130); stroke-opacity: 1; stroke-width: 1px; opacity: 1;"/></g><g class="points"/><g class="text"/></g><g class="trace scatter trace2544c9" style="stroke-miterlimit: 2; opacity: 1;"><g class="fills"/><g class="errorbars"/><g class="lines"><path class="js-line" d="M0,78.8L140.81,78.71L144.24,78.71L267.88,79.37L271.31,79.82L281.62,82.3L285.05,83.59L291.92,87.03L295.35,89.23L302.22,94.74L305.66,98.09L312.53,106.14L315.96,110.89L322.83,121.97L326.26,128.36L333.13,142.95L336.57,151.22L340,160.16" style="vector-effect: non-scaling-stroke; fill: none; stroke: rgb(64, 65, 133); stroke-opacity: 1; stroke-width: 1px; opacity: 1;"/></g><g class="points"/><g class="text"/></g><g class="trace scatter trace8cebf4" style="stroke-miterlimit: 2; opacity: 1;"><g class="fills"/><g class="errorbars"/><g class="lines"><path class="js-line" d="M0,78.83L147.68,78.71L151.11,78.71L264.44,79.12L267.88,79.48L278.18,81.67L281.62,82.87L288.48,86.18L291.92,88.34L298.79,93.85L302.22,97.26L309.09,105.53L312.53,110.46L319.39,122.06L322.83,128.79L329.7,144.26L333.13,153.07L340,173" style="vector-effect: non-scaling-stroke; fill: none; stroke: rgb(63, 71, 136); stroke-opacity: 1; stroke-width: 1px; opacity: 1;"/></g><g class="points"/><g class="text"/></g><g class="trace scatter tracecac270" style="stroke-miterlimit: 2; opacity: 1;"><g class="fills"/><g class="errorbars"/><g class="lines"><path class="js-line" d="M0,78.83L147.68,78.71L151.11,78.71L264.44,79.11L267.88,79.47L278.18,81.63L281.62,82.82L288.48,86.09L291.92,88.22L298.79,93.67L302.22,97.03L309.09,105.2L312.53,110.07L319.39,121.52L322.83,128.17L329.7,143.45L333.13,152.16L340,171.83" style="vector-effect: non-scaling-stroke; fill: none; stroke: rgb(61, 76, 137); stroke-opacity: 1; stroke-width: 1px; opacity: 1;"/></g><g class="points"/><g class="text"/></g><g class="trace scatter trace470f19" style="stroke-miterlimit: 2; opacity: 1;"><g class="fills"/><g class="errorbars"/><g class="lines"><path class="js-line" d="M0,78.83L147.68,78.71L151.11,78.71L267.88,79.43L271.31,79.92L281.62,82.6L285.05,84L291.92,87.72L295.35,90.1L302.22,96.06L305.66,99.69L312.53,108.4L315.96,113.54L322.83,125.53L326.26,132.45L333.13,148.25L336.57,157.19L340,166.87" style="vector-effect: non-scaling-stroke; fill: none; stroke: rgb(59, 81, 138); stroke-opacity: 1; stroke-width: 1px; opacity: 1;"/></g><g class="points"/><g class="text"/></g><g class="trace scatter trace0a3d57" style="stroke-miterlimit: 2; opacity: 1;"><g class="fills"/><g class="errorbars"/><g class="lines"><path class="js-line" d="M0,78.83L147.68,78.71L151.11,78.71L264.44,79.18L267.88,79.59L278.18,82.1L281.62,83.48L288.48,87.28L291.92,89.76L298.79,96.08L302.22,99.99L309.09,109.47L312.53,115.12L319.39,128.42L322.83,136.14L329.7,153.89L333.13,164L340,186.84" style="vector-effect: non-scaling-stroke; fill: none; stroke: rgb(45, 114, 142); stroke-opacity: 1; stroke-width: 1px; opacity: 1;"/></g><g class="points"/><g class="text"/></g><g class="trace scatter tracedf4650" style="stroke-miterlimit: 2; opacity: 1;"><g class="fills"/><g class="errorbars"/><g class="lines"><path class="js-line" d="M0,78.85L147.68,78.71L151.11,78.71L264.44,79.18L267.88,79.6L278.18,82.15L281.62,83.55L288.48,87.41L291.92,89.93L298.79,96.34L302.22,100.31L309.09,109.94L312.53,115.68L319.39,129.18L322.83,137.02L329.7,155.04L333.13,165.3L340,188.5" style="vector-effect: non-scaling-stroke; fill: none; stroke: rgb(43, 118, 142); stroke-opacity: 1; stroke-width: 1px; opacity: 1;"/></g><g class="points"/><g class="text"/></g><g class="trace scatter trace0780a8" style="stroke-miterlimit: 2; opacity: 1;"><g class="fills"/><g class="errorbars"/><g class="lines"><path class="js-line" d="M0,78.85L147.68,78.71L151.11,78.71L264.44,79.29L267.88,79.79L274.75,81.54L278.18,82.88L285.05,86.68L288.48,89.24L295.35,95.89L298.79,100.06L305.66,110.34L309.09,116.53L315.96,131.23L319.39,139.83L326.26,159.74L329.7,171.14L336.57,197.05L340,211.65" style="vector-effect: non-scaling-stroke; fill: none; stroke: rgb(41, 122, 142); stroke-opacity: 1; stroke-width: 1px; opacity: 1;"/></g><g class="points"/><g class="text"/></g><g class="trace scatter trace1eea3a" style="stroke-miterlimit: 2; opacity: 1;"><g class="fills"/><g class="errorbars"/><g class="lines"><path class="js-line" d="M0,78.79L257.58,78.75L261.01,78.83L274.75,80.07L278.18,80.71L288.48,83.76L291.92,85.22L298.79,88.94L302.22,91.25L309.09,96.84L312.53,100.17L319.39,108L322.83,112.55L329.7,123.01L333.13,128.97L340,142.43" style="vector-effect: non-scaling-stroke; fill: none; stroke: rgb(40, 126, 142); stroke-opacity: 1; stroke-width: 1px; opacity: 1;"/></g><g class="points"/><g class="text"/></g><g class="trace scatter tracefb8023" style="stroke-miterlimit: 2; opacity: 1;"><g class="fills"/><g class="errorbars"/><g class="lines"><path class="js-line" d="M0,78.83L147.68,78.71L151.11,78.71L267.88,79.43L271.31,79.93L281.62,82.64L285.05,84.05L291.92,87.81L295.35,90.22L302.22,96.24L305.66,99.91L312.53,108.71L315.96,113.91L322.83,126.03L326.26,133.01L333.13,148.98L336.57,158.02L340,167.8" style="vector-effect: non-scaling-stroke; fill: none; stroke: rgb(38, 130, 142); stroke-opacity: 1; stroke-width: 1px; opacity: 1;"/></g><g class="points"/><g class="text"/></g><g class="trace scatter trace87db39" style="stroke-miterlimit: 2; opacity: 1;"><g class="fills"/><g class="errorbars"/><g class="lines"><path class="js-line" d="M0,78.8L140.81,78.71L144.24,78.71L267.88,79.26L271.31,79.64L281.62,81.72L285.05,82.81L295.35,87.54L298.79,89.69L305.66,94.97L309.09,98.15L315.96,105.71L319.39,110.13L326.26,120.37L329.7,126.23L336.57,139.55L340,147.06" style="vector-effect: non-scaling-stroke; fill: none; stroke: rgb(37, 135, 141); stroke-opacity: 1; stroke-width: 1px; opacity: 1;"/></g><g class="points"/><g class="text"/></g><g class="trace scatter trace9d3e75" style="stroke-miterlimit: 2; opacity: 1;"><g class="fills"/><g class="errorbars"/><g class="lines"><path class="js-line" d="M0,78.84L147.68,78.71L151.11,78.71L264.44,79.43L267.88,80.05L274.75,82.23L278.18,83.89L285.05,88.62L288.48,91.8L295.35,100.06L298.79,105.25L305.66,118.02L309.09,125.72L315.96,143.99L319.39,154.67L326.26,179.42L329.7,193.59L336.57,225.79L340,243.94" style="vector-effect: non-scaling-stroke; fill: none; stroke: rgb(36, 140, 140); stroke-opacity: 1; stroke-width: 1px; opacity: 1;"/></g><g class="points"/><g class="text"/></g><g class="trace scatter tracebf74bb" style="stroke-miterlimit: 2; opacity: 1;"><g class="fills"/><g class="errorbars"/><g class="lines"><path class="js-line" d="M0,78.8L257.58,78.75L261.01,78.84L274.75,80.2L278.18,80.91L288.48,84.26L291.92,85.87L298.79,89.97L302.22,92.5L309.09,98.65L312.53,102.31L319.39,110.93L322.83,115.93L329.7,127.44L333.13,133.99L340,148.79" style="vector-effect: non-scaling-stroke; fill: none; stroke: rgb(34, 144, 140); stroke-opacity: 1; stroke-width: 1px; opacity: 1;"/></g><g class="points"/><g class="text"/></g><g class="trace scatter traceb4c36a" style="stroke-miterlimit: 2; opacity: 1;"><g class="fills"/><g class="errorbars"/><g class="lines"><path class="js-line" d="M0,78.8L140.81,78.71L144.24,78.71L267.88,79.27L271.31,79.65L281.62,81.75L285.05,82.84L295.35,87.61L298.79,89.77L305.66,95.1L309.09,98.31L315.96,105.93L319.39,110.38L326.26,120.7L329.7,126.61L336.57,140.04L340,147.61" style="vector-effect: non-scaling-stroke; fill: none; stroke: rgb(33, 148, 139); stroke-opacity: 1; stroke-width: 1px; opacity: 1;"/></g><g class="points"/><g class="text"/></g><g class="trace scatter trace5446bb" style="stroke-miterlimit: 2; opacity: 1;"><g class="fills"/><g class="errorbars"/><g class="lines"><path class="js-line" d="M0,78.78L257.58,78.74L261.01,78.81L274.75,79.87L278.18,80.42L288.48,83.03L291.92,84.28L302.22,89.44L305.66,91.69L312.53,97.08L315.96,100.26L322.83,107.69L326.26,111.97L333.13,121.74L336.57,127.28L340,133.27" style="vector-effect: non-scaling-stroke; fill: none; stroke: rgb(32, 153, 138); stroke-opacity: 1; stroke-width: 1px; opacity: 1;"/></g><g class="points"/><g class="text"/></g><g class="trace scatter trace7047a7" style="stroke-miterlimit: 2; opacity: 1;"><g class="fills"/><g class="errorbars"/><g class="lines"><path class="js-line" d="M0,78.8L257.58,78.75L261.01,78.84L274.75,80.17L278.18,80.85L288.48,84.12L291.92,85.7L298.79,89.69L302.22,92.16L309.09,98.16L312.53,101.73L319.39,110.14L322.83,115.02L329.7,126.25L333.13,132.64L340,147.08" style="vector-effect: non-scaling-stroke; fill: none; stroke: rgb(31, 158, 137); stroke-opacity: 1; stroke-width: 1px; opacity: 1;"/></g><g class="points"/><g class="text"/></g><g class="trace scatter trace9fb0d6" style="stroke-miterlimit: 2; opacity: 1;"><g class="fills"/><g class="errorbars"/><g class="lines"><path class="js-line" d="M0,78.83L147.68,78.71L151.11,78.71L267.88,79.44L271.31,79.94L281.62,82.69L285.05,84.11L291.92,87.92L295.35,90.35L302.22,96.44L305.66,100.15L312.53,109.06L315.96,114.32L322.83,126.58L326.26,133.64L333.13,149.79L336.57,158.94L340,168.84" style="vector-effect: non-scaling-stroke; fill: none; stroke: rgb(34, 162, 135); stroke-opacity: 1; stroke-width: 1px; opacity: 1;"/></g><g class="points"/><g class="text"/></g><g class="trace scatter trace1c9037" style="stroke-miterlimit: 2; opacity: 1;"><g class="fills"/><g class="errorbars"/><g class="lines"><path class="js-line" d="M0,78.83L147.68,78.71L151.11,78.71L267.88,79.44L271.31,79.93L281.62,82.65L285.05,84.07L291.92,87.84L295.35,90.26L302.22,96.29L305.66,99.97L312.53,108.8L315.96,114.01L322.83,126.17L326.26,133.18L333.13,149.2L336.57,158.26L340,168.08" style="vector-effect: non-scaling-stroke; fill: none; stroke: rgb(38, 166, 132); stroke-opacity: 1; stroke-width: 1px; opacity: 1;"/></g><g class="points"/><g class="text"/></g><g class="trace scatter traceb66c34" style="stroke-miterlimit: 2; opacity: 1;"><g class="fills"/><g class="errorbars"/><g class="lines"><path class="js-line" d="M0,78.83L147.68,78.71L151.11,78.71L267.88,79.44L271.31,79.94L281.62,82.67L285.05,84.09L291.92,87.88L295.35,90.31L302.22,96.38L305.66,100.07L312.53,108.95L315.96,114.18L322.83,126.4L326.26,133.44L333.13,149.53L336.57,158.64L340,168.5" style="vector-effect: non-scaling-stroke; fill: none; stroke: rgb(41, 170, 130); stroke-opacity: 1; stroke-width: 1px; opacity: 1;"/></g><g class="points"/><g class="text"/></g><g class="trace scatter tracec4b0a2" style="stroke-miterlimit: 2; opacity: 1;"><g class="fills"/><g class="errorbars"/><g class="lines"><path class="js-line" d="M0,78.92L78.99,78.71L82.42,78.71L267.88,78.21L271.31,77.87L281.62,76.02L285.05,75.05L295.35,70.84L298.79,68.93L305.66,64.22L309.09,61.38L315.96,54.65L319.39,50.71L326.26,41.59L329.7,36.37L336.57,24.51L340,17.82" style="vector-effect: non-scaling-stroke; fill: none; stroke: rgb(45, 174, 127); stroke-opacity: 1; stroke-width: 1px; opacity: 1;"/></g><g class="points"/><g class="text"/></g><g class="trace scatter tracecce14b" style="stroke-miterlimit: 2; opacity: 1;"><g class="fills"/><g class="errorbars"/><g class="lines"><path class="js-line" d="M0,78.85L147.68,78.71L151.11,78.71L264.44,79.22L267.88,79.66L274.75,81.2L278.18,82.38L285.05,85.73L288.48,87.98L295.35,93.83L298.79,97.51L305.66,106.55L309.09,112L315.96,124.94L319.39,132.51L326.26,150.04L329.7,160.08L336.57,182.89L340,195.74" style="vector-effect: non-scaling-stroke; fill: none; stroke: rgb(96, 200, 96); stroke-opacity: 1; stroke-width: 1px; opacity: 1;"/></g><g class="points"/><g class="text"/></g><g class="trace scatter tracecc499c" style="stroke-miterlimit: 2; opacity: 1;"><g class="fills"/><g class="errorbars"/><g class="lines"><path class="js-line" d="M0,78.89L103.03,78.71L106.46,78.71L264.44,79.36L267.88,79.94L274.75,81.92L278.18,83.44L285.05,87.75L288.48,90.65L295.35,98.18L298.79,102.92L305.66,114.57L309.09,121.59L315.96,138.25L319.39,148L326.26,170.57L329.7,183.5L336.57,212.88L340,229.43" style="vector-effect: non-scaling-stroke; fill: none; stroke: rgb(105, 204, 91); stroke-opacity: 1; stroke-width: 1px; opacity: 1;"/></g><g class="points"/><g class="text"/></g><g class="trace scatter trace55ae20" style="stroke-miterlimit: 2; opacity: 1;"><g class="fills"/><g class="errorbars"/><g class="lines"><path class="js-line" d="M0,78.79L257.58,78.75L261.01,78.83L274.75,80.02L278.18,80.63L288.48,83.57L291.92,84.98L302.22,90.79L305.66,93.32L312.53,99.39L315.96,102.97L322.83,111.32L326.26,116.14L333.13,127.14L336.57,133.37L340,140.12" style="vector-effect: non-scaling-stroke; fill: none; stroke: rgb(115, 207, 85); stroke-opacity: 1; stroke-width: 1px; opacity: 1;"/></g><g class="points"/><g class="text"/></g><g class="trace scatter traced71757" style="stroke-miterlimit: 2; opacity: 1;"><g class="fills"/><g class="errorbars"/><g class="lines"><path class="js-line" d="M0,78.82L144.24,78.71L147.68,78.71L267.88,79.42L271.31,79.91L281.62,82.59L285.05,83.98L291.92,87.69L295.35,90.07L302.22,96L305.66,99.62L312.53,108.31L315.96,113.43L322.83,125.39L326.26,132.28L333.13,148.03L336.57,156.95L340,166.6" style="vector-effect: non-scaling-stroke; fill: none; stroke: rgb(126, 210, 78); stroke-opacity: 1; stroke-width: 1px; opacity: 1;"/></g><g class="points"/><g class="text"/></g><g class="trace scatter trace9cca57" style="stroke-miterlimit: 2; opacity: 1;"><g class="fills"/><g class="errorbars"/><g class="lines"><path class="js-line" d="M0,78.8L140.81,78.71L144.24,78.71L267.88,79.24L271.31,79.61L281.62,81.62L285.05,82.66L295.35,87.22L298.79,89.29L305.66,94.38L309.09,97.45L315.96,104.73L319.39,108.99L326.26,118.86L329.7,124.51L336.57,137.35L340,144.58" style="vector-effect: non-scaling-stroke; fill: none; stroke: rgb(138, 212, 70); stroke-opacity: 1; stroke-width: 1px; opacity: 1;"/></g><g class="points"/><g class="text"/></g><g class="trace scatter trace5a517f" style="stroke-miterlimit: 2; opacity: 1;"><g class="fills"/><g class="errorbars"/><g class="lines"><path class="js-line" d="M0,78.84L147.68,78.71L151.11,78.71L264.44,79.15L267.88,79.53L278.18,81.87L281.62,83.15L288.48,86.69L291.92,89L298.79,94.88L302.22,98.52L309.09,107.35L312.53,112.62L319.39,125L322.83,132.19L329.7,148.72L333.13,158.13L340,179.4" style="vector-effect: non-scaling-stroke; fill: none; stroke: rgb(149, 215, 63); stroke-opacity: 1; stroke-width: 1px; opacity: 1;"/></g><g class="points"/><g class="text"/></g><g class="trace scatter trace8d449e" style="stroke-miterlimit: 2; opacity: 1;"><g class="fills"/><g class="errorbars"/><g class="lines"><path class="js-line" d="M0,78.8L140.81,78.71L144.24,78.71L267.88,79.28L271.31,79.67L281.62,81.8L285.05,82.92L295.35,87.77L298.79,89.98L305.66,95.4L309.09,98.67L315.96,106.43L319.39,110.97L326.26,121.47L329.7,127.49L336.57,141.17L340,148.87" style="vector-effect: non-scaling-stroke; fill: none; stroke: rgb(161, 217, 56); stroke-opacity: 1; stroke-width: 1px; opacity: 1;"/></g><g class="points"/><g class="text"/></g><g class="trace scatter trace095878" style="stroke-miterlimit: 2; opacity: 1;"><g class="fills"/><g class="errorbars"/><g class="lines"><path class="js-line" d="M0,78.8L140.81,78.71L144.24,78.71L267.88,79.26L271.31,79.64L281.62,81.71L285.05,82.79L295.35,87.5L298.79,89.64L305.66,94.9L309.09,98.07L315.96,105.59L319.39,110L326.26,120.19L329.7,126.02L336.57,139.29L340,146.76" style="vector-effect: non-scaling-stroke; fill: none; stroke: rgb(172, 220, 49); stroke-opacity: 1; stroke-width: 1px; opacity: 1;"/></g><g class="points"/><g class="text"/></g><g class="trace scatter tracec6ebd4" style="stroke-miterlimit: 2; opacity: 1;"><g class="fills"/><g class="errorbars"/><g class="lines"><path class="js-line" d="M0,78.78L257.58,78.74L261.01,78.81L274.75,79.87L278.18,80.41L288.48,83.01L291.92,84.26L302.22,89.4L305.66,91.64L312.53,97.01L315.96,100.17L322.83,107.57L326.26,111.83L333.13,121.56L336.57,127.08L340,133.05" style="vector-effect: non-scaling-stroke; fill: none; stroke: rgb(184, 222, 43); stroke-opacity: 1; stroke-width: 1px; opacity: 1;"/></g><g class="points"/><g class="text"/></g><g class="trace scatter trace4e1440" style="stroke-miterlimit: 2; opacity: 1;"><g class="fills"/><g class="errorbars"/><g class="lines"><path class="js-line" d="M0,78.8L257.58,78.75L261.01,78.85L274.75,80.22L278.18,80.93L288.48,84.32L291.92,85.94L298.79,90.08L302.22,92.63L309.09,98.84L312.53,102.54L319.39,111.25L322.83,116.3L329.7,127.92L333.13,134.53L340,149.49" style="vector-effect: non-scaling-stroke; fill: none; stroke: rgb(195, 224, 42); stroke-opacity: 1; stroke-width: 1px; opacity: 1;"/></g><g class="points"/><g class="text"/></g><g class="trace scatter trace3d3c45" style="stroke-miterlimit: 2; opacity: 1;"><g class="fills"/><g class="errorbars"/><g class="lines"><path class="js-line" d="M0,78.83L147.68,78.71L151.11,78.71L267.88,79.45L271.31,79.96L281.62,82.75L285.05,84.2L291.92,88.06L295.35,90.54L302.22,96.72L305.66,100.49L312.53,109.53L315.96,114.87L322.83,127.33L326.26,134.5L333.13,150.91L336.57,160.19L340,170.25" style="vector-effect: non-scaling-stroke; fill: none; stroke: rgb(207, 225, 41); stroke-opacity: 1; stroke-width: 1px; opacity: 1;"/></g><g class="points"/><g class="text"/></g><g class="trace scatter trace6e293b" style="stroke-miterlimit: 2; opacity: 1;"><g class="fills"/><g class="errorbars"/><g class="lines"><path class="js-line" d="M0,78.69L264.44,79.49L267.88,80.17L274.75,82.54L278.18,84.35L285.05,89.49L288.48,92.95L295.35,101.93L298.79,107.57L305.66,121.47L309.09,129.83L315.96,149.7L319.39,161.32L326.26,188.23L329.7,203.64L336.57,238.67L340,258.4" style="vector-effect: non-scaling-stroke; fill: none; stroke: rgb(218, 227, 40); stroke-opacity: 1; stroke-width: 1px; opacity: 1;"/></g><g class="points"/><g class="text"/></g><g class="trace scatter trace8a9a93" style="stroke-miterlimit: 2; opacity: 1;"><g class="fills"/><g class="errorbars"/><g class="lines"><path class="js-line" d="M0,78.83L147.68,78.71L151.11,78.71L267.88,79.46L271.31,79.97L281.62,82.79L285.05,84.25L291.92,88.15L295.35,90.65L302.22,96.89L305.66,100.7L312.53,109.83L315.96,115.22L322.83,127.79L326.26,135.03L333.13,151.59L336.57,160.97L340,171.12" style="vector-effect: non-scaling-stroke; fill: none; stroke: rgb(230, 228, 39); stroke-opacity: 1; stroke-width: 1px; opacity: 1;"/></g><g class="points"/><g class="text"/></g><g class="trace scatter tracef804a4" style="stroke-miterlimit: 2; opacity: 1;"><g class="fills"/><g class="errorbars"/><g class="lines"><path class="js-line" d="M0,78.9L106.46,78.71L109.9,78.71L267.88,78.18L271.31,77.81L281.62,75.83L285.05,74.8L295.35,70.29L298.79,68.25L305.66,63.21L309.09,60.18L315.96,52.98L319.39,48.77L326.26,39.02L329.7,33.44L336.57,20.75L340,13.6" style="vector-effect: non-scaling-stroke; fill: none; stroke: rgb(241, 230, 38); stroke-opacity: 1; stroke-width: 1px; opacity: 1;"/></g><g class="points"/><g class="text"/></g><g class="trace scatter trace42cdac" style="stroke-miterlimit: 2; opacity: 1;"><g class="fills"/><g class="errorbars"/><g class="lines"><path class="js-line" d="M0,78.8L257.58,78.75L261.01,78.85L274.75,80.22L278.18,80.93L288.48,84.33L291.92,85.96L298.79,90.11L302.22,92.67L309.09,98.9L312.53,102.61L319.39,111.34L322.83,116.41L329.7,128.06L333.13,134.69L340,149.69" style="vector-effect: non-scaling-stroke; fill: none; stroke: rgb(253, 231, 37); stroke-opacity: 1; stroke-width: 1px; opacity: 1;"/></g><g class="points"/><g class="text"/></g><g class="trace scatter trace6d9023" style="stroke-miterlimit: 2; opacity: 1;"><g class="fills"/><g class="errorbars"/><g class="lines"><path class="js-line" d="M0,78.71L340,78.71" style="vector-effect: non-scaling-stroke; fill: none; stroke: rgb(169, 169, 169); stroke-opacity: 1; stroke-width: 2px; opacity: 1;"/></g><g class="points"/><g class="text"/></g></g></g><g class="overplot"/><path class="xlines-above crisp" d="M0,0" style="fill: none;"/><path class="ylines-above crisp" d="M0,0" style="fill: none;"/><g class="overlines-above"/><g class="xaxislayer-above"><g class="x3tick"><text text-anchor="middle" x="0" y="1133" transform="translate(114.97,0)" style="font-family: 'Open Sans', verdana, arial, sans-serif; font-size: 12px; fill: rgb(42, 63, 95); fill-opacity: 1; white-space: pre; opacity: 1;">0.25</text></g><g class="x3tick"><text text-anchor="middle" x="0" y="1133" style="font-family: 'Open Sans', verdana, arial, sans-serif; font-size: 12px; fill: rgb(42, 63, 95); fill-opacity: 1; white-space: pre; opacity: 1;" transform="translate(183.67000000000002,0)">0.3</text></g><g class="x3tick"><text text-anchor="middle" x="0" y="1133" style="font-family: 'Open Sans', verdana, arial, sans-serif; font-size: 12px; fill: rgb(42, 63, 95); fill-opacity: 1; white-space: pre; opacity: 1;" transform="translate(252.37,0)">0.35</text></g><g class="x3tick"><text text-anchor="middle" x="0" y="1133" style="font-family: 'Open Sans', verdana, arial, sans-serif; font-size: 12px; fill: rgb(42, 63, 95); fill-opacity: 1; white-space: pre; opacity: 1;" transform="translate(321.08000000000004,0)">0.4</text></g><g class="x3tick"><text text-anchor="middle" x="0" y="1133" style="font-family: 'Open Sans', verdana, arial, sans-serif; font-size: 12px; fill: rgb(42, 63, 95); fill-opacity: 1; white-space: pre; opacity: 1;" transform="translate(389.78,0)">0.45</text></g></g><g class="yaxislayer-above"><g class="y3tick"><text text-anchor="end" x="79" y="4.199999999999999" transform="translate(0,1086.8200000000002)" style="font-family: 'Open Sans', verdana, arial, sans-serif; font-size: 12px; fill: rgb(42, 63, 95); fill-opacity: 1; white-space: pre; opacity: 1;">−1M</text></g><g class="y3tick"><text text-anchor="end" x="79" y="4.199999999999999" style="font-family: 'Open Sans', verdana, arial, sans-serif; font-size: 12px; fill: rgb(42, 63, 95); fill-opacity: 1; white-space: pre; opacity: 1;" transform="translate(0,1006.7600000000001)">−0.5M</text></g><g class="y3tick"><text text-anchor="end" x="79" y="4.199999999999999" style="font-family: 'Open Sans', verdana, arial, sans-serif; font-size: 12px; fill: rgb(42, 63, 95); fill-opacity: 1; white-space: pre; opacity: 1;" transform="translate(0,926.7100000000002)">0</text></g></g><g class="overaxes-above"/></g></g><g class="polarlayer"/><g class="smithlayer"/><g class="ternarylayer"/><g class="geolayer"/><g class="funnelarealayer"/><g class="pielayer"/><g class="iciclelayer"/><g class="treemaplayer"/><g class="sunburstlayer"/><g class="glimages"/><defs id="topdefs-e2a7a9"><g class="clips"/><clipPath id="legende2a7a9"><rect width="331" height="29" x="0" y="0"/></clipPath></defs><g class="layer-above"><g class="imagelayer"/><g class="shapelayer"/></g><g class="infolayer"><g class="legend" pointer-events="all" transform="translate(89,50.59999999999998)"><rect class="bg" shape-rendering="crispEdges" width="331" height="29" x="0" y="0" style="stroke: rgb(68, 68, 68); stroke-opacity: 1; fill: rgb(255, 255, 255); fill-opacity: 1; stroke-width: 0px;"/><g class="scrollbox" transform="" clip-path="url(#legende2a7a9)"><g class="groups"><g class="traces" transform="translate(0,14.5)" style="opacity: 1;"><text class="legendtext" text-anchor="start" x="40" y="4.680000000000001" style="font-family: 'Open Sans', verdana, arial, sans-serif; font-size: 12px; fill: rgb(42, 63, 95); fill-opacity: 1; white-space: pre;">Profile Log-likelihood</text><g class="layers" style="opacity: 1;"><g class="legendfill"/><g class="legendlines"><path class="js-line" d="M5,0h30" style="fill: none; stroke: rgb(51, 34, 136); stroke-opacity: 1; stroke-width: 2px;"/></g><g class="legendsymbols"><g class="legendpoints"/></g></g><rect class="legendtoggle" x="0" y="-9.5" width="160.15625" height="19" style="fill: rgb(0, 0, 0); fill-opacity: 0;"/></g><g class="traces" transform="translate(162.65625,14.5)" style="opacity: 1;"><text class="legendtext" text-anchor="start" x="40" y="4.680000000000001" style="font-family: 'Open Sans', verdana, arial, sans-serif; font-size: 12px; fill: rgb(42, 63, 95); fill-opacity: 1; white-space: pre;">Optimiser Evaluations</text><g class="layers" style="opacity: 1;"><g class="legendfill"/><g class="legendlines"/><g class="legendsymbols"><g class="legendpoints"><path class="scatterpts" transform="translate(20,0)" d="M-4.2,0A 5.7,5.7 0 0 1 0,4.2A 5.7,5.7 0 0 1 4.2,0A 5.7,5.7 0 0 1 0,-4.2A 5.7,5.7 0 0 1 -4.2,0Z" style="opacity: 0.5; stroke-width: 0px; fill: rgb(51, 34, 136); fill-opacity: 1;"/></g></g></g><rect class="legendtoggle" x="0" y="-9.5" width="165.46875" height="19" style="fill: rgb(0, 0, 0); fill-opacity: 0;"/></g></g></g><rect class="scrollbar" rx="20" ry="3" width="0" height="0" x="0" y="0" style="fill: rgb(128, 139, 164); fill-opacity: 1;"/></g><g class="g-gtitle"/><g class="g-xtitle"/><g class="g-x2title"/><g class="g-x3title"/><g class="g-ytitle"/><g class="g-y2title"/><g class="g-y3title"/></g></svg>