<svg class="main-svg" xmlns="http://www.w3.org/2000/svg" xmlns:xlink="http://www.w3.org/1999/xlink" width="500" height="1200" style="" viewBox="0 0 500 1200"><rect x="0" y="0" width="500" height="1200" style="fill: rgb(255, 255, 255); fill-opacity: 1;"/><defs id="defs-9fe52a"><g class="clips"><clipPath id="clip9fe52axyplot" class="plotclip"><rect width="340" height="272.00000000000006"/></clipPath><clipPath id="clip9fe52ax2y2plot" class="plotclip"><rect width="340" height="272"/></clipPath><clipPath id="clip9fe52ax3y3plot" class="plotclip"><rect width="340" height="272"/></clipPath><clipPath class="axesclip" id="clip9fe52ax"><rect x="80" y="0" width="340" height="1200"/></clipPath><clipPath class="axesclip" id="clip9fe52ay"><rect x="0" y="100" width="500" height="272.00000000000006"/></clipPath><clipPath class="axesclip" id="clip9fe52axy"><rect x="80" y="100" width="340" height="272.00000000000006"/></clipPath><clipPath class="axesclip" id="clip9fe52ay2"><rect x="0" y="474.00000000000006" width="500" height="272"/></clipPath><clipPath class="axesclip" id="clip9fe52axy2"><rect x="80" y="474.00000000000006" width="340" height="272"/></clipPath><clipPath class="axesclip" id="clip9fe52ay3"><rect x="0" y="848.0000000000001" width="500" height="272"/></clipPath><clipPath class="axesclip" id="clip9fe52axy3"><rect x="80" y="848.0000000000001" width="340" height="272"/></clipPath><clipPath class="axesclip" id="clip9fe52ax2"><rect x="80" y="0" width="340" height="1200"/></clipPath><clipPath class="axesclip" id="clip9fe52ax2y"><rect x="80" y="100" width="340" height="272.00000000000006"/></clipPath><clipPath class="axesclip" id="clip9fe52ax2y2"><rect x="80" y="474.00000000000006" width="340" height="272"/></clipPath><clipPath class="axesclip" id="clip9fe52ax2y3"><rect x="80" y="848.0000000000001" width="340" height="272"/></clipPath><clipPath class="axesclip" id="clip9fe52ax3"><rect x="80" y="0" width="340" height="1200"/></clipPath><clipPath class="axesclip" id="clip9fe52ax3y"><rect x="80" y="100" width="340" height="272.00000000000006"/></clipPath><clipPath class="axesclip" id="clip9fe52ax3y2"><rect x="80" y="474.00000000000006" width="340" height="272"/></clipPath><clipPath class="axesclip" id="clip9fe52ax3y3"><rect x="80" y="848.0000000000001" width="340" height="272"/></clipPath></g><g class="gradients"/><g class="patterns"/></defs><g class="bglayer"/><g class="layer-below"><g class="imagelayer"/><g class="shapelayer"/></g><g class="cartesianlayer"><g class="subplot xy"><g class="layer-subplot"><g class="shapelayer"/><g class="imagelayer"/></g><g class="minor-gridlayer"><g class="x"/><g class="y"/></g><g class="gridlayer"><g class="x"><path class="xgrid crisp" transform="translate(129.9,0)" d="M0,100v272.00000000000006" style="stroke: rgb(235, 240, 248); stroke-opacity: 1; stroke-width: 1px;"/><path class="xgrid crisp" transform="translate(200.12,0)" d="M0,100v272.00000000000006" style="stroke: rgb(235, 240, 248); stroke-opacity: 1; stroke-width: 1px;"/><path class="xgrid crisp" transform="translate(270.33000000000004,0)" d="M0,100v272.00000000000006" style="stroke: rgb(235, 240, 248); stroke-opacity: 1; stroke-width: 1px;"/><path class="xgrid crisp" transform="translate(340.54,0)" d="M0,100v272.00000000000006" style="stroke: rgb(235, 240, 248); stroke-opacity: 1; stroke-width: 1px;"/><path class="xgrid crisp" transform="translate(410.75,0)" d="M0,100v272.00000000000006" style="stroke: rgb(235, 240, 248); stroke-opacity: 1; stroke-width: 1px;"/></g><g class="y"><path class="ygrid crisp" transform="translate(0,353.25)" d="M80,0h340" style="stroke: rgb(235, 240, 248); stroke-opacity: 1; stroke-width: 1px;"/><path class="ygrid crisp" transform="translate(0,299.44)" d="M80,0h340" style="stroke: rgb(235, 240, 248); stroke-opacity: 1; stroke-width: 1px;"/><path class="ygrid crisp" transform="translate(0,245.63)" d="M80,0h340" style="stroke: rgb(235, 240, 248); stroke-opacity: 1; stroke-width: 1px;"/><path class="ygrid crisp" transform="translate(0,191.82)" d="M80,0h340" style="stroke: rgb(235, 240, 248); stroke-opacity: 1; stroke-width: 1px;"/></g></g><g class="zerolinelayer"><path class="yzl zl crisp" transform="translate(0,138.01)" d="M80,0h340" style="stroke: rgb(235, 240, 248); stroke-opacity: 1; stroke-width: 2px;"/></g><path class="xlines-below"/><path class="ylines-below"/><g class="overlines-below"/><g class="xaxislayer-below"/><g class="yaxislayer-below"/><g class="overaxes-below"/><g class="plot" transform="translate(80,100)" clip-path="url(#clip9fe52axyplot)"><g class="scatterlayer mlayer"><g class="trace scatter trace6f1db9" style="stroke-miterlimit: 2; opacity: 1;"><g class="fills"/><g class="errorbars"/><g class="lines"><path class="js-line" d="M20.75,154.39L32.81,126.9L35.83,120.54L47.89,97.09L50.9,91.72L62.96,72.21L65.98,67.81L78.04,52.14L81.05,48.69L90.1,39.45L93.11,36.74L102.16,29.69L105.17,27.7L114.22,22.79L117.23,21.51L126.28,18.69L129.3,18.09L138.34,17.31L141.36,17.38L150.4,18.59L153.42,19.32L162.46,22.47L165.48,23.84L174.52,28.87L177.54,30.86L189.6,40.26L192.61,42.87L204.67,54.4L207.69,57.56L222.77,75.09L225.78,78.93L240.86,99.86L243.87,104.38L258.95,128.73L261.96,133.94L277.04,161.73L280.05,167.63L295.13,198.87L298.14,205.46L316.23,247.47L319.25,254.88" style="vector-effect: non-scaling-stroke; fill: none; stroke: rgb(51, 34, 136); stroke-opacity: 1; stroke-width: 2px; opacity: 1;"/></g><g class="points"/><g class="text"/></g><g class="trace scatter tracea6156d" style="stroke-miterlimit: 2; opacity: 1;"><g class="fills"/><g class="errorbars"/><g class="lines"/><g class="points"><path class="point" transform="translate(20.75,154.46)" d="M-4.2,0A 5.7,5.7 0 0 1 0,4.2A 5.7,5.7 0 0 1 4.2,0A 5.7,5.7 0 0 1 0,-4.2A 5.7,5.7 0 0 1 -4.2,0Z" style="opacity: 0.5; stroke-width: 0px; fill: rgb(51, 34, 136); fill-opacity: 1;"/><path class="point" transform="translate(53.92,85.85)" d="M-4.2,0A 5.7,5.7 0 0 1 0,4.2A 5.7,5.7 0 0 1 4.2,0A 5.7,5.7 0 0 1 0,-4.2A 5.7,5.7 0 0 1 -4.2,0Z" style="opacity: 0.5; stroke-width: 0px; fill: rgb(51, 34, 136); fill-opacity: 1;"/><path class="point" transform="translate(87.08,42.22)" d="M-4.2,0A 5.7,5.7 0 0 1 0,4.2A 5.7,5.7 0 0 1 4.2,0A 5.7,5.7 0 0 1 0,-4.2A 5.7,5.7 0 0 1 -4.2,0Z" style="opacity: 0.5; stroke-width: 0px; fill: rgb(51, 34, 136); fill-opacity: 1;"/><path class="point" transform="translate(91.68,38)" d="M-4.2,0A 5.7,5.7 0 0 1 0,4.2A 5.7,5.7 0 0 1 4.2,0A 5.7,5.7 0 0 1 0,-4.2A 5.7,5.7 0 0 1 -4.2,0Z" style="opacity: 0.5; stroke-width: 0px; fill: rgb(51, 34, 136); fill-opacity: 1;"/><path class="point" transform="translate(91.7,38)" d="M-4.2,0A 5.7,5.7 0 0 1 0,4.2A 5.7,5.7 0 0 1 4.2,0A 5.7,5.7 0 0 1 0,-4.2A 5.7,5.7 0 0 1 -4.2,0Z" style="opacity: 0.5; stroke-width: 0px; fill: rgb(51, 34, 136); fill-opacity: 1;"/><path class="point" transform="translate(91.72,37.99)" d="M-4.2,0A 5.7,5.7 0 0 1 0,4.2A 5.7,5.7 0 0 1 4.2,0A 5.7,5.7 0 0 1 0,-4.2A 5.7,5.7 0 0 1 -4.2,0Z" style="opacity: 0.5; stroke-width: 0px; fill: rgb(51, 34, 136); fill-opacity: 1;"/><path class="point" transform="translate(91.75,37.98)" d="M-4.2,0A 5.7,5.7 0 0 1 0,4.2A 5.7,5.7 0 0 1 4.2,0A 5.7,5.7 0 0 1 0,-4.2A 5.7,5.7 0 0 1 -4.2,0Z" style="opacity: 0.5; stroke-width: 0px; fill: rgb(51, 34, 136); fill-opacity: 1;"/><path class="point" transform="translate(91.81,37.97)" d="M-4.2,0A 5.7,5.7 0 0 1 0,4.2A 5.7,5.7 0 0 1 4.2,0A 5.7,5.7 0 0 1 0,-4.2A 5.7,5.7 0 0 1 -4.2,0Z" style="opacity: 0.5; stroke-width: 0px; fill: rgb(51, 34, 136); fill-opacity: 1;"/><path class="point" transform="translate(91.89,37.94)" d="M-4.2,0A 5.7,5.7 0 0 1 0,4.2A 5.7,5.7 0 0 1 4.2,0A 5.7,5.7 0 0 1 0,-4.2A 5.7,5.7 0 0 1 -4.2,0Z" style="opacity: 0.5; stroke-width: 0px; fill: rgb(51, 34, 136); fill-opacity: 1;"/><path class="point" transform="translate(92.02,37.91)" d="M-4.2,0A 5.7,5.7 0 0 1 0,4.2A 5.7,5.7 0 0 1 4.2,0A 5.7,5.7 0 0 1 0,-4.2A 5.7,5.7 0 0 1 -4.2,0Z" style="opacity: 0.5; stroke-width: 0px; fill: rgb(51, 34, 136); fill-opacity: 1;"/><path class="point" transform="translate(92.21,37.85)" d="M-4.2,0A 5.7,5.7 0 0 1 0,4.2A 5.7,5.7 0 0 1 4.2,0A 5.7,5.7 0 0 1 0,-4.2A 5.7,5.7 0 0 1 -4.2,0Z" style="opacity: 0.5; stroke-width: 0px; fill: rgb(51, 34, 136); fill-opacity: 1;"/><path class="point" transform="translate(92.51,37.76)" d="M-4.2,0A 5.7,5.7 0 0 1 0,4.2A 5.7,5.7 0 0 1 4.2,0A 5.7,5.7 0 0 1 0,-4.2A 5.7,5.7 0 0 1 -4.2,0Z" style="opacity: 0.5; stroke-width: 0px; fill: rgb(51, 34, 136); fill-opacity: 1;"/><path class="point" transform="translate(92.93,37.66)" d="M-4.2,0A 5.7,5.7 0 0 1 0,4.2A 5.7,5.7 0 0 1 4.2,0A 5.7,5.7 0 0 1 0,-4.2A 5.7,5.7 0 0 1 -4.2,0Z" style="opacity: 0.5; stroke-width: 0px; fill: rgb(51, 34, 136); fill-opacity: 1;"/><path class="point" transform="translate(93.86,37.23)" d="M-4.2,0A 5.7,5.7 0 0 1 0,4.2A 5.7,5.7 0 0 1 4.2,0A 5.7,5.7 0 0 1 0,-4.2A 5.7,5.7 0 0 1 -4.2,0Z" style="opacity: 0.5; stroke-width: 0px; fill: rgb(51, 34, 136); fill-opacity: 1;"/><path class="point" transform="translate(120.25,21.09)" d="M-4.2,0A 5.7,5.7 0 0 1 0,4.2A 5.7,5.7 0 0 1 4.2,0A 5.7,5.7 0 0 1 0,-4.2A 5.7,5.7 0 0 1 -4.2,0Z" style="opacity: 0.5; stroke-width: 0px; fill: rgb(51, 34, 136); fill-opacity: 1;"/><path class="point" transform="translate(140.59,17.35)" d="M-4.2,0A 5.7,5.7 0 0 1 0,4.2A 5.7,5.7 0 0 1 4.2,0A 5.7,5.7 0 0 1 0,-4.2A 5.7,5.7 0 0 1 -4.2,0Z" style="opacity: 0.5; stroke-width: 0px; fill: rgb(51, 34, 136); fill-opacity: 1;"/><path class="point" transform="translate(153.42,18.79)" d="M-4.2,0A 5.7,5.7 0 0 1 0,4.2A 5.7,5.7 0 0 1 4.2,0A 5.7,5.7 0 0 1 0,-4.2A 5.7,5.7 0 0 1 -4.2,0Z" style="opacity: 0.5; stroke-width: 0px; fill: rgb(51, 34, 136); fill-opacity: 1;"/><path class="point" transform="translate(186.58,34.95)" d="M-4.2,0A 5.7,5.7 0 0 1 0,4.2A 5.7,5.7 0 0 1 4.2,0A 5.7,5.7 0 0 1 0,-4.2A 5.7,5.7 0 0 1 -4.2,0Z" style="opacity: 0.5; stroke-width: 0px; fill: rgb(51, 34, 136); fill-opacity: 1;"/><path class="point" transform="translate(186.91,38.02)" d="M-4.2,0A 5.7,5.7 0 0 1 0,4.2A 5.7,5.7 0 0 1 4.2,0A 5.7,5.7 0 0 1 0,-4.2A 5.7,5.7 0 0 1 -4.2,0Z" style="opacity: 0.5; stroke-width: 0px; fill: rgb(51, 34, 136); fill-opacity: 1;"/><path class="point" transform="translate(187.03,38.11)" d="M-4.2,0A 5.7,5.7 0 0 1 0,4.2A 5.7,5.7 0 0 1 4.2,0A 5.7,5.7 0 0 1 0,-4.2A 5.7,5.7 0 0 1 -4.2,0Z" style="opacity: 0.5; stroke-width: 0px; fill: rgb(51, 34, 136); fill-opacity: 1;"/><path class="point" transform="translate(187.17,38.14)" d="M-4.2,0A 5.7,5.7 0 0 1 0,4.2A 5.7,5.7 0 0 1 4.2,0A 5.7,5.7 0 0 1 0,-4.2A 5.7,5.7 0 0 1 -4.2,0Z" style="opacity: 0.5; stroke-width: 0px; fill: rgb(51, 34, 136); fill-opacity: 1;"/><path class="point" transform="translate(187.34,38.16)" d="M-4.2,0A 5.7,5.7 0 0 1 0,4.2A 5.7,5.7 0 0 1 4.2,0A 5.7,5.7 0 0 1 0,-4.2A 5.7,5.7 0 0 1 -4.2,0Z" style="opacity: 0.5; stroke-width: 0px; fill: rgb(51, 34, 136); fill-opacity: 1;"/><path class="point" transform="translate(187.56,38.2)" d="M-4.2,0A 5.7,5.7 0 0 1 0,4.2A 5.7,5.7 0 0 1 4.2,0A 5.7,5.7 0 0 1 0,-4.2A 5.7,5.7 0 0 1 -4.2,0Z" style="opacity: 0.5; stroke-width: 0px; fill: rgb(51, 34, 136); fill-opacity: 1;"/><path class="point" transform="translate(187.82,38.23)" d="M-4.2,0A 5.7,5.7 0 0 1 0,4.2A 5.7,5.7 0 0 1 4.2,0A 5.7,5.7 0 0 1 0,-4.2A 5.7,5.7 0 0 1 -4.2,0Z" style="opacity: 0.5; stroke-width: 0px; fill: rgb(51, 34, 136); fill-opacity: 1;"/><path class="point" transform="translate(188.13,38.28)" d="M-4.2,0A 5.7,5.7 0 0 1 0,4.2A 5.7,5.7 0 0 1 4.2,0A 5.7,5.7 0 0 1 0,-4.2A 5.7,5.7 0 0 1 -4.2,0Z" style="opacity: 0.5; stroke-width: 0px; fill: rgb(51, 34, 136); fill-opacity: 1;"/><path class="point" transform="translate(188.5,38.33)" d="M-4.2,0A 5.7,5.7 0 0 1 0,4.2A 5.7,5.7 0 0 1 4.2,0A 5.7,5.7 0 0 1 0,-4.2A 5.7,5.7 0 0 1 -4.2,0Z" style="opacity: 0.5; stroke-width: 0px; fill: rgb(51, 34, 136); fill-opacity: 1;"/><path class="point" transform="translate(188.93,38.39)" d="M-4.2,0A 5.7,5.7 0 0 1 0,4.2A 5.7,5.7 0 0 1 4.2,0A 5.7,5.7 0 0 1 0,-4.2A 5.7,5.7 0 0 1 -4.2,0Z" style="opacity: 0.5; stroke-width: 0px; fill: rgb(51, 34, 136); fill-opacity: 1;"/><path class="point" transform="translate(189.43,38.44)" d="M-4.2,0A 5.7,5.7 0 0 1 0,4.2A 5.7,5.7 0 0 1 4.2,0A 5.7,5.7 0 0 1 0,-4.2A 5.7,5.7 0 0 1 -4.2,0Z" style="opacity: 0.5; stroke-width: 0px; fill: rgb(51, 34, 136); fill-opacity: 1;"/><path class="point" transform="translate(189.45,37.15)" d="M-4.2,0A 5.7,5.7 0 0 1 0,4.2A 5.7,5.7 0 0 1 4.2,0A 5.7,5.7 0 0 1 0,-4.2A 5.7,5.7 0 0 1 -4.2,0Z" style="opacity: 0.5; stroke-width: 0px; fill: rgb(51, 34, 136); fill-opacity: 1;"/><path class="point" transform="translate(189.99,38.49)" d="M-4.2,0A 5.7,5.7 0 0 1 0,4.2A 5.7,5.7 0 0 1 4.2,0A 5.7,5.7 0 0 1 0,-4.2A 5.7,5.7 0 0 1 -4.2,0Z" style="opacity: 0.5; stroke-width: 0px; fill: rgb(51, 34, 136); fill-opacity: 1;"/><path class="point" transform="translate(190.48,38.43)" d="M-4.2,0A 5.7,5.7 0 0 1 0,4.2A 5.7,5.7 0 0 1 4.2,0A 5.7,5.7 0 0 1 0,-4.2A 5.7,5.7 0 0 1 -4.2,0Z" style="opacity: 0.5; stroke-width: 0px; fill: rgb(51, 34, 136); fill-opacity: 1;"/><path class="point" transform="translate(219.75,69.96)" d="M-4.2,0A 5.7,5.7 0 0 1 0,4.2A 5.7,5.7 0 0 1 4.2,0A 5.7,5.7 0 0 1 0,-4.2A 5.7,5.7 0 0 1 -4.2,0Z" style="opacity: 0.5; stroke-width: 0px; fill: rgb(51, 34, 136); fill-opacity: 1;"/><path class="point" transform="translate(252.92,118.43)" d="M-4.2,0A 5.7,5.7 0 0 1 0,4.2A 5.7,5.7 0 0 1 4.2,0A 5.7,5.7 0 0 1 0,-4.2A 5.7,5.7 0 0 1 -4.2,0Z" style="opacity: 0.5; stroke-width: 0px; fill: rgb(51, 34, 136); fill-opacity: 1;"/><path class="point" transform="translate(286.08,180.43)" d="M-4.2,0A 5.7,5.7 0 0 1 0,4.2A 5.7,5.7 0 0 1 4.2,0A 5.7,5.7 0 0 1 0,-4.2A 5.7,5.7 0 0 1 -4.2,0Z" style="opacity: 0.5; stroke-width: 0px; fill: rgb(51, 34, 136); fill-opacity: 1;"/><path class="point" transform="translate(319.25,254.65)" d="M-4.2,0A 5.7,5.7 0 0 1 0,4.2A 5.7,5.7 0 0 1 4.2,0A 5.7,5.7 0 0 1 0,-4.2A 5.7,5.7 0 0 1 -4.2,0Z" style="opacity: 0.5; stroke-width: 0px; fill: rgb(51, 34, 136); fill-opacity: 1;"/></g><g class="text"/></g></g></g><g class="overplot"/><path class="xlines-above crisp" d="M0,0" style="fill: none;"/><path class="ylines-above crisp" d="M0,0" style="fill: none;"/><g class="overlines-above"/><g class="xaxislayer-above"/><g class="yaxislayer-above"><g class="ytick"><text text-anchor="end" x="79" y="4.199999999999999" transform="translate(0,353.25)" style="font-family: 'Open Sans', verdana, arial, sans-serif; font-size: 12px; fill: rgb(42, 63, 95); fill-opacity: 1; white-space: pre; opacity: 1;">−20</text></g><g class="ytick"><text text-anchor="end" x="79" y="4.199999999999999" style="font-family: 'Open Sans', verdana, arial, sans-serif; font-size: 12px; fill: rgb(42, 63, 95); fill-opacity: 1; white-space: pre; opacity: 1;" transform="translate(0,299.44)">−15</text></g><g class="ytick"><text text-anchor="end" x="79" y="4.199999999999999" style="font-family: 'Open Sans', verdana, arial, sans-serif; font-size: 12px; fill: rgb(42, 63, 95); fill-opacity: 1; white-space: pre; opacity: 1;" transform="translate(0,245.63)">−10</text></g><g class="ytick"><text text-anchor="end" x="79" y="4.199999999999999" style="font-family: 'Open Sans', verdana, arial, sans-serif; font-size: 12px; fill: rgb(42, 63, 95); fill-opacity: 1; white-space: pre; opacity: 1;" transform="translate(0,191.82)">−5</text></g><g class="ytick"><text text-anchor="end" x="79" y="4.199999999999999" style="font-family: 'Open Sans', verdana, arial, sans-serif; font-size: 12px; fill: rgb(42, 63, 95); fill-opacity: 1; white-space: pre; opacity: 1;" transform="translate(0,138.01)">0</text></g></g><g class="overaxes-above"/></g><g class="subplot x2y2"><g class="layer-subplot"><g class="shapelayer"/><g class="imagelayer"/></g><g class="minor-gridlayer"><g class="x2"/><g class="y2"/></g><g class="gridlayer"><g class="x2"><path class="x2grid crisp" transform="translate(129.9,0)" d="M0,474.00000000000006v272" style="stroke: rgb(235, 240, 248); stroke-opacity: 1; stroke-width: 1px;"/><path class="x2grid crisp" transform="translate(200.12,0)" d="M0,474.00000000000006v272" style="stroke: rgb(235, 240, 248); stroke-opacity: 1; stroke-width: 1px;"/><path class="x2grid crisp" transform="translate(270.33000000000004,0)" d="M0,474.00000000000006v272" style="stroke: rgb(235, 240, 248); stroke-opacity: 1; stroke-width: 1px;"/><path class="x2grid crisp" transform="translate(340.54,0)" d="M0,474.00000000000006v272" style="stroke: rgb(235, 240, 248); stroke-opacity: 1; stroke-width: 1px;"/><path class="x2grid crisp" transform="translate(410.75,0)" d="M0,474.00000000000006v272" style="stroke: rgb(235, 240, 248); stroke-opacity: 1; stroke-width: 1px;"/></g><g class="y2"><path class="y2grid crisp" transform="translate(0,718.4100000000001)" d="M80,0h340" style="stroke: rgb(235, 240, 248); stroke-opacity: 1; stroke-width: 1px;"/><path class="y2grid crisp" transform="translate(0,680.07)" d="M80,0h340" style="stroke: rgb(235, 240, 248); stroke-opacity: 1; stroke-width: 1px;"/><path class="y2grid crisp" transform="translate(0,641.72)" d="M80,0h340" style="stroke: rgb(235, 240, 248); stroke-opacity: 1; stroke-width: 1px;"/><path class="y2grid crisp" transform="translate(0,603.3800000000001)" d="M80,0h340" style="stroke: rgb(235, 240, 248); stroke-opacity: 1; stroke-width: 1px;"/><path class="y2grid crisp" transform="translate(0,565.0400000000001)" d="M80,0h340" style="stroke: rgb(235, 240, 248); stroke-opacity: 1; stroke-width: 1px;"/><path class="y2grid crisp" transform="translate(0,526.7)" d="M80,0h340" style="stroke: rgb(235, 240, 248); stroke-opacity: 1; stroke-width: 1px;"/><path class="y2grid crisp" transform="translate(0,488.3500000000001)" d="M80,0h340" style="stroke: rgb(235, 240, 248); stroke-opacity: 1; stroke-width: 1px;"/></g></g><g class="zerolinelayer"/><path class="xlines-below"/><path class="ylines-below"/><g class="overlines-below"/><g class="xaxislayer-below"/><g class="yaxislayer-below"/><g class="overaxes-below"/><g class="plot" transform="translate(80,474.00000000000006)" clip-path="url(#clip9fe52ax2y2plot)"><g class="scatterlayer mlayer"><g class="trace scatter trace73c3ea" style="stroke-miterlimit: 2; opacity: 1;"><g class="fills"/><g class="errorbars"/><g class="lines"><path class="js-line" d="M23.77,258.4L183.57,152.17L186.58,13.6L189.6,14.46L192.61,78.19L316.23,85.86" style="vector-effect: non-scaling-stroke; fill: none; stroke: rgb(51, 34, 136); stroke-opacity: 1; stroke-width: 2px; opacity: 1;"/></g><g class="points"/><g class="text"/></g></g></g><g class="overplot"/><path class="xlines-above crisp" d="M0,0" style="fill: none;"/><path class="ylines-above crisp" d="M0,0" style="fill: none;"/><g class="overlines-above"/><g class="xaxislayer-above"/><g class="yaxislayer-above"><g class="y2tick"><text text-anchor="end" x="79" y="4.199999999999999" transform="translate(0,718.4100000000001)" style="font-family: 'Open Sans', verdana, arial, sans-serif; font-size: 12px; fill: rgb(42, 63, 95); fill-opacity: 1; white-space: pre; opacity: 1;">−100k</text></g><g class="y2tick"><text text-anchor="end" x="79" y="4.199999999999999" style="font-family: 'Open Sans', verdana, arial, sans-serif; font-size: 12px; fill: rgb(42, 63, 95); fill-opacity: 1; white-space: pre; opacity: 1;" transform="translate(0,680.07)">−90k</text></g><g class="y2tick"><text text-anchor="end" x="79" y="4.199999999999999" style="font-family: 'Open Sans', verdana, arial, sans-serif; font-size: 12px; fill: rgb(42, 63, 95); fill-opacity: 1; white-space: pre; opacity: 1;" transform="translate(0,641.72)">−80k</text></g><g class="y2tick"><text text-anchor="end" x="79" y="4.199999999999999" style="font-family: 'Open Sans', verdana, arial, sans-serif; font-size: 12px; fill: rgb(42, 63, 95); fill-opacity: 1; white-space: pre; opacity: 1;" transform="translate(0,603.3800000000001)">−70k</text></g><g class="y2tick"><text text-anchor="end" x="79" y="4.199999999999999" style="font-family: 'Open Sans', verdana, arial, sans-serif; font-size: 12px; fill: rgb(42, 63, 95); fill-opacity: 1; white-space: pre; opacity: 1;" transform="translate(0,565.0400000000001)">−60k</text></g><g class="y2tick"><text text-anchor="end" x="79" y="4.199999999999999" style="font-family: 'Open Sans', verdana, arial, sans-serif; font-size: 12px; fill: rgb(42, 63, 95); fill-opacity: 1; white-space: pre; opacity: 1;" transform="translate(0,526.7)">−50k</text></g><g class="y2tick"><text text-anchor="end" x="79" y="4.199999999999999" style="font-family: 'Open Sans', verdana, arial, sans-serif; font-size: 12px; fill: rgb(42, 63, 95); fill-opacity: 1; white-space: pre; opacity: 1;" transform="translate(0,488.3500000000001)">−40k</text></g></g><g class="overaxes-above"/></g><g class="subplot x3y3"><g class="layer-subplot"><g class="shapelayer"/><g class="imagelayer"/></g><g class="minor-gridlayer"><g class="x3"/><g class="y3"/></g><g class="gridlayer"><g class="x3"><path class="x3grid crisp" transform="translate(129.9,0)" d="M0,848.0000000000001v272" style="stroke: rgb(235, 240, 248); stroke-opacity: 1; stroke-width: 1px;"/><path class="x3grid crisp" transform="translate(200.12,0)" d="M0,848.0000000000001v272" style="stroke: rgb(235, 240, 248); stroke-opacity: 1; stroke-width: 1px;"/><path class="x3grid crisp" transform="translate(270.33000000000004,0)" d="M0,848.0000000000001v272" style="stroke: rgb(235, 240, 248); stroke-opacity: 1; stroke-width: 1px;"/><path class="x3grid crisp" transform="translate(340.54,0)" d="M0,848.0000000000001v272" style="stroke: rgb(235, 240, 248); stroke-opacity: 1; stroke-width: 1px;"/><path class="x3grid crisp" transform="translate(410.75,0)" d="M0,848.0000000000001v272" style="stroke: rgb(235, 240, 248); stroke-opacity: 1; stroke-width: 1px;"/></g><g class="y3"><path class="y3grid crisp" transform="translate(0,1111.5700000000002)" d="M80,0h340" style="stroke: rgb(235, 240, 248); stroke-opacity: 1; stroke-width: 1px;"/><path class="y3grid crisp" transform="translate(0,1053.45)" d="M80,0h340" style="stroke: rgb(235, 240, 248); stroke-opacity: 1; stroke-width: 1px;"/><path class="y3grid crisp" transform="translate(0,937.2100000000002)" d="M80,0h340" style="stroke: rgb(235, 240, 248); stroke-opacity: 1; stroke-width: 1px;"/><path class="y3grid crisp" transform="translate(0,879.1000000000001)" d="M80,0h340" style="stroke: rgb(235, 240, 248); stroke-opacity: 1; stroke-width: 1px;"/></g></g><g class="zerolinelayer"><path class="y3zl zl crisp" transform="translate(0,995.3300000000002)" d="M80,0h340" style="stroke: rgb(235, 240, 248); stroke-opacity: 1; stroke-width: 2px;"/></g><path class="xlines-below"/><path class="ylines-below"/><g class="overlines-below"/><g class="xaxislayer-below"/><g class="yaxislayer-below"/><g class="overaxes-below"/><g class="plot" transform="translate(80,848.0000000000001)" clip-path="url(#clip9fe52ax3y3plot)"><g class="scatterlayer mlayer"><g class="trace scatter tracee7dcb4" style="stroke-miterlimit: 2; opacity: 1;"><g class="fills"/><g class="errorbars"/><g class="lines"><path class="js-line" d="M20.75,151.22L87.08,159.83L90.1,159.89L93.11,141.45L96.13,138.77L99.14,140.94L102.16,144.34L114.22,160.84L117.23,163.36L120.25,164.3L123.27,163.35L129.3,157.53L132.31,153.88L138.34,148.16L141.36,147.23L153.42,146.29L156.43,146.29L171.51,147.07L174.52,147.51L183.57,149.79L186.58,150.93L189.6,152.96L192.61,156.19L198.64,158.2L201.66,159.81L216.73,168.53L219.75,169.48L234.83,172.06L237.84,172.45L274.02,177.61L277.04,178.07L319.25,184.48" style="vector-effect: non-scaling-stroke; fill: none; stroke: rgb(68, 1, 84); stroke-opacity: 1; stroke-width: 1px; opacity: 1;"/></g><g class="points"/><g class="text"/></g><g class="trace scatter trace986370" style="stroke-miterlimit: 2; opacity: 1;"><g class="fills"/><g class="errorbars"/><g class="lines"><path class="js-line" d="M20.75,169.18L90.1,168.88L93.11,150.88L96.13,148.08L99.14,149.85L105.17,156.03L108.19,159.67L114.22,166.13L117.23,168.19L120.25,168.96L123.27,167.67L126.28,164.38L129.3,159.93L135.33,150.93L138.34,148.07L144.37,147.37L147.39,147.43L186.58,147.44L189.6,148.97L192.61,152.03L195.63,152.58L204.67,155.81L207.69,157.06L216.73,159.83L219.75,160.08L319.25,159.83" style="vector-effect: non-scaling-stroke; fill: none; stroke: rgb(69, 7, 90); stroke-opacity: 1; stroke-width: 1px; opacity: 1;"/></g><g class="points"/><g class="text"/></g><g class="trace scatter trace91a54e" style="stroke-miterlimit: 2; opacity: 1;"><g class="fills"/><g class="errorbars"/><g class="lines"><path class="js-line" d="M20.75,145.37L90.1,160.5L93.11,140.13L96.13,137.22L99.14,139.82L105.17,148.85L108.19,154.18L114.22,163.63L117.23,166.64L120.25,167.77L123.27,166.56L126.28,163.45L129.3,159.24L135.33,150.73L138.34,148.03L141.36,147.35L144.37,147.77L159.45,151.32L162.46,151.62L174.52,153.05L177.54,153.82L183.57,156.32L186.58,158.19L189.6,160.68L192.61,164.41L198.64,166.9L201.66,168.9L216.73,180.07L219.75,181.42L231.81,184.88L234.83,185.57L277.04,195.52L280.05,196.28L319.25,206.16" style="vector-effect: non-scaling-stroke; fill: none; stroke: rgb(69, 14, 96); stroke-opacity: 1; stroke-width: 1px; opacity: 1;"/></g><g class="points"/><g class="text"/></g><g class="trace scatter trace587c10" style="stroke-miterlimit: 2; opacity: 1;"><g class="fills"/><g class="errorbars"/><g class="lines"><path class="js-line" d="M20.75,125.06L87.08,152.9L90.1,153.87L93.11,128.25L96.13,124.95L99.14,128.53L102.16,134.14L114.22,161.37L117.23,165.53L120.25,167.09L123.27,165.91L126.28,162.91L129.3,158.84L135.33,150.62L138.34,148L141.36,147.35L144.37,147.6L171.51,152.72L174.52,153.91L180.55,157.67L183.57,160.44L189.6,167.47L192.61,172.07L195.63,173.5L198.64,175.86L204.67,182.42L207.69,186.16L216.73,196.37L219.75,198.66L231.81,204.92L234.83,206.23L264.98,219.46L267.99,220.88L319.25,245.37" style="vector-effect: non-scaling-stroke; fill: none; stroke: rgb(70, 20, 101); stroke-opacity: 1; stroke-width: 1px; opacity: 1;"/></g><g class="points"/><g class="text"/></g><g class="trace scatter trace995307" style="stroke-miterlimit: 2; opacity: 1;"><g class="fills"/><g class="errorbars"/><g class="lines"><path class="js-line" d="M20.75,151.25L90.1,157.37L93.11,145.44L96.13,143.63L99.14,145.06L105.17,150.02L108.19,152.94L114.22,158.13L117.23,159.78L120.25,160.4L123.27,159.63L129.3,154.95L132.31,152.07L138.34,147.78L141.36,147.34L183.57,151.36L186.58,152.12L189.6,153.46L192.61,155.69L198.64,156.96L201.66,157.97L216.73,163.51L219.75,164.12L240.86,166.33L243.87,166.58L292.11,171.31L295.13,171.61L319.25,174.05" style="vector-effect: non-scaling-stroke; fill: none; stroke: rgb(71, 26, 107); stroke-opacity: 1; stroke-width: 1px; opacity: 1;"/></g><g class="points"/><g class="text"/></g><g class="trace scatter trace15b955" style="stroke-miterlimit: 2; opacity: 1;"><g class="fills"/><g class="errorbars"/><g class="lines"><path class="js-line" d="M20.75,164.6L90.1,166.49L93.11,149.25L96.13,146.59L99.14,148.38L105.17,154.6L108.19,158.26L114.22,164.76L117.23,166.83L120.25,167.61L123.27,166.4L126.28,163.32L129.3,159.14L135.33,150.7L138.34,148.02L141.36,147.34L144.37,147.44L168.49,148.3L171.51,148.34L186.58,149.08L189.6,150.66L192.61,153.66L195.63,154.23L204.67,157.61L207.69,158.95L216.73,162.11L219.75,162.53L252.92,163.65L255.93,163.76L319.25,166.01" style="vector-effect: non-scaling-stroke; fill: none; stroke: rgb(71, 32, 113); stroke-opacity: 1; stroke-width: 1px; opacity: 1;"/></g><g class="points"/><g class="text"/></g><g class="trace scatter trace466622" style="stroke-miterlimit: 2; opacity: 1;"><g class="fills"/><g class="errorbars"/><g class="lines"><path class="js-line" d="M20.75,150.2L90.1,157.61L93.11,144.32L96.13,142.33L99.14,143.94L105.17,149.52L108.19,152.82L114.22,158.66L117.23,160.53L120.25,161.22L123.27,160.4L129.3,155.43L132.31,152.36L138.34,147.8L141.36,147.34L177.54,150.42L180.55,150.94L186.58,152.56L189.6,154.08L192.61,156.55L195.63,157.09L204.67,160.47L207.69,161.85L216.73,165.48L219.75,166.2L237.84,168.55L240.86,168.85L286.08,174.07L289.1,174.44L319.25,178.07" style="vector-effect: non-scaling-stroke; fill: none; stroke: rgb(72, 39, 119); stroke-opacity: 1; stroke-width: 1px; opacity: 1;"/></g><g class="points"/><g class="text"/></g><g class="trace scatter trace1ff1f7" style="stroke-miterlimit: 2; opacity: 1;"><g class="fills"/><g class="errorbars"/><g class="lines"><path class="js-line" d="M20.75,151.48L87.08,163.26L90.1,163.48L93.11,143.9L96.13,141.09L99.14,143.49L102.16,147.25L114.22,165.53L117.23,168.32L120.25,169.37L123.27,168.06L126.28,164.7L129.3,160.17L135.33,150.99L138.34,148.08L141.36,147.37L144.37,148.01L156.43,152.1L159.45,152.53L177.54,154.4L180.55,155.2L186.58,157.8L189.6,160.08L192.61,163.59L195.63,164.45L201.66,167.69L204.67,169.78L216.73,177.76L219.75,178.93L234.83,182.34L237.84,182.87L271.01,189.2L274.02,189.82L319.25,199.26" style="vector-effect: non-scaling-stroke; fill: none; stroke: rgb(71, 44, 122); stroke-opacity: 1; stroke-width: 1px; opacity: 1;"/></g><g class="points"/><g class="text"/></g><g class="trace scatter trace7a42f4" style="stroke-miterlimit: 2; opacity: 1;"><g class="fills"/><g class="errorbars"/><g class="lines"><path class="js-line" d="M20.75,150.15L90.1,158L93.11,144.33L96.13,142.31L99.14,143.97L105.17,149.74L108.19,153.14L114.22,159.18L117.23,161.1L120.25,161.82L123.27,160.96L129.3,155.77L132.31,152.58L138.34,147.82L141.36,147.35L153.42,149.04L156.43,149.36L180.55,151.4L183.57,152.14L189.6,154.68L192.61,157.23L198.64,158.73L201.66,159.93L216.73,166.53L219.75,167.29L237.84,169.77L240.86,170.09L286.08,175.61L289.1,175.99L319.25,179.86" style="vector-effect: non-scaling-stroke; fill: none; stroke: rgb(69, 49, 125); stroke-opacity: 1; stroke-width: 1px; opacity: 1;"/></g><g class="points"/><g class="text"/></g><g class="trace scatter traceaa3332" style="stroke-miterlimit: 2; opacity: 1;"><g class="fills"/><g class="errorbars"/><g class="lines"><path class="js-line" d="M20.75,150.26L90.1,157.23L93.11,144.48L96.13,142.58L99.14,144.12L105.17,149.46L108.19,152.6L114.22,158.19L117.23,159.97L120.25,160.64L123.27,159.85L129.3,155.08L132.31,152.15L138.34,147.78L141.36,147.34L174.52,149.8L177.54,150.16L186.58,152.18L189.6,153.63L192.61,156.01L195.63,156.53L204.67,159.75L207.69,161.07L216.73,164.53L219.75,165.21L237.84,167.43L240.86,167.71L286.08,172.64L289.1,172.98L319.25,176.41" style="vector-effect: non-scaling-stroke; fill: none; stroke: rgb(68, 55, 128); stroke-opacity: 1; stroke-width: 1px; opacity: 1;"/></g><g class="points"/><g class="text"/></g><g class="trace scatter traceab3399" style="stroke-miterlimit: 2; opacity: 1;"><g class="fills"/><g class="errorbars"/><g class="lines"><path class="js-line" d="M20.75,151.29L90.1,155.99L93.11,145.65L96.13,144.1L99.14,145.32L105.17,149.53L108.19,152.02L114.22,156.43L117.23,157.84L120.25,158.37L123.27,157.71L129.3,153.76L132.31,151.33L138.34,147.71L141.36,147.34L177.54,149.24L180.55,149.58L186.58,150.62L189.6,151.76L192.61,153.65L195.63,154.06L204.67,156.57L207.69,157.6L216.73,160.24L219.75,160.74L243.87,162.65L246.89,162.84L316.23,168.18L319.25,168.41" style="vector-effect: non-scaling-stroke; fill: none; stroke: rgb(66, 60, 130); stroke-opacity: 1; stroke-width: 1px; opacity: 1;"/></g><g class="points"/><g class="text"/></g><g class="trace scatter trace40663c" style="stroke-miterlimit: 2; opacity: 1;"><g class="fills"/><g class="errorbars"/><g class="lines"><path class="js-line" d="M20.75,150.35L90.1,157.85L93.11,144.54L96.13,142.57L99.14,144.18L105.17,149.78L108.19,153.08L114.22,158.94L117.23,160.81L120.25,161.51L123.27,160.66L129.3,155.59L132.31,152.46L138.34,147.81L141.36,147.35L153.42,148.99L156.43,149.31L180.55,151.25L183.57,151.96L189.6,154.41L192.61,156.89L198.64,158.35L201.66,159.51L216.73,165.91L219.75,166.64L237.84,169.02L240.86,169.32L283.07,174.25L286.08,174.62L319.25,178.67" style="vector-effect: non-scaling-stroke; fill: none; stroke: rgb(64, 65, 133); stroke-opacity: 1; stroke-width: 1px; opacity: 1;"/></g><g class="points"/><g class="text"/></g><g class="trace scatter traced02cf0" style="stroke-miterlimit: 2; opacity: 1;"><g class="fills"/><g class="errorbars"/><g class="lines"><path class="js-line" d="M20.75,149.53L90.1,160.38L93.11,142.98L96.13,140.45L99.14,142.6L105.17,150.06L108.19,154.46L114.22,162.26L117.23,164.75L120.25,165.68L123.27,164.59L129.3,158.02L132.31,153.98L135.33,150.38L138.34,147.96L141.36,147.35L144.37,147.71L159.45,150.63L162.46,150.86L177.54,152.4L180.55,153.16L186.58,155.53L189.6,157.59L192.61,160.69L195.63,161.45L201.66,164.33L204.67,166.18L216.73,173.26L219.75,174.29L234.83,177.32L237.84,177.79L274.02,183.92L277.04,184.46L319.25,192.11" style="vector-effect: non-scaling-stroke; fill: none; stroke: rgb(63, 71, 136); stroke-opacity: 1; stroke-width: 1px; opacity: 1;"/></g><g class="points"/><g class="text"/></g><g class="trace scatter tracef3cafd" style="stroke-miterlimit: 2; opacity: 1;"><g class="fills"/><g class="errorbars"/><g class="lines"><path class="js-line" d="M20.75,147.7L90.1,159.81L93.11,142.03L96.13,139.43L99.14,141.65L105.17,149.39L108.19,153.94L114.22,162.03L117.23,164.61L120.25,165.57L123.27,164.49L129.3,157.96L132.31,153.94L138.34,147.95L141.36,147.35L150.4,149.16L153.42,149.85L165.48,151.12L168.49,151.33L177.54,152.63L180.55,153.47L186.58,156.07L189.6,158.19L192.61,161.5L195.63,162.28L201.66,165.24L204.67,167.15L216.73,174.49L219.75,175.58L234.83,178.86L237.84,179.38L277.04,186.5L280.05,187.08L319.25,194.9" style="vector-effect: non-scaling-stroke; fill: none; stroke: rgb(61, 76, 137); stroke-opacity: 1; stroke-width: 1px; opacity: 1;"/></g><g class="points"/><g class="text"/></g><g class="trace scatter tracec1cc0e" style="stroke-miterlimit: 2; opacity: 1;"><g class="fills"/><g class="errorbars"/><g class="lines"><path class="js-line" d="M20.75,149.93L90.1,160.27L93.11,143.04L96.13,140.52L99.14,142.63L105.17,149.98L108.19,154.3L114.22,161.98L117.23,164.43L120.25,165.35L123.27,164.28L129.3,157.83L132.31,153.86L138.34,147.94L141.36,147.35L150.4,148.89L153.42,149.48L165.48,150.57L168.49,150.76L177.54,151.9L180.55,152.63L186.58,154.9L189.6,156.89L192.61,160.02L195.63,160.76L201.66,163.55L204.67,165.35L216.73,172.22L219.75,173.21L234.83,176.11L237.84,176.56L277.04,182.86L280.05,183.38L319.25,190.25" style="vector-effect: non-scaling-stroke; fill: none; stroke: rgb(59, 81, 138); stroke-opacity: 1; stroke-width: 1px; opacity: 1;"/></g><g class="points"/><g class="text"/></g><g class="trace scatter tracec85fe2" style="stroke-miterlimit: 2; opacity: 1;"><g class="fills"/><g class="errorbars"/><g class="lines"><path class="js-line" d="M20.75,169.62L90.1,169.68L93.11,151.81L96.13,149.03L99.14,150.81L105.17,156.98L108.19,160.62L114.22,167.08L117.23,169.14L120.25,169.91L123.27,168.57L126.28,165.13L129.3,160.48L135.33,151.08L138.34,148.1L141.36,147.35L144.37,147.63L153.42,148.79L156.43,148.81L186.58,148.9L189.6,150.43L192.61,153.48L195.63,154.03L204.67,157.3L207.69,158.57L216.73,161.41L219.75,161.68L319.25,162.01" style="vector-effect: non-scaling-stroke; fill: none; stroke: rgb(45, 114, 142); stroke-opacity: 1; stroke-width: 1px; opacity: 1;"/></g><g class="points"/><g class="text"/></g><g class="trace scatter tracec528cc" style="stroke-miterlimit: 2; opacity: 1;"><g class="fills"/><g class="errorbars"/><g class="lines"><path class="js-line" d="M20.75,145.56L68.99,156.78L72.01,157.56L87.08,160.52L90.1,160.87L93.11,140.26L96.13,137.25L99.14,139.88L102.16,143.99L114.22,163.96L117.23,167.01L120.25,168.15L123.27,166.92L126.28,163.75L129.3,159.46L135.33,150.79L138.34,148.04L141.36,147.36L144.37,147.81L159.45,151.58L162.46,151.89L174.52,153.31L177.54,154.07L183.57,156.57L186.58,158.44L189.6,161L192.61,164.93L198.64,167.44L201.66,169.46L216.73,180.74L219.75,182.11L231.81,185.6L234.83,186.3L274.02,195.61L277.04,196.38L319.25,207.12" style="vector-effect: non-scaling-stroke; fill: none; stroke: rgb(43, 118, 142); stroke-opacity: 1; stroke-width: 1px; opacity: 1;"/></g><g class="points"/><g class="text"/></g><g class="trace scatter trace9a180a" style="stroke-miterlimit: 2; opacity: 1;"><g class="fills"/><g class="errorbars"/><g class="lines"><path class="js-line" d="M20.75,131.57L65.98,150.91L68.99,152.33L84.07,158.68L87.08,159.66L90.1,160.63L93.11,134.03L96.13,130.53L99.14,134.24L105.17,147.12L108.19,154.71L114.22,168.19L117.23,172.49L120.25,174.1L123.27,172.51L126.28,168.43L129.3,162.92L135.33,151.78L138.34,148.24L141.36,147.39L144.37,148.63L153.42,155.52L156.43,156.87L165.48,158.9L168.49,159.38L174.52,160.9L177.54,162.21L183.57,166.69L186.58,170.13L189.6,173.87L192.61,179.12L195.63,180.54L198.64,182.9L204.67,189.46L207.69,193.19L216.73,203.4L219.75,205.69L231.81,211.96L234.83,213.27L267.99,227.82L271.01,229.22L319.25,251.99" style="vector-effect: non-scaling-stroke; fill: none; stroke: rgb(41, 122, 142); stroke-opacity: 1; stroke-width: 1px; opacity: 1;"/></g><g class="points"/><g class="text"/></g><g class="trace scatter trace4142bd" style="stroke-miterlimit: 2; opacity: 1;"><g class="fills"/><g class="errorbars"/><g class="lines"><path class="js-line" d="M20.75,150.95L90.1,157.32L93.11,145.12L96.13,143.3L99.14,144.76L105.17,149.85L108.19,152.84L114.22,158.15L117.23,159.85L120.25,160.48L123.27,159.7L129.3,154.99L132.31,152.09L138.34,147.78L141.36,147.34L180.55,150.75L183.57,151.35L189.6,153.53L192.61,155.8L198.64,157.11L201.66,158.15L216.73,163.85L219.75,164.49L237.84,166.54L240.86,166.8L289.1,171.67L292.11,171.98L319.25,174.84" style="vector-effect: non-scaling-stroke; fill: none; stroke: rgb(40, 126, 142); stroke-opacity: 1; stroke-width: 1px; opacity: 1;"/></g><g class="points"/><g class="text"/></g><g class="trace scatter tracecaed26" style="stroke-miterlimit: 2; opacity: 1;"><g class="fills"/><g class="errorbars"/><g class="lines"><path class="js-line" d="M20.75,164.32L90.1,166.26L93.11,148.9L96.13,146.25L99.14,148.06L105.17,154.32L108.19,158L114.22,164.55L117.23,166.64L120.25,167.42L123.27,166.23L129.3,159.04L132.31,154.61L135.33,150.67L138.34,148.01L144.37,147.39L147.39,147.5L186.58,148.84L189.6,150.44L192.61,153.46L195.63,154.03L204.67,157.44L207.69,158.79L216.73,161.99L219.75,162.42L252.92,163.58L255.93,163.69L319.25,166.01" style="vector-effect: non-scaling-stroke; fill: none; stroke: rgb(38, 130, 142); stroke-opacity: 1; stroke-width: 1px; opacity: 1;"/></g><g class="points"/><g class="text"/></g><g class="trace scatter trace0a76d9" style="stroke-miterlimit: 2; opacity: 1;"><g class="fills"/><g class="errorbars"/><g class="lines"><path class="js-line" d="M20.75,150.63L90.1,157.85L93.11,144.78L96.13,142.83L99.14,144.41L105.17,149.88L108.19,153.1L114.22,158.83L117.23,160.65L120.25,161.34L123.27,160.51L129.3,155.49L132.31,152.4L138.34,147.81L141.36,147.35L153.42,149.03L156.43,149.34L180.55,151.2L183.57,151.87L189.6,154.24L192.61,156.67L198.64,158.1L201.66,159.23L216.73,165.46L219.75,166.17L237.84,168.46L240.86,168.76L286.08,173.86L289.1,174.21L319.25,177.77" style="vector-effect: non-scaling-stroke; fill: none; stroke: rgb(37, 135, 141); stroke-opacity: 1; stroke-width: 1px; opacity: 1;"/></g><g class="points"/><g class="text"/></g><g class="trace scatter trace08aba8" style="stroke-miterlimit: 2; opacity: 1;"><g class="fills"/><g class="errorbars"/><g class="lines"><path class="js-line" d="M20.75,150.58L87.08,161.35L90.1,161.51L93.11,142.22L96.13,139.45L99.14,141.79L102.16,145.44L114.22,163.18L117.23,165.89L120.25,166.9L123.27,165.74L129.3,158.73L132.31,154.42L135.33,150.59L138.34,148L141.36,147.34L144.37,147.56L165.48,149.91L168.49,150.13L177.54,151.44L180.55,152.25L186.58,154.7L189.6,156.91L192.61,160.35L195.63,161.18L201.66,164.29L204.67,166.29L216.73,173.92L219.75,175.02L234.83,178.17L237.84,178.65L274.02,185.02L277.04,185.59L319.25,193.69" style="vector-effect: non-scaling-stroke; fill: none; stroke: rgb(36, 140, 140); stroke-opacity: 1; stroke-width: 1px; opacity: 1;"/></g><g class="points"/><g class="text"/></g><g class="trace scatter trace183d69" style="stroke-miterlimit: 2; opacity: 1;"><g class="fills"/><g class="errorbars"/><g class="lines"><path class="js-line" d="M20.75,150.04L90.1,157.58L93.11,144.19L96.13,142.21L99.14,143.83L105.17,149.46L108.19,152.78L114.22,158.67L117.23,160.55L120.25,161.26L123.27,160.43L129.3,155.44L132.31,152.38L138.34,147.81L141.36,147.34L174.52,150.01L177.54,150.39L186.58,152.58L189.6,154.12L192.61,156.61L195.63,157.16L204.67,160.59L207.69,162L216.73,165.68L219.75,166.41L237.84,168.8L240.86,169.11L280.05,173.72L283.07,174.09L319.25,178.53" style="vector-effect: non-scaling-stroke; fill: none; stroke: rgb(34, 144, 140); stroke-opacity: 1; stroke-width: 1px; opacity: 1;"/></g><g class="points"/><g class="text"/></g><g class="trace scatter traced5b722" style="stroke-miterlimit: 2; opacity: 1;"><g class="fills"/><g class="errorbars"/><g class="lines"><path class="js-line" d="M20.75,150.22L90.1,157.49L93.11,144.31L96.13,142.37L99.14,143.96L105.17,149.48L108.19,152.74L114.22,158.51L117.23,160.35L120.25,161.04L123.27,160.23L129.3,155.32L132.31,152.3L138.34,147.8L141.36,147.34L177.54,150.25L180.55,150.77L186.58,152.36L189.6,153.87L192.61,156.32L195.63,156.86L204.67,160.21L207.69,161.58L216.73,165.18L219.75,165.89L237.84,168.2L240.86,168.5L283.07,173.28L286.08,173.64L319.25,177.58" style="vector-effect: non-scaling-stroke; fill: none; stroke: rgb(33, 148, 139); stroke-opacity: 1; stroke-width: 1px; opacity: 1;"/></g><g class="points"/><g class="text"/></g><g class="trace scatter tracee696b7" style="stroke-miterlimit: 2; opacity: 1;"><g class="fills"/><g class="errorbars"/><g class="lines"><path class="js-line" d="M20.75,151.35L90.1,156.19L93.11,145.76L96.13,144.2L99.14,145.43L105.17,149.69L108.19,152.2L114.22,156.66L117.23,158.09L120.25,158.62L123.27,157.95L129.3,153.91L132.31,151.42L138.34,147.72L141.36,147.34L180.55,149.83L183.57,150.3L189.6,152.05L192.61,153.96L201.66,155.93L204.67,156.92L216.73,160.65L219.75,161.16L240.86,162.92L243.87,163.12L292.11,166.87L295.13,167.11L319.25,169.05" style="vector-effect: non-scaling-stroke; fill: none; stroke: rgb(32, 153, 138); stroke-opacity: 1; stroke-width: 1px; opacity: 1;"/></g><g class="points"/><g class="text"/></g><g class="trace scatter traceac5636" style="stroke-miterlimit: 2; opacity: 1;"><g class="fills"/><g class="errorbars"/><g class="lines"><path class="js-line" d="M20.75,150.75L90.1,158.57L93.11,144.96L96.13,142.95L99.14,144.6L105.17,150.33L108.19,153.71L114.22,159.71L117.23,161.63L120.25,162.35L123.27,161.45L129.3,156.08L132.31,152.77L138.34,147.84L141.36,147.35L150.4,149.04L153.42,149.62L165.48,150.56L168.49,150.69L180.55,152.01L183.57,152.73L189.6,155.26L192.61,157.79L198.64,159.29L201.66,160.49L216.73,167.07L219.75,167.82L237.84,170.3L240.86,170.61L286.08,176.13L289.1,176.52L319.25,180.35" style="vector-effect: non-scaling-stroke; fill: none; stroke: rgb(31, 158, 137); stroke-opacity: 1; stroke-width: 1px; opacity: 1;"/></g><g class="points"/><g class="text"/></g><g class="trace scatter trace0a4c32" style="stroke-miterlimit: 2; opacity: 1;"><g class="fills"/><g class="errorbars"/><g class="lines"><path class="js-line" d="M20.75,149.65L90.1,159.84L93.11,142.76L96.13,140.27L99.14,142.36L105.17,149.62L108.19,153.9L114.22,161.5L117.23,163.92L120.25,164.83L123.27,163.79L129.3,157.53L132.31,153.67L138.34,147.93L141.36,147.34L150.4,148.57L153.42,149.07L168.49,150.25L171.51,150.51L180.55,152.15L183.57,153.14L189.6,156.41L192.61,159.62L198.64,161.54L201.66,163.08L216.73,171.54L219.75,172.52L234.83,175.34L237.84,175.78L274.02,181.55L277.04,182.06L319.25,189.27" style="vector-effect: non-scaling-stroke; fill: none; stroke: rgb(34, 162, 135); stroke-opacity: 1; stroke-width: 1px; opacity: 1;"/></g><g class="points"/><g class="text"/></g><g class="trace scatter trace7696e8" style="stroke-miterlimit: 2; opacity: 1;"><g class="fills"/><g class="errorbars"/><g class="lines"><path class="js-line" d="M20.75,147.95L90.1,159.52L93.11,142.26L96.13,139.72L99.14,141.88L105.17,149.37L108.19,153.78L114.22,161.61L117.23,164.11L120.25,165.05L123.27,164L129.3,157.65L132.31,153.75L138.34,147.93L141.36,147.35L150.4,149.05L153.42,149.7L165.48,150.9L168.49,151.11L177.54,152.36L180.55,153.16L186.58,155.66L189.6,157.72L192.61,160.92L195.63,161.68L201.66,164.53L204.67,166.37L216.73,173.45L219.75,174.5L234.83,177.63L237.84,178.12L274.02,184.48L277.04,185.04L319.25,192.94" style="vector-effect: non-scaling-stroke; fill: none; stroke: rgb(38, 166, 132); stroke-opacity: 1; stroke-width: 1px; opacity: 1;"/></g><g class="points"/><g class="text"/></g><g class="trace scatter trace945878" style="stroke-miterlimit: 2; opacity: 1;"><g class="fills"/><g class="errorbars"/><g class="lines"><path class="js-line" d="M20.75,149.85L90.1,160.22L93.11,143.09L96.13,140.59L99.14,142.69L105.17,150L108.19,154.3L114.22,161.95L117.23,164.39L120.25,165.3L123.27,164.23L129.3,157.8L132.31,153.84L138.34,147.94L141.36,147.35L150.4,148.94L153.42,149.55L165.48,150.66L168.49,150.85L177.54,151.98L180.55,152.71L186.58,154.99L189.6,157L192.61,160.22L195.63,160.95L201.66,163.71L204.67,165.48L216.73,172.27L219.75,173.26L234.83,176.15L237.84,176.59L277.04,182.97L280.05,183.49L319.25,190.29" style="vector-effect: non-scaling-stroke; fill: none; stroke: rgb(41, 170, 130); stroke-opacity: 1; stroke-width: 1px; opacity: 1;"/></g><g class="points"/><g class="text"/></g><g class="trace scatter trace941114" style="stroke-miterlimit: 2; opacity: 1;"><g class="fills"/><g class="errorbars"/><g class="lines"><path class="js-line" d="M20.75,212.13L87.08,177.29L90.1,175.51L93.11,183.83L96.13,184.61L99.14,182.94L102.16,180.26L111.2,169.06L114.22,165.24L120.25,159.21L123.27,156.92L132.31,150.19L135.33,148.58L138.34,147.58L141.36,147.39L147.39,150.19L150.4,151.85L156.43,152.55L159.45,152.41L165.48,151.5L168.49,150.58L174.52,147.45L177.54,145.08L183.57,138.38L186.58,133.9L192.61,128.77L195.63,127.65L201.66,123.35L204.67,120.5L216.73,108.48L219.75,106.16L234.83,96.85L237.84,95.12L271.01,75.49L274.02,73.65L319.25,45.43" style="vector-effect: non-scaling-stroke; fill: none; stroke: rgb(45, 174, 127); stroke-opacity: 1; stroke-width: 1px; opacity: 1;"/></g><g class="points"/><g class="text"/></g><g class="trace scatter trace9b42da" style="stroke-miterlimit: 2; opacity: 1;"><g class="fills"/><g class="errorbars"/><g class="lines"><path class="js-line" d="M20.75,144.75L90.1,159.63L93.11,139.12L96.13,136.22L99.14,138.82L105.17,147.87L108.19,153.19L114.22,162.66L117.23,165.68L120.25,166.81L123.27,165.65L129.3,158.68L132.31,154.38L135.33,150.57L138.34,147.99L141.36,147.34L144.37,147.58L177.54,152.42L180.55,153.5L186.58,156.77L189.6,159.29L192.61,163.17L195.63,164.1L201.66,167.63L204.67,169.9L216.73,178.72L219.75,180.07L234.83,184.18L237.84,184.83L271.01,192.47L274.02,193.2L319.25,204.6" style="vector-effect: non-scaling-stroke; fill: none; stroke: rgb(96, 200, 96); stroke-opacity: 1; stroke-width: 1px; opacity: 1;"/></g><g class="points"/><g class="text"/></g><g class="trace scatter trace80b736" style="stroke-miterlimit: 2; opacity: 1;"><g class="fills"/><g class="errorbars"/><g class="lines"><path class="js-line" d="M20.75,124.67L68.99,147.52L72.01,149.03L87.08,155.56L90.1,156.67L93.11,129.27L96.13,125.77L99.14,129.65L102.16,135.72L114.22,165.17L117.23,169.67L120.25,171.36L123.27,169.93L126.28,166.27L129.3,161.33L135.33,151.33L138.34,148.15L141.36,147.37L144.37,148.2L156.43,154.44L159.45,155.27L174.52,158.87L177.54,160.46L183.57,165.61L186.58,169.46L189.6,173.42L192.61,178.9L195.63,180.41L198.64,182.9L204.67,189.86L207.69,193.84L216.73,204.76L219.75,207.24L231.81,214.17L234.83,215.64L267.99,231.81L271.01,233.35L319.25,258.4" style="vector-effect: non-scaling-stroke; fill: none; stroke: rgb(105, 204, 91); stroke-opacity: 1; stroke-width: 1px; opacity: 1;"/></g><g class="points"/><g class="text"/></g><g class="trace scatter trace0f4345" style="stroke-miterlimit: 2; opacity: 1;"><g class="fills"/><g class="errorbars"/><g class="lines"><path class="js-line" d="M20.75,150.92L90.1,156.86L93.11,145.09L96.13,143.32L99.14,144.72L105.17,149.6L108.19,152.48L114.22,157.58L117.23,159.21L120.25,159.82L123.27,159.08L129.3,154.61L132.31,151.86L138.34,147.76L141.36,147.34L177.54,149.81L180.55,150.24L186.58,151.55L189.6,152.87L192.61,155.07L195.63,155.54L204.67,158.45L207.69,159.65L216.73,162.75L219.75,163.35L237.84,165.27L240.86,165.51L289.1,170.06L292.11,170.35L319.25,173.02" style="vector-effect: non-scaling-stroke; fill: none; stroke: rgb(115, 207, 85); stroke-opacity: 1; stroke-width: 1px; opacity: 1;"/></g><g class="points"/><g class="text"/></g><g class="trace scatter tracec208af" style="stroke-miterlimit: 2; opacity: 1;"><g class="fills"/><g class="errorbars"/><g class="lines"><path class="js-line" d="M20.75,165L90.1,167.15L93.11,149.92L96.13,147.27L99.14,149.07L105.17,155.33L108.19,159.01L114.22,165.55L117.23,167.64L120.25,168.42L123.27,167.17L126.28,163.96L129.3,159.62L135.33,150.84L138.34,148.05L141.36,147.35L144.37,147.62L156.43,149.09L159.45,149.19L186.58,150.22L189.6,151.82L192.61,154.79L195.63,155.36L204.67,158.82L207.69,160.19L216.73,163.45L219.75,163.89L249.9,165.04L252.92,165.15L319.25,167.76" style="vector-effect: non-scaling-stroke; fill: none; stroke: rgb(126, 210, 78); stroke-opacity: 1; stroke-width: 1px; opacity: 1;"/></g><g class="points"/><g class="text"/></g><g class="trace scatter trace2ffcfc" style="stroke-miterlimit: 2; opacity: 1;"><g class="fills"/><g class="errorbars"/><g class="lines"><path class="js-line" d="M20.75,150.64L90.1,157.82L93.11,144.8L96.13,142.86L99.14,144.43L105.17,149.89L108.19,153.11L114.22,158.82L117.23,160.65L120.25,161.33L123.27,160.5L129.3,155.49L132.31,152.4L138.34,147.81L141.36,147.35L153.42,149.04L156.43,149.35L180.55,151.2L183.57,151.87L189.6,154.24L192.61,156.67L198.64,158.08L201.66,159.21L216.73,165.4L219.75,166.1L237.84,168.39L240.86,168.68L286.08,173.75L289.1,174.1L319.25,177.63" style="vector-effect: non-scaling-stroke; fill: none; stroke: rgb(138, 212, 70); stroke-opacity: 1; stroke-width: 1px; opacity: 1;"/></g><g class="points"/><g class="text"/></g><g class="trace scatter trace600447" style="stroke-miterlimit: 2; opacity: 1;"><g class="fills"/><g class="errorbars"/><g class="lines"><path class="js-line" d="M20.75,149.83L90.1,161.04L93.11,141.97L96.13,139.22L99.14,141.54L105.17,149.62L108.19,154.38L114.22,162.83L117.23,165.52L120.25,166.53L123.27,165.39L129.3,158.52L132.31,154.28L135.33,150.52L138.34,147.98L141.36,147.34L144.37,147.55L165.48,149.92L168.49,150.14L177.54,151.49L180.55,152.32L186.58,154.85L189.6,157.02L192.61,160.41L195.63,161.24L201.66,164.33L204.67,166.33L216.73,173.93L219.75,175.04L234.83,178.23L237.84,178.72L271.01,184.58L274.02,185.15L319.25,193.92" style="vector-effect: non-scaling-stroke; fill: none; stroke: rgb(149, 215, 63); stroke-opacity: 1; stroke-width: 1px; opacity: 1;"/></g><g class="points"/><g class="text"/></g><g class="trace scatter trace5aa0f8" style="stroke-miterlimit: 2; opacity: 1;"><g class="fills"/><g class="errorbars"/><g class="lines"><path class="js-line" d="M20.75,150.48L90.1,158.03L93.11,144.65L96.13,142.65L99.14,144.28L105.17,149.92L108.19,153.24L114.22,159.14L117.23,161.02L120.25,161.72L123.27,160.87L129.3,155.72L132.31,152.54L138.34,147.82L141.36,147.35L153.42,149.13L156.43,149.46L180.55,151.42L183.57,152.12L189.6,154.59L192.61,157.08L198.64,158.54L201.66,159.71L216.73,166.1L219.75,166.83L237.84,169.22L240.86,169.52L289.1,175.22L292.11,175.59L319.25,178.93" style="vector-effect: non-scaling-stroke; fill: none; stroke: rgb(161, 217, 56); stroke-opacity: 1; stroke-width: 1px; opacity: 1;"/></g><g class="points"/><g class="text"/></g><g class="trace scatter trace054e82" style="stroke-miterlimit: 2; opacity: 1;"><g class="fills"/><g class="errorbars"/><g class="lines"><path class="js-line" d="M20.75,150.75L90.1,158.01L93.11,145L96.13,143.05L99.14,144.62L105.17,150.1L108.19,153.32L114.22,159.04L117.23,160.87L120.25,161.55L123.27,160.71L129.3,155.62L132.31,152.48L138.34,147.82L141.36,147.35L150.4,148.78L153.42,149.29L168.49,150.25L171.51,150.42L180.55,151.49L183.57,152.16L189.6,154.54L192.61,156.96L198.64,158.38L201.66,159.52L216.73,165.74L219.75,166.45L237.84,168.76L240.86,169.06L283.07,173.83L286.08,174.18L319.25,178.1" style="vector-effect: non-scaling-stroke; fill: none; stroke: rgb(172, 220, 49); stroke-opacity: 1; stroke-width: 1px; opacity: 1;"/></g><g class="points"/><g class="text"/></g><g class="trace scatter trace417bde" style="stroke-miterlimit: 2; opacity: 1;"><g class="fills"/><g class="errorbars"/><g class="lines"><path class="js-line" d="M20.75,151.21L90.1,156L93.11,145.61L96.13,144.05L99.14,145.27L105.17,149.52L108.19,152.02L114.22,156.46L117.23,157.88L120.25,158.41L123.27,157.75L129.3,153.79L132.31,151.34L138.34,147.71L141.36,147.34L177.54,149.27L180.55,149.62L186.58,150.67L189.6,151.82L192.61,153.72L195.63,154.14L204.67,156.67L207.69,157.71L216.73,160.38L219.75,160.88L240.86,162.63L243.87,162.82L295.13,166.77L298.14,167.01L319.25,168.68" style="vector-effect: non-scaling-stroke; fill: none; stroke: rgb(184, 222, 43); stroke-opacity: 1; stroke-width: 1px; opacity: 1;"/></g><g class="points"/><g class="text"/></g><g class="trace scatter trace0fc971" style="stroke-miterlimit: 2; opacity: 1;"><g class="fills"/><g class="errorbars"/><g class="lines"><path class="js-line" d="M20.75,150.29L90.1,158L93.11,144.48L96.13,142.49L99.14,144.13L105.17,149.82L108.19,153.18L114.22,159.14L117.23,161.04L120.25,161.75L123.27,160.89L129.3,155.73L132.31,152.55L138.34,147.82L141.36,147.35L153.42,149.09L156.43,149.42L180.55,151.42L183.57,152.14L189.6,154.64L192.61,157.15L198.64,158.63L201.66,159.82L216.73,166.33L219.75,167.07L237.84,169.51L240.86,169.83L283.07,174.9L286.08,175.27L319.25,179.45" style="vector-effect: non-scaling-stroke; fill: none; stroke: rgb(195, 224, 42); stroke-opacity: 1; stroke-width: 1px; opacity: 1;"/></g><g class="points"/><g class="text"/></g><g class="trace scatter trace0672c5" style="stroke-miterlimit: 2; opacity: 1;"><g class="fills"/><g class="errorbars"/><g class="lines"><path class="js-line" d="M20.75,150.15L90.1,160.82L93.11,143.53L96.13,141.01L99.14,143.14L105.17,150.54L108.19,154.9L114.22,162.64L117.23,165.11L120.25,166.04L123.27,164.93L129.3,158.23L132.31,154.11L135.33,150.44L138.34,147.97L141.36,147.35L144.37,147.79L156.43,150.74L159.45,151.08L177.54,152.78L180.55,153.51L186.58,155.83L189.6,157.87L192.61,160.95L195.63,161.7L201.66,164.54L204.67,166.36L216.73,173.34L219.75,174.36L234.83,177.33L237.84,177.79L277.04,184.36L280.05,184.9L319.25,191.91" style="vector-effect: non-scaling-stroke; fill: none; stroke: rgb(207, 225, 41); stroke-opacity: 1; stroke-width: 1px; opacity: 1;"/></g><g class="points"/><g class="text"/></g><g class="trace scatter trace6fec56" style="stroke-miterlimit: 2; opacity: 1;"><g class="fills"/><g class="errorbars"/><g class="lines"><path class="js-line" d="M20.75,147.47L90.1,159.73L93.11,141.89L96.13,139.3L99.14,141.53L105.17,149.3L108.19,153.88L114.22,162.01L117.23,164.61L120.25,165.58L123.27,164.49L129.3,157.96L132.31,153.94L138.34,147.95L141.36,147.33L165.48,147.79L168.49,148.21L177.54,150.78L180.55,152.2L189.6,158.26L192.61,161.58L198.64,163.67L201.66,165.35L216.73,174.68L219.75,175.79L234.83,179.12L237.84,179.64L277.04,187.01L280.05,187.6L319.25,195.38" style="vector-effect: non-scaling-stroke; fill: none; stroke: rgb(218, 227, 40); stroke-opacity: 1; stroke-width: 1px; opacity: 1;"/></g><g class="points"/><g class="text"/></g><g class="trace scatter trace6d33ca" style="stroke-miterlimit: 2; opacity: 1;"><g class="fills"/><g class="errorbars"/><g class="lines"><path class="js-line" d="M20.75,149.22L72.01,157.75L75.02,158.28L90.1,159.99L93.11,142.53L96.13,140L99.14,142.14L105.17,149.62L108.19,154.02L114.22,161.84L117.23,164.33L120.25,165.26L123.27,164.2L129.3,157.78L132.31,153.83L138.34,147.94L141.36,147.35L150.4,148.75L153.42,149.31L165.48,150.39L168.49,150.59L177.54,151.81L180.55,152.58L186.58,154.96L189.6,156.99L192.61,160.17L195.63,160.93L201.66,163.79L204.67,165.63L216.73,172.68L219.75,173.71L234.83,176.71L237.84,177.18L274.02,183.27L277.04,183.81L319.25,191.43" style="vector-effect: non-scaling-stroke; fill: none; stroke: rgb(230, 228, 39); stroke-opacity: 1; stroke-width: 1px; opacity: 1;"/></g><g class="points"/><g class="text"/></g><g class="trace scatter trace9c1855" style="stroke-miterlimit: 2; opacity: 1;"><g class="fills"/><g class="errorbars"/><g class="lines"><path class="js-line" d="M20.75,184.87L75.02,155.31L78.04,153.66L90.1,147.06L93.11,156.5L96.13,157.38L99.14,155.07L105.17,147.04L108.19,142.32L114.22,133.92L117.23,131.24L120.25,130.24L123.27,131.26L129.3,137.38L132.31,141.14L138.34,146.75L141.36,147.14L144.37,143.27L147.39,136.43L150.4,129.25L153.42,124.37L159.45,120.37L162.46,119.33L174.52,116.44L177.54,114.95L180.55,112.71L183.57,109.49L186.58,105.1L189.6,102.4L192.61,99.85L195.63,98.66L201.66,94.08L204.67,91.06L216.73,78.32L219.75,75.89L234.83,66.26L237.84,64.48L267.99,46.18L271.01,44.3L319.25,13.6" style="vector-effect: non-scaling-stroke; fill: none; stroke: rgb(241, 230, 38); stroke-opacity: 1; stroke-width: 1px; opacity: 1;"/></g><g class="points"/><g class="text"/></g><g class="trace scatter trace6cccc9" style="stroke-miterlimit: 2; opacity: 1;"><g class="fills"/><g class="errorbars"/><g class="lines"><path class="js-line" d="M20.75,150.62L90.1,158.23L93.11,144.76L96.13,142.75L99.14,144.38L105.17,150.06L108.19,153.4L114.22,159.34L117.23,161.24L120.25,161.95L123.27,161.08L129.3,155.85L132.31,152.63L138.34,147.83L141.36,147.33L186.58,147.33L189.6,149.72L192.61,157.31L195.63,157.87L204.67,161.3L207.69,162.71L216.73,166.41L219.75,167.15L237.84,169.56L240.86,169.87L286.08,175.24L289.1,175.61L319.25,179.36" style="vector-effect: non-scaling-stroke; fill: none; stroke: rgb(253, 231, 37); stroke-opacity: 1; stroke-width: 1px; opacity: 1;"/></g><g class="points"/><g class="text"/></g><g class="trace scatter tracef36277" style="stroke-miterlimit: 2; opacity: 1;"><g class="fills"/><g class="errorbars"/><g class="lines"><path class="js-line" d="M20.75,151.12L90.1,159.83L93.11,144.06L96.13,141.75L99.14,143.65L105.17,150.28L108.19,154.17L114.22,161.09L117.23,163.29L120.25,164.12L123.27,163.12L129.3,157.12L132.31,153.42L138.34,147.9L141.36,147.35L150.4,148.63L153.42,149.13L168.49,150.19L171.51,150.4L180.55,151.73L183.57,152.55L189.6,155.44L192.61,158.47L198.64,160.21L201.66,161.6L216.73,169.2L219.75,170.06L234.83,172.49L237.84,172.87L274.02,177.74L277.04,178.17L319.25,184.29" style="vector-effect: non-scaling-stroke; fill: none; stroke: rgb(169, 169, 169); stroke-opacity: 1; stroke-width: 2px; opacity: 1;"/></g><g class="points"/><g class="text"/></g></g></g><g class="overplot"/><path class="xlines-above crisp" d="M0,0" style="fill: none;"/><path class="ylines-above crisp" d="M0,0" style="fill: none;"/><g class="overlines-above"/><g class="xaxislayer-above"><g class="x3tick"><text text-anchor="middle" x="0" y="1133" transform="translate(129.9,0)" style="font-family: 'Open Sans', verdana, arial, sans-serif; font-size: 12px; fill: rgb(42, 63, 95); fill-opacity: 1; white-space: pre; opacity: 1;">0.22</text></g><g class="x3tick"><text text-anchor="middle" x="0" y="1133" style="font-family: 'Open Sans', verdana, arial, sans-serif; font-size: 12px; fill: rgb(42, 63, 95); fill-opacity: 1; white-space: pre; opacity: 1;" transform="translate(200.12,0)">0.23</text></g><g class="x3tick"><text text-anchor="middle" x="0" y="1133" style="font-family: 'Open Sans', verdana, arial, sans-serif; font-size: 12px; fill: rgb(42, 63, 95); fill-opacity: 1; white-space: pre; opacity: 1;" transform="translate(270.33000000000004,0)">0.24</text></g><g class="x3tick"><text text-anchor="middle" x="0" y="1133" style="font-family: 'Open Sans', verdana, arial, sans-serif; font-size: 12px; fill: rgb(42, 63, 95); fill-opacity: 1; white-space: pre; opacity: 1;" transform="translate(340.54,0)">0.25</text></g><g class="x3tick"><text text-anchor="middle" x="0" y="1133" style="font-family: 'Open Sans', verdana, arial, sans-serif; font-size: 12px; fill: rgb(42, 63, 95); fill-opacity: 1; white-space: pre; opacity: 1;" transform="translate(410.75,0)">0.26</text></g></g><g class="yaxislayer-above"><g class="y3tick"><text text-anchor="end" x="79" y="4.199999999999999" transform="translate(0,1111.5700000000002)" style="font-family: 'Open Sans', verdana, arial, sans-serif; font-size: 12px; fill: rgb(42, 63, 95); fill-opacity: 1; white-space: pre; opacity: 1;">−0.1</text></g><g class="y3tick"><text text-anchor="end" x="79" y="4.199999999999999" style="font-family: 'Open Sans', verdana, arial, sans-serif; font-size: 12px; fill: rgb(42, 63, 95); fill-opacity: 1; white-space: pre; opacity: 1;" transform="translate(0,1053.45)">−0.05</text></g><g class="y3tick"><text text-anchor="end" x="79" y="4.199999999999999" style="font-family: 'Open Sans', verdana, arial, sans-serif; font-size: 12px; fill: rgb(42, 63, 95); fill-opacity: 1; white-space: pre; opacity: 1;" transform="translate(0,995.3300000000002)">0</text></g><g class="y3tick"><text text-anchor="end" x="79" y="4.199999999999999" style="font-family: 'Open Sans', verdana, arial, sans-serif; font-size: 12px; fill: rgb(42, 63, 95); fill-opacity: 1; white-space: pre; opacity: 1;" transform="translate(0,937.2100000000002)">0.05</text></g><g class="y3tick"><text text-anchor="end" x="79" y="4.199999999999999" style="font-family: 'Open Sans', verdana, arial, sans-serif; font-size: 12px; fill: rgb(42, 63, 95); fill-opacity: 1; white-space: pre; opacity: 1;" transform="translate(0,879.1000000000001)">0.1</text></g></g><g class="overaxes-above"/></g></g><g class="polarlayer"/><g class="smithlayer"/><g class="ternarylayer"/><g class="geolayer"/><g class="funnelarealayer"/><g class="pielayer"/><g class="iciclelayer"/><g class="treemaplayer"/><g class="sunburstlayer"/><g class="glimages"/><defs id="topdefs-9fe52a"><g class="clips"/><clipPath id="legend9fe52a"><rect width="331" height="29" x="0" y="0"/></clipPath></defs><g class="layer-above"><g class="imagelayer"/><g class="shapelayer"/></g><g class="infolayer"><g class="legend" pointer-events="all" transform="translate(89,50.59999999999998)"><rect class="bg" shape-rendering="crispEdges" width="331" height="29" x="0" y="0" style="stroke: rgb(68, 68, 68); stroke-opacity: 1; fill: rgb(255, 255, 255); fill-opacity: 1; stroke-width: 0px;"/><g class="scrollbox" transform="" clip-path="url(#legend9fe52a)"><g class="groups"><g class="traces" transform="translate(0,14.5)" style="opacity: 1;"><text class="legendtext" text-anchor="start" x="40" y="4.680000000000001" style="font-family: 'Open Sans', verdana, arial, sans-serif; font-size: 12px; fill: rgb(42, 63, 95); fill-opacity: 1; white-space: pre;">Profile Log-likelihood</text><g class="layers" style="opacity: 1;"><g class="legendfill"/><g class="legendlines"><path class="js-line" d="M5,0h30" style="fill: none; stroke: rgb(51, 34, 136); stroke-opacity: 1; stroke-width: 2px;"/></g><g class="legendsymbols"><g class="legendpoints"/></g></g><rect class="legendtoggle" x="0" y="-9.5" width="160.15625" height="19" style="fill: rgb(0, 0, 0); fill-opacity: 0;"/></g><g class="traces" transform="translate(162.65625,14.5)" style="opacity: 1;"><text class="legendtext" text-anchor="start" x="40" y="4.680000000000001" style="font-family: 'Open Sans', verdana, arial, sans-serif; font-size: 12px; fill: rgb(42, 63, 95); fill-opacity: 1; white-space: pre;">Optimiser Evaluations</text><g class="layers" style="opacity: 1;"><g class="legendfill"/><g class="legendlines"/><g class="legendsymbols"><g class="legendpoints"><path class="scatterpts" transform="translate(20,0)" d="M-4.2,0A 5.7,5.7 0 0 1 0,4.2A 5.7,5.7 0 0 1 4.2,0A 5.7,5.7 0 0 1 0,-4.2A 5.7,5.7 0 0 1 -4.2,0Z" style="opacity: 0.5; stroke-width: 0px; fill: rgb(51, 34, 136); fill-opacity: 1;"/></g></g></g><rect class="legendtoggle" x="0" y="-9.5" width="165.46875" height="19" style="fill: rgb(0, 0, 0); fill-opacity: 0;"/></g></g></g><rect class="scrollbar" rx="20" ry="3" width="0" height="0" x="0" y="0" style="fill: rgb(128, 139, 164); fill-opacity: 1;"/></g><g class="g-gtitle"/><g class="g-xtitle"/><g class="g-x2title"/><g class="g-x3title"/><g class="g-ytitle"/><g class="g-y2title"/><g class="g-y3title"/></g></svg>