<svg class="main-svg" xmlns="http://www.w3.org/2000/svg" xmlns:xlink="http://www.w3.org/1999/xlink" width="500" height="1200" style="" viewBox="0 0 500 1200"><rect x="0" y="0" width="500" height="1200" style="fill: rgb(255, 255, 255); fill-opacity: 1;"/><defs id="defs-cbed86"><g class="clips"><clipPath id="clipcbed86xyplot" class="plotclip"><rect width="340" height="272.00000000000006"/></clipPath><clipPath id="clipcbed86x2y2plot" class="plotclip"><rect width="340" height="272"/></clipPath><clipPath id="clipcbed86x3y3plot" class="plotclip"><rect width="340" height="272"/></clipPath><clipPath class="axesclip" id="clipcbed86x"><rect x="80" y="0" width="340" height="1200"/></clipPath><clipPath class="axesclip" id="clipcbed86y"><rect x="0" y="100" width="500" height="272.00000000000006"/></clipPath><clipPath class="axesclip" id="clipcbed86xy"><rect x="80" y="100" width="340" height="272.00000000000006"/></clipPath><clipPath class="axesclip" id="clipcbed86y2"><rect x="0" y="474.00000000000006" width="500" height="272"/></clipPath><clipPath class="axesclip" id="clipcbed86xy2"><rect x="80" y="474.00000000000006" width="340" height="272"/></clipPath><clipPath class="axesclip" id="clipcbed86y3"><rect x="0" y="848.0000000000001" width="500" height="272"/></clipPath><clipPath class="axesclip" id="clipcbed86xy3"><rect x="80" y="848.0000000000001" width="340" height="272"/></clipPath><clipPath class="axesclip" id="clipcbed86x2"><rect x="80" y="0" width="340" height="1200"/></clipPath><clipPath class="axesclip" id="clipcbed86x2y"><rect x="80" y="100" width="340" height="272.00000000000006"/></clipPath><clipPath class="axesclip" id="clipcbed86x2y2"><rect x="80" y="474.00000000000006" width="340" height="272"/></clipPath><clipPath class="axesclip" id="clipcbed86x2y3"><rect x="80" y="848.0000000000001" width="340" height="272"/></clipPath><clipPath class="axesclip" id="clipcbed86x3"><rect x="80" y="0" width="340" height="1200"/></clipPath><clipPath class="axesclip" id="clipcbed86x3y"><rect x="80" y="100" width="340" height="272.00000000000006"/></clipPath><clipPath class="axesclip" id="clipcbed86x3y2"><rect x="80" y="474.00000000000006" width="340" height="272"/></clipPath><clipPath class="axesclip" id="clipcbed86x3y3"><rect x="80" y="848.0000000000001" width="340" height="272"/></clipPath></g><g class="gradients"/><g class="patterns"/></defs><g class="bglayer"/><g class="layer-below"><g class="imagelayer"/><g class="shapelayer"/></g><g class="cartesianlayer"><g class="subplot xy"><g class="layer-subplot"><g class="shapelayer"/><g class="imagelayer"/></g><g class="minor-gridlayer"><g class="x"/><g class="y"/></g><g class="gridlayer"><g class="x"><path class="xgrid crisp" transform="translate(108.81,0)" d="M0,100v272.00000000000006" style="stroke: rgb(235, 240, 248); stroke-opacity: 1; stroke-width: 1px;"/><path class="xgrid crisp" transform="translate(211.35,0)" d="M0,100v272.00000000000006" style="stroke: rgb(235, 240, 248); stroke-opacity: 1; stroke-width: 1px;"/><path class="xgrid crisp" transform="translate(313.89,0)" d="M0,100v272.00000000000006" style="stroke: rgb(235, 240, 248); stroke-opacity: 1; stroke-width: 1px;"/><path class="xgrid crisp" transform="translate(416.43,0)" d="M0,100v272.00000000000006" style="stroke: rgb(235, 240, 248); stroke-opacity: 1; stroke-width: 1px;"/></g><g class="y"><path class="ygrid crisp" transform="translate(0,355.19)" d="M80,0h340" style="stroke: rgb(235, 240, 248); stroke-opacity: 1; stroke-width: 1px;"/><path class="ygrid crisp" transform="translate(0,306.87)" d="M80,0h340" style="stroke: rgb(235, 240, 248); stroke-opacity: 1; stroke-width: 1px;"/><path class="ygrid crisp" transform="translate(0,258.55)" d="M80,0h340" style="stroke: rgb(235, 240, 248); stroke-opacity: 1; stroke-width: 1px;"/><path class="ygrid crisp" transform="translate(0,210.24)" d="M80,0h340" style="stroke: rgb(235, 240, 248); stroke-opacity: 1; stroke-width: 1px;"/><path class="ygrid crisp" transform="translate(0,161.92000000000002)" d="M80,0h340" style="stroke: rgb(235, 240, 248); stroke-opacity: 1; stroke-width: 1px;"/></g></g><g class="zerolinelayer"><path class="yzl zl crisp" transform="translate(0,113.6)" d="M80,0h340" style="stroke: rgb(235, 240, 248); stroke-opacity: 1; stroke-width: 2px;"/></g><path class="xlines-below"/><path class="ylines-below"/><g class="overlines-below"/><g class="xaxislayer-below"/><g class="yaxislayer-below"/><g class="overaxes-below"/><g class="plot" transform="translate(80,100)" clip-path="url(#clipcbed86xyplot)"><g class="scatterlayer mlayer"><g class="trace scatter traced7c757" style="stroke-miterlimit: 2; opacity: 1;"><g class="fills"/><g class="errorbars"/><g class="lines"><path class="js-line" d="M0,257.97L20.61,206.7L24.04,198.63L41.21,160.14L44.65,152.89L61.82,118.83L65.25,112.58L78.99,89.03L82.42,83.62L96.16,63.77L99.6,59.32L109.9,47.02L113.33,43.37L123.64,33.61L127.07,30.79L137.37,23.46L140.81,21.53L151.11,16.9L154.55,15.81L164.85,13.83L168.28,13.6L178.59,14.37L182.02,15.02L192.32,18.39L195.76,19.95L206.06,25.92L209.49,28.37L219.8,37L223.23,40.26L233.54,51.31L236.97,55.43L247.27,68.88L250.71,73.79L264.44,95.2L267.88,100.98L281.62,125.91L285.05,132.54L302.22,168.1L305.66,175.65L322.83,215.47L326.26,223.81L340,258.4" style="vector-effect: non-scaling-stroke; fill: none; stroke: rgb(51, 34, 136); stroke-opacity: 1; stroke-width: 2px; opacity: 1;"/></g><g class="points"/><g class="text"/></g></g></g><g class="overplot"/><path class="xlines-above crisp" d="M0,0" style="fill: none;"/><path class="ylines-above crisp" d="M0,0" style="fill: none;"/><g class="overlines-above"/><g class="xaxislayer-above"/><g class="yaxislayer-above"><g class="ytick"><text text-anchor="end" x="79" y="4.199999999999999" transform="translate(0,355.19)" style="font-family: 'Open Sans', verdana, arial, sans-serif; font-size: 12px; fill: rgb(42, 63, 95); fill-opacity: 1; white-space: pre; opacity: 1;">−5</text></g><g class="ytick"><text text-anchor="end" x="79" y="4.199999999999999" style="font-family: 'Open Sans', verdana, arial, sans-serif; font-size: 12px; fill: rgb(42, 63, 95); fill-opacity: 1; white-space: pre; opacity: 1;" transform="translate(0,306.87)">−4</text></g><g class="ytick"><text text-anchor="end" x="79" y="4.199999999999999" style="font-family: 'Open Sans', verdana, arial, sans-serif; font-size: 12px; fill: rgb(42, 63, 95); fill-opacity: 1; white-space: pre; opacity: 1;" transform="translate(0,258.55)">−3</text></g><g class="ytick"><text text-anchor="end" x="79" y="4.199999999999999" style="font-family: 'Open Sans', verdana, arial, sans-serif; font-size: 12px; fill: rgb(42, 63, 95); fill-opacity: 1; white-space: pre; opacity: 1;" transform="translate(0,210.24)">−2</text></g><g class="ytick"><text text-anchor="end" x="79" y="4.199999999999999" style="font-family: 'Open Sans', verdana, arial, sans-serif; font-size: 12px; fill: rgb(42, 63, 95); fill-opacity: 1; white-space: pre; opacity: 1;" transform="translate(0,161.92000000000002)">−1</text></g><g class="ytick"><text text-anchor="end" x="79" y="4.199999999999999" style="font-family: 'Open Sans', verdana, arial, sans-serif; font-size: 12px; fill: rgb(42, 63, 95); fill-opacity: 1; white-space: pre; opacity: 1;" transform="translate(0,113.6)">0</text></g></g><g class="overaxes-above"/></g><g class="subplot x2y2"><g class="layer-subplot"><g class="shapelayer"/><g class="imagelayer"/></g><g class="minor-gridlayer"><g class="x2"/><g class="y2"/></g><g class="gridlayer"><g class="x2"><path class="x2grid crisp" transform="translate(108.81,0)" d="M0,474.00000000000006v272" style="stroke: rgb(235, 240, 248); stroke-opacity: 1; stroke-width: 1px;"/><path class="x2grid crisp" transform="translate(211.35,0)" d="M0,474.00000000000006v272" style="stroke: rgb(235, 240, 248); stroke-opacity: 1; stroke-width: 1px;"/><path class="x2grid crisp" transform="translate(313.89,0)" d="M0,474.00000000000006v272" style="stroke: rgb(235, 240, 248); stroke-opacity: 1; stroke-width: 1px;"/><path class="x2grid crisp" transform="translate(416.43,0)" d="M0,474.00000000000006v272" style="stroke: rgb(235, 240, 248); stroke-opacity: 1; stroke-width: 1px;"/></g><g class="y2"><path class="y2grid crisp" transform="translate(0,713.4000000000001)" d="M80,0h340" style="stroke: rgb(235, 240, 248); stroke-opacity: 1; stroke-width: 1px;"/><path class="y2grid crisp" transform="translate(0,661.99)" d="M80,0h340" style="stroke: rgb(235, 240, 248); stroke-opacity: 1; stroke-width: 1px;"/><path class="y2grid crisp" transform="translate(0,610.59)" d="M80,0h340" style="stroke: rgb(235, 240, 248); stroke-opacity: 1; stroke-width: 1px;"/><path class="y2grid crisp" transform="translate(0,559.1800000000001)" d="M80,0h340" style="stroke: rgb(235, 240, 248); stroke-opacity: 1; stroke-width: 1px;"/><path class="y2grid crisp" transform="translate(0,507.7800000000001)" d="M80,0h340" style="stroke: rgb(235, 240, 248); stroke-opacity: 1; stroke-width: 1px;"/></g></g><g class="zerolinelayer"/><path class="xlines-below"/><path class="ylines-below"/><g class="overlines-below"/><g class="xaxislayer-below"/><g class="yaxislayer-below"/><g class="overaxes-below"/><g class="plot" transform="translate(80,474.00000000000006)" clip-path="url(#clipcbed86x2y2plot)"><g class="scatterlayer mlayer"><g class="trace scatter traceb412a0" style="stroke-miterlimit: 2; opacity: 1;"><g class="fills"/><g class="errorbars"/><g class="lines"><path class="js-line" d="M3.43,88.02L6.87,101.91L10.3,88.7L13.74,108.39L17.17,55.47L20.61,179.39L24.04,77.1L27.47,110.09L30.91,46.86L34.34,212.88L37.78,102.69L41.21,121.26L44.65,94.52L48.08,141.58L51.52,154.2L54.95,101.81L58.38,118.29L61.82,224.7L65.25,73.77L68.69,149.29L72.12,184.7L75.56,125.05L78.99,175.2L82.42,144.83L85.86,167.12L89.29,164.98L92.73,149.95L96.16,201.6L99.6,134.6L103.03,183.38L106.46,125.44L109.9,251L113.33,154.08L116.77,195.64L120.2,152.88L123.64,215.18L127.07,130.24L130.51,178.2L133.94,200.34L137.37,258.4L140.81,146.77L144.24,192.25L147.68,175.87L151.11,209.54L154.55,186.45L157.98,205.08L161.41,157.12L168.28,254.11L171.72,213.2L175.15,82.11L178.59,210.76L182.02,219.25L185.45,188.51L188.89,207.02L192.32,183.55L195.76,182.99L199.19,201.52L202.63,146.98L206.06,239L212.93,163.35L216.36,184.71L219.8,143.92L223.23,215.11L226.67,156.87L230.1,155.36L233.54,223.57L236.97,129.59L240.4,216.7L243.84,101.14L247.27,222.5L250.71,165L254.14,108.93L257.58,217.38L261.01,110L264.44,146.54L267.88,164.81L271.31,142.22L274.75,157.22L278.18,122.64L281.62,129.99L285.05,168.3L288.48,93.81L291.92,139.72L295.35,136.58L298.79,99.18L302.22,128.79L305.66,122L309.09,114.04L312.53,13.6L315.96,248.08L319.39,91.53L322.83,51.96L326.26,112.4L329.7,47.27L333.13,164.96L336.57,67.11" style="vector-effect: non-scaling-stroke; fill: none; stroke: rgb(51, 34, 136); stroke-opacity: 1; stroke-width: 2px; opacity: 1;"/></g><g class="points"/><g class="text"/></g></g></g><g class="overplot"/><path class="xlines-above crisp" d="M0,0" style="fill: none;"/><path class="ylines-above crisp" d="M0,0" style="fill: none;"/><g class="overlines-above"/><g class="xaxislayer-above"/><g class="yaxislayer-above"><g class="y2tick"><text text-anchor="end" x="79" y="4.199999999999999" transform="translate(0,713.4000000000001)" style="font-family: 'Open Sans', verdana, arial, sans-serif; font-size: 12px; fill: rgb(42, 63, 95); fill-opacity: 1; white-space: pre; opacity: 1;">−500</text></g><g class="y2tick"><text text-anchor="end" x="79" y="4.199999999999999" style="font-family: 'Open Sans', verdana, arial, sans-serif; font-size: 12px; fill: rgb(42, 63, 95); fill-opacity: 1; white-space: pre; opacity: 1;" transform="translate(0,661.99)">−400</text></g><g class="y2tick"><text text-anchor="end" x="79" y="4.199999999999999" style="font-family: 'Open Sans', verdana, arial, sans-serif; font-size: 12px; fill: rgb(42, 63, 95); fill-opacity: 1; white-space: pre; opacity: 1;" transform="translate(0,610.59)">−300</text></g><g class="y2tick"><text text-anchor="end" x="79" y="4.199999999999999" style="font-family: 'Open Sans', verdana, arial, sans-serif; font-size: 12px; fill: rgb(42, 63, 95); fill-opacity: 1; white-space: pre; opacity: 1;" transform="translate(0,559.1800000000001)">−200</text></g><g class="y2tick"><text text-anchor="end" x="79" y="4.199999999999999" style="font-family: 'Open Sans', verdana, arial, sans-serif; font-size: 12px; fill: rgb(42, 63, 95); fill-opacity: 1; white-space: pre; opacity: 1;" transform="translate(0,507.7800000000001)">−100</text></g></g><g class="overaxes-above"/></g><g class="subplot x3y3"><g class="layer-subplot"><g class="shapelayer"/><g class="imagelayer"/></g><g class="minor-gridlayer"><g class="x3"/><g class="y3"/></g><g class="gridlayer"><g class="x3"><path class="x3grid crisp" transform="translate(108.81,0)" d="M0,848.0000000000001v272" style="stroke: rgb(235, 240, 248); stroke-opacity: 1; stroke-width: 1px;"/><path class="x3grid crisp" transform="translate(211.35,0)" d="M0,848.0000000000001v272" style="stroke: rgb(235, 240, 248); stroke-opacity: 1; stroke-width: 1px;"/><path class="x3grid crisp" transform="translate(313.89,0)" d="M0,848.0000000000001v272" style="stroke: rgb(235, 240, 248); stroke-opacity: 1; stroke-width: 1px;"/><path class="x3grid crisp" transform="translate(416.43,0)" d="M0,848.0000000000001v272" style="stroke: rgb(235, 240, 248); stroke-opacity: 1; stroke-width: 1px;"/></g><g class="y3"><path class="y3grid crisp" transform="translate(0,1067.2600000000002)" d="M80,0h340" style="stroke: rgb(235, 240, 248); stroke-opacity: 1; stroke-width: 1px;"/><path class="y3grid crisp" transform="translate(0,909.3400000000001)" d="M80,0h340" style="stroke: rgb(235, 240, 248); stroke-opacity: 1; stroke-width: 1px;"/></g></g><g class="zerolinelayer"><path class="y3zl zl crisp" transform="translate(0,988.3000000000002)" d="M80,0h340" style="stroke: rgb(235, 240, 248); stroke-opacity: 1; stroke-width: 2px;"/></g><path class="xlines-below"/><path class="ylines-below"/><g class="overlines-below"/><g class="xaxislayer-below"/><g class="yaxislayer-below"/><g class="overaxes-below"/><g class="plot" transform="translate(80,848.0000000000001)" clip-path="url(#clipcbed86x3y3plot)"><g class="scatterlayer mlayer"><g class="trace scatter trace72a82f" style="stroke-miterlimit: 2; opacity: 1;"><g class="fills"/><g class="errorbars"/><g class="lines"><path class="js-line" d="M0,149.2L37.78,148.07L41.21,148.7L75.56,148.08L78.99,147.61L82.42,147.98L85.86,147.53L92.73,147.35L96.16,147.27L243.84,141.87L247.27,141.46L264.44,140.75L267.88,140.69L291.92,139.8L295.35,139.4L322.83,138.9L326.26,138.64L340,138.14" style="vector-effect: non-scaling-stroke; fill: none; stroke: rgb(68, 1, 84); stroke-opacity: 1; stroke-width: 1px; opacity: 1;"/></g><g class="points"/><g class="text"/></g><g class="trace scatter tracecf222a" style="stroke-miterlimit: 2; opacity: 1;"><g class="fills"/><g class="errorbars"/><g class="lines"><path class="js-line" d="M0,146.6L20.61,146.39L24.04,146.44L103.03,144.95L106.46,144.64L140.81,144.06L144.24,143.85L192.32,142.88L195.76,142.66L216.36,142.15L219.8,141.87L274.75,140.52L278.18,140.3L298.79,139.73L302.22,139.69L322.83,139.34L326.26,139.22L336.57,138.96L340,139.07" style="vector-effect: non-scaling-stroke; fill: none; stroke: rgb(69, 7, 90); stroke-opacity: 1; stroke-width: 1px; opacity: 1;"/></g><g class="points"/><g class="text"/></g><g class="trace scatter trace3025ee" style="stroke-miterlimit: 2; opacity: 1;"><g class="fills"/><g class="errorbars"/><g class="lines"><path class="js-line" d="M0,149.51L13.74,149.06L17.17,148.92L113.33,146.49L116.77,146.01L120.2,146.49L123.64,145.98L206.06,143.41L209.49,143.41L216.36,142.96L219.8,142.65L281.62,141.09L285.05,140.44L288.48,140.8L291.92,140.28L298.79,140.47L302.22,140.36L340,139.74" style="vector-effect: non-scaling-stroke; fill: none; stroke: rgb(69, 14, 96); stroke-opacity: 1; stroke-width: 1px; opacity: 1;"/></g><g class="points"/><g class="text"/></g><g class="trace scatter trace6cf86f" style="stroke-miterlimit: 2; opacity: 1;"><g class="fills"/><g class="errorbars"/><g class="lines"><path class="js-line" d="M0,156.34L24.04,155.25L27.47,155.93L34.34,155.39L37.78,155.53L51.52,154.74L54.95,154.79L68.69,154.47L72.12,154.58L75.56,153.85L78.99,154.08L89.29,154.19L92.73,153.42L120.2,151.46L123.64,151.59L133.94,150.39L137.37,150.39L157.98,148.99L161.41,148.2L175.15,147.45L178.59,147.38L182.02,147.57L185.45,146.96L199.19,146.41L202.63,146.26L209.49,145.63L212.93,145.63L223.23,144.32L226.67,144.32L236.97,143.45L240.4,142.97L250.71,142.24L254.14,142.15L281.62,139.78L285.05,139.42L288.48,139.55L291.92,138.88L315.96,137.28L319.39,137.28L322.83,136.22L326.26,135.96L329.7,136.64L333.13,136.15L340,135.12" style="vector-effect: non-scaling-stroke; fill: none; stroke: rgb(70, 20, 101); stroke-opacity: 1; stroke-width: 1px; opacity: 1;"/></g><g class="points"/><g class="text"/></g><g class="trace scatter trace1d5318" style="stroke-miterlimit: 2; opacity: 1;"><g class="fills"/><g class="errorbars"/><g class="lines"><path class="js-line" d="M0,144.51L157.98,142.26L161.41,141.95L243.84,141.24L247.27,141.13L329.7,140.4L333.13,140.36L340,140.4" style="vector-effect: non-scaling-stroke; fill: none; stroke: rgb(71, 26, 107); stroke-opacity: 1; stroke-width: 1px; opacity: 1;"/></g><g class="points"/><g class="text"/></g><g class="trace scatter trace6eb961" style="stroke-miterlimit: 2; opacity: 1;"><g class="fills"/><g class="errorbars"/><g class="lines"><path class="js-line" d="M0,146.17L82.42,145.04L85.86,144.86L120.2,144.13L123.64,143.71L144.24,143.61L147.68,143.45L219.8,141.94L223.23,141.78L254.14,141.05L257.58,141.01L329.7,139.47L333.13,139.61L340,139.54" style="vector-effect: non-scaling-stroke; fill: none; stroke: rgb(71, 32, 113); stroke-opacity: 1; stroke-width: 1px; opacity: 1;"/></g><g class="points"/><g class="text"/></g><g class="trace scatter trace3f415d" style="stroke-miterlimit: 2; opacity: 1;"><g class="fills"/><g class="errorbars"/><g class="lines"><path class="js-line" d="M0,145.14L157.98,142.62L161.41,142.41L216.36,141.75L219.8,141.61L340,140.35" style="vector-effect: non-scaling-stroke; fill: none; stroke: rgb(72, 39, 119); stroke-opacity: 1; stroke-width: 1px; opacity: 1;"/></g><g class="points"/><g class="text"/></g><g class="trace scatter tracef2615b" style="stroke-miterlimit: 2; opacity: 1;"><g class="fills"/><g class="errorbars"/><g class="lines"><path class="js-line" d="M0,149.03L17.17,148.85L20.61,148.71L82.42,147.46L85.86,147.34L96.16,146.95L99.6,146.86L113.33,146.28L116.77,145.92L123.64,146.22L127.07,145.75L140.81,145.52L144.24,145.44L154.55,144.9L157.98,144.95L168.28,144.58L171.72,144.28L192.32,143.97L195.76,143.37L212.93,143.42L216.36,142.89L219.8,143.19L223.23,142.51L243.84,142.17L247.27,141.66L267.88,141.22L271.31,140.84L285.05,140.4L288.48,139.93L298.79,140.3L302.22,139.85L326.26,139.38L329.7,139.05L340,139.42" style="vector-effect: non-scaling-stroke; fill: none; stroke: rgb(71, 44, 122); stroke-opacity: 1; stroke-width: 1px; opacity: 1;"/></g><g class="points"/><g class="text"/></g><g class="trace scatter trace18c5a1" style="stroke-miterlimit: 2; opacity: 1;"><g class="fills"/><g class="errorbars"/><g class="lines"><path class="js-line" d="M0,145.33L123.64,143.26L127.07,143.12L209.49,141.95L212.93,141.95L261.01,141.12L264.44,141.05L340,140.3" style="vector-effect: non-scaling-stroke; fill: none; stroke: rgb(69, 49, 125); stroke-opacity: 1; stroke-width: 1px; opacity: 1;"/></g><g class="points"/><g class="text"/></g><g class="trace scatter trace4e9b13" style="stroke-miterlimit: 2; opacity: 1;"><g class="fills"/><g class="errorbars"/><g class="lines"><path class="js-line" d="M0,144.83L34.34,144.4L37.78,144.42L85.86,143.64L89.29,143.67L130.51,142.75L133.94,142.75L171.72,142.14L175.15,141.91L195.76,141.94L199.19,141.85L288.48,140.64L291.92,140.58L340,140.21" style="vector-effect: non-scaling-stroke; fill: none; stroke: rgb(68, 55, 128); stroke-opacity: 1; stroke-width: 1px; opacity: 1;"/></g><g class="points"/><g class="text"/></g><g class="trace scatter trace8a15f5" style="stroke-miterlimit: 2; opacity: 1;"><g class="fills"/><g class="errorbars"/><g class="lines"><path class="js-line" d="M0,143.82L89.29,142.84L92.73,142.76L226.67,141.26L230.1,141.19L340,140.31" style="vector-effect: non-scaling-stroke; fill: none; stroke: rgb(66, 60, 130); stroke-opacity: 1; stroke-width: 1px; opacity: 1;"/></g><g class="points"/><g class="text"/></g><g class="trace scatter trace0a1496" style="stroke-miterlimit: 2; opacity: 1;"><g class="fills"/><g class="errorbars"/><g class="lines"><path class="js-line" d="M0,145.17L24.04,144.88L27.47,144.82L85.86,143.87L89.29,143.83L154.55,142.62L157.98,142.6L175.15,141.98L178.59,142.28L340,140.32" style="vector-effect: non-scaling-stroke; fill: none; stroke: rgb(64, 65, 133); stroke-opacity: 1; stroke-width: 1px; opacity: 1;"/></g><g class="points"/><g class="text"/></g><g class="trace scatter trace0306d1" style="stroke-miterlimit: 2; opacity: 1;"><g class="fills"/><g class="errorbars"/><g class="lines"><path class="js-line" d="M0,147.36L116.77,144.7L120.2,144.72L182.02,142.99L185.45,143.04L236.97,141.93L240.4,141.66L274.75,141.02L278.18,140.91L336.57,140.14L340,139.98" style="vector-effect: non-scaling-stroke; fill: none; stroke: rgb(63, 71, 136); stroke-opacity: 1; stroke-width: 1px; opacity: 1;"/></g><g class="points"/><g class="text"/></g><g class="trace scatter traced06920" style="stroke-miterlimit: 2; opacity: 1;"><g class="fills"/><g class="errorbars"/><g class="lines"><path class="js-line" d="M0,147.47L116.77,144.83L120.2,145.16L127.07,144.41L130.51,144.34L157.98,143.87L161.41,143.52L195.76,142.88L199.19,142.76L340,140.04" style="vector-effect: non-scaling-stroke; fill: none; stroke: rgb(61, 76, 137); stroke-opacity: 1; stroke-width: 1px; opacity: 1;"/></g><g class="points"/><g class="text"/></g><g class="trace scatter trace02b95c" style="stroke-miterlimit: 2; opacity: 1;"><g class="fills"/><g class="errorbars"/><g class="lines"><path class="js-line" d="M0,147.25L61.82,146.09L65.25,146.09L92.73,145.05L96.16,145.16L130.51,144.18L133.94,144.18L157.98,143.72L161.41,143.4L199.19,142.68L202.63,142.62L340,139.98" style="vector-effect: non-scaling-stroke; fill: none; stroke: rgb(59, 81, 138); stroke-opacity: 1; stroke-width: 1px; opacity: 1;"/></g><g class="points"/><g class="text"/></g><g class="trace scatter trace3b3be7" style="stroke-miterlimit: 2; opacity: 1;"><g class="fills"/><g class="errorbars"/><g class="lines"><path class="js-line" d="M0,146.57L24.04,146.41L27.47,146.26L75.56,145.66L78.99,145.6L226.67,141.92L230.1,141.73L278.18,140.3L281.62,140.28L302.22,139.69L305.66,139.79L333.13,139.13L336.57,139.01L340,138.81" style="vector-effect: non-scaling-stroke; fill: none; stroke: rgb(45, 114, 142); stroke-opacity: 1; stroke-width: 1px; opacity: 1;"/></g><g class="points"/><g class="text"/></g><g class="trace scatter tracedcab14" style="stroke-miterlimit: 2; opacity: 1;"><g class="fills"/><g class="errorbars"/><g class="lines"><path class="js-line" d="M0,149.62L24.04,149.46L27.47,149.26L34.34,148.78L37.78,148.75L65.25,148.19L68.69,148.18L82.42,147.58L85.86,147.56L120.2,146.1L123.64,146.25L133.94,145.61L137.37,145.61L151.11,145.37L154.55,145.02L175.15,144.62L178.59,144.11L199.19,143.58L202.63,143.43L230.1,142.67L233.54,142.39L257.58,141.73L261.01,141.51L288.48,140.57L291.92,140.68L309.09,140.06L312.53,140.29L340,139.51" style="vector-effect: non-scaling-stroke; fill: none; stroke: rgb(43, 118, 142); stroke-opacity: 1; stroke-width: 1px; opacity: 1;"/></g><g class="points"/><g class="text"/></g><g class="trace scatter trace3401c6" style="stroke-miterlimit: 2; opacity: 1;"><g class="fills"/><g class="errorbars"/><g class="lines"><path class="js-line" d="M0,155.92L37.78,154.97L41.21,155.26L48.08,154.79L51.52,154.82L61.82,154.02L65.25,154.27L75.56,153.6L78.99,153.66L116.77,150.85L120.2,151.22L127.07,150.57L130.51,150.06L147.68,149.35L151.11,149.28L175.15,147.3L178.59,148.04L182.02,146.33L185.45,146.16L195.76,146.26L199.19,146.04L219.8,144.97L223.23,144.19L236.97,143.5L240.4,142.96L250.71,142.36L254.14,141.96L285.05,139.92L288.48,139.2L295.35,139.13L298.79,138.84L309.09,137.93L312.53,138.22L326.26,137.06L329.7,136.77L340,136.87" style="vector-effect: non-scaling-stroke; fill: none; stroke: rgb(41, 122, 142); stroke-opacity: 1; stroke-width: 1px; opacity: 1;"/></g><g class="points"/><g class="text"/></g><g class="trace scatter tracea4ab28" style="stroke-miterlimit: 2; opacity: 1;"><g class="fills"/><g class="errorbars"/><g class="lines"><path class="js-line" d="M0,144.61L54.95,143.86L58.38,143.81L261.01,140.98L264.44,140.97L340,140.31" style="vector-effect: non-scaling-stroke; fill: none; stroke: rgb(40, 126, 142); stroke-opacity: 1; stroke-width: 1px; opacity: 1;"/></g><g class="points"/><g class="text"/></g><g class="trace scatter tracea83e2e" style="stroke-miterlimit: 2; opacity: 1;"><g class="fills"/><g class="errorbars"/><g class="lines"><path class="js-line" d="M0,146.38L30.91,145.88L34.34,145.88L109.9,144.36L113.33,144.34L144.24,143.54L147.68,143.6L202.63,142.38L206.06,142.26L236.97,141.58L240.4,141.43L267.88,140.77L271.31,140.65L288.48,140.34L291.92,140.13L302.22,139.9L305.66,139.86L340,139.54" style="vector-effect: non-scaling-stroke; fill: none; stroke: rgb(38, 130, 142); stroke-opacity: 1; stroke-width: 1px; opacity: 1;"/></g><g class="points"/><g class="text"/></g><g class="trace scatter trace09cafe" style="stroke-miterlimit: 2; opacity: 1;"><g class="fills"/><g class="errorbars"/><g class="lines"><path class="js-line" d="M0,145.04L82.42,143.88L85.86,143.78L157.98,142.56L161.41,142.28L219.8,141.67L223.23,141.6L278.18,140.89L281.62,140.77L333.13,140.45L336.57,140.27L340,140.36" style="vector-effect: non-scaling-stroke; fill: none; stroke: rgb(37, 135, 141); stroke-opacity: 1; stroke-width: 1px; opacity: 1;"/></g><g class="points"/><g class="text"/></g><g class="trace scatter traced9c818" style="stroke-miterlimit: 2; opacity: 1;"><g class="fills"/><g class="errorbars"/><g class="lines"><path class="js-line" d="M0,148.92L10.3,148.97L13.74,148.95L34.34,148.6L37.78,148.44L41.21,148.53L44.65,147.81L48.08,147.33L51.52,148.36L68.69,147.74L72.12,148.04L116.77,145.93L120.2,146.02L147.68,145.19L151.11,145.09L182.02,144.05L185.45,144.27L212.93,143.15L216.36,142.21L219.8,142.77L223.23,142.53L243.84,142.13L247.27,141.65L267.88,141.08L271.31,140.68L305.66,139.67L309.09,139.73L340,138.81" style="vector-effect: non-scaling-stroke; fill: none; stroke: rgb(36, 140, 140); stroke-opacity: 1; stroke-width: 1px; opacity: 1;"/></g><g class="points"/><g class="text"/></g><g class="trace scatter traced9b57a" style="stroke-miterlimit: 2; opacity: 1;"><g class="fills"/><g class="errorbars"/><g class="lines"><path class="js-line" d="M0,145.19L340,140.3" style="vector-effect: non-scaling-stroke; fill: none; stroke: rgb(34, 144, 140); stroke-opacity: 1; stroke-width: 1px; opacity: 1;"/></g><g class="points"/><g class="text"/></g><g class="trace scatter tracee7606d" style="stroke-miterlimit: 2; opacity: 1;"><g class="fills"/><g class="errorbars"/><g class="lines"><path class="js-line" d="M0,145.09L82.42,143.88L85.86,143.82L340,140.36" style="vector-effect: non-scaling-stroke; fill: none; stroke: rgb(33, 148, 139); stroke-opacity: 1; stroke-width: 1px; opacity: 1;"/></g><g class="points"/><g class="text"/></g><g class="trace scatter trace01a14f" style="stroke-miterlimit: 2; opacity: 1;"><g class="fills"/><g class="errorbars"/><g class="lines"><path class="js-line" d="M0,143.86L51.52,143.38L54.95,143.25L281.62,140.67L285.05,140.69L312.53,140.45L315.96,140.45L340,140.38" style="vector-effect: non-scaling-stroke; fill: none; stroke: rgb(32, 153, 138); stroke-opacity: 1; stroke-width: 1px; opacity: 1;"/></g><g class="points"/><g class="text"/></g><g class="trace scatter tracea7a8b8" style="stroke-miterlimit: 2; opacity: 1;"><g class="fills"/><g class="errorbars"/><g class="lines"><path class="js-line" d="M0,145.38L41.21,144.73L44.65,144.7L340,140.39" style="vector-effect: non-scaling-stroke; fill: none; stroke: rgb(31, 158, 137); stroke-opacity: 1; stroke-width: 1px; opacity: 1;"/></g><g class="points"/><g class="text"/></g><g class="trace scatter traceebb612" style="stroke-miterlimit: 2; opacity: 1;"><g class="fills"/><g class="errorbars"/><g class="lines"><path class="js-line" d="M0,147.1L127.07,144.29L130.51,144.11L157.98,143.41L161.41,143.16L212.93,142.53L216.36,142.24L261.01,141.26L264.44,141.06L291.92,140.64L295.35,140.6L340,140.12" style="vector-effect: non-scaling-stroke; fill: none; stroke: rgb(34, 162, 135); stroke-opacity: 1; stroke-width: 1px; opacity: 1;"/></g><g class="points"/><g class="text"/></g><g class="trace scatter trace6fcd23" style="stroke-miterlimit: 2; opacity: 1;"><g class="fills"/><g class="errorbars"/><g class="lines"><path class="js-line" d="M0,147.11L82.42,145.66L85.86,145.45L99.6,145.01L103.03,144.9L116.77,144.52L120.2,144.53L236.97,141.85L240.4,141.68L274.75,141.09L278.18,140.98L340,140.13" style="vector-effect: non-scaling-stroke; fill: none; stroke: rgb(38, 166, 132); stroke-opacity: 1; stroke-width: 1px; opacity: 1;"/></g><g class="points"/><g class="text"/></g><g class="trace scatter trace6694dc" style="stroke-miterlimit: 2; opacity: 1;"><g class="fills"/><g class="errorbars"/><g class="lines"><path class="js-line" d="M0,147.15L127.07,144.33L130.51,144.15L157.98,143.61L161.41,143.36L202.63,142.62L206.06,142.53L236.97,141.86L240.4,141.62L278.18,140.95L281.62,140.8L322.83,140.35L326.26,140.15L340,139.89" style="vector-effect: non-scaling-stroke; fill: none; stroke: rgb(41, 170, 130); stroke-opacity: 1; stroke-width: 1px; opacity: 1;"/></g><g class="points"/><g class="text"/></g><g class="trace scatter tracef84d3b" style="stroke-miterlimit: 2; opacity: 1;"><g class="fills"/><g class="errorbars"/><g class="lines"><path class="js-line" d="M0,138.62L24.04,140.95L27.47,140.68L30.91,141.49L34.34,141.49L51.52,141.85L54.95,142.82L65.25,142.22L68.69,142.85L75.56,143.84L78.99,143.22L85.86,144.13L89.29,143.6L103.03,144.59L106.46,144.35L127.07,144.58L130.51,143.8L154.55,143.83L157.98,142.68L175.15,142.71L178.59,141.14L182.02,142.28L185.45,141.63L212.93,141.02L216.36,140.24L240.4,137.88L243.84,137.88L247.27,136.35L250.71,136.35L257.58,136.18L261.01,135.69L271.31,134.43L274.75,134.49L281.62,133.08L285.05,132.86L322.83,129.19L326.26,126.98L329.7,128.18L333.13,127.09L340,126.02" style="vector-effect: non-scaling-stroke; fill: none; stroke: rgb(45, 174, 127); stroke-opacity: 1; stroke-width: 1px; opacity: 1;"/></g><g class="points"/><g class="text"/></g><g class="trace scatter traceed2b26" style="stroke-miterlimit: 2; opacity: 1;"><g class="fills"/><g class="errorbars"/><g class="lines"><path class="js-line" d="M0,149.62L24.04,149.07L27.47,149.03L41.21,148.67L44.65,148.71L113.33,146.37L116.77,146.05L127.07,145.92L130.51,145.6L157.98,145.11L161.41,144.56L171.72,144.05L175.15,143.69L212.93,143.36L216.36,143.09L240.4,142.37L243.84,142.37L254.14,141.61L257.58,141.44L295.35,140.32L298.79,140.12L305.66,140.24L309.09,139.89L315.96,139.87L319.39,139.87L329.7,139.53L333.13,139.67L340,139.22" style="vector-effect: non-scaling-stroke; fill: none; stroke: rgb(96, 200, 96); stroke-opacity: 1; stroke-width: 1px; opacity: 1;"/></g><g class="points"/><g class="text"/></g><g class="trace scatter tracea07705" style="stroke-miterlimit: 2; opacity: 1;"><g class="fills"/><g class="errorbars"/><g class="lines"><path class="js-line" d="M0,157.56L20.61,157.33L24.04,157.63L44.65,156.3L48.08,156.52L58.38,155.3L61.82,155.19L82.42,154.68L85.86,154.35L103.03,154.22L106.46,152.92L113.33,152.79L116.77,151.91L127.07,151.92L130.51,151.04L151.11,150.39L154.55,150.12L157.98,150.36L161.41,149.44L175.15,149.82L178.59,148.53L195.76,147.07L199.19,146.88L219.8,145.53L223.23,144.69L230.1,144.18L233.54,143.82L243.84,143.21L247.27,142.71L254.14,142.03L257.58,141.7L271.31,140.63L274.75,140.11L298.79,138.59L302.22,138.06L315.96,136.91L319.39,136.91L322.83,137.63L326.26,136.67L336.57,135.97L340,135.67" style="vector-effect: non-scaling-stroke; fill: none; stroke: rgb(105, 204, 91); stroke-opacity: 1; stroke-width: 1px; opacity: 1;"/></g><g class="points"/><g class="text"/></g><g class="trace scatter trace48200c" style="stroke-miterlimit: 2; opacity: 1;"><g class="fills"/><g class="errorbars"/><g class="lines"><path class="js-line" d="M0,144.36L37.78,144.04L41.21,143.94L120.2,142.79L123.64,142.6L212.93,141.71L216.36,141.54L291.92,140.67L295.35,140.55L340,140.4" style="vector-effect: non-scaling-stroke; fill: none; stroke: rgb(115, 207, 85); stroke-opacity: 1; stroke-width: 1px; opacity: 1;"/></g><g class="points"/><g class="text"/></g><g class="trace scatter trace27d839" style="stroke-miterlimit: 2; opacity: 1;"><g class="fills"/><g class="errorbars"/><g class="lines"><path class="js-line" d="M0,146.41L78.99,145.3L82.42,145.06L340,139.41" style="vector-effect: non-scaling-stroke; fill: none; stroke: rgb(126, 210, 78); stroke-opacity: 1; stroke-width: 1px; opacity: 1;"/></g><g class="points"/><g class="text"/></g><g class="trace scatter traceeee5b5" style="stroke-miterlimit: 2; opacity: 1;"><g class="fills"/><g class="errorbars"/><g class="lines"><path class="js-line" d="M0,144.96L48.08,144.4L51.52,144.28L68.69,143.97L72.12,144.08L185.45,142.1L188.89,142.1L236.97,141.39L240.4,141.33L298.79,140.62L302.22,140.55L340,140.37" style="vector-effect: non-scaling-stroke; fill: none; stroke: rgb(138, 212, 70); stroke-opacity: 1; stroke-width: 1px; opacity: 1;"/></g><g class="points"/><g class="text"/></g><g class="trace scatter trace1d728e" style="stroke-miterlimit: 2; opacity: 1;"><g class="fills"/><g class="errorbars"/><g class="lines"><path class="js-line" d="M0,148.71L20.61,148.12L24.04,148.02L54.95,147.53L58.38,147.57L85.86,146.49L89.29,146.33L127.07,145.2L130.51,144.66L157.98,144.23L161.41,143.9L192.32,143.62L195.76,143.29L216.36,142.97L219.8,142.59L240.4,142.27L243.84,142.27L250.71,141.67L254.14,141.46L315.96,139.92L319.39,139.92L333.13,139.33L336.57,139.4L340,139.33" style="vector-effect: non-scaling-stroke; fill: none; stroke: rgb(149, 215, 63); stroke-opacity: 1; stroke-width: 1px; opacity: 1;"/></g><g class="points"/><g class="text"/></g><g class="trace scatter traceae66d9" style="stroke-miterlimit: 2; opacity: 1;"><g class="fills"/><g class="errorbars"/><g class="lines"><path class="js-line" d="M0,145.19L309.09,140.51L312.53,140.52L340,140.38" style="vector-effect: non-scaling-stroke; fill: none; stroke: rgb(161, 217, 56); stroke-opacity: 1; stroke-width: 1px; opacity: 1;"/></g><g class="points"/><g class="text"/></g><g class="trace scatter trace30a4ce" style="stroke-miterlimit: 2; opacity: 1;"><g class="fills"/><g class="errorbars"/><g class="lines"><path class="js-line" d="M0,144.91L24.04,144.79L27.47,144.67L78.99,143.87L82.42,143.84L302.22,140.53L305.66,140.56L340,140.31" style="vector-effect: non-scaling-stroke; fill: none; stroke: rgb(172, 220, 49); stroke-opacity: 1; stroke-width: 1px; opacity: 1;"/></g><g class="points"/><g class="text"/></g><g class="trace scatter trace683f9c" style="stroke-miterlimit: 2; opacity: 1;"><g class="fills"/><g class="errorbars"/><g class="lines"><path class="js-line" d="M0,143.86L281.62,140.68L285.05,140.58L329.7,140.41L333.13,140.36L340,140.22" style="vector-effect: non-scaling-stroke; fill: none; stroke: rgb(184, 222, 43); stroke-opacity: 1; stroke-width: 1px; opacity: 1;"/></g><g class="points"/><g class="text"/></g><g class="trace scatter trace77088b" style="stroke-miterlimit: 2; opacity: 1;"><g class="fills"/><g class="errorbars"/><g class="lines"><path class="js-line" d="M0,145.26L123.64,143.17L127.07,143.06L302.22,140.59L305.66,140.7L326.26,140.42L329.7,140.49L340,140.29" style="vector-effect: non-scaling-stroke; fill: none; stroke: rgb(195, 224, 42); stroke-opacity: 1; stroke-width: 1px; opacity: 1;"/></g><g class="points"/><g class="text"/></g><g class="trace scatter tracea8143a" style="stroke-miterlimit: 2; opacity: 1;"><g class="fills"/><g class="errorbars"/><g class="lines"><path class="js-line" d="M0,147.19L27.47,146.78L30.91,146.58L72.12,145.83L75.56,145.66L247.27,141.68L250.71,141.68L261.01,141.26L264.44,141.29L302.22,140.5L305.66,140.5L326.26,140.19L329.7,140.17L340,139.97" style="vector-effect: non-scaling-stroke; fill: none; stroke: rgb(207, 225, 41); stroke-opacity: 1; stroke-width: 1px; opacity: 1;"/></g><g class="points"/><g class="text"/></g><g class="trace scatter trace5f947a" style="stroke-miterlimit: 2; opacity: 1;"><g class="fills"/><g class="errorbars"/><g class="lines"><path class="js-line" d="M0,147.48L103.03,145.43L106.46,144.93L127.07,144.27L130.51,144.14L175.15,143.5L178.59,143.18L250.71,141.72L254.14,141.5L340,140.05" style="vector-effect: non-scaling-stroke; fill: none; stroke: rgb(218, 227, 40); stroke-opacity: 1; stroke-width: 1px; opacity: 1;"/></g><g class="points"/><g class="text"/></g><g class="trace scatter trace1bad94" style="stroke-miterlimit: 2; opacity: 1;"><g class="fills"/><g class="errorbars"/><g class="lines"><path class="js-line" d="M0,147.3L68.69,146.19L72.12,145.98L168.28,143.34L171.72,143.26L202.63,142.71L206.06,142.58L236.97,141.9L240.4,141.71L274.75,141.02L278.18,140.92L340,139.94" style="vector-effect: non-scaling-stroke; fill: none; stroke: rgb(230, 228, 39); stroke-opacity: 1; stroke-width: 1px; opacity: 1;"/></g><g class="points"/><g class="text"/></g><g class="trace scatter tracebfd010" style="stroke-miterlimit: 2; opacity: 1;"><g class="fills"/><g class="errorbars"/><g class="lines"><path class="js-line" d="M0,138.9L6.87,138.46L10.3,139.5L13.74,140.44L17.17,140.53L37.78,141.55L41.21,142.03L48.08,141.58L51.52,142.92L61.82,142.86L65.25,144.13L68.69,142.91L72.12,144.06L75.56,142.63L78.99,142.98L85.86,144.02L89.29,143.64L99.6,144.5L103.03,144.55L113.33,144.95L116.77,144.08L127.07,144.44L130.51,143.41L168.28,142.84L171.72,142.46L175.15,142.39L178.59,141.43L182.02,142.01L185.45,141.59L212.93,140.96L216.36,140.54L230.1,138.11L233.54,138.07L243.84,137.65L247.27,136.7L261.01,136.06L264.44,134.64L271.31,134.34L274.75,133.7L285.05,132.46L288.48,132.45L295.35,131.98L298.79,131.76L302.22,131.48L305.66,130.4L319.39,128.99L322.83,127.79L329.7,127.25L333.13,126.8L340,126.36" style="vector-effect: non-scaling-stroke; fill: none; stroke: rgb(241, 230, 38); stroke-opacity: 1; stroke-width: 1px; opacity: 1;"/></g><g class="points"/><g class="text"/></g><g class="trace scatter traceae6872" style="stroke-miterlimit: 2; opacity: 1;"><g class="fills"/><g class="errorbars"/><g class="lines"><path class="js-line" d="M0,145.2L89.29,143.88L92.73,143.7L340,140.39" style="vector-effect: non-scaling-stroke; fill: none; stroke: rgb(253, 231, 37); stroke-opacity: 1; stroke-width: 1px; opacity: 1;"/></g><g class="points"/><g class="text"/></g><g class="trace scatter tracefb2204" style="stroke-miterlimit: 2; opacity: 1;"><g class="fills"/><g class="errorbars"/><g class="lines"><path class="js-line" d="M0,258.4L54.95,224.12L58.38,221.92L109.9,187.96L113.33,185.64L164.85,149.81L168.28,147.35L216.36,112.13L219.8,109.55L271.31,69.8L274.75,67.08L326.26,25.14L329.7,22.27L340,13.6" style="vector-effect: non-scaling-stroke; fill: none; stroke: rgb(169, 169, 169); stroke-opacity: 1; stroke-width: 2px; opacity: 1;"/></g><g class="points"/><g class="text"/></g></g></g><g class="overplot"/><path class="xlines-above crisp" d="M0,0" style="fill: none;"/><path class="ylines-above crisp" d="M0,0" style="fill: none;"/><g class="overlines-above"/><g class="xaxislayer-above"><g class="x3tick"><text text-anchor="middle" x="0" y="1133" transform="translate(108.81,0)" style="font-family: 'Open Sans', verdana, arial, sans-serif; font-size: 12px; fill: rgb(42, 63, 95); fill-opacity: 1; white-space: pre; opacity: 1;">1.4</text></g><g class="x3tick"><text text-anchor="middle" x="0" y="1133" style="font-family: 'Open Sans', verdana, arial, sans-serif; font-size: 12px; fill: rgb(42, 63, 95); fill-opacity: 1; white-space: pre; opacity: 1;" transform="translate(211.35,0)">1.5</text></g><g class="x3tick"><text text-anchor="middle" x="0" y="1133" style="font-family: 'Open Sans', verdana, arial, sans-serif; font-size: 12px; fill: rgb(42, 63, 95); fill-opacity: 1; white-space: pre; opacity: 1;" transform="translate(313.89,0)">1.6</text></g><g class="x3tick"><text text-anchor="middle" x="0" y="1133" style="font-family: 'Open Sans', verdana, arial, sans-serif; font-size: 12px; fill: rgb(42, 63, 95); fill-opacity: 1; white-space: pre; opacity: 1;" transform="translate(416.43,0)">1.7</text></g></g><g class="yaxislayer-above"><g class="y3tick"><text text-anchor="end" x="79" y="4.199999999999999" transform="translate(0,1067.2600000000002)" style="font-family: 'Open Sans', verdana, arial, sans-serif; font-size: 12px; fill: rgb(42, 63, 95); fill-opacity: 1; white-space: pre; opacity: 1;">−0.5</text></g><g class="y3tick"><text text-anchor="end" x="79" y="4.199999999999999" style="font-family: 'Open Sans', verdana, arial, sans-serif; font-size: 12px; fill: rgb(42, 63, 95); fill-opacity: 1; white-space: pre; opacity: 1;" transform="translate(0,988.3000000000002)">0</text></g><g class="y3tick"><text text-anchor="end" x="79" y="4.199999999999999" style="font-family: 'Open Sans', verdana, arial, sans-serif; font-size: 12px; fill: rgb(42, 63, 95); fill-opacity: 1; white-space: pre; opacity: 1;" transform="translate(0,909.3400000000001)">0.5</text></g></g><g class="overaxes-above"/></g></g><g class="polarlayer"/><g class="smithlayer"/><g class="ternarylayer"/><g class="geolayer"/><g class="funnelarealayer"/><g class="pielayer"/><g class="iciclelayer"/><g class="treemaplayer"/><g class="sunburstlayer"/><g class="glimages"/><defs id="topdefs-cbed86"><g class="clips"/><clipPath id="legendcbed86"><rect width="188" height="29" x="0" y="0"/></clipPath></defs><g class="layer-above"><g class="imagelayer"/><g class="shapelayer"/></g><g class="infolayer"><g class="legend" pointer-events="all" transform="translate(232,50.59999999999998)"><rect class="bg" shape-rendering="crispEdges" width="188" height="29" x="0" y="0" style="stroke: rgb(68, 68, 68); stroke-opacity: 1; fill: rgb(255, 255, 255); fill-opacity: 1; stroke-width: 0px;"/><g class="scrollbox" transform="" clip-path="url(#legendcbed86)"><g class="groups"><g class="traces" transform="translate(0,14.5)" style="opacity: 1;"><text class="legendtext" text-anchor="start" x="40" y="4.680000000000001" style="font-family: 'Open Sans', verdana, arial, sans-serif; font-size: 12px; fill: rgb(42, 63, 95); fill-opacity: 1; white-space: pre;">Population Log-likelihood</text><g class="layers" style="opacity: 1;"><g class="legendfill"/><g class="legendlines"><path class="js-line" d="M5,0h30" style="fill: none; stroke: rgb(51, 34, 136); stroke-opacity: 1; stroke-width: 2px;"/></g><g class="legendsymbols"><g class="legendpoints"/></g></g><rect class="legendtoggle" x="0" y="-9.5" width="184.703125" height="19" style="fill: rgb(0, 0, 0); fill-opacity: 0;"/></g></g></g><rect class="scrollbar" rx="20" ry="3" width="0" height="0" x="0" y="0" style="fill: rgb(128, 139, 164); fill-opacity: 1;"/></g><g class="g-gtitle"/><g class="g-xtitle"/><g class="g-x2title"/><g class="g-x3title"/><g class="g-ytitle"/><g class="g-y2title"/><g class="g-y3title"/></g></svg>