<svg class="main-svg" xmlns="http://www.w3.org/2000/svg" xmlns:xlink="http://www.w3.org/1999/xlink" width="500" height="1200" style="" viewBox="0 0 500 1200"><rect x="0" y="0" width="500" height="1200" style="fill: rgb(255, 255, 255); fill-opacity: 1;"/><defs id="defs-4d6b0e"><g class="clips"><clipPath id="clip4d6b0exyplot" class="plotclip"><rect width="305" height="272.00000000000006"/></clipPath><clipPath id="clip4d6b0ex2y2plot" class="plotclip"><rect width="305" height="272"/></clipPath><clipPath id="clip4d6b0ex3y3plot" class="plotclip"><rect width="305" height="272"/></clipPath><clipPath class="axesclip" id="clip4d6b0ex"><rect x="115" y="0" width="305" height="1200"/></clipPath><clipPath class="axesclip" id="clip4d6b0ey"><rect x="0" y="100" width="500" height="272.00000000000006"/></clipPath><clipPath class="axesclip" id="clip4d6b0exy"><rect x="115" y="100" width="305" height="272.00000000000006"/></clipPath><clipPath class="axesclip" id="clip4d6b0ey2"><rect x="0" y="474.00000000000006" width="500" height="272"/></clipPath><clipPath class="axesclip" id="clip4d6b0exy2"><rect x="115" y="474.00000000000006" width="305" height="272"/></clipPath><clipPath class="axesclip" id="clip4d6b0ey3"><rect x="0" y="848.0000000000001" width="500" height="272"/></clipPath><clipPath class="axesclip" id="clip4d6b0exy3"><rect x="115" y="848.0000000000001" width="305" height="272"/></clipPath><clipPath class="axesclip" id="clip4d6b0ex2"><rect x="115" y="0" width="305" height="1200"/></clipPath><clipPath class="axesclip" id="clip4d6b0ex2y"><rect x="115" y="100" width="305" height="272.00000000000006"/></clipPath><clipPath class="axesclip" id="clip4d6b0ex2y2"><rect x="115" y="474.00000000000006" width="305" height="272"/></clipPath><clipPath class="axesclip" id="clip4d6b0ex2y3"><rect x="115" y="848.0000000000001" width="305" height="272"/></clipPath><clipPath class="axesclip" id="clip4d6b0ex3"><rect x="115" y="0" width="305" height="1200"/></clipPath><clipPath class="axesclip" id="clip4d6b0ex3y"><rect x="115" y="100" width="305" height="272.00000000000006"/></clipPath><clipPath class="axesclip" id="clip4d6b0ex3y2"><rect x="115" y="474.00000000000006" width="305" height="272"/></clipPath><clipPath class="axesclip" id="clip4d6b0ex3y3"><rect x="115" y="848.0000000000001" width="305" height="272"/></clipPath></g><g class="gradients"/><g class="patterns"/></defs><g class="bglayer"/><g class="layer-below"><g class="imagelayer"/><g class="shapelayer"/></g><g class="cartesianlayer"><g class="subplot xy"><g class="layer-subplot"><g class="shapelayer"/><g class="imagelayer"/></g><g class="minor-gridlayer"><g class="x"/><g class="y"/></g><g class="gridlayer"><g class="x"><path class="xgrid crisp" transform="translate(176,0)" d="M0,100v272.00000000000006" style="stroke: rgb(235, 240, 248); stroke-opacity: 1; stroke-width: 1px;"/><path class="xgrid crisp" transform="translate(237,0)" d="M0,100v272.00000000000006" style="stroke: rgb(235, 240, 248); stroke-opacity: 1; stroke-width: 1px;"/><path class="xgrid crisp" transform="translate(298,0)" d="M0,100v272.00000000000006" style="stroke: rgb(235, 240, 248); stroke-opacity: 1; stroke-width: 1px;"/><path class="xgrid crisp" transform="translate(359,0)" d="M0,100v272.00000000000006" style="stroke: rgb(235, 240, 248); stroke-opacity: 1; stroke-width: 1px;"/></g><g class="y"><path class="ygrid crisp" transform="translate(0,347.72)" d="M115,0h305" style="stroke: rgb(235, 240, 248); stroke-opacity: 1; stroke-width: 1px;"/><path class="ygrid crisp" transform="translate(0,301.31)" d="M115,0h305" style="stroke: rgb(235, 240, 248); stroke-opacity: 1; stroke-width: 1px;"/><path class="ygrid crisp" transform="translate(0,254.9)" d="M115,0h305" style="stroke: rgb(235, 240, 248); stroke-opacity: 1; stroke-width: 1px;"/><path class="ygrid crisp" transform="translate(0,208.49)" d="M115,0h305" style="stroke: rgb(235, 240, 248); stroke-opacity: 1; stroke-width: 1px;"/><path class="ygrid crisp" transform="translate(0,162.07999999999998)" d="M115,0h305" style="stroke: rgb(235, 240, 248); stroke-opacity: 1; stroke-width: 1px;"/></g></g><g class="zerolinelayer"><path class="yzl zl crisp" transform="translate(0,115.68)" d="M115,0h305" style="stroke: rgb(235, 240, 248); stroke-opacity: 1; stroke-width: 2px;"/></g><path class="xlines-below"/><path class="ylines-below"/><g class="overlines-below"/><g class="xaxislayer-below"/><g class="yaxislayer-below"/><g class="overaxes-below"/><g class="plot" transform="translate(115,100)" clip-path="url(#clip4d6b0exyplot)"><g class="scatterlayer mlayer"><g class="trace scatter trace0833c7" style="stroke-miterlimit: 2; opacity: 1;"><g class="fills"/><g class="errorbars"/><g class="lines"><path class="js-line" d="M0,258.4L15.4,213.51L18.48,205.08L33.89,165.64L36.97,158.29L52.37,124.31L55.45,118.06L67.78,94.86L70.86,89.52L83.18,69.96L86.26,65.53L98.59,49.6L101.67,46.08L110.91,36.59L113.99,33.79L123.23,26.48L126.31,24.41L135.56,19.28L138.64,17.93L147.88,14.99L150.96,14.37L160.2,13.6L163.28,13.71L172.53,15.12L175.61,15.96L184.85,19.55L187.93,21.11L197.17,26.89L200.25,29.18L209.49,37.13L212.58,40.15L224.9,54.03L227.98,57.95L240.3,75.46L243.38,80.3L255.71,101.44L258.79,107.19L271.11,131.97L274.19,138.62L289.6,174.59L292.68,182.33L305,215.11" style="vector-effect: non-scaling-stroke; fill: none; stroke: rgb(51, 34, 136); stroke-opacity: 1; stroke-width: 2px; opacity: 1;"/></g><g class="points"/><g class="text"/></g></g></g><g class="overplot"/><path class="xlines-above crisp" d="M0,0" style="fill: none;"/><path class="ylines-above crisp" d="M0,0" style="fill: none;"/><g class="overlines-above"/><g class="xaxislayer-above"/><g class="yaxislayer-above"><g class="ytick"><text text-anchor="end" x="114" y="4.199999999999999" transform="translate(0,347.72)" style="font-family: 'Open Sans', verdana, arial, sans-serif; font-size: 12px; fill: rgb(42, 63, 95); fill-opacity: 1; white-space: pre; opacity: 1;">−5</text></g><g class="ytick"><text text-anchor="end" x="114" y="4.199999999999999" style="font-family: 'Open Sans', verdana, arial, sans-serif; font-size: 12px; fill: rgb(42, 63, 95); fill-opacity: 1; white-space: pre; opacity: 1;" transform="translate(0,301.31)">−4</text></g><g class="ytick"><text text-anchor="end" x="114" y="4.199999999999999" style="font-family: 'Open Sans', verdana, arial, sans-serif; font-size: 12px; fill: rgb(42, 63, 95); fill-opacity: 1; white-space: pre; opacity: 1;" transform="translate(0,254.9)">−3</text></g><g class="ytick"><text text-anchor="end" x="114" y="4.199999999999999" style="font-family: 'Open Sans', verdana, arial, sans-serif; font-size: 12px; fill: rgb(42, 63, 95); fill-opacity: 1; white-space: pre; opacity: 1;" transform="translate(0,208.49)">−2</text></g><g class="ytick"><text text-anchor="end" x="114" y="4.199999999999999" style="font-family: 'Open Sans', verdana, arial, sans-serif; font-size: 12px; fill: rgb(42, 63, 95); fill-opacity: 1; white-space: pre; opacity: 1;" transform="translate(0,162.07999999999998)">−1</text></g><g class="ytick"><text text-anchor="end" x="114" y="4.199999999999999" style="font-family: 'Open Sans', verdana, arial, sans-serif; font-size: 12px; fill: rgb(42, 63, 95); fill-opacity: 1; white-space: pre; opacity: 1;" transform="translate(0,115.68)">0</text></g></g><g class="overaxes-above"/></g><g class="subplot x2y2"><g class="layer-subplot"><g class="shapelayer"/><g class="imagelayer"/></g><g class="minor-gridlayer"><g class="x2"/><g class="y2"/></g><g class="gridlayer"><g class="x2"><path class="x2grid crisp" transform="translate(176,0)" d="M0,474.00000000000006v272" style="stroke: rgb(235, 240, 248); stroke-opacity: 1; stroke-width: 1px;"/><path class="x2grid crisp" transform="translate(237,0)" d="M0,474.00000000000006v272" style="stroke: rgb(235, 240, 248); stroke-opacity: 1; stroke-width: 1px;"/><path class="x2grid crisp" transform="translate(298,0)" d="M0,474.00000000000006v272" style="stroke: rgb(235, 240, 248); stroke-opacity: 1; stroke-width: 1px;"/><path class="x2grid crisp" transform="translate(359,0)" d="M0,474.00000000000006v272" style="stroke: rgb(235, 240, 248); stroke-opacity: 1; stroke-width: 1px;"/></g><g class="y2"><path class="y2grid crisp" transform="translate(0,725.5600000000001)" d="M115,0h305" style="stroke: rgb(235, 240, 248); stroke-opacity: 1; stroke-width: 1px;"/><path class="y2grid crisp" transform="translate(0,684.69)" d="M115,0h305" style="stroke: rgb(235, 240, 248); stroke-opacity: 1; stroke-width: 1px;"/><path class="y2grid crisp" transform="translate(0,643.84)" d="M115,0h305" style="stroke: rgb(235, 240, 248); stroke-opacity: 1; stroke-width: 1px;"/><path class="y2grid crisp" transform="translate(0,602.97)" d="M115,0h305" style="stroke: rgb(235, 240, 248); stroke-opacity: 1; stroke-width: 1px;"/><path class="y2grid crisp" transform="translate(0,562.1300000000001)" d="M115,0h305" style="stroke: rgb(235, 240, 248); stroke-opacity: 1; stroke-width: 1px;"/><path class="y2grid crisp" transform="translate(0,521.25)" d="M115,0h305" style="stroke: rgb(235, 240, 248); stroke-opacity: 1; stroke-width: 1px;"/><path class="y2grid crisp" transform="translate(0,480.4100000000001)" d="M115,0h305" style="stroke: rgb(235, 240, 248); stroke-opacity: 1; stroke-width: 1px;"/></g></g><g class="zerolinelayer"/><path class="xlines-below"/><path class="ylines-below"/><g class="overlines-below"/><g class="xaxislayer-below"/><g class="yaxislayer-below"/><g class="overaxes-below"/><g class="plot" transform="translate(115,474.00000000000006)" clip-path="url(#clip4d6b0ex2y2plot)"><g class="scatterlayer mlayer"><g class="trace scatter trace3bb604" style="stroke-miterlimit: 2; opacity: 1;"><g class="fills"/><g class="errorbars"/><g class="lines"><path class="js-line" d="M3.08,94.03L6.16,107.84L9.24,187.13L12.32,13.63L15.4,225.06L18.48,131.94L21.57,84.91L24.65,205.53L27.73,41.16L30.81,142.34L33.89,152.66L36.97,104.41L40.05,96.34L43.13,222.78L46.21,32L49.29,165.31L52.37,138.84L55.45,102.16L58.54,179.09L61.62,96.34L64.7,87.16L67.78,196.34L70.86,80.84L73.94,102.69L77.02,205.53L80.1,58.47L83.18,149.78L86.26,162.41L89.34,58.47L92.42,200.94L95.51,90.03L98.59,98.06L101.67,196.34L104.75,87.72L107.83,104.97L110.91,178.5L113.99,69.38L117.07,152.34L120.15,165.84L123.23,65.06L126.31,190.88L129.39,85.72L132.47,104.41L135.56,194.19L138.64,85.88L141.72,97.81L144.8,200.78L147.88,49.53L150.96,174.94L154.04,142.16L157.12,76.22L160.2,180.75L163.28,106.09L166.36,88.66L169.44,196.34L172.53,92.84L175.61,90.75L178.69,196.34L181.77,58.47L184.85,162L187.93,168.47L191.01,44.94L194.09,200.94L197.17,101.81L200.25,81.69L203.33,205.25L206.41,90.88L209.49,83.72L212.58,205.53L215.66,62.47L218.74,155.53L221.82,166.44L224.9,53.84L227.98,187.13L231.06,100.38L234.14,92.34L237.22,196.34L240.3,93.5L243.38,90.03L246.46,205.53L249.55,58.47L252.63,153.22L255.71,176.78L258.79,40.63L261.87,214.16L264.95,67.59L268.03,98.66L271.11,222.78L274.19,42.31L280.35,222.78L283.43,32L286.52,156.09L289.6,146.91L292.68,67.66L295.76,258.41L298.84,25.06L301.92,105.53" style="vector-effect: non-scaling-stroke; fill: none; stroke: rgb(51, 34, 136); stroke-opacity: 1; stroke-width: 2px; opacity: 1;"/></g><g class="points"/><g class="text"/></g></g></g><g class="overplot"/><path class="xlines-above crisp" d="M0,0" style="fill: none;"/><path class="ylines-above crisp" d="M0,0" style="fill: none;"/><g class="overlines-above"/><g class="xaxislayer-above"/><g class="yaxislayer-above"><g class="y2tick"><text text-anchor="end" x="114" y="4.199999999999999" transform="translate(0,725.5600000000001)" style="font-family: 'Open Sans', verdana, arial, sans-serif; font-size: 12px; fill: rgb(42, 63, 95); fill-opacity: 1; white-space: pre; opacity: 1;">−3,837.7487661</text></g><g class="y2tick"><text text-anchor="end" x="114" y="4.199999999999999" style="font-family: 'Open Sans', verdana, arial, sans-serif; font-size: 12px; fill: rgb(42, 63, 95); fill-opacity: 1; white-space: pre; opacity: 1;" transform="translate(0,684.69)">−3,837.748766099</text></g><g class="y2tick"><text text-anchor="end" x="114" y="4.199999999999999" style="font-family: 'Open Sans', verdana, arial, sans-serif; font-size: 12px; fill: rgb(42, 63, 95); fill-opacity: 1; white-space: pre; opacity: 1;" transform="translate(0,643.84)">−3,837.748766098</text></g><g class="y2tick"><text text-anchor="end" x="114" y="4.199999999999999" style="font-family: 'Open Sans', verdana, arial, sans-serif; font-size: 12px; fill: rgb(42, 63, 95); fill-opacity: 1; white-space: pre; opacity: 1;" transform="translate(0,602.97)">−3,837.748766097</text></g><g class="y2tick"><text text-anchor="end" x="114" y="4.199999999999999" style="font-family: 'Open Sans', verdana, arial, sans-serif; font-size: 12px; fill: rgb(42, 63, 95); fill-opacity: 1; white-space: pre; opacity: 1;" transform="translate(0,562.1300000000001)">−3,837.748766096</text></g><g class="y2tick"><text text-anchor="end" x="114" y="4.199999999999999" style="font-family: 'Open Sans', verdana, arial, sans-serif; font-size: 12px; fill: rgb(42, 63, 95); fill-opacity: 1; white-space: pre; opacity: 1;" transform="translate(0,521.25)">−3,837.748766095</text></g><g class="y2tick"><text text-anchor="end" x="114" y="4.199999999999999" style="font-family: 'Open Sans', verdana, arial, sans-serif; font-size: 12px; fill: rgb(42, 63, 95); fill-opacity: 1; white-space: pre; opacity: 1;" transform="translate(0,480.4100000000001)">−3,837.748766094</text></g></g><g class="overaxes-above"/></g><g class="subplot x3y3"><g class="layer-subplot"><g class="shapelayer"/><g class="imagelayer"/></g><g class="minor-gridlayer"><g class="x3"/><g class="y3"/></g><g class="gridlayer"><g class="x3"><path class="x3grid crisp" transform="translate(176,0)" d="M0,848.0000000000001v272" style="stroke: rgb(235, 240, 248); stroke-opacity: 1; stroke-width: 1px;"/><path class="x3grid crisp" transform="translate(237,0)" d="M0,848.0000000000001v272" style="stroke: rgb(235, 240, 248); stroke-opacity: 1; stroke-width: 1px;"/><path class="x3grid crisp" transform="translate(298,0)" d="M0,848.0000000000001v272" style="stroke: rgb(235, 240, 248); stroke-opacity: 1; stroke-width: 1px;"/><path class="x3grid crisp" transform="translate(359,0)" d="M0,848.0000000000001v272" style="stroke: rgb(235, 240, 248); stroke-opacity: 1; stroke-width: 1px;"/></g><g class="y3"><path class="y3grid crisp" transform="translate(0,1090.5800000000002)" d="M115,0h305" style="stroke: rgb(235, 240, 248); stroke-opacity: 1; stroke-width: 1px;"/><path class="y3grid crisp" transform="translate(0,1033.7400000000002)" d="M115,0h305" style="stroke: rgb(235, 240, 248); stroke-opacity: 1; stroke-width: 1px;"/><path class="y3grid crisp" transform="translate(0,976.9000000000001)" d="M115,0h305" style="stroke: rgb(235, 240, 248); stroke-opacity: 1; stroke-width: 1px;"/><path class="y3grid crisp" transform="translate(0,863.2200000000001)" d="M115,0h305" style="stroke: rgb(235, 240, 248); stroke-opacity: 1; stroke-width: 1px;"/></g></g><g class="zerolinelayer"><path class="y3zl zl crisp" transform="translate(0,920.0600000000002)" d="M115,0h305" style="stroke: rgb(235, 240, 248); stroke-opacity: 1; stroke-width: 2px;"/></g><path class="xlines-below"/><path class="ylines-below"/><g class="overlines-below"/><g class="xaxislayer-below"/><g class="yaxislayer-below"/><g class="overaxes-below"/><g class="plot" transform="translate(115,848.0000000000001)" clip-path="url(#clip4d6b0ex3y3plot)"><g class="scatterlayer mlayer"><g class="trace scatter tracee5101c" style="stroke-miterlimit: 2; opacity: 1;"><g class="fills"/><g class="errorbars"/><g class="lines"><path class="js-line" d="M0,180.93L36.97,154.13L40.05,151.99L73.94,129.47L77.02,127.51L110.91,106.96L113.99,105.18L144.8,88.2L147.88,86.59L181.77,69.81L184.85,68.37L218.74,53.56L221.82,52.3L255.71,39.45L258.79,38.38L289.6,28.41L292.68,27.5L305,23.99" style="vector-effect: non-scaling-stroke; fill: none; stroke: rgb(68, 1, 84); stroke-opacity: 1; stroke-width: 1px; opacity: 1;"/></g><g class="points"/><g class="text"/></g><g class="trace scatter trace89e066" style="stroke-miterlimit: 2; opacity: 1;"><g class="fills"/><g class="errorbars"/><g class="lines"><path class="js-line" d="M0,164.56L52.37,135.43L55.45,133.76L117.07,101.49L120.15,99.93L172.53,74.19L175.61,72.72L231.06,47.18L234.14,45.81L286.52,23.29L289.6,22.02L305,15.7" style="vector-effect: non-scaling-stroke; fill: none; stroke: rgb(69, 7, 90); stroke-opacity: 1; stroke-width: 1px; opacity: 1;"/></g><g class="points"/><g class="text"/></g><g class="trace scatter trace7d604f" style="stroke-miterlimit: 2; opacity: 1;"><g class="fills"/><g class="errorbars"/><g class="lines"><path class="js-line" d="M0,185.75L36.97,158.83L40.05,156.66L80.1,129.54L83.18,127.54L120.15,104.39L123.23,102.53L160.2,81.2L163.28,79.5L200.25,59.98L203.33,58.43L240.3,40.72L243.38,39.33L280.35,23.44L283.43,22.19L305,13.78" style="vector-effect: non-scaling-stroke; fill: none; stroke: rgb(69, 14, 96); stroke-opacity: 1; stroke-width: 1px; opacity: 1;"/></g><g class="points"/><g class="text"/></g><g class="trace scatter trace569828" style="stroke-miterlimit: 2; opacity: 1;"><g class="fills"/><g class="errorbars"/><g class="lines"><path class="js-line" d="M0,246.22L24.65,214.4L27.73,210.6L52.37,181.54L55.45,178.08L80.1,151.77L83.18,148.65L104.75,127.91L107.83,125.1L129.39,106.49L132.47,103.99L154.04,87.53L157.12,85.33L178.69,71.01L181.77,69.11L203.33,56.94L206.41,55.35L227.98,45.31L231.06,44.03L252.63,36.13L255.71,35.16L274.19,30.11L277.27,29.4L295.76,25.96L298.84,25.52L305,24.76" style="vector-effect: non-scaling-stroke; fill: none; stroke: rgb(70, 20, 101); stroke-opacity: 1; stroke-width: 1px; opacity: 1;"/></g><g class="points"/><g class="text"/></g><g class="trace scatter tracec51886" style="stroke-miterlimit: 2; opacity: 1;"><g class="fills"/><g class="errorbars"/><g class="lines"><path class="js-line" d="M0,132.3L80.1,104.19L83.18,103.14L169.44,74.49L172.53,73.5L258.79,46.52L261.87,45.59L305,32.74" style="vector-effect: non-scaling-stroke; fill: none; stroke: rgb(71, 26, 107); stroke-opacity: 1; stroke-width: 1px; opacity: 1;"/></g><g class="points"/><g class="text"/></g><g class="trace scatter trace94236c" style="stroke-miterlimit: 2; opacity: 1;"><g class="fills"/><g class="errorbars"/><g class="lines"><path class="js-line" d="M0,159.87L64.7,126.21L67.78,124.65L132.47,92.88L135.56,91.41L200.25,61.53L203.33,60.15L261.87,34.74L264.95,33.45L305,16.97" style="vector-effect: non-scaling-stroke; fill: none; stroke: rgb(71, 32, 113); stroke-opacity: 1; stroke-width: 1px; opacity: 1;"/></g><g class="points"/><g class="text"/></g><g class="trace scatter trace5eac3d" style="stroke-miterlimit: 2; opacity: 1;"><g class="fills"/><g class="errorbars"/><g class="lines"><path class="js-line" d="M0,139.58L77.02,109.09L80.1,107.91L157.12,79.19L160.2,78.08L234.14,52.18L237.22,51.14L305,28.84" style="vector-effect: non-scaling-stroke; fill: none; stroke: rgb(72, 39, 119); stroke-opacity: 1; stroke-width: 1px; opacity: 1;"/></g><g class="points"/><g class="text"/></g><g class="trace scatter tracef9ee54" style="stroke-miterlimit: 2; opacity: 1;"><g class="fills"/><g class="errorbars"/><g class="lines"><path class="js-line" d="M0,183.13L36.97,156.51L40.05,154.37L77.02,129.71L80.1,127.74L117.07,105.03L120.15,103.22L157.12,82.47L160.2,80.82L197.17,62.03L200.25,60.54L237.22,43.71L240.3,42.38L274.19,28.67L277.27,27.5L305,17.52" style="vector-effect: non-scaling-stroke; fill: none; stroke: rgb(71, 44, 122); stroke-opacity: 1; stroke-width: 1px; opacity: 1;"/></g><g class="points"/><g class="text"/></g><g class="trace scatter trace395ca9" style="stroke-miterlimit: 2; opacity: 1;"><g class="fills"/><g class="errorbars"/><g class="lines"><path class="js-line" d="M0,141.83L80.1,109.06L83.18,107.84L154.04,80.56L157.12,79.41L237.22,50.53L240.3,49.46L305,27.63" style="vector-effect: non-scaling-stroke; fill: none; stroke: rgb(69, 49, 125); stroke-opacity: 1; stroke-width: 1px; opacity: 1;"/></g><g class="points"/><g class="text"/></g><g class="trace scatter trace133f77" style="stroke-miterlimit: 2; opacity: 1;"><g class="fills"/><g class="errorbars"/><g class="lines"><path class="js-line" d="M0,136.72L70.86,109.86L73.94,108.72L147.88,82.14L150.96,81.06L234.14,52.92L237.22,51.92L305,30.37" style="vector-effect: non-scaling-stroke; fill: none; stroke: rgb(68, 55, 128); stroke-opacity: 1; stroke-width: 1px; opacity: 1;"/></g><g class="points"/><g class="text"/></g><g class="trace scatter trace7c3814" style="stroke-miterlimit: 2; opacity: 1;"><g class="fills"/><g class="errorbars"/><g class="lines"><path class="js-line" d="M0,123.8L104.75,92.61L107.83,91.72L212.58,62.23L215.66,61.38L305,37.57" style="vector-effect: non-scaling-stroke; fill: none; stroke: rgb(66, 60, 130); stroke-opacity: 1; stroke-width: 1px; opacity: 1;"/></g><g class="points"/><g class="text"/></g><g class="trace scatter trace1f3a02" style="stroke-miterlimit: 2; opacity: 1;"><g class="fills"/><g class="errorbars"/><g class="lines"><path class="js-line" d="M0,139.83L83.18,106.85L86.26,105.67L160.2,78.1L163.28,76.99L240.3,50.02L243.38,48.98L305,28.7" style="vector-effect: non-scaling-stroke; fill: none; stroke: rgb(64, 65, 133); stroke-opacity: 1; stroke-width: 1px; opacity: 1;"/></g><g class="points"/><g class="text"/></g><g class="trace scatter tracedc6a3b" style="stroke-miterlimit: 2; opacity: 1;"><g class="fills"/><g class="errorbars"/><g class="lines"><path class="js-line" d="M0,164.78L49.29,136.76L52.37,135.06L101.67,108.84L104.75,107.26L157.12,81.38L160.2,79.92L206.41,58.78L209.49,57.42L258.79,36.62L261.87,35.38L305,18.67" style="vector-effect: non-scaling-stroke; fill: none; stroke: rgb(63, 71, 136); stroke-opacity: 1; stroke-width: 1px; opacity: 1;"/></g><g class="points"/><g class="text"/></g><g class="trace scatter traceb7aef9" style="stroke-miterlimit: 2; opacity: 1;"><g class="fills"/><g class="errorbars"/><g class="lines"><path class="js-line" d="M0,166.26L52.37,136.13L55.45,134.42L107.83,106.29L110.91,104.7L160.2,80.07L163.28,78.58L215.66,54.37L218.74,53.01L268.03,32.06L271.11,30.8L305,17.45" style="vector-effect: non-scaling-stroke; fill: none; stroke: rgb(61, 76, 137); stroke-opacity: 1; stroke-width: 1px; opacity: 1;"/></g><g class="points"/><g class="text"/></g><g class="trace scatter trace89aea3" style="stroke-miterlimit: 2; opacity: 1;"><g class="fills"/><g class="errorbars"/><g class="lines"><path class="js-line" d="M0,163.75L55.45,132.72L58.54,131.06L107.83,105.34L110.91,103.79L163.28,78.4L166.36,76.96L218.74,53.56L221.82,52.24L271.11,32.03L274.19,30.82L305,19.1" style="vector-effect: non-scaling-stroke; fill: none; stroke: rgb(59, 81, 138); stroke-opacity: 1; stroke-width: 1px; opacity: 1;"/></g><g class="points"/><g class="text"/></g><g class="trace scatter traceb90e3c" style="stroke-miterlimit: 2; opacity: 1;"><g class="fills"/><g class="errorbars"/><g class="lines"><path class="js-line" d="M0,164.2L58.54,131.78L61.62,130.13L113.99,102.85L117.07,101.29L172.53,74.17L175.61,72.72L231.06,47.42L234.14,46.07L286.52,23.86L289.6,22.6L305,16.38" style="vector-effect: non-scaling-stroke; fill: none; stroke: rgb(45, 114, 142); stroke-opacity: 1; stroke-width: 1px; opacity: 1;"/></g><g class="points"/><g class="text"/></g><g class="trace scatter traceaf9fa3" style="stroke-miterlimit: 2; opacity: 1;"><g class="fills"/><g class="errorbars"/><g class="lines"><path class="js-line" d="M0,187.75L36.97,160.25L40.05,158.03L77.02,132.44L80.1,130.39L113.99,108.61L117.07,106.7L154.04,84.78L157.12,83.04L191.01,64.63L194.09,63.03L227.98,46.24L231.06,44.79L268.03,28.31L271.11,27.02L305,13.6" style="vector-effect: non-scaling-stroke; fill: none; stroke: rgb(43, 118, 142); stroke-opacity: 1; stroke-width: 1px; opacity: 1;"/></g><g class="points"/><g class="text"/></g><g class="trace scatter tracebbbbb6" style="stroke-miterlimit: 2; opacity: 1;"><g class="fills"/><g class="errorbars"/><g class="lines"><path class="js-line" d="M0,244.99L24.65,214.21L27.73,210.52L52.37,182.18L55.45,178.79L80.1,152.89L83.18,149.8L107.83,126.34L110.91,123.56L135.56,102.53L138.64,100.06L163.28,81.47L166.36,79.3L187.93,65.04L191.01,63.14L212.58,50.79L215.66,49.16L237.22,38.7L240.3,37.34L261.87,28.77L264.95,27.68L286.52,21.01L289.6,20.2L305,16.62" style="vector-effect: non-scaling-stroke; fill: none; stroke: rgb(41, 122, 142); stroke-opacity: 1; stroke-width: 1px; opacity: 1;"/></g><g class="points"/><g class="text"/></g><g class="trace scatter tracef279f3" style="stroke-miterlimit: 2; opacity: 1;"><g class="fills"/><g class="errorbars"/><g class="lines"><path class="js-line" d="M0,133.8L80.1,104.95L83.18,103.87L160.2,77.6L163.28,76.58L243.38,50.79L246.46,49.83L305,31.98" style="vector-effect: non-scaling-stroke; fill: none; stroke: rgb(40, 126, 142); stroke-opacity: 1; stroke-width: 1px; opacity: 1;"/></g><g class="points"/><g class="text"/></g><g class="trace scatter traceacaa2a" style="stroke-miterlimit: 2; opacity: 1;"><g class="fills"/><g class="errorbars"/><g class="lines"><path class="js-line" d="M0,160.66L55.45,131.36L58.54,129.78L113.99,101.96L117.07,100.46L178.69,71.28L181.77,69.87L240.3,43.84L243.38,42.51L305,16.88" style="vector-effect: non-scaling-stroke; fill: none; stroke: rgb(38, 130, 142); stroke-opacity: 1; stroke-width: 1px; opacity: 1;"/></g><g class="points"/><g class="text"/></g><g class="trace scatter trace491e20" style="stroke-miterlimit: 2; opacity: 1;"><g class="fills"/><g class="errorbars"/><g class="lines"><path class="js-line" d="M0,138.47L77.02,108.51L80.1,107.34L157.12,79.09L160.2,77.99L240.3,50.41L243.38,49.38L305,29.42" style="vector-effect: non-scaling-stroke; fill: none; stroke: rgb(37, 135, 141); stroke-opacity: 1; stroke-width: 1px; opacity: 1;"/></g><g class="points"/><g class="text"/></g><g class="trace scatter trace07d505" style="stroke-miterlimit: 2; opacity: 1;"><g class="fills"/><g class="errorbars"/><g class="lines"><path class="js-line" d="M0,182.52L36.97,155.86L40.05,153.73L73.94,131.1L77.02,129.12L113.99,106.41L117.07,104.6L154.04,83.94L157.12,82.3L194.09,63.69L197.17,62.23L231.06,46.98L234.14,45.67L268.03,32.15L271.11,31L305,19.22" style="vector-effect: non-scaling-stroke; fill: none; stroke: rgb(36, 140, 140); stroke-opacity: 1; stroke-width: 1px; opacity: 1;"/></g><g class="points"/><g class="text"/></g><g class="trace scatter trace19ded4" style="stroke-miterlimit: 2; opacity: 1;"><g class="fills"/><g class="errorbars"/><g class="lines"><path class="js-line" d="M0,140.29L80.1,108.27L83.18,107.08L157.12,79.26L160.2,78.14L234.14,51.99L237.22,50.94L305,28.44" style="vector-effect: non-scaling-stroke; fill: none; stroke: rgb(34, 144, 140); stroke-opacity: 1; stroke-width: 1px; opacity: 1;"/></g><g class="points"/><g class="text"/></g><g class="trace scatter trace36072e" style="stroke-miterlimit: 2; opacity: 1;"><g class="fills"/><g class="errorbars"/><g class="lines"><path class="js-line" d="M0,139.13L80.1,107.66L83.18,106.49L157.12,79.14L160.2,78.04L237.22,51.29L240.3,50.26L305,29.16" style="vector-effect: non-scaling-stroke; fill: none; stroke: rgb(33, 148, 139); stroke-opacity: 1; stroke-width: 1px; opacity: 1;"/></g><g class="points"/><g class="text"/></g><g class="trace scatter trace7bb04c" style="stroke-miterlimit: 2; opacity: 1;"><g class="fills"/><g class="errorbars"/><g class="lines"><path class="js-line" d="M0,124.25L98.59,94.58L101.67,93.68L206.41,63.85L209.49,63L305,37.32" style="vector-effect: non-scaling-stroke; fill: none; stroke: rgb(32, 153, 138); stroke-opacity: 1; stroke-width: 1px; opacity: 1;"/></g><g class="points"/><g class="text"/></g><g class="trace scatter trace5faa89" style="stroke-miterlimit: 2; opacity: 1;"><g class="fills"/><g class="errorbars"/><g class="lines"><path class="js-line" d="M0,141.45L73.94,111.29L77.02,110.07L157.12,79.37L160.2,78.23L231.06,52.78L234.14,51.71L305,27.87" style="vector-effect: non-scaling-stroke; fill: none; stroke: rgb(31, 158, 137); stroke-opacity: 1; stroke-width: 1px; opacity: 1;"/></g><g class="points"/><g class="text"/></g><g class="trace scatter trace9150dc" style="stroke-miterlimit: 2; opacity: 1;"><g class="fills"/><g class="errorbars"/><g class="lines"><path class="js-line" d="M0,162.59L52.37,133.67L55.45,132.03L107.83,105.01L110.91,103.47L166.36,76.92L169.44,75.51L221.82,52.38L224.9,51.07L274.19,31.04L277.27,29.84L305,19.32" style="vector-effect: non-scaling-stroke; fill: none; stroke: rgb(34, 162, 135); stroke-opacity: 1; stroke-width: 1px; opacity: 1;"/></g><g class="points"/><g class="text"/></g><g class="trace scatter trace79c2fe" style="stroke-miterlimit: 2; opacity: 1;"><g class="fills"/><g class="errorbars"/><g class="lines"><path class="js-line" d="M0,163.01L52.37,134.03L55.45,132.38L110.91,103.7L113.99,102.16L166.36,76.96L169.44,75.54L218.74,53.5L221.82,52.18L271.11,31.78L274.19,30.56L305,18.65" style="vector-effect: non-scaling-stroke; fill: none; stroke: rgb(38, 166, 132); stroke-opacity: 1; stroke-width: 1px; opacity: 1;"/></g><g class="points"/><g class="text"/></g><g class="trace scatter trace7f024d" style="stroke-miterlimit: 2; opacity: 1;"><g class="fills"/><g class="errorbars"/><g class="lines"><path class="js-line" d="M0,163L52.37,133.93L55.45,132.28L107.83,105.13L110.91,103.59L163.28,78.37L166.36,76.94L215.66,54.96L218.74,53.64L264.95,34.58L268.03,33.36L305,19.22" style="vector-effect: non-scaling-stroke; fill: none; stroke: rgb(41, 170, 130); stroke-opacity: 1; stroke-width: 1px; opacity: 1;"/></g><g class="points"/><g class="text"/></g><g class="trace scatter traceb16185" style="stroke-miterlimit: 2; opacity: 1;"><g class="fills"/><g class="errorbars"/><g class="lines"><path class="js-line" d="M0,61.39L27.73,58.26L30.81,58.02L58.54,56.87L61.62,56.85L89.34,57.69L92.42,57.89L117.07,60.3L120.15,60.7L147.88,65.3L150.96,65.93L175.61,71.69L178.69,72.51L203.33,79.86L206.41,80.88L234.14,91.03L237.22,92.27L264.95,104.4L268.03,105.86L295.76,119.98L298.84,121.66L305,125.08" style="vector-effect: non-scaling-stroke; fill: none; stroke: rgb(45, 174, 127); stroke-opacity: 1; stroke-width: 1px; opacity: 1;"/></g><g class="points"/><g class="text"/></g><g class="trace scatter trace28d07e" style="stroke-miterlimit: 2; opacity: 1;"><g class="fills"/><g class="errorbars"/><g class="lines"><path class="js-line" d="M0,187.1L36.97,159.71L40.05,157.51L77.02,132.05L80.1,130.01L117.07,106.46L120.15,104.58L157.12,82.96L160.2,81.23L197.17,61.53L200.25,59.96L237.22,42.18L240.3,40.78L277.27,24.91L280.35,23.66L305,14.17" style="vector-effect: non-scaling-stroke; fill: none; stroke: rgb(96, 200, 96); stroke-opacity: 1; stroke-width: 1px; opacity: 1;"/></g><g class="points"/><g class="text"/></g><g class="trace scatter trace1224a3" style="stroke-miterlimit: 2; opacity: 1;"><g class="fills"/><g class="errorbars"/><g class="lines"><path class="js-line" d="M0,258.4L24.65,224.33L27.73,220.26L52.37,189.14L55.45,185.44L80.1,157.28L83.18,153.95L104.75,131.75L107.83,128.75L129.39,108.85L132.47,106.17L154.04,88.58L157.12,86.23L178.69,70.94L181.77,68.92L203.33,55.92L206.41,54.23L224.9,44.94L227.98,43.53L246.46,35.97L249.55,34.85L268.03,29.01L271.11,28.18L289.6,24.07L292.68,23.53L305,21.77" style="vector-effect: non-scaling-stroke; fill: none; stroke: rgb(105, 204, 91); stroke-opacity: 1; stroke-width: 1px; opacity: 1;"/></g><g class="points"/><g class="text"/></g><g class="trace scatter traceb257b0" style="stroke-miterlimit: 2; opacity: 1;"><g class="fills"/><g class="errorbars"/><g class="lines"><path class="js-line" d="M0,131.5L73.94,105.86L77.02,104.82L150.96,80.39L154.04,79.39L240.3,52.41L243.38,51.48L305,33.22" style="vector-effect: non-scaling-stroke; fill: none; stroke: rgb(115, 207, 85); stroke-opacity: 1; stroke-width: 1px; opacity: 1;"/></g><g class="points"/><g class="text"/></g><g class="trace scatter trace228c93" style="stroke-miterlimit: 2; opacity: 1;"><g class="fills"/><g class="errorbars"/><g class="lines"><path class="js-line" d="M0,160.56L58.54,129.63L61.62,128.05L120.15,98.85L123.23,97.36L178.69,71.29L181.77,69.88L240.3,44.05L243.38,42.74L301.92,18.63L305,17.41" style="vector-effect: non-scaling-stroke; fill: none; stroke: rgb(126, 210, 78); stroke-opacity: 1; stroke-width: 1px; opacity: 1;"/></g><g class="points"/><g class="text"/></g><g class="trace scatter trace64618f" style="stroke-miterlimit: 2; opacity: 1;"><g class="fills"/><g class="errorbars"/><g class="lines"><path class="js-line" d="M0,138.14L67.78,111.83L70.86,110.66L150.96,81.25L154.04,80.15L234.14,52.54L237.22,51.51L305,29.56" style="vector-effect: non-scaling-stroke; fill: none; stroke: rgb(138, 212, 70); stroke-opacity: 1; stroke-width: 1px; opacity: 1;"/></g><g class="points"/><g class="text"/></g><g class="trace scatter trace0ba9a1" style="stroke-miterlimit: 2; opacity: 1;"><g class="fills"/><g class="errorbars"/><g class="lines"><path class="js-line" d="M0,178.3L40.05,151.14L43.13,149.12L83.18,123.92L86.26,122.06L126.31,98.83L129.39,97.12L169.44,75.86L172.53,74.31L209.49,56.44L212.58,55.02L249.55,38.84L252.63,37.56L292.68,21.94L295.76,20.81L305,17.5" style="vector-effect: non-scaling-stroke; fill: none; stroke: rgb(149, 215, 63); stroke-opacity: 1; stroke-width: 1px; opacity: 1;"/></g><g class="points"/><g class="text"/></g><g class="trace scatter trace57c5a9" style="stroke-miterlimit: 2; opacity: 1;"><g class="fills"/><g class="errorbars"/><g class="lines"><path class="js-line" d="M0,140.27L80.1,108.26L83.18,107.07L157.12,79.26L160.2,78.14L234.14,52L237.22,50.95L301.92,29.45L305,28.46" style="vector-effect: non-scaling-stroke; fill: none; stroke: rgb(161, 217, 56); stroke-opacity: 1; stroke-width: 1px; opacity: 1;"/></g><g class="points"/><g class="text"/></g><g class="trace scatter trace808ed9" style="stroke-miterlimit: 2; opacity: 1;"><g class="fills"/><g class="errorbars"/><g class="lines"><path class="js-line" d="M0,138.22L70.86,110.69L73.94,109.53L154.04,80.15L157.12,79.06L234.14,52.55L237.22,51.52L305,29.6" style="vector-effect: non-scaling-stroke; fill: none; stroke: rgb(172, 220, 49); stroke-opacity: 1; stroke-width: 1px; opacity: 1;"/></g><g class="points"/><g class="text"/></g><g class="trace scatter trace2e0a0d" style="stroke-miterlimit: 2; opacity: 1;"><g class="fills"/><g class="errorbars"/><g class="lines"><path class="js-line" d="M0,124.05L92.42,96.31L95.51,95.41L200.25,65.58L203.33,64.73L305,37.41" style="vector-effect: non-scaling-stroke; fill: none; stroke: rgb(184, 222, 43); stroke-opacity: 1; stroke-width: 1px; opacity: 1;"/></g><g class="points"/><g class="text"/></g><g class="trace scatter trace961b27" style="stroke-miterlimit: 2; opacity: 1;"><g class="fills"/><g class="errorbars"/><g class="lines"><path class="js-line" d="M0,140.98L73.94,111.03L77.02,109.82L147.88,82.75L150.96,81.6L221.82,56.11L224.9,55.04L298.84,30.13L301.92,29.13L305,28.13" style="vector-effect: non-scaling-stroke; fill: none; stroke: rgb(195, 224, 42); stroke-opacity: 1; stroke-width: 1px; opacity: 1;"/></g><g class="points"/><g class="text"/></g><g class="trace scatter traceb7628e" style="stroke-miterlimit: 2; opacity: 1;"><g class="fills"/><g class="errorbars"/><g class="lines"><path class="js-line" d="M0,164.1L49.29,136.3L52.37,134.62L98.59,110.18L101.67,108.6L150.96,84.25L154.04,82.78L203.33,60.21L206.41,58.85L255.71,38.05L258.79,36.81L305,18.93" style="vector-effect: non-scaling-stroke; fill: none; stroke: rgb(207, 225, 41); stroke-opacity: 1; stroke-width: 1px; opacity: 1;"/></g><g class="points"/><g class="text"/></g><g class="trace scatter trace6288af" style="stroke-miterlimit: 2; opacity: 1;"><g class="fills"/><g class="errorbars"/><g class="lines"><path class="js-line" d="M0,166.73L52.37,136.44L55.45,134.72L104.75,108.06L107.83,106.45L157.12,81.6L160.2,80.1L209.49,57.06L212.58,55.67L264.95,33.16L268.03,31.9L305,17.24" style="vector-effect: non-scaling-stroke; fill: none; stroke: rgb(218, 227, 40); stroke-opacity: 1; stroke-width: 1px; opacity: 1;"/></g><g class="points"/><g class="text"/></g><g class="trace scatter tracead1686" style="stroke-miterlimit: 2; opacity: 1;"><g class="fills"/><g class="errorbars"/><g class="lines"><path class="js-line" d="M0,165.21L49.29,137.03L52.37,135.33L98.59,110.58L101.67,108.98L150.96,84.37L154.04,82.89L200.25,61.48L203.33,60.1L255.71,37.79L258.79,36.54L305,18.58" style="vector-effect: non-scaling-stroke; fill: none; stroke: rgb(230, 228, 39); stroke-opacity: 1; stroke-width: 1px; opacity: 1;"/></g><g class="points"/><g class="text"/></g><g class="trace scatter trace52718e" style="stroke-miterlimit: 2; opacity: 1;"><g class="fills"/><g class="errorbars"/><g class="lines"><path class="js-line" d="M0,57.16L24.65,54.76L27.73,54.57L52.37,53.8L55.45,53.8L80.1,54.66L83.18,54.87L107.83,57.36L110.91,57.77L135.56,61.88L138.64,62.5L163.28,68.24L166.36,69.06L191.01,76.42L194.09,77.44L221.82,87.66L224.9,88.91L249.55,99.71L252.63,101.16L277.27,113.58L280.35,115.24L305,129.29" style="vector-effect: non-scaling-stroke; fill: none; stroke: rgb(241, 230, 38); stroke-opacity: 1; stroke-width: 1px; opacity: 1;"/></g><g class="points"/><g class="text"/></g><g class="trace scatter tracea90521" style="stroke-miterlimit: 2; opacity: 1;"><g class="fills"/><g class="errorbars"/><g class="lines"><path class="js-line" d="M0,140.71L80.1,108.49L83.18,107.29L154.04,80.44L157.12,79.31L231.06,52.95L234.14,51.88L305,28.21" style="vector-effect: non-scaling-stroke; fill: none; stroke: rgb(253, 231, 37); stroke-opacity: 1; stroke-width: 1px; opacity: 1;"/></g><g class="points"/><g class="text"/></g><g class="trace scatter traceee96d5" style="stroke-miterlimit: 2; opacity: 1;"><g class="fills"/><g class="errorbars"/><g class="lines"><path class="js-line" d="M0,185.21L24.65,164.15L27.73,161.64L55.45,140.16L58.54,137.91L83.18,120.84L86.26,118.83L110.91,103.73L113.99,101.96L138.64,88.86L141.72,87.34L166.36,76.27L169.44,75.02L194.09,66.01L197.17,65.01L221.82,58.09L224.9,57.36L246.46,53.04L249.55,52.54L271.11,49.87L274.19,49.61L295.76,48.6L298.84,48.57L305,48.6" style="vector-effect: non-scaling-stroke; fill: none; stroke: rgb(169, 169, 169); stroke-opacity: 1; stroke-width: 2px; opacity: 1;"/></g><g class="points"/><g class="text"/></g></g></g><g class="overplot"/><path class="xlines-above crisp" d="M0,0" style="fill: none;"/><path class="ylines-above crisp" d="M0,0" style="fill: none;"/><g class="overlines-above"/><g class="xaxislayer-above"><g class="x3tick"><text text-anchor="middle" x="0" y="1133" transform="translate(115,0)" style="font-family: 'Open Sans', verdana, arial, sans-serif; font-size: 12px; fill: rgb(42, 63, 95); fill-opacity: 1; white-space: pre; opacity: 1;">2.66</text></g><g class="x3tick"><text text-anchor="middle" x="0" y="1133" style="font-family: 'Open Sans', verdana, arial, sans-serif; font-size: 12px; fill: rgb(42, 63, 95); fill-opacity: 1; white-space: pre; opacity: 1;" transform="translate(176,0)">2.68</text></g><g class="x3tick"><text text-anchor="middle" x="0" y="1133" style="font-family: 'Open Sans', verdana, arial, sans-serif; font-size: 12px; fill: rgb(42, 63, 95); fill-opacity: 1; white-space: pre; opacity: 1;" transform="translate(237,0)">2.7</text></g><g class="x3tick"><text text-anchor="middle" x="0" y="1133" style="font-family: 'Open Sans', verdana, arial, sans-serif; font-size: 12px; fill: rgb(42, 63, 95); fill-opacity: 1; white-space: pre; opacity: 1;" transform="translate(298,0)">2.72</text></g><g class="x3tick"><text text-anchor="middle" x="0" y="1133" style="font-family: 'Open Sans', verdana, arial, sans-serif; font-size: 12px; fill: rgb(42, 63, 95); fill-opacity: 1; white-space: pre; opacity: 1;" transform="translate(359,0)">2.74</text></g><g class="x3tick"><text text-anchor="middle" x="0" y="1133" style="font-family: 'Open Sans', verdana, arial, sans-serif; font-size: 12px; fill: rgb(42, 63, 95); fill-opacity: 1; white-space: pre; opacity: 1;" transform="translate(420,0)">2.76</text></g></g><g class="yaxislayer-above"><g class="y3tick"><text text-anchor="end" x="114" y="4.199999999999999" transform="translate(0,1090.5800000000002)" style="font-family: 'Open Sans', verdana, arial, sans-serif; font-size: 12px; fill: rgb(42, 63, 95); fill-opacity: 1; white-space: pre; opacity: 1;">−0.3</text></g><g class="y3tick"><text text-anchor="end" x="114" y="4.199999999999999" style="font-family: 'Open Sans', verdana, arial, sans-serif; font-size: 12px; fill: rgb(42, 63, 95); fill-opacity: 1; white-space: pre; opacity: 1;" transform="translate(0,1033.7400000000002)">−0.2</text></g><g class="y3tick"><text text-anchor="end" x="114" y="4.199999999999999" style="font-family: 'Open Sans', verdana, arial, sans-serif; font-size: 12px; fill: rgb(42, 63, 95); fill-opacity: 1; white-space: pre; opacity: 1;" transform="translate(0,976.9000000000001)">−0.1</text></g><g class="y3tick"><text text-anchor="end" x="114" y="4.199999999999999" style="font-family: 'Open Sans', verdana, arial, sans-serif; font-size: 12px; fill: rgb(42, 63, 95); fill-opacity: 1; white-space: pre; opacity: 1;" transform="translate(0,920.0600000000002)">0</text></g><g class="y3tick"><text text-anchor="end" x="114" y="4.199999999999999" style="font-family: 'Open Sans', verdana, arial, sans-serif; font-size: 12px; fill: rgb(42, 63, 95); fill-opacity: 1; white-space: pre; opacity: 1;" transform="translate(0,863.2200000000001)">0.1</text></g></g><g class="overaxes-above"/></g></g><g class="polarlayer"/><g class="smithlayer"/><g class="ternarylayer"/><g class="geolayer"/><g class="funnelarealayer"/><g class="pielayer"/><g class="iciclelayer"/><g class="treemaplayer"/><g class="sunburstlayer"/><g class="glimages"/><defs id="topdefs-4d6b0e"><g class="clips"/><clipPath id="legend4d6b0e"><rect width="188" height="29" x="0" y="0"/></clipPath></defs><g class="layer-above"><g class="imagelayer"/><g class="shapelayer"/></g><g class="infolayer"><g class="legend" pointer-events="all" transform="translate(232,50.59999999999998)"><rect class="bg" shape-rendering="crispEdges" style="stroke: rgb(68, 68, 68); stroke-opacity: 1; fill: rgb(255, 255, 255); fill-opacity: 1; stroke-width: 0px;" width="188" height="29" x="0" y="0"/><g class="scrollbox" transform="" clip-path="url(#legend4d6b0e)"><g class="groups"><g class="traces" transform="translate(0,14.5)" style="opacity: 1;"><text class="legendtext" text-anchor="start" x="40" y="4.680000000000001" style="font-family: 'Open Sans', verdana, arial, sans-serif; font-size: 12px; fill: rgb(42, 63, 95); fill-opacity: 1; white-space: pre;">Population Log-likelihood</text><g class="layers" style="opacity: 1;"><g class="legendfill"/><g class="legendlines"><path class="js-line" d="M5,0h30" style="fill: none; stroke: rgb(51, 34, 136); stroke-opacity: 1; stroke-width: 2px;"/></g><g class="legendsymbols"><g class="legendpoints"/></g></g><rect class="legendtoggle" x="0" y="-9.5" width="184.703125" height="19" style="fill: rgb(0, 0, 0); fill-opacity: 0;"/></g></g></g><rect class="scrollbar" rx="20" ry="3" width="0" height="0" style="fill: rgb(128, 139, 164); fill-opacity: 1;" x="0" y="0"/></g><g class="g-gtitle"/><g class="g-xtitle"/><g class="g-x2title"/><g class="g-x3title"/><g class="g-ytitle"/><g class="g-y2title"/><g class="g-y3title"/></g></svg>