<svg class="main-svg" xmlns="http://www.w3.org/2000/svg" xmlns:xlink="http://www.w3.org/1999/xlink" width="500" height="1200" style="" viewBox="0 0 500 1200"><rect x="0" y="0" width="500" height="1200" style="fill: rgb(255, 255, 255); fill-opacity: 1;"/><defs id="defs-879f3e"><g class="clips"><clipPath id="clip879f3exyplot" class="plotclip"><rect width="340" height="272.00000000000006"/></clipPath><clipPath id="clip879f3ex2y2plot" class="plotclip"><rect width="340" height="272"/></clipPath><clipPath id="clip879f3ex3y3plot" class="plotclip"><rect width="340" height="272"/></clipPath><clipPath class="axesclip" id="clip879f3ex"><rect x="80" y="0" width="340" height="1200"/></clipPath><clipPath class="axesclip" id="clip879f3ey"><rect x="0" y="100" width="500" height="272.00000000000006"/></clipPath><clipPath class="axesclip" id="clip879f3exy"><rect x="80" y="100" width="340" height="272.00000000000006"/></clipPath><clipPath class="axesclip" id="clip879f3ey2"><rect x="0" y="474.00000000000006" width="500" height="272"/></clipPath><clipPath class="axesclip" id="clip879f3exy2"><rect x="80" y="474.00000000000006" width="340" height="272"/></clipPath><clipPath class="axesclip" id="clip879f3ey3"><rect x="0" y="848.0000000000001" width="500" height="272"/></clipPath><clipPath class="axesclip" id="clip879f3exy3"><rect x="80" y="848.0000000000001" width="340" height="272"/></clipPath><clipPath class="axesclip" id="clip879f3ex2"><rect x="80" y="0" width="340" height="1200"/></clipPath><clipPath class="axesclip" id="clip879f3ex2y"><rect x="80" y="100" width="340" height="272.00000000000006"/></clipPath><clipPath class="axesclip" id="clip879f3ex2y2"><rect x="80" y="474.00000000000006" width="340" height="272"/></clipPath><clipPath class="axesclip" id="clip879f3ex2y3"><rect x="80" y="848.0000000000001" width="340" height="272"/></clipPath><clipPath class="axesclip" id="clip879f3ex3"><rect x="80" y="0" width="340" height="1200"/></clipPath><clipPath class="axesclip" id="clip879f3ex3y"><rect x="80" y="100" width="340" height="272.00000000000006"/></clipPath><clipPath class="axesclip" id="clip879f3ex3y2"><rect x="80" y="474.00000000000006" width="340" height="272"/></clipPath><clipPath class="axesclip" id="clip879f3ex3y3"><rect x="80" y="848.0000000000001" width="340" height="272"/></clipPath></g><g class="gradients"/><g class="patterns"/></defs><g class="bglayer"/><g class="layer-below"><g class="imagelayer"/><g class="shapelayer"/></g><g class="cartesianlayer"><g class="subplot xy"><g class="layer-subplot"><g class="shapelayer"/><g class="imagelayer"/></g><g class="minor-gridlayer"><g class="x"/><g class="y"/></g><g class="gridlayer"><g class="x"><path class="xgrid crisp" transform="translate(220.15,0)" d="M0,100v272.00000000000006" style="stroke: rgb(235, 240, 248); stroke-opacity: 1; stroke-width: 1px;"/><path class="xgrid crisp" transform="translate(369.4,0)" d="M0,100v272.00000000000006" style="stroke: rgb(235, 240, 248); stroke-opacity: 1; stroke-width: 1px;"/></g><g class="y"><path class="ygrid crisp" transform="translate(0,328.61)" d="M80,0h340" style="stroke: rgb(235, 240, 248); stroke-opacity: 1; stroke-width: 1px;"/><path class="ygrid crisp" transform="translate(0,285.66999999999996)" d="M80,0h340" style="stroke: rgb(235, 240, 248); stroke-opacity: 1; stroke-width: 1px;"/><path class="ygrid crisp" transform="translate(0,242.73)" d="M80,0h340" style="stroke: rgb(235, 240, 248); stroke-opacity: 1; stroke-width: 1px;"/><path class="ygrid crisp" transform="translate(0,156.85)" d="M80,0h340" style="stroke: rgb(235, 240, 248); stroke-opacity: 1; stroke-width: 1px;"/><path class="ygrid crisp" transform="translate(0,113.91)" d="M80,0h340" style="stroke: rgb(235, 240, 248); stroke-opacity: 1; stroke-width: 1px;"/></g></g><g class="zerolinelayer"><path class="yzl zl crisp" transform="translate(0,199.79000000000002)" d="M80,0h340" style="stroke: rgb(235, 240, 248); stroke-opacity: 1; stroke-width: 2px;"/></g><path class="xlines-below"/><path class="ylines-below"/><g class="overlines-below"/><g class="xaxislayer-below"/><g class="yaxislayer-below"/><g class="overaxes-below"/><g class="plot" transform="translate(80,100)" clip-path="url(#clip879f3exyplot)"><g class="scatterlayer mlayer"><g class="trace scatter trace71c330" style="stroke-miterlimit: 2; opacity: 1;"><g class="fills"/><g class="errorbars"/><g class="lines"><path class="js-line" d="M20.75,254.92L35.83,210.8L38.84,202.53L53.92,163.93L56.93,156.76L72.01,123.64L75.02,117.56L87.08,95.06L90.1,89.88L102.16,70.99L105.17,66.71L117.23,51.4L120.25,48.02L132.31,36.27L135.33,33.78L144.37,27.36L147.39,25.57L156.43,21.27L159.45,20.19L168.49,17.99L171.51,17.6L180.55,17.5L183.57,17.81L192.61,19.79L195.63,20.8L204.67,24.86L207.69,26.55L216.73,32.67L219.75,35.05L228.8,43.22L231.81,46.29L243.87,60.25L246.89,64.16L258.95,81.5L261.96,86.26L274.02,106.97L277.04,112.56L289.1,136.61L292.11,143.04L307.19,177.66L310.2,185.08L319.25,208.32" style="vector-effect: non-scaling-stroke; fill: none; stroke: rgb(51, 34, 136); stroke-opacity: 1; stroke-width: 2px; opacity: 1;"/></g><g class="points"/><g class="text"/></g><g class="trace scatter trace5c611a" style="stroke-miterlimit: 2; opacity: 1;"><g class="fills"/><g class="errorbars"/><g class="lines"/><g class="points"><path class="point" transform="translate(20.75,254.65)" d="M-4.2,0A 5.7,5.7 0 0 1 0,4.2A 5.7,5.7 0 0 1 4.2,0A 5.7,5.7 0 0 1 0,-4.2A 5.7,5.7 0 0 1 -4.2,0Z" style="opacity: 0.5; stroke-width: 0px; fill: rgb(51, 34, 136); fill-opacity: 1;"/><path class="point" transform="translate(53.92,163.86)" d="M-4.2,0A 5.7,5.7 0 0 1 0,4.2A 5.7,5.7 0 0 1 4.2,0A 5.7,5.7 0 0 1 0,-4.2A 5.7,5.7 0 0 1 -4.2,0Z" style="opacity: 0.5; stroke-width: 0px; fill: rgb(51, 34, 136); fill-opacity: 1;"/><path class="point" transform="translate(84.11,100.35)" d="M-4.2,0A 5.7,5.7 0 0 1 0,4.2A 5.7,5.7 0 0 1 4.2,0A 5.7,5.7 0 0 1 0,-4.2A 5.7,5.7 0 0 1 -4.2,0Z" style="opacity: 0.5; stroke-width: 0px; fill: rgb(51, 34, 136); fill-opacity: 1;"/><path class="point" transform="translate(84.42,99.79)" d="M-4.2,0A 5.7,5.7 0 0 1 0,4.2A 5.7,5.7 0 0 1 4.2,0A 5.7,5.7 0 0 1 0,-4.2A 5.7,5.7 0 0 1 -4.2,0Z" style="opacity: 0.5; stroke-width: 0px; fill: rgb(51, 34, 136); fill-opacity: 1;"/><path class="point" transform="translate(87.08,95.07)" d="M-4.2,0A 5.7,5.7 0 0 1 0,4.2A 5.7,5.7 0 0 1 4.2,0A 5.7,5.7 0 0 1 0,-4.2A 5.7,5.7 0 0 1 -4.2,0Z" style="opacity: 0.5; stroke-width: 0px; fill: rgb(51, 34, 136); fill-opacity: 1;"/><path class="point" transform="translate(120.25,48.04)" d="M-4.2,0A 5.7,5.7 0 0 1 0,4.2A 5.7,5.7 0 0 1 4.2,0A 5.7,5.7 0 0 1 0,-4.2A 5.7,5.7 0 0 1 -4.2,0Z" style="opacity: 0.5; stroke-width: 0px; fill: rgb(51, 34, 136); fill-opacity: 1;"/><path class="point" transform="translate(136.94,32.55)" d="M-4.2,0A 5.7,5.7 0 0 1 0,4.2A 5.7,5.7 0 0 1 4.2,0A 5.7,5.7 0 0 1 0,-4.2A 5.7,5.7 0 0 1 -4.2,0Z" style="opacity: 0.5; stroke-width: 0px; fill: rgb(51, 34, 136); fill-opacity: 1;"/><path class="point" transform="translate(153.42,22.57)" d="M-4.2,0A 5.7,5.7 0 0 1 0,4.2A 5.7,5.7 0 0 1 4.2,0A 5.7,5.7 0 0 1 0,-4.2A 5.7,5.7 0 0 1 -4.2,0Z" style="opacity: 0.5; stroke-width: 0px; fill: rgb(51, 34, 136); fill-opacity: 1;"/><path class="point" transform="translate(176.59,17.35)" d="M-4.2,0A 5.7,5.7 0 0 1 0,4.2A 5.7,5.7 0 0 1 4.2,0A 5.7,5.7 0 0 1 0,-4.2A 5.7,5.7 0 0 1 -4.2,0Z" style="opacity: 0.5; stroke-width: 0px; fill: rgb(51, 34, 136); fill-opacity: 1;"/><path class="point" transform="translate(186.58,18.36)" d="M-4.2,0A 5.7,5.7 0 0 1 0,4.2A 5.7,5.7 0 0 1 4.2,0A 5.7,5.7 0 0 1 0,-4.2A 5.7,5.7 0 0 1 -4.2,0Z" style="opacity: 0.5; stroke-width: 0px; fill: rgb(51, 34, 136); fill-opacity: 1;"/><path class="point" transform="translate(215.64,31.92)" d="M-4.2,0A 5.7,5.7 0 0 1 0,4.2A 5.7,5.7 0 0 1 4.2,0A 5.7,5.7 0 0 1 0,-4.2A 5.7,5.7 0 0 1 -4.2,0Z" style="opacity: 0.5; stroke-width: 0px; fill: rgb(51, 34, 136); fill-opacity: 1;"/><path class="point" transform="translate(219.75,35.13)" d="M-4.2,0A 5.7,5.7 0 0 1 0,4.2A 5.7,5.7 0 0 1 4.2,0A 5.7,5.7 0 0 1 0,-4.2A 5.7,5.7 0 0 1 -4.2,0Z" style="opacity: 0.5; stroke-width: 0px; fill: rgb(51, 34, 136); fill-opacity: 1;"/><path class="point" transform="translate(252.92,72.55)" d="M-4.2,0A 5.7,5.7 0 0 1 0,4.2A 5.7,5.7 0 0 1 4.2,0A 5.7,5.7 0 0 1 0,-4.2A 5.7,5.7 0 0 1 -4.2,0Z" style="opacity: 0.5; stroke-width: 0px; fill: rgb(51, 34, 136); fill-opacity: 1;"/><path class="point" transform="translate(269.3,98.55)" d="M-4.2,0A 5.7,5.7 0 0 1 0,4.2A 5.7,5.7 0 0 1 4.2,0A 5.7,5.7 0 0 1 0,-4.2A 5.7,5.7 0 0 1 -4.2,0Z" style="opacity: 0.5; stroke-width: 0px; fill: rgb(51, 34, 136); fill-opacity: 1;"/><path class="point" transform="translate(270,99.79)" d="M-4.2,0A 5.7,5.7 0 0 1 0,4.2A 5.7,5.7 0 0 1 4.2,0A 5.7,5.7 0 0 1 0,-4.2A 5.7,5.7 0 0 1 -4.2,0Z" style="opacity: 0.5; stroke-width: 0px; fill: rgb(51, 34, 136); fill-opacity: 1;"/><path class="point" transform="translate(286.08,130.29)" d="M-4.2,0A 5.7,5.7 0 0 1 0,4.2A 5.7,5.7 0 0 1 4.2,0A 5.7,5.7 0 0 1 0,-4.2A 5.7,5.7 0 0 1 -4.2,0Z" style="opacity: 0.5; stroke-width: 0px; fill: rgb(51, 34, 136); fill-opacity: 1;"/><path class="point" transform="translate(319.25,207.93)" d="M-4.2,0A 5.7,5.7 0 0 1 0,4.2A 5.7,5.7 0 0 1 4.2,0A 5.7,5.7 0 0 1 0,-4.2A 5.7,5.7 0 0 1 -4.2,0Z" style="opacity: 0.5; stroke-width: 0px; fill: rgb(51, 34, 136); fill-opacity: 1;"/></g><g class="text"/></g></g></g><g class="overplot"/><path class="xlines-above crisp" d="M0,0" style="fill: none;"/><path class="ylines-above crisp" d="M0,0" style="fill: none;"/><g class="overlines-above"/><g class="xaxislayer-above"/><g class="yaxislayer-above"><g class="ytick"><text text-anchor="end" x="79" y="4.199999999999999" transform="translate(0,371.55)" style="font-family: 'Open Sans', verdana, arial, sans-serif; font-size: 12px; fill: rgb(42, 63, 95); fill-opacity: 1; white-space: pre; opacity: 1;">−4</text></g><g class="ytick"><text text-anchor="end" x="79" y="4.199999999999999" style="font-family: 'Open Sans', verdana, arial, sans-serif; font-size: 12px; fill: rgb(42, 63, 95); fill-opacity: 1; white-space: pre; opacity: 1;" transform="translate(0,328.61)">−3</text></g><g class="ytick"><text text-anchor="end" x="79" y="4.199999999999999" style="font-family: 'Open Sans', verdana, arial, sans-serif; font-size: 12px; fill: rgb(42, 63, 95); fill-opacity: 1; white-space: pre; opacity: 1;" transform="translate(0,285.66999999999996)">−2</text></g><g class="ytick"><text text-anchor="end" x="79" y="4.199999999999999" style="font-family: 'Open Sans', verdana, arial, sans-serif; font-size: 12px; fill: rgb(42, 63, 95); fill-opacity: 1; white-space: pre; opacity: 1;" transform="translate(0,242.73)">−1</text></g><g class="ytick"><text text-anchor="end" x="79" y="4.199999999999999" style="font-family: 'Open Sans', verdana, arial, sans-serif; font-size: 12px; fill: rgb(42, 63, 95); fill-opacity: 1; white-space: pre; opacity: 1;" transform="translate(0,199.79000000000002)">0</text></g><g class="ytick"><text text-anchor="end" x="79" y="4.199999999999999" style="font-family: 'Open Sans', verdana, arial, sans-serif; font-size: 12px; fill: rgb(42, 63, 95); fill-opacity: 1; white-space: pre; opacity: 1;" transform="translate(0,156.85)">1</text></g><g class="ytick"><text text-anchor="end" x="79" y="4.199999999999999" style="font-family: 'Open Sans', verdana, arial, sans-serif; font-size: 12px; fill: rgb(42, 63, 95); fill-opacity: 1; white-space: pre; opacity: 1;" transform="translate(0,113.91)">2</text></g></g><g class="overaxes-above"/></g><g class="subplot x2y2"><g class="layer-subplot"><g class="shapelayer"/><g class="imagelayer"/></g><g class="minor-gridlayer"><g class="x2"/><g class="y2"/></g><g class="gridlayer"><g class="x2"><path class="x2grid crisp" transform="translate(220.15,0)" d="M0,474.00000000000006v272" style="stroke: rgb(235, 240, 248); stroke-opacity: 1; stroke-width: 1px;"/><path class="x2grid crisp" transform="translate(369.4,0)" d="M0,474.00000000000006v272" style="stroke: rgb(235, 240, 248); stroke-opacity: 1; stroke-width: 1px;"/></g><g class="y2"><path class="y2grid crisp" transform="translate(0,721.47)" d="M80,0h340" style="stroke: rgb(235, 240, 248); stroke-opacity: 1; stroke-width: 1px;"/><path class="y2grid crisp" transform="translate(0,669.84)" d="M80,0h340" style="stroke: rgb(235, 240, 248); stroke-opacity: 1; stroke-width: 1px;"/><path class="y2grid crisp" transform="translate(0,618.21)" d="M80,0h340" style="stroke: rgb(235, 240, 248); stroke-opacity: 1; stroke-width: 1px;"/><path class="y2grid crisp" transform="translate(0,566.57)" d="M80,0h340" style="stroke: rgb(235, 240, 248); stroke-opacity: 1; stroke-width: 1px;"/><path class="y2grid crisp" transform="translate(0,514.94)" d="M80,0h340" style="stroke: rgb(235, 240, 248); stroke-opacity: 1; stroke-width: 1px;"/></g></g><g class="zerolinelayer"/><path class="xlines-below"/><path class="ylines-below"/><g class="overlines-below"/><g class="xaxislayer-below"/><g class="yaxislayer-below"/><g class="overaxes-below"/><g class="plot" transform="translate(80,474.00000000000006)" clip-path="url(#clip879f3ex2y2plot)"><g class="scatterlayer mlayer"><g class="trace scatter tracece0601" style="stroke-miterlimit: 2; opacity: 1;"><g class="fills"/><g class="errorbars"/><g class="lines"><path class="js-line" d="M23.77,258.4L316.23,13.6" style="vector-effect: non-scaling-stroke; fill: none; stroke: rgb(51, 34, 136); stroke-opacity: 1; stroke-width: 2px; opacity: 1;"/></g><g class="points"/><g class="text"/></g></g></g><g class="overplot"/><path class="xlines-above crisp" d="M0,0" style="fill: none;"/><path class="ylines-above crisp" d="M0,0" style="fill: none;"/><g class="overlines-above"/><g class="xaxislayer-above"/><g class="yaxislayer-above"><g class="y2tick"><text text-anchor="end" x="79" y="4.199999999999999" transform="translate(0,721.47)" style="font-family: 'Open Sans', verdana, arial, sans-serif; font-size: 12px; fill: rgb(42, 63, 95); fill-opacity: 1; white-space: pre; opacity: 1;">−4200</text></g><g class="y2tick"><text text-anchor="end" x="79" y="4.199999999999999" style="font-family: 'Open Sans', verdana, arial, sans-serif; font-size: 12px; fill: rgb(42, 63, 95); fill-opacity: 1; white-space: pre; opacity: 1;" transform="translate(0,669.84)">−4100</text></g><g class="y2tick"><text text-anchor="end" x="79" y="4.199999999999999" style="font-family: 'Open Sans', verdana, arial, sans-serif; font-size: 12px; fill: rgb(42, 63, 95); fill-opacity: 1; white-space: pre; opacity: 1;" transform="translate(0,618.21)">−4000</text></g><g class="y2tick"><text text-anchor="end" x="79" y="4.199999999999999" style="font-family: 'Open Sans', verdana, arial, sans-serif; font-size: 12px; fill: rgb(42, 63, 95); fill-opacity: 1; white-space: pre; opacity: 1;" transform="translate(0,566.57)">−3900</text></g><g class="y2tick"><text text-anchor="end" x="79" y="4.199999999999999" style="font-family: 'Open Sans', verdana, arial, sans-serif; font-size: 12px; fill: rgb(42, 63, 95); fill-opacity: 1; white-space: pre; opacity: 1;" transform="translate(0,514.94)">−3800</text></g></g><g class="overaxes-above"/></g><g class="subplot x3y3"><g class="layer-subplot"><g class="shapelayer"/><g class="imagelayer"/></g><g class="minor-gridlayer"><g class="x3"/><g class="y3"/></g><g class="gridlayer"><g class="x3"><path class="x3grid crisp" transform="translate(220.15,0)" d="M0,848.0000000000001v272" style="stroke: rgb(235, 240, 248); stroke-opacity: 1; stroke-width: 1px;"/><path class="x3grid crisp" transform="translate(369.4,0)" d="M0,848.0000000000001v272" style="stroke: rgb(235, 240, 248); stroke-opacity: 1; stroke-width: 1px;"/></g><g class="y3"><path class="y3grid crisp" transform="translate(0,1095.96)" d="M80,0h340" style="stroke: rgb(235, 240, 248); stroke-opacity: 1; stroke-width: 1px;"/><path class="y3grid crisp" transform="translate(0,1034.73)" d="M80,0h340" style="stroke: rgb(235, 240, 248); stroke-opacity: 1; stroke-width: 1px;"/><path class="y3grid crisp" transform="translate(0,912.2900000000001)" d="M80,0h340" style="stroke: rgb(235, 240, 248); stroke-opacity: 1; stroke-width: 1px;"/><path class="y3grid crisp" transform="translate(0,851.0600000000001)" d="M80,0h340" style="stroke: rgb(235, 240, 248); stroke-opacity: 1; stroke-width: 1px;"/></g></g><g class="zerolinelayer"><path class="y3zl zl crisp" transform="translate(0,973.5100000000001)" d="M80,0h340" style="stroke: rgb(235, 240, 248); stroke-opacity: 1; stroke-width: 2px;"/></g><path class="xlines-below"/><path class="ylines-below"/><g class="overlines-below"/><g class="xaxislayer-below"/><g class="yaxislayer-below"/><g class="overaxes-below"/><g class="plot" transform="translate(80,848.0000000000001)" clip-path="url(#clip879f3ex3y3plot)"><g class="scatterlayer mlayer"><g class="trace scatter trace2e2bc0" style="stroke-miterlimit: 2; opacity: 1;"><g class="fills"/><g class="errorbars"/><g class="lines"><path class="js-line" d="M20.75,212.32L165.48,131.6L168.49,130.01L222.77,99.69L225.78,98.04L319.25,46.87" style="vector-effect: non-scaling-stroke; fill: none; stroke: rgb(68, 1, 84); stroke-opacity: 1; stroke-width: 1px; opacity: 1;"/></g><g class="points"/><g class="text"/></g><g class="trace scatter traced7da47" style="stroke-miterlimit: 2; opacity: 1;"><g class="fills"/><g class="errorbars"/><g class="lines"><path class="js-line" d="M20.75,208.31L271.01,75.03L274.02,73.26L319.25,49.3" style="vector-effect: non-scaling-stroke; fill: none; stroke: rgb(69, 7, 90); stroke-opacity: 1; stroke-width: 1px; opacity: 1;"/></g><g class="points"/><g class="text"/></g><g class="trace scatter trace831986" style="stroke-miterlimit: 2; opacity: 1;"><g class="fills"/><g class="errorbars"/><g class="lines"><path class="js-line" d="M20.75,221.48L56.93,198.95L59.95,196.99L81.05,183.79L84.07,182.22L183.57,121.22L186.58,119.36L313.22,42.65L316.23,40.88L319.25,39.11" style="vector-effect: non-scaling-stroke; fill: none; stroke: rgb(69, 14, 96); stroke-opacity: 1; stroke-width: 1px; opacity: 1;"/></g><g class="points"/><g class="text"/></g><g class="trace scatter traceca746f" style="stroke-miterlimit: 2; opacity: 1;"><g class="fills"/><g class="errorbars"/><g class="lines"><path class="js-line" d="M20.75,250.79L47.89,228.77L50.9,226.22L78.04,203.19L81.05,201.14L87.08,197.04L90.1,194.61L138.34,156.52L141.36,154.21L159.45,139.71L162.46,137.05L174.52,126.96L177.54,124.88L195.63,113.03L198.64,110.69L222.77,91.97L225.78,89.74L319.25,21.05" style="vector-effect: non-scaling-stroke; fill: none; stroke: rgb(70, 20, 101); stroke-opacity: 1; stroke-width: 1px; opacity: 1;"/></g><g class="points"/><g class="text"/></g><g class="trace scatter tracecb18af" style="stroke-miterlimit: 2; opacity: 1;"><g class="fills"/><g class="errorbars"/><g class="lines"><path class="js-line" d="M20.75,181.15L102.16,152.07L105.17,151L240.86,102.58L243.87,101.5L319.25,74.47" style="vector-effect: non-scaling-stroke; fill: none; stroke: rgb(71, 26, 107); stroke-opacity: 1; stroke-width: 1px; opacity: 1;"/></g><g class="points"/><g class="text"/></g><g class="trace scatter trace77b39d" style="stroke-miterlimit: 2; opacity: 1;"><g class="fills"/><g class="errorbars"/><g class="lines"><path class="js-line" d="M20.75,205.51L153.42,137.46L156.43,135.9L319.25,52.61" style="vector-effect: non-scaling-stroke; fill: none; stroke: rgb(71, 32, 113); stroke-opacity: 1; stroke-width: 1px; opacity: 1;"/></g><g class="points"/><g class="text"/></g><g class="trace scatter tracef90834" style="stroke-miterlimit: 2; opacity: 1;"><g class="fills"/><g class="errorbars"/><g class="lines"><path class="js-line" d="M20.75,187.19L68.99,167.88L72.01,166.64L319.25,68.66" style="vector-effect: non-scaling-stroke; fill: none; stroke: rgb(72, 39, 119); stroke-opacity: 1; stroke-width: 1px; opacity: 1;"/></g><g class="points"/><g class="text"/></g><g class="trace scatter traceec3273" style="stroke-miterlimit: 2; opacity: 1;"><g class="fills"/><g class="errorbars"/><g class="lines"><path class="js-line" d="M20.75,218.21L59.95,194.5L62.96,192.6L81.05,181.72L84.07,180.17L319.25,42.77" style="vector-effect: non-scaling-stroke; fill: none; stroke: rgb(71, 44, 122); stroke-opacity: 1; stroke-width: 1px; opacity: 1;"/></g><g class="points"/><g class="text"/></g><g class="trace scatter tracea87662" style="stroke-miterlimit: 2; opacity: 1;"><g class="fills"/><g class="errorbars"/><g class="lines"><path class="js-line" d="M20.75,189.15L72.01,167.99L75.02,166.77L141.36,139.95L144.37,138.72L319.25,66.94" style="vector-effect: non-scaling-stroke; fill: none; stroke: rgb(69, 49, 125); stroke-opacity: 1; stroke-width: 1px; opacity: 1;"/></g><g class="points"/><g class="text"/></g><g class="trace scatter trace65e7fc" style="stroke-miterlimit: 2; opacity: 1;"><g class="fills"/><g class="errorbars"/><g class="lines"><path class="js-line" d="M20.75,184.8L96.13,156.08L99.14,154.92L292.11,81.29L295.13,80.12L319.25,70.93" style="vector-effect: non-scaling-stroke; fill: none; stroke: rgb(68, 55, 128); stroke-opacity: 1; stroke-width: 1px; opacity: 1;"/></g><g class="points"/><g class="text"/></g><g class="trace scatter trace352c46" style="stroke-miterlimit: 2; opacity: 1;"><g class="fills"/><g class="errorbars"/><g class="lines"><path class="js-line" d="M20.75,173.71L180.55,124.27L183.57,123.32L319.25,81.22" style="vector-effect: non-scaling-stroke; fill: none; stroke: rgb(66, 60, 130); stroke-opacity: 1; stroke-width: 1px; opacity: 1;"/></g><g class="points"/><g class="text"/></g><g class="trace scatter tracec970a1" style="stroke-miterlimit: 2; opacity: 1;"><g class="fills"/><g class="errorbars"/><g class="lines"><path class="js-line" d="M20.75,187.37L96.13,157.39L99.14,156.19L319.25,68.41" style="vector-effect: non-scaling-stroke; fill: none; stroke: rgb(64, 65, 133); stroke-opacity: 1; stroke-width: 1px; opacity: 1;"/></g><g class="points"/><g class="text"/></g><g class="trace scatter traced74762" style="stroke-miterlimit: 2; opacity: 1;"><g class="fills"/><g class="errorbars"/><g class="lines"><path class="js-line" d="M20.75,207.19L62.96,184.78L65.98,183.11L84.07,173.86L87.08,172.31L138.34,145.45L141.36,143.87L310.2,56.05L313.22,54.52L319.25,51.46" style="vector-effect: non-scaling-stroke; fill: none; stroke: rgb(63, 71, 136); stroke-opacity: 1; stroke-width: 1px; opacity: 1;"/></g><g class="points"/><g class="text"/></g><g class="trace scatter traceb05c71" style="stroke-miterlimit: 2; opacity: 1;"><g class="fills"/><g class="errorbars"/><g class="lines"><path class="js-line" d="M20.75,208.04L44.87,195.55L47.89,193.86L78.04,176.47L81.05,175.27L87.08,172.76L90.1,170.99L108.19,161.35L111.2,159.81L177.54,124.99L180.55,123.29L207.69,108.57L210.7,107L319.25,49.46" style="vector-effect: non-scaling-stroke; fill: none; stroke: rgb(61, 76, 137); stroke-opacity: 1; stroke-width: 1px; opacity: 1;"/></g><g class="points"/><g class="text"/></g><g class="trace scatter trace0608e8" style="stroke-miterlimit: 2; opacity: 1;"><g class="fills"/><g class="errorbars"/><g class="lines"><path class="js-line" d="M20.75,206.57L62.96,184.38L65.98,182.73L87.08,172.01L90.1,170.41L150.4,139.2L153.42,137.63L234.83,95.68L237.84,94.14L319.25,52.34" style="vector-effect: non-scaling-stroke; fill: none; stroke: rgb(59, 81, 138); stroke-opacity: 1; stroke-width: 1px; opacity: 1;"/></g><g class="points"/><g class="text"/></g><g class="trace scatter trace0b5d97" style="stroke-miterlimit: 2; opacity: 1;"><g class="fills"/><g class="errorbars"/><g class="lines"><path class="js-line" d="M20.75,207.86L319.25,50.06" style="vector-effect: non-scaling-stroke; fill: none; stroke: rgb(45, 114, 142); stroke-opacity: 1; stroke-width: 1px; opacity: 1;"/></g><g class="points"/><g class="text"/></g><g class="trace scatter trace54e685" style="stroke-miterlimit: 2; opacity: 1;"><g class="fills"/><g class="errorbars"/><g class="lines"><path class="js-line" d="M20.75,222.86L56.93,199.97L59.95,197.98L81.05,184.59L84.07,183L165.48,132.37L168.49,130.51L319.25,38.21" style="vector-effect: non-scaling-stroke; fill: none; stroke: rgb(43, 118, 142); stroke-opacity: 1; stroke-width: 1px; opacity: 1;"/></g><g class="points"/><g class="text"/></g><g class="trace scatter tracedf6a2b" style="stroke-miterlimit: 2; opacity: 1;"><g class="fills"/><g class="errorbars"/><g class="lines"><path class="js-line" d="M20.75,251.4L56.93,221.24L59.95,218.64L81.05,201.08L84.07,198.94L162.46,136.19L165.48,134.13L177.54,124.68L180.55,121.93L195.63,108.59L198.64,106.21L252.92,64.37L255.93,61.92L267.99,52.47L271.01,50.52L280.05,43.69L283.07,41.26L310.2,20.24L313.22,18.01L319.25,13.6" style="vector-effect: non-scaling-stroke; fill: none; stroke: rgb(41, 122, 142); stroke-opacity: 1; stroke-width: 1px; opacity: 1;"/></g><g class="points"/><g class="text"/></g><g class="trace scatter tracea02407" style="stroke-miterlimit: 2; opacity: 1;"><g class="fills"/><g class="errorbars"/><g class="lines"><path class="js-line" d="M20.75,182.35L93.11,155.92L96.13,154.81L319.25,73.26" style="vector-effect: non-scaling-stroke; fill: none; stroke: rgb(40, 126, 142); stroke-opacity: 1; stroke-width: 1px; opacity: 1;"/></g><g class="points"/><g class="text"/></g><g class="trace scatter trace6db820" style="stroke-miterlimit: 2; opacity: 1;"><g class="fills"/><g class="errorbars"/><g class="lines"><path class="js-line" d="M20.75,205.57L319.25,51.79" style="vector-effect: non-scaling-stroke; fill: none; stroke: rgb(38, 130, 142); stroke-opacity: 1; stroke-width: 1px; opacity: 1;"/></g><g class="points"/><g class="text"/></g><g class="trace scatter traceba1293" style="stroke-miterlimit: 2; opacity: 1;"><g class="fills"/><g class="errorbars"/><g class="lines"><path class="js-line" d="M20.75,186.34L102.16,154.54L105.17,153.37L228.8,105.1L231.81,103.92L319.25,69.58" style="vector-effect: non-scaling-stroke; fill: none; stroke: rgb(37, 135, 141); stroke-opacity: 1; stroke-width: 1px; opacity: 1;"/></g><g class="points"/><g class="text"/></g><g class="trace scatter trace385fe7" style="stroke-miterlimit: 2; opacity: 1;"><g class="fills"/><g class="errorbars"/><g class="lines"><path class="js-line" d="M20.75,216.75L59.95,193.41L62.96,191.55L84.07,179.32L87.08,177.58L132.31,151.16L135.33,149.4L271.01,71.36L274.02,69.71L319.25,43.96" style="vector-effect: non-scaling-stroke; fill: none; stroke: rgb(36, 140, 140); stroke-opacity: 1; stroke-width: 1px; opacity: 1;"/></g><g class="points"/><g class="text"/></g><g class="trace scatter trace500bc9" style="stroke-miterlimit: 2; opacity: 1;"><g class="fills"/><g class="errorbars"/><g class="lines"><path class="js-line" d="M20.75,187.68L108.19,152.72L111.2,151.52L234.83,102L237.84,100.8L319.25,67.99" style="vector-effect: non-scaling-stroke; fill: none; stroke: rgb(34, 144, 140); stroke-opacity: 1; stroke-width: 1px; opacity: 1;"/></g><g class="points"/><g class="text"/></g><g class="trace scatter tracef5dfdb" style="stroke-miterlimit: 2; opacity: 1;"><g class="fills"/><g class="errorbars"/><g class="lines"><path class="js-line" d="M20.75,186.9L65.98,168.95L68.99,167.7L123.27,146.57L126.28,145.38L319.25,69.18" style="vector-effect: non-scaling-stroke; fill: none; stroke: rgb(33, 148, 139); stroke-opacity: 1; stroke-width: 1px; opacity: 1;"/></g><g class="points"/><g class="text"/></g><g class="trace scatter tracece1a93" style="stroke-miterlimit: 2; opacity: 1;"><g class="fills"/><g class="errorbars"/><g class="lines"><path class="js-line" d="M20.75,174.11L129.3,140.27L132.31,139.32L319.25,80.87" style="vector-effect: non-scaling-stroke; fill: none; stroke: rgb(32, 153, 138); stroke-opacity: 1; stroke-width: 1px; opacity: 1;"/></g><g class="points"/><g class="text"/></g><g class="trace scatter trace8ac636" style="stroke-miterlimit: 2; opacity: 1;"><g class="fills"/><g class="errorbars"/><g class="lines"><path class="js-line" d="M20.75,188.83L65.98,170.3L68.99,169.01L117.23,149.67L120.25,148.45L319.25,67.27" style="vector-effect: non-scaling-stroke; fill: none; stroke: rgb(31, 158, 137); stroke-opacity: 1; stroke-width: 1px; opacity: 1;"/></g><g class="points"/><g class="text"/></g><g class="trace scatter tracec92c65" style="stroke-miterlimit: 2; opacity: 1;"><g class="fills"/><g class="errorbars"/><g class="lines"><path class="js-line" d="M20.75,205.65L59.95,185.29L62.96,183.66L84.07,172.94L87.08,171.42L138.34,145.09L141.36,143.54L319.25,52.84" style="vector-effect: non-scaling-stroke; fill: none; stroke: rgb(34, 162, 135); stroke-opacity: 1; stroke-width: 1px; opacity: 1;"/></g><g class="points"/><g class="text"/></g><g class="trace scatter tracee4bce1" style="stroke-miterlimit: 2; opacity: 1;"><g class="fills"/><g class="errorbars"/><g class="lines"><path class="js-line" d="M20.75,205.87L59.95,185.5L62.96,183.87L84.07,173.14L87.08,171.62L135.33,146.73L138.34,145.17L319.25,51.93" style="vector-effect: non-scaling-stroke; fill: none; stroke: rgb(38, 166, 132); stroke-opacity: 1; stroke-width: 1px; opacity: 1;"/></g><g class="points"/><g class="text"/></g><g class="trace scatter trace18cc71" style="stroke-miterlimit: 2; opacity: 1;"><g class="fills"/><g class="errorbars"/><g class="lines"><path class="js-line" d="M20.75,206.18L68.99,180.9L72.01,179.29L213.72,106.68L216.73,105.14L319.25,52.86" style="vector-effect: non-scaling-stroke; fill: none; stroke: rgb(41, 170, 130); stroke-opacity: 1; stroke-width: 1px; opacity: 1;"/></g><g class="points"/><g class="text"/></g><g class="trace scatter trace44dfb9" style="stroke-miterlimit: 2; opacity: 1;"><g class="fills"/><g class="errorbars"/><g class="lines"><path class="js-line" d="M20.75,79.42L35.83,83.37L38.84,84.34L53.92,90.1L56.93,91.43L75.02,99.62L78.04,100.05L87.08,100.16L90.1,101.4L102.16,105.25L105.17,105.96L135.33,113.76L138.34,114.57L162.46,121.48L165.48,122.53L177.54,125.68L180.55,126.14L192.61,128.12L195.63,128.83L222.77,135.37L225.78,135.95L249.9,141.16L252.92,142.02L264.98,145.55L267.99,145.71L274.02,145.56L277.04,146.1L295.13,150.9L298.14,151.54L316.23,154.44L319.25,154.76" style="vector-effect: non-scaling-stroke; fill: none; stroke: rgb(45, 174, 127); stroke-opacity: 1; stroke-width: 1px; opacity: 1;"/></g><g class="points"/><g class="text"/></g><g class="trace scatter trace93f7c1" style="stroke-miterlimit: 2; opacity: 1;"><g class="fills"/><g class="errorbars"/><g class="lines"><path class="js-line" d="M20.75,221.82L59.95,197.21L62.96,195.24L81.05,183.94L84.07,182.31L319.25,38.58" style="vector-effect: non-scaling-stroke; fill: none; stroke: rgb(96, 200, 96); stroke-opacity: 1; stroke-width: 1px; opacity: 1;"/></g><g class="points"/><g class="text"/></g><g class="trace scatter traceb9348c" style="stroke-miterlimit: 2; opacity: 1;"><g class="fills"/><g class="errorbars"/><g class="lines"><path class="js-line" d="M20.75,258.4L50.9,232.53L53.92,229.84L81.05,206.1L84.07,203.95L159.45,140.46L162.46,137.68L174.52,127.08L177.54,124.82L198.64,109.28L201.66,106.7L222.77,89.41L225.78,87.02L310.2,20.42L313.22,18.13L319.25,13.6" style="vector-effect: non-scaling-stroke; fill: none; stroke: rgb(105, 204, 91); stroke-opacity: 1; stroke-width: 1px; opacity: 1;"/></g><g class="points"/><g class="text"/></g><g class="trace scatter traceae0c1a" style="stroke-miterlimit: 2; opacity: 1;"><g class="fills"/><g class="errorbars"/><g class="lines"><path class="js-line" d="M20.75,180.36L68.99,163.17L72.01,162.07L319.25,75.05" style="vector-effect: non-scaling-stroke; fill: none; stroke: rgb(115, 207, 85); stroke-opacity: 1; stroke-width: 1px; opacity: 1;"/></g><g class="points"/><g class="text"/></g><g class="trace scatter trace2227d7" style="stroke-miterlimit: 2; opacity: 1;"><g class="fills"/><g class="errorbars"/><g class="lines"><path class="js-line" d="M20.75,205.75L319.25,52.73" style="vector-effect: non-scaling-stroke; fill: none; stroke: rgb(126, 210, 78); stroke-opacity: 1; stroke-width: 1px; opacity: 1;"/></g><g class="points"/><g class="text"/></g><g class="trace scatter traced1b7de" style="stroke-miterlimit: 2; opacity: 1;"><g class="fills"/><g class="errorbars"/><g class="lines"><path class="js-line" d="M20.75,186.02L72.01,165.9L75.02,164.73L138.34,140.38L141.36,139.21L319.25,69.79" style="vector-effect: non-scaling-stroke; fill: none; stroke: rgb(138, 212, 70); stroke-opacity: 1; stroke-width: 1px; opacity: 1;"/></g><g class="points"/><g class="text"/></g><g class="trace scatter trace3d9f92" style="stroke-miterlimit: 2; opacity: 1;"><g class="fills"/><g class="errorbars"/><g class="lines"><path class="js-line" d="M20.75,215.29L59.95,192.28L62.96,190.43L81.05,179.89L84.07,178.39L319.25,44.62" style="vector-effect: non-scaling-stroke; fill: none; stroke: rgb(149, 215, 63); stroke-opacity: 1; stroke-width: 1px; opacity: 1;"/></g><g class="points"/><g class="text"/></g><g class="trace scatter trace69233b" style="stroke-miterlimit: 2; opacity: 1;"><g class="fills"/><g class="errorbars"/><g class="lines"><path class="js-line" d="M20.75,187.8L105.17,154.01L108.19,152.82L319.25,68.1" style="vector-effect: non-scaling-stroke; fill: none; stroke: rgb(161, 217, 56); stroke-opacity: 1; stroke-width: 1px; opacity: 1;"/></g><g class="points"/><g class="text"/></g><g class="trace scatter trace051e2b" style="stroke-miterlimit: 2; opacity: 1;"><g class="fills"/><g class="errorbars"/><g class="lines"><path class="js-line" d="M20.75,186.08L68.99,167.13L72.01,165.92L319.25,69.8" style="vector-effect: non-scaling-stroke; fill: none; stroke: rgb(172, 220, 49); stroke-opacity: 1; stroke-width: 1px; opacity: 1;"/></g><g class="points"/><g class="text"/></g><g class="trace scatter tracef05c5d" style="stroke-miterlimit: 2; opacity: 1;"><g class="fills"/><g class="errorbars"/><g class="lines"><path class="js-line" d="M20.75,173.99L147.39,134.63L150.4,133.69L319.25,81.06" style="vector-effect: non-scaling-stroke; fill: none; stroke: rgb(184, 222, 43); stroke-opacity: 1; stroke-width: 1px; opacity: 1;"/></g><g class="points"/><g class="text"/></g><g class="trace scatter trace9d30d8" style="stroke-miterlimit: 2; opacity: 1;"><g class="fills"/><g class="errorbars"/><g class="lines"><path class="js-line" d="M20.75,188.36L26.78,193.98L29.8,195.45L32.81,196.02L35.83,195.7L38.84,194.49L41.86,192.38L47.89,185.48L50.9,180.69L56.93,168.43L59.95,160.95L65.98,143.32L68.99,133.17L72.01,125.73L75.02,124.72L78.04,130.14L81.05,141.98L84.07,160.24L87.08,161.63L93.11,150.08L96.13,146.73L99.14,145.01L102.16,144.9L111.2,148.09L114.22,148.5L120.25,148.24L123.27,147.55L132.31,143.63L135.33,142.22L156.43,133.64L159.45,132.44L258.95,92.02L261.96,90.76L319.25,67.6" style="vector-effect: non-scaling-stroke; fill: none; stroke: rgb(195, 224, 42); stroke-opacity: 1; stroke-width: 1px; opacity: 1;"/></g><g class="points"/><g class="text"/></g><g class="trace scatter tracebe074d" style="stroke-miterlimit: 2; opacity: 1;"><g class="fills"/><g class="errorbars"/><g class="lines"><path class="js-line" d="M20.75,206.82L62.96,184.51L65.98,182.85L84.07,173.66L87.08,172.12L129.3,150.15L132.31,148.58L319.25,52.01" style="vector-effect: non-scaling-stroke; fill: none; stroke: rgb(207, 225, 41); stroke-opacity: 1; stroke-width: 1px; opacity: 1;"/></g><g class="points"/><g class="text"/></g><g class="trace scatter tracefbece2" style="stroke-miterlimit: 2; opacity: 1;"><g class="fills"/><g class="errorbars"/><g class="lines"><path class="js-line" d="M20.75,208.66L59.95,187.59L62.96,185.9L84.07,174.8L87.08,173.23L141.36,144.22L144.37,142.61L319.25,49.36" style="vector-effect: non-scaling-stroke; fill: none; stroke: rgb(218, 227, 40); stroke-opacity: 1; stroke-width: 1px; opacity: 1;"/></g><g class="points"/><g class="text"/></g><g class="trace scatter trace579d39" style="stroke-miterlimit: 2; opacity: 1;"><g class="fills"/><g class="errorbars"/><g class="lines"><path class="js-line" d="M20.75,207.38L62.96,184.88L65.98,183.21L105.17,162.03L108.19,160.67L129.3,150.21L132.31,148.61L219.75,102.8L222.77,101.24L319.25,51.1" style="vector-effect: non-scaling-stroke; fill: none; stroke: rgb(230, 228, 39); stroke-opacity: 1; stroke-width: 1px; opacity: 1;"/></g><g class="points"/><g class="text"/></g><g class="trace scatter tracea60a25" style="stroke-miterlimit: 2; opacity: 1;"><g class="fills"/><g class="errorbars"/><g class="lines"><path class="js-line" d="M20.75,77.25L35.83,81.48L38.84,82.53L53.92,88.87L56.93,90.35L75.02,99.49L78.04,99.94L84.07,99.2L87.08,99.93L99.14,104.72L102.16,105.6L129.3,113.1L132.31,114.02L159.45,121.66L162.46,122.19L171.51,123.89L174.52,124.79L186.58,129.81L189.6,130.98L201.66,134.55L204.67,135.23L249.9,146.02L252.92,146.94L264.98,150.7L267.99,151.01L274.02,151.22L277.04,151.86L298.14,157.8L301.16,158.49L319.25,161.75" style="vector-effect: non-scaling-stroke; fill: none; stroke: rgb(241, 230, 38); stroke-opacity: 1; stroke-width: 1px; opacity: 1;"/></g><g class="points"/><g class="text"/></g><g class="trace scatter trace868835" style="stroke-miterlimit: 2; opacity: 1;"><g class="fills"/><g class="errorbars"/><g class="lines"><path class="js-line" d="M20.75,188.24L68.99,168.62L72.01,167.36L319.25,67.82" style="vector-effect: non-scaling-stroke; fill: none; stroke: rgb(253, 231, 37); stroke-opacity: 1; stroke-width: 1px; opacity: 1;"/></g><g class="points"/><g class="text"/></g><g class="trace scatter trace8631e8" style="stroke-miterlimit: 2; opacity: 1;"><g class="fills"/><g class="errorbars"/><g class="lines"><path class="js-line" d="M20.75,199.02L41.86,189.42L44.87,187.92L65.98,176.55L68.99,174.79L78.04,170.51L81.05,169.55L87.08,167.47L90.1,165.85L108.19,157.25L111.2,155.89L177.54,125.04L180.55,123.5L201.66,113.11L204.67,111.73L289.1,72.08L292.11,70.64L319.25,57.95" style="vector-effect: non-scaling-stroke; fill: none; stroke: rgb(169, 169, 169); stroke-opacity: 1; stroke-width: 2px; opacity: 1;"/></g><g class="points"/><g class="text"/></g></g></g><g class="overplot"/><path class="xlines-above crisp" d="M0,0" style="fill: none;"/><path class="ylines-above crisp" d="M0,0" style="fill: none;"/><g class="overlines-above"/><g class="xaxislayer-above"><g class="x3tick"><text text-anchor="middle" x="0" y="1133" transform="translate(220.15,0)" style="font-family: 'Open Sans', verdana, arial, sans-serif; font-size: 12px; fill: rgb(42, 63, 95); fill-opacity: 1; white-space: pre; opacity: 1;">2.7</text></g><g class="x3tick"><text text-anchor="middle" x="0" y="1133" style="font-family: 'Open Sans', verdana, arial, sans-serif; font-size: 12px; fill: rgb(42, 63, 95); fill-opacity: 1; white-space: pre; opacity: 1;" transform="translate(369.4,0)">2.75</text></g></g><g class="yaxislayer-above"><g class="y3tick"><text text-anchor="end" x="79" y="4.199999999999999" transform="translate(0,1095.96)" style="font-family: 'Open Sans', verdana, arial, sans-serif; font-size: 12px; fill: rgb(42, 63, 95); fill-opacity: 1; white-space: pre; opacity: 1;">−0.2</text></g><g class="y3tick"><text text-anchor="end" x="79" y="4.199999999999999" style="font-family: 'Open Sans', verdana, arial, sans-serif; font-size: 12px; fill: rgb(42, 63, 95); fill-opacity: 1; white-space: pre; opacity: 1;" transform="translate(0,1034.73)">−0.1</text></g><g class="y3tick"><text text-anchor="end" x="79" y="4.199999999999999" style="font-family: 'Open Sans', verdana, arial, sans-serif; font-size: 12px; fill: rgb(42, 63, 95); fill-opacity: 1; white-space: pre; opacity: 1;" transform="translate(0,973.5100000000001)">0</text></g><g class="y3tick"><text text-anchor="end" x="79" y="4.199999999999999" style="font-family: 'Open Sans', verdana, arial, sans-serif; font-size: 12px; fill: rgb(42, 63, 95); fill-opacity: 1; white-space: pre; opacity: 1;" transform="translate(0,912.2900000000001)">0.1</text></g><g class="y3tick"><text text-anchor="end" x="79" y="4.199999999999999" style="font-family: 'Open Sans', verdana, arial, sans-serif; font-size: 12px; fill: rgb(42, 63, 95); fill-opacity: 1; white-space: pre; opacity: 1;" transform="translate(0,851.0600000000001)">0.2</text></g></g><g class="overaxes-above"/></g></g><g class="polarlayer"/><g class="smithlayer"/><g class="ternarylayer"/><g class="geolayer"/><g class="funnelarealayer"/><g class="pielayer"/><g class="iciclelayer"/><g class="treemaplayer"/><g class="sunburstlayer"/><g class="glimages"/><defs id="topdefs-879f3e"><g class="clips"/><clipPath id="legend879f3e"><rect width="315" height="29" x="0" y="0"/></clipPath></defs><g class="layer-above"><g class="imagelayer"/><g class="shapelayer"/></g><g class="infolayer"><g class="legend" pointer-events="all" transform="translate(105,50.59999999999998)"><rect class="bg" shape-rendering="crispEdges" width="315" height="29" x="0" y="0" style="stroke: rgb(68, 68, 68); stroke-opacity: 1; fill: rgb(255, 255, 255); fill-opacity: 1; stroke-width: 0px;"/><g class="scrollbox" transform="" clip-path="url(#legend879f3e)"><g class="groups"><g class="traces" transform="translate(0,14.5)" style="opacity: 1;"><text class="legendtext" text-anchor="start" x="40" y="4.680000000000001" style="font-family: 'Open Sans', verdana, arial, sans-serif; font-size: 12px; fill: rgb(42, 63, 95); fill-opacity: 1; white-space: pre;">Population Log-likelihood</text><g class="layers" style="opacity: 1;"><g class="legendfill"/><g class="legendlines"><path class="js-line" d="M5,0h30" style="fill: none; stroke: rgb(51, 34, 136); stroke-opacity: 1; stroke-width: 2px;"/></g><g class="legendsymbols"><g class="legendpoints"/></g></g><rect class="legendtoggle" x="0" y="-9.5" width="184.703125" height="19" style="fill: rgb(0, 0, 0); fill-opacity: 0;"/></g><g class="traces" transform="translate(187.203125,14.5)" style="opacity: 1;"><text class="legendtext" text-anchor="start" x="40" y="4.680000000000001" style="font-family: 'Open Sans', verdana, arial, sans-serif; font-size: 12px; fill: rgb(42, 63, 95); fill-opacity: 1; white-space: pre;">Estimates of CI</text><g class="layers" style="opacity: 1;"><g class="legendfill"/><g class="legendlines"/><g class="legendsymbols"><g class="legendpoints"><path class="scatterpts" transform="translate(20,0)" d="M-4.2,0A 5.7,5.7 0 0 1 0,4.2A 5.7,5.7 0 0 1 4.2,0A 5.7,5.7 0 0 1 0,-4.2A 5.7,5.7 0 0 1 -4.2,0Z" style="opacity: 0.5; stroke-width: 0px; fill: rgb(51, 34, 136); fill-opacity: 1;"/></g></g></g><rect class="legendtoggle" x="0" y="-9.5" width="125.171875" height="19" style="fill: rgb(0, 0, 0); fill-opacity: 0;"/></g></g></g><rect class="scrollbar" rx="20" ry="3" width="0" height="0" x="0" y="0" style="fill: rgb(128, 139, 164); fill-opacity: 1;"/></g><g class="g-gtitle"/><g class="g-xtitle"/><g class="g-x2title"/><g class="g-x3title"/><g class="g-ytitle"/><g class="g-y2title"/><g class="g-y3title"/></g></svg>