<svg class="main-svg" xmlns="http://www.w3.org/2000/svg" xmlns:xlink="http://www.w3.org/1999/xlink" width="500" height="1200" style="" viewBox="0 0 500 1200"><rect x="0" y="0" width="500" height="1200" style="fill: rgb(255, 255, 255); fill-opacity: 1;"/><defs id="defs-42955f"><g class="clips"><clipPath id="clip42955fxyplot" class="plotclip"><rect width="340" height="272.00000000000006"/></clipPath><clipPath id="clip42955fx2y2plot" class="plotclip"><rect width="340" height="272"/></clipPath><clipPath id="clip42955fx3y3plot" class="plotclip"><rect width="340" height="272"/></clipPath><clipPath class="axesclip" id="clip42955fx"><rect x="80" y="0" width="340" height="1200"/></clipPath><clipPath class="axesclip" id="clip42955fy"><rect x="0" y="100" width="500" height="272.00000000000006"/></clipPath><clipPath class="axesclip" id="clip42955fxy"><rect x="80" y="100" width="340" height="272.00000000000006"/></clipPath><clipPath class="axesclip" id="clip42955fy2"><rect x="0" y="474.00000000000006" width="500" height="272"/></clipPath><clipPath class="axesclip" id="clip42955fxy2"><rect x="80" y="474.00000000000006" width="340" height="272"/></clipPath><clipPath class="axesclip" id="clip42955fy3"><rect x="0" y="848.0000000000001" width="500" height="272"/></clipPath><clipPath class="axesclip" id="clip42955fxy3"><rect x="80" y="848.0000000000001" width="340" height="272"/></clipPath><clipPath class="axesclip" id="clip42955fx2"><rect x="80" y="0" width="340" height="1200"/></clipPath><clipPath class="axesclip" id="clip42955fx2y"><rect x="80" y="100" width="340" height="272.00000000000006"/></clipPath><clipPath class="axesclip" id="clip42955fx2y2"><rect x="80" y="474.00000000000006" width="340" height="272"/></clipPath><clipPath class="axesclip" id="clip42955fx2y3"><rect x="80" y="848.0000000000001" width="340" height="272"/></clipPath><clipPath class="axesclip" id="clip42955fx3"><rect x="80" y="0" width="340" height="1200"/></clipPath><clipPath class="axesclip" id="clip42955fx3y"><rect x="80" y="100" width="340" height="272.00000000000006"/></clipPath><clipPath class="axesclip" id="clip42955fx3y2"><rect x="80" y="474.00000000000006" width="340" height="272"/></clipPath><clipPath class="axesclip" id="clip42955fx3y3"><rect x="80" y="848.0000000000001" width="340" height="272"/></clipPath></g><g class="gradients"/><g class="patterns"/></defs><g class="bglayer"/><g class="layer-below"><g class="imagelayer"/><g class="shapelayer"/></g><g class="cartesianlayer"><g class="subplot xy"><g class="layer-subplot"><g class="shapelayer"/><g class="imagelayer"/></g><g class="minor-gridlayer"><g class="x"/><g class="y"/></g><g class="gridlayer"><g class="x"><path class="xgrid crisp" transform="translate(108.81,0)" d="M0,100v272.00000000000006" style="stroke: rgb(235, 240, 248); stroke-opacity: 1; stroke-width: 1px;"/><path class="xgrid crisp" transform="translate(211.35,0)" d="M0,100v272.00000000000006" style="stroke: rgb(235, 240, 248); stroke-opacity: 1; stroke-width: 1px;"/><path class="xgrid crisp" transform="translate(313.89,0)" d="M0,100v272.00000000000006" style="stroke: rgb(235, 240, 248); stroke-opacity: 1; stroke-width: 1px;"/><path class="xgrid crisp" transform="translate(416.43,0)" d="M0,100v272.00000000000006" style="stroke: rgb(235, 240, 248); stroke-opacity: 1; stroke-width: 1px;"/></g><g class="y"><path class="ygrid crisp" transform="translate(0,356.22)" d="M80,0h340" style="stroke: rgb(235, 240, 248); stroke-opacity: 1; stroke-width: 1px;"/><path class="ygrid crisp" transform="translate(0,307.69)" d="M80,0h340" style="stroke: rgb(235, 240, 248); stroke-opacity: 1; stroke-width: 1px;"/><path class="ygrid crisp" transform="translate(0,259.16999999999996)" d="M80,0h340" style="stroke: rgb(235, 240, 248); stroke-opacity: 1; stroke-width: 1px;"/><path class="ygrid crisp" transform="translate(0,210.65)" d="M80,0h340" style="stroke: rgb(235, 240, 248); stroke-opacity: 1; stroke-width: 1px;"/><path class="ygrid crisp" transform="translate(0,162.12)" d="M80,0h340" style="stroke: rgb(235, 240, 248); stroke-opacity: 1; stroke-width: 1px;"/></g></g><g class="zerolinelayer"><path class="yzl zl crisp" transform="translate(0,113.6)" d="M80,0h340" style="stroke: rgb(235, 240, 248); stroke-opacity: 1; stroke-width: 2px;"/></g><path class="xlines-below"/><path class="ylines-below"/><g class="overlines-below"/><g class="xaxislayer-below"/><g class="yaxislayer-below"/><g class="overaxes-below"/><g class="plot" transform="translate(80,100)" clip-path="url(#clip42955fxyplot)"><g class="scatterlayer mlayer"><g class="trace scatter traceebc4ca" style="stroke-miterlimit: 2; opacity: 1;"><g class="fills"/><g class="errorbars"/><g class="lines"><path class="js-line" d="M0,258.17L24.04,198.61L27.47,190.54L44.65,152.42L48.08,145.24L61.82,118.3L65.25,112L78.99,88.72L82.42,83.44L103.03,54.53L106.46,50.37L120.2,35.77L123.64,32.65L133.94,24.68L137.37,22.53L147.68,17.33L151.11,16.06L161.41,13.79L164.85,13.6L171.72,14.26L175.15,15.48L188.89,16.4L192.32,17.53L202.63,22.64L206.06,24.85L216.36,32.81L219.8,35.9L230.1,46.45L233.54,50.36L243.84,63.39L247.27,68.13L261.01,89.03L264.44,94.71L278.18,118.82L281.62,125.31L298.79,160.16L302.22,167.57L319.39,206.97L322.83,215.25L340,258.4" style="vector-effect: non-scaling-stroke; fill: none; stroke: rgb(169, 169, 169); stroke-opacity: 1; stroke-width: 2px; opacity: 1;"/></g><g class="points"/><g class="text"/></g></g></g><g class="overplot"/><path class="xlines-above crisp" d="M0,0" style="fill: none;"/><path class="ylines-above crisp" d="M0,0" style="fill: none;"/><g class="overlines-above"/><g class="xaxislayer-above"/><g class="yaxislayer-above"><g class="ytick"><text text-anchor="end" x="79" y="4.199999999999999" transform="translate(0,356.22)" style="font-family: 'Open Sans', verdana, arial, sans-serif; font-size: 12px; fill: rgb(42, 63, 95); fill-opacity: 1; white-space: pre; opacity: 1;">−5</text></g><g class="ytick"><text text-anchor="end" x="79" y="4.199999999999999" style="font-family: 'Open Sans', verdana, arial, sans-serif; font-size: 12px; fill: rgb(42, 63, 95); fill-opacity: 1; white-space: pre; opacity: 1;" transform="translate(0,307.69)">−4</text></g><g class="ytick"><text text-anchor="end" x="79" y="4.199999999999999" style="font-family: 'Open Sans', verdana, arial, sans-serif; font-size: 12px; fill: rgb(42, 63, 95); fill-opacity: 1; white-space: pre; opacity: 1;" transform="translate(0,259.16999999999996)">−3</text></g><g class="ytick"><text text-anchor="end" x="79" y="4.199999999999999" style="font-family: 'Open Sans', verdana, arial, sans-serif; font-size: 12px; fill: rgb(42, 63, 95); fill-opacity: 1; white-space: pre; opacity: 1;" transform="translate(0,210.65)">−2</text></g><g class="ytick"><text text-anchor="end" x="79" y="4.199999999999999" style="font-family: 'Open Sans', verdana, arial, sans-serif; font-size: 12px; fill: rgb(42, 63, 95); fill-opacity: 1; white-space: pre; opacity: 1;" transform="translate(0,162.12)">−1</text></g><g class="ytick"><text text-anchor="end" x="79" y="4.199999999999999" style="font-family: 'Open Sans', verdana, arial, sans-serif; font-size: 12px; fill: rgb(42, 63, 95); fill-opacity: 1; white-space: pre; opacity: 1;" transform="translate(0,113.6)">0</text></g></g><g class="overaxes-above"/></g><g class="subplot x2y2"><g class="layer-subplot"><g class="shapelayer"/><g class="imagelayer"/></g><g class="minor-gridlayer"><g class="x2"/><g class="y2"/></g><g class="gridlayer"><g class="x2"><path class="x2grid crisp" transform="translate(108.81,0)" d="M0,474.00000000000006v272" style="stroke: rgb(235, 240, 248); stroke-opacity: 1; stroke-width: 1px;"/><path class="x2grid crisp" transform="translate(211.35,0)" d="M0,474.00000000000006v272" style="stroke: rgb(235, 240, 248); stroke-opacity: 1; stroke-width: 1px;"/><path class="x2grid crisp" transform="translate(313.89,0)" d="M0,474.00000000000006v272" style="stroke: rgb(235, 240, 248); stroke-opacity: 1; stroke-width: 1px;"/><path class="x2grid crisp" transform="translate(416.43,0)" d="M0,474.00000000000006v272" style="stroke: rgb(235, 240, 248); stroke-opacity: 1; stroke-width: 1px;"/></g><g class="y2"><path class="y2grid crisp" transform="translate(0,727.6700000000001)" d="M80,0h340" style="stroke: rgb(235, 240, 248); stroke-opacity: 1; stroke-width: 1px;"/><path class="y2grid crisp" transform="translate(0,690.4200000000001)" d="M80,0h340" style="stroke: rgb(235, 240, 248); stroke-opacity: 1; stroke-width: 1px;"/><path class="y2grid crisp" transform="translate(0,615.9100000000001)" d="M80,0h340" style="stroke: rgb(235, 240, 248); stroke-opacity: 1; stroke-width: 1px;"/><path class="y2grid crisp" transform="translate(0,578.6500000000001)" d="M80,0h340" style="stroke: rgb(235, 240, 248); stroke-opacity: 1; stroke-width: 1px;"/><path class="y2grid crisp" transform="translate(0,541.4000000000001)" d="M80,0h340" style="stroke: rgb(235, 240, 248); stroke-opacity: 1; stroke-width: 1px;"/><path class="y2grid crisp" transform="translate(0,504.14000000000004)" d="M80,0h340" style="stroke: rgb(235, 240, 248); stroke-opacity: 1; stroke-width: 1px;"/></g></g><g class="zerolinelayer"><path class="y2zl zl crisp" transform="translate(0,653.1600000000001)" d="M80,0h340" style="stroke: rgb(235, 240, 248); stroke-opacity: 1; stroke-width: 2px;"/></g><path class="xlines-below"/><path class="ylines-below"/><g class="overlines-below"/><g class="xaxislayer-below"/><g class="yaxislayer-below"/><g class="overaxes-below"/><g class="plot" transform="translate(80,474.00000000000006)" clip-path="url(#clip42955fx2y2plot)"><g class="scatterlayer mlayer"><g class="trace scatter trace6af2d4" style="stroke-miterlimit: 2; opacity: 1;"><g class="fills"/><g class="errorbars"/><g class="lines"><path class="js-line" d="M0,210.47L13.74,209.52L17.17,208.79L65.25,198.43L68.69,197.94L85.86,196.21L89.29,196.63L140.81,184.11L144.24,183.61L161.41,181.74L164.85,181.59L178.59,181.02L182.02,179.55L192.32,175.7L195.76,174.7L209.49,171.82L212.93,171.15L247.27,165.26L250.71,164.76L261.01,163.35L264.44,163.75L291.92,162.99L295.35,162.57L326.26,160.75L329.7,160.63L340,160.36" style="vector-effect: non-scaling-stroke; fill: none; stroke: rgb(68, 1, 84); stroke-opacity: 1; stroke-width: 1px; opacity: 1;"/></g><g class="points"/><g class="text"/></g><g class="trace scatter trace3eeaa6" style="stroke-miterlimit: 2; opacity: 1;"><g class="fills"/><g class="errorbars"/><g class="lines"><path class="js-line" d="M0,22.92L10.3,39.01L13.74,38.59L51.52,33.05L54.95,33.5L65.25,42.71L68.69,46.51L75.56,55.74L78.99,61.43L89.29,80.84L92.73,80.06L130.51,70.54L133.94,70.73L144.24,79.58L147.68,83.19L154.55,91.87L157.98,97.26L164.85,110.94L168.28,119.72L171.72,130.25L175.15,143.94L178.59,143.2L182.02,128.98L188.89,109.48L192.32,102.73L199.19,93.53L202.63,91.89L261.01,74.35L264.44,77.37L271.31,84.61L274.75,87.49L281.62,92.14L285.05,94.02L291.92,97.18L295.35,97.07L336.57,88.33L340,87.71" style="vector-effect: non-scaling-stroke; fill: none; stroke: rgb(69, 7, 90); stroke-opacity: 1; stroke-width: 1px; opacity: 1;"/></g><g class="points"/><g class="text"/></g><g class="trace scatter tracefbda48" style="stroke-miterlimit: 2; opacity: 1;"><g class="fills"/><g class="errorbars"/><g class="lines"><path class="js-line" d="M0,225.99L10.3,222.76L13.74,222.1L61.82,212.29L65.25,211.33L82.42,205.89L85.86,204.59L106.46,201.25L109.9,200.75L140.81,195.91L144.24,195.17L164.85,189.93L168.28,188.79L175.15,185.8L178.59,185.55L185.45,187.38L188.89,187.88L202.63,188.62L206.06,188.52L240.4,188.34L243.84,188.42L271.31,188.59L274.75,188.44L295.35,188.49L298.79,188.77L340,193.06" style="vector-effect: non-scaling-stroke; fill: none; stroke: rgb(69, 14, 96); stroke-opacity: 1; stroke-width: 1px; opacity: 1;"/></g><g class="points"/><g class="text"/></g><g class="trace scatter traceac677b" style="stroke-miterlimit: 2; opacity: 1;"><g class="fills"/><g class="errorbars"/><g class="lines"><path class="js-line" d="M0,255.2L10.3,249.55L13.74,248.82L54.95,239.56L58.38,238.11L72.12,231.62L75.56,229.73L89.29,221.02L92.73,220.23L133.94,210.77L137.37,209.32L154.55,201.15L157.98,199.21L168.28,192.22L171.72,189.33L175.15,185.87L178.59,185.16L185.45,188.27L188.89,189.09L195.76,189.81L199.19,189.79L254.14,182.76L257.58,182.45L261.01,182.16L264.44,181.02L278.18,176.82L281.62,176.01L295.35,173.72L298.79,173.59L333.13,173.19L336.57,173.23L340,173.28" style="vector-effect: non-scaling-stroke; fill: none; stroke: rgb(70, 20, 101); stroke-opacity: 1; stroke-width: 1px; opacity: 1;"/></g><g class="points"/><g class="text"/></g><g class="trace scatter trace22a1c8" style="stroke-miterlimit: 2; opacity: 1;"><g class="fills"/><g class="errorbars"/><g class="lines"><path class="js-line" d="M0,185.05L10.3,182.54L13.74,182.66L48.08,184.75L51.52,185.04L58.38,185.01L61.82,184.78L78.99,182.71L82.42,181.98L89.29,180.57L92.73,181.06L127.07,186.77L130.51,187.42L137.37,188.02L140.81,188.08L157.98,187.52L161.41,187.1L171.72,184.66L175.15,183.16L178.59,183.89L182.02,186.68L188.89,191L192.32,192.7L202.63,196.31L206.06,197.13L264.44,210.35L267.88,210.37L285.05,211.54L288.48,211.91L298.79,213.71L302.22,214.45L340,222.18" style="vector-effect: non-scaling-stroke; fill: none; stroke: rgb(71, 26, 107); stroke-opacity: 1; stroke-width: 1px; opacity: 1;"/></g><g class="points"/><g class="text"/></g><g class="trace scatter trace0d8302" style="stroke-miterlimit: 2; opacity: 1;"><g class="fills"/><g class="errorbars"/><g class="lines"><path class="js-line" d="M0,13.6L10.3,29.78L13.74,29.24L51.52,23L54.95,23.5L65.25,33.08L68.69,37.04L75.56,46.69L78.99,52.64L89.29,72.89L92.73,72.23L130.51,64.82L133.94,65.32L144.24,75.34L147.68,79.39L154.55,89L157.98,94.9L164.85,109.71L168.28,119.1L171.72,130.31L175.15,144.68L178.59,144.36L182.02,130.29L188.89,111.23L192.32,104.79L195.76,99.88L199.19,96.34L206.06,94.55L209.49,93.97L254.14,87.32L257.58,86.91L261.01,86.47L264.44,90.11L271.31,98.68L274.75,102.2L285.05,110.6L288.48,112.88L291.92,114.97L295.35,115.44L336.57,113.08L340,112.96" style="vector-effect: non-scaling-stroke; fill: none; stroke: rgb(71, 32, 113); stroke-opacity: 1; stroke-width: 1px; opacity: 1;"/></g><g class="points"/><g class="text"/></g><g class="trace scatter trace036ae8" style="stroke-miterlimit: 2; opacity: 1;"><g class="fills"/><g class="errorbars"/><g class="lines"><path class="js-line" d="M0,208.22L10.3,203.35L13.74,203.28L48.08,203.45L51.52,203.55L54.95,203.64L58.38,202.95L72.12,199.53L75.56,198.41L85.86,193.85L89.29,192.07L123.64,195.65L127.07,196.09L133.94,196.98L137.37,196.59L154.55,193.55L157.98,192.57L164.85,189.97L168.28,188.23L175.15,183.43L178.59,183.95L185.45,190.34L188.89,192.71L195.76,196.31L199.19,197.63L261.01,210.72L264.44,210.09L278.18,209.12L281.62,209.12L291.92,209.48L295.35,210.19L340,219.47" style="vector-effect: non-scaling-stroke; fill: none; stroke: rgb(72, 39, 119); stroke-opacity: 1; stroke-width: 1px; opacity: 1;"/></g><g class="points"/><g class="text"/></g><g class="trace scatter trace826d95" style="stroke-miterlimit: 2; opacity: 1;"><g class="fills"/><g class="errorbars"/><g class="lines"><path class="js-line" d="M0,211.4L20.61,208.28L24.04,207.56L68.69,198.39L72.12,197.85L85.86,195.99L89.29,196.27L140.81,186.39L144.24,185.96L168.28,183.9L171.72,183.81L182.02,182.54L185.45,181.81L199.19,179.62L202.63,179.36L236.97,176.46L240.4,176.26L261.01,175.42L264.44,175.97L340,178.65" style="vector-effect: non-scaling-stroke; fill: none; stroke: rgb(71, 44, 122); stroke-opacity: 1; stroke-width: 1px; opacity: 1;"/></g><g class="points"/><g class="text"/></g><g class="trace scatter trace6c5dc3" style="stroke-miterlimit: 2; opacity: 1;"><g class="fills"/><g class="errorbars"/><g class="lines"><path class="js-line" d="M0,216.7L6.87,212.83L10.3,210.38L44.65,210.24L48.08,210.31L54.95,210.62L58.38,209.72L72.12,205.29L75.56,203.85L82.42,200.29L85.86,198.06L89.29,195.34L92.73,195.61L127.07,199.19L130.51,199.64L133.94,200.21L137.37,199.6L151.11,196.28L154.55,195.17L161.41,192.24L164.85,190.34L171.72,185.31L175.15,182.01L178.59,182.47L182.02,186.41L188.89,192.5L192.32,194.72L199.19,197.96L202.63,198.58L261.01,210.9L264.44,209.67L274.75,208.03L278.18,207.76L291.92,207.49L295.35,208.3L340,217.63" style="vector-effect: non-scaling-stroke; fill: none; stroke: rgb(69, 49, 125); stroke-opacity: 1; stroke-width: 1px; opacity: 1;"/></g><g class="points"/><g class="text"/></g><g class="trace scatter trace66c0a3" style="stroke-miterlimit: 2; opacity: 1;"><g class="fills"/><g class="errorbars"/><g class="lines"><path class="js-line" d="M0,196.01L10.3,192.49L13.74,192.5L48.08,193.44L51.52,193.62L58.38,193.29L61.82,192.82L75.56,190.3L78.99,189.4L89.29,186.04L92.73,186.41L127.07,190.95L130.51,191.49L137.37,191.8L140.81,191.63L154.55,190.33L157.98,189.75L168.28,186.89L171.72,185.4L175.15,183.42L178.59,184.04L185.45,189.59L188.89,191.68L199.19,196.21L202.63,197L261.01,210.05L264.44,209.87L278.18,209.82L281.62,210L295.35,211.48L298.79,212.23L340,220.76" style="vector-effect: non-scaling-stroke; fill: none; stroke: rgb(68, 55, 128); stroke-opacity: 1; stroke-width: 1px; opacity: 1;"/></g><g class="points"/><g class="text"/></g><g class="trace scatter trace25e43c" style="stroke-miterlimit: 2; opacity: 1;"><g class="fills"/><g class="errorbars"/><g class="lines"><path class="js-line" d="M0,167.23L10.3,165.71L13.74,166.13L44.65,170.7L48.08,171.3L58.38,172.54L61.82,172.64L78.99,172.32L82.42,171.96L89.29,171.26L92.73,172.07L137.37,182.96L140.81,183.31L157.98,184.25L161.41,184.14L171.72,182.64L175.15,181.54L178.59,182.49L182.02,185.35L188.89,189.94L192.32,191.78L202.63,195.89L206.06,196.87L257.58,210.87L261.01,211.74L288.48,213.92L291.92,214.34L340,223.74" style="vector-effect: non-scaling-stroke; fill: none; stroke: rgb(66, 60, 130); stroke-opacity: 1; stroke-width: 1px; opacity: 1;"/></g><g class="points"/><g class="text"/></g><g class="trace scatter traceefd1d6" style="stroke-miterlimit: 2; opacity: 1;"><g class="fills"/><g class="errorbars"/><g class="lines"><path class="js-line" d="M0,205.65L10.3,201.02L13.74,200.97L48.08,201.29L51.52,201.41L58.38,200.87L61.82,200.19L75.56,196.64L78.99,195.42L89.29,190.69L92.73,190.99L127.07,194.89L130.51,195.36L133.94,195.81L137.37,195.47L154.55,192.74L157.98,191.84L164.85,189.43L168.28,187.8L175.15,183.27L178.59,183.8L185.45,190.01L188.89,192.33L195.76,195.86L199.19,197.17L261.01,210.42L264.44,209.86L278.18,209.07L281.62,209.11L291.92,209.55L295.35,210.27L340,219.55" style="vector-effect: non-scaling-stroke; fill: none; stroke: rgb(64, 65, 133); stroke-opacity: 1; stroke-width: 1px; opacity: 1;"/></g><g class="points"/><g class="text"/></g><g class="trace scatter trace96dfc0" style="stroke-miterlimit: 2; opacity: 1;"><g class="fills"/><g class="errorbars"/><g class="lines"><path class="js-line" d="M0,199.69L58.38,191.34L61.82,190.93L85.86,188.44L89.29,188.83L127.07,185.68L130.51,185.47L140.81,184.81L144.24,184.71L178.59,184.47L182.02,184.75L212.93,185.95L216.36,186.13L250.71,188.8L254.14,189.14L274.75,191.98L278.18,192.42L333.13,200.19L336.57,200.73L340,201.29" style="vector-effect: non-scaling-stroke; fill: none; stroke: rgb(63, 71, 136); stroke-opacity: 1; stroke-width: 1px; opacity: 1;"/></g><g class="points"/><g class="text"/></g><g class="trace scatter tracedf9d5a" style="stroke-miterlimit: 2; opacity: 1;"><g class="fills"/><g class="errorbars"/><g class="lines"><path class="js-line" d="M0,221.91L10.3,218L13.74,217.5L58.38,211.04L61.82,210.14L78.99,204.8L82.42,203.44L89.29,200.94L92.73,200.67L127.07,198.73L130.51,198.61L140.81,197.09L144.24,196.44L161.41,192.26L164.85,191.09L171.72,188.15L175.15,186.04L178.59,186.1L182.02,188.19L188.89,190.99L192.32,191.98L202.63,193.71L206.06,193.94L240.4,196.97L243.84,197.35L264.44,199.34L267.88,199.09L285.05,198.94L288.48,199.07L298.79,200.15L302.22,200.68L340,206.92" style="vector-effect: non-scaling-stroke; fill: none; stroke: rgb(61, 76, 137); stroke-opacity: 1; stroke-width: 1px; opacity: 1;"/></g><g class="points"/><g class="text"/></g><g class="trace scatter trace92a47a" style="stroke-miterlimit: 2; opacity: 1;"><g class="fills"/><g class="errorbars"/><g class="lines"><path class="js-line" d="M0,199.71L68.69,189.96L72.12,189.59L85.86,188.31L89.29,188.66L127.07,185.23L130.51,185L140.81,184.31L144.24,184.21L178.59,184.06L182.02,184.23L206.06,184.73L209.49,184.86L243.84,186.97L247.27,187.26L267.88,189.8L271.31,190.22L329.7,198.09L333.13,198.62L340,199.69" style="vector-effect: non-scaling-stroke; fill: none; stroke: rgb(59, 81, 138); stroke-opacity: 1; stroke-width: 1px; opacity: 1;"/></g><g class="points"/><g class="text"/></g><g class="trace scatter trace5b6dd2" style="stroke-miterlimit: 2; opacity: 1;"><g class="fills"/><g class="errorbars"/><g class="lines"><path class="js-line" d="M0,37.28L10.3,52.23L13.74,51.77L51.52,45.86L54.95,46.16L65.25,54.57L68.69,58.05L75.56,66.54L78.99,71.79L89.29,89.86L92.73,89.07L130.51,79.51L133.94,79.58L144.24,87.69L147.68,91.01L154.55,99.01L157.98,104L164.85,116.68L168.28,124.83L171.72,134.62L175.15,147.3L178.59,146.58L182.02,133.32L188.89,115.07L192.32,108.74L199.19,100.11L202.63,98.57L254.14,83.69L257.58,82.79L261.01,81.86L264.44,84.77L271.31,91.53L274.75,94.22L285.05,100.31L288.48,101.88L291.92,103.28L295.35,103.15L333.13,95.73L336.57,95.15L340,94.59" style="vector-effect: non-scaling-stroke; fill: none; stroke: rgb(45, 114, 142); stroke-opacity: 1; stroke-width: 1px; opacity: 1;"/></g><g class="points"/><g class="text"/></g><g class="trace scatter trace2c06cd" style="stroke-miterlimit: 2; opacity: 1;"><g class="fills"/><g class="errorbars"/><g class="lines"><path class="js-line" d="M0,222.77L10.3,219.97L13.74,219.3L65.25,208.59L68.69,207.69L89.29,202.11L92.73,201.53L151.11,191.86L154.55,191.14L171.72,186.73L175.15,185.33L178.59,185.05L182.02,185.86L195.76,186.91L199.19,186.93L257.58,186.62L261.01,186.74L271.31,186.58L274.75,186.49L295.35,186.71L298.79,186.97L340,190.96" style="vector-effect: non-scaling-stroke; fill: none; stroke: rgb(43, 118, 142); stroke-opacity: 1; stroke-width: 1px; opacity: 1;"/></g><g class="points"/><g class="text"/></g><g class="trace scatter trace4568a1" style="stroke-miterlimit: 2; opacity: 1;"><g class="fills"/><g class="errorbars"/><g class="lines"><path class="js-line" d="M0,257.72L10.3,251.47L13.74,250.75L54.95,241.74L58.38,240.22L72.12,233.38L75.56,231.38L89.29,221.88L92.73,221.14L133.94,212.44L137.37,210.96L154.55,202.48L157.98,200.44L168.28,192.97L171.72,189.84L175.15,186.09L178.59,185.44L185.45,189.31L188.89,190.43L195.76,191.6L199.19,191.74L250.71,186.51L254.14,186.29L261.01,185.89L264.44,184.66L274.75,181.24L278.18,180.35L291.92,177.57L295.35,177.42L329.7,177.79L333.13,177.9L340,178.16" style="vector-effect: non-scaling-stroke; fill: none; stroke: rgb(41, 122, 142); stroke-opacity: 1; stroke-width: 1px; opacity: 1;"/></g><g class="points"/><g class="text"/></g><g class="trace scatter tracecf0167" style="stroke-miterlimit: 2; opacity: 1;"><g class="fills"/><g class="errorbars"/><g class="lines"><path class="js-line" d="M0,189.64L10.3,186.66L13.74,186.74L48.08,188.35L51.52,188.6L58.38,188.45L61.82,188.12L75.56,186.18L78.99,185.46L89.29,182.76L92.73,183.2L127.07,188.44L130.51,189.05L137.37,189.54L140.81,189.49L157.98,188.36L161.41,187.8L171.72,184.84L175.15,183.14L178.59,183.82L182.02,186.72L188.89,191.18L192.32,192.91L199.19,195.66L202.63,196.51L261.01,210.1L264.44,210.07L278.18,210.36L281.62,210.6L295.35,212.25L298.79,212.99L340,221.51" style="vector-effect: non-scaling-stroke; fill: none; stroke: rgb(40, 126, 142); stroke-opacity: 1; stroke-width: 1px; opacity: 1;"/></g><g class="points"/><g class="text"/></g><g class="trace scatter trace529b72" style="stroke-miterlimit: 2; opacity: 1;"><g class="fills"/><g class="errorbars"/><g class="lines"><path class="js-line" d="M0,26.39L10.3,41.53L13.74,40.98L51.52,34.61L54.95,35.01L65.25,43.87L68.69,47.55L75.56,56.52L78.99,62.06L89.29,80.99L92.73,80.31L130.51,72.65L133.94,73.04L144.24,82.28L147.68,86.02L154.55,94.93L157.98,100.42L164.85,114.22L168.28,123L171.72,133.48L175.15,146.94L178.59,146.56L182.02,133.27L188.89,115.21L192.32,109.09L195.76,104.4L199.19,101.01L206.06,99.2L209.49,98.6L250.71,92.06L254.14,91.58L261.01,90.67L264.44,94.08L271.31,102.05L274.75,105.32L285.05,113.08L288.48,115.19L291.92,117.11L295.35,117.5L336.57,114.87L340,114.74" style="vector-effect: non-scaling-stroke; fill: none; stroke: rgb(38, 130, 142); stroke-opacity: 1; stroke-width: 1px; opacity: 1;"/></g><g class="points"/><g class="text"/></g><g class="trace scatter trace3a202d" style="stroke-miterlimit: 2; opacity: 1;"><g class="fills"/><g class="errorbars"/><g class="lines"><path class="js-line" d="M0,206.28L10.3,201.48L13.74,201.45L48.08,201.93L51.52,202.07L54.95,202.19L58.38,201.54L72.12,198.26L75.56,197.18L85.86,192.74L89.29,190.97L123.64,194.89L127.07,195.37L133.94,196.33L137.37,195.98L154.55,193.1L157.98,192.16L164.85,189.63L168.28,187.92L175.15,183.2L178.59,183.74L185.45,190.16L188.89,192.56L195.76,196.2L199.19,197.55L261.01,210.97L264.44,210.34L274.75,209.48L278.18,209.42L291.92,209.81L295.35,210.54L340,219.84" style="vector-effect: non-scaling-stroke; fill: none; stroke: rgb(37, 135, 141); stroke-opacity: 1; stroke-width: 1px; opacity: 1;"/></g><g class="points"/><g class="text"/></g><g class="trace scatter trace563d55" style="stroke-miterlimit: 2; opacity: 1;"><g class="fills"/><g class="errorbars"/><g class="lines"><path class="js-line" d="M0,210.4L17.17,208.37L20.61,207.63L65.25,198.15L68.69,197.63L85.86,195.65L89.29,196.07L140.81,185.26L144.24,184.83L164.85,183.14L168.28,183.09L178.59,182.58L182.02,181.62L195.76,178.18L199.19,177.56L257.58,171.53L261.01,171.32L267.88,171.99L271.31,172.07L315.96,172.23L319.39,172.28L340,172.87" style="vector-effect: non-scaling-stroke; fill: none; stroke: rgb(36, 140, 140); stroke-opacity: 1; stroke-width: 1px; opacity: 1;"/></g><g class="points"/><g class="text"/></g><g class="trace scatter traceb9e8ae" style="stroke-miterlimit: 2; opacity: 1;"><g class="fills"/><g class="errorbars"/><g class="lines"><path class="js-line" d="M0,215.62L6.87,211.73L10.3,209.21L44.65,209.4L48.08,209.5L54.95,209.9L58.38,209.02L72.12,204.62L75.56,203.18L82.42,199.61L85.86,197.36L89.29,194.55L92.73,194.86L127.07,198.81L130.51,199.29L133.94,199.92L137.37,199.32L151.11,196.02L154.55,194.9L161.41,191.95L164.85,190.03L171.72,184.93L175.15,181.61L178.59,182.09L182.02,186.1L188.89,192.34L192.32,194.62L199.19,197.94L202.63,198.58L261.01,211.24L264.44,209.94L274.75,208.27L278.18,207.98L291.92,207.68L295.35,208.52L340,217.89" style="vector-effect: non-scaling-stroke; fill: none; stroke: rgb(34, 144, 140); stroke-opacity: 1; stroke-width: 1px; opacity: 1;"/></g><g class="points"/><g class="text"/></g><g class="trace scatter traced455c6" style="stroke-miterlimit: 2; opacity: 1;"><g class="fills"/><g class="errorbars"/><g class="lines"><path class="js-line" d="M0,203.05L10.3,199.03L13.74,198.96L51.52,199.14L54.95,199.15L72.12,195.77L75.56,194.84L89.29,189.82L92.73,190.1L127.07,193.73L130.51,194.18L137.37,194.27L140.81,193.96L154.55,192.08L157.98,191.34L168.28,187.91L171.72,186.19L175.15,183.96L178.59,184.49L185.45,190.18L188.89,192.3L195.76,195.56L199.19,196.79L261.01,209.79L264.44,209.5L278.18,209.13L281.62,209.25L295.35,210.56L298.79,211.29L340,219.79" style="vector-effect: non-scaling-stroke; fill: none; stroke: rgb(33, 148, 139); stroke-opacity: 1; stroke-width: 1px; opacity: 1;"/></g><g class="points"/><g class="text"/></g><g class="trace scatter trace3ae8b0" style="stroke-miterlimit: 2; opacity: 1;"><g class="fills"/><g class="errorbars"/><g class="lines"><path class="js-line" d="M0,165.85L10.3,164.46L13.74,164.89L44.65,169.48L48.08,170.08L58.38,171.35L61.82,171.48L78.99,171.35L82.42,171.04L89.29,170.47L92.73,171.27L137.37,182.22L140.81,182.6L157.98,183.73L161.41,183.67L171.72,182.38L175.15,181.38L178.59,182.34L182.02,185.11L188.89,189.59L192.32,191.4L202.63,195.45L206.06,196.44L257.58,210.46L261.01,211.32L288.48,213.71L291.92,214.15L340,223.54" style="vector-effect: non-scaling-stroke; fill: none; stroke: rgb(32, 153, 138); stroke-opacity: 1; stroke-width: 1px; opacity: 1;"/></g><g class="points"/><g class="text"/></g><g class="trace scatter trace516152" style="stroke-miterlimit: 2; opacity: 1;"><g class="fills"/><g class="errorbars"/><g class="lines"><path class="js-line" d="M0,209.19L10.3,204.19L13.74,204.11L48.08,204.08L51.52,204.16L54.95,204.25L58.38,203.54L72.12,200.02L75.56,198.87L85.86,194.23L89.29,192.35L120.2,195.31L123.64,195.72L133.94,197.02L137.37,196.6L151.11,194.25L154.55,193.43L164.85,189.77L168.28,188L175.15,183.15L178.59,183.65L185.45,190L188.89,192.36L195.76,195.93L199.19,197.24L261.01,210.13L264.44,209.44L274.75,208.51L278.18,208.42L291.92,208.74L295.35,209.46L340,218.73" style="vector-effect: non-scaling-stroke; fill: none; stroke: rgb(31, 158, 137); stroke-opacity: 1; stroke-width: 1px; opacity: 1;"/></g><g class="points"/><g class="text"/></g><g class="trace scatter trace21c324" style="stroke-miterlimit: 2; opacity: 1;"><g class="fills"/><g class="errorbars"/><g class="lines"><path class="js-line" d="M0,192.8L20.61,190.86L24.04,190.32L61.82,185.07L65.25,184.83L85.86,184.11L89.29,184.79L123.64,181.91L127.07,181.7L144.24,181.21L147.68,181.31L168.28,182.8L171.72,183.27L178.59,183.67L182.02,183.51L195.76,182.92L199.19,182.97L261.01,187.68L264.44,188.72L302.22,194.58L305.66,195.08L340,200.37" style="vector-effect: non-scaling-stroke; fill: none; stroke: rgb(34, 162, 135); stroke-opacity: 1; stroke-width: 1px; opacity: 1;"/></g><g class="points"/><g class="text"/></g><g class="trace scatter trace511e6c" style="stroke-miterlimit: 2; opacity: 1;"><g class="fills"/><g class="errorbars"/><g class="lines"><path class="js-line" d="M0,216.07L10.3,212.63L13.74,212.16L61.82,205.53L65.25,204.72L82.42,199.73L85.86,198.45L92.73,197.45L96.16,197.25L140.81,194.78L144.24,194.27L161.41,190.91L164.85,189.96L171.72,187.52L175.15,185.72L178.59,185.85L182.02,187.78L192.32,191.33L195.76,192.11L206.06,193.38L209.49,193.68L243.84,197.32L247.27,197.76L264.44,199.7L267.88,199.58L285.05,199.94L288.48,200.16L298.79,201.38L302.22,201.94L340,208.46" style="vector-effect: non-scaling-stroke; fill: none; stroke: rgb(38, 166, 132); stroke-opacity: 1; stroke-width: 1px; opacity: 1;"/></g><g class="points"/><g class="text"/></g><g class="trace scatter trace6dd04c" style="stroke-miterlimit: 2; opacity: 1;"><g class="fills"/><g class="errorbars"/><g class="lines"><path class="js-line" d="M0,194.32L24.04,191.71L27.47,191.19L65.25,186.14L68.69,185.89L85.86,185.13L89.29,185.76L127.07,182.72L130.51,182.53L137.37,182.09L140.81,182.11L164.85,183.04L168.28,183.35L178.59,184.01L182.02,183.97L199.19,183.72L202.63,183.98L236.97,186.16L240.4,186.46L261.01,188.53L264.44,189.54L309.09,196.21L312.53,196.72L340,201.04" style="vector-effect: non-scaling-stroke; fill: none; stroke: rgb(41, 170, 130); stroke-opacity: 1; stroke-width: 1px; opacity: 1;"/></g><g class="points"/><g class="text"/></g><g class="trace scatter trace186550" style="stroke-miterlimit: 2; opacity: 1;"><g class="fills"/><g class="errorbars"/><g class="lines"><path class="js-line" d="M0,205.47L13.74,208.12L17.17,208.25L37.78,208.09L41.21,207.91L92.73,203.59L96.16,202.58L113.33,196.68L116.77,195.33L171.72,172.57L175.15,171.93L178.59,169.77L182.02,166.18L195.76,154.42L199.19,151.75L219.8,136.49L223.23,133.85L264.44,102.29L267.88,100.03L291.92,83.5L295.35,80.77L329.7,55.52L333.13,53.13L340,48.42" style="vector-effect: non-scaling-stroke; fill: none; stroke: rgb(45, 174, 127); stroke-opacity: 1; stroke-width: 1px; opacity: 1;"/></g><g class="points"/><g class="text"/></g><g class="trace scatter tracec7cf39" style="stroke-miterlimit: 2; opacity: 1;"><g class="fills"/><g class="errorbars"/><g class="lines"><path class="js-line" d="M0,227.68L10.3,224.45L13.74,223.76L61.82,213.58L65.25,212.6L92.73,204.38L96.16,203.79L144.24,195.47L147.68,194.66L164.85,189.98L168.28,188.8L175.15,185.75L178.59,185.44L185.45,187.09L188.89,187.51L202.63,187.96L206.06,187.79L240.4,186.98L243.84,186.99L271.31,186.73L274.75,186.53L295.35,186.28L298.79,186.51L340,190.23" style="vector-effect: non-scaling-stroke; fill: none; stroke: rgb(96, 200, 96); stroke-opacity: 1; stroke-width: 1px; opacity: 1;"/></g><g class="points"/><g class="text"/></g><g class="trace scatter trace4611ce" style="stroke-miterlimit: 2; opacity: 1;"><g class="fills"/><g class="errorbars"/><g class="lines"><path class="js-line" d="M0,258.4L10.3,252.15L13.74,251.43L54.95,242.33L58.38,240.81L72.12,233.92L75.56,231.9L89.29,222.29L92.73,221.53L133.94,212.43L137.37,210.96L154.55,202.3L157.98,200.22L168.28,192.64L171.72,189.48L175.15,185.72L178.59,185.02L185.45,188.73L188.89,189.78L195.76,190.81L199.19,190.9L250.71,184.77L254.14,184.49L261.01,183.96L264.44,182.63L278.18,178.12L281.62,177.26L291.92,175.11L295.35,174.91L329.7,174.69L333.13,174.75L340,174.9" style="vector-effect: non-scaling-stroke; fill: none; stroke: rgb(105, 204, 91); stroke-opacity: 1; stroke-width: 1px; opacity: 1;"/></g><g class="points"/><g class="text"/></g><g class="trace scatter trace213354" style="stroke-miterlimit: 2; opacity: 1;"><g class="fills"/><g class="errorbars"/><g class="lines"><path class="js-line" d="M0,182.75L10.3,180.53L13.74,180.66L48.08,182.85L51.52,183.16L61.82,182.99L65.25,182.77L78.99,181.27L82.42,180.64L89.29,179.42L92.73,179.92L127.07,185.8L130.51,186.46L140.81,187.22L144.24,187.3L157.98,187L161.41,186.68L171.72,184.6L175.15,183.32L178.59,184.06L182.02,186.68L188.89,190.83L192.32,192.48L202.63,196.05L206.06,196.87L264.44,210.25L267.88,210.33L285.05,211.71L288.48,212.11L298.79,213.92L302.22,214.67L340,222.37" style="vector-effect: non-scaling-stroke; fill: none; stroke: rgb(115, 207, 85); stroke-opacity: 1; stroke-width: 1px; opacity: 1;"/></g><g class="points"/><g class="text"/></g><g class="trace scatter trace028645" style="stroke-miterlimit: 2; opacity: 1;"><g class="fills"/><g class="errorbars"/><g class="lines"><path class="js-line" d="M0,32.17L10.3,47.09L13.74,46.52L51.52,39.95L54.95,40.23L65.25,48.82L68.69,52.39L75.56,61.11L78.99,66.51L89.29,85.2L92.73,84.51L130.51,76.79L133.94,77.06L144.24,86.07L147.68,89.72L154.55,98.42L157.98,103.78L164.85,117.27L168.28,125.85L171.72,136.09L175.15,149.16L178.59,148.8L182.02,135.89L188.89,118.27L192.32,112.29L199.19,104.41L202.63,103.3L243.84,96.73L247.27,96.24L261.01,94.44L264.44,97.94L271.31,105.77L274.75,108.99L285.05,116.64L288.48,118.72L291.92,120.63L295.35,120.97L333.13,118.75L336.57,118.63L340,118.52" style="vector-effect: non-scaling-stroke; fill: none; stroke: rgb(126, 210, 78); stroke-opacity: 1; stroke-width: 1px; opacity: 1;"/></g><g class="points"/><g class="text"/></g><g class="trace scatter tracec5b8d1" style="stroke-miterlimit: 2; opacity: 1;"><g class="fills"/><g class="errorbars"/><g class="lines"><path class="js-line" d="M0,203.13L10.3,198.67L13.74,198.66L48.08,199.37L51.52,199.53L58.38,199.08L61.82,198.45L75.56,195.1L78.99,193.95L89.29,189.41L92.73,189.75L127.07,194.07L130.51,194.58L133.94,195.06L137.37,194.77L154.55,192.29L157.98,191.45L168.28,187.57L171.72,185.63L175.15,183.17L178.59,183.74L185.45,189.97L188.89,192.31L195.76,195.87L199.19,197.21L261.01,210.85L264.44,210.32L278.18,209.62L281.62,209.68L295.35,210.89L298.79,211.63L340,220.19" style="vector-effect: non-scaling-stroke; fill: none; stroke: rgb(138, 212, 70); stroke-opacity: 1; stroke-width: 1px; opacity: 1;"/></g><g class="points"/><g class="text"/></g><g class="trace scatter trace4f9bfc" style="stroke-miterlimit: 2; opacity: 1;"><g class="fills"/><g class="errorbars"/><g class="lines"><path class="js-line" d="M0,208.71L20.61,205.7L24.04,204.99L68.69,196.2L72.12,195.71L85.86,194.1L89.29,194.4L137.37,185.63L140.81,185.26L164.85,183.47L168.28,183.42L178.59,182.95L182.02,182.35L195.76,180.03L199.19,179.64L254.14,176.71L257.58,176.65L264.44,177.22L267.88,177.42L340,181.29" style="vector-effect: non-scaling-stroke; fill: none; stroke: rgb(149, 215, 63); stroke-opacity: 1; stroke-width: 1px; opacity: 1;"/></g><g class="points"/><g class="text"/></g><g class="trace scatter trace88bc2f" style="stroke-miterlimit: 2; opacity: 1;"><g class="fills"/><g class="errorbars"/><g class="lines"><path class="js-line" d="M0,215.87L6.87,212.06L10.3,209.71L48.08,209.78L51.52,209.88L54.95,210.08L58.38,209.21L72.12,204.9L75.56,203.48L82.42,200L85.86,197.8L89.29,195.21L92.73,195.49L127.07,199.21L130.51,199.67L133.94,200.23L137.37,199.64L151.11,196.44L154.55,195.35L161.41,192.5L164.85,190.64L171.72,185.7L175.15,182.51L178.59,182.98L182.02,186.85L188.89,192.92L192.32,195.14L199.19,198.38L202.63,199.03L261.01,211.46L264.44,210.3L274.75,208.73L278.18,208.48L291.92,208.26L295.35,209.06L340,218.39" style="vector-effect: non-scaling-stroke; fill: none; stroke: rgb(161, 217, 56); stroke-opacity: 1; stroke-width: 1px; opacity: 1;"/></g><g class="points"/><g class="text"/></g><g class="trace scatter tracefcce92" style="stroke-miterlimit: 2; opacity: 1;"><g class="fills"/><g class="errorbars"/><g class="lines"><path class="js-line" d="M0,199.26L10.3,195.27L13.74,195.25L48.08,195.91L51.52,196.06L58.38,195.74L61.82,195.2L75.56,192.31L78.99,191.31L89.29,187.45L92.73,187.78L127.07,192.05L130.51,192.55L137.37,192.81L140.81,192.55L154.55,190.9L157.98,190.21L168.28,186.96L171.72,185.29L175.15,183.15L178.59,183.73L185.45,189.46L188.89,191.62L199.19,196.22L202.63,196.97L261.01,209.81L264.44,209.47L278.18,209.18L281.62,209.32L295.35,210.7L298.79,211.44L340,219.99" style="vector-effect: non-scaling-stroke; fill: none; stroke: rgb(172, 220, 49); stroke-opacity: 1; stroke-width: 1px; opacity: 1;"/></g><g class="points"/><g class="text"/></g><g class="trace scatter traceb3ff4e" style="stroke-miterlimit: 2; opacity: 1;"><g class="fills"/><g class="errorbars"/><g class="lines"><path class="js-line" d="M0,166.27L10.3,164.83L13.74,165.25L44.65,169.96L48.08,170.57L58.38,171.83L61.82,171.96L78.99,171.79L82.42,171.47L89.29,170.91L92.73,171.72L137.37,182.69L140.81,183.07L157.98,184.16L161.41,184.08L171.72,182.73L175.15,181.68L178.59,182.64L182.02,185.47L188.89,189.99L192.32,191.82L202.63,195.92L206.06,196.91L257.58,210.92L261.01,211.79L291.92,214.56L295.35,215.22L333.13,222.64L336.57,223.25L340,223.85" style="vector-effect: non-scaling-stroke; fill: none; stroke: rgb(184, 222, 43); stroke-opacity: 1; stroke-width: 1px; opacity: 1;"/></g><g class="points"/><g class="text"/></g><g class="trace scatter tracef587f4" style="stroke-miterlimit: 2; opacity: 1;"><g class="fills"/><g class="errorbars"/><g class="lines"><path class="js-line" d="M0,207.86L10.3,203.06L13.74,202.98L48.08,203L51.52,203.09L54.95,203.17L58.38,202.48L72.12,199.11L75.56,198.01L85.86,193.57L89.29,191.71L123.64,195.12L127.07,195.55L133.94,196.5L137.37,196.12L154.55,193.15L157.98,192.2L164.85,189.67L168.28,187.98L175.15,183.3L178.59,183.73L185.45,190.04L188.89,192.36L195.76,195.87L199.19,197.16L254.14,208.58L257.58,209.32L261.01,210.06L264.44,209.51L274.75,208.66L278.18,208.6L291.92,209.01L295.35,209.64L340,218.9" style="vector-effect: non-scaling-stroke; fill: none; stroke: rgb(195, 224, 42); stroke-opacity: 1; stroke-width: 1px; opacity: 1;"/></g><g class="points"/><g class="text"/></g><g class="trace scatter trace751624" style="stroke-miterlimit: 2; opacity: 1;"><g class="fills"/><g class="errorbars"/><g class="lines"><path class="js-line" d="M0,196.07L30.91,192.16L34.34,191.64L68.69,187.17L72.12,186.89L85.86,186.1L89.29,186.6L127.07,183.44L130.51,183.23L140.81,182.73L144.24,182.71L168.28,183.45L171.72,183.72L226.67,185.32L230.1,185.57L261.01,188.37L264.44,189.3L340,200.38" style="vector-effect: non-scaling-stroke; fill: none; stroke: rgb(207, 225, 41); stroke-opacity: 1; stroke-width: 1px; opacity: 1;"/></g><g class="points"/><g class="text"/></g><g class="trace scatter trace34c9ef" style="stroke-miterlimit: 2; opacity: 1;"><g class="fills"/><g class="errorbars"/><g class="lines"><path class="js-line" d="M0,218.43L10.3,214.93L13.74,214.43L61.82,207.25L65.25,206.39L82.42,201.2L85.86,199.88L92.73,198.81L96.16,198.56L140.81,195.43L144.24,194.87L161.41,191.27L164.85,190.27L171.72,187.75L175.15,185.9L178.59,185.97L182.02,187.85L192.32,191.24L195.76,191.97L206.06,193.1L209.49,193.35L247.27,196.95L250.71,197.36L264.44,198.71L267.88,198.55L285.05,198.76L288.48,198.95L298.79,200.07L302.22,200.61L340,206.88" style="vector-effect: non-scaling-stroke; fill: none; stroke: rgb(218, 227, 40); stroke-opacity: 1; stroke-width: 1px; opacity: 1;"/></g><g class="points"/><g class="text"/></g><g class="trace scatter trace0b7ebe" style="stroke-miterlimit: 2; opacity: 1;"><g class="fills"/><g class="errorbars"/><g class="lines"><path class="js-line" d="M0,200.02L68.69,190.3L72.12,189.92L85.86,188.63L89.29,189.04L127.07,185.62L130.51,185.39L140.81,184.68L144.24,184.58L178.59,184.41L182.02,184.6L206.06,185.16L209.49,185.29L243.84,187.42L247.27,187.72L264.44,189.87L267.88,190.3L329.7,198.6L333.13,199.13L340,200.21" style="vector-effect: non-scaling-stroke; fill: none; stroke: rgb(230, 228, 39); stroke-opacity: 1; stroke-width: 1px; opacity: 1;"/></g><g class="points"/><g class="text"/></g><g class="trace scatter tracec6615d" style="stroke-miterlimit: 2; opacity: 1;"><g class="fills"/><g class="errorbars"/><g class="lines"><path class="js-line" d="M0,206.61L13.74,209.19L17.17,209.33L37.78,209.23L41.21,209.05L68.69,206.62L72.12,206.31L92.73,204.42L96.16,203.42L113.33,197.52L116.77,196.16L144.24,184.06L147.68,182.59L171.72,172.8L175.15,172.05L178.59,169.88L182.02,166.36L195.76,154.74L199.19,152.06L219.8,136.71L223.23,134.06L264.44,102.23L267.88,99.92L295.35,80.33L298.79,77.69L329.7,54.85L333.13,52.44L340,47.68" style="vector-effect: non-scaling-stroke; fill: none; stroke: rgb(241, 230, 38); stroke-opacity: 1; stroke-width: 1px; opacity: 1;"/></g><g class="points"/><g class="text"/></g><g class="trace scatter trace083daf" style="stroke-miterlimit: 2; opacity: 1;"><g class="fills"/><g class="errorbars"/><g class="lines"><path class="js-line" d="M0,214.28L10.3,208.42L13.74,208.35L48.08,208.45L51.52,208.55L54.95,208.72L58.38,207.89L72.12,203.77L75.56,202.43L85.86,197.01L89.29,194.61L123.64,198.12L127.07,198.56L133.94,199.54L137.37,199L151.11,196.01L154.55,194.99L164.85,190.54L168.28,188.42L175.15,182.8L178.59,183.27L185.45,190.28L188.89,192.91L195.76,196.82L199.19,198.23L236.97,206.06L240.4,206.79L261.01,211.26L264.44,210.23L274.75,208.82L278.18,208.61L291.92,208.53L295.35,209.3L340,218.52" style="vector-effect: non-scaling-stroke; fill: none; stroke: rgb(253, 231, 37); stroke-opacity: 1; stroke-width: 1px; opacity: 1;"/></g><g class="points"/><g class="text"/></g></g></g><g class="overplot"/><path class="xlines-above crisp" d="M0,0" style="fill: none;"/><path class="ylines-above crisp" d="M0,0" style="fill: none;"/><g class="overlines-above"/><g class="xaxislayer-above"/><g class="yaxislayer-above"><g class="y2tick"><text text-anchor="end" x="79" y="4.199999999999999" transform="translate(0,727.6700000000001)" style="font-family: 'Open Sans', verdana, arial, sans-serif; font-size: 12px; fill: rgb(42, 63, 95); fill-opacity: 1; white-space: pre; opacity: 1;">−1</text></g><g class="y2tick"><text text-anchor="end" x="79" y="4.199999999999999" style="font-family: 'Open Sans', verdana, arial, sans-serif; font-size: 12px; fill: rgb(42, 63, 95); fill-opacity: 1; white-space: pre; opacity: 1;" transform="translate(0,690.4200000000001)">−0.5</text></g><g class="y2tick"><text text-anchor="end" x="79" y="4.199999999999999" style="font-family: 'Open Sans', verdana, arial, sans-serif; font-size: 12px; fill: rgb(42, 63, 95); fill-opacity: 1; white-space: pre; opacity: 1;" transform="translate(0,653.1600000000001)">0</text></g><g class="y2tick"><text text-anchor="end" x="79" y="4.199999999999999" style="font-family: 'Open Sans', verdana, arial, sans-serif; font-size: 12px; fill: rgb(42, 63, 95); fill-opacity: 1; white-space: pre; opacity: 1;" transform="translate(0,615.9100000000001)">0.5</text></g><g class="y2tick"><text text-anchor="end" x="79" y="4.199999999999999" style="font-family: 'Open Sans', verdana, arial, sans-serif; font-size: 12px; fill: rgb(42, 63, 95); fill-opacity: 1; white-space: pre; opacity: 1;" transform="translate(0,578.6500000000001)">1</text></g><g class="y2tick"><text text-anchor="end" x="79" y="4.199999999999999" style="font-family: 'Open Sans', verdana, arial, sans-serif; font-size: 12px; fill: rgb(42, 63, 95); fill-opacity: 1; white-space: pre; opacity: 1;" transform="translate(0,541.4000000000001)">1.5</text></g><g class="y2tick"><text text-anchor="end" x="79" y="4.199999999999999" style="font-family: 'Open Sans', verdana, arial, sans-serif; font-size: 12px; fill: rgb(42, 63, 95); fill-opacity: 1; white-space: pre; opacity: 1;" transform="translate(0,504.14000000000004)">2</text></g></g><g class="overaxes-above"/></g><g class="subplot x3y3"><g class="layer-subplot"><g class="shapelayer"/><g class="imagelayer"/></g><g class="minor-gridlayer"><g class="x3"/><g class="y3"/></g><g class="gridlayer"><g class="x3"><path class="x3grid crisp" transform="translate(108.81,0)" d="M0,848.0000000000001v272" style="stroke: rgb(235, 240, 248); stroke-opacity: 1; stroke-width: 1px;"/><path class="x3grid crisp" transform="translate(211.35,0)" d="M0,848.0000000000001v272" style="stroke: rgb(235, 240, 248); stroke-opacity: 1; stroke-width: 1px;"/><path class="x3grid crisp" transform="translate(313.89,0)" d="M0,848.0000000000001v272" style="stroke: rgb(235, 240, 248); stroke-opacity: 1; stroke-width: 1px;"/><path class="x3grid crisp" transform="translate(416.43,0)" d="M0,848.0000000000001v272" style="stroke: rgb(235, 240, 248); stroke-opacity: 1; stroke-width: 1px;"/></g><g class="y3"><path class="y3grid crisp" transform="translate(0,1067.2600000000002)" d="M80,0h340" style="stroke: rgb(235, 240, 248); stroke-opacity: 1; stroke-width: 1px;"/><path class="y3grid crisp" transform="translate(0,909.3400000000001)" d="M80,0h340" style="stroke: rgb(235, 240, 248); stroke-opacity: 1; stroke-width: 1px;"/></g></g><g class="zerolinelayer"><path class="y3zl zl crisp" transform="translate(0,988.3000000000002)" d="M80,0h340" style="stroke: rgb(235, 240, 248); stroke-opacity: 1; stroke-width: 2px;"/></g><path class="xlines-below"/><path class="ylines-below"/><g class="overlines-below"/><g class="xaxislayer-below"/><g class="yaxislayer-below"/><g class="overaxes-below"/><g class="plot" transform="translate(80,848.0000000000001)" clip-path="url(#clip42955fx3y3plot)"><g class="scatterlayer mlayer"><g class="trace scatter trace1260f2" style="stroke-miterlimit: 2; opacity: 1;"><g class="fills"/><g class="errorbars"/><g class="lines"><path class="js-line" d="M0,148.47L20.61,148.12L24.04,148.12L68.69,147.41L72.12,147.24L99.6,146.14L103.03,146.1L147.68,144.86L151.11,144.64L182.02,142.48L185.45,142.72L206.06,143.05L209.49,142.97L281.62,140.57L285.05,140.39L326.26,139.18L329.7,139.1L340,138.87" style="vector-effect: non-scaling-stroke; fill: none; stroke: rgb(68, 1, 84); stroke-opacity: 1; stroke-width: 1px; opacity: 1;"/></g><g class="points"/><g class="text"/></g><g class="trace scatter tracebe38d4" style="stroke-miterlimit: 2; opacity: 1;"><g class="fills"/><g class="errorbars"/><g class="lines"><path class="js-line" d="M0,145.93L20.61,145.64L24.04,145.65L68.69,145.16L72.12,145L99.6,144.12L103.03,144.11L147.68,143.31L151.11,143.13L182.02,141.35L185.45,141.63L202.63,142.22L206.06,142.18L274.75,140.93L278.18,140.78L309.09,140.16L312.53,140.16L340,140.16" style="vector-effect: non-scaling-stroke; fill: none; stroke: rgb(69, 7, 90); stroke-opacity: 1; stroke-width: 1px; opacity: 1;"/></g><g class="points"/><g class="text"/></g><g class="trace scatter tracedd0e15" style="stroke-miterlimit: 2; opacity: 1;"><g class="fills"/><g class="errorbars"/><g class="lines"><path class="js-line" d="M0,148.61L17.17,148.11L20.61,148.09L65.25,147.31L68.69,147.13L99.6,145.72L103.03,145.68L144.24,144.7L147.68,144.5L171.72,142.26L175.15,141.75L182.02,142.11L185.45,142.43L202.63,143.08L206.06,143.04L285.05,141.24L288.48,141.11L322.83,140.59L326.26,140.55L340,140.42" style="vector-effect: non-scaling-stroke; fill: none; stroke: rgb(69, 14, 96); stroke-opacity: 1; stroke-width: 1px; opacity: 1;"/></g><g class="points"/><g class="text"/></g><g class="trace scatter trace353df0" style="stroke-miterlimit: 2; opacity: 1;"><g class="fills"/><g class="errorbars"/><g class="lines"><path class="js-line" d="M0,155.51L13.74,154.97L17.17,154.97L61.82,154.13L65.25,153.9L99.6,151.57L103.03,151.48L140.81,149.76L144.24,149.44L164.85,146.95L168.28,146.37L175.15,145.41L178.59,145.25L216.36,144.95L219.8,144.76L274.75,141.06L278.18,140.72L309.09,138.41L312.53,138.22L340,136.75" style="vector-effect: non-scaling-stroke; fill: none; stroke: rgb(70, 20, 101); stroke-opacity: 1; stroke-width: 1px; opacity: 1;"/></g><g class="points"/><g class="text"/></g><g class="trace scatter traceccb52c" style="stroke-miterlimit: 2; opacity: 1;"><g class="fills"/><g class="errorbars"/><g class="lines"><path class="js-line" d="M0,144.09L27.47,143.78L30.91,143.77L78.99,142.92L82.42,142.76L99.6,142.56L103.03,142.55L157.98,141.67L161.41,141.51L182.02,140.83L185.45,141.04L209.49,141.52L212.93,141.52L340,140.85" style="vector-effect: non-scaling-stroke; fill: none; stroke: rgb(71, 26, 107); stroke-opacity: 1; stroke-width: 1px; opacity: 1;"/></g><g class="points"/><g class="text"/></g><g class="trace scatter tracec3021c" style="stroke-miterlimit: 2; opacity: 1;"><g class="fills"/><g class="errorbars"/><g class="lines"><path class="js-line" d="M0,145.67L20.61,145.32L24.04,145.32L68.69,144.76L72.12,144.61L99.6,143.74L103.03,143.73L147.68,142.99L151.11,142.83L182.02,141.18L185.45,141.46L206.06,142.06L209.49,142.04L281.62,140.94L285.05,140.83L326.26,140.33L329.7,140.31L340,140.24" style="vector-effect: non-scaling-stroke; fill: none; stroke: rgb(71, 32, 113); stroke-opacity: 1; stroke-width: 1px; opacity: 1;"/></g><g class="points"/><g class="text"/></g><g class="trace scatter tracef187df" style="stroke-miterlimit: 2; opacity: 1;"><g class="fills"/><g class="errorbars"/><g class="lines"><path class="js-line" d="M0,144.65L24.04,144.3L27.47,144.29L75.56,143.48L78.99,143.32L99.6,142.91L103.03,142.9L154.55,142.06L157.98,141.9L182.02,140.95L185.45,141.18L209.49,141.7L212.93,141.69L291.92,140.95L295.35,140.9L340,140.89" style="vector-effect: non-scaling-stroke; fill: none; stroke: rgb(72, 39, 119); stroke-opacity: 1; stroke-width: 1px; opacity: 1;"/></g><g class="points"/><g class="text"/></g><g class="trace scatter trace483b14" style="stroke-miterlimit: 2; opacity: 1;"><g class="fills"/><g class="errorbars"/><g class="lines"><path class="js-line" d="M0,148.41L17.17,147.96L20.61,147.95L68.69,147.09L72.12,146.9L99.6,145.74L103.03,145.71L147.68,144.53L151.11,144.31L171.72,142.34L175.15,141.93L185.45,142.46L188.89,142.69L209.49,142.93L212.93,142.87L285.05,140.94L288.48,140.81L326.26,140.1L329.7,140.05L340,139.91" style="vector-effect: non-scaling-stroke; fill: none; stroke: rgb(71, 44, 122); stroke-opacity: 1; stroke-width: 1px; opacity: 1;"/></g><g class="points"/><g class="text"/></g><g class="trace scatter trace6732c5" style="stroke-miterlimit: 2; opacity: 1;"><g class="fills"/><g class="errorbars"/><g class="lines"><path class="js-line" d="M0,144.82L24.04,144.47L27.47,144.45L75.56,143.61L78.99,143.45L99.6,143.02L103.03,143.01L154.55,142.13L157.98,141.97L182.02,140.98L185.45,141.22L206.06,141.77L209.49,141.76L340,140.91" style="vector-effect: non-scaling-stroke; fill: none; stroke: rgb(69, 49, 125); stroke-opacity: 1; stroke-width: 1px; opacity: 1;"/></g><g class="points"/><g class="text"/></g><g class="trace scatter tracec1a40a" style="stroke-miterlimit: 2; opacity: 1;"><g class="fills"/><g class="errorbars"/><g class="lines"><path class="js-line" d="M0,144.43L24.04,144.1L27.47,144.09L75.56,143.32L78.99,143.17L99.6,142.77L103.03,142.76L154.55,141.96L157.98,141.81L182.02,140.9L185.45,141.12L209.49,141.63L212.93,141.62L340,140.88" style="vector-effect: non-scaling-stroke; fill: none; stroke: rgb(68, 55, 128); stroke-opacity: 1; stroke-width: 1px; opacity: 1;"/></g><g class="points"/><g class="text"/></g><g class="trace scatter trace8fa033" style="stroke-miterlimit: 2; opacity: 1;"><g class="fills"/><g class="errorbars"/><g class="lines"><path class="js-line" d="M0,143.48L27.47,143.21L30.91,143.2L78.99,142.49L82.42,142.35L103.03,142.17L106.46,142.16L157.98,141.43L161.41,141.3L182.02,140.71L185.45,140.89L209.49,141.32L212.93,141.32L340,140.77" style="vector-effect: non-scaling-stroke; fill: none; stroke: rgb(66, 60, 130); stroke-opacity: 1; stroke-width: 1px; opacity: 1;"/></g><g class="points"/><g class="text"/></g><g class="trace scatter trace352d84" style="stroke-miterlimit: 2; opacity: 1;"><g class="fills"/><g class="errorbars"/><g class="lines"><path class="js-line" d="M0,144.66L24.04,144.32L27.47,144.31L75.56,143.49L78.99,143.33L99.6,142.92L103.03,142.91L154.55,142.06L157.98,141.9L182.02,140.95L185.45,141.18L209.49,141.71L212.93,141.7L340,140.9" style="vector-effect: non-scaling-stroke; fill: none; stroke: rgb(64, 65, 133); stroke-opacity: 1; stroke-width: 1px; opacity: 1;"/></g><g class="points"/><g class="text"/></g><g class="trace scatter trace4f7a44" style="stroke-miterlimit: 2; opacity: 1;"><g class="fills"/><g class="errorbars"/><g class="lines"><path class="js-line" d="M0,146.65L20.61,146.21L24.04,146.19L68.69,145.42L72.12,145.25L99.6,144.27L103.03,144.25L147.68,143.37L151.11,143.2L171.72,141.55L175.15,141.08L182.02,141.47L185.45,141.75L202.63,142.39L206.06,142.37L285.05,141.22L288.48,141.13L326.26,140.83L329.7,140.82L340,140.78" style="vector-effect: non-scaling-stroke; fill: none; stroke: rgb(63, 71, 136); stroke-opacity: 1; stroke-width: 1px; opacity: 1;"/></g><g class="points"/><g class="text"/></g><g class="trace scatter trace89997d" style="stroke-miterlimit: 2; opacity: 1;"><g class="fills"/><g class="errorbars"/><g class="lines"><path class="js-line" d="M0,146.81L20.61,146.35L24.04,146.34L72.12,145.37L75.56,145.18L96.16,144.39L99.6,144.36L147.68,143.44L151.11,143.27L171.72,141.58L175.15,141.08L182.02,141.5L185.45,141.79L206.06,142.43L209.49,142.4L285.05,141.28L288.48,141.19L333.13,140.88L336.57,140.87L340,140.86" style="vector-effect: non-scaling-stroke; fill: none; stroke: rgb(61, 76, 137); stroke-opacity: 1; stroke-width: 1px; opacity: 1;"/></g><g class="points"/><g class="text"/></g><g class="trace scatter trace335659" style="stroke-miterlimit: 2; opacity: 1;"><g class="fills"/><g class="errorbars"/><g class="lines"><path class="js-line" d="M0,146.56L20.61,146.12L24.04,146.11L68.69,145.36L72.12,145.19L99.6,144.22L103.03,144.2L151.11,143.17L154.55,142.97L178.59,141.04L182.02,141.45L199.19,142.32L202.63,142.36L285.05,141.2L288.48,141.1L333.13,140.78L336.57,140.77L340,140.75" style="vector-effect: non-scaling-stroke; fill: none; stroke: rgb(59, 81, 138); stroke-opacity: 1; stroke-width: 1px; opacity: 1;"/></g><g class="points"/><g class="text"/></g><g class="trace scatter trace5cf3d5" style="stroke-miterlimit: 2; opacity: 1;"><g class="fills"/><g class="errorbars"/><g class="lines"><path class="js-line" d="M0,145.95L20.61,145.65L24.04,145.66L68.69,145.16L72.12,145.01L99.6,144.13L103.03,144.12L147.68,143.31L151.11,143.14L182.02,141.37L185.45,141.64L206.06,142.19L209.49,142.15L285.05,140.55L288.48,140.43L326.26,139.81L329.7,139.77L340,139.64" style="vector-effect: non-scaling-stroke; fill: none; stroke: rgb(45, 114, 142); stroke-opacity: 1; stroke-width: 1px; opacity: 1;"/></g><g class="points"/><g class="text"/></g><g class="trace scatter trace7881ae" style="stroke-miterlimit: 2; opacity: 1;"><g class="fills"/><g class="errorbars"/><g class="lines"><path class="js-line" d="M0,148.79L17.17,148.29L20.61,148.27L65.25,147.48L68.69,147.29L99.6,145.86L103.03,145.83L147.68,144.61L151.11,144.39L171.72,142.34L175.15,141.83L182.02,142.19L185.45,142.5L202.63,143.12L206.06,143.12L261.01,143.02L264.44,142.28L295.35,140.84L298.79,140.8L340,140.35" style="vector-effect: non-scaling-stroke; fill: none; stroke: rgb(43, 118, 142); stroke-opacity: 1; stroke-width: 1px; opacity: 1;"/></g><g class="points"/><g class="text"/></g><g class="trace scatter tracee3fabc" style="stroke-miterlimit: 2; opacity: 1;"><g class="fills"/><g class="errorbars"/><g class="lines"><path class="js-line" d="M0,155.01L13.74,154.43L17.17,154.41L58.38,153.72L61.82,153.5L103.03,150.83L106.46,150.75L140.81,149.21L144.24,148.91L168.28,145.86L171.72,145.21L178.59,144.65L182.02,144.77L195.76,145.5L199.19,145.5L223.23,144.51L226.67,144.33L247.27,144L250.71,144L264.44,144L267.88,142.14L298.79,139.6L302.22,139.44L340,137.76" style="vector-effect: non-scaling-stroke; fill: none; stroke: rgb(41, 122, 142); stroke-opacity: 1; stroke-width: 1px; opacity: 1;"/></g><g class="points"/><g class="text"/></g><g class="trace scatter trace4f0c85" style="stroke-miterlimit: 2; opacity: 1;"><g class="fills"/><g class="errorbars"/><g class="lines"><path class="js-line" d="M0,144.21L24.04,143.89L27.47,143.89L78.99,143.01L82.42,142.84L99.6,142.63L103.03,142.62L157.98,141.72L161.41,141.56L182.02,140.85L185.45,141.07L209.49,141.56L212.93,141.55L340,140.86" style="vector-effect: non-scaling-stroke; fill: none; stroke: rgb(40, 126, 142); stroke-opacity: 1; stroke-width: 1px; opacity: 1;"/></g><g class="points"/><g class="text"/></g><g class="trace scatter traceda3d69" style="stroke-miterlimit: 2; opacity: 1;"><g class="fills"/><g class="errorbars"/><g class="lines"><path class="js-line" d="M0,145.75L20.61,145.4L24.04,145.4L68.69,144.84L72.12,144.69L99.6,143.81L103.03,143.8L147.68,143.05L151.11,142.88L182.02,141.21L185.45,141.49L206.06,142.09L209.49,142.06L281.62,140.92L285.05,140.81L326.26,140.29L329.7,140.26L340,140.18" style="vector-effect: non-scaling-stroke; fill: none; stroke: rgb(38, 130, 142); stroke-opacity: 1; stroke-width: 1px; opacity: 1;"/></g><g class="points"/><g class="text"/></g><g class="trace scatter trace0071e6" style="stroke-miterlimit: 2; opacity: 1;"><g class="fills"/><g class="errorbars"/><g class="lines"><path class="js-line" d="M0,144.56L24.04,144.22L27.47,144.21L75.56,143.41L78.99,143.26L99.6,142.86L103.03,142.84L154.55,142.02L157.98,141.86L182.02,140.93L185.45,141.16L209.49,141.67L212.93,141.67L340,140.89" style="vector-effect: non-scaling-stroke; fill: none; stroke: rgb(37, 135, 141); stroke-opacity: 1; stroke-width: 1px; opacity: 1;"/></g><g class="points"/><g class="text"/></g><g class="trace scatter trace1ec58d" style="stroke-miterlimit: 2; opacity: 1;"><g class="fills"/><g class="errorbars"/><g class="lines"><path class="js-line" d="M0,148.41L17.17,147.99L20.61,147.99L68.69,147.17L72.12,146.98L96.16,145.87L99.6,145.84L144.24,144.81L147.68,144.61L171.72,142.43L175.15,142.07L185.45,142.53L188.89,142.74L209.49,142.93L212.93,142.87L281.62,140.95L285.05,140.79L326.26,139.85L329.7,139.8L340,139.63" style="vector-effect: non-scaling-stroke; fill: none; stroke: rgb(36, 140, 140); stroke-opacity: 1; stroke-width: 1px; opacity: 1;"/></g><g class="points"/><g class="text"/></g><g class="trace scatter trace5bca83" style="stroke-miterlimit: 2; opacity: 1;"><g class="fills"/><g class="errorbars"/><g class="lines"><path class="js-line" d="M0,144.7L24.04,144.35L27.47,144.34L75.56,143.52L78.99,143.36L99.6,142.94L103.03,142.93L154.55,142.08L157.98,141.92L182.02,140.96L185.45,141.19L209.49,141.72L212.93,141.71L340,140.9" style="vector-effect: non-scaling-stroke; fill: none; stroke: rgb(34, 144, 140); stroke-opacity: 1; stroke-width: 1px; opacity: 1;"/></g><g class="points"/><g class="text"/></g><g class="trace scatter trace5aa5ee" style="stroke-miterlimit: 2; opacity: 1;"><g class="fills"/><g class="errorbars"/><g class="lines"><path class="js-line" d="M0,144.61L24.04,144.26L27.47,144.25L75.56,143.45L78.99,143.29L99.6,142.88L103.03,142.87L154.55,142.04L157.98,141.88L182.02,140.94L185.45,141.17L209.49,141.69L212.93,141.68L340,140.89" style="vector-effect: non-scaling-stroke; fill: none; stroke: rgb(33, 148, 139); stroke-opacity: 1; stroke-width: 1px; opacity: 1;"/></g><g class="points"/><g class="text"/></g><g class="trace scatter traceb9b2cf" style="stroke-miterlimit: 2; opacity: 1;"><g class="fills"/><g class="errorbars"/><g class="lines"><path class="js-line" d="M0,143.51L30.91,143.24L34.34,143.23L82.42,142.37L85.86,142.22L154.55,141.57L157.98,141.45L182.02,140.72L185.45,140.9L209.49,141.33L212.93,141.33L340,140.78" style="vector-effect: non-scaling-stroke; fill: none; stroke: rgb(32, 153, 138); stroke-opacity: 1; stroke-width: 1px; opacity: 1;"/></g><g class="points"/><g class="text"/></g><g class="trace scatter trace6cccc4" style="stroke-miterlimit: 2; opacity: 1;"><g class="fills"/><g class="errorbars"/><g class="lines"><path class="js-line" d="M0,144.79L24.04,144.44L27.47,144.43L75.56,143.59L78.99,143.43L99.6,143L103.03,142.99L154.55,142.12L157.98,141.95L182.02,140.98L185.45,141.21L206.06,141.76L209.49,141.75L340,140.91" style="vector-effect: non-scaling-stroke; fill: none; stroke: rgb(31, 158, 137); stroke-opacity: 1; stroke-width: 1px; opacity: 1;"/></g><g class="points"/><g class="text"/></g><g class="trace scatter trace02073b" style="stroke-miterlimit: 2; opacity: 1;"><g class="fills"/><g class="errorbars"/><g class="lines"><path class="js-line" d="M0,146.45L20.61,146.02L24.04,146.01L72.12,145.1L75.56,144.91L96.16,144.16L99.6,144.14L151.11,143.1L154.55,142.91L178.59,141L182.02,141.41L199.19,142.28L202.63,142.32L288.48,141.11L291.92,141.03L333.13,140.8L336.57,140.79L340,140.78" style="vector-effect: non-scaling-stroke; fill: none; stroke: rgb(34, 162, 135); stroke-opacity: 1; stroke-width: 1px; opacity: 1;"/></g><g class="points"/><g class="text"/></g><g class="trace scatter tracec37f10" style="stroke-miterlimit: 2; opacity: 1;"><g class="fills"/><g class="errorbars"/><g class="lines"><path class="js-line" d="M0,146.53L17.17,146.04L20.61,146.04L68.69,145.3L72.12,145.14L99.6,144.17L103.03,144.15L151.11,143.12L154.55,142.93L178.59,140.98L182.02,141.42L202.63,142.35L206.06,142.33L291.92,141.1L295.35,141.02L340,140.89" style="vector-effect: non-scaling-stroke; fill: none; stroke: rgb(38, 166, 132); stroke-opacity: 1; stroke-width: 1px; opacity: 1;"/></g><g class="points"/><g class="text"/></g><g class="trace scatter trace8d793b" style="stroke-miterlimit: 2; opacity: 1;"><g class="fills"/><g class="errorbars"/><g class="lines"><path class="js-line" d="M0,146.49L20.61,146.05L24.04,146.04L68.69,145.29L72.12,145.12L99.6,144.16L103.03,144.14L120.2,143.96L123.64,143.96L147.68,143.29L151.11,143.12L171.72,141.5L175.15,141.03L185.45,141.7L188.89,141.93L209.49,142.3L212.93,142.27L288.48,141.12L291.92,141.03L340,140.79" style="vector-effect: non-scaling-stroke; fill: none; stroke: rgb(41, 170, 130); stroke-opacity: 1; stroke-width: 1px; opacity: 1;"/></g><g class="points"/><g class="text"/></g><g class="trace scatter tracec8e4f7" style="stroke-miterlimit: 2; opacity: 1;"><g class="fills"/><g class="errorbars"/><g class="lines"><path class="js-line" d="M0,139.41L30.91,141.55L34.34,141.74L99.6,144.52L103.03,144.53L154.55,143.95L157.98,143.89L171.72,143.92L175.15,146.4L178.59,146.2L182.02,143.33L199.19,141.41L202.63,141.1L254.14,136.08L257.58,135.69L340,126.31" style="vector-effect: non-scaling-stroke; fill: none; stroke: rgb(45, 174, 127); stroke-opacity: 1; stroke-width: 1px; opacity: 1;"/></g><g class="points"/><g class="text"/></g><g class="trace scatter trace207333" style="stroke-miterlimit: 2; opacity: 1;"><g class="fills"/><g class="errorbars"/><g class="lines"><path class="js-line" d="M0,148.74L17.17,148.25L20.61,148.23L68.69,147.27L72.12,147.06L96.16,145.81L99.6,145.81L137.37,145.17L140.81,145L168.28,142.81L171.72,142.34L178.59,141.78L182.02,142.18L199.19,143.1L202.63,143.13L281.62,141.32L285.05,141.18L322.83,140.47L326.26,140.44L340,140.29" style="vector-effect: non-scaling-stroke; fill: none; stroke: rgb(96, 200, 96); stroke-opacity: 1; stroke-width: 1px; opacity: 1;"/></g><g class="points"/><g class="text"/></g><g class="trace scatter trace31f60d" style="stroke-miterlimit: 2; opacity: 1;"><g class="fills"/><g class="errorbars"/><g class="lines"><path class="js-line" d="M0,156.64L13.74,156.06L17.17,156.05L58.38,155.35L61.82,155.12L82.42,153.17L85.86,151.07L140.81,150.44L144.24,150.1L164.85,147.46L168.28,146.84L175.15,145.83L178.59,145.71L188.89,146.09L192.32,146.2L209.49,145.74L212.93,145.55L274.75,141.22L278.18,140.85L309.09,138.44L312.53,138.24L340,136.69" style="vector-effect: non-scaling-stroke; fill: none; stroke: rgb(105, 204, 91); stroke-opacity: 1; stroke-width: 1px; opacity: 1;"/></g><g class="points"/><g class="text"/></g><g class="trace scatter traceed3d66" style="stroke-miterlimit: 2; opacity: 1;"><g class="fills"/><g class="errorbars"/><g class="lines"><path class="js-line" d="M0,144.03L27.47,143.72L30.91,143.71L78.99,142.88L82.42,142.72L96.16,142.48L99.6,142.48L154.55,141.79L157.98,141.65L178.59,140.3L182.02,140.82L206.06,141.51L209.49,141.5L340,140.84" style="vector-effect: non-scaling-stroke; fill: none; stroke: rgb(115, 207, 85); stroke-opacity: 1; stroke-width: 1px; opacity: 1;"/></g><g class="points"/><g class="text"/></g><g class="trace scatter trace717d5b" style="stroke-miterlimit: 2; opacity: 1;"><g class="fills"/><g class="errorbars"/><g class="lines"><path class="js-line" d="M0,145.78L20.61,145.43L24.04,145.44L72.12,144.72L75.56,144.55L96.16,143.85L99.6,143.84L147.68,143.07L151.11,142.91L182.02,141.23L185.45,141.51L206.06,142.1L209.49,142.07L281.62,140.92L285.05,140.81L326.26,140.28L329.7,140.26L340,140.18" style="vector-effect: non-scaling-stroke; fill: none; stroke: rgb(126, 210, 78); stroke-opacity: 1; stroke-width: 1px; opacity: 1;"/></g><g class="points"/><g class="text"/></g><g class="trace scatter trace920b47" style="stroke-miterlimit: 2; opacity: 1;"><g class="fills"/><g class="errorbars"/><g class="lines"><path class="js-line" d="M0,144.53L24.04,144.2L27.47,144.19L75.56,143.4L78.99,143.24L99.6,142.84L103.03,142.83L157.98,141.85L161.41,141.67L182.02,140.92L185.45,141.15L209.49,141.66L212.93,141.66L340,140.89" style="vector-effect: non-scaling-stroke; fill: none; stroke: rgb(138, 212, 70); stroke-opacity: 1; stroke-width: 1px; opacity: 1;"/></g><g class="points"/><g class="text"/></g><g class="trace scatter trace2cf0fa" style="stroke-miterlimit: 2; opacity: 1;"><g class="fills"/><g class="errorbars"/><g class="lines"><path class="js-line" d="M0,147.91L17.17,147.47L20.61,147.46L68.69,146.62L72.12,146.44L99.6,145.33L103.03,145.3L147.68,144.2L151.11,144L171.72,142.11L175.15,141.69L185.45,142.26L188.89,142.49L209.49,142.76L212.93,142.72L285.05,141.01L288.48,140.88L329.7,140.25L333.13,140.21L340,140.14" style="vector-effect: non-scaling-stroke; fill: none; stroke: rgb(149, 215, 63); stroke-opacity: 1; stroke-width: 1px; opacity: 1;"/></g><g class="points"/><g class="text"/></g><g class="trace scatter trace272009" style="stroke-miterlimit: 2; opacity: 1;"><g class="fills"/><g class="errorbars"/><g class="lines"><path class="js-line" d="M0,144.71L24.04,144.36L27.47,144.35L75.56,143.53L78.99,143.37L99.6,142.95L103.03,142.94L154.55,142.08L157.98,141.92L178.59,140.3L182.02,140.96L202.63,141.74L206.06,141.73L340,140.9" style="vector-effect: non-scaling-stroke; fill: none; stroke: rgb(161, 217, 56); stroke-opacity: 1; stroke-width: 1px; opacity: 1;"/></g><g class="points"/><g class="text"/></g><g class="trace scatter traced92398" style="stroke-miterlimit: 2; opacity: 1;"><g class="fills"/><g class="errorbars"/><g class="lines"><path class="js-line" d="M0,144.54L24.04,144.04L27.47,144.04L75.56,143.4L78.99,143.25L99.6,142.84L103.03,142.83L154.55,142.01L157.98,141.85L182.02,140.92L185.45,141.15L209.49,141.67L212.93,141.66L340,140.89" style="vector-effect: non-scaling-stroke; fill: none; stroke: rgb(172, 220, 49); stroke-opacity: 1; stroke-width: 1px; opacity: 1;"/></g><g class="points"/><g class="text"/></g><g class="trace scatter traceb4059f" style="stroke-miterlimit: 2; opacity: 1;"><g class="fills"/><g class="errorbars"/><g class="lines"><path class="js-line" d="M0,143.49L27.47,143.21L30.91,143.21L78.99,142.5L82.42,142.36L103.03,142.18L106.46,142.18L161.41,141.3L164.85,141.14L182.02,140.71L185.45,140.9L212.93,141.33L216.36,141.32L340,140.77" style="vector-effect: non-scaling-stroke; fill: none; stroke: rgb(184, 222, 43); stroke-opacity: 1; stroke-width: 1px; opacity: 1;"/></g><g class="points"/><g class="text"/></g><g class="trace scatter trace4cf89b" style="stroke-miterlimit: 2; opacity: 1;"><g class="fills"/><g class="errorbars"/><g class="lines"><path class="js-line" d="M0,144.75L24.04,144.4L27.47,144.39L75.56,143.56L78.99,143.4L99.6,142.87L103.03,142.87L151.11,142.24L154.55,142.1L182.02,140.61L185.45,141.2L199.19,141.71L202.63,141.21L340,140.92" style="vector-effect: non-scaling-stroke; fill: none; stroke: rgb(195, 224, 42); stroke-opacity: 1; stroke-width: 1px; opacity: 1;"/></g><g class="points"/><g class="text"/></g><g class="trace scatter trace19302a" style="stroke-miterlimit: 2; opacity: 1;"><g class="fills"/><g class="errorbars"/><g class="lines"><path class="js-line" d="M0,146.6L20.61,146.16L24.04,146.14L68.69,145.38L72.12,145.21L99.6,144.24L103.03,144.22L147.68,143.35L151.11,143.18L171.72,141.54L175.15,141.07L182.02,141.45L185.45,141.74L206.06,142.35L209.49,142.33L285.05,141.21L288.48,141.12L333.13,140.8L336.57,140.79L340,140.78" style="vector-effect: non-scaling-stroke; fill: none; stroke: rgb(207, 225, 41); stroke-opacity: 1; stroke-width: 1px; opacity: 1;"/></g><g class="points"/><g class="text"/></g><g class="trace scatter trace7e2093" style="stroke-miterlimit: 2; opacity: 1;"><g class="fills"/><g class="errorbars"/><g class="lines"><path class="js-line" d="M0,146.85L20.61,146.39L24.04,146.37L68.69,145.57L72.12,145.39L99.6,144.38L103.03,144.36L147.68,143.46L151.11,143.28L171.72,141.59L175.15,141.09L182.02,141.5L185.45,141.8L206.06,142.44L209.49,142.41L285.05,141.29L288.48,141.2L326.26,140.91L329.7,140.9L340,140.87" style="vector-effect: non-scaling-stroke; fill: none; stroke: rgb(218, 227, 40); stroke-opacity: 1; stroke-width: 1px; opacity: 1;"/></g><g class="points"/><g class="text"/></g><g class="trace scatter traceddaebb" style="stroke-miterlimit: 2; opacity: 1;"><g class="fills"/><g class="errorbars"/><g class="lines"><path class="js-line" d="M0,146.69L17.17,146.26L20.61,146.24L68.69,145.45L72.12,145.29L99.6,144.3L103.03,144.28L147.68,143.4L151.11,143.22L171.72,141.57L175.15,141.09L185.45,141.77L188.89,141.99L209.49,142.36L212.93,142.34L291.92,141.03L295.35,140.95L340,140.76" style="vector-effect: non-scaling-stroke; fill: none; stroke: rgb(230, 228, 39); stroke-opacity: 1; stroke-width: 1px; opacity: 1;"/></g><g class="points"/><g class="text"/></g><g class="trace scatter trace177f36" style="stroke-miterlimit: 2; opacity: 1;"><g class="fills"/><g class="errorbars"/><g class="lines"><path class="js-line" d="M0,139.1L27.47,141.12L30.91,141.32L96.16,144.44L99.6,144.47L147.68,144.03L151.11,143.98L171.72,143.97L175.15,146.51L178.59,146.31L182.02,143.38L199.19,141.35L202.63,141.02L257.58,135.48L261.01,135.09L340,125.9" style="vector-effect: non-scaling-stroke; fill: none; stroke: rgb(241, 230, 38); stroke-opacity: 1; stroke-width: 1px; opacity: 1;"/></g><g class="points"/><g class="text"/></g><g class="trace scatter trace555b3e" style="stroke-miterlimit: 2; opacity: 1;"><g class="fills"/><g class="errorbars"/><g class="lines"><path class="js-line" d="M0,144.73L24.04,144.38L27.47,144.37L75.56,143.55L78.99,143.39L99.6,142.96L103.03,142.95L154.55,142.09L157.98,141.93L178.59,140.3L182.02,140.97L202.63,141.74L206.06,141.74L340,140.9" style="vector-effect: non-scaling-stroke; fill: none; stroke: rgb(253, 231, 37); stroke-opacity: 1; stroke-width: 1px; opacity: 1;"/></g><g class="points"/><g class="text"/></g><g class="trace scatter trace791e35" style="stroke-miterlimit: 2; opacity: 1;"><g class="fills"/><g class="errorbars"/><g class="lines"><path class="js-line" d="M0,258.4L54.95,224.12L58.38,221.92L109.9,187.96L113.33,185.64L164.85,149.81L168.28,147.35L216.36,112.13L219.8,109.55L271.31,69.8L274.75,67.08L326.26,25.14L329.7,22.27L340,13.6" style="vector-effect: non-scaling-stroke; fill: none; stroke: rgb(169, 169, 169); stroke-opacity: 1; stroke-width: 2px; opacity: 1;"/></g><g class="points"/><g class="text"/></g></g></g><g class="overplot"/><path class="xlines-above crisp" d="M0,0" style="fill: none;"/><path class="ylines-above crisp" d="M0,0" style="fill: none;"/><g class="overlines-above"/><g class="xaxislayer-above"><g class="x3tick"><text text-anchor="middle" x="0" y="1133" transform="translate(108.81,0)" style="font-family: 'Open Sans', verdana, arial, sans-serif; font-size: 12px; fill: rgb(42, 63, 95); fill-opacity: 1; white-space: pre; opacity: 1;">1.4</text></g><g class="x3tick"><text text-anchor="middle" x="0" y="1133" style="font-family: 'Open Sans', verdana, arial, sans-serif; font-size: 12px; fill: rgb(42, 63, 95); fill-opacity: 1; white-space: pre; opacity: 1;" transform="translate(211.35,0)">1.5</text></g><g class="x3tick"><text text-anchor="middle" x="0" y="1133" style="font-family: 'Open Sans', verdana, arial, sans-serif; font-size: 12px; fill: rgb(42, 63, 95); fill-opacity: 1; white-space: pre; opacity: 1;" transform="translate(313.89,0)">1.6</text></g><g class="x3tick"><text text-anchor="middle" x="0" y="1133" style="font-family: 'Open Sans', verdana, arial, sans-serif; font-size: 12px; fill: rgb(42, 63, 95); fill-opacity: 1; white-space: pre; opacity: 1;" transform="translate(416.43,0)">1.7</text></g></g><g class="yaxislayer-above"><g class="y3tick"><text text-anchor="end" x="79" y="4.199999999999999" transform="translate(0,1067.2600000000002)" style="font-family: 'Open Sans', verdana, arial, sans-serif; font-size: 12px; fill: rgb(42, 63, 95); fill-opacity: 1; white-space: pre; opacity: 1;">−0.5</text></g><g class="y3tick"><text text-anchor="end" x="79" y="4.199999999999999" style="font-family: 'Open Sans', verdana, arial, sans-serif; font-size: 12px; fill: rgb(42, 63, 95); fill-opacity: 1; white-space: pre; opacity: 1;" transform="translate(0,988.3000000000002)">0</text></g><g class="y3tick"><text text-anchor="end" x="79" y="4.199999999999999" style="font-family: 'Open Sans', verdana, arial, sans-serif; font-size: 12px; fill: rgb(42, 63, 95); fill-opacity: 1; white-space: pre; opacity: 1;" transform="translate(0,909.3400000000001)">0.5</text></g></g><g class="overaxes-above"/></g></g><g class="polarlayer"/><g class="smithlayer"/><g class="ternarylayer"/><g class="geolayer"/><g class="funnelarealayer"/><g class="pielayer"/><g class="iciclelayer"/><g class="treemaplayer"/><g class="sunburstlayer"/><g class="glimages"/><defs id="topdefs-42955f"><g class="clips"/><clipPath id="legend42955f"><rect width="188" height="29" x="0" y="0"/></clipPath></defs><g class="layer-above"><g class="imagelayer"/><g class="shapelayer"/></g><g class="infolayer"><g class="legend" pointer-events="all" transform="translate(232,50.59999999999998)"><rect class="bg" shape-rendering="crispEdges" width="188" height="29" x="0" y="0" style="stroke: rgb(68, 68, 68); stroke-opacity: 1; fill: rgb(255, 255, 255); fill-opacity: 1; stroke-width: 0px;"/><g class="scrollbox" transform="" clip-path="url(#legend42955f)"><g class="groups"><g class="traces" transform="translate(0,14.5)" style="opacity: 1;"><text class="legendtext" text-anchor="start" x="40" y="4.680000000000001" style="font-family: 'Open Sans', verdana, arial, sans-serif; font-size: 12px; fill: rgb(42, 63, 95); fill-opacity: 1; white-space: pre;">Population Log-likelihood</text><g class="layers" style="opacity: 1;"><g class="legendfill"/><g class="legendlines"><path class="js-line" d="M5,0h30" style="fill: none; stroke: rgb(169, 169, 169); stroke-opacity: 1; stroke-width: 2px;"/></g><g class="legendsymbols"><g class="legendpoints"/></g></g><rect class="legendtoggle" x="0" y="-9.5" width="184.703125" height="19" style="fill: rgb(0, 0, 0); fill-opacity: 0;"/></g></g></g><rect class="scrollbar" rx="20" ry="3" width="0" height="0" x="0" y="0" style="fill: rgb(128, 139, 164); fill-opacity: 1;"/></g><g class="g-gtitle"/><g class="g-xtitle"/><g class="g-x2title"/><g class="g-x3title"/><g class="g-ytitle"/><g class="g-y2title"/><g class="g-y3title"/></g></svg>