<svg class="main-svg" xmlns="http://www.w3.org/2000/svg" xmlns:xlink="http://www.w3.org/1999/xlink" width="500" height="1200" style="" viewBox="0 0 500 1200"><rect x="0" y="0" width="500" height="1200" style="fill: rgb(255, 255, 255); fill-opacity: 1;"/><defs id="defs-9d81cc"><g class="clips"><clipPath id="clip9d81ccxyplot" class="plotclip"><rect width="340" height="272.00000000000006"/></clipPath><clipPath id="clip9d81ccx2y2plot" class="plotclip"><rect width="340" height="272"/></clipPath><clipPath id="clip9d81ccx3y3plot" class="plotclip"><rect width="340" height="272"/></clipPath><clipPath class="axesclip" id="clip9d81ccx"><rect x="80" y="0" width="340" height="1200"/></clipPath><clipPath class="axesclip" id="clip9d81ccy"><rect x="0" y="100" width="500" height="272.00000000000006"/></clipPath><clipPath class="axesclip" id="clip9d81ccxy"><rect x="80" y="100" width="340" height="272.00000000000006"/></clipPath><clipPath class="axesclip" id="clip9d81ccy2"><rect x="0" y="474.00000000000006" width="500" height="272"/></clipPath><clipPath class="axesclip" id="clip9d81ccxy2"><rect x="80" y="474.00000000000006" width="340" height="272"/></clipPath><clipPath class="axesclip" id="clip9d81ccy3"><rect x="0" y="848.0000000000001" width="500" height="272"/></clipPath><clipPath class="axesclip" id="clip9d81ccxy3"><rect x="80" y="848.0000000000001" width="340" height="272"/></clipPath><clipPath class="axesclip" id="clip9d81ccx2"><rect x="80" y="0" width="340" height="1200"/></clipPath><clipPath class="axesclip" id="clip9d81ccx2y"><rect x="80" y="100" width="340" height="272.00000000000006"/></clipPath><clipPath class="axesclip" id="clip9d81ccx2y2"><rect x="80" y="474.00000000000006" width="340" height="272"/></clipPath><clipPath class="axesclip" id="clip9d81ccx2y3"><rect x="80" y="848.0000000000001" width="340" height="272"/></clipPath><clipPath class="axesclip" id="clip9d81ccx3"><rect x="80" y="0" width="340" height="1200"/></clipPath><clipPath class="axesclip" id="clip9d81ccx3y"><rect x="80" y="100" width="340" height="272.00000000000006"/></clipPath><clipPath class="axesclip" id="clip9d81ccx3y2"><rect x="80" y="474.00000000000006" width="340" height="272"/></clipPath><clipPath class="axesclip" id="clip9d81ccx3y3"><rect x="80" y="848.0000000000001" width="340" height="272"/></clipPath></g><g class="gradients"/><g class="patterns"/></defs><g class="bglayer"/><g class="layer-below"><g class="imagelayer"/><g class="shapelayer"/></g><g class="cartesianlayer"><g class="subplot xy"><g class="layer-subplot"><g class="shapelayer"/><g class="imagelayer"/></g><g class="minor-gridlayer"><g class="x"/><g class="y"/></g><g class="gridlayer"><g class="x"><path class="xgrid crisp" transform="translate(148,0)" d="M0,100v272.00000000000006" style="stroke: rgb(235, 240, 248); stroke-opacity: 1; stroke-width: 1px;"/><path class="xgrid crisp" transform="translate(216,0)" d="M0,100v272.00000000000006" style="stroke: rgb(235, 240, 248); stroke-opacity: 1; stroke-width: 1px;"/><path class="xgrid crisp" transform="translate(284,0)" d="M0,100v272.00000000000006" style="stroke: rgb(235, 240, 248); stroke-opacity: 1; stroke-width: 1px;"/><path class="xgrid crisp" transform="translate(352,0)" d="M0,100v272.00000000000006" style="stroke: rgb(235, 240, 248); stroke-opacity: 1; stroke-width: 1px;"/></g><g class="y"><path class="ygrid crisp" transform="translate(0,334.14)" d="M80,0h340" style="stroke: rgb(235, 240, 248); stroke-opacity: 1; stroke-width: 1px;"/><path class="ygrid crisp" transform="translate(0,290.03)" d="M80,0h340" style="stroke: rgb(235, 240, 248); stroke-opacity: 1; stroke-width: 1px;"/><path class="ygrid crisp" transform="translate(0,245.92)" d="M80,0h340" style="stroke: rgb(235, 240, 248); stroke-opacity: 1; stroke-width: 1px;"/><path class="ygrid crisp" transform="translate(0,201.81)" d="M80,0h340" style="stroke: rgb(235, 240, 248); stroke-opacity: 1; stroke-width: 1px;"/><path class="ygrid crisp" transform="translate(0,157.71)" d="M80,0h340" style="stroke: rgb(235, 240, 248); stroke-opacity: 1; stroke-width: 1px;"/></g></g><g class="zerolinelayer"><path class="yzl zl crisp" transform="translate(0,113.6)" d="M80,0h340" style="stroke: rgb(235, 240, 248); stroke-opacity: 1; stroke-width: 2px;"/></g><path class="xlines-below"/><path class="ylines-below"/><g class="overlines-below"/><g class="xaxislayer-below"/><g class="yaxislayer-below"/><g class="overaxes-below"/><g class="plot" transform="translate(80,100)" clip-path="url(#clip9d81ccxyplot)"><g class="scatterlayer mlayer"><g class="trace scatter traced3eef6" style="stroke-miterlimit: 2; opacity: 1;"><g class="fills"/><g class="errorbars"/><g class="lines"><path class="js-line" d="M0,258.4L17.17,213.04L20.61,204.54L37.78,164.87L41.21,157.56L54.95,129.89L58.38,123.43L72.12,99.58L75.56,94.07L89.29,73.75L92.73,69.23L106.46,52.75L109.9,49.38L123.64,36.11L127.07,33.34L137.37,26.14L140.81,24.1L151.11,19.02L154.55,17.74L164.85,14.92L168.28,14.26L178.59,13.6L182.02,13.76L192.32,15.23L195.76,16.04L206.06,19.61L209.49,21.21L219.8,26.93L223.23,29.11L233.54,36.94L236.97,39.84L250.71,53.36L254.14,57.23L267.88,74.17L271.31,78.91L285.05,99.46L288.48,105.08L302.22,129.07L305.66,135.26L322.83,169.95L326.26,177.31L340,208.66" style="vector-effect: non-scaling-stroke; fill: none; stroke: rgb(169, 169, 169); stroke-opacity: 1; stroke-width: 2px; opacity: 1;"/></g><g class="points"/><g class="text"/></g></g></g><g class="overplot"/><path class="xlines-above crisp" d="M0,0" style="fill: none;"/><path class="ylines-above crisp" d="M0,0" style="fill: none;"/><g class="overlines-above"/><g class="xaxislayer-above"/><g class="yaxislayer-above"><g class="ytick"><text text-anchor="end" x="79" y="4.199999999999999" transform="translate(0,334.14)" style="font-family: 'Open Sans', verdana, arial, sans-serif; font-size: 12px; fill: rgb(42, 63, 95); fill-opacity: 1; white-space: pre; opacity: 1;">−5</text></g><g class="ytick"><text text-anchor="end" x="79" y="4.199999999999999" style="font-family: 'Open Sans', verdana, arial, sans-serif; font-size: 12px; fill: rgb(42, 63, 95); fill-opacity: 1; white-space: pre; opacity: 1;" transform="translate(0,290.03)">−4</text></g><g class="ytick"><text text-anchor="end" x="79" y="4.199999999999999" style="font-family: 'Open Sans', verdana, arial, sans-serif; font-size: 12px; fill: rgb(42, 63, 95); fill-opacity: 1; white-space: pre; opacity: 1;" transform="translate(0,245.92)">−3</text></g><g class="ytick"><text text-anchor="end" x="79" y="4.199999999999999" style="font-family: 'Open Sans', verdana, arial, sans-serif; font-size: 12px; fill: rgb(42, 63, 95); fill-opacity: 1; white-space: pre; opacity: 1;" transform="translate(0,201.81)">−2</text></g><g class="ytick"><text text-anchor="end" x="79" y="4.199999999999999" style="font-family: 'Open Sans', verdana, arial, sans-serif; font-size: 12px; fill: rgb(42, 63, 95); fill-opacity: 1; white-space: pre; opacity: 1;" transform="translate(0,157.71)">−1</text></g><g class="ytick"><text text-anchor="end" x="79" y="4.199999999999999" style="font-family: 'Open Sans', verdana, arial, sans-serif; font-size: 12px; fill: rgb(42, 63, 95); fill-opacity: 1; white-space: pre; opacity: 1;" transform="translate(0,113.6)">0</text></g></g><g class="overaxes-above"/></g><g class="subplot x2y2"><g class="layer-subplot"><g class="shapelayer"/><g class="imagelayer"/></g><g class="minor-gridlayer"><g class="x2"/><g class="y2"/></g><g class="gridlayer"><g class="x2"><path class="x2grid crisp" transform="translate(148,0)" d="M0,474.00000000000006v272" style="stroke: rgb(235, 240, 248); stroke-opacity: 1; stroke-width: 1px;"/><path class="x2grid crisp" transform="translate(216,0)" d="M0,474.00000000000006v272" style="stroke: rgb(235, 240, 248); stroke-opacity: 1; stroke-width: 1px;"/><path class="x2grid crisp" transform="translate(284,0)" d="M0,474.00000000000006v272" style="stroke: rgb(235, 240, 248); stroke-opacity: 1; stroke-width: 1px;"/><path class="x2grid crisp" transform="translate(352,0)" d="M0,474.00000000000006v272" style="stroke: rgb(235, 240, 248); stroke-opacity: 1; stroke-width: 1px;"/></g><g class="y2"><path class="y2grid crisp" transform="translate(0,701.1600000000001)" d="M80,0h340" style="stroke: rgb(235, 240, 248); stroke-opacity: 1; stroke-width: 1px;"/><path class="y2grid crisp" transform="translate(0,577.08)" d="M80,0h340" style="stroke: rgb(235, 240, 248); stroke-opacity: 1; stroke-width: 1px;"/><path class="y2grid crisp" transform="translate(0,515.0400000000001)" d="M80,0h340" style="stroke: rgb(235, 240, 248); stroke-opacity: 1; stroke-width: 1px;"/></g></g><g class="zerolinelayer"><path class="y2zl zl crisp" transform="translate(0,639.1200000000001)" d="M80,0h340" style="stroke: rgb(235, 240, 248); stroke-opacity: 1; stroke-width: 2px;"/></g><path class="xlines-below"/><path class="ylines-below"/><g class="overlines-below"/><g class="xaxislayer-below"/><g class="yaxislayer-below"/><g class="overaxes-below"/><g class="plot" transform="translate(80,474.00000000000006)" clip-path="url(#clip9d81ccx2y2plot)"><g class="scatterlayer mlayer"><g class="trace scatter trace7a1d20" style="stroke-miterlimit: 2; opacity: 1;"><g class="fills"/><g class="errorbars"/><g class="lines"><path class="js-line" d="M0,157.71L27.47,158.35L30.91,158.44L137.37,162.41L140.81,162.58L312.53,174.19L315.96,174.52L340,176.62" style="vector-effect: non-scaling-stroke; fill: none; stroke: rgb(68, 1, 84); stroke-opacity: 1; stroke-width: 1px; opacity: 1;"/></g><g class="points"/><g class="text"/></g><g class="trace scatter tracec92903" style="stroke-miterlimit: 2; opacity: 1;"><g class="fills"/><g class="errorbars"/><g class="lines"><path class="js-line" d="M0,17.96L3.43,20.04L6.87,23.09L41.21,48.53L44.65,51.28L106.46,96.61L109.9,97.23L123.64,108.53L127.07,111.09L185.45,152.94L188.89,154.92L219.8,176.34L223.23,179.16L247.27,195.03L250.71,197.42L285.05,220.05L288.48,222.71L322.83,244.58L326.26,247.21L329.7,248.7L333.13,251.38L340,255.69" style="vector-effect: non-scaling-stroke; fill: none; stroke: rgb(69, 7, 90); stroke-opacity: 1; stroke-width: 1px; opacity: 1;"/></g><g class="points"/><g class="text"/></g><g class="trace scatter trace468f8b" style="stroke-miterlimit: 2; opacity: 1;"><g class="fills"/><g class="errorbars"/><g class="lines"><path class="js-line" d="M0,180.99L24.04,178.73L27.47,178.47L106.46,171.9L109.9,172.03L140.81,169.44L144.24,169.25L178.59,167.04L182.02,166.83L226.67,164.39L230.1,164.23L326.26,160.35L329.7,160.38L340,160" style="vector-effect: non-scaling-stroke; fill: none; stroke: rgb(69, 14, 96); stroke-opacity: 1; stroke-width: 1px; opacity: 1;"/></g><g class="points"/><g class="text"/></g><g class="trace scatter tracefe5196" style="stroke-miterlimit: 2; opacity: 1;"><g class="fills"/><g class="errorbars"/><g class="lines"><path class="js-line" d="M0,197.16L44.65,189.38L48.08,188.8L92.73,181.45L96.16,180.91L137.37,174.43L140.81,173.91L278.18,155.13L281.62,154.76L340,147.94" style="vector-effect: non-scaling-stroke; fill: none; stroke: rgb(70, 20, 101); stroke-opacity: 1; stroke-width: 1px; opacity: 1;"/></g><g class="points"/><g class="text"/></g><g class="trace scatter trace2787d7" style="stroke-miterlimit: 2; opacity: 1;"><g class="fills"/><g class="errorbars"/><g class="lines"><path class="js-line" d="M0,189.21L48.08,183.02L51.52,182.57L202.63,165.1L206.06,164.73L261.01,159.19L264.44,158.88L305.66,154.92L309.09,154.71L340,151.97" style="vector-effect: non-scaling-stroke; fill: none; stroke: rgb(71, 26, 107); stroke-opacity: 1; stroke-width: 1px; opacity: 1;"/></g><g class="points"/><g class="text"/></g><g class="trace scatter trace22d0a8" style="stroke-miterlimit: 2; opacity: 1;"><g class="fills"/><g class="errorbars"/><g class="lines"><path class="js-line" d="M0,13.6L3.43,15.74L6.87,18.9L41.21,45.12L44.65,47.95L106.46,94.63L109.9,95.27L123.64,106.92L127.07,109.56L185.45,152.54L188.89,154.58L219.8,176.6L223.23,179.54L247.27,195.92L250.71,198.38L285.05,221.71L288.48,224.44L322.83,246.96L326.26,249.68L329.7,251.2L333.13,253.96L340,258.4" style="vector-effect: non-scaling-stroke; fill: none; stroke: rgb(71, 32, 113); stroke-opacity: 1; stroke-width: 1px; opacity: 1;"/></g><g class="points"/><g class="text"/></g><g class="trace scatter tracea082a0" style="stroke-miterlimit: 2; opacity: 1;"><g class="fills"/><g class="errorbars"/><g class="lines"><path class="js-line" d="M0,200.85L123.64,178.17L127.07,177.56L233.54,159.12L236.97,158.56L340,142.11" style="vector-effect: non-scaling-stroke; fill: none; stroke: rgb(72, 39, 119); stroke-opacity: 1; stroke-width: 1px; opacity: 1;"/></g><g class="points"/><g class="text"/></g><g class="trace scatter trace8f4983" style="stroke-miterlimit: 2; opacity: 1;"><g class="fills"/><g class="errorbars"/><g class="lines"><path class="js-line" d="M0,163.21L20.61,163.15L24.04,163.06L185.45,165.5L188.89,165.7L291.92,170.17L295.35,170.4L340,173" style="vector-effect: non-scaling-stroke; fill: none; stroke: rgb(71, 44, 122); stroke-opacity: 1; stroke-width: 1px; opacity: 1;"/></g><g class="points"/><g class="text"/></g><g class="trace scatter tracecd1451" style="stroke-miterlimit: 2; opacity: 1;"><g class="fills"/><g class="errorbars"/><g class="lines"><path class="js-line" d="M0,208.33L34.34,200.64L37.78,199.89L216.36,160.56L219.8,159.8L271.31,148.87L274.75,148.13L340,134.5" style="vector-effect: non-scaling-stroke; fill: none; stroke: rgb(69, 49, 125); stroke-opacity: 1; stroke-width: 1px; opacity: 1;"/></g><g class="points"/><g class="text"/></g><g class="trace scatter trace67488a" style="stroke-miterlimit: 2; opacity: 1;"><g class="fills"/><g class="errorbars"/><g class="lines"><path class="js-line" d="M0,193.61L96.16,179.41L99.6,178.88L298.79,152.91L302.22,152.53L340,148.22" style="vector-effect: non-scaling-stroke; fill: none; stroke: rgb(68, 55, 128); stroke-opacity: 1; stroke-width: 1px; opacity: 1;"/></g><g class="points"/><g class="text"/></g><g class="trace scatter trace033b9f" style="stroke-miterlimit: 2; opacity: 1;"><g class="fills"/><g class="errorbars"/><g class="lines"><path class="js-line" d="M0,187.76L61.82,180.34L65.25,179.93L195.76,165.79L199.19,165.47L278.18,157.94L281.62,157.67L340,152.78" style="vector-effect: non-scaling-stroke; fill: none; stroke: rgb(66, 60, 130); stroke-opacity: 1; stroke-width: 1px; opacity: 1;"/></g><g class="points"/><g class="text"/></g><g class="trace scatter tracec7dd6b" style="stroke-miterlimit: 2; opacity: 1;"><g class="fills"/><g class="errorbars"/><g class="lines"><path class="js-line" d="M0,199.32L171.72,169.49L175.15,168.92L288.48,150.85L291.92,150.34L340,143.17" style="vector-effect: non-scaling-stroke; fill: none; stroke: rgb(64, 65, 133); stroke-opacity: 1; stroke-width: 1px; opacity: 1;"/></g><g class="points"/><g class="text"/></g><g class="trace scatter tracec39d6c" style="stroke-miterlimit: 2; opacity: 1;"><g class="fills"/><g class="errorbars"/><g class="lines"><path class="js-line" d="M0,166.6L20.61,166.24L24.04,166.1L96.16,165.43L99.6,165.33L123.64,165.43L127.07,165.42L202.63,166.1L206.06,166.16L254.14,167.29L257.58,167.4L315.96,169.28L319.39,169.54L340,170.28" style="vector-effect: non-scaling-stroke; fill: none; stroke: rgb(63, 71, 136); stroke-opacity: 1; stroke-width: 1px; opacity: 1;"/></g><g class="points"/><g class="text"/></g><g class="trace scatter trace5a3658" style="stroke-miterlimit: 2; opacity: 1;"><g class="fills"/><g class="errorbars"/><g class="lines"><path class="js-line" d="M0,188.38L34.34,184.04L37.78,183.58L178.59,167.69L182.02,167.35L233.54,162.47L236.97,162.18L340,153.91" style="vector-effect: non-scaling-stroke; fill: none; stroke: rgb(61, 76, 137); stroke-opacity: 1; stroke-width: 1px; opacity: 1;"/></g><g class="points"/><g class="text"/></g><g class="trace scatter trace67b649" style="stroke-miterlimit: 2; opacity: 1;"><g class="fills"/><g class="errorbars"/><g class="lines"><path class="js-line" d="M0,166.09L24.04,165.66L27.47,165.65L106.46,165.06L109.9,165.45L137.37,165.17L140.81,165.18L305.66,169L309.09,169.27L336.57,170.37L340,170.53" style="vector-effect: non-scaling-stroke; fill: none; stroke: rgb(59, 81, 138); stroke-opacity: 1; stroke-width: 1px; opacity: 1;"/></g><g class="points"/><g class="text"/></g><g class="trace scatter trace69cb9f" style="stroke-miterlimit: 2; opacity: 1;"><g class="fills"/><g class="errorbars"/><g class="lines"><path class="js-line" d="M0,28.11L6.87,32.88L10.3,35.2L20.61,42.23L24.04,44.9L41.21,56.53L44.65,59.08L106.46,101.29L109.9,101.96L123.64,112.43L127.07,114.82L188.89,155.79L192.32,157.98L216.36,173.84L219.8,175.85L226.67,180.51L230.1,182.65L302.22,227.49L305.66,230.18L309.09,231.6L312.53,234.16L322.83,239.99L326.26,242.44L329.7,243.89L333.13,246.39L340,250.46" style="vector-effect: non-scaling-stroke; fill: none; stroke: rgb(45, 114, 142); stroke-opacity: 1; stroke-width: 1px; opacity: 1;"/></g><g class="points"/><g class="text"/></g><g class="trace scatter tracee02a00" style="stroke-miterlimit: 2; opacity: 1;"><g class="fills"/><g class="errorbars"/><g class="lines"><path class="js-line" d="M0,177.53L24.04,175.68L27.47,175.48L106.46,170.3L109.9,170.47L140.81,168.43L144.24,168.31L192.32,166.18L195.76,166.01L326.26,162.54L329.7,162.62L340,162.42" style="vector-effect: non-scaling-stroke; fill: none; stroke: rgb(43, 118, 142); stroke-opacity: 1; stroke-width: 1px; opacity: 1;"/></g><g class="points"/><g class="text"/></g><g class="trace scatter trace96e853" style="stroke-miterlimit: 2; opacity: 1;"><g class="fills"/><g class="errorbars"/><g class="lines"><path class="js-line" d="M0,201.04L48.08,191.79L51.52,191.11L195.76,165.93L199.19,165.4L278.18,153.24L281.62,152.78L340,144.61" style="vector-effect: non-scaling-stroke; fill: none; stroke: rgb(41, 122, 142); stroke-opacity: 1; stroke-width: 1px; opacity: 1;"/></g><g class="points"/><g class="text"/></g><g class="trace scatter traced80ffa" style="stroke-miterlimit: 2; opacity: 1;"><g class="fills"/><g class="errorbars"/><g class="lines"><path class="js-line" d="M0,191.21L226.67,162.12L230.1,161.74L340,150.19" style="vector-effect: non-scaling-stroke; fill: none; stroke: rgb(40, 126, 142); stroke-opacity: 1; stroke-width: 1px; opacity: 1;"/></g><g class="points"/><g class="text"/></g><g class="trace scatter traceee1ee1" style="stroke-miterlimit: 2; opacity: 1;"><g class="fills"/><g class="errorbars"/><g class="lines"><path class="js-line" d="M0,22.79L3.43,24.8L6.87,27.75L48.08,57.43L51.52,60.1L75.56,76.65L78.99,79.06L89.29,86.55L92.73,89.02L106.46,98.86L109.9,99.48L123.64,110.41L127.07,112.9L185.45,153.34L188.89,155.26L219.8,176L223.23,178.76L247.27,194.2L250.71,196.52L285.05,218.51L288.48,221.09L322.83,242.35L326.26,244.9L329.7,246.36L333.13,248.95L340,253.14" style="vector-effect: non-scaling-stroke; fill: none; stroke: rgb(38, 130, 142); stroke-opacity: 1; stroke-width: 1px; opacity: 1;"/></g><g class="points"/><g class="text"/></g><g class="trace scatter trace2887eb" style="stroke-miterlimit: 2; opacity: 1;"><g class="fills"/><g class="errorbars"/><g class="lines"><path class="js-line" d="M0,200.71L113.33,179.96L116.77,179.36L185.45,167.25L188.89,166.67L295.35,149.07L298.79,148.52L340,142.09" style="vector-effect: non-scaling-stroke; fill: none; stroke: rgb(37, 135, 141); stroke-opacity: 1; stroke-width: 1px; opacity: 1;"/></g><g class="points"/><g class="text"/></g><g class="trace scatter trace3df79f" style="stroke-miterlimit: 2; opacity: 1;"><g class="fills"/><g class="errorbars"/><g class="lines"><path class="js-line" d="M0,160.38L20.61,160.61L24.04,160.56L182.02,165.2L185.45,165.34L219.8,167.2L223.23,167.29L340,175.14" style="vector-effect: non-scaling-stroke; fill: none; stroke: rgb(36, 140, 140); stroke-opacity: 1; stroke-width: 1px; opacity: 1;"/></g><g class="points"/><g class="text"/></g><g class="trace scatter trace2b8af6" style="stroke-miterlimit: 2; opacity: 1;"><g class="fills"/><g class="errorbars"/><g class="lines"><path class="js-line" d="M0,209.14L27.47,202.88L30.91,202.1L182.02,168.04L185.45,167.29L233.54,156.59L236.97,155.83L295.35,143.12L298.79,142.39L340,133.56" style="vector-effect: non-scaling-stroke; fill: none; stroke: rgb(34, 144, 140); stroke-opacity: 1; stroke-width: 1px; opacity: 1;"/></g><g class="points"/><g class="text"/></g><g class="trace scatter trace5dae7b" style="stroke-miterlimit: 2; opacity: 1;"><g class="fills"/><g class="errorbars"/><g class="lines"><path class="js-line" d="M0,195.67L195.76,165.71L199.19,165.25L271.31,155.47L274.75,155.03L340,146.88" style="vector-effect: non-scaling-stroke; fill: none; stroke: rgb(33, 148, 139); stroke-opacity: 1; stroke-width: 1px; opacity: 1;"/></g><g class="points"/><g class="text"/></g><g class="trace scatter trace0b7f18" style="stroke-miterlimit: 2; opacity: 1;"><g class="fills"/><g class="errorbars"/><g class="lines"><path class="js-line" d="M0,186.69L58.38,179.98L61.82,179.62L154.55,169.8L157.98,169.46L233.54,162.21L236.97,161.91L340,153.43" style="vector-effect: non-scaling-stroke; fill: none; stroke: rgb(32, 153, 138); stroke-opacity: 1; stroke-width: 1px; opacity: 1;"/></g><g class="points"/><g class="text"/></g><g class="trace scatter trace901f17" style="stroke-miterlimit: 2; opacity: 1;"><g class="fills"/><g class="errorbars"/><g class="lines"><path class="js-line" d="M0,200.93L130.51,176.96L133.94,176.35L243.84,157.21L247.27,156.67L340,141.64" style="vector-effect: non-scaling-stroke; fill: none; stroke: rgb(31, 158, 137); stroke-opacity: 1; stroke-width: 1px; opacity: 1;"/></g><g class="points"/><g class="text"/></g><g class="trace scatter tracee4b579" style="stroke-miterlimit: 2; opacity: 1;"><g class="fills"/><g class="errorbars"/><g class="lines"><path class="js-line" d="M0,161.27L20.61,161.46L24.04,161.42L199.19,166.04L202.63,166.18L291.92,170.79L295.35,171.04L340,173.86" style="vector-effect: non-scaling-stroke; fill: none; stroke: rgb(34, 162, 135); stroke-opacity: 1; stroke-width: 1px; opacity: 1;"/></g><g class="points"/><g class="text"/></g><g class="trace scatter trace82db86" style="stroke-miterlimit: 2; opacity: 1;"><g class="fills"/><g class="errorbars"/><g class="lines"><path class="js-line" d="M0,185.56L34.34,181.71L37.78,181.31L164.85,168.57L168.28,168.39L226.67,163.49L230.1,163.24L340,155.92" style="vector-effect: non-scaling-stroke; fill: none; stroke: rgb(38, 166, 132); stroke-opacity: 1; stroke-width: 1px; opacity: 1;"/></g><g class="points"/><g class="text"/></g><g class="trace scatter trace297372" style="stroke-miterlimit: 2; opacity: 1;"><g class="fills"/><g class="errorbars"/><g class="lines"><path class="js-line" d="M0,162.57L20.61,162.63L24.04,162.57L185.45,165.51L188.89,165.71L291.92,170.28L295.35,170.52L340,173.1" style="vector-effect: non-scaling-stroke; fill: none; stroke: rgb(41, 170, 130); stroke-opacity: 1; stroke-width: 1px; opacity: 1;"/></g><g class="points"/><g class="text"/></g><g class="trace scatter trace8f8fd1" style="stroke-miterlimit: 2; opacity: 1;"><g class="fills"/><g class="errorbars"/><g class="lines"><path class="js-line" d="M0,156.9L20.61,157.58L24.04,157.56L58.38,158.86L61.82,158.96L106.46,160.8L109.9,161.26L144.24,162.65L147.68,162.92L185.45,165.09L188.89,165.4L233.54,167.78L236.97,167.97L257.58,169.03L261.01,169.07L302.22,171.74L305.66,171.75L322.83,173.05L326.26,173.2L340,174.21" style="vector-effect: non-scaling-stroke; fill: none; stroke: rgb(45, 174, 127); stroke-opacity: 1; stroke-width: 1px; opacity: 1;"/></g><g class="points"/><g class="text"/></g><g class="trace scatter traceeeef87" style="stroke-miterlimit: 2; opacity: 1;"><g class="fills"/><g class="errorbars"/><g class="lines"><path class="js-line" d="M0,180.78L27.47,178.27L30.91,177.97L130.51,170.14L133.94,169.91L164.85,167.75L168.28,167.68L216.36,164.96L219.8,164.84L240.4,163.88L243.84,163.73L288.48,161.82L291.92,161.72L340,160.27" style="vector-effect: non-scaling-stroke; fill: none; stroke: rgb(96, 200, 96); stroke-opacity: 1; stroke-width: 1px; opacity: 1;"/></g><g class="points"/><g class="text"/></g><g class="trace scatter trace80f243" style="stroke-miterlimit: 2; opacity: 1;"><g class="fills"/><g class="errorbars"/><g class="lines"><path class="js-line" d="M0,200.88L178.59,168.64L182.02,168.08L240.4,158.92L243.84,158.41L281.62,152.75L285.05,152.26L326.26,146.41L329.7,146.03L340,144.59" style="vector-effect: non-scaling-stroke; fill: none; stroke: rgb(105, 204, 91); stroke-opacity: 1; stroke-width: 1px; opacity: 1;"/></g><g class="points"/><g class="text"/></g><g class="trace scatter trace77e7d6" style="stroke-miterlimit: 2; opacity: 1;"><g class="fills"/><g class="errorbars"/><g class="lines"><path class="js-line" d="M0,187.61L37.78,183.03L41.21,182.64L99.6,175.9L103.03,175.58L144.24,171.11L147.68,170.81L209.49,164.52L212.93,164.19L281.62,158.08L285.05,157.8L315.96,155.25L319.39,155.06L340,153.41" style="vector-effect: non-scaling-stroke; fill: none; stroke: rgb(115, 207, 85); stroke-opacity: 1; stroke-width: 1px; opacity: 1;"/></g><g class="points"/><g class="text"/></g><g class="trace scatter tracee0b181" style="stroke-miterlimit: 2; opacity: 1;"><g class="fills"/><g class="errorbars"/><g class="lines"><path class="js-line" d="M0,26.23L6.87,31.07L10.3,33.41L20.61,40.55L24.04,43.25L41.21,55.05L44.65,57.63L106.46,100.45L109.9,101.21L123.64,111.8L127.07,114.22L185.45,153.86L188.89,155.78L298.79,226.96L302.22,228.93L305.66,231.67L309.09,233.14L315.96,237.73L319.39,239.32L333.13,248.24L336.57,250.36L340,252.4" style="vector-effect: non-scaling-stroke; fill: none; stroke: rgb(126, 210, 78); stroke-opacity: 1; stroke-width: 1px; opacity: 1;"/></g><g class="points"/><g class="text"/></g><g class="trace scatter trace17f22f" style="stroke-miterlimit: 2; opacity: 1;"><g class="fills"/><g class="errorbars"/><g class="lines"><path class="js-line" d="M0,198.94L216.36,162.2L219.8,161.66L315.96,146.99L319.39,146.51L340,143.48" style="vector-effect: non-scaling-stroke; fill: none; stroke: rgb(138, 212, 70); stroke-opacity: 1; stroke-width: 1px; opacity: 1;"/></g><g class="points"/><g class="text"/></g><g class="trace scatter tracea1ed6e" style="stroke-miterlimit: 2; opacity: 1;"><g class="fills"/><g class="errorbars"/><g class="lines"><path class="js-line" d="M0,162.53L27.47,162.53L30.91,162.54L140.81,164.05L144.24,164.19L182.02,165.32L185.45,165.41L226.67,167.06L230.1,167.22L340,173.18" style="vector-effect: non-scaling-stroke; fill: none; stroke: rgb(149, 215, 63); stroke-opacity: 1; stroke-width: 1px; opacity: 1;"/></g><g class="points"/><g class="text"/></g><g class="trace scatter tracecfcb9e" style="stroke-miterlimit: 2; opacity: 1;"><g class="fills"/><g class="errorbars"/><g class="lines"><path class="js-line" d="M0,207.97L41.21,198.82L44.65,198.08L171.72,170.32L175.15,169.57L340,135.27" style="vector-effect: non-scaling-stroke; fill: none; stroke: rgb(161, 217, 56); stroke-opacity: 1; stroke-width: 1px; opacity: 1;"/></g><g class="points"/><g class="text"/></g><g class="trace scatter trace24b988" style="stroke-miterlimit: 2; opacity: 1;"><g class="fills"/><g class="errorbars"/><g class="lines"><path class="js-line" d="M0,195.37L199.19,165.1L202.63,164.59L298.79,151.61L302.22,151.19L340,146.41" style="vector-effect: non-scaling-stroke; fill: none; stroke: rgb(172, 220, 49); stroke-opacity: 1; stroke-width: 1px; opacity: 1;"/></g><g class="points"/><g class="text"/></g><g class="trace scatter trace7acddd" style="stroke-miterlimit: 2; opacity: 1;"><g class="fills"/><g class="errorbars"/><g class="lines"><path class="js-line" d="M0,187.1L44.65,181.82L48.08,181.42L106.46,174.93L109.9,174.84L140.81,171.29L144.24,170.97L206.06,164.84L209.49,164.49L298.79,156.6L302.22,156.37L326.26,154.4L329.7,154.25L340,153.41" style="vector-effect: non-scaling-stroke; fill: none; stroke: rgb(184, 222, 43); stroke-opacity: 1; stroke-width: 1px; opacity: 1;"/></g><g class="points"/><g class="text"/></g><g class="trace scatter tracea6b5cf" style="stroke-miterlimit: 2; opacity: 1;"><g class="fills"/><g class="errorbars"/><g class="lines"><path class="js-line" d="M0,199.9L137.37,175.43L140.81,174.82L309.09,147.36L312.53,146.82L340,142.66" style="vector-effect: non-scaling-stroke; fill: none; stroke: rgb(195, 224, 42); stroke-opacity: 1; stroke-width: 1px; opacity: 1;"/></g><g class="points"/><g class="text"/></g><g class="trace scatter trace696a57" style="stroke-miterlimit: 2; opacity: 1;"><g class="fills"/><g class="errorbars"/><g class="lines"><path class="js-line" d="M0,163.74L27.47,163.64L30.91,163.63L140.81,164.52L144.24,164.64L182.02,165.48L185.45,165.54L230.1,167L233.54,167.14L340,172.06" style="vector-effect: non-scaling-stroke; fill: none; stroke: rgb(207, 225, 41); stroke-opacity: 1; stroke-width: 1px; opacity: 1;"/></g><g class="points"/><g class="text"/></g><g class="trace scatter tracee3aa4c" style="stroke-miterlimit: 2; opacity: 1;"><g class="fills"/><g class="errorbars"/><g class="lines"><path class="js-line" d="M0,185.56L27.47,182.46L30.91,182.08L140.81,170.82L144.24,170.55L192.32,166.34L195.76,166.02L315.96,157.43L319.39,157.33L340,156.04" style="vector-effect: non-scaling-stroke; fill: none; stroke: rgb(218, 227, 40); stroke-opacity: 1; stroke-width: 1px; opacity: 1;"/></g><g class="points"/><g class="text"/></g><g class="trace scatter trace43a9de" style="stroke-miterlimit: 2; opacity: 1;"><g class="fills"/><g class="errorbars"/><g class="lines"><path class="js-line" d="M0,166.12L20.61,165.81L24.04,165.69L171.72,165.59L175.15,165.67L212.93,166.3L216.36,166.38L340,170.75" style="vector-effect: non-scaling-stroke; fill: none; stroke: rgb(230, 228, 39); stroke-opacity: 1; stroke-width: 1px; opacity: 1;"/></g><g class="points"/><g class="text"/></g><g class="trace scatter tracef48c8a" style="stroke-miterlimit: 2; opacity: 1;"><g class="fills"/><g class="errorbars"/><g class="lines"><path class="js-line" d="M0,157.89L20.61,158.48L24.04,158.44L58.38,159.56L61.82,159.65L106.46,161.27L109.9,161.73L140.81,162.7L144.24,162.94L182.02,164.99L185.45,165.18L212.93,166.76L216.36,166.92L257.58,168.76L261.01,168.79L302.22,171.26L305.66,171.24L322.83,172.47L326.26,172.6L340,173.55" style="vector-effect: non-scaling-stroke; fill: none; stroke: rgb(241, 230, 38); stroke-opacity: 1; stroke-width: 1px; opacity: 1;"/></g><g class="points"/><g class="text"/></g><g class="trace scatter trace3bf36f" style="stroke-miterlimit: 2; opacity: 1;"><g class="fills"/><g class="errorbars"/><g class="lines"><path class="js-line" d="M0,206.24L37.78,198.16L41.21,197.45L247.27,154.9L250.71,154.21L340,136.9" style="vector-effect: non-scaling-stroke; fill: none; stroke: rgb(253, 231, 37); stroke-opacity: 1; stroke-width: 1px; opacity: 1;"/></g><g class="points"/><g class="text"/></g></g></g><g class="overplot"/><path class="xlines-above crisp" d="M0,0" style="fill: none;"/><path class="ylines-above crisp" d="M0,0" style="fill: none;"/><g class="overlines-above"/><g class="xaxislayer-above"/><g class="yaxislayer-above"><g class="y2tick"><text text-anchor="end" x="79" y="4.199999999999999" transform="translate(0,701.1600000000001)" style="font-family: 'Open Sans', verdana, arial, sans-serif; font-size: 12px; fill: rgb(42, 63, 95); fill-opacity: 1; white-space: pre; opacity: 1;">−5</text></g><g class="y2tick"><text text-anchor="end" x="79" y="4.199999999999999" style="font-family: 'Open Sans', verdana, arial, sans-serif; font-size: 12px; fill: rgb(42, 63, 95); fill-opacity: 1; white-space: pre; opacity: 1;" transform="translate(0,639.1200000000001)">0</text></g><g class="y2tick"><text text-anchor="end" x="79" y="4.199999999999999" style="font-family: 'Open Sans', verdana, arial, sans-serif; font-size: 12px; fill: rgb(42, 63, 95); fill-opacity: 1; white-space: pre; opacity: 1;" transform="translate(0,577.08)">5</text></g><g class="y2tick"><text text-anchor="end" x="79" y="4.199999999999999" style="font-family: 'Open Sans', verdana, arial, sans-serif; font-size: 12px; fill: rgb(42, 63, 95); fill-opacity: 1; white-space: pre; opacity: 1;" transform="translate(0,515.0400000000001)">10</text></g></g><g class="overaxes-above"/></g><g class="subplot x3y3"><g class="layer-subplot"><g class="shapelayer"/><g class="imagelayer"/></g><g class="minor-gridlayer"><g class="x3"/><g class="y3"/></g><g class="gridlayer"><g class="x3"><path class="x3grid crisp" transform="translate(148,0)" d="M0,848.0000000000001v272" style="stroke: rgb(235, 240, 248); stroke-opacity: 1; stroke-width: 1px;"/><path class="x3grid crisp" transform="translate(216,0)" d="M0,848.0000000000001v272" style="stroke: rgb(235, 240, 248); stroke-opacity: 1; stroke-width: 1px;"/><path class="x3grid crisp" transform="translate(284,0)" d="M0,848.0000000000001v272" style="stroke: rgb(235, 240, 248); stroke-opacity: 1; stroke-width: 1px;"/><path class="x3grid crisp" transform="translate(352,0)" d="M0,848.0000000000001v272" style="stroke: rgb(235, 240, 248); stroke-opacity: 1; stroke-width: 1px;"/></g><g class="y3"><path class="y3grid crisp" transform="translate(0,1061.5900000000001)" d="M80,0h340" style="stroke: rgb(235, 240, 248); stroke-opacity: 1; stroke-width: 1px;"/><path class="y3grid crisp" transform="translate(0,1001.7500000000001)" d="M80,0h340" style="stroke: rgb(235, 240, 248); stroke-opacity: 1; stroke-width: 1px;"/><path class="y3grid crisp" transform="translate(0,882.0700000000002)" d="M80,0h340" style="stroke: rgb(235, 240, 248); stroke-opacity: 1; stroke-width: 1px;"/></g></g><g class="zerolinelayer"><path class="y3zl zl crisp" transform="translate(0,941.9100000000001)" d="M80,0h340" style="stroke: rgb(235, 240, 248); stroke-opacity: 1; stroke-width: 2px;"/></g><path class="xlines-below"/><path class="ylines-below"/><g class="overlines-below"/><g class="xaxislayer-below"/><g class="yaxislayer-below"/><g class="overaxes-below"/><g class="plot" transform="translate(80,848.0000000000001)" clip-path="url(#clip9d81ccx3y3plot)"><g class="scatterlayer mlayer"><g class="trace scatter tracead3ad4" style="stroke-miterlimit: 2; opacity: 1;"><g class="fills"/><g class="errorbars"/><g class="lines"><path class="js-line" d="M0,197.01L6.87,193.53L10.3,192.46L17.17,188.08L20.61,186.97L24.04,184.08L27.47,183.8L34.34,180.73L37.78,178.61L41.21,176.41L44.65,175.7L48.08,174.42L51.52,171.85L58.38,167.82L61.82,166.98L72.12,162.25L75.56,160.89L78.99,158.57L82.42,157.23L85.86,154.35L89.29,153.13L92.73,152.2L96.16,149.93L103.03,147.07L106.46,144.55L109.9,142.24L113.33,142.24L116.77,138.76L120.2,138.76L123.64,137.72L127.07,135.4L133.94,131.85L137.37,128.67L140.81,128.6L144.24,126.31L147.68,126L151.11,124.21L154.55,121.63L157.98,121.06L168.28,115.84L171.72,114.42L178.59,109.72L182.02,108.73L185.45,106.93L188.89,106.06L199.19,99.84L202.63,99.29L209.49,95.09L212.93,92.5L219.8,90.16L223.23,88.55L226.67,88.61L230.1,85.22L236.97,81.27L240.4,79.74L243.84,79.9L247.27,75.67L254.14,74.38L257.58,71.01L261.01,71.85L264.44,68.67L267.88,67.47L271.31,65.25L285.05,59.3L288.48,56.81L298.79,52.37L302.22,50.45L305.66,51.6L309.09,48L315.96,44.5L319.39,42.26L322.83,42.22L326.26,40.14L329.7,37.69L333.13,36.79L340,33.15" style="vector-effect: non-scaling-stroke; fill: none; stroke: rgb(68, 1, 84); stroke-opacity: 1; stroke-width: 1px; opacity: 1;"/></g><g class="points"/><g class="text"/></g><g class="trace scatter traceb90018" style="stroke-miterlimit: 2; opacity: 1;"><g class="fills"/><g class="errorbars"/><g class="lines"><path class="js-line" d="M0,186.89L3.43,185.85L6.87,182.9L13.74,180.12L17.17,179.62L30.91,173.11L34.34,171.65L37.78,169.32L41.21,168.27L44.65,167.21L48.08,165.12L61.82,159.14L65.25,157.25L72.12,154L75.56,152.24L78.99,151.36L82.42,149.47L89.29,146.95L92.73,144.95L99.6,142.12L103.03,140.25L106.46,137.81L109.9,138.44L113.33,138.44L116.77,133.69L120.2,133.69L123.64,130.51L127.07,129.53L130.51,127.48L133.94,126.17L137.37,123.9L140.81,124.03L144.24,121.65L154.55,116.69L157.98,116.07L168.28,110.95L171.72,108.73L178.59,105.53L182.02,103.43L185.45,100.9L188.89,100.68L195.76,97.02L199.19,96.89L202.63,93.48L206.06,92.31L209.49,90.17L212.93,89.25L216.36,86.5L219.8,85.71L226.67,82.75L230.1,81.57L233.54,79.03L236.97,77.73L240.4,75.75L243.84,75.93L247.27,74.63L250.71,71.17L254.14,69.88L257.58,66.71L261.01,66.71L264.44,64.84L274.75,60.49L278.18,58.41L285.05,55.75L288.48,53.66L295.35,51.08L298.79,49L302.22,47.1L305.66,46.76L309.09,44.54L312.53,43.7L315.96,41.63L319.39,38.68L322.83,38.72L326.26,37.9L333.13,33.45L336.57,32.23L340,30.54" style="vector-effect: non-scaling-stroke; fill: none; stroke: rgb(69, 7, 90); stroke-opacity: 1; stroke-width: 1px; opacity: 1;"/></g><g class="points"/><g class="text"/></g><g class="trace scatter tracebc2225" style="stroke-miterlimit: 2; opacity: 1;"><g class="fills"/><g class="errorbars"/><g class="lines"><path class="js-line" d="M0,204.05L17.17,194.62L20.61,191.84L37.78,184.02L41.21,181.69L48.08,178.35L51.52,175.74L58.38,173.71L61.82,170.65L72.12,166.3L75.56,164.35L85.86,157.06L89.29,156.8L92.73,155.07L96.16,152.45L106.46,148.52L109.9,142.7L113.33,142.7L116.77,139.51L120.2,139.51L123.64,138.53L133.94,132.84L137.37,134L140.81,128.51L144.24,126.98L151.11,123.62L154.55,121.88L161.41,118.08L164.85,115.88L178.59,110.12L182.02,106.46L192.32,102.17L195.76,99.99L202.63,95.8L206.06,94.28L212.93,89.44L216.36,86.61L223.23,84.55L226.67,82.37L230.1,81.05L233.54,78.71L236.97,76.76L240.4,75.85L243.84,74.43L247.27,71.69L250.71,68.56L254.14,67.52L264.44,63.66L267.88,61.24L271.31,59.71L274.75,55.92L281.62,54.19L285.05,51.34L288.48,49.27L291.92,48.57L302.22,42.94L305.66,40.21L312.53,39.2L315.96,36.26L322.83,31.91L326.26,31.03L336.57,24.85L340,23.96" style="vector-effect: non-scaling-stroke; fill: none; stroke: rgb(69, 14, 96); stroke-opacity: 1; stroke-width: 1px; opacity: 1;"/></g><g class="points"/><g class="text"/></g><g class="trace scatter trace0a7e91" style="stroke-miterlimit: 2; opacity: 1;"><g class="fills"/><g class="errorbars"/><g class="lines"><path class="js-line" d="M0,247.22L3.43,245.32L6.87,241.69L10.3,240.82L13.74,232.82L17.17,235.29L20.61,232.2L24.04,229.5L27.47,228.15L44.65,215.77L48.08,214.34L51.52,211.09L54.95,209.53L61.82,206.59L65.25,202.25L72.12,196.41L75.56,195.18L78.99,193.11L82.42,189.99L85.86,186.33L89.29,184.88L96.16,180.71L99.6,177.03L103.03,176.13L106.46,173.25L109.9,166.51L113.33,166.51L116.77,164.04L120.2,164.04L123.64,163L127.07,160.02L130.51,158.86L133.94,154.36L137.37,151.28L140.81,150.26L151.11,143.84L154.55,140.78L157.98,139.07L161.41,136.16L168.28,132.11L171.72,130.56L178.59,126.69L182.02,123.06L192.32,117.29L195.76,113.99L199.19,112.44L202.63,108.56L219.8,96.84L223.23,95.79L226.67,90.97L230.1,89.75L240.4,82.52L243.84,81.77L247.27,75.73L250.71,78.44L254.14,73.99L257.58,72.34L261.01,67.98L264.44,68.19L267.88,65.08L271.31,63.35L274.75,60.34L278.18,58.52L281.62,58.61L285.05,54.2L291.92,48.6L295.35,47.9L302.22,42.23L305.66,42.42L312.53,36.62L315.96,36.1L322.83,29.48L326.26,27.06L329.7,27.6L333.13,22.77L336.57,22.7L340,19.61" style="vector-effect: non-scaling-stroke; fill: none; stroke: rgb(70, 20, 101); stroke-opacity: 1; stroke-width: 1px; opacity: 1;"/></g><g class="points"/><g class="text"/></g><g class="trace scatter trace82c7aa" style="stroke-miterlimit: 2; opacity: 1;"><g class="fills"/><g class="errorbars"/><g class="lines"><path class="js-line" d="M0,155.63L48.08,141.12L51.52,139.75L82.42,130.09L85.86,128.13L89.29,128.4L92.73,127.28L109.9,122.18L113.33,122.18L116.77,118.8L120.2,118.8L144.24,111.25L147.68,110.43L161.41,106.06L164.85,105.02L223.23,87.43L226.67,86.08L236.97,82.91L240.4,81.56L247.27,79.81L250.71,78.62L305.66,61.99L309.09,59.76L312.53,59.69L315.96,58.75L322.83,56.6L326.26,55.31L340,51.18" style="vector-effect: non-scaling-stroke; fill: none; stroke: rgb(71, 26, 107); stroke-opacity: 1; stroke-width: 1px; opacity: 1;"/></g><g class="points"/><g class="text"/></g><g class="trace scatter trace06306f" style="stroke-miterlimit: 2; opacity: 1;"><g class="fills"/><g class="errorbars"/><g class="lines"><path class="js-line" d="M0,183.28L6.87,179.38L10.3,178.51L20.61,173.74L24.04,172.5L27.47,170.65L30.91,169.94L34.34,167.18L37.78,166.22L48.08,161.92L51.52,160.9L58.38,157.05L61.82,155.92L75.56,149.2L78.99,147.89L82.42,146.16L85.86,145.71L92.73,142.05L96.16,140.85L109.9,134.92L113.33,134.92L116.77,130.65L120.2,130.65L123.64,128.35L127.07,127.3L130.51,125.31L133.94,124.27L140.81,121.61L144.24,119.06L154.55,115.28L157.98,112.28L161.41,111.96L164.85,110.81L171.72,107.01L175.15,106.13L178.59,103.9L182.02,102.97L185.45,101.78L188.89,99.52L192.32,98.56L195.76,96.54L199.19,94.46L202.63,93.42L233.54,78.77L236.97,78.2L240.4,76.13L243.84,76.53L247.27,74.76L250.71,72.06L261.01,67.23L264.44,65.88L274.75,61.09L278.18,59.67L291.92,53.22L295.35,52.06L298.79,50.71L302.22,48.42L305.66,48.45L309.09,46.05L315.96,43.29L319.39,40.96L326.26,38.64L329.7,36.54L336.57,34.44L340,32.58" style="vector-effect: non-scaling-stroke; fill: none; stroke: rgb(71, 32, 113); stroke-opacity: 1; stroke-width: 1px; opacity: 1;"/></g><g class="points"/><g class="text"/></g><g class="trace scatter trace29450f" style="stroke-miterlimit: 2; opacity: 1;"><g class="fills"/><g class="errorbars"/><g class="lines"><path class="js-line" d="M0,162.67L24.04,154.42L27.47,153.42L78.99,135.58L82.42,134.75L89.29,132.38L92.73,131.46L103.03,127.56L106.46,126.63L109.9,125.26L113.33,125.26L116.77,122.05L120.2,122.05L147.68,112.32L151.11,111.26L164.85,106.51L168.28,105.45L195.76,96.3L199.19,94.61L243.84,79.27L247.27,79.23L250.71,76.74L254.14,75.75L340,46.26" style="vector-effect: non-scaling-stroke; fill: none; stroke: rgb(72, 39, 119); stroke-opacity: 1; stroke-width: 1px; opacity: 1;"/></g><g class="points"/><g class="text"/></g><g class="trace scatter trace6b3bd3" style="stroke-miterlimit: 2; opacity: 1;"><g class="fills"/><g class="errorbars"/><g class="lines"><path class="js-line" d="M0,200.93L3.43,198.45L6.87,196.98L13.74,193.45L17.17,192.33L20.61,189.37L24.04,187.74L27.47,186.66L30.91,184.64L34.34,182.52L37.78,181.92L41.21,179.13L44.65,177.6L48.08,176.61L51.52,173.89L65.25,167.41L68.69,165.13L75.56,162.51L78.99,159.75L82.42,159.17L85.86,155.69L89.29,155.09L92.73,153.43L103.03,147.8L106.46,145.93L109.9,141.26L113.33,141.26L116.77,138.46L120.2,138.46L123.64,137.54L127.07,134.94L130.51,133.89L133.94,131.54L151.11,123.28L154.55,124.3L157.98,119.7L161.41,117.7L164.85,115.4L168.28,114.54L175.15,111.25L178.59,110.37L182.02,107.04L185.45,105.65L192.32,102.12L195.76,101.88L206.06,94.55L209.49,93.12L212.93,92.34L216.36,88.39L219.8,87.77L223.23,85.78L226.67,84.43L230.1,82.07L233.54,79.95L236.97,79.28L240.4,76.82L243.84,75.98L254.14,70.3L257.58,68.51L271.31,61.94L274.75,60.95L278.18,58.2L281.62,56.62L298.79,47.92L302.22,46.14L305.66,45.6L309.09,43.53L319.39,37.74L322.83,36.81L329.7,32.5L333.13,33.17L336.57,29.99L340,28.17" style="vector-effect: non-scaling-stroke; fill: none; stroke: rgb(71, 44, 122); stroke-opacity: 1; stroke-width: 1px; opacity: 1;"/></g><g class="points"/><g class="text"/></g><g class="trace scatter tracec99a1e" style="stroke-miterlimit: 2; opacity: 1;"><g class="fills"/><g class="errorbars"/><g class="lines"><path class="js-line" d="M0,164.85L13.74,159.88L17.17,158.6L27.47,155.48L30.91,154.21L44.65,149.29L48.08,148.07L65.25,142.01L68.69,141.15L75.56,138.23L78.99,137.44L89.29,133.62L92.73,132.56L99.6,129.98L103.03,128.96L109.9,126.49L113.33,126.49L116.77,123.17L120.2,123.17L137.37,116.74L140.81,115.64L154.55,110.6L157.98,109.49L209.49,91.08L212.93,89.48L230.1,83.7L233.54,82.31L240.4,80.33L243.84,79.61L247.27,77.16L250.71,76.44L267.88,70.33L271.31,68.65L278.18,66.73L281.62,65.61L305.66,57.03L309.09,56.2L315.96,53.49L319.39,52.54L329.7,48.08L333.13,47.35L336.57,45.35L340,44.95" style="vector-effect: non-scaling-stroke; fill: none; stroke: rgb(69, 49, 125); stroke-opacity: 1; stroke-width: 1px; opacity: 1;"/></g><g class="points"/><g class="text"/></g><g class="trace scatter trace40268a" style="stroke-miterlimit: 2; opacity: 1;"><g class="fills"/><g class="errorbars"/><g class="lines"><path class="js-line" d="M0,160.02L6.87,157.65L10.3,156.66L109.9,123.82L113.33,123.82L116.77,120.88L120.2,120.88L161.41,107.04L164.85,106.01L195.76,95.41L199.19,94.81L212.93,89.54L216.36,88.93L236.97,82.04L240.4,80.88L243.84,79.48L247.27,78.94L254.14,76.31L257.58,75.29L305.66,59.25L309.09,58.82L315.96,56.14L319.39,55.25L326.26,52.16L329.7,51.56L340,48.18" style="vector-effect: non-scaling-stroke; fill: none; stroke: rgb(68, 55, 128); stroke-opacity: 1; stroke-width: 1px; opacity: 1;"/></g><g class="points"/><g class="text"/></g><g class="trace scatter tracee475c5" style="stroke-miterlimit: 2; opacity: 1;"><g class="fills"/><g class="errorbars"/><g class="lines"><path class="js-line" d="M0,147.15L37.78,136.95L41.21,136.21L65.25,129.81L68.69,128.71L82.42,125.32L85.86,124.33L96.16,121.73L99.6,120.88L109.9,118.21L113.33,118.21L116.77,115.55L120.2,115.55L127.07,113.49L130.51,112.67L137.37,110.31L140.81,109.96L151.11,107.12L154.55,106.22L192.32,95.82L195.76,95.03L202.63,93.21L206.06,92.18L219.8,88.69L223.23,87.74L236.97,84.1L240.4,83L243.84,82.59L247.27,81.24L278.18,73.23L281.62,72.07L336.57,57.51L340,56.51" style="vector-effect: non-scaling-stroke; fill: none; stroke: rgb(66, 60, 130); stroke-opacity: 1; stroke-width: 1px; opacity: 1;"/></g><g class="points"/><g class="text"/></g><g class="trace scatter tracec5e85a" style="stroke-miterlimit: 2; opacity: 1;"><g class="fills"/><g class="errorbars"/><g class="lines"><path class="js-line" d="M0,162.52L13.74,158.45L17.17,156.96L30.91,152.57L34.34,150.82L44.65,147.76L48.08,146.64L109.9,125.1L113.33,125.1L116.77,121.94L120.2,121.94L127.07,119.58L130.51,118.5L140.81,114.86L144.24,113.61L178.59,102.16L182.02,100.6L199.19,94.78L202.63,93.32L226.67,85.4L230.1,84.49L233.54,82.77L236.97,82.03L243.84,79.26L247.27,78.76L254.14,76.01L257.58,75.19L264.44,72.15L267.88,71.09L288.48,64.14L291.92,62.91L312.53,55.48L315.96,54.61L326.26,50.92L329.7,49.87L333.13,48.47L336.57,48.14L340,46.13" style="vector-effect: non-scaling-stroke; fill: none; stroke: rgb(64, 65, 133); stroke-opacity: 1; stroke-width: 1px; opacity: 1;"/></g><g class="points"/><g class="text"/></g><g class="trace scatter trace7ea070" style="stroke-miterlimit: 2; opacity: 1;"><g class="fills"/><g class="errorbars"/><g class="lines"><path class="js-line" d="M0,187.55L24.04,176.92L27.47,175.77L37.78,171.17L41.21,168.52L58.38,161.81L61.82,159.57L106.46,138.15L109.9,135.53L113.33,135.53L116.77,132.05L120.2,132.05L123.64,130.51L133.94,125.42L137.37,123.89L185.45,100.84L188.89,99.76L199.19,95.83L202.63,95.5L212.93,92.95L216.36,92.08L219.8,91.16L223.23,88.89L240.4,82.72L243.84,82.52L247.27,79.01L250.71,77.36L257.58,75.27L261.01,71.37L274.75,67.35L278.18,65.77L288.48,62.17L291.92,60.4L302.22,56.18L305.66,53.21L309.09,52.48L312.53,49.54L322.83,46.48L326.26,44.3L333.13,41.98L336.57,39.66L340,38.64" style="vector-effect: non-scaling-stroke; fill: none; stroke: rgb(63, 71, 136); stroke-opacity: 1; stroke-width: 1px; opacity: 1;"/></g><g class="points"/><g class="text"/></g><g class="trace scatter trace8491ec" style="stroke-miterlimit: 2; opacity: 1;"><g class="fills"/><g class="errorbars"/><g class="lines"><path class="js-line" d="M0,187.84L44.65,167.61L48.08,165.47L51.52,164.65L54.95,163L85.86,148.25L89.29,147.02L96.16,143.81L99.6,142.11L106.46,138.98L109.9,136.42L113.33,136.42L116.77,132.87L120.2,132.87L123.64,130.98L130.51,128.13L133.94,126.36L178.59,105.75L182.02,104.33L192.32,99.58L195.76,98.42L216.36,88.99L219.8,87.87L233.54,81.14L236.97,80.12L240.4,79.08L243.84,79.2L250.71,73.12L254.14,72.61L261.01,68.41L264.44,67.28L271.31,65.11L274.75,62.59L278.18,60.56L281.62,59.75L288.48,57L291.92,54.31L298.79,51.98L302.22,50.39L305.66,46.86L309.09,46.73L322.83,41.81L326.26,38.56L329.7,38.22L333.13,36.53L336.57,34.01L340,33.09" style="vector-effect: non-scaling-stroke; fill: none; stroke: rgb(61, 76, 137); stroke-opacity: 1; stroke-width: 1px; opacity: 1;"/></g><g class="points"/><g class="text"/></g><g class="trace scatter traceb17dc4" style="stroke-miterlimit: 2; opacity: 1;"><g class="fills"/><g class="errorbars"/><g class="lines"><path class="js-line" d="M0,170.27L3.43,169.05L6.87,166.86L20.61,162.22L24.04,160.17L34.34,156.49L37.78,155.28L41.21,153.24L44.65,152.12L58.38,147.05L61.82,145.09L85.86,134.76L89.29,134.15L106.46,127.34L109.9,124.98L113.33,124.98L116.77,121.54L120.2,121.54L123.64,120.2L137.37,115.06L140.81,113.95L151.11,110.39L154.55,108.93L192.32,97.22L195.76,96.33L202.63,94.25L206.06,93.45L216.36,89.79L219.8,88.56L226.67,84.87L230.1,83.28L240.4,79.47L243.84,79.12L247.27,75.04L250.71,73.33L257.58,70.76L261.01,67.36L274.75,62.67L278.18,60.66L288.48,56.78L291.92,54.86L302.22,50.52L305.66,47.29L309.09,46.58L312.53,44.3L322.83,40.78L326.26,38.53L333.13,35.87L336.57,33.36L340,32.19" style="vector-effect: non-scaling-stroke; fill: none; stroke: rgb(59, 81, 138); stroke-opacity: 1; stroke-width: 1px; opacity: 1;"/></g><g class="points"/><g class="text"/></g><g class="trace scatter trace54a4de" style="stroke-miterlimit: 2; opacity: 1;"><g class="fills"/><g class="errorbars"/><g class="lines"><path class="js-line" d="M0,185.64L3.43,184.79L6.87,182.74L10.3,182.26L13.74,179.82L17.17,179.02L20.61,176.92L27.47,174.16L30.91,172.79L41.21,167.36L44.65,166.46L48.08,165.34L51.52,163.28L65.25,156.62L68.69,155.44L72.12,153.27L75.56,152.33L99.6,141.65L103.03,139.48L106.46,137.8L109.9,138.01L113.33,138.01L116.77,133.43L120.2,133.43L123.64,130.39L127.07,129.44L130.51,127.39L137.37,124.01L140.81,124L147.68,119.52L151.11,117.98L157.98,115.86L161.41,113.28L164.85,112.52L168.28,110.87L178.59,105.45L182.02,104.36L185.45,103.21L188.89,100.85L192.32,98.74L195.76,97.73L202.63,94.08L206.06,92.32L209.49,90L212.93,89.49L216.36,86.9L219.8,85.68L223.23,85.04L226.67,82.36L230.1,81.1L233.54,78.96L236.97,78.26L240.4,75.93L243.84,76.03L247.27,73.92L254.14,70.16L257.58,68.31L261.01,68L264.44,65.44L274.75,61.44L278.18,58.69L281.62,57.92L285.05,55.96L295.35,51.72L298.79,49.7L302.22,48.06L305.66,47.48L312.53,43.58L315.96,42.21L322.83,36.9L326.26,37.07L333.13,34.19L336.57,33.19L340,30.9" style="vector-effect: non-scaling-stroke; fill: none; stroke: rgb(45, 114, 142); stroke-opacity: 1; stroke-width: 1px; opacity: 1;"/></g><g class="points"/><g class="text"/></g><g class="trace scatter trace6c2088" style="stroke-miterlimit: 2; opacity: 1;"><g class="fills"/><g class="errorbars"/><g class="lines"><path class="js-line" d="M0,205.6L3.43,204.03L6.87,201.18L10.3,200.18L13.74,197.88L20.61,194.69L24.04,192.08L37.78,185.03L41.21,182.63L48.08,179L51.52,176.58L54.95,175.11L58.38,174.63L68.69,168.15L72.12,167.1L75.56,164.12L78.99,162.77L82.42,161.41L85.86,158.66L89.29,158.47L92.73,156.93L96.16,153.04L99.6,151.83L103.03,150.72L106.46,148.77L109.9,143.44L113.33,143.44L116.77,140.3L120.2,140.3L123.64,139.35L127.07,137.27L137.37,130.81L140.81,129.47L151.11,124.42L154.55,121.71L157.98,120.61L161.41,118.46L178.59,110.53L182.02,107.08L192.32,102.43L195.76,100.23L209.49,92.37L212.93,89.83L216.36,88.77L219.8,86.02L223.23,83.83L226.67,83.61L230.1,80.44L233.54,78.8L240.4,75.7L243.84,74.1L247.27,72.56L250.71,69.72L267.88,61.4L271.31,59.07L281.62,54.07L285.05,51.43L288.48,50.42L291.92,47.98L295.35,46.89L298.79,44.31L315.96,36.24L319.39,34.7L322.83,31.18L326.26,30.87L333.13,26.83L336.57,25.19L340,23.55" style="vector-effect: non-scaling-stroke; fill: none; stroke: rgb(43, 118, 142); stroke-opacity: 1; stroke-width: 1px; opacity: 1;"/></g><g class="points"/><g class="text"/></g><g class="trace scatter trace9af3cf" style="stroke-miterlimit: 2; opacity: 1;"><g class="fills"/><g class="errorbars"/><g class="lines"><path class="js-line" d="M0,248.95L3.43,246.57L6.87,242.25L10.3,242.54L13.74,238.58L20.61,233.65L24.04,230.14L27.47,230.11L30.91,226.13L37.78,222.45L41.21,218.34L44.65,218.1L48.08,214.27L58.38,206.19L61.82,205.6L65.25,202.23L68.69,200.15L72.12,198.87L75.56,195.67L82.42,190.41L85.86,186.03L92.73,183.87L96.16,180.34L99.6,178.01L103.03,176.75L106.46,172.82L109.9,165.78L113.33,165.78L116.77,163.13L120.2,163.13L123.64,162.04L130.51,156.36L133.94,154.65L140.81,149.46L144.24,146.88L147.68,145.66L151.11,141.87L161.41,135.14L164.85,131.74L168.28,128.54L171.72,129.78L175.15,126.2L178.59,124.37L182.02,119.88L185.45,118.58L188.89,116.87L192.32,114.14L195.76,112.99L199.19,110.06L206.06,103.84L209.49,101.84L212.93,98.47L216.36,96.49L219.8,93.01L223.23,91.24L233.54,84.13L236.97,80.93L240.4,79.32L243.84,75.94L247.27,77.29L250.71,72.95L254.14,69.95L257.58,68.39L261.01,67.05L264.44,63.99L274.75,56.02L278.18,54.68L281.62,50.88L285.05,49.61L288.48,48.03L291.92,43.99L295.35,43.9L298.79,40.85L302.22,37.04L305.66,34.82L309.09,33.7L312.53,31.66L319.39,26.7L322.83,23.77L326.26,23.2L329.7,20.5L333.13,17.5L336.57,18.25L340,13.6" style="vector-effect: non-scaling-stroke; fill: none; stroke: rgb(41, 122, 142); stroke-opacity: 1; stroke-width: 1px; opacity: 1;"/></g><g class="points"/><g class="text"/></g><g class="trace scatter tracee79e07" style="stroke-miterlimit: 2; opacity: 1;"><g class="fills"/><g class="errorbars"/><g class="lines"><path class="js-line" d="M0,157.04L20.61,150.97L24.04,149.79L44.65,143.08L48.08,142.04L72.12,134.54L75.56,132.99L82.42,131.23L85.86,130.14L109.9,122.87L113.33,122.87L116.77,119.46L120.2,119.46L151.11,109.81L154.55,108.55L178.59,101.23L182.02,99.78L209.49,91.28L212.93,90.04L240.4,81.19L243.84,84.33L247.27,79.23L250.71,78.22L298.79,63.41L302.22,61.87L315.96,58.01L319.39,56.6L333.13,52.39L336.57,51.34L340,50.14" style="vector-effect: non-scaling-stroke; fill: none; stroke: rgb(40, 126, 142); stroke-opacity: 1; stroke-width: 1px; opacity: 1;"/></g><g class="points"/><g class="text"/></g><g class="trace scatter trace0420d3" style="stroke-miterlimit: 2; opacity: 1;"><g class="fills"/><g class="errorbars"/><g class="lines"><path class="js-line" d="M0,183.93L6.87,180.18L10.3,179.15L17.17,176.14L20.61,174.42L24.04,173.36L27.47,171.26L30.91,170.67L34.34,168.59L41.21,165.24L44.65,164.11L48.08,161.37L51.52,160.79L54.95,160.07L58.38,157.67L61.82,156.6L65.25,154.74L75.56,150.09L78.99,148.18L85.86,146.02L89.29,144.12L96.16,140.98L99.6,139.49L103.03,137.57L106.46,136.51L109.9,135.11L113.33,135.11L116.77,130.91L120.2,130.91L123.64,128.62L127.07,127.6L133.94,124.54L137.37,123.27L147.68,117.99L151.11,116.41L168.28,109.23L171.72,107.36L175.15,106.46L178.59,104.43L188.89,100.07L192.32,98.22L199.19,94.31L202.63,93.5L212.93,88.57L216.36,86.94L223.23,84.3L226.67,81.91L230.1,80.87L233.54,78.83L236.97,78.6L240.4,76.36L243.84,76.6L247.27,73.97L250.71,71.41L254.14,70.59L257.58,68.1L261.01,68.06L267.88,64.16L271.31,63.44L274.75,60.82L278.18,59.51L295.35,51.82L298.79,51.26L302.22,48.5L305.66,48.31L309.09,46.08L312.53,44.85L319.39,40.51L322.83,39.64L336.57,34.26L340,32.32" style="vector-effect: non-scaling-stroke; fill: none; stroke: rgb(38, 130, 142); stroke-opacity: 1; stroke-width: 1px; opacity: 1;"/></g><g class="points"/><g class="text"/></g><g class="trace scatter trace970951" style="stroke-miterlimit: 2; opacity: 1;"><g class="fills"/><g class="errorbars"/><g class="lines"><path class="js-line" d="M0,161.67L27.47,152.52L30.91,151.35L41.21,147.63L44.65,146.74L58.38,142.17L61.82,141.01L96.16,129.56L99.6,128.11L109.9,124.75L113.33,124.75L116.77,121.62L120.2,121.62L154.55,109.65L157.98,108.73L202.63,93.43L206.06,92.2L243.84,79.19L247.27,78.93L254.14,76.04L257.58,74.84L264.44,72.64L267.88,71.39L333.13,49.22L336.57,47.91L340,47.37" style="vector-effect: non-scaling-stroke; fill: none; stroke: rgb(37, 135, 141); stroke-opacity: 1; stroke-width: 1px; opacity: 1;"/></g><g class="points"/><g class="text"/></g><g class="trace scatter trace729692" style="stroke-miterlimit: 2; opacity: 1;"><g class="fills"/><g class="errorbars"/><g class="lines"><path class="js-line" d="M0,199.66L3.43,198.48L6.87,196.13L10.3,195.27L13.74,193.08L17.17,191.23L20.61,190.49L27.47,185.84L30.91,184.55L34.34,183.06L37.78,180.7L41.21,178.79L44.65,177.79L48.08,175.08L51.52,173.41L54.95,171.74L58.38,171.2L61.82,168.21L65.25,166.89L68.69,165.84L72.12,163.38L78.99,160.08L82.42,158.12L85.86,155.89L89.29,154.97L96.16,151.07L99.6,150.08L103.03,147.62L106.46,147.11L109.9,141.76L113.33,141.76L116.77,139.16L120.2,139.16L123.64,138.3L127.07,135.19L130.51,135.15L133.94,132.08L147.68,125.46L151.11,123.61L161.41,118.74L164.85,116.73L168.28,115.11L171.72,112.39L178.59,110.68L182.02,107.79L192.32,102.94L195.76,102.17L199.19,99L202.63,97.32L206.06,96.07L209.49,92.81L212.93,92.09L216.36,90.28L223.23,85.34L226.67,84.99L236.97,79.62L240.4,78.1L243.84,77.43L247.27,75.26L250.71,72.76L254.14,72.92L257.58,69.11L261.01,67.37L267.88,64.08L271.31,63.07L278.18,58.69L281.62,58.43L285.05,55.98L288.48,55.18L291.92,52.65L295.35,51.41L298.79,49.14L302.22,48.45L305.66,47.83L309.09,45.07L312.53,42.33L315.96,41.65L319.39,38.57L322.83,38.06L326.26,36.54L329.7,33.32L333.13,32.74L336.57,30.94L340,28.98" style="vector-effect: non-scaling-stroke; fill: none; stroke: rgb(36, 140, 140); stroke-opacity: 1; stroke-width: 1px; opacity: 1;"/></g><g class="points"/><g class="text"/></g><g class="trace scatter trace9115aa" style="stroke-miterlimit: 2; opacity: 1;"><g class="fills"/><g class="errorbars"/><g class="lines"><path class="js-line" d="M0,163.34L27.47,154.19L30.91,152.51L37.78,150.23L41.21,148.36L54.95,144.76L58.38,143.17L61.82,141.78L65.25,141.25L82.42,134.69L85.86,133.6L99.6,129.17L103.03,128.05L109.9,125.52L113.33,125.52L116.77,122.29L120.2,122.29L147.68,112.49L151.11,111.63L157.98,109.15L161.41,107.81L175.15,103.09L178.59,101.97L243.84,78.97L247.27,78.32L254.14,75.63L257.58,74.42L261.01,74.19L264.44,72.08L295.35,61.26L298.79,60.3L305.66,57.59L309.09,56.78L319.39,53.45L322.83,51.75L340,45.84" style="vector-effect: non-scaling-stroke; fill: none; stroke: rgb(34, 144, 140); stroke-opacity: 1; stroke-width: 1px; opacity: 1;"/></g><g class="points"/><g class="text"/></g><g class="trace scatter trace906780" style="stroke-miterlimit: 2; opacity: 1;"><g class="fills"/><g class="errorbars"/><g class="lines"><path class="js-line" d="M0,162.45L13.74,157.61L17.17,156.31L24.04,154.15L27.47,152.99L68.69,138.93L72.12,137.93L89.29,131.92L92.73,131.55L99.6,128.65L103.03,127.56L109.9,124.97L113.33,124.97L116.77,121.79L120.2,121.79L144.24,113.28L147.68,112.28L178.59,101.77L182.02,100.46L199.19,95.22L202.63,93.4L206.06,93.14L209.49,90.83L212.93,90.09L216.36,88.55L223.23,86.47L226.67,84.97L233.54,82.73L236.97,81.53L250.71,77.1L254.14,75.96L271.31,70.18L274.75,69.13L281.62,66.55L285.05,65.55L302.22,59.43L305.66,59.34L312.53,56.34L315.96,55.14L319.39,53.54L322.83,52.89L333.13,49.04L336.57,47.97L340,46.7" style="vector-effect: non-scaling-stroke; fill: none; stroke: rgb(33, 148, 139); stroke-opacity: 1; stroke-width: 1px; opacity: 1;"/></g><g class="points"/><g class="text"/></g><g class="trace scatter trace9f9db5" style="stroke-miterlimit: 2; opacity: 1;"><g class="fills"/><g class="errorbars"/><g class="lines"><path class="js-line" d="M0,147.76L13.74,143.93L17.17,142.98L27.47,140.19L30.91,139.34L109.9,118.27L113.33,118.27L116.77,115.61L120.2,115.61L326.26,60.08L329.7,58.65L340,56.43" style="vector-effect: non-scaling-stroke; fill: none; stroke: rgb(32, 153, 138); stroke-opacity: 1; stroke-width: 1px; opacity: 1;"/></g><g class="points"/><g class="text"/></g><g class="trace scatter trace11b26e" style="stroke-miterlimit: 2; opacity: 1;"><g class="fills"/><g class="errorbars"/><g class="lines"><path class="js-line" d="M0,164.48L10.3,160.74L13.74,159.64L27.47,154.9L30.91,153.55L109.9,126.11L113.33,126.11L116.77,122.82L120.2,122.82L137.37,116.49L140.81,115.52L154.55,110.62L157.98,109.49L164.85,106.1L168.28,105.59L185.45,99.56L188.89,98.34L206.06,92.33L209.49,90.86L247.27,77.97L250.71,76.33L257.58,73.94L261.01,72.66L278.18,66.95L281.62,65.68L298.79,59.91L302.22,58.26L319.39,52.64L322.83,51.11L340,45.17" style="vector-effect: non-scaling-stroke; fill: none; stroke: rgb(31, 158, 137); stroke-opacity: 1; stroke-width: 1px; opacity: 1;"/></g><g class="points"/><g class="text"/></g><g class="trace scatter tracee346d5" style="stroke-miterlimit: 2; opacity: 1;"><g class="fills"/><g class="errorbars"/><g class="lines"><path class="js-line" d="M0,185.57L3.43,184.29L6.87,182.05L30.91,171.69L34.34,170.05L48.08,164.61L51.52,161.61L54.95,161.28L58.38,160.15L65.25,156.65L68.69,154.73L89.29,145.69L92.73,144.3L99.6,140.23L103.03,139.32L106.46,138.06L109.9,134.69L113.33,134.69L116.77,131.21L120.2,131.21L123.64,129.66L140.81,120.83L144.24,120.43L151.11,117.15L154.55,115.22L192.32,98.94L195.76,97.72L199.19,95.92L202.63,95.34L212.93,92.73L216.36,91.45L219.8,90.37L223.23,88.26L240.4,81.94L243.84,81.75L247.27,78.12L250.71,76.61L257.58,74.58L261.01,71.32L274.75,67.13L278.18,65.32L288.48,62L291.92,60.33L302.22,56.11L305.66,52.46L309.09,51.81L312.53,49.85L319.39,48.54L322.83,46.89L329.7,43.16L333.13,42.16L336.57,39.73L340,38.47" style="vector-effect: non-scaling-stroke; fill: none; stroke: rgb(34, 162, 135); stroke-opacity: 1; stroke-width: 1px; opacity: 1;"/></g><g class="points"/><g class="text"/></g><g class="trace scatter trace05cee7" style="stroke-miterlimit: 2; opacity: 1;"><g class="fills"/><g class="errorbars"/><g class="lines"><path class="js-line" d="M0,184.47L24.04,174.05L27.47,172.49L34.34,169.3L37.78,167.96L48.08,163.41L51.52,161.76L68.69,154.15L72.12,152.91L75.56,150.08L78.99,149.66L89.29,144.36L92.73,143.54L106.46,137.41L109.9,134.92L113.33,134.92L116.77,131.31L120.2,131.31L123.64,129.67L137.37,123.77L140.81,122.52L151.11,117.43L154.55,115.73L178.59,105.36L182.02,103.69L202.63,94.92L206.06,93.73L209.49,92.94L212.93,90.04L219.8,87.59L223.23,85.47L236.97,79.81L240.4,78.25L243.84,78.6L247.27,74.03L254.14,72.53L257.58,70.75L261.01,69.67L264.44,67.65L271.31,64.72L274.75,63.24L302.22,50.9L305.66,49.06L309.09,48.23L312.53,45.72L319.39,44.04L322.83,42.03L326.26,39.8L329.7,38.65L333.13,37.79L336.57,36.08L340,34.21" style="vector-effect: non-scaling-stroke; fill: none; stroke: rgb(38, 166, 132); stroke-opacity: 1; stroke-width: 1px; opacity: 1;"/></g><g class="points"/><g class="text"/></g><g class="trace scatter trace8b0cab" style="stroke-miterlimit: 2; opacity: 1;"><g class="fills"/><g class="errorbars"/><g class="lines"><path class="js-line" d="M0,185.57L3.43,184.45L6.87,182.27L13.74,179.38L17.17,178.19L20.61,175.9L24.04,174.72L27.47,173.57L30.91,171.49L41.21,167.07L44.65,165.54L78.99,150.1L82.42,148.46L85.86,146.55L89.29,145.62L106.46,137.78L109.9,134.91L113.33,134.91L116.77,131.42L120.2,131.42L123.64,129.85L137.37,123.52L140.81,122.15L175.15,106.74L178.59,105.4L182.02,103.18L185.45,101.92L195.76,97.77L199.19,96.1L212.93,92.48L216.36,91.37L226.67,86.9L230.1,85.24L240.4,81.33L243.84,81.17L247.27,77.27L250.71,75.8L257.58,73.69L261.01,69.85L274.75,66.31L278.18,63.69L281.62,62.83L285.05,60.86L288.48,60.21L291.92,58.2L302.22,54.57L305.66,51.37L309.09,50.93L312.53,48.83L322.83,45.8L326.26,43.37L333.13,40.78L336.57,38.37L340,37.38" style="vector-effect: non-scaling-stroke; fill: none; stroke: rgb(41, 170, 130); stroke-opacity: 1; stroke-width: 1px; opacity: 1;"/></g><g class="points"/><g class="text"/></g><g class="trace scatter tracea1fee7" style="stroke-miterlimit: 2; opacity: 1;"><g class="fills"/><g class="errorbars"/><g class="lines"><path class="js-line" d="M0,66.99L6.87,66.66L10.3,67.54L13.74,69.36L17.17,72.66L20.61,70.16L24.04,72.78L27.47,73.32L30.91,76.06L34.34,75.97L37.78,75.1L41.21,77.39L44.65,76.79L48.08,75.93L51.52,80.56L58.38,80.48L61.82,83.96L65.25,81.35L68.69,82.73L72.12,83.55L75.56,87.99L78.99,87.43L82.42,88.61L85.86,88.38L89.29,89.44L92.73,90.06L96.16,93.14L99.6,93.07L103.03,92.08L106.46,93.88L109.9,105L113.33,105L116.77,99.65L120.2,99.65L123.64,98.49L127.07,98.81L130.51,100.5L133.94,98.68L137.37,100.52L144.24,101.98L147.68,104.01L154.55,105.96L157.98,106.17L161.41,106.67L164.85,106.31L168.28,108.48L171.72,109.36L175.15,105.14L178.59,112.56L182.02,111.74L185.45,113.58L188.89,112.19L192.32,113L195.76,112.72L199.19,114.63L202.63,120.91L206.06,115.2L209.49,114.47L212.93,116.45L216.36,114.68L219.8,117.16L223.23,120.21L226.67,118.82L230.1,119.02L233.54,118.15L236.97,121.59L240.4,121L243.84,119.52L247.27,119.2L250.71,122.47L254.14,122.37L257.58,121.38L261.01,121.77L264.44,123.35L267.88,126.36L271.31,125.61L274.75,127.32L278.18,126.01L281.62,128.45L285.05,125.32L288.48,126.04L291.92,125.09L295.35,127.83L298.79,124.96L302.22,125.5L305.66,130.17L309.09,130.14L312.53,128.55L315.96,129.82L319.39,129.46L322.83,131.12L326.26,129.72L329.7,130.56L333.13,132.48L336.57,130.96L340,133.5" style="vector-effect: non-scaling-stroke; fill: none; stroke: rgb(45, 174, 127); stroke-opacity: 1; stroke-width: 1px; opacity: 1;"/></g><g class="points"/><g class="text"/></g><g class="trace scatter trace65a72c" style="stroke-miterlimit: 2; opacity: 1;"><g class="fills"/><g class="errorbars"/><g class="lines"><path class="js-line" d="M0,204.96L3.43,203.25L6.87,199.94L10.3,196.11L13.74,197.05L17.17,195.67L20.61,193.35L24.04,193.39L27.47,190.27L34.34,186.67L37.78,185.17L51.52,176.82L54.95,175.93L58.38,172.71L61.82,172.68L68.69,167.88L72.12,166.22L85.86,158L89.29,157.38L92.73,154.02L96.16,153.36L103.03,150.09L106.46,148.42L109.9,143.53L113.33,143.53L116.77,140.43L120.2,140.43L123.64,139.37L127.07,137.5L133.94,132.75L137.37,131.48L178.59,110.44L182.02,106.96L192.32,102.88L195.76,100.66L212.93,90.57L216.36,87.65L219.8,88.52L223.23,83.69L226.67,83.33L230.1,81.2L236.97,77.64L240.4,75.18L243.84,73.43L247.27,72.55L250.71,70.3L254.14,69.68L257.58,66.76L261.01,64.94L264.44,63.86L267.88,60.6L274.75,57.29L278.18,55.78L281.62,54.55L285.05,52.33L288.48,51.11L291.92,48.35L295.35,45.5L298.79,45.2L302.22,42.78L305.66,41.35L309.09,40.48L312.53,38.09L319.39,35.94L322.83,32.02L326.26,31.8L329.7,28.82L340,24.43" style="vector-effect: non-scaling-stroke; fill: none; stroke: rgb(96, 200, 96); stroke-opacity: 1; stroke-width: 1px; opacity: 1;"/></g><g class="points"/><g class="text"/></g><g class="trace scatter trace4ee81f" style="stroke-miterlimit: 2; opacity: 1;"><g class="fills"/><g class="errorbars"/><g class="lines"><path class="js-line" d="M0,258.4L6.87,251.59L10.3,250.53L17.17,243.99L20.61,239.27L24.04,239.07L27.47,236.72L30.91,234.06L34.34,233.29L37.78,229.5L41.21,227.2L51.52,217.28L54.95,216.5L68.69,204.92L72.12,204.36L75.56,202.02L78.99,198L82.42,196.18L85.86,192L89.29,190.85L92.73,188.26L106.46,180.05L109.9,169.49L113.33,169.49L116.77,166.95L120.2,166.95L123.64,165.18L127.07,163.9L130.51,161L133.94,159.05L137.37,154.58L140.81,154.09L144.24,151.67L147.68,150.03L151.11,146.85L164.85,136.22L168.28,134.93L178.59,128.33L182.02,129.83L185.45,122.44L188.89,120.83L192.32,118.03L195.76,116.83L202.63,109.74L206.06,107.48L209.49,105.35L212.93,101.98L219.8,95.94L223.23,95.22L226.67,91.59L230.1,90.65L236.97,83.4L240.4,82.02L243.84,79.27L247.27,78.24L257.58,70.43L261.01,70.98L264.44,66.28L267.88,63.44L271.31,60.14L274.75,60.73L278.18,55.3L281.62,52.46L285.05,52.21L288.48,49.47L291.92,46L295.35,45.62L298.79,43L302.22,38.11L305.66,39.85L309.09,36.37L312.53,33.12L315.96,30.99L322.83,24.84L326.26,24.16L333.13,19.03L336.57,17.28L340,14.86" style="vector-effect: non-scaling-stroke; fill: none; stroke: rgb(105, 204, 91); stroke-opacity: 1; stroke-width: 1px; opacity: 1;"/></g><g class="points"/><g class="text"/></g><g class="trace scatter trace671af3" style="stroke-miterlimit: 2; opacity: 1;"><g class="fills"/><g class="errorbars"/><g class="lines"><path class="js-line" d="M0,154.9L37.78,143.64L41.21,142.27L58.38,137.41L61.82,136.05L82.42,130.09L85.86,128.46L99.6,125.14L103.03,123.64L109.9,121.85L113.33,121.85L116.77,118.48L120.2,118.48L151.11,108.9L154.55,107.72L164.85,104.84L168.28,103.83L285.05,68.65L288.48,67.72L302.22,62.96L305.66,61.93L340,51.63" style="vector-effect: non-scaling-stroke; fill: none; stroke: rgb(115, 207, 85); stroke-opacity: 1; stroke-width: 1px; opacity: 1;"/></g><g class="points"/><g class="text"/></g><g class="trace scatter trace66dee2" style="stroke-miterlimit: 2; opacity: 1;"><g class="fills"/><g class="errorbars"/><g class="lines"><path class="js-line" d="M0,183.61L3.43,181.33L6.87,180.3L17.17,176.12L20.61,174.56L41.21,164.98L44.65,163.72L65.25,154.81L68.69,153.16L82.42,147.18L85.86,145.92L99.6,139.53L103.03,138.09L106.46,137.38L109.9,134.78L113.33,134.78L116.77,130.6L120.2,130.6L123.64,128.35L127.07,127.53L130.51,125.86L151.11,116.69L154.55,114.33L157.98,114.04L161.41,112.39L175.15,106.42L178.59,104.47L192.32,98.43L195.76,96.62L216.36,87.46L219.8,86.25L223.23,85.02L226.67,81.74L230.1,81.28L233.54,79.22L236.97,78.47L240.4,76.53L243.84,76.59L247.27,72.8L250.71,72.36L254.14,70.61L257.58,68.82L261.01,68.48L267.88,64.66L271.31,62.87L288.48,55.63L291.92,53.5L298.79,50.83L302.22,48.95L305.66,48.79L309.09,46.67L312.53,44.67L315.96,43.74L319.39,41.41L322.83,40.12L333.13,36.03L336.57,34.23L340,32.84" style="vector-effect: non-scaling-stroke; fill: none; stroke: rgb(126, 210, 78); stroke-opacity: 1; stroke-width: 1px; opacity: 1;"/></g><g class="points"/><g class="text"/></g><g class="trace scatter trace4a2360" style="stroke-miterlimit: 2; opacity: 1;"><g class="fills"/><g class="errorbars"/><g class="lines"><path class="js-line" d="M0,161.5L13.74,156.96L17.17,155.57L48.08,145.45L51.52,144.18L72.12,137.53L75.56,136.22L92.73,130.58L96.16,129.56L103.03,127L106.46,125.98L109.9,124.47L113.33,124.47L116.77,121.43L120.2,121.43L147.68,112.03L151.11,110.9L157.98,108.73L161.41,107.66L199.19,94.58L202.63,93.83L209.49,91.34L212.93,89.86L223.23,85.91L226.67,85.53L247.27,77.94L250.71,77.21L298.79,60.92L302.22,59.93L340,47.58" style="vector-effect: non-scaling-stroke; fill: none; stroke: rgb(138, 212, 70); stroke-opacity: 1; stroke-width: 1px; opacity: 1;"/></g><g class="points"/><g class="text"/></g><g class="trace scatter traced659db" style="stroke-miterlimit: 2; opacity: 1;"><g class="fills"/><g class="errorbars"/><g class="lines"><path class="js-line" d="M0,197.35L3.43,196.34L6.87,193.51L17.17,188.27L20.61,186.33L24.04,184.62L27.47,184.31L30.91,181.5L34.34,179.7L37.78,178.98L41.21,176.58L44.65,175L48.08,172.47L58.38,168.24L61.82,167.06L68.69,162.53L72.12,161.3L75.56,159.02L78.99,157.74L82.42,156.24L85.86,153.41L92.73,150.97L96.16,148.7L106.46,143.87L109.9,139.51L113.33,139.51L116.77,136.61L120.2,136.61L123.64,135.4L144.24,125.26L147.68,124.13L154.55,119.66L157.98,118.83L164.85,114.55L168.28,113.42L175.15,110.49L178.59,108.04L185.45,104.83L188.89,103.52L216.36,88.84L219.8,87.63L226.67,83.87L230.1,82.64L233.54,80.29L236.97,78.91L240.4,76.87L243.84,76.07L247.27,74.9L250.71,71.63L264.44,65.77L267.88,63.11L271.31,62.25L274.75,60.11L278.18,58.96L281.62,56.98L285.05,55.96L288.48,52.78L291.92,52.46L295.35,50.8L302.22,46.35L305.66,46.09L309.09,43.96L312.53,42.96L319.39,38.34L322.83,38L326.26,34.66L329.7,34.97L333.13,31.87L336.57,31.37L340,29.25" style="vector-effect: non-scaling-stroke; fill: none; stroke: rgb(149, 215, 63); stroke-opacity: 1; stroke-width: 1px; opacity: 1;"/></g><g class="points"/><g class="text"/></g><g class="trace scatter trace2812b4" style="stroke-miterlimit: 2; opacity: 1;"><g class="fills"/><g class="errorbars"/><g class="lines"><path class="js-line" d="M0,163.36L6.87,160.92L10.3,159.8L72.12,138.56L75.56,137.19L106.46,126.81L109.9,125.6L113.33,125.6L116.77,122.36L120.2,122.36L123.64,121.11L133.94,117.07L137.37,115.85L144.24,113.83L147.68,112.48L154.55,110.16L157.98,109.36L168.28,105.58L171.72,104.59L182.02,100.55L185.45,99.53L216.36,88.43L219.8,88.03L226.67,85.31L230.1,83.88L257.58,74.38L261.01,74.23L267.88,70.84L271.31,69.61L291.92,63.06L295.35,61.06L312.53,55.45L315.96,54.37L340,45.87" style="vector-effect: non-scaling-stroke; fill: none; stroke: rgb(161, 217, 56); stroke-opacity: 1; stroke-width: 1px; opacity: 1;"/></g><g class="points"/><g class="text"/></g><g class="trace scatter tracef9f944" style="stroke-miterlimit: 2; opacity: 1;"><g class="fills"/><g class="errorbars"/><g class="lines"><path class="js-line" d="M0,161.43L30.91,151.25L34.34,150.04L58.38,141.94L61.82,140.85L109.9,124.66L113.33,124.66L116.77,121.6L120.2,121.6L161.41,107.33L164.85,107.25L168.28,105.14L171.72,104.05L250.71,76.99L254.14,76.32L271.31,70.2L274.75,69.17L281.62,66.81L285.05,65.8L312.53,56.26L315.96,55.42L319.39,54.64L322.83,52.82L326.26,52.38L329.7,50.53L340,47.29" style="vector-effect: non-scaling-stroke; fill: none; stroke: rgb(172, 220, 49); stroke-opacity: 1; stroke-width: 1px; opacity: 1;"/></g><g class="points"/><g class="text"/></g><g class="trace scatter trace8ff960" style="stroke-miterlimit: 2; opacity: 1;"><g class="fills"/><g class="errorbars"/><g class="lines"><path class="js-line" d="M0,147.4L20.61,141.67L24.04,141.02L103.03,119.99L106.46,119.25L109.9,118.19L113.33,118.19L116.77,115.51L120.2,115.51L175.15,100.59L178.59,99.57L199.19,94.24L202.63,93.07L230.1,86.31L233.54,84.87L247.27,81.65L250.71,80.48L288.48,70.47L291.92,69.8L298.79,67.41L302.22,66.48L340,56.56" style="vector-effect: non-scaling-stroke; fill: none; stroke: rgb(184, 222, 43); stroke-opacity: 1; stroke-width: 1px; opacity: 1;"/></g><g class="points"/><g class="text"/></g><g class="trace scatter trace4f5aae" style="stroke-miterlimit: 2; opacity: 1;"><g class="fills"/><g class="errorbars"/><g class="lines"><path class="js-line" d="M0,164.06L72.12,138.9L75.56,137.53L82.42,135.49L85.86,133.96L103.03,128.44L106.46,127.04L109.9,125.79L113.33,125.79L116.77,122.53L120.2,122.53L144.24,114.11L147.68,112.94L157.98,109.29L161.41,108.61L164.85,106.64L168.28,105.56L226.67,85.03L230.1,83.42L247.27,78.1L250.71,76.46L264.44,71.89L267.88,70.69L302.22,58.57L305.66,57L309.09,56.38L312.53,54.86L319.39,52.81L322.83,51.76L336.57,46.32L340,45.53" style="vector-effect: non-scaling-stroke; fill: none; stroke: rgb(195, 224, 42); stroke-opacity: 1; stroke-width: 1px; opacity: 1;"/></g><g class="points"/><g class="text"/></g><g class="trace scatter traced13e4b" style="stroke-miterlimit: 2; opacity: 1;"><g class="fills"/><g class="errorbars"/><g class="lines"><path class="js-line" d="M0,187.29L17.17,179.74L20.61,178.49L24.04,176L27.47,174.7L37.78,170.38L41.21,167.84L48.08,164.76L51.52,163.75L72.12,154.64L75.56,153.1L85.86,147.53L89.29,146.66L92.73,145.34L96.16,143.09L106.46,137.9L109.9,134.9L113.33,134.9L116.77,131.43L120.2,131.43L123.64,129.87L140.81,121.5L144.24,120.01L151.11,116.61L154.55,114.68L185.45,100.53L188.89,99.49L199.19,95.6L202.63,94.86L212.93,92.6L216.36,91.57L219.8,90.62L223.23,88.81L236.97,83.96L240.4,83.53L243.84,83.31L247.27,80.21L257.58,76.2L261.01,72.89L274.75,68.29L278.18,66.54L288.48,63.2L291.92,61.31L302.22,57.51L305.66,53.76L309.09,53.12L312.53,51.15L322.83,47.95L326.26,45.99L333.13,43.37L336.57,40.65L340,39.67" style="vector-effect: non-scaling-stroke; fill: none; stroke: rgb(207, 225, 41); stroke-opacity: 1; stroke-width: 1px; opacity: 1;"/></g><g class="points"/><g class="text"/></g><g class="trace scatter trace5006ba" style="stroke-miterlimit: 2; opacity: 1;"><g class="fills"/><g class="errorbars"/><g class="lines"><path class="js-line" d="M0,188.61L3.43,186.15L6.87,185.17L20.61,178.89L24.04,177.29L48.08,165.88L51.52,164.78L82.42,150.54L85.86,148.31L99.6,142.32L103.03,140.63L109.9,136.78L113.33,136.78L116.77,133.22L120.2,133.22L130.51,128.24L133.94,126.63L137.37,124.78L140.81,123.89L154.55,116.4L157.98,115.52L171.72,109.07L175.15,106.88L182.02,104.17L185.45,102.33L202.63,95.5L206.06,94.66L216.36,88.96L219.8,87.59L230.1,82.71L233.54,81.37L240.4,78.6L243.84,78.75L247.27,74.16L250.71,73.46L257.58,70.77L261.01,67.79L264.44,67.19L267.88,65.59L285.05,57.98L288.48,56.17L302.22,50.35L305.66,46.64L309.09,46.6L312.53,44.88L319.39,43.4L322.83,40.57L329.7,37.07L333.13,36.07L336.57,33.6L340,32.77" style="vector-effect: non-scaling-stroke; fill: none; stroke: rgb(218, 227, 40); stroke-opacity: 1; stroke-width: 1px; opacity: 1;"/></g><g class="points"/><g class="text"/></g><g class="trace scatter traceda0a53" style="stroke-miterlimit: 2; opacity: 1;"><g class="fills"/><g class="errorbars"/><g class="lines"><path class="js-line" d="M0,174.11L3.43,172.78L6.87,170.52L20.61,165.46L24.04,163.26L30.91,160.69L34.34,159.28L37.78,157.98L41.21,155.81L58.38,149.04L61.82,146.88L85.86,135.99L89.29,135.33L106.46,128.24L109.9,125.8L113.33,125.66L116.77,122.22L120.2,122.08L123.64,120.72L137.37,115.45L140.81,114.29L151.11,110.66L154.55,109.19L192.32,97.29L195.76,96.36L202.63,94.34L206.06,93.59L219.8,89.07L223.23,87.09L240.4,80.69L243.84,80.37L247.27,76.44L250.71,74.83L257.58,72.49L261.01,69.42L274.75,65.2L278.18,63.38L288.48,59.91L291.92,58.17L302.22,54.26L305.66,51.54L309.09,50.91L312.53,48.92L322.83,45.82L326.26,43.9L333.13,41.6L336.57,39.4L340,38.39" style="vector-effect: non-scaling-stroke; fill: none; stroke: rgb(230, 228, 39); stroke-opacity: 1; stroke-width: 1px; opacity: 1;"/></g><g class="points"/><g class="text"/></g><g class="trace scatter trace68048b" style="stroke-miterlimit: 2; opacity: 1;"><g class="fills"/><g class="errorbars"/><g class="lines"><path class="js-line" d="M0,61.28L3.43,64.21L6.87,64.89L10.3,66.76L13.74,65.2L17.17,67.83L20.61,65.8L24.04,72.4L27.47,68.89L30.91,72.18L34.34,69.87L37.78,73.68L41.21,74L44.65,75.25L48.08,75.3L51.52,77.53L54.95,77.71L58.38,78.59L61.82,80.28L65.25,80.87L68.69,79.82L72.12,81.06L75.56,84.88L89.29,85.8L92.73,90.29L96.16,88.78L99.6,91.24L103.03,90.49L106.46,91.52L109.9,104.43L113.33,104.43L116.77,99.53L120.2,99.53L127.07,97.31L130.51,95.28L133.94,92.38L137.37,99.61L140.81,101.89L144.24,101.9L147.68,102.05L151.11,103.95L154.55,106.64L157.98,104.97L164.85,108.57L168.28,104.6L171.72,109.67L175.15,108.06L178.59,111.01L182.02,112.4L185.45,113.6L188.89,111.66L192.32,114.29L195.76,113.21L199.19,117.33L202.63,114.37L206.06,115.63L209.49,115.55L212.93,117.61L216.36,117.88L219.8,117.29L223.23,119.1L226.67,116.9L230.1,119.15L236.97,120.25L240.4,122.02L243.84,121.29L247.27,117.66L254.14,122.65L257.58,124.37L261.01,126.8L264.44,125.5L267.88,126.23L271.31,129.05L274.75,127.27L278.18,126.94L281.62,128.91L285.05,129.37L288.48,128.14L291.92,127.74L295.35,130.3L298.79,131.71L305.66,132.04L309.09,132.87L312.53,133.73L315.96,132.59L319.39,132.34L322.83,134.21L329.7,135.77L333.13,137.64L336.57,138.87L340,138.07" style="vector-effect: non-scaling-stroke; fill: none; stroke: rgb(241, 230, 38); stroke-opacity: 1; stroke-width: 1px; opacity: 1;"/></g><g class="points"/><g class="text"/></g><g class="trace scatter trace4b98b6" style="stroke-miterlimit: 2; opacity: 1;"><g class="fills"/><g class="errorbars"/><g class="lines"><path class="js-line" d="M0,163.81L41.21,149.38L44.65,148.49L109.9,125.67L113.33,125.67L116.77,122.39L120.2,122.39L127.07,119.42L130.51,118.7L144.24,113.82L147.68,113.01L157.98,109.18L161.41,108.1L171.72,104.3L175.15,103.26L219.8,87.27L223.23,86.34L240.4,80.16L243.84,79.35L261.01,73.05L264.44,71.91L305.66,57.53L309.09,56.67L312.53,54.83L315.96,54.23L340,45.21" style="vector-effect: non-scaling-stroke; fill: none; stroke: rgb(253, 231, 37); stroke-opacity: 1; stroke-width: 1px; opacity: 1;"/></g><g class="points"/><g class="text"/></g><g class="trace scatter trace6f3289" style="stroke-miterlimit: 2; opacity: 1;"><g class="fills"/><g class="errorbars"/><g class="lines"><path class="js-line" d="M0,171.13L3.43,169.87L6.87,167.72L17.17,164.32L20.61,162.93L24.04,160.86L27.47,159.86L82.42,136.52L85.86,134.83L92.73,132.88L96.16,131.23L106.46,127.38L109.9,125.02L113.33,125.02L116.77,121.59L120.2,121.59L123.64,120.24L137.37,115.09L140.81,113.97L151.11,110.43L154.55,108.97L192.32,97.26L195.76,96.35L202.63,94.29L206.06,93.53L216.36,90.04L219.8,88.86L226.67,85.36L230.1,83.85L240.4,80.22L243.84,79.88L247.27,75.89L250.71,74.23L257.58,71.8L261.01,68.62L274.75,64.22L278.18,62.32L288.48,58.69L291.92,56.89L302.22,52.81L305.66,49.94L309.09,49.28L312.53,47.15L322.83,43.9L326.26,41.86L333.13,39.43L336.57,37.11L340,36.04" style="vector-effect: non-scaling-stroke; fill: none; stroke: rgb(169, 169, 169); stroke-opacity: 1; stroke-width: 2px; opacity: 1;"/></g><g class="points"/><g class="text"/></g></g></g><g class="overplot"/><path class="xlines-above crisp" d="M0,0" style="fill: none;"/><path class="ylines-above crisp" d="M0,0" style="fill: none;"/><g class="overlines-above"/><g class="xaxislayer-above"><g class="x3tick"><text text-anchor="middle" x="0" y="1133" transform="translate(80,0)" style="font-family: 'Open Sans', verdana, arial, sans-serif; font-size: 12px; fill: rgb(42, 63, 95); fill-opacity: 1; white-space: pre; opacity: 1;">2.66</text></g><g class="x3tick"><text text-anchor="middle" x="0" y="1133" style="font-family: 'Open Sans', verdana, arial, sans-serif; font-size: 12px; fill: rgb(42, 63, 95); fill-opacity: 1; white-space: pre; opacity: 1;" transform="translate(148,0)">2.68</text></g><g class="x3tick"><text text-anchor="middle" x="0" y="1133" style="font-family: 'Open Sans', verdana, arial, sans-serif; font-size: 12px; fill: rgb(42, 63, 95); fill-opacity: 1; white-space: pre; opacity: 1;" transform="translate(216,0)">2.7</text></g><g class="x3tick"><text text-anchor="middle" x="0" y="1133" style="font-family: 'Open Sans', verdana, arial, sans-serif; font-size: 12px; fill: rgb(42, 63, 95); fill-opacity: 1; white-space: pre; opacity: 1;" transform="translate(284,0)">2.72</text></g><g class="x3tick"><text text-anchor="middle" x="0" y="1133" style="font-family: 'Open Sans', verdana, arial, sans-serif; font-size: 12px; fill: rgb(42, 63, 95); fill-opacity: 1; white-space: pre; opacity: 1;" transform="translate(352,0)">2.74</text></g><g class="x3tick"><text text-anchor="middle" x="0" y="1133" style="font-family: 'Open Sans', verdana, arial, sans-serif; font-size: 12px; fill: rgb(42, 63, 95); fill-opacity: 1; white-space: pre; opacity: 1;" transform="translate(420,0)">2.76</text></g></g><g class="yaxislayer-above"><g class="y3tick"><text text-anchor="end" x="79" y="4.199999999999999" transform="translate(0,1061.5900000000001)" style="font-family: 'Open Sans', verdana, arial, sans-serif; font-size: 12px; fill: rgb(42, 63, 95); fill-opacity: 1; white-space: pre; opacity: 1;">−0.2</text></g><g class="y3tick"><text text-anchor="end" x="79" y="4.199999999999999" style="font-family: 'Open Sans', verdana, arial, sans-serif; font-size: 12px; fill: rgb(42, 63, 95); fill-opacity: 1; white-space: pre; opacity: 1;" transform="translate(0,1001.7500000000001)">−0.1</text></g><g class="y3tick"><text text-anchor="end" x="79" y="4.199999999999999" style="font-family: 'Open Sans', verdana, arial, sans-serif; font-size: 12px; fill: rgb(42, 63, 95); fill-opacity: 1; white-space: pre; opacity: 1;" transform="translate(0,941.9100000000001)">0</text></g><g class="y3tick"><text text-anchor="end" x="79" y="4.199999999999999" style="font-family: 'Open Sans', verdana, arial, sans-serif; font-size: 12px; fill: rgb(42, 63, 95); fill-opacity: 1; white-space: pre; opacity: 1;" transform="translate(0,882.0700000000002)">0.1</text></g></g><g class="overaxes-above"/></g></g><g class="polarlayer"/><g class="smithlayer"/><g class="ternarylayer"/><g class="geolayer"/><g class="funnelarealayer"/><g class="pielayer"/><g class="iciclelayer"/><g class="treemaplayer"/><g class="sunburstlayer"/><g class="glimages"/><defs id="topdefs-9d81cc"><g class="clips"/><clipPath id="legend9d81cc"><rect width="188" height="29" x="0" y="0"/></clipPath></defs><g class="layer-above"><g class="imagelayer"/><g class="shapelayer"/></g><g class="infolayer"><g class="legend" pointer-events="all" transform="translate(232,50.59999999999998)"><rect class="bg" shape-rendering="crispEdges" style="stroke: rgb(68, 68, 68); stroke-opacity: 1; fill: rgb(255, 255, 255); fill-opacity: 1; stroke-width: 0px;" width="188" height="29" x="0" y="0"/><g class="scrollbox" transform="" clip-path="url(#legend9d81cc)"><g class="groups"><g class="traces" transform="translate(0,14.5)" style="opacity: 1;"><text class="legendtext" text-anchor="start" x="40" y="4.680000000000001" style="font-family: 'Open Sans', verdana, arial, sans-serif; font-size: 12px; fill: rgb(42, 63, 95); fill-opacity: 1; white-space: pre;">Population Log-likelihood</text><g class="layers" style="opacity: 1;"><g class="legendfill"/><g class="legendlines"><path class="js-line" d="M5,0h30" style="fill: none; stroke: rgb(169, 169, 169); stroke-opacity: 1; stroke-width: 2px;"/></g><g class="legendsymbols"><g class="legendpoints"/></g></g><rect class="legendtoggle" x="0" y="-9.5" width="184.703125" height="19" style="fill: rgb(0, 0, 0); fill-opacity: 0;"/></g></g></g><rect class="scrollbar" rx="20" ry="3" width="0" height="0" style="fill: rgb(128, 139, 164); fill-opacity: 1;" x="0" y="0"/></g><g class="g-gtitle"/><g class="g-xtitle"/><g class="g-x2title"/><g class="g-x3title"/><g class="g-ytitle"/><g class="g-y2title"/><g class="g-y3title"/></g></svg>