<svg class="main-svg" xmlns="http://www.w3.org/2000/svg" xmlns:xlink="http://www.w3.org/1999/xlink" width="500" height="1200" style="" viewBox="0 0 500 1200"><rect x="0" y="0" width="500" height="1200" style="fill: rgb(255, 255, 255); fill-opacity: 1;"/><defs id="defs-9edd5a"><g class="clips"><clipPath id="clip9edd5axyplot" class="plotclip"><rect width="340" height="272.00000000000006"/></clipPath><clipPath id="clip9edd5ax2y2plot" class="plotclip"><rect width="340" height="272"/></clipPath><clipPath id="clip9edd5ax3y3plot" class="plotclip"><rect width="340" height="272"/></clipPath><clipPath class="axesclip" id="clip9edd5ax"><rect x="80" y="0" width="340" height="1200"/></clipPath><clipPath class="axesclip" id="clip9edd5ay"><rect x="0" y="100" width="500" height="272.00000000000006"/></clipPath><clipPath class="axesclip" id="clip9edd5axy"><rect x="80" y="100" width="340" height="272.00000000000006"/></clipPath><clipPath class="axesclip" id="clip9edd5ay2"><rect x="0" y="474.00000000000006" width="500" height="272"/></clipPath><clipPath class="axesclip" id="clip9edd5axy2"><rect x="80" y="474.00000000000006" width="340" height="272"/></clipPath><clipPath class="axesclip" id="clip9edd5ay3"><rect x="0" y="848.0000000000001" width="500" height="272"/></clipPath><clipPath class="axesclip" id="clip9edd5axy3"><rect x="80" y="848.0000000000001" width="340" height="272"/></clipPath><clipPath class="axesclip" id="clip9edd5ax2"><rect x="80" y="0" width="340" height="1200"/></clipPath><clipPath class="axesclip" id="clip9edd5ax2y"><rect x="80" y="100" width="340" height="272.00000000000006"/></clipPath><clipPath class="axesclip" id="clip9edd5ax2y2"><rect x="80" y="474.00000000000006" width="340" height="272"/></clipPath><clipPath class="axesclip" id="clip9edd5ax2y3"><rect x="80" y="848.0000000000001" width="340" height="272"/></clipPath><clipPath class="axesclip" id="clip9edd5ax3"><rect x="80" y="0" width="340" height="1200"/></clipPath><clipPath class="axesclip" id="clip9edd5ax3y"><rect x="80" y="100" width="340" height="272.00000000000006"/></clipPath><clipPath class="axesclip" id="clip9edd5ax3y2"><rect x="80" y="474.00000000000006" width="340" height="272"/></clipPath><clipPath class="axesclip" id="clip9edd5ax3y3"><rect x="80" y="848.0000000000001" width="340" height="272"/></clipPath></g><g class="gradients"/><g class="patterns"/></defs><g class="bglayer"/><g class="layer-below"><g class="imagelayer"/><g class="shapelayer"/></g><g class="cartesianlayer"><g class="subplot xy"><g class="layer-subplot"><g class="shapelayer"/><g class="imagelayer"/></g><g class="minor-gridlayer"><g class="x"/><g class="y"/></g><g class="gridlayer"><g class="x"><path class="xgrid crisp" transform="translate(148,0)" d="M0,100v272.00000000000006" style="stroke: rgb(235, 240, 248); stroke-opacity: 1; stroke-width: 1px;"/><path class="xgrid crisp" transform="translate(216,0)" d="M0,100v272.00000000000006" style="stroke: rgb(235, 240, 248); stroke-opacity: 1; stroke-width: 1px;"/><path class="xgrid crisp" transform="translate(284,0)" d="M0,100v272.00000000000006" style="stroke: rgb(235, 240, 248); stroke-opacity: 1; stroke-width: 1px;"/><path class="xgrid crisp" transform="translate(352,0)" d="M0,100v272.00000000000006" style="stroke: rgb(235, 240, 248); stroke-opacity: 1; stroke-width: 1px;"/></g><g class="y"><path class="ygrid crisp" transform="translate(0,335.2)" d="M80,0h340" style="stroke: rgb(235, 240, 248); stroke-opacity: 1; stroke-width: 1px;"/><path class="ygrid crisp" transform="translate(0,290.88)" d="M80,0h340" style="stroke: rgb(235, 240, 248); stroke-opacity: 1; stroke-width: 1px;"/><path class="ygrid crisp" transform="translate(0,246.56)" d="M80,0h340" style="stroke: rgb(235, 240, 248); stroke-opacity: 1; stroke-width: 1px;"/><path class="ygrid crisp" transform="translate(0,202.24)" d="M80,0h340" style="stroke: rgb(235, 240, 248); stroke-opacity: 1; stroke-width: 1px;"/><path class="ygrid crisp" transform="translate(0,157.92000000000002)" d="M80,0h340" style="stroke: rgb(235, 240, 248); stroke-opacity: 1; stroke-width: 1px;"/></g></g><g class="zerolinelayer"><path class="yzl zl crisp" transform="translate(0,113.6)" d="M80,0h340" style="stroke: rgb(235, 240, 248); stroke-opacity: 1; stroke-width: 2px;"/></g><path class="xlines-below"/><path class="ylines-below"/><g class="overlines-below"/><g class="xaxislayer-below"/><g class="yaxislayer-below"/><g class="overaxes-below"/><g class="plot" transform="translate(80,100)" clip-path="url(#clip9edd5axyplot)"><g class="scatterlayer mlayer"><g class="trace scatter trace54e9c6" style="stroke-miterlimit: 2; opacity: 1;"><g class="fills"/><g class="errorbars"/><g class="lines"><path class="js-line" d="M0,258.4L12.33,225.38L24.66,194.72L43.16,153.27L44.7,150.05L58.58,122.88L61.66,117.26L78.62,89L80.16,86.65L86.33,77.65L98.66,61.47L110.99,47.59L123.32,36.13L134.11,28.03L135.65,27.02L141.82,23.35L147.99,20.29L160.32,15.86L172.65,13.8L184.98,14.05L188.07,14.45L195.77,16.16L197.32,19.3L198.43,16.94L199.54,17.31L206.23,19.88L210.69,21.96L215.15,24.36L224.07,30.02L240.79,43.86L241.9,44.93L250.82,54.16L259.74,64.56L277.58,88.88L278.69,90.55L290.95,110.16L295.41,117.84L308.79,142.58L311.02,146.96L322.16,169.9L331.08,189.53L340,210.2" style="vector-effect: non-scaling-stroke; fill: none; stroke: rgb(51, 34, 136); stroke-opacity: 1; stroke-width: 2px; opacity: 1;"/></g><g class="points"/><g class="text"/></g></g></g><g class="overplot"/><path class="xlines-above crisp" d="M0,0" style="fill: none;"/><path class="ylines-above crisp" d="M0,0" style="fill: none;"/><g class="overlines-above"/><g class="xaxislayer-above"/><g class="yaxislayer-above"><g class="ytick"><text text-anchor="end" x="79" y="4.199999999999999" transform="translate(0,335.2)" style="font-family: 'Open Sans', verdana, arial, sans-serif; font-size: 12px; fill: rgb(42, 63, 95); fill-opacity: 1; white-space: pre; opacity: 1;">−5</text></g><g class="ytick"><text text-anchor="end" x="79" y="4.199999999999999" style="font-family: 'Open Sans', verdana, arial, sans-serif; font-size: 12px; fill: rgb(42, 63, 95); fill-opacity: 1; white-space: pre; opacity: 1;" transform="translate(0,290.88)">−4</text></g><g class="ytick"><text text-anchor="end" x="79" y="4.199999999999999" style="font-family: 'Open Sans', verdana, arial, sans-serif; font-size: 12px; fill: rgb(42, 63, 95); fill-opacity: 1; white-space: pre; opacity: 1;" transform="translate(0,246.56)">−3</text></g><g class="ytick"><text text-anchor="end" x="79" y="4.199999999999999" style="font-family: 'Open Sans', verdana, arial, sans-serif; font-size: 12px; fill: rgb(42, 63, 95); fill-opacity: 1; white-space: pre; opacity: 1;" transform="translate(0,202.24)">−2</text></g><g class="ytick"><text text-anchor="end" x="79" y="4.199999999999999" style="font-family: 'Open Sans', verdana, arial, sans-serif; font-size: 12px; fill: rgb(42, 63, 95); fill-opacity: 1; white-space: pre; opacity: 1;" transform="translate(0,157.92000000000002)">−1</text></g><g class="ytick"><text text-anchor="end" x="79" y="4.199999999999999" style="font-family: 'Open Sans', verdana, arial, sans-serif; font-size: 12px; fill: rgb(42, 63, 95); fill-opacity: 1; white-space: pre; opacity: 1;" transform="translate(0,113.6)">0</text></g></g><g class="overaxes-above"/></g><g class="subplot x2y2"><g class="layer-subplot"><g class="shapelayer"/><g class="imagelayer"/></g><g class="minor-gridlayer"><g class="x2"/><g class="y2"/></g><g class="gridlayer"><g class="x2"><path class="x2grid crisp" transform="translate(148,0)" d="M0,474.00000000000006v272" style="stroke: rgb(235, 240, 248); stroke-opacity: 1; stroke-width: 1px;"/><path class="x2grid crisp" transform="translate(216,0)" d="M0,474.00000000000006v272" style="stroke: rgb(235, 240, 248); stroke-opacity: 1; stroke-width: 1px;"/><path class="x2grid crisp" transform="translate(284,0)" d="M0,474.00000000000006v272" style="stroke: rgb(235, 240, 248); stroke-opacity: 1; stroke-width: 1px;"/><path class="x2grid crisp" transform="translate(352,0)" d="M0,474.00000000000006v272" style="stroke: rgb(235, 240, 248); stroke-opacity: 1; stroke-width: 1px;"/></g><g class="y2"><path class="y2grid crisp" transform="translate(0,737.4000000000001)" d="M80,0h340" style="stroke: rgb(235, 240, 248); stroke-opacity: 1; stroke-width: 1px;"/><path class="y2grid crisp" transform="translate(0,702.1300000000001)" d="M80,0h340" style="stroke: rgb(235, 240, 248); stroke-opacity: 1; stroke-width: 1px;"/><path class="y2grid crisp" transform="translate(0,666.8600000000001)" d="M80,0h340" style="stroke: rgb(235, 240, 248); stroke-opacity: 1; stroke-width: 1px;"/><path class="y2grid crisp" transform="translate(0,596.3100000000001)" d="M80,0h340" style="stroke: rgb(235, 240, 248); stroke-opacity: 1; stroke-width: 1px;"/><path class="y2grid crisp" transform="translate(0,561.0300000000001)" d="M80,0h340" style="stroke: rgb(235, 240, 248); stroke-opacity: 1; stroke-width: 1px;"/><path class="y2grid crisp" transform="translate(0,525.7600000000001)" d="M80,0h340" style="stroke: rgb(235, 240, 248); stroke-opacity: 1; stroke-width: 1px;"/><path class="y2grid crisp" transform="translate(0,490.4800000000001)" d="M80,0h340" style="stroke: rgb(235, 240, 248); stroke-opacity: 1; stroke-width: 1px;"/></g></g><g class="zerolinelayer"><path class="y2zl zl crisp" transform="translate(0,631.58)" d="M80,0h340" style="stroke: rgb(235, 240, 248); stroke-opacity: 1; stroke-width: 2px;"/></g><path class="xlines-below"/><path class="ylines-below"/><g class="overlines-below"/><g class="xaxislayer-below"/><g class="yaxislayer-below"/><g class="overaxes-below"/><g class="plot" transform="translate(80,474.00000000000006)" clip-path="url(#clip9edd5ax2y2plot)"><g class="scatterlayer mlayer"><g class="trace scatter tracec25317" style="stroke-miterlimit: 2; opacity: 1;"><g class="fills"/><g class="errorbars"/><g class="lines"><path class="js-line" d="M12.33,158.29L44.7,158.73L46.25,157.94L47.79,158.66L49.33,158.09L50.87,158.24L52.41,157.55L53.95,159.76L55.88,158.05L70.52,158.35L72.45,158.19L81.7,158.31L83.24,157.47L84.78,159.97L89.02,158.14L135.65,158.27L137.2,157.75L138.74,159.38L140.28,157.75L142.98,158.33L149.53,158.26L190.76,157.87L192.69,159.09L194.23,157.87L195.77,210.51L197.21,13.6L198.43,258.4L199.54,157.57L200.66,159.72L202.05,157.61L204,158.54L206.79,158.14L210.69,158.34L238.56,157.99L239.67,158.82L240.79,157.99L241.9,158.26L244.41,158.41L246.08,157.2L247.48,161.31L248.59,156.74L249.71,158.27L252.77,158.26L282.03,158.25L283.15,155.14L284.26,164.47L285.38,155.14L286.49,158.05L287.61,158.38L299.59,158.64L300.98,157.85L302.1,156.5L303.21,161.78L304.33,154.94L305.44,161.22L306.56,156.78L307.67,158.24L331.08,158.18" style="vector-effect: non-scaling-stroke; fill: none; stroke: rgb(51, 34, 136); stroke-opacity: 1; stroke-width: 2px; opacity: 1;"/></g><g class="points"/><g class="text"/></g></g></g><g class="overplot"/><path class="xlines-above crisp" d="M0,0" style="fill: none;"/><path class="ylines-above crisp" d="M0,0" style="fill: none;"/><g class="overlines-above"/><g class="xaxislayer-above"/><g class="yaxislayer-above"><g class="y2tick"><text text-anchor="end" x="79" y="4.199999999999999" transform="translate(0,737.4000000000001)" style="font-family: 'Open Sans', verdana, arial, sans-serif; font-size: 12px; fill: rgb(42, 63, 95); fill-opacity: 1; white-space: pre; opacity: 1;">−600k</text></g><g class="y2tick"><text text-anchor="end" x="79" y="4.199999999999999" style="font-family: 'Open Sans', verdana, arial, sans-serif; font-size: 12px; fill: rgb(42, 63, 95); fill-opacity: 1; white-space: pre; opacity: 1;" transform="translate(0,702.1300000000001)">−400k</text></g><g class="y2tick"><text text-anchor="end" x="79" y="4.199999999999999" style="font-family: 'Open Sans', verdana, arial, sans-serif; font-size: 12px; fill: rgb(42, 63, 95); fill-opacity: 1; white-space: pre; opacity: 1;" transform="translate(0,666.8600000000001)">−200k</text></g><g class="y2tick"><text text-anchor="end" x="79" y="4.199999999999999" style="font-family: 'Open Sans', verdana, arial, sans-serif; font-size: 12px; fill: rgb(42, 63, 95); fill-opacity: 1; white-space: pre; opacity: 1;" transform="translate(0,631.58)">0</text></g><g class="y2tick"><text text-anchor="end" x="79" y="4.199999999999999" style="font-family: 'Open Sans', verdana, arial, sans-serif; font-size: 12px; fill: rgb(42, 63, 95); fill-opacity: 1; white-space: pre; opacity: 1;" transform="translate(0,596.3100000000001)">200k</text></g><g class="y2tick"><text text-anchor="end" x="79" y="4.199999999999999" style="font-family: 'Open Sans', verdana, arial, sans-serif; font-size: 12px; fill: rgb(42, 63, 95); fill-opacity: 1; white-space: pre; opacity: 1;" transform="translate(0,561.0300000000001)">400k</text></g><g class="y2tick"><text text-anchor="end" x="79" y="4.199999999999999" style="font-family: 'Open Sans', verdana, arial, sans-serif; font-size: 12px; fill: rgb(42, 63, 95); fill-opacity: 1; white-space: pre; opacity: 1;" transform="translate(0,525.7600000000001)">600k</text></g><g class="y2tick"><text text-anchor="end" x="79" y="4.199999999999999" style="font-family: 'Open Sans', verdana, arial, sans-serif; font-size: 12px; fill: rgb(42, 63, 95); fill-opacity: 1; white-space: pre; opacity: 1;" transform="translate(0,490.4800000000001)">800k</text></g></g><g class="overaxes-above"/></g><g class="subplot x3y3"><g class="layer-subplot"><g class="shapelayer"/><g class="imagelayer"/></g><g class="minor-gridlayer"><g class="x3"/><g class="y3"/></g><g class="gridlayer"><g class="x3"><path class="x3grid crisp" transform="translate(148,0)" d="M0,848.0000000000001v272" style="stroke: rgb(235, 240, 248); stroke-opacity: 1; stroke-width: 1px;"/><path class="x3grid crisp" transform="translate(216,0)" d="M0,848.0000000000001v272" style="stroke: rgb(235, 240, 248); stroke-opacity: 1; stroke-width: 1px;"/><path class="x3grid crisp" transform="translate(284,0)" d="M0,848.0000000000001v272" style="stroke: rgb(235, 240, 248); stroke-opacity: 1; stroke-width: 1px;"/><path class="x3grid crisp" transform="translate(352,0)" d="M0,848.0000000000001v272" style="stroke: rgb(235, 240, 248); stroke-opacity: 1; stroke-width: 1px;"/></g><g class="y3"><path class="y3grid crisp" transform="translate(0,1061.95)" d="M80,0h340" style="stroke: rgb(235, 240, 248); stroke-opacity: 1; stroke-width: 1px;"/><path class="y3grid crisp" transform="translate(0,1001.4100000000001)" d="M80,0h340" style="stroke: rgb(235, 240, 248); stroke-opacity: 1; stroke-width: 1px;"/><path class="y3grid crisp" transform="translate(0,880.3500000000001)" d="M80,0h340" style="stroke: rgb(235, 240, 248); stroke-opacity: 1; stroke-width: 1px;"/></g></g><g class="zerolinelayer"><path class="y3zl zl crisp" transform="translate(0,940.8800000000001)" d="M80,0h340" style="stroke: rgb(235, 240, 248); stroke-opacity: 1; stroke-width: 2px;"/></g><path class="xlines-below"/><path class="ylines-below"/><g class="overlines-below"/><g class="xaxislayer-below"/><g class="yaxislayer-below"/><g class="overaxes-below"/><g class="plot" transform="translate(80,848.0000000000001)" clip-path="url(#clip9edd5ax3y3plot)"><g class="scatterlayer mlayer"><g class="trace scatter traceda7864" style="stroke-miterlimit: 2; opacity: 1;"><g class="fills"/><g class="errorbars"/><g class="lines"><path class="js-line" d="M0,196.87L24.66,183.96L30.83,180.95L160.32,118.09L172.65,112.55L188.07,104.76L191.15,103.72L194.23,102.24L195.77,101.5L197.32,92.88L198.43,100.16L259.74,70.54L268.66,66.71L295.41,53.57L297.64,52.52L340,32.47" style="vector-effect: non-scaling-stroke; fill: none; stroke: rgb(68, 1, 84); stroke-opacity: 1; stroke-width: 1px; opacity: 1;"/></g><g class="points"/><g class="text"/></g><g class="trace scatter trace6ff7a5" style="stroke-miterlimit: 2; opacity: 1;"><g class="fills"/><g class="errorbars"/><g class="lines"><path class="js-line" d="M0,186.09L24.66,175.31L30.83,172.48L195.77,96.79L197.32,92.88L198.43,95.49L199.54,94.97L201.77,93.94L204,92.52L206.23,91.87L210.69,89.42L215.15,87.74L224.07,83.23L243.02,74.48L244.13,73.97L340,29.46" style="vector-effect: non-scaling-stroke; fill: none; stroke: rgb(69, 7, 90); stroke-opacity: 1; stroke-width: 1px; opacity: 1;"/></g><g class="points"/><g class="text"/></g><g class="trace scatter traced40f52" style="stroke-miterlimit: 2; opacity: 1;"><g class="fills"/><g class="errorbars"/><g class="lines"><path class="js-line" d="M0,203.99L195.77,99.19L197.32,92.88L198.43,97.77L199.54,97.24L204,95.12L206.23,93.73L224.07,84.53L232.99,79.61L250.82,70.43L259.74,65.71L287.61,51.1L288.72,50.52L340,23.76" style="vector-effect: non-scaling-stroke; fill: none; stroke: rgb(69, 14, 96); stroke-opacity: 1; stroke-width: 1px; opacity: 1;"/></g><g class="points"/><g class="text"/></g><g class="trace scatter trace90f977" style="stroke-miterlimit: 2; opacity: 1;"><g class="fills"/><g class="errorbars"/><g class="lines"><path class="js-line" d="M0,244.84L12.33,238.11L24.66,229.34L86.33,186.26L98.66,178.34L127.95,157.71L129.49,156.66L188.07,117.4L191.15,115.92L192.69,114.35L194.23,113.89L195.77,112.87L197.32,92.88L198.43,111.01L199.54,110.27L201.77,108.81L204,106.89L206.23,105.88L210.69,102.49L215.15,100.03L224.07,93.73L239.67,83.6L240.79,82.88L340,19.75" style="vector-effect: non-scaling-stroke; fill: none; stroke: rgb(70, 20, 101); stroke-opacity: 1; stroke-width: 1px; opacity: 1;"/></g><g class="points"/><g class="text"/></g><g class="trace scatter traceb7f217" style="stroke-miterlimit: 2; opacity: 1;"><g class="fills"/><g class="errorbars"/><g class="lines"><path class="js-line" d="M0,155.34L55.49,137.96L58.58,137L195.77,94.27L197.32,92.88L198.43,93.48L199.54,93.13L204,91.93L206.23,91.06L224.07,85.7L232.99,82.74L250.82,77.39L259.74,74.6L290.95,64.9L295.41,63.52L340,49.65" style="vector-effect: non-scaling-stroke; fill: none; stroke: rgb(71, 26, 107); stroke-opacity: 1; stroke-width: 1px; opacity: 1;"/></g><g class="points"/><g class="text"/></g><g class="trace scatter trace8b7ec2" style="stroke-miterlimit: 2; opacity: 1;"><g class="fills"/><g class="errorbars"/><g class="lines"><path class="js-line" d="M0,182.74L195.77,95.8L197.32,92.88L198.43,94.6L199.54,94.1L206.23,91.13L210.69,89.02L238.56,76.65L239.67,76.15L340,31.63" style="vector-effect: non-scaling-stroke; fill: none; stroke: rgb(71, 32, 113); stroke-opacity: 1; stroke-width: 1px; opacity: 1;"/></g><g class="points"/><g class="text"/></g><g class="trace scatter tracecd85aa" style="stroke-miterlimit: 2; opacity: 1;"><g class="fills"/><g class="errorbars"/><g class="lines"><path class="js-line" d="M0,162.1L78.62,135.24L80.16,134.71L195.77,94.66L197.32,92.88L198.43,93.78L199.54,93.39L204,92.07L206.23,91.09L224.07,85.09L232.99,81.84L250.82,75.91L259.74,72.8L288.72,62.78L290.95,62.01L340,45.05" style="vector-effect: non-scaling-stroke; fill: none; stroke: rgb(72, 39, 119); stroke-opacity: 1; stroke-width: 1px; opacity: 1;"/></g><g class="points"/><g class="text"/></g><g class="trace scatter trace288cee" style="stroke-miterlimit: 2; opacity: 1;"><g class="fills"/><g class="errorbars"/><g class="lines"><path class="js-line" d="M0,200.53L61.66,168.59L67.83,165.39L195.77,99.73L197.32,92.88L198.43,98.41L199.54,97.84L340,27.28" style="vector-effect: non-scaling-stroke; fill: none; stroke: rgb(71, 44, 122); stroke-opacity: 1; stroke-width: 1px; opacity: 1;"/></g><g class="points"/><g class="text"/></g><g class="trace scatter tracef75318" style="stroke-miterlimit: 2; opacity: 1;"><g class="fills"/><g class="errorbars"/><g class="lines"><path class="js-line" d="M0,164.37L86.33,133.88L98.66,129.22L141.82,114.2L147.99,111.78L178.82,101.09L184.98,98.62L192.69,96.15L194.23,95.33L195.77,94.79L197.32,92.88L198.43,93.89L199.54,93.49L204,92.13L206.23,91.11L224.07,84.99L232.99,81.57L250.82,75.45L259.74,72.25L286.49,62.7L287.61,62.31L340,43.6" style="vector-effect: non-scaling-stroke; fill: none; stroke: rgb(69, 49, 125); stroke-opacity: 1; stroke-width: 1px; opacity: 1;"/></g><g class="points"/><g class="text"/></g><g class="trace scatter trace2f972b" style="stroke-miterlimit: 2; opacity: 1;"><g class="fills"/><g class="errorbars"/><g class="lines"><path class="js-line" d="M0,159.77L40.08,146.23L43.16,145.21L195.77,94.5L197.32,92.88L198.43,93.66L199.54,93.29L204,92.01L206.23,91.07L224.07,85.36L232.99,82.19L250.82,76.49L259.74,73.5L288.72,63.89L290.95,63.15L340,46.86" style="vector-effect: non-scaling-stroke; fill: none; stroke: rgb(68, 55, 128); stroke-opacity: 1; stroke-width: 1px; opacity: 1;"/></g><g class="points"/><g class="text"/></g><g class="trace scatter trace791bd3" style="stroke-miterlimit: 2; opacity: 1;"><g class="fills"/><g class="errorbars"/><g class="lines"><path class="js-line" d="M0,146.57L86.33,123.48L98.66,119.98L160.32,103.61L172.65,100.12L195.77,93.9L197.32,92.88L199.54,92.91L200.66,92.76L206.23,91.11L210.69,90.06L232.99,83.91L237.45,82.84L340,55.22" style="vector-effect: non-scaling-stroke; fill: none; stroke: rgb(66, 60, 130); stroke-opacity: 1; stroke-width: 1px; opacity: 1;"/></g><g class="points"/><g class="text"/></g><g class="trace scatter trace751c3d" style="stroke-miterlimit: 2; opacity: 1;"><g class="fills"/><g class="errorbars"/><g class="lines"><path class="js-line" d="M0,162.57L172.65,102.67L178.82,100.79L195.77,94.66L197.32,92.88L198.43,93.78L199.54,93.4L204,92.07L206.23,91.08L224.07,85.12L232.99,81.81L250.82,75.85L259.74,72.73L287.61,63.07L288.72,62.68L340,44.88" style="vector-effect: non-scaling-stroke; fill: none; stroke: rgb(64, 65, 133); stroke-opacity: 1; stroke-width: 1px; opacity: 1;"/></g><g class="points"/><g class="text"/></g><g class="trace scatter trace3ab1a2" style="stroke-miterlimit: 2; opacity: 1;"><g class="fills"/><g class="errorbars"/><g class="lines"><path class="js-line" d="M0,185.84L86.33,146.54L98.66,140.61L141.82,121.3L147.99,118.25L178.82,104.57L184.98,101.49L192.69,98.29L194.23,97.31L195.77,96.61L197.32,92.88L198.43,95.46L199.54,94.95L204,93.17L206.23,91.93L224.07,84.12L232.99,79.85L250.82,72.05L259.74,68.01L286.49,55.96L287.61,55.47L340,31.97" style="vector-effect: non-scaling-stroke; fill: none; stroke: rgb(63, 71, 136); stroke-opacity: 1; stroke-width: 1px; opacity: 1;"/></g><g class="points"/><g class="text"/></g><g class="trace scatter trace629ef0" style="stroke-miterlimit: 2; opacity: 1;"><g class="fills"/><g class="errorbars"/><g class="lines"><path class="js-line" d="M0,187.04L43.16,167.43L44.7,166.71L86.33,147.48L98.66,141.41L137.2,124L138.74,123.29L195.77,96.67L197.32,92.88L198.43,95.5L199.54,94.99L201.77,93.96L204,93.22L210.69,90.13L215.15,87.79L247.48,73.14L248.59,72.63L340,30.56" style="vector-effect: non-scaling-stroke; fill: none; stroke: rgb(61, 76, 137); stroke-opacity: 1; stroke-width: 1px; opacity: 1;"/></g><g class="points"/><g class="text"/></g><g class="trace scatter trace0bfdf6" style="stroke-miterlimit: 2; opacity: 1;"><g class="fills"/><g class="errorbars"/><g class="lines"><path class="js-line" d="M0,184.72L49.33,162.74L50.87,161.98L195.77,96.56L197.32,92.88L198.43,95.41L199.54,94.91L204,93.13L206.23,91.91L224.07,84.15L232.99,79.95L250.82,72.21L259.74,68.21L288.72,55.3L290.95,54.31L340,32.52" style="vector-effect: non-scaling-stroke; fill: none; stroke: rgb(59, 81, 138); stroke-opacity: 1; stroke-width: 1px; opacity: 1;"/></g><g class="points"/><g class="text"/></g><g class="trace scatter trace220713" style="stroke-miterlimit: 2; opacity: 1;"><g class="fills"/><g class="errorbars"/><g class="lines"><path class="js-line" d="M0,186.27L78.62,150.17L80.16,149.46L195.77,96.83L197.32,92.88L198.43,95.54L199.54,95.03L201.77,94.01L204,92.62L206.23,91.96L210.69,89.54L215.15,87.86L224.07,83.39L243.02,74.73L244.13,74.21L340,30.09" style="vector-effect: non-scaling-stroke; fill: none; stroke: rgb(45, 114, 142); stroke-opacity: 1; stroke-width: 1px; opacity: 1;"/></g><g class="points"/><g class="text"/></g><g class="trace scatter tracea9c7e2" style="stroke-miterlimit: 2; opacity: 1;"><g class="fills"/><g class="errorbars"/><g class="lines"><path class="js-line" d="M0,205.27L30.83,188.89L37,185.53L184.98,105.31L188.07,103.9L195.77,99.53L197.32,92.88L198.43,98.15L199.54,97.55L204,95.36L206.23,93.98L224.07,84.64L232.99,79.66L250.82,70.4L259.74,65.63L295.41,46.73L297.64,45.55L340,23.23" style="vector-effect: non-scaling-stroke; fill: none; stroke: rgb(43, 118, 142); stroke-opacity: 1; stroke-width: 1px; opacity: 1;"/></g><g class="points"/><g class="text"/></g><g class="trace scatter trace70842f" style="stroke-miterlimit: 2; opacity: 1;"><g class="fills"/><g class="errorbars"/><g class="lines"><path class="js-line" d="M0,249.69L12.33,239.76L24.66,230.85L137.2,150.95L138.74,149.87L195.77,110.62L197.32,92.88L198.43,108.72L199.54,107.96L204,104.73L206.23,103.38L224.07,90.97L232.99,85.09L259.74,66.93L268.66,61.15L308.79,34.16L311.02,32.69L340,13.6" style="vector-effect: non-scaling-stroke; fill: none; stroke: rgb(41, 122, 142); stroke-opacity: 1; stroke-width: 1px; opacity: 1;"/></g><g class="points"/><g class="text"/></g><g class="trace scatter trace24e45b" style="stroke-miterlimit: 2; opacity: 1;"><g class="fills"/><g class="errorbars"/><g class="lines"><path class="js-line" d="M0,156.49L86.33,129.26L98.66,125.1L141.82,111.67L147.99,109.51L188.07,97.03L191.15,95.82L195.77,94.35L197.32,92.88L198.43,93.54L199.54,93.19L204,91.96L206.23,91.06L224.07,85.6L232.99,82.57L250.82,77.1L259.74,74.25L290.95,64.33L295.41,62.91L340,48.73" style="vector-effect: non-scaling-stroke; fill: none; stroke: rgb(40, 126, 142); stroke-opacity: 1; stroke-width: 1px; opacity: 1;"/></g><g class="points"/><g class="text"/></g><g class="trace scatter trace649e95" style="stroke-miterlimit: 2; opacity: 1;"><g class="fills"/><g class="errorbars"/><g class="lines"><path class="js-line" d="M0,183.3L98.66,139.43L110.99,133.72L195.77,95.95L197.32,92.88L198.43,94.73L199.54,94.23L206.23,91.25L210.69,89.11L232.99,79.3L237.45,77.17L340,31.39" style="vector-effect: non-scaling-stroke; fill: none; stroke: rgb(38, 130, 142); stroke-opacity: 1; stroke-width: 1px; opacity: 1;"/></g><g class="points"/><g class="text"/></g><g class="trace scatter trace2aff8b" style="stroke-miterlimit: 2; opacity: 1;"><g class="fills"/><g class="errorbars"/><g class="lines"><path class="js-line" d="M0,161.2L195.77,94.6L197.32,92.88L198.43,93.73L199.54,93.36L204,92.05L206.23,91.08L224.07,85.23L232.99,81.98L250.82,76.13L259.74,73.07L288.72,63.2L290.95,62.45L340,45.73" style="vector-effect: non-scaling-stroke; fill: none; stroke: rgb(37, 135, 141); stroke-opacity: 1; stroke-width: 1px; opacity: 1;"/></g><g class="points"/><g class="text"/></g><g class="trace scatter trace51306b" style="stroke-miterlimit: 2; opacity: 1;"><g class="fills"/><g class="errorbars"/><g class="lines"><path class="js-line" d="M0,199.74L52.41,172.59L53.95,171.81L160.32,117.88L172.65,111.78L195.77,100.19L197.32,92.88L198.43,98.84L199.54,98.29L210.69,92.63L215.15,90.49L290.95,52.8L295.41,50.6L340,28.68" style="vector-effect: non-scaling-stroke; fill: none; stroke: rgb(36, 140, 140); stroke-opacity: 1; stroke-width: 1px; opacity: 1;"/></g><g class="points"/><g class="text"/></g><g class="trace scatter trace4e9716" style="stroke-miterlimit: 2; opacity: 1;"><g class="fills"/><g class="errorbars"/><g class="lines"><path class="js-line" d="M0,162.85L86.33,133L98.66,128.43L141.82,113.71L147.99,111.33L188.07,97.64L191.15,96.3L194.23,95.24L195.77,94.7L197.32,92.88L198.43,93.81L340,44.59" style="vector-effect: non-scaling-stroke; fill: none; stroke: rgb(34, 144, 140); stroke-opacity: 1; stroke-width: 1px; opacity: 1;"/></g><g class="points"/><g class="text"/></g><g class="trace scatter trace0c97f9" style="stroke-miterlimit: 2; opacity: 1;"><g class="fills"/><g class="errorbars"/><g class="lines"><path class="js-line" d="M0,161.75L141.82,113.33L147.99,111L188.07,97.53L191.15,96.22L195.77,94.63L197.32,92.88L198.43,93.76L199.54,93.38L204,92.06L206.23,91.08L224.07,85.18L232.99,81.9L250.82,76.01L259.74,72.92L287.61,63.39L288.72,63L340,45.41" style="vector-effect: non-scaling-stroke; fill: none; stroke: rgb(33, 148, 139); stroke-opacity: 1; stroke-width: 1px; opacity: 1;"/></g><g class="points"/><g class="text"/></g><g class="trace scatter trace73a2aa" style="stroke-miterlimit: 2; opacity: 1;"><g class="fills"/><g class="errorbars"/><g class="lines"><path class="js-line" d="M0,147.04L141.82,108.7L147.99,106.87L195.77,93.92L197.32,92.88L199.54,92.92L200.66,92.77L206.23,91.11L210.69,90.05L232.99,83.84L237.45,82.77L340,54.92" style="vector-effect: non-scaling-stroke; fill: none; stroke: rgb(32, 153, 138); stroke-opacity: 1; stroke-width: 1px; opacity: 1;"/></g><g class="points"/><g class="text"/></g><g class="trace scatter trace8def19" style="stroke-miterlimit: 2; opacity: 1;"><g class="fills"/><g class="errorbars"/><g class="lines"><path class="js-line" d="M0,164.16L129.49,118.43L132.57,117.34L195.77,94.76L197.32,92.88L198.43,93.86L199.54,93.47L204,92.12L206.23,91.1L224.07,85.01L232.99,81.62L250.82,75.54L259.74,72.35L286.49,62.86L287.61,62.47L340,43.88" style="vector-effect: non-scaling-stroke; fill: none; stroke: rgb(31, 158, 137); stroke-opacity: 1; stroke-width: 1px; opacity: 1;"/></g><g class="points"/><g class="text"/></g><g class="trace scatter tracea68f44" style="stroke-miterlimit: 2; opacity: 1;"><g class="fills"/><g class="errorbars"/><g class="lines"><path class="js-line" d="M0,184.07L147.99,117.64L160.32,112.43L195.77,96.4L197.32,92.88L198.43,95.26L199.54,94.77L204,93.02L206.23,91.8L224.07,84.12L232.99,79.94L250.82,72.28L259.74,68.31L288.72,55.52L290.95,54.53L340,32.93" style="vector-effect: non-scaling-stroke; fill: none; stroke: rgb(34, 162, 135); stroke-opacity: 1; stroke-width: 1px; opacity: 1;"/></g><g class="points"/><g class="text"/></g><g class="trace scatter trace5586d1" style="stroke-miterlimit: 2; opacity: 1;"><g class="fills"/><g class="errorbars"/><g class="lines"><path class="js-line" d="M0,184.46L191.15,98.43L192.69,98.08L195.77,96.36L197.32,92.88L198.43,95.22L199.54,94.72L201.77,93.72L204,93.01L210.69,90.02L215.15,87.74L247.48,73.53L248.59,73.04L340,32.2" style="vector-effect: non-scaling-stroke; fill: none; stroke: rgb(38, 166, 132); stroke-opacity: 1; stroke-width: 1px; opacity: 1;"/></g><g class="points"/><g class="text"/></g><g class="trace scatter trace8a2409" style="stroke-miterlimit: 2; opacity: 1;"><g class="fills"/><g class="errorbars"/><g class="lines"><path class="js-line" d="M0,184.13L55.49,159.41L58.58,158.03L195.77,96.43L197.32,92.88L198.43,95.29L199.54,94.8L204,93.04L206.23,91.82L224.07,84.12L232.99,79.92L250.82,72.24L259.74,68.26L287.61,55.92L288.72,55.43L340,32.78" style="vector-effect: non-scaling-stroke; fill: none; stroke: rgb(41, 170, 130); stroke-opacity: 1; stroke-width: 1px; opacity: 1;"/></g><g class="points"/><g class="text"/></g><g class="trace scatter trace891b65" style="stroke-miterlimit: 2; opacity: 1;"><g class="fills"/><g class="errorbars"/><g class="lines"><path class="js-line" d="M0,58.27L43.16,69.79L44.7,70.24L47.79,71.04L49.33,69.89L50.87,71.86L52.41,72.28L83.24,80.33L84.78,80.73L86.33,81.32L98.66,91.62L110.99,87.34L123.32,89.56L126.4,90.91L127.95,91.28L141.82,94.67L147.99,101.85L160.32,98.04L172.65,107.19L178.82,102.09L184.98,109.85L188.07,104.07L191.15,111.17L192.69,105.04L194.23,111.81L195.77,112.13L197.32,92.88L198.43,111.68L199.54,111.92L200.66,106.82L201.77,112.37L204,107.5L206.23,113.27L210.69,108.92L215.15,115.16L224.07,111.56L232.99,118.78L237.45,114.87L238.56,114.94L259.74,118.99L268.66,126.5L278.69,122.32L279.8,122.51L303.21,126.45L304.33,125.28L305.44,126.82L306.56,127L322.16,129.4L331.08,130.93L340,132.3" style="vector-effect: non-scaling-stroke; fill: none; stroke: rgb(45, 174, 127); stroke-opacity: 1; stroke-width: 1px; opacity: 1;"/></g><g class="points"/><g class="text"/></g><g class="trace scatter traceccda13" style="stroke-miterlimit: 2; opacity: 1;"><g class="fills"/><g class="errorbars"/><g class="lines"><path class="js-line" d="M0,205.29L46.25,179.92L47.79,179.09L67.83,168.26L70.91,166.6L172.65,111.87L178.82,109.2L191.15,101.99L192.69,101.4L195.77,99.53L197.32,92.88L198.43,98.15L199.54,97.56L204,95.39L206.23,94.01L224.07,84.75L232.99,79.83L250.82,70.61L259.74,65.89L300.98,44.21L302.1,43.62L340,23.81" style="vector-effect: non-scaling-stroke; fill: none; stroke: rgb(96, 200, 96); stroke-opacity: 1; stroke-width: 1px; opacity: 1;"/></g><g class="points"/><g class="text"/></g><g class="trace scatter trace1b4d68" style="stroke-miterlimit: 2; opacity: 1;"><g class="fills"/><g class="errorbars"/><g class="lines"><path class="js-line" d="M0,258.4L12.33,247.69L24.66,238.56L123.32,165.69L124.86,164.58L178.82,125.84L184.98,121.9L192.69,116.01L194.23,115.38L195.77,114.29L197.32,92.88L198.43,112.32L199.54,111.53L204,108.06L206.23,106.84L215.15,100.6L224.07,94L246.36,78.54L247.48,77.77L317.71,29.83L322.16,26.83L340,14.91" style="vector-effect: non-scaling-stroke; fill: none; stroke: rgb(105, 204, 91); stroke-opacity: 1; stroke-width: 1px; opacity: 1;"/></g><g class="points"/><g class="text"/></g><g class="trace scatter tracee9f904" style="stroke-miterlimit: 2; opacity: 1;"><g class="fills"/><g class="errorbars"/><g class="lines"><path class="js-line" d="M0,154.41L135.65,112.83L137.2,112.36L195.77,94.23L197.32,92.88L198.43,93.45L199.54,93.11L204,91.92L206.23,91.06L224.07,85.77L232.99,82.85L250.82,77.57L259.74,74.81L295.41,63.88L297.64,63.19L340,50.2" style="vector-effect: non-scaling-stroke; fill: none; stroke: rgb(115, 207, 85); stroke-opacity: 1; stroke-width: 1px; opacity: 1;"/></g><g class="points"/><g class="text"/></g><g class="trace scatter trace72bcc5" style="stroke-miterlimit: 2; opacity: 1;"><g class="fills"/><g class="errorbars"/><g class="lines"><path class="js-line" d="M0,182.89L55.49,158.37L58.58,156.99L195.77,96.03L197.32,92.88L198.43,94.82L199.54,94.32L206.23,91.35L210.69,89.23L237.45,77.35L238.56,76.85L340,31.82" style="vector-effect: non-scaling-stroke; fill: none; stroke: rgb(126, 210, 78); stroke-opacity: 1; stroke-width: 1px; opacity: 1;"/></g><g class="points"/><g class="text"/></g><g class="trace scatter trace1450ec" style="stroke-miterlimit: 2; opacity: 1;"><g class="fills"/><g class="errorbars"/><g class="lines"><path class="js-line" d="M0,160.6L50.87,143.73L52.41,143.21L195.77,94.57L197.32,92.88L198.43,93.71L199.54,93.33L204,92.03L206.23,91.07L224.07,85.24L232.99,82L250.82,76.18L259.74,73.13L288.72,63.31L290.95,62.56L340,45.92" style="vector-effect: non-scaling-stroke; fill: none; stroke: rgb(138, 212, 70); stroke-opacity: 1; stroke-width: 1px; opacity: 1;"/></g><g class="points"/><g class="text"/></g><g class="trace scatter trace5c8201" style="stroke-miterlimit: 2; opacity: 1;"><g class="fills"/><g class="errorbars"/><g class="lines"><path class="js-line" d="M0,196.82L73.99,159.62L75.53,158.84L195.77,98.86L197.32,92.88L198.43,97.54L199.54,96.99L210.69,91.55L215.15,89.29L340,28.26" style="vector-effect: non-scaling-stroke; fill: none; stroke: rgb(149, 215, 63); stroke-opacity: 1; stroke-width: 1px; opacity: 1;"/></g><g class="points"/><g class="text"/></g><g class="trace scatter trace8f8fde" style="stroke-miterlimit: 2; opacity: 1;"><g class="fills"/><g class="errorbars"/><g class="lines"><path class="js-line" d="M0,163.05L98.66,128.42L110.99,124.42L195.77,94.71L197.32,92.88L198.43,93.82L199.54,93.44L204,92.1L206.23,91.1L224.07,85.1L232.99,81.76L250.82,75.76L259.74,72.62L287.61,62.9L288.72,62.51L340,44.59" style="vector-effect: non-scaling-stroke; fill: none; stroke: rgb(161, 217, 56); stroke-opacity: 1; stroke-width: 1px; opacity: 1;"/></g><g class="points"/><g class="text"/></g><g class="trace scatter trace407529" style="stroke-miterlimit: 2; opacity: 1;"><g class="fills"/><g class="errorbars"/><g class="lines"><path class="js-line" d="M0,161.03L98.66,127.36L110.99,123.48L195.77,94.58L197.32,92.88L198.43,93.72L199.54,93.34L204,92.05L206.23,91.08L224.07,85.25L232.99,82.01L250.82,76.19L259.74,73.14L288.72,63.33L290.95,62.57L340,45.94" style="vector-effect: non-scaling-stroke; fill: none; stroke: rgb(172, 220, 49); stroke-opacity: 1; stroke-width: 1px; opacity: 1;"/></g><g class="points"/><g class="text"/></g><g class="trace scatter trace93a48b" style="stroke-miterlimit: 2; opacity: 1;"><g class="fills"/><g class="errorbars"/><g class="lines"><path class="js-line" d="M0,146.89L195.77,93.91L197.32,92.88L199.54,92.92L200.66,92.76L206.23,91.11L210.69,90.05L232.99,83.87L237.45,82.79L317.71,61.07L322.16,59.87L340,55.03" style="vector-effect: non-scaling-stroke; fill: none; stroke: rgb(184, 222, 43); stroke-opacity: 1; stroke-width: 1px; opacity: 1;"/></g><g class="points"/><g class="text"/></g><g class="trace scatter trace5e0ad9" style="stroke-miterlimit: 2; opacity: 1;"><g class="fills"/><g class="errorbars"/><g class="lines"><path class="js-line" d="M0,163.66L75.53,137.17L77.08,134.37L78.62,136.09L80.16,135.54L195.77,94.74L197.32,92.88L198.43,93.84L199.54,93.45L204,92.1L206.23,91.1L224.07,85.05L232.99,81.68L246.36,77.19L247.48,74.8L248.59,76.4L249.71,76.01L322.16,50.49L331.08,47.34L340,44.19" style="vector-effect: non-scaling-stroke; fill: none; stroke: rgb(195, 224, 42); stroke-opacity: 1; stroke-width: 1px; opacity: 1;"/></g><g class="points"/><g class="text"/></g><g class="trace scatter trace6e823d" style="stroke-miterlimit: 2; opacity: 1;"><g class="fills"/><g class="errorbars"/><g class="lines"><path class="js-line" d="M0,185.52L67.83,154.54L70.91,153.15L195.77,96.57L197.32,92.88L198.43,95.42L199.54,94.92L204,93.15L206.23,91.91L224.07,84.14L232.99,79.9L250.82,72.15L259.74,68.13L287.61,55.67L288.72,55.17L340,32.29" style="vector-effect: non-scaling-stroke; fill: none; stroke: rgb(207, 225, 41); stroke-opacity: 1; stroke-width: 1px; opacity: 1;"/></g><g class="points"/><g class="text"/></g><g class="trace scatter traceb0f627" style="stroke-miterlimit: 2; opacity: 1;"><g class="fills"/><g class="errorbars"/><g class="lines"><path class="js-line" d="M0,187.66L84.78,148.47L86.33,147.75L110.99,136.32L123.32,130.62L147.99,118.83L160.32,113.47L191.15,98.84L192.69,98.48L195.77,96.7L197.32,92.88L198.43,95.52L199.54,95L201.77,93.97L204,93.23L206.23,91.9L210.69,90.13L215.15,87.77L224.07,83.94L249.71,72.04L250.82,71.56L340,30.3" style="vector-effect: non-scaling-stroke; fill: none; stroke: rgb(218, 227, 40); stroke-opacity: 1; stroke-width: 1px; opacity: 1;"/></g><g class="points"/><g class="text"/></g><g class="trace scatter trace89e32a" style="stroke-miterlimit: 2; opacity: 1;"><g class="fills"/><g class="errorbars"/><g class="lines"><path class="js-line" d="M0,186.34L195.77,96.67L197.32,92.88L198.43,95.51L199.54,95.01L204,93.21L206.23,91.97L224.07,84.12L232.99,79.85L250.82,72.02L259.74,67.96L287.61,55.39L288.72,54.89L340,31.82" style="vector-effect: non-scaling-stroke; fill: none; stroke: rgb(230, 228, 39); stroke-opacity: 1; stroke-width: 1px; opacity: 1;"/></g><g class="points"/><g class="text"/></g><g class="trace scatter traceaca5c2" style="stroke-miterlimit: 2; opacity: 1;"><g class="fills"/><g class="errorbars"/><g class="lines"><path class="js-line" d="M0,59.77L12.33,56.71L24.66,60.32L47.79,67.33L49.33,66.19L50.87,68.24L52.41,68.69L78.62,76.26L80.16,76.66L86.33,78.62L98.66,89.42L110.99,85.27L123.32,87.8L126.4,89.23L127.95,89.65L141.82,93.42L147.99,100.92L160.32,97.27L172.65,106.92L178.82,101.85L184.98,109.95L188.07,104.08L191.15,111.44L192.69,105.18L194.23,112.17L195.77,112.54L197.32,92.88L198.43,112.13L199.54,112.39L200.66,107.17L201.77,112.91L204,107.96L206.23,113.96L210.69,109.51L215.15,116.01L224.07,112.54L232.99,120.18L237.45,116.2L238.56,116.3L259.74,120.98L268.66,128.84L278.69,124.79L279.8,125.01L303.21,129.6L304.33,128.4L305.44,130.03L306.56,130.25L322.16,133.07L331.08,134.84L340,136.49" style="vector-effect: non-scaling-stroke; fill: none; stroke: rgb(241, 230, 38); stroke-opacity: 1; stroke-width: 1px; opacity: 1;"/></g><g class="points"/><g class="text"/></g><g class="trace scatter trace4b2751" style="stroke-miterlimit: 2; opacity: 1;"><g class="fills"/><g class="errorbars"/><g class="lines"><path class="js-line" d="M0,163.26L86.33,133.24L98.66,128.65L141.82,113.84L147.99,111.47L178.82,100.93L184.98,98.5L192.69,96.07L194.23,95.26L195.77,94.72L197.32,92.88L198.43,93.83L199.54,93.44L204,92.1L206.23,91.1L224.07,85.05L232.99,81.7L250.82,75.67L259.74,72.51L288.72,62.33L290.95,61.55L340,44.31" style="vector-effect: non-scaling-stroke; fill: none; stroke: rgb(253, 231, 37); stroke-opacity: 1; stroke-width: 1px; opacity: 1;"/></g><g class="points"/><g class="text"/></g><g class="trace scatter trace70980f" style="stroke-miterlimit: 2; opacity: 1;"><g class="fills"/><g class="errorbars"/><g class="lines"><path class="js-line" d="M0,188.82L188.07,111.48L191.15,110.17L195.77,108.27L197.32,92.88L198.43,107.19L199.54,106.73L215.15,100.34L224.07,96.73L340,49.42" style="vector-effect: non-scaling-stroke; fill: none; stroke: rgb(169, 169, 169); stroke-opacity: 1; stroke-width: 2px; opacity: 1;"/></g><g class="points"/><g class="text"/></g></g></g><g class="overplot"/><path class="xlines-above crisp" d="M0,0" style="fill: none;"/><path class="ylines-above crisp" d="M0,0" style="fill: none;"/><g class="overlines-above"/><g class="xaxislayer-above"><g class="x3tick"><text text-anchor="middle" x="0" y="1133" transform="translate(80,0)" style="font-family: 'Open Sans', verdana, arial, sans-serif; font-size: 12px; fill: rgb(42, 63, 95); fill-opacity: 1; white-space: pre; opacity: 1;">2.66</text></g><g class="x3tick"><text text-anchor="middle" x="0" y="1133" style="font-family: 'Open Sans', verdana, arial, sans-serif; font-size: 12px; fill: rgb(42, 63, 95); fill-opacity: 1; white-space: pre; opacity: 1;" transform="translate(148,0)">2.68</text></g><g class="x3tick"><text text-anchor="middle" x="0" y="1133" style="font-family: 'Open Sans', verdana, arial, sans-serif; font-size: 12px; fill: rgb(42, 63, 95); fill-opacity: 1; white-space: pre; opacity: 1;" transform="translate(216,0)">2.7</text></g><g class="x3tick"><text text-anchor="middle" x="0" y="1133" style="font-family: 'Open Sans', verdana, arial, sans-serif; font-size: 12px; fill: rgb(42, 63, 95); fill-opacity: 1; white-space: pre; opacity: 1;" transform="translate(284,0)">2.72</text></g><g class="x3tick"><text text-anchor="middle" x="0" y="1133" style="font-family: 'Open Sans', verdana, arial, sans-serif; font-size: 12px; fill: rgb(42, 63, 95); fill-opacity: 1; white-space: pre; opacity: 1;" transform="translate(352,0)">2.74</text></g><g class="x3tick"><text text-anchor="middle" x="0" y="1133" style="font-family: 'Open Sans', verdana, arial, sans-serif; font-size: 12px; fill: rgb(42, 63, 95); fill-opacity: 1; white-space: pre; opacity: 1;" transform="translate(420,0)">2.76</text></g></g><g class="yaxislayer-above"><g class="y3tick"><text text-anchor="end" x="79" y="4.199999999999999" transform="translate(0,1061.95)" style="font-family: 'Open Sans', verdana, arial, sans-serif; font-size: 12px; fill: rgb(42, 63, 95); fill-opacity: 1; white-space: pre; opacity: 1;">−0.2</text></g><g class="y3tick"><text text-anchor="end" x="79" y="4.199999999999999" style="font-family: 'Open Sans', verdana, arial, sans-serif; font-size: 12px; fill: rgb(42, 63, 95); fill-opacity: 1; white-space: pre; opacity: 1;" transform="translate(0,1001.4100000000001)">−0.1</text></g><g class="y3tick"><text text-anchor="end" x="79" y="4.199999999999999" style="font-family: 'Open Sans', verdana, arial, sans-serif; font-size: 12px; fill: rgb(42, 63, 95); fill-opacity: 1; white-space: pre; opacity: 1;" transform="translate(0,940.8800000000001)">0</text></g><g class="y3tick"><text text-anchor="end" x="79" y="4.199999999999999" style="font-family: 'Open Sans', verdana, arial, sans-serif; font-size: 12px; fill: rgb(42, 63, 95); fill-opacity: 1; white-space: pre; opacity: 1;" transform="translate(0,880.3500000000001)">0.1</text></g></g><g class="overaxes-above"/></g></g><g class="polarlayer"/><g class="smithlayer"/><g class="ternarylayer"/><g class="geolayer"/><g class="funnelarealayer"/><g class="pielayer"/><g class="iciclelayer"/><g class="treemaplayer"/><g class="sunburstlayer"/><g class="glimages"/><defs id="topdefs-9edd5a"><g class="clips"/><clipPath id="legend9edd5a"><rect width="188" height="29" x="0" y="0"/></clipPath></defs><g class="layer-above"><g class="imagelayer"/><g class="shapelayer"/></g><g class="infolayer"><g class="legend" pointer-events="all" transform="translate(232,50.59999999999998)"><rect class="bg" shape-rendering="crispEdges" style="stroke: rgb(68, 68, 68); stroke-opacity: 1; fill: rgb(255, 255, 255); fill-opacity: 1; stroke-width: 0px;" width="188" height="29" x="0" y="0"/><g class="scrollbox" transform="" clip-path="url(#legend9edd5a)"><g class="groups"><g class="traces" transform="translate(0,14.5)" style="opacity: 1;"><text class="legendtext" text-anchor="start" x="40" y="4.680000000000001" style="font-family: 'Open Sans', verdana, arial, sans-serif; font-size: 12px; fill: rgb(42, 63, 95); fill-opacity: 1; white-space: pre;">Population Log-likelihood</text><g class="layers" style="opacity: 1;"><g class="legendfill"/><g class="legendlines"><path class="js-line" d="M5,0h30" style="fill: none; stroke: rgb(51, 34, 136); stroke-opacity: 1; stroke-width: 2px;"/></g><g class="legendsymbols"><g class="legendpoints"/></g></g><rect class="legendtoggle" x="0" y="-9.5" width="184.703125" height="19" style="fill: rgb(0, 0, 0); fill-opacity: 0;"/></g></g></g><rect class="scrollbar" rx="20" ry="3" width="0" height="0" style="fill: rgb(128, 139, 164); fill-opacity: 1;" x="0" y="0"/></g><g class="g-gtitle"/><g class="g-xtitle"/><g class="g-x2title"/><g class="g-x3title"/><g class="g-ytitle"/><g class="g-y2title"/><g class="g-y3title"/></g></svg>